<svg xmlns="http://www.w3.org/2000/svg" xmlns:xlink="http://www.w3.org/1999/xlink" version="1.1" x="0" y="0" height="230" width="800" viewBox="0 0 800 230" preserveAspectRatio="none"  >
<g label="Query sequence" class="clusterblast-cluster"  >
<text x="5" y="20" class="clusterblast-acc"  >
Query sequence</text>
<line x1="10" y1="35" x2="778.0" y2="35" style="stroke-width:1; stroke:grey; "  />
<polygon points="216,35 221,30 227,30 227,40 221,40 216,35 " style="fill:white; stroke-width:1; stroke:black; " description="&lt;b&gt;HS041_36530&lt;/b&gt;&lt;br&gt;LysR family transcriptional regulator&lt;br&gt;Location: 418494 - 419457" locus_tag="HS041_36530" class="clusterblast-orf" id="dummy-3_q0_0_all"  />
<polygon points="232,40 241,40 246,35 241,30 232,30 232,40 " style="fill:#d81515; stroke-width:1; stroke:black; " description="&lt;b&gt;HS041_36535&lt;/b&gt;&lt;br&gt;arginine deiminase&lt;br&gt;Location: 419904 - 421152" locus_tag="HS041_36535" class="clusterblast-orf" id="dummy-3_q1_0_all"  />
<polygon points="246,40 253,40 258,35 253,30 246,30 246,40 " style="fill:#15d815; stroke-width:1; stroke:black; " description="&lt;b&gt;HS041_36540&lt;/b&gt;&lt;br&gt;ornithine carbamoyltransferase&lt;br&gt;Location: 421178 - 422183" locus_tag="HS041_36540" class="clusterblast-orf" id="dummy-3_q2_0_all"  />
<polygon points="258,35 263,30 266,30 266,40 263,40 258,35 " style="fill:#1515d8; stroke-width:1; stroke:black; " description="&lt;b&gt;HS041_36545&lt;/b&gt;&lt;br&gt;thioesterase&lt;br&gt;Location: 422231 - 422939" locus_tag="HS041_36545" class="clusterblast-orf" id="dummy-3_q3_0_all"  />
<polygon points="266,35 271,30 283,30 283,40 271,40 266,35 " style="fill:white; stroke-width:1; stroke:black; " description="&lt;b&gt;HS041_36550&lt;/b&gt;&lt;br&gt;MFS transporter&lt;br&gt;Location: 422971 - 424405" locus_tag="HS041_36550" class="clusterblast-orf" id="dummy-3_q4_0_all"  />
<polygon points="283,35 288,30 293,30 293,40 288,40 283,35 " style="fill:#d815d8; stroke-width:1; stroke:black; " description="&lt;b&gt;HS041_36555&lt;/b&gt;&lt;br&gt;methyltransferase domain-containing protein&lt;br&gt;Location: 424476 - 425313" locus_tag="HS041_36555" class="clusterblast-orf" id="dummy-3_q5_0_all"  />
<polygon points="293,35 298,30 301,30 301,40 298,40 293,35 " style="fill:white; stroke-width:1; stroke:black; " description="&lt;b&gt;HS041_36560&lt;/b&gt;&lt;br&gt;class I SAM-dependent methyltransferase&lt;br&gt;Location: 425339 - 426083" locus_tag="HS041_36560" class="clusterblast-orf" id="dummy-3_q6_0_all"  />
<polygon points="301,35 306,30 311,30 311,40 306,40 301,35 " style="fill:white; stroke-width:1; stroke:black; " description="&lt;b&gt;HS041_36565&lt;/b&gt;&lt;br&gt;class I SAM-dependent methyltransferase&lt;br&gt;Location: 426079 - 426922" locus_tag="HS041_36565" class="clusterblast-orf" id="dummy-3_q7_0_all"  />
<polygon points="311,35 316,30 330,30 330,40 316,40 311,35 " style="fill:white; stroke-width:1; stroke:black; " description="&lt;b&gt;HS041_36570&lt;/b&gt;&lt;br&gt;hypothetical protein&lt;br&gt;Location: 426937 - 428644" locus_tag="HS041_36570" class="clusterblast-orf" id="dummy-3_q8_0_all"  />
<polygon points="330,35 335,30 335,30 335,40 335,40 330,35 " style="fill:white; stroke-width:1; stroke:black; " description="&lt;b&gt;HS041_36575&lt;/b&gt;&lt;br&gt;hypothetical protein&lt;br&gt;Location: 428640 - 429072" locus_tag="HS041_36575" class="clusterblast-orf" id="dummy-3_q9_0_all"  />
<polygon points="335,35 340,30 353,30 353,40 340,40 335,35 " style="fill:white; stroke-width:1; stroke:black; " description="&lt;b&gt;HS041_36580&lt;/b&gt;&lt;br&gt;hypothetical protein&lt;br&gt;Location: 429068 - 430640" locus_tag="HS041_36580" class="clusterblast-orf" id="dummy-3_q10_0_all"  />
<polygon points="354,40 358,40 363,35 358,30 354,30 354,40 " style="fill:white; stroke-width:1; stroke:black; " description="&lt;b&gt;HS041_36585&lt;/b&gt;&lt;br&gt;serine/threonine protein kinase&lt;br&gt;Location: 430794 - 431598" locus_tag="HS041_36585" class="clusterblast-orf" id="dummy-3_q11_0_all"  />
<polygon points="363,35 368,30 378,30 378,40 368,40 363,35 " style="fill:white; stroke-width:1; stroke:black; " description="&lt;b&gt;HS041_36590&lt;/b&gt;&lt;br&gt;MFS transporter&lt;br&gt;Location: 431587 - 432871" locus_tag="HS041_36590" class="clusterblast-orf" id="dummy-3_q12_0_all"  />
<polygon points="378,35 381,30 381,40 378,35 " style="fill:#d8d815; stroke-width:1; stroke:black; " description="&lt;b&gt;HS041_36595&lt;/b&gt;&lt;br&gt;MbtH family NRPS accessory protein&lt;br&gt;Location: 432924 - 433152" locus_tag="HS041_36595" class="clusterblast-orf" id="dummy-3_q13_0_all"  />
<polygon points="381,35 386,30 394,30 394,40 386,40 381,35 " style="fill:white; stroke-width:1; stroke:black; " description="&lt;b&gt;HS041_36600&lt;/b&gt;&lt;br&gt;VCBS repeat-containing protein&lt;br&gt;Location: 433179 - 434334" locus_tag="HS041_36600" class="clusterblast-orf" id="dummy-3_q14_0_all"  />
<polygon points="394,35 399,30 401,30 401,40 399,40 394,35 " style="fill:white; stroke-width:1; stroke:black; " description="&lt;b&gt;HS041_36605&lt;/b&gt;&lt;br&gt;hypothetical protein&lt;br&gt;Location: 434330 - 434945" locus_tag="HS041_36605" class="clusterblast-orf" id="dummy-3_q15_0_all"  />
<polygon points="401,35 406,30 416,30 416,40 406,40 401,35 " style="fill:white; stroke-width:1; stroke:black; " description="&lt;b&gt;HS041_36610&lt;/b&gt;&lt;br&gt;cytochrome P450&lt;br&gt;Location: 434956 - 436270" locus_tag="HS041_36610" class="clusterblast-orf" id="dummy-3_q16_0_all"  />
<polygon points="416,35 421,30 427,30 427,40 421,40 416,35 " style="fill:white; stroke-width:1; stroke:black; " description="&lt;b&gt;HS041_36615&lt;/b&gt;&lt;br&gt;methyltransferase&lt;br&gt;Location: 436266 - 437283" locus_tag="HS041_36615" class="clusterblast-orf" id="dummy-3_q17_0_all"  />
<polygon points="427,35 432,30 477,30 477,40 432,40 427,35 " style="fill:white; stroke-width:1; stroke:black; " description="&lt;b&gt;HS041_36620&lt;/b&gt;&lt;br&gt;amino acid adenylation domain-containing protein&lt;br&gt;Location: 437279 - 441701" locus_tag="HS041_36620" class="clusterblast-orf" id="dummy-3_q18_0_all"  />
<polygon points="477,35 482,30 510,30 510,40 482,40 477,35 " style="fill:#15d8d8; stroke-width:1; stroke:black; " description="&lt;b&gt;HS041_36625&lt;/b&gt;&lt;br&gt;acyltransferase domain-containing protein&lt;br&gt;Location: 441697 - 444619" locus_tag="HS041_36625" class="clusterblast-orf" id="dummy-3_q19_0_all"  />
<polygon points="510,35 515,30 563,30 563,40 515,40 510,35 " style="fill:white; stroke-width:1; stroke:black; " description="&lt;b&gt;HS041_36630&lt;/b&gt;&lt;br&gt;AMP-binding protein&lt;br&gt;Location: 444624 - 449361" locus_tag="HS041_36630" class="clusterblast-orf" id="dummy-3_q20_0_all"  />
</g>
<g label="BGC0002024" description="BGC0002024_c1: nargenicin (7% of genes show similarity), Polyketide" class="clusterblast-cluster"  >
<text x="5" y="70" class="clusterblast-acc"  >
<a xlink:href="https://mibig.secondarymetabolites.org/go/BGC0002024/1" target="_blank">BGC0002024</a>: nargenicin                                                                       (7% of genes show similarity), Polyketide</text>
<line x1="10" y1="85" x2="778.0" y2="85" style="stroke-width:1; stroke:grey; "  />
</g>
<g id="a3_000"  >
<polygon points="0,85 2,80 2,90 0,85 " style="fill:white; stroke-width:1; stroke:black; " description="&lt;b&gt;AXG22400.1&lt;/b&gt;&lt;br&gt;hypothetical protein&lt;br&gt;Location: 1 - 183" locus_tag="AXG22400.1" class="clusterblast-orf" id="dummy-3_h3_9_0"  />
</g>
<g id="a3_001"  >
<polygon points="3,90 6,85 3,80 3,90 " style="fill:white; stroke-width:1; stroke:black; " description="&lt;b&gt;AXG22401.1&lt;/b&gt;&lt;br&gt;hypothetical protein&lt;br&gt;Location: 309 - 620" locus_tag="AXG22401.1" class="clusterblast-orf" id="dummy-3_h3_9_1"  />
</g>
<g id="a3_002"  >
<polygon points="7,85 12,80 47,80 47,90 12,90 7,85 " style="fill:white; stroke-width:1; stroke:black; " description="&lt;b&gt;AXG22402.1&lt;/b&gt;&lt;br&gt;DNA polymerase III subunit alpha&lt;br&gt;Location: 652 - 4212" locus_tag="AXG22402.1" class="clusterblast-orf" id="dummy-3_h3_9_2"  />
</g>
<g id="a3_003"  >
<polygon points="48,85 53,80 57,80 57,90 53,90 48,85 " style="fill:#1515d8; stroke-width:1; stroke:black; " description="&lt;b&gt;AXG22403.1&lt;/b&gt;&lt;br&gt;thioesterase&lt;br&gt;Location: 4339 - 5118&lt;br&gt;&lt;br&gt;&lt;b&gt;BlastP hit with HS041_36545&lt;/b&gt;&lt;br&gt;Percentage identity: 47&lt;br&gt;Percentage coverage: 96&lt;br&gt;BLAST bit score: 182&lt;br&gt;E-value: 8.2e-57" locus_tag="AXG22403.1" class="clusterblast-orf" id="dummy-3_h3_9_3"  />
</g>
<g id="a3_004"  >
<polygon points="58,85 63,80 63,80 63,90 63,90 58,85 " style="fill:white; stroke-width:1; stroke:black; " description="&lt;b&gt;AXG22404.1&lt;/b&gt;&lt;br&gt;nuclear transport factor 2 family protein&lt;br&gt;Location: 5198 - 5656" locus_tag="AXG22404.1" class="clusterblast-orf" id="dummy-3_h3_9_4"  />
</g>
<g id="a3_005"  >
<polygon points="63,85 68,80 187,80 187,90 68,90 63,85 " style="fill:white; stroke-width:1; stroke:black; " description="&lt;b&gt;AXG22405.1&lt;/b&gt;&lt;br&gt;type I polyketide synthase&lt;br&gt;Location: 5653 - 16644" locus_tag="AXG22405.1" class="clusterblast-orf" id="dummy-3_h3_9_5"  />
</g>
<g id="a3_006"  >
<polygon points="187,85 192,80 348,80 348,90 192,90 187,85 " style="fill:white; stroke-width:1; stroke:black; " description="&lt;b&gt;AXG22406.1&lt;/b&gt;&lt;br&gt;type I polyketide synthase&lt;br&gt;Location: 16660 - 30948" locus_tag="AXG22406.1" class="clusterblast-orf" id="dummy-3_h3_9_6"  />
</g>
<g id="a3_007"  >
<polygon points="348,85 353,80 549,80 549,90 353,90 348,85 " style="fill:white; stroke-width:1; stroke:black; " description="&lt;b&gt;AXG22407.1&lt;/b&gt;&lt;br&gt;type I polyketide synthase&lt;br&gt;Location: 30996 - 48881" locus_tag="AXG22407.1" class="clusterblast-orf" id="dummy-3_h3_9_7"  />
</g>
<g id="a3_008"  >
<polygon points="553,85 558,80 565,80 565,90 558,90 553,85 " style="fill:white; stroke-width:1; stroke:black; " description="&lt;b&gt;AXG22408.1&lt;/b&gt;&lt;br&gt;L-glyceraldehyde 3-phosphate reductase&lt;br&gt;Location: 49202 - 50248" locus_tag="AXG22408.1" class="clusterblast-orf" id="dummy-3_h3_9_8"  />
</g>
<g id="a3_009"  >
<polygon points="567,90 576,90 581,85 576,80 567,80 567,90 " style="fill:white; stroke-width:1; stroke:black; " description="&lt;b&gt;AXG22409.1&lt;/b&gt;&lt;br&gt;cytochrome P450&lt;br&gt;Location: 50439 - 51701" locus_tag="AXG22409.1" class="clusterblast-orf" id="dummy-3_h3_9_9"  />
</g>
<g id="a3_0010"  >
<polygon points="581,90 590,90 595,85 590,80 581,80 581,90 " style="fill:white; stroke-width:1; stroke:black; " description="&lt;b&gt;AXG22410.1&lt;/b&gt;&lt;br&gt;pristinamycin IIA synthase subunit A&lt;br&gt;Location: 51720 - 52985" locus_tag="AXG22410.1" class="clusterblast-orf" id="dummy-3_h3_9_10"  />
</g>
<g id="a3_0011"  >
<polygon points="595,90 601,90 606,85 601,80 595,80 595,90 " style="fill:white; stroke-width:1; stroke:black; " description="&lt;b&gt;AXG22411.1&lt;/b&gt;&lt;br&gt;LLM class flavin-dependent oxidoreductase&lt;br&gt;Location: 52982 - 53914" locus_tag="AXG22411.1" class="clusterblast-orf" id="dummy-3_h3_9_11"  />
</g>
<g id="a3_0012"  >
<polygon points="606,90 611,90 616,85 611,80 606,80 606,90 " style="fill:white; stroke-width:1; stroke:black; " description="&lt;b&gt;AXG22412.1&lt;/b&gt;&lt;br&gt;short-chain dehydrogenase&lt;br&gt;Location: 53952 - 54794" locus_tag="AXG22412.1" class="clusterblast-orf" id="dummy-3_h3_9_12"  />
</g>
<g id="a3_0013"  >
<polygon points="616,85 621,80 626,80 626,90 621,90 616,85 " style="fill:#d815d8; stroke-width:1; stroke:black; " description="&lt;b&gt;AXG22413.1&lt;/b&gt;&lt;br&gt;methyltransferase&lt;br&gt;Location: 54856 - 55692&lt;br&gt;&lt;br&gt;&lt;b&gt;BlastP hit with HS041_36555&lt;/b&gt;&lt;br&gt;Percentage identity: 48&lt;br&gt;Percentage coverage: 60&lt;br&gt;BLAST bit score: 150&lt;br&gt;E-value: 1.03e-43" locus_tag="AXG22413.1" class="clusterblast-orf" id="dummy-3_h3_9_13"  />
</g>
<g id="a3_0014"  >
<polygon points="626,85 628,80 628,90 626,85 " style="fill:white; stroke-width:1; stroke:black; " description="&lt;b&gt;AXG22414.1&lt;/b&gt;&lt;br&gt;ferredoxin&lt;br&gt;Location: 55721 - 55918" locus_tag="AXG22414.1" class="clusterblast-orf" id="dummy-3_h3_9_14"  />
</g>
<g id="a3_0015"  >
<polygon points="628,85 633,80 642,80 642,90 633,90 628,85 " style="fill:white; stroke-width:1; stroke:black; " description="&lt;b&gt;AXG22415.1&lt;/b&gt;&lt;br&gt;Cytochrome P450&lt;br&gt;Location: 55925 - 57142" locus_tag="AXG22415.1" class="clusterblast-orf" id="dummy-3_h3_9_15"  />
</g>
<g id="a3_0016"  >
<polygon points="644,90 648,90 653,85 648,80 644,80 644,90 " style="fill:white; stroke-width:1; stroke:black; " description="&lt;b&gt;AXG22416.1&lt;/b&gt;&lt;br&gt;Phytanoyl-CoA dioxygenase&lt;br&gt;Location: 57330 - 58127" locus_tag="AXG22416.1" class="clusterblast-orf" id="dummy-3_h3_9_16"  />
</g>
<g id="a3_0017"  >
<polygon points="653,90 659,90 664,85 659,80 653,80 653,90 " style="fill:white; stroke-width:1; stroke:black; " description="&lt;b&gt;AXG22417.1&lt;/b&gt;&lt;br&gt;retinol dehydrogenase&lt;br&gt;Location: 58153 - 59079" locus_tag="AXG22417.1" class="clusterblast-orf" id="dummy-3_h3_9_17"  />
</g>
<g id="a3_0018"  >
<polygon points="664,85 669,80 675,80 675,90 669,90 664,85 " style="fill:white; stroke-width:1; stroke:black; " description="&lt;b&gt;AXG22418.1&lt;/b&gt;&lt;br&gt;LysR family transcriptional regulator&lt;br&gt;Location: 59093 - 60040" locus_tag="AXG22418.1" class="clusterblast-orf" id="dummy-3_h3_9_18"  />
</g>
<g id="a3_0019"  >
<polygon points="687,85 691,80 691,90 687,85 " style="fill:white; stroke-width:1; stroke:black; " description="&lt;b&gt;AXG22419.1&lt;/b&gt;&lt;br&gt;proline carrier protein&lt;br&gt;Location: 61174 - 61449" locus_tag="AXG22419.1" class="clusterblast-orf" id="dummy-3_h3_9_19"  />
</g>
<g id="a3_0020"  >
<polygon points="690,85 695,80 707,80 707,90 695,90 690,85 " style="fill:white; stroke-width:1; stroke:black; " description="&lt;b&gt;AXG22420.1&lt;/b&gt;&lt;br&gt;proline adenyltransferase&lt;br&gt;Location: 61388 - 62950" locus_tag="AXG22420.1" class="clusterblast-orf" id="dummy-3_h3_9_20"  />
</g>
<g id="a3_0021"  >
<polygon points="707,85 712,80 720,80 720,90 712,90 707,85 " style="fill:white; stroke-width:1; stroke:black; " description="&lt;b&gt;AXG22421.1&lt;/b&gt;&lt;br&gt;prolyl carrier protein dehydrogenase&lt;br&gt;Location: 62947 - 64074" locus_tag="AXG22421.1" class="clusterblast-orf" id="dummy-3_h3_9_21"  />
</g>
<g id="a3_0022"  >
<polygon points="723,90 729,90 734,85 729,80 723,80 723,90 " style="fill:white; stroke-width:1; stroke:black; " description="&lt;b&gt;AXG22422.1&lt;/b&gt;&lt;br&gt;keto-acyl ACP-synthase&lt;br&gt;Location: 64355 - 65332" locus_tag="AXG22422.1" class="clusterblast-orf" id="dummy-3_h3_9_22"  />
</g>
<g id="a3_0023"  >
<polygon points="740,90 752,90 757,85 752,80 740,80 740,90 " style="fill:white; stroke-width:1; stroke:black; " description="&lt;b&gt;AXG22423.1&lt;/b&gt;&lt;br&gt;peptidase M14&lt;br&gt;Location: 65890 - 67326" locus_tag="AXG22423.1" class="clusterblast-orf" id="dummy-3_h3_9_23"  />
</g>
<g id="a3_0024"  >
<polygon points="761,90 768,90 773,85 768,80 761,80 761,90 " style="fill:white; stroke-width:1; stroke:black; " description="&lt;b&gt;AXG22424.1&lt;/b&gt;&lt;br&gt;GGDEF domain-containing protein&lt;br&gt;Location: 67693 - 68781" locus_tag="AXG22424.1" class="clusterblast-orf" id="dummy-3_h3_9_24"  />
</g>
<g id="a3_0025"  >
<polygon points="773,90 775,90 780,85 775,80 773,80 773,90 " style="fill:white; stroke-width:1; stroke:black; " description="&lt;b&gt;AXG22425.1&lt;/b&gt;&lt;br&gt;acetyl-CoA carboxylase biotin carboxyl carrier protein subunit&lt;br&gt;Location: 68820 - 69359" locus_tag="AXG22425.1" class="clusterblast-orf" id="dummy-3_h3_9_25"  />
</g>
</svg>
