<svg xmlns="http://www.w3.org/2000/svg" xmlns:xlink="http://www.w3.org/1999/xlink" version="1.1" x="0" y="0" height="230" width="800" viewBox="0 0 800 230" preserveAspectRatio="none"  >
<g label="Query sequence" class="clusterblast-cluster"  >
<text x="5" y="20" class="clusterblast-acc"  >
Query sequence</text>
<line x1="10" y1="35" x2="778.0" y2="35" style="stroke-width:1; stroke:grey; "  />
<polygon points="8,40 26,40 31,35 26,30 8,30 8,40 " style="fill:white; stroke-width:1; stroke:black; " description="&lt;b&gt;HS041_13055&lt;/b&gt;&lt;br&gt;EAL domain-containing protein&lt;br&gt;Location: 68739 - 70212" locus_tag="HS041_13055" class="clusterblast-orf" id="dummy-1_q0_0_all"  />
<polygon points="31,35 36,30 54,30 54,40 36,40 31,35 " style="fill:white; stroke-width:1; stroke:black; " description="&lt;b&gt;HS041_13060&lt;/b&gt;&lt;br&gt;AMP-binding protein&lt;br&gt;Location: 70222 - 71707" locus_tag="HS041_13060" class="clusterblast-orf" id="dummy-1_q1_0_all"  />
<polygon points="55,35 60,30 71,30 71,40 60,40 55,35 " style="fill:white; stroke-width:1; stroke:black; " description="&lt;b&gt;HS041_13065&lt;/b&gt;&lt;br&gt;LLM class flavin-dependent oxidoreductase&lt;br&gt;Location: 71729 - 72788" locus_tag="HS041_13065" class="clusterblast-orf" id="dummy-1_q2_0_all"  />
<polygon points="74,40 89,40 94,35 89,30 74,30 74,40 " style="fill:white; stroke-width:1; stroke:black; " description="&lt;b&gt;HS041_13070&lt;/b&gt;&lt;br&gt;alpha/beta fold hydrolase&lt;br&gt;Location: 72971 - 74225" locus_tag="HS041_13070" class="clusterblast-orf" id="dummy-1_q3_0_all"  />
<polygon points="94,35 99,30 105,30 105,40 99,40 94,35 " style="fill:white; stroke-width:1; stroke:black; " description="&lt;b&gt;HS041_13075&lt;/b&gt;&lt;br&gt;M15 family metallopeptidase&lt;br&gt;Location: 74277 - 74961" locus_tag="HS041_13075" class="clusterblast-orf" id="dummy-1_q4_0_all"  />
<polygon points="107,35 112,30 155,30 155,40 112,40 107,35 " style="fill:white; stroke-width:1; stroke:black; " description="&lt;b&gt;HS041_13080&lt;/b&gt;&lt;br&gt;winged helix-turn-helix domain-containing protein&lt;br&gt;Location: 75116 - 78197" locus_tag="HS041_13080" class="clusterblast-orf" id="dummy-1_q5_0_all"  />
<polygon points="160,40 176,40 181,35 176,30 160,30 160,40 " style="fill:white; stroke-width:1; stroke:black; " description="&lt;b&gt;HS041_13085&lt;/b&gt;&lt;br&gt;CHAP domain-containing protein&lt;br&gt;Location: 78476 - 79865" locus_tag="HS041_13085" class="clusterblast-orf" id="dummy-1_q6_0_all"  />
<polygon points="184,40 201,40 206,35 201,30 184,30 184,40 " style="fill:white; stroke-width:1; stroke:black; " description="&lt;b&gt;HS041_13090&lt;/b&gt;&lt;br&gt;VCBS repeat-containing protein&lt;br&gt;Location: 80011 - 81466" locus_tag="HS041_13090" class="clusterblast-orf" id="dummy-1_q7_0_all"  />
<polygon points="208,35 212,30 212,40 208,35 " style="fill:white; stroke-width:1; stroke:black; " description="&lt;b&gt;HS041_13095&lt;/b&gt;&lt;br&gt;SCO4226 family nickel-binding protein&lt;br&gt;Location: 81600 - 81849" locus_tag="HS041_13095" class="clusterblast-orf" id="dummy-1_q8_0_all"  />
<polygon points="214,35 219,30 236,30 236,40 219,40 214,35 " style="fill:white; stroke-width:1; stroke:black; " description="&lt;b&gt;HS041_13100&lt;/b&gt;&lt;br&gt;cyclic nucleotide-binding domain-containing protein&lt;br&gt;Location: 81979 - 83398" locus_tag="HS041_13100" class="clusterblast-orf" id="dummy-1_q9_0_all"  />
<polygon points="236,35 241,30 262,30 262,40 241,40 236,35 " style="fill:white; stroke-width:1; stroke:black; " description="&lt;b&gt;HS041_13105&lt;/b&gt;&lt;br&gt;FAD-dependent oxidoreductase&lt;br&gt;Location: 83394 - 85059" locus_tag="HS041_13105" class="clusterblast-orf" id="dummy-1_q10_0_all"  />
<polygon points="264,35 269,30 280,30 280,40 269,40 264,35 " style="fill:white; stroke-width:1; stroke:black; " description="&lt;b&gt;HS041_13110&lt;/b&gt;&lt;br&gt;glutamine synthetase beta-grasp domain-containing protein&lt;br&gt;Location: 85189 - 86209" locus_tag="HS041_13110" class="clusterblast-orf" id="dummy-1_q11_0_all"  />
<polygon points="283,40 289,40 294,35 289,30 283,30 283,40 " style="fill:white; stroke-width:1; stroke:black; " description="&lt;b&gt;HS041_13115&lt;/b&gt;&lt;br&gt;ThuA domain-containing protein&lt;br&gt;Location: 86438 - 87113" locus_tag="HS041_13115" class="clusterblast-orf" id="dummy-1_q12_0_all"  />
<polygon points="299,35 304,30 309,30 309,40 304,40 299,35 " style="fill:white; stroke-width:1; stroke:black; " description="&lt;b&gt;HS041_13120&lt;/b&gt;&lt;br&gt;MerR family transcriptional regulator&lt;br&gt;Location: 87416 - 88067" locus_tag="HS041_13120" class="clusterblast-orf" id="dummy-1_q13_0_all"  />
<polygon points="310,35 315,30 338,30 338,40 315,40 310,35 " style="fill:white; stroke-width:1; stroke:black; " description="&lt;b&gt;HS041_13125&lt;/b&gt;&lt;br&gt;non-ribosomal peptide synthetase&lt;br&gt;Location: 88149 - 89928" locus_tag="HS041_13125" class="clusterblast-orf" id="dummy-1_q14_0_all"  />
<polygon points="338,35 343,30 419,30 419,40 343,40 338,35 " style="fill:#d81515; stroke-width:1; stroke:black; " description="&lt;b&gt;HS041_13130&lt;/b&gt;&lt;br&gt;SDR family NAD(P)-dependent oxidoreductase&lt;br&gt;Location: 89932 - 95128" locus_tag="HS041_13130" class="clusterblast-orf" id="dummy-1_q15_0_all"  />
<polygon points="419,35 424,30 473,30 473,40 424,40 419,35 " style="fill:white; stroke-width:1; stroke:black; " description="&lt;b&gt;HS041_13135&lt;/b&gt;&lt;br&gt;amino acid adenylation domain-containing protein&lt;br&gt;Location: 95175 - 98622" locus_tag="HS041_13135" class="clusterblast-orf" id="dummy-1_q16_0_all"  />
<polygon points="473,35 478,30 509,30 509,40 478,40 473,35 " style="fill:white; stroke-width:1; stroke:black; " description="&lt;b&gt;HS041_13140&lt;/b&gt;&lt;br&gt;lantibiotic dehydratase&lt;br&gt;Location: 98618 - 100949" locus_tag="HS041_13140" class="clusterblast-orf" id="dummy-1_q17_0_all"  />
<polygon points="510,35 515,30 522,30 522,40 515,40 510,35 " style="fill:white; stroke-width:1; stroke:black; " description="&lt;b&gt;HS041_13145&lt;/b&gt;&lt;br&gt;thioesterase&lt;br&gt;Location: 101025 - 101805" locus_tag="HS041_13145" class="clusterblast-orf" id="dummy-1_q18_0_all"  />
<polygon points="522,35 527,30 548,30 548,40 527,40 522,35 " style="fill:#d81515; stroke-width:1; stroke:black; " description="&lt;b&gt;HS041_13150&lt;/b&gt;&lt;br&gt;hypothetical protein&lt;br&gt;Location: 101807 - 103448" locus_tag="HS041_13150" class="clusterblast-orf" id="dummy-1_q19_0_all"  />
<polygon points="548,35 553,30 569,30 569,40 553,40 548,35 " style="fill:white; stroke-width:1; stroke:black; " description="&lt;b&gt;HS041_13155&lt;/b&gt;&lt;br&gt;hypothetical protein&lt;br&gt;Location: 103447 - 104782" locus_tag="HS041_13155" class="clusterblast-orf" id="dummy-1_q20_0_all"  />
<polygon points="569,35 574,30 585,30 585,40 574,40 569,35 " style="fill:white; stroke-width:1; stroke:black; " description="&lt;b&gt;HS041_13160&lt;/b&gt;&lt;br&gt;potassium transporter TrkA&lt;br&gt;Location: 104798 - 105848" locus_tag="HS041_13160" class="clusterblast-orf" id="dummy-1_q21_0_all"  />
<polygon points="594,40 597,35 594,30 594,40 " style="fill:#15d8d8; stroke-width:1; stroke:black; " description="&lt;b&gt;HS041_13165&lt;/b&gt;&lt;br&gt;MbtH family NRPS accessory protein&lt;br&gt;Location: 106390 - 106594" locus_tag="HS041_13165" class="clusterblast-orf" id="dummy-1_q22_0_all"  />
<polygon points="599,40 599,40 604,35 599,30 599,30 599,40 " style="fill:white; stroke-width:1; stroke:black; " description="&lt;b&gt;HS041_13170&lt;/b&gt;&lt;br&gt;hypothetical protein&lt;br&gt;Location: 106744 - 107074" locus_tag="HS041_13170" class="clusterblast-orf" id="dummy-1_q23_0_all"  />
<polygon points="604,35 609,30 616,30 616,40 609,40 604,35 " style="fill:white; stroke-width:1; stroke:black; " description="&lt;b&gt;HS041_13175&lt;/b&gt;&lt;br&gt;SAM-dependent methyltransferase&lt;br&gt;Location: 107045 - 107855" locus_tag="HS041_13175" class="clusterblast-orf" id="dummy-1_q24_0_all"  />
<polygon points="619,35 624,30 627,30 627,40 624,40 619,35 " style="fill:white; stroke-width:1; stroke:black; " description="&lt;b&gt;HS041_13180&lt;/b&gt;&lt;br&gt;CGNR zinc finger domain-containing protein&lt;br&gt;Location: 108005 - 108545" locus_tag="HS041_13180" class="clusterblast-orf" id="dummy-1_q25_0_all"  />
<polygon points="630,40 638,40 643,35 638,30 630,30 630,40 " style="fill:white; stroke-width:1; stroke:black; " description="&lt;b&gt;HS041_13185&lt;/b&gt;&lt;br&gt;SDR family NAD(P)-dependent oxidoreductase&lt;br&gt;Location: 108724 - 109567" locus_tag="HS041_13185" class="clusterblast-orf" id="dummy-1_q26_0_all"  />
<polygon points="646,40 658,40 663,35 658,30 646,30 646,40 " style="fill:white; stroke-width:1; stroke:black; " description="&lt;b&gt;HS041_13190&lt;/b&gt;&lt;br&gt;acetyl-CoA acetyltransferase&lt;br&gt;Location: 109781 - 110864" locus_tag="HS041_13190" class="clusterblast-orf" id="dummy-1_q27_0_all"  />
<polygon points="665,40 673,40 678,35 673,30 665,30 665,40 " style="fill:white; stroke-width:1; stroke:black; " description="&lt;b&gt;HS041_13195&lt;/b&gt;&lt;br&gt;MurR/RpiR family transcriptional regulator&lt;br&gt;Location: 110952 - 111822" locus_tag="HS041_13195" class="clusterblast-orf" id="dummy-1_q28_0_all"  />
<polygon points="678,40 685,40 690,35 685,30 678,30 678,40 " style="fill:white; stroke-width:1; stroke:black; " description="&lt;b&gt;HS041_13200&lt;/b&gt;&lt;br&gt;SIS domain-containing protein&lt;br&gt;Location: 111826 - 112585" locus_tag="HS041_13200" class="clusterblast-orf" id="dummy-1_q29_0_all"  />
<polygon points="690,40 707,40 712,35 707,30 690,30 690,40 " style="fill:white; stroke-width:1; stroke:black; " description="&lt;b&gt;HS041_13205&lt;/b&gt;&lt;br&gt;carbohydrate ABC transporter, N-acetylglucosamine/diacetylchitobiose-binding protein&lt;br&gt;Location: 112590 - 114021" locus_tag="HS041_13205" class="clusterblast-orf" id="dummy-1_q30_0_all"  />
<polygon points="715,40 724,40 729,35 724,30 715,30 715,40 " style="fill:white; stroke-width:1; stroke:black; " description="&lt;b&gt;HS041_13210&lt;/b&gt;&lt;br&gt;sugar ABC transporter permease&lt;br&gt;Location: 114210 - 115113" locus_tag="HS041_13210" class="clusterblast-orf" id="dummy-1_q31_0_all"  />
<polygon points="729,40 738,40 743,35 738,30 729,30 729,40 " style="fill:white; stroke-width:1; stroke:black; " description="&lt;b&gt;HS041_13215&lt;/b&gt;&lt;br&gt;carbohydrate ABC transporter permease&lt;br&gt;Location: 115112 - 116024" locus_tag="HS041_13215" class="clusterblast-orf" id="dummy-1_q32_0_all"  />
<polygon points="746,40 755,40 760,35 755,30 746,30 746,40 " style="fill:white; stroke-width:1; stroke:black; " description="&lt;b&gt;HS041_13220&lt;/b&gt;&lt;br&gt;chitosanase&lt;br&gt;Location: 116201 - 117092" locus_tag="HS041_13220" class="clusterblast-orf" id="dummy-1_q33_0_all"  />
<polygon points="761,35 766,30 771,30 771,40 766,40 761,35 " style="fill:white; stroke-width:1; stroke:black; " description="&lt;b&gt;HS041_13225&lt;/b&gt;&lt;br&gt;DNA alkylation repair protein&lt;br&gt;Location: 117189 - 117801" locus_tag="HS041_13225" class="clusterblast-orf" id="dummy-1_q34_0_all"  />
</g>
<g label="BGC0002001" description="BGC0002001_c1: crochelin A (12% of genes show similarity), NRP+Polyketide" class="clusterblast-cluster"  >
<text x="5" y="70" class="clusterblast-acc"  >
<a xlink:href="https://mibig.secondarymetabolites.org/go/BGC0002001/1" target="_blank">BGC0002001</a>: crochelin A                                                                      (12% of genes show similarity), NRP+Polyketide</text>
<line x1="10" y1="85" x2="778.0" y2="85" style="stroke-width:1; stroke:grey; "  />
</g>
<g id="a1_000"  >
<polygon points="0,90 3,85 0,80 0,90 " style="fill:#15d8d8; stroke-width:1; stroke:black; " description="&lt;b&gt;Achr_RS19650&lt;/b&gt;&lt;br&gt;MbtH family protein&lt;br&gt;Location: 50175 - 49972&lt;br&gt;&lt;br&gt;&lt;b&gt;BlastP hit with HS041_13165&lt;/b&gt;&lt;br&gt;Percentage identity: 55&lt;br&gt;Percentage coverage: 87&lt;br&gt;BLAST bit score: 76&lt;br&gt;E-value: 4.32e-20" locus_tag="Achr_RS19650" class="clusterblast-orf" id="dummy-1_h1_1_0"  />
</g>
<g id="a1_001"  >
<polygon points="4,90 32,90 37,85 32,80 4,80 4,90 " style="fill:white; stroke-width:1; stroke:black; " description="&lt;b&gt;Achr_RS24430&lt;/b&gt;&lt;br&gt;condensation domain-containing protein&lt;br&gt;Location: 49899 - 47794" locus_tag="Achr_RS24430" class="clusterblast-orf" id="dummy-1_h1_1_1"  />
</g>
<g id="a1_002"  >
<polygon points="37,90 40,90 45,85 40,80 37,80 37,90 " style="fill:white; stroke-width:1; stroke:black; " description="&lt;b&gt;Achr_RS19640&lt;/b&gt;&lt;br&gt;hypothetical protein&lt;br&gt;Location: 47743 - 47222" locus_tag="Achr_RS19640" class="clusterblast-orf" id="dummy-1_h1_1_2"  />
</g>
<g id="a1_003"  >
<polygon points="47,90 63,90 68,85 63,80 47,80 47,90 " style="fill:white; stroke-width:1; stroke:black; " description="&lt;b&gt;Achr_RS19635&lt;/b&gt;&lt;br&gt;lysine N(6)-hydroxylase/L-ornithine N(5)-oxygenase family protein&lt;br&gt;Location: 47093 - 45792" locus_tag="Achr_RS19635" class="clusterblast-orf" id="dummy-1_h1_1_3"  />
</g>
<g id="a1_004"  >
<polygon points="72,85 77,80 77,80 77,90 77,90 72,85 " style="fill:white; stroke-width:1; stroke:black; " description="&lt;b&gt;Achr_RS19630&lt;/b&gt;&lt;br&gt;hypothetical protein&lt;br&gt;Location: 45540 - 45166" locus_tag="Achr_RS19630" class="clusterblast-orf" id="dummy-1_h1_1_4"  />
</g>
<g id="a1_005"  >
<polygon points="81,85 86,80 89,80 89,90 86,90 81,85 " style="fill:white; stroke-width:1; stroke:black; " description="&lt;b&gt;Achr_RS19625&lt;/b&gt;&lt;br&gt;RNA polymerase factor sigma-70&lt;br&gt;Location: 44960 - 44415" locus_tag="Achr_RS19625" class="clusterblast-orf" id="dummy-1_h1_1_5"  />
</g>
<g id="a1_006"  >
<polygon points="93,85 98,80 115,80 115,90 98,90 93,85 " style="fill:white; stroke-width:1; stroke:black; " description="&lt;b&gt;Achr_RS19620&lt;/b&gt;&lt;br&gt;efflux transporter outer membrane subunit&lt;br&gt;Location: 44171 - 42738" locus_tag="Achr_RS19620" class="clusterblast-orf" id="dummy-1_h1_1_6"  />
</g>
<g id="a1_007"  >
<polygon points="116,85 121,80 134,80 134,90 121,90 116,85 " style="fill:white; stroke-width:1; stroke:black; " description="&lt;b&gt;Achr_RS19615&lt;/b&gt;&lt;br&gt;efflux RND transporter periplasmic adaptor subunit&lt;br&gt;Location: 42650 - 41499" locus_tag="Achr_RS19615" class="clusterblast-orf" id="dummy-1_h1_1_7"  />
</g>
<g id="a1_008"  >
<polygon points="137,85 142,80 143,80 143,90 142,90 137,85 " style="fill:white; stroke-width:1; stroke:black; " description="&lt;b&gt;Achr_RS19610&lt;/b&gt;&lt;br&gt;DUF4880 domain-containing protein&lt;br&gt;Location: 41354 - 40938" locus_tag="Achr_RS19610" class="clusterblast-orf" id="dummy-1_h1_1_8"  />
</g>
<g id="a1_009"  >
<polygon points="148,90 151,85 148,80 148,90 " style="fill:#15d8d8; stroke-width:1; stroke:black; " description="&lt;b&gt;Achr_RS19605&lt;/b&gt;&lt;br&gt;MbtH family NRPS accessory protein&lt;br&gt;Location: 40650 - 40408&lt;br&gt;&lt;br&gt;&lt;b&gt;BlastP hit with HS041_13165&lt;/b&gt;&lt;br&gt;Percentage identity: 53&lt;br&gt;Percentage coverage: 85&lt;br&gt;BLAST bit score: 68&lt;br&gt;E-value: 9.51e-17" locus_tag="Achr_RS19605" class="clusterblast-orf" id="dummy-1_h1_1_9"  />
</g>
<g id="a1_0010"  >
<polygon points="152,90 158,90 163,85 158,80 152,80 152,90 " style="fill:white; stroke-width:1; stroke:black; " description="&lt;b&gt;Achr_RS19600&lt;/b&gt;&lt;br&gt;alpha/beta fold hydrolase&lt;br&gt;Location: 40397 - 39660" locus_tag="Achr_RS19600" class="clusterblast-orf" id="dummy-1_h1_1_10"  />
</g>
<g id="a1_0011"  >
<polygon points="164,90 174,90 179,85 174,80 164,80 164,90 " style="fill:white; stroke-width:1; stroke:black; " description="&lt;b&gt;Achr_RS19595&lt;/b&gt;&lt;br&gt;TauD/TfdA family dioxygenase&lt;br&gt;Location: 39578 - 38601" locus_tag="Achr_RS19595" class="clusterblast-orf" id="dummy-1_h1_1_11"  />
</g>
<g id="a1_0012"  >
<polygon points="180,90 257,90 262,85 257,80 180,80 180,90 " style="fill:white; stroke-width:1; stroke:black; " description="&lt;b&gt;Achr_RS19590&lt;/b&gt;&lt;br&gt;non-ribosomal peptide synthetase&lt;br&gt;Location: 38572 - 33275" locus_tag="Achr_RS19590" class="clusterblast-orf" id="dummy-1_h1_1_12"  />
</g>
<g id="a1_0013"  >
<polygon points="262,90 328,90 333,85 328,80 262,80 262,90 " style="fill:#d81515; stroke-width:1; stroke:black; " description="&lt;b&gt;Achr_RS19585&lt;/b&gt;&lt;br&gt;type I polyketide synthase&lt;br&gt;Location: 33278 - 28716&lt;br&gt;&lt;br&gt;&lt;b&gt;BlastP hit with HS041_13130&lt;/b&gt;&lt;br&gt;Percentage identity: 48&lt;br&gt;Percentage coverage: 78&lt;br&gt;BLAST bit score: 1016&lt;br&gt;E-value: 0.0&lt;br&gt;&lt;br&gt;&lt;b&gt;BlastP hit with HS041_13150&lt;/b&gt;&lt;br&gt;Percentage identity: 49&lt;br&gt;Percentage coverage: 92&lt;br&gt;BLAST bit score: 411&lt;br&gt;E-value: 7.05e-129" locus_tag="Achr_RS19585" class="clusterblast-orf" id="dummy-1_h1_1_13"  />
</g>
<g id="a1_0014"  >
<polygon points="340,90 387,90 392,85 387,80 340,80 340,90 " style="fill:white; stroke-width:1; stroke:black; " description="&lt;b&gt;Achr_RS19580&lt;/b&gt;&lt;br&gt;non-ribosomal peptide synthetase&lt;br&gt;Location: 28274 - 24948" locus_tag="Achr_RS19580" class="clusterblast-orf" id="dummy-1_h1_1_14"  />
</g>
<g id="a1_0015"  >
<polygon points="392,90 508,90 513,85 508,80 392,80 392,90 " style="fill:white; stroke-width:1; stroke:black; " description="&lt;b&gt;Achr_RS19575&lt;/b&gt;&lt;br&gt;non-ribosomal peptide synthetase&lt;br&gt;Location: 24944 - 17133" locus_tag="Achr_RS19575" class="clusterblast-orf" id="dummy-1_h1_1_15"  />
</g>
<g id="a1_0016"  >
<polygon points="513,90 571,90 576,85 571,80 513,80 513,90 " style="fill:white; stroke-width:1; stroke:black; " description="&lt;b&gt;Achr_RS19570&lt;/b&gt;&lt;br&gt;non-ribosomal peptide synthetase&lt;br&gt;Location: 17136 - 13069" locus_tag="Achr_RS19570" class="clusterblast-orf" id="dummy-1_h1_1_16"  />
</g>
<g id="a1_0017"  >
<polygon points="580,85 585,80 615,80 615,90 585,90 580,85 " style="fill:white; stroke-width:1; stroke:black; " description="&lt;b&gt;Achr_RS19560&lt;/b&gt;&lt;br&gt;TonB-dependent siderophore receptor&lt;br&gt;Location: 12854 - 10590" locus_tag="Achr_RS19560" class="clusterblast-orf" id="dummy-1_h1_1_17"  />
</g>
<g id="a1_0018"  >
<polygon points="616,85 621,80 638,80 638,90 621,90 616,85 " style="fill:white; stroke-width:1; stroke:black; " description="&lt;b&gt;Achr_RS19555&lt;/b&gt;&lt;br&gt;diaminobutyrate--2-oxoglutarate transaminase&lt;br&gt;Location: 10524 - 9082" locus_tag="Achr_RS19555" class="clusterblast-orf" id="dummy-1_h1_1_18"  />
</g>
<g id="a1_0019"  >
<polygon points="644,90 652,90 657,85 652,80 644,80 644,90 " style="fill:white; stroke-width:1; stroke:black; " description="&lt;b&gt;Achr_RS19550&lt;/b&gt;&lt;br&gt;N(5)-hydroxyornithine transformylase PvdF&lt;br&gt;Location: 8716 - 7892" locus_tag="Achr_RS19550" class="clusterblast-orf" id="dummy-1_h1_1_19"  />
</g>
<g id="a1_0020"  >
<polygon points="657,90 668,90 673,85 668,80 657,80 657,90 " style="fill:white; stroke-width:1; stroke:black; " description="&lt;b&gt;Achr_RS19545&lt;/b&gt;&lt;br&gt;histone deacetylase family protein&lt;br&gt;Location: 7879 - 6836" locus_tag="Achr_RS19545" class="clusterblast-orf" id="dummy-1_h1_1_20"  />
</g>
<g id="a1_0021"  >
<polygon points="675,90 709,90 714,85 709,80 675,80 675,90 " style="fill:white; stroke-width:1; stroke:black; " description="&lt;b&gt;Achr_RS19540&lt;/b&gt;&lt;br&gt;penicillin acylase family protein&lt;br&gt;Location: 6720 - 4234" locus_tag="Achr_RS19540" class="clusterblast-orf" id="dummy-1_h1_1_21"  />
</g>
<g id="a1_0022"  >
<polygon points="716,90 737,90 742,85 737,80 716,80 716,90 " style="fill:white; stroke-width:1; stroke:black; " description="&lt;b&gt;Achr_RS19535&lt;/b&gt;&lt;br&gt;cyclic peptide export ABC transporter&lt;br&gt;Location: 4102 - 2441" locus_tag="Achr_RS19535" class="clusterblast-orf" id="dummy-1_h1_1_22"  />
</g>
<g id="a1_0023"  >
<polygon points="742,90 757,90 762,85 757,80 742,80 742,90 " style="fill:white; stroke-width:1; stroke:black; " description="&lt;b&gt;Achr_RS19530&lt;/b&gt;&lt;br&gt;PepSY domain-containing protein&lt;br&gt;Location: 2444 - 1101" locus_tag="Achr_RS19530" class="clusterblast-orf" id="dummy-1_h1_1_23"  />
</g>
<g id="a1_0024"  >
<polygon points="768,85 773,80 780,80 780,90 773,90 768,85 " style="fill:white; stroke-width:1; stroke:black; " description="&lt;b&gt;Achr_RS19525&lt;/b&gt;&lt;br&gt;ATP-binding cassette domain-containing protein&lt;br&gt;Location: 768 - 1" locus_tag="Achr_RS19525" class="clusterblast-orf" id="dummy-1_h1_1_24"  />
</g>
</svg>
