<svg xmlns="http://www.w3.org/2000/svg" xmlns:xlink="http://www.w3.org/1999/xlink" version="1.1" x="0" y="0" height="250" width="800" viewBox="0 0 800 250" preserveAspectRatio="none"  >
<g label="Query sequence" class="clusterblast-cluster"  >
<text x="5" y="20" class="clusterblast-acc"  >
Query sequence</text>
<line x1="10" y1="35" x2="778.0" y2="35" style="stroke-width:1; stroke:grey; "  />
<polygon points="16,35 21,30 34,30 34,40 21,40 16,35 " style="fill:white; stroke-width:1; stroke:black; " description="&lt;b&gt;HS041_35125&lt;/b&gt;&lt;br&gt;ABC transporter substrate-binding protein&lt;br&gt;Location: 119849 - 120815" locus_tag="HS041_35125" class="clusterblast-orf" id="knownclusterblast-2_q0_0_all"  />
<polygon points="34,35 39,30 58,30 58,40 39,40 34,35 " style="fill:white; stroke-width:1; stroke:black; " description="&lt;b&gt;HS041_35130&lt;/b&gt;&lt;br&gt;GGDEF domain-containing protein&lt;br&gt;Location: 120811 - 122050" locus_tag="HS041_35130" class="clusterblast-orf" id="knownclusterblast-2_q1_0_all"  />
<polygon points="61,35 66,30 98,30 98,40 66,40 61,35 " style="fill:white; stroke-width:1; stroke:black; " description="&lt;b&gt;HS041_35135&lt;/b&gt;&lt;br&gt;dynamin family protein&lt;br&gt;Location: 122250 - 124158" locus_tag="HS041_35135" class="clusterblast-orf" id="knownclusterblast-2_q2_0_all"  />
<polygon points="104,35 109,30 138,30 138,40 109,40 104,35 " style="fill:white; stroke-width:1; stroke:black; " description="&lt;b&gt;HS041_35140&lt;/b&gt;&lt;br&gt;dynamin family protein&lt;br&gt;Location: 124479 - 126315" locus_tag="HS041_35140" class="clusterblast-orf" id="knownclusterblast-2_q3_0_all"  />
<polygon points="138,35 143,30 143,30 143,40 143,40 138,35 " style="fill:white; stroke-width:1; stroke:black; " description="&lt;b&gt;HS041_35145&lt;/b&gt;&lt;br&gt;hypothetical protein&lt;br&gt;Location: 126311 - 126563" locus_tag="HS041_35145" class="clusterblast-orf" id="knownclusterblast-2_q4_0_all"  />
<polygon points="147,40 152,40 157,35 152,30 147,30 147,40 " style="fill:white; stroke-width:1; stroke:black; " description="&lt;b&gt;HS041_35150&lt;/b&gt;&lt;br&gt;RNA polymerase sigma factor&lt;br&gt;Location: 126763 - 127312" locus_tag="HS041_35150" class="clusterblast-orf" id="knownclusterblast-2_q5_0_all"  />
<polygon points="158,35 163,30 166,30 166,40 163,40 158,35 " style="fill:white; stroke-width:1; stroke:black; " description="&lt;b&gt;HS041_35155&lt;/b&gt;&lt;br&gt;nucleotide exchange factor GrpE&lt;br&gt;Location: 127317 - 127779" locus_tag="HS041_35155" class="clusterblast-orf" id="knownclusterblast-2_q6_0_all"  />
<polygon points="179,35 184,30 184,30 184,40 184,40 179,35 " style="fill:white; stroke-width:1; stroke:black; " description="&lt;b&gt;HS041_35160&lt;/b&gt;&lt;br&gt;hypothetical protein&lt;br&gt;Location: 128435 - 128690" locus_tag="HS041_35160" class="clusterblast-orf" id="knownclusterblast-2_q7_0_all"  />
<polygon points="190,35 195,30 224,30 224,40 195,40 190,35 " style="fill:white; stroke-width:1; stroke:black; " description="&lt;b&gt;HS041_35165&lt;/b&gt;&lt;br&gt;glycoside hydrolase family 15 protein&lt;br&gt;Location: 129035 - 130796" locus_tag="HS041_35165" class="clusterblast-orf" id="knownclusterblast-2_q8_0_all"  />
<polygon points="224,35 229,30 236,30 236,40 229,40 224,35 " style="fill:white; stroke-width:1; stroke:black; " description="&lt;b&gt;HS041_35170&lt;/b&gt;&lt;br&gt;hypothetical protein&lt;br&gt;Location: 130827 - 131448" locus_tag="HS041_35170" class="clusterblast-orf" id="knownclusterblast-2_q9_0_all"  />
<polygon points="237,40 260,40 265,35 260,30 237,30 237,40 " style="fill:white; stroke-width:1; stroke:black; " description="&lt;b&gt;HS041_35175&lt;/b&gt;&lt;br&gt;PLP-dependent aminotransferase family protein&lt;br&gt;Location: 131510 - 132956" locus_tag="HS041_35175" class="clusterblast-orf" id="knownclusterblast-2_q10_0_all"  />
<polygon points="266,35 271,30 278,30 278,40 271,40 266,35 " style="fill:white; stroke-width:1; stroke:black; " description="&lt;b&gt;HS041_35180&lt;/b&gt;&lt;br&gt;trimeric intracellular cation channel family protein&lt;br&gt;Location: 133042 - 133657" locus_tag="HS041_35180" class="clusterblast-orf" id="knownclusterblast-2_q11_0_all"  />
<polygon points="282,40 312,40 317,35 312,30 282,30 282,40 " style="fill:white; stroke-width:1; stroke:black; " description="&lt;b&gt;HS041_35185&lt;/b&gt;&lt;br&gt;long-chain fatty acid--CoA ligase&lt;br&gt;Location: 133887 - 135726" locus_tag="HS041_35185" class="clusterblast-orf" id="knownclusterblast-2_q12_0_all"  />
<polygon points="319,40 330,40 335,35 330,30 319,30 319,40 " style="fill:white; stroke-width:1; stroke:black; " description="&lt;b&gt;HS041_35190&lt;/b&gt;&lt;br&gt;hypothetical protein&lt;br&gt;Location: 135849 - 136671" locus_tag="HS041_35190" class="clusterblast-orf" id="knownclusterblast-2_q13_0_all"  />
<polygon points="338,40 343,40 348,35 343,30 338,30 338,40 " style="fill:white; stroke-width:1; stroke:black; " description="&lt;b&gt;HS041_35195&lt;/b&gt;&lt;br&gt;hypothetical protein&lt;br&gt;Location: 136822 - 137326" locus_tag="HS041_35195" class="clusterblast-orf" id="knownclusterblast-2_q14_0_all"  />
<polygon points="350,35 355,30 369,30 369,40 355,40 350,35 " style="fill:#d81515; stroke-width:1; stroke:black; " description="&lt;b&gt;HS041_35200&lt;/b&gt;&lt;br&gt;NAD(P)/FAD-dependent oxidoreductase&lt;br&gt;Location: 137435 - 138449" locus_tag="HS041_35200" class="clusterblast-orf" id="knownclusterblast-2_q15_0_all"  />
<polygon points="369,35 374,30 380,30 380,40 374,40 369,35 " style="fill:#15d815; stroke-width:1; stroke:black; " description="&lt;b&gt;HS041_35205&lt;/b&gt;&lt;br&gt;isoprenylcysteine carboxyl methyltransferase family protein&lt;br&gt;Location: 138445 - 139057" locus_tag="HS041_35205" class="clusterblast-orf" id="knownclusterblast-2_q16_0_all"  />
<polygon points="381,35 386,30 402,30 402,40 386,40 381,35 " style="fill:#1515d8; stroke-width:1; stroke:black; " description="&lt;b&gt;HS041_35210&lt;/b&gt;&lt;br&gt;type III polyketide synthase&lt;br&gt;Location: 139066 - 140176" locus_tag="HS041_35210" class="clusterblast-orf" id="knownclusterblast-2_q17_0_all"  />
<polygon points="403,40 415,40 420,35 415,30 403,30 403,40 " style="fill:white; stroke-width:1; stroke:black; " description="&lt;b&gt;HS041_35215&lt;/b&gt;&lt;br&gt;UbiA family prenyltransferase&lt;br&gt;Location: 140265 - 141141" locus_tag="HS041_35215" class="clusterblast-orf" id="knownclusterblast-2_q18_0_all"  />
<polygon points="427,40 444,40 449,35 444,30 427,30 427,40 " style="fill:white; stroke-width:1; stroke:black; " description="&lt;b&gt;HS041_35220&lt;/b&gt;&lt;br&gt;RtcB family protein&lt;br&gt;Location: 141492 - 142680" locus_tag="HS041_35220" class="clusterblast-orf" id="knownclusterblast-2_q19_0_all"  />
<polygon points="454,35 459,30 465,30 465,40 459,40 454,35 " style="fill:white; stroke-width:1; stroke:black; " description="&lt;b&gt;HS041_35225&lt;/b&gt;&lt;br&gt;hypothetical protein&lt;br&gt;Location: 142927 - 143500" locus_tag="HS041_35225" class="clusterblast-orf" id="knownclusterblast-2_q20_0_all"  />
<polygon points="472,40 474,40 479,35 474,30 472,30 472,40 " style="fill:white; stroke-width:1; stroke:black; " description="&lt;b&gt;HS041_35230&lt;/b&gt;&lt;br&gt;hypothetical protein&lt;br&gt;Location: 143890 - 144262" locus_tag="HS041_35230" class="clusterblast-orf" id="knownclusterblast-2_q21_0_all"  />
<polygon points="486,35 491,30 499,30 499,40 491,40 486,35 " style="fill:white; stroke-width:1; stroke:black; " description="&lt;b&gt;HS041_35235&lt;/b&gt;&lt;br&gt;alpha/beta hydrolase&lt;br&gt;Location: 144594 - 145290" locus_tag="HS041_35235" class="clusterblast-orf" id="knownclusterblast-2_q22_0_all"  />
<polygon points="500,35 504,30 504,40 500,35 " style="fill:white; stroke-width:1; stroke:black; " description="&lt;b&gt;HS041_35240&lt;/b&gt;&lt;br&gt;hypothetical protein&lt;br&gt;Location: 145349 - 145568" locus_tag="HS041_35240" class="clusterblast-orf" id="knownclusterblast-2_q23_0_all"  />
<polygon points="504,35 507,30 507,40 504,35 " style="fill:white; stroke-width:1; stroke:black; " description="&lt;b&gt;HS041_35245&lt;/b&gt;&lt;br&gt;hypothetical protein&lt;br&gt;Location: 145564 - 145717" locus_tag="HS041_35245" class="clusterblast-orf" id="knownclusterblast-2_q24_0_all"  />
<polygon points="521,40 529,40 534,35 529,30 521,30 521,40 " style="fill:white; stroke-width:1; stroke:black; " description="&lt;b&gt;HS041_35250&lt;/b&gt;&lt;br&gt;hypothetical protein&lt;br&gt;Location: 146485 - 147139" locus_tag="HS041_35250" class="clusterblast-orf" id="knownclusterblast-2_q25_0_all"  />
<polygon points="538,40 548,40 553,35 548,30 538,30 538,40 " style="fill:white; stroke-width:1; stroke:black; " description="&lt;b&gt;HS041_35255&lt;/b&gt;&lt;br&gt;glycosyltransferase family 2 protein&lt;br&gt;Location: 147346 - 148153" locus_tag="HS041_35255" class="clusterblast-orf" id="knownclusterblast-2_q26_0_all"  />
<polygon points="553,40 571,40 576,35 571,30 553,30 553,40 " style="fill:white; stroke-width:1; stroke:black; " description="&lt;b&gt;HS041_35260&lt;/b&gt;&lt;br&gt;YvcK family protein&lt;br&gt;Location: 148149 - 149385" locus_tag="HS041_35260" class="clusterblast-orf" id="knownclusterblast-2_q27_0_all"  />
<polygon points="576,40 586,40 591,35 586,30 576,30 576,40 " style="fill:white; stroke-width:1; stroke:black; " description="&lt;b&gt;HS041_35265&lt;/b&gt;&lt;br&gt;HAD family phosphatase&lt;br&gt;Location: 149381 - 150128" locus_tag="HS041_35265" class="clusterblast-orf" id="knownclusterblast-2_q28_0_all"  />
<polygon points="591,40 600,40 605,35 600,30 591,30 591,40 " style="fill:white; stroke-width:1; stroke:black; " description="&lt;b&gt;HS041_35270&lt;/b&gt;&lt;br&gt;NTP transferase domain-containing protein&lt;br&gt;Location: 150144 - 150903" locus_tag="HS041_35270" class="clusterblast-orf" id="knownclusterblast-2_q29_0_all"  />
<polygon points="605,40 625,40 630,35 625,30 605,30 605,40 " style="fill:white; stroke-width:1; stroke:black; " description="&lt;b&gt;HS041_35275&lt;/b&gt;&lt;br&gt;glycosyltransferase family 4 protein&lt;br&gt;Location: 150890 - 152204" locus_tag="HS041_35275" class="clusterblast-orf" id="knownclusterblast-2_q30_0_all"  />
<polygon points="632,40 650,40 655,35 650,30 632,30 632,40 " style="fill:white; stroke-width:1; stroke:black; " description="&lt;b&gt;HS041_35280&lt;/b&gt;&lt;br&gt;oligosaccharide flippase family protein&lt;br&gt;Location: 152311 - 153535" locus_tag="HS041_35280" class="clusterblast-orf" id="knownclusterblast-2_q31_0_all"  />
<polygon points="655,40 674,40 679,35 674,30 655,30 655,40 " style="fill:white; stroke-width:1; stroke:black; " description="&lt;b&gt;HS041_35285&lt;/b&gt;&lt;br&gt;glycosyltransferase family 4 protein&lt;br&gt;Location: 153531 - 154788" locus_tag="HS041_35285" class="clusterblast-orf" id="knownclusterblast-2_q32_0_all"  />
<polygon points="682,40 684,40 689,35 684,30 682,30 682,40 " style="fill:white; stroke-width:1; stroke:black; " description="&lt;b&gt;HS041_35290&lt;/b&gt;&lt;br&gt;VOC family protein&lt;br&gt;Location: 154952 - 155294" locus_tag="HS041_35290" class="clusterblast-orf" id="knownclusterblast-2_q33_0_all"  />
<polygon points="697,40 700,40 705,35 700,30 697,30 697,40 " style="fill:white; stroke-width:1; stroke:black; " description="&lt;b&gt;HS041_35295&lt;/b&gt;&lt;br&gt;hypothetical protein&lt;br&gt;Location: 155749 - 156169" locus_tag="HS041_35295" class="clusterblast-orf" id="knownclusterblast-2_q34_0_all"  />
<polygon points="708,40 726,40 731,35 726,30 708,30 708,40 " style="fill:white; stroke-width:1; stroke:black; " description="&lt;b&gt;HS041_35300&lt;/b&gt;&lt;br&gt;ABC transporter permease&lt;br&gt;Location: 156307 - 157516" locus_tag="HS041_35300" class="clusterblast-orf" id="knownclusterblast-2_q35_0_all"  />
<polygon points="733,35 738,30 741,30 741,40 738,40 733,35 " style="fill:white; stroke-width:1; stroke:black; " description="&lt;b&gt;HS041_35305&lt;/b&gt;&lt;br&gt;DUF1232 domain-containing protein&lt;br&gt;Location: 157627 - 158056" locus_tag="HS041_35305" class="clusterblast-orf" id="knownclusterblast-2_q36_0_all"  />
<polygon points="745,40 759,40 764,35 759,30 745,30 745,40 " style="fill:white; stroke-width:1; stroke:black; " description="&lt;b&gt;HS041_35310&lt;/b&gt;&lt;br&gt;GTP 3',8-cyclase MoaA&lt;br&gt;Location: 158254 - 159244" locus_tag="HS041_35310" class="clusterblast-orf" id="knownclusterblast-2_q37_0_all"  />
</g>
<g label="BGC0000282" description="BGC0000282_c1: alkylresorcinol (100% of genes show similarity), Polyketide" class="clusterblast-cluster"  >
<text x="5" y="70" class="clusterblast-acc"  >
<a xlink:href="https://mibig.secondarymetabolites.org/go/BGC0000282/1" target="_blank">BGC0000282</a>: alkylresorcinol                                                                  (100% of genes show similarity), Polyketide</text>
<line x1="10" y1="85" x2="778.0" y2="85" style="stroke-width:1; stroke:grey; "  />
</g>
<g id="a2_000"  >
<polygon points="365,85 370,80 384,80 384,90 370,90 365,85 " style="fill:#d81515; stroke-width:1; stroke:black; " description="&lt;b&gt;SGR_470&lt;/b&gt;&lt;br&gt;monooxygenase&lt;br&gt;Location: 1 - 1017&lt;br&gt;&lt;br&gt;&lt;b&gt;BlastP hit with HS041_35200&lt;/b&gt;&lt;br&gt;Percentage identity: 67&lt;br&gt;Percentage coverage: 100&lt;br&gt;BLAST bit score: 409&lt;br&gt;E-value: 2.78e-143" locus_tag="SGR_470" class="clusterblast-orf" id="knownclusterblast-2_all_2_1_0"  />
</g>
<g id="a2_001"  >
<polygon points="384,85 389,80 394,80 394,90 389,90 384,85 " style="fill:#15d815; stroke-width:1; stroke:black; " description="&lt;b&gt;SGR_471&lt;/b&gt;&lt;br&gt;methyltransferase&lt;br&gt;Location: 1014 - 1547&lt;br&gt;&lt;br&gt;&lt;b&gt;BlastP hit with HS041_35205&lt;/b&gt;&lt;br&gt;Percentage identity: 75&lt;br&gt;Percentage coverage: 85&lt;br&gt;BLAST bit score: 263&lt;br&gt;E-value: 2.68e-90" locus_tag="SGR_471" class="clusterblast-orf" id="knownclusterblast-2_all_2_1_1"  />
</g>
<g id="a2_002"  >
<polygon points="394,85 399,80 414,80 414,90 399,90 394,85 " style="fill:#1515d8; stroke-width:1; stroke:black; " description="&lt;b&gt;SGR_472&lt;/b&gt;&lt;br&gt;type-III PKS&lt;br&gt;Location: 1561 - 2613&lt;br&gt;&lt;br&gt;&lt;b&gt;BlastP hit with HS041_35210&lt;/b&gt;&lt;br&gt;Percentage identity: 66&lt;br&gt;Percentage coverage: 100&lt;br&gt;BLAST bit score: 468&lt;br&gt;E-value: 8.03e-166" locus_tag="SGR_472" class="clusterblast-orf" id="knownclusterblast-2_all_2_1_2"  />
</g>
<g label="BGC0001647" description="BGC0001647_c1: lagunapyrone A/lagunapyrone B/lagunapyrone C (22% of genes show similarity), Polyketide" class="clusterblast-cluster"  >
<text x="5" y="120" class="clusterblast-acc"  >
<a xlink:href="https://mibig.secondarymetabolites.org/go/BGC0001647/1" target="_blank">BGC0001647</a>: lagunapyrone A/lagunapyrone B/lagunapyrone C                                     (22% of genes show similarity), Polyketide</text>
<line x1="10" y1="135" x2="778.0" y2="135" style="stroke-width:1; stroke:grey; "  />
</g>
<g id="a2_000"  >
<polygon points="216,135 221,130 258,130 258,140 221,140 216,135 " style="fill:white; stroke-width:1; stroke:black; " description="&lt;b&gt;STBA_03870&lt;/b&gt;&lt;br&gt;Regulatory protein AfsR&lt;br&gt;Location: 1 - 2247" locus_tag="STBA_03870" class="clusterblast-orf" id="knownclusterblast-2_all_2_2_0"  />
</g>
<g id="a2_001"  >
<polygon points="261,135 266,130 271,130 271,140 266,140 261,135 " style="fill:#15d815; stroke-width:1; stroke:black; " description="&lt;b&gt;STBA_03880&lt;/b&gt;&lt;br&gt;putative protein-S-isoprenylcysteine methyltransferase&lt;br&gt;Location: 2391 - 2915&lt;br&gt;&lt;br&gt;&lt;b&gt;BlastP hit with HS041_35205&lt;/b&gt;&lt;br&gt;Percentage identity: 69&lt;br&gt;Percentage coverage: 85&lt;br&gt;BLAST bit score: 251&lt;br&gt;E-value: 8.89e-86" locus_tag="STBA_03880" class="clusterblast-orf" id="knownclusterblast-2_all_2_2_1"  />
</g>
<g id="a2_002"  >
<polygon points="271,135 276,130 291,130 291,140 276,140 271,135 " style="fill:#1515d8; stroke-width:1; stroke:black; " description="&lt;b&gt;STBA_03890&lt;/b&gt;&lt;br&gt;Alpha-pyrone synthesis polyketide synthase-like Pks11&lt;br&gt;Location: 2929 - 3981&lt;br&gt;&lt;br&gt;&lt;b&gt;BlastP hit with HS041_35210&lt;/b&gt;&lt;br&gt;Percentage identity: 63&lt;br&gt;Percentage coverage: 100&lt;br&gt;BLAST bit score: 461&lt;br&gt;E-value: 4.37e-163" locus_tag="STBA_03890" class="clusterblast-orf" id="knownclusterblast-2_all_2_2_2"  />
</g>
<g id="a2_003"  >
<polygon points="297,140 439,140 444,135 439,130 297,130 297,140 " style="fill:white; stroke-width:1; stroke:black; " description="&lt;b&gt;STBA_03900&lt;/b&gt;&lt;br&gt;Beta-ketoacyl-acyl-carrier-protein synthase I&lt;br&gt;Location: 4273 - 12006" locus_tag="STBA_03900" class="clusterblast-orf" id="knownclusterblast-2_all_2_2_3"  />
</g>
<g id="a2_004"  >
<polygon points="445,140 468,140 473,135 468,130 445,130 445,140 " style="fill:white; stroke-width:1; stroke:black; " description="&lt;b&gt;STBA_03920&lt;/b&gt;&lt;br&gt;tricarballylate dehydrogenase&lt;br&gt;Location: 12060 - 13532" locus_tag="STBA_03920" class="clusterblast-orf" id="knownclusterblast-2_all_2_2_4"  />
</g>
<g id="a2_005"  >
<polygon points="475,140 479,140 484,135 479,130 475,130 475,140 " style="fill:white; stroke-width:1; stroke:black; " description="&lt;b&gt;STBA_03930&lt;/b&gt;&lt;br&gt;alkylhydroperoxidase AhpD family core domain protein&lt;br&gt;Location: 13684 - 14157" locus_tag="STBA_03930" class="clusterblast-orf" id="knownclusterblast-2_all_2_2_5"  />
</g>
<g id="a2_006"  >
<polygon points="486,135 491,130 519,130 519,140 491,140 486,135 " style="fill:white; stroke-width:1; stroke:black; " description="&lt;b&gt;STBA_03940&lt;/b&gt;&lt;br&gt;FAD-linked oxidoreductase&lt;br&gt;Location: 14246 - 15988" locus_tag="STBA_03940" class="clusterblast-orf" id="knownclusterblast-2_all_2_2_6"  />
</g>
<g id="a2_007"  >
<polygon points="523,140 535,140 540,135 535,130 523,130 523,140 " style="fill:white; stroke-width:1; stroke:black; " description="&lt;b&gt;STBA_03950&lt;/b&gt;&lt;br&gt;Nodulation protein NolA&lt;br&gt;Location: 16175 - 17092" locus_tag="STBA_03950" class="clusterblast-orf" id="knownclusterblast-2_all_2_2_7"  />
</g>
<g id="a2_008"  >
<polygon points="543,140 558,140 563,135 558,130 543,130 543,140 " style="fill:white; stroke-width:1; stroke:black; " description="&lt;b&gt;STBA_03960&lt;/b&gt;&lt;br&gt;D-arabitol-phosphate dehydrogenase&lt;br&gt;Location: 17245 - 18309" locus_tag="STBA_03960" class="clusterblast-orf" id="knownclusterblast-2_all_2_2_8"  />
</g>
<g label="BGC0001831" description="BGC0001831_c1: alkylpyrone-407/alkylpyrone-393 (33% of genes show similarity), Polyketide" class="clusterblast-cluster"  >
<text x="5" y="170" class="clusterblast-acc"  >
<a xlink:href="https://mibig.secondarymetabolites.org/go/BGC0001831/1" target="_blank">BGC0001831</a>: alkylpyrone-407/alkylpyrone-393                                                  (33% of genes show similarity), Polyketide</text>
<line x1="10" y1="185" x2="778.0" y2="185" style="stroke-width:1; stroke:grey; "  />
</g>
<g id="a2_000"  >
<polygon points="331,185 336,180 355,180 355,190 336,190 331,185 " style="fill:white; stroke-width:1; stroke:black; " description="&lt;b&gt;MXAN_6634&lt;/b&gt;&lt;br&gt;conserved hypothetical protein&lt;br&gt;Location: 2 - 1276" locus_tag="MXAN_6634" class="clusterblast-orf" id="knownclusterblast-2_all_2_3_0"  />
</g>
<g id="a2_001"  >
<polygon points="355,185 360,180 376,180 376,190 360,190 355,185 " style="fill:white; stroke-width:1; stroke:black; " description="&lt;b&gt;MXAN_6635&lt;/b&gt;&lt;br&gt;monooxygenase, FAD-binding&lt;br&gt;Location: 1273 - 2370" locus_tag="MXAN_6635" class="clusterblast-orf" id="knownclusterblast-2_all_2_3_1"  />
</g>
<g id="a2_002"  >
<polygon points="378,185 383,180 411,180 411,190 383,190 378,185 " style="fill:white; stroke-width:1; stroke:black; " description="&lt;b&gt;MXAN_6636&lt;/b&gt;&lt;br&gt;AMP-binding protein&lt;br&gt;Location: 2452 - 4230" locus_tag="MXAN_6636" class="clusterblast-orf" id="knownclusterblast-2_all_2_3_2"  />
</g>
<g id="a2_003"  >
<polygon points="411,185 416,180 416,180 416,190 416,190 411,185 " style="fill:white; stroke-width:1; stroke:black; " description="&lt;b&gt;MXAN_6637&lt;/b&gt;&lt;br&gt;acyl carrier protein&lt;br&gt;Location: 4227 - 4484" locus_tag="MXAN_6637" class="clusterblast-orf" id="knownclusterblast-2_all_2_3_3"  />
</g>
<g id="a2_004"  >
<polygon points="417,185 422,180 429,180 429,190 422,190 417,185 " style="fill:#15d815; stroke-width:1; stroke:black; " description="&lt;b&gt;MXAN_6638&lt;/b&gt;&lt;br&gt;conserved hypothetical protein&lt;br&gt;Location: 4501 - 5133&lt;br&gt;&lt;br&gt;&lt;b&gt;BlastP hit with HS041_35205&lt;/b&gt;&lt;br&gt;Percentage identity: 58&lt;br&gt;Percentage coverage: 77&lt;br&gt;BLAST bit score: 177&lt;br&gt;E-value: 2.81e-56" locus_tag="MXAN_6638" class="clusterblast-orf" id="knownclusterblast-2_all_2_3_4"  />
</g>
<g id="a2_005"  >
<polygon points="427,185 432,180 448,180 448,190 432,190 427,185 " style="fill:#1515d8; stroke-width:1; stroke:black; " description="&lt;b&gt;MXAN_6639&lt;/b&gt;&lt;br&gt;chalcone/stilbene synthase family protein&lt;br&gt;Location: 5070 - 6152&lt;br&gt;&lt;br&gt;&lt;b&gt;BlastP hit with HS041_35210&lt;/b&gt;&lt;br&gt;Percentage identity: 52&lt;br&gt;Percentage coverage: 99&lt;br&gt;BLAST bit score: 352&lt;br&gt;E-value: 2.67e-120" locus_tag="MXAN_6639" class="clusterblast-orf" id="knownclusterblast-2_all_2_3_5"  />
</g>
<g label="BGC0001964" description="BGC0001964_c1: alkylpyrone-407/alkylpyrone-393 (4% of genes show similarity), Polyketide" class="clusterblast-cluster"  >
<text x="5" y="220" class="clusterblast-acc"  >
<a xlink:href="https://mibig.secondarymetabolites.org/go/BGC0001964/1" target="_blank">BGC0001964</a>: alkylpyrone-407/alkylpyrone-393                                                  (4% of genes show similarity), Polyketide</text>
<line x1="10" y1="235" x2="778.0" y2="235" style="stroke-width:1; stroke:grey; "  />
</g>
<g id="a2_000"  >
<polygon points="0,235 4,230 4,240 0,235 " style="fill:white; stroke-width:1; stroke:black; " description="&lt;b&gt;AYM52881.1&lt;/b&gt;&lt;br&gt;hypothetical protein&lt;br&gt;Location: 41089 - 40849" locus_tag="AYM52881.1" class="clusterblast-orf" id="knownclusterblast-2_all_2_4_0"  />
</g>
<g id="a2_001"  >
<polygon points="7,235 12,230 16,230 16,240 12,240 7,235 " style="fill:white; stroke-width:1; stroke:black; " description="&lt;b&gt;AYM52880.1&lt;/b&gt;&lt;br&gt;lipoprotein&lt;br&gt;Location: 40713 - 40198" locus_tag="AYM52880.1" class="clusterblast-orf" id="knownclusterblast-2_all_2_4_1"  />
</g>
<g id="a2_002"  >
<polygon points="21,235 26,230 33,230 33,240 26,240 21,235 " style="fill:white; stroke-width:1; stroke:black; " description="&lt;b&gt;AYM52879.1&lt;/b&gt;&lt;br&gt;ahpC/TSA family protein&lt;br&gt;Location: 39949 - 39344" locus_tag="AYM52879.1" class="clusterblast-orf" id="knownclusterblast-2_all_2_4_2"  />
</g>
<g id="a2_003"  >
<polygon points="34,235 39,230 43,230 43,240 39,240 34,235 " style="fill:white; stroke-width:1; stroke:black; " description="&lt;b&gt;AYM52878.1&lt;/b&gt;&lt;br&gt;hypothetical protein&lt;br&gt;Location: 39289 - 38807" locus_tag="AYM52878.1" class="clusterblast-orf" id="knownclusterblast-2_all_2_4_3"  />
</g>
<g id="a2_004"  >
<polygon points="44,240 51,240 56,235 51,230 44,230 44,240 " style="fill:white; stroke-width:1; stroke:black; " description="&lt;b&gt;AYM52877.1&lt;/b&gt;&lt;br&gt;hypothetical protein&lt;br&gt;Location: 38749 - 38108" locus_tag="AYM52877.1" class="clusterblast-orf" id="knownclusterblast-2_all_2_4_4"  />
</g>
<g id="a2_005"  >
<polygon points="57,235 62,230 82,230 82,240 62,240 57,235 " style="fill:white; stroke-width:1; stroke:black; " description="&lt;b&gt;AYM52876.1&lt;/b&gt;&lt;br&gt;response regulator&lt;br&gt;Location: 38059 - 36740" locus_tag="AYM52876.1" class="clusterblast-orf" id="knownclusterblast-2_all_2_4_5"  />
</g>
<g id="a2_006"  >
<polygon points="91,240 106,240 111,235 106,230 91,230 91,240 " style="fill:white; stroke-width:1; stroke:black; " description="&lt;b&gt;AYM52875.1&lt;/b&gt;&lt;br&gt;methyltransferase type 12&lt;br&gt;Location: 36270 - 35230" locus_tag="AYM52875.1" class="clusterblast-orf" id="knownclusterblast-2_all_2_4_6"  />
</g>
<g id="a2_007"  >
<polygon points="112,240 118,240 123,235 118,230 112,230 112,240 " style="fill:white; stroke-width:1; stroke:black; " description="&lt;b&gt;AYM52874.1&lt;/b&gt;&lt;br&gt;hypothetical protein&lt;br&gt;Location: 35176 - 34598" locus_tag="AYM52874.1" class="clusterblast-orf" id="knownclusterblast-2_all_2_4_7"  />
</g>
<g id="a2_008"  >
<polygon points="124,235 129,230 145,230 145,240 129,240 124,235 " style="fill:white; stroke-width:1; stroke:black; " description="&lt;b&gt;AYM52873.1&lt;/b&gt;&lt;br&gt;hypothetical protein&lt;br&gt;Location: 34508 - 33438" locus_tag="AYM52873.1" class="clusterblast-orf" id="knownclusterblast-2_all_2_4_8"  />
</g>
<g id="a2_009"  >
<polygon points="144,235 149,230 153,230 153,240 149,240 144,235 " style="fill:white; stroke-width:1; stroke:black; " description="&lt;b&gt;AYM52872.1&lt;/b&gt;&lt;br&gt;hypothetical protein&lt;br&gt;Location: 33465 - 32980" locus_tag="AYM52872.1" class="clusterblast-orf" id="knownclusterblast-2_all_2_4_9"  />
</g>
<g id="a2_0010"  >
<polygon points="156,235 161,230 165,230 165,240 161,240 156,235 " style="fill:white; stroke-width:1; stroke:black; " description="&lt;b&gt;AYM52871.1&lt;/b&gt;&lt;br&gt;hypothetical protein&lt;br&gt;Location: 32834 - 32370" locus_tag="AYM52871.1" class="clusterblast-orf" id="knownclusterblast-2_all_2_4_10"  />
</g>
<g id="a2_0011"  >
<polygon points="165,235 170,230 172,230 172,240 170,240 165,235 " style="fill:white; stroke-width:1; stroke:black; " description="&lt;b&gt;AYM52870.1&lt;/b&gt;&lt;br&gt;transcriptional regulator ArsR family&lt;br&gt;Location: 32373 - 31996" locus_tag="AYM52870.1" class="clusterblast-orf" id="knownclusterblast-2_all_2_4_11"  />
</g>
<g id="a2_0012"  >
<polygon points="174,235 179,230 202,230 202,240 179,240 174,235 " style="fill:white; stroke-width:1; stroke:black; " description="&lt;b&gt;AYM52869.1&lt;/b&gt;&lt;br&gt;hypothetical protein&lt;br&gt;Location: 31914 - 30400" locus_tag="AYM52869.1" class="clusterblast-orf" id="knownclusterblast-2_all_2_4_12"  />
</g>
<g id="a2_0013"  >
<polygon points="204,240 212,240 217,235 212,230 204,230 204,240 " style="fill:white; stroke-width:1; stroke:black; " description="&lt;b&gt;AYM52868.1&lt;/b&gt;&lt;br&gt;NIPSNAP family containing protein&lt;br&gt;Location: 30332 - 29622" locus_tag="AYM52868.1" class="clusterblast-orf" id="knownclusterblast-2_all_2_4_13"  />
</g>
<g id="a2_0014"  >
<polygon points="218,240 222,240 227,235 222,230 218,230 218,240 " style="fill:white; stroke-width:1; stroke:black; " description="&lt;b&gt;AYM52867.1&lt;/b&gt;&lt;br&gt;hypothetical protein&lt;br&gt;Location: 29594 - 29094" locus_tag="AYM52867.1" class="clusterblast-orf" id="knownclusterblast-2_all_2_4_14"  />
</g>
<g id="a2_0015"  >
<polygon points="235,235 240,230 254,230 254,240 240,240 235,235 " style="fill:white; stroke-width:1; stroke:black; " description="&lt;b&gt;AYM52866.1&lt;/b&gt;&lt;br&gt;hypothetical protein&lt;br&gt;Location: 28697 - 27702" locus_tag="AYM52866.1" class="clusterblast-orf" id="knownclusterblast-2_all_2_4_15"  />
</g>
<g id="a2_0016"  >
<polygon points="256,240 257,240 262,235 257,230 256,230 256,240 " style="fill:white; stroke-width:1; stroke:black; " description="&lt;b&gt;AYM52865.1&lt;/b&gt;&lt;br&gt;transcriptional regulator protein&lt;br&gt;Location: 27561 - 27235" locus_tag="AYM52865.1" class="clusterblast-orf" id="knownclusterblast-2_all_2_4_16"  />
</g>
<g id="a2_0017"  >
<polygon points="264,235 269,230 292,230 292,240 269,240 264,235 " style="fill:white; stroke-width:1; stroke:black; " description="&lt;b&gt;AYM52864.1&lt;/b&gt;&lt;br&gt;DNA/RNA non-specific endonuclease&lt;br&gt;Location: 27176 - 25701" locus_tag="AYM52864.1" class="clusterblast-orf" id="knownclusterblast-2_all_2_4_17"  />
</g>
<g id="a2_0018"  >
<polygon points="294,235 299,230 306,230 306,240 299,240 294,235 " style="fill:white; stroke-width:1; stroke:black; " description="&lt;b&gt;AYM52863.1&lt;/b&gt;&lt;br&gt;hypothetical protein&lt;br&gt;Location: 25554 - 24925" locus_tag="AYM52863.1" class="clusterblast-orf" id="knownclusterblast-2_all_2_4_18"  />
</g>
<g id="a2_0019"  >
<polygon points="308,235 313,230 328,230 328,240 313,240 308,235 " style="fill:white; stroke-width:1; stroke:black; " description="&lt;b&gt;AYM52862.1&lt;/b&gt;&lt;br&gt;monooxygenase FAD-binding protein&lt;br&gt;Location: 24862 - 23765" locus_tag="AYM52862.1" class="clusterblast-orf" id="knownclusterblast-2_all_2_4_19"  />
</g>
<g id="a2_0020"  >
<polygon points="330,235 335,230 363,230 363,240 335,240 330,235 " style="fill:white; stroke-width:1; stroke:black; " description="&lt;b&gt;AYM52861.1&lt;/b&gt;&lt;br&gt;AMP-binding protein&lt;br&gt;Location: 23677 - 21923" locus_tag="AYM52861.1" class="clusterblast-orf" id="knownclusterblast-2_all_2_4_20"  />
</g>
<g id="a2_0021"  >
<polygon points="363,235 368,230 369,230 369,240 368,240 363,235 " style="fill:white; stroke-width:1; stroke:black; " description="&lt;b&gt;AYM52860.1&lt;/b&gt;&lt;br&gt;acyl carrier protein&lt;br&gt;Location: 21926 - 21651" locus_tag="AYM52860.1" class="clusterblast-orf" id="knownclusterblast-2_all_2_4_21"  />
</g>
<g id="a2_0022"  >
<polygon points="368,235 373,230 379,230 379,240 373,240 368,235 " style="fill:#15d815; stroke-width:1; stroke:black; " description="&lt;b&gt;AYM52859.1&lt;/b&gt;&lt;br&gt;hypothetical protein&lt;br&gt;Location: 21658 - 21083&lt;br&gt;&lt;br&gt;&lt;b&gt;BlastP hit with HS041_35205&lt;/b&gt;&lt;br&gt;Percentage identity: 57&lt;br&gt;Percentage coverage: 81&lt;br&gt;BLAST bit score: 180&lt;br&gt;E-value: 1.36e-57" locus_tag="AYM52859.1" class="clusterblast-orf" id="knownclusterblast-2_all_2_4_22"  />
</g>
<g id="a2_0023"  >
<polygon points="379,235 384,230 400,230 400,240 384,240 379,235 " style="fill:#1515d8; stroke-width:1; stroke:black; " description="&lt;b&gt;AYM52858.1&lt;/b&gt;&lt;br&gt;chalcone/stilbene synthase family protein&lt;br&gt;Location: 21089 - 20001&lt;br&gt;&lt;br&gt;&lt;b&gt;BlastP hit with HS041_35210&lt;/b&gt;&lt;br&gt;Percentage identity: 50&lt;br&gt;Percentage coverage: 99&lt;br&gt;BLAST bit score: 344&lt;br&gt;E-value: 6.1e-117" locus_tag="AYM52858.1" class="clusterblast-orf" id="knownclusterblast-2_all_2_4_23"  />
</g>
<g id="a2_0024"  >
<polygon points="410,235 415,230 416,230 416,240 415,240 410,235 " style="fill:white; stroke-width:1; stroke:black; " description="&lt;b&gt;AYM52857.1&lt;/b&gt;&lt;br&gt;hypothetical protein&lt;br&gt;Location: 19463 - 19155" locus_tag="AYM52857.1" class="clusterblast-orf" id="knownclusterblast-2_all_2_4_24"  />
</g>
<g id="a2_0025"  >
<polygon points="421,240 425,240 430,235 425,230 421,230 421,240 " style="fill:white; stroke-width:1; stroke:black; " description="&lt;b&gt;AYM52856.1&lt;/b&gt;&lt;br&gt;3-demethylubiquinone-9 3-methyltransferase&lt;br&gt;Location: 18912 - 18424" locus_tag="AYM52856.1" class="clusterblast-orf" id="knownclusterblast-2_all_2_4_25"  />
</g>
<g id="a2_0026"  >
<polygon points="435,240 476,240 481,235 476,230 435,230 435,240 " style="fill:white; stroke-width:1; stroke:black; " description="&lt;b&gt;AYM52855.1&lt;/b&gt;&lt;br&gt;isoamylase&lt;br&gt;Location: 18169 - 15749" locus_tag="AYM52855.1" class="clusterblast-orf" id="knownclusterblast-2_all_2_4_26"  />
</g>
<g id="a2_0027"  >
<polygon points="485,240 492,240 497,235 492,230 485,230 485,240 " style="fill:white; stroke-width:1; stroke:black; " description="&lt;b&gt;AYM52854.1&lt;/b&gt;&lt;br&gt;pentapeptide repeat-containing protein&lt;br&gt;Location: 15519 - 14857" locus_tag="AYM52854.1" class="clusterblast-orf" id="knownclusterblast-2_all_2_4_27"  />
</g>
<g id="a2_0028"  >
<polygon points="498,235 503,230 518,230 518,240 503,240 498,235 " style="fill:white; stroke-width:1; stroke:black; " description="&lt;b&gt;AYM52853.1&lt;/b&gt;&lt;br&gt;molybdate ABC transporter ATP-binding protein&lt;br&gt;Location: 14844 - 13777" locus_tag="AYM52853.1" class="clusterblast-orf" id="knownclusterblast-2_all_2_4_28"  />
</g>
<g id="a2_0029"  >
<polygon points="518,235 523,230 532,230 532,240 523,240 518,235 " style="fill:white; stroke-width:1; stroke:black; " description="&lt;b&gt;AYM52852.1&lt;/b&gt;&lt;br&gt;molybdate ABC transporter permease&lt;br&gt;Location: 13756 - 13061" locus_tag="AYM52852.1" class="clusterblast-orf" id="knownclusterblast-2_all_2_4_29"  />
</g>
<g id="a2_0030"  >
<polygon points="531,235 536,230 547,230 547,240 536,240 531,235 " style="fill:white; stroke-width:1; stroke:black; " description="&lt;b&gt;AYM52851.1&lt;/b&gt;&lt;br&gt;molybdenum ABC transporter periplasmic molybdate-binding protein&lt;br&gt;Location: 13079 - 12264" locus_tag="AYM52851.1" class="clusterblast-orf" id="knownclusterblast-2_all_2_4_30"  />
</g>
<g id="a2_0031"  >
<polygon points="547,240 553,240 558,235 553,230 547,230 547,240 " style="fill:white; stroke-width:1; stroke:black; " description="&lt;b&gt;AYM52850.1&lt;/b&gt;&lt;br&gt;MarR family transcriptional regulator&lt;br&gt;Location: 12259 - 11666" locus_tag="AYM52850.1" class="clusterblast-orf" id="knownclusterblast-2_all_2_4_31"  />
</g>
<g id="a2_0032"  >
<polygon points="558,235 563,230 569,230 569,240 563,240 558,235 " style="fill:white; stroke-width:1; stroke:black; " description="&lt;b&gt;AYM52849.1&lt;/b&gt;&lt;br&gt;hypothetical protein&lt;br&gt;Location: 11658 - 11086" locus_tag="AYM52849.1" class="clusterblast-orf" id="knownclusterblast-2_all_2_4_32"  />
</g>
<g id="a2_0033"  >
<polygon points="575,240 581,240 586,235 581,230 575,230 575,240 " style="fill:white; stroke-width:1; stroke:black; " description="&lt;b&gt;AYM52848.1&lt;/b&gt;&lt;br&gt;hypothetical protein&lt;br&gt;Location: 10765 - 10211" locus_tag="AYM52848.1" class="clusterblast-orf" id="knownclusterblast-2_all_2_4_33"  />
</g>
<g id="a2_0034"  >
<polygon points="586,235 591,230 602,230 602,240 591,240 586,235 " style="fill:white; stroke-width:1; stroke:black; " description="&lt;b&gt;AYM52847.1&lt;/b&gt;&lt;br&gt;endonuclease/exonuclease/phosphatase family protein&lt;br&gt;Location: 10201 - 9326" locus_tag="AYM52847.1" class="clusterblast-orf" id="knownclusterblast-2_all_2_4_34"  />
</g>
<g id="a2_0035"  >
<polygon points="605,235 610,230 617,230 617,240 610,240 605,235 " style="fill:white; stroke-width:1; stroke:black; " description="&lt;b&gt;AYM52846.1&lt;/b&gt;&lt;br&gt;hypothetical protein&lt;br&gt;Location: 9213 - 8584" locus_tag="AYM52846.1" class="clusterblast-orf" id="knownclusterblast-2_all_2_4_35"  />
</g>
<g id="a2_0036"  >
<polygon points="619,235 624,230 632,230 632,240 624,240 619,235 " style="fill:white; stroke-width:1; stroke:black; " description="&lt;b&gt;AYM52845.1&lt;/b&gt;&lt;br&gt;hypothetical protein&lt;br&gt;Location: 8440 - 7745" locus_tag="AYM52845.1" class="clusterblast-orf" id="knownclusterblast-2_all_2_4_36"  />
</g>
<g id="a2_0037"  >
<polygon points="635,240 657,240 662,235 657,230 635,230 635,240 " style="fill:white; stroke-width:1; stroke:black; " description="&lt;b&gt;AYM52844.1&lt;/b&gt;&lt;br&gt;prolyl-tRNA synthetase&lt;br&gt;Location: 7617 - 6184" locus_tag="AYM52844.1" class="clusterblast-orf" id="knownclusterblast-2_all_2_4_37"  />
</g>
<g id="a2_0038"  >
<polygon points="663,235 668,230 687,230 687,240 668,240 663,235 " style="fill:white; stroke-width:1; stroke:black; " description="&lt;b&gt;AYM52843.1&lt;/b&gt;&lt;br&gt;adenylate cyclase 1&lt;br&gt;Location: 6114 - 4873" locus_tag="AYM52843.1" class="clusterblast-orf" id="knownclusterblast-2_all_2_4_38"  />
</g>
<g id="a2_0039"  >
<polygon points="689,240 694,240 699,235 694,230 689,230 689,240 " style="fill:white; stroke-width:1; stroke:black; " description="&lt;b&gt;AYM52842.1&lt;/b&gt;&lt;br&gt;membrane-bound metal-dependent hydrolase&lt;br&gt;Location: 4793 - 4251" locus_tag="AYM52842.1" class="clusterblast-orf" id="knownclusterblast-2_all_2_4_39"  />
</g>
<g id="a2_0040"  >
<polygon points="699,240 705,240 710,235 705,230 699,230 699,240 " style="fill:white; stroke-width:1; stroke:black; " description="&lt;b&gt;AYM52841.1&lt;/b&gt;&lt;br&gt;2'-5' RNA ligase&lt;br&gt;Location: 4225 - 3671" locus_tag="AYM52841.1" class="clusterblast-orf" id="knownclusterblast-2_all_2_4_40"  />
</g>
<g id="a2_0041"  >
<polygon points="711,235 716,230 752,230 752,240 716,240 711,235 " style="fill:white; stroke-width:1; stroke:black; " description="&lt;b&gt;AYM52840.1&lt;/b&gt;&lt;br&gt;sensor protein&lt;br&gt;Location: 3628 - 1427" locus_tag="AYM52840.1" class="clusterblast-orf" id="knownclusterblast-2_all_2_4_41"  />
</g>
<g id="a2_0042"  >
<polygon points="758,240 765,240 770,235 765,230 758,230 758,240 " style="fill:white; stroke-width:1; stroke:black; " description="&lt;b&gt;AYM52839.1&lt;/b&gt;&lt;br&gt;hypothetical protein&lt;br&gt;Location: 1146 - 487" locus_tag="AYM52839.1" class="clusterblast-orf" id="knownclusterblast-2_all_2_4_42"  />
</g>
<g id="a2_0043"  >
<polygon points="772,235 777,230 780,230 780,240 777,240 772,235 " style="fill:white; stroke-width:1; stroke:black; " description="&lt;b&gt;AYM52838.1&lt;/b&gt;&lt;br&gt;hypothetical protein&lt;br&gt;Location: 419 - 1" locus_tag="AYM52838.1" class="clusterblast-orf" id="knownclusterblast-2_all_2_4_43"  />
</g>
</svg>
