<svg xmlns="http://www.w3.org/2000/svg" xmlns:xlink="http://www.w3.org/1999/xlink" version="1.1" x="0" y="0" height="200" width="800" viewBox="0 0 800 200" preserveAspectRatio="none"  >
<g label="Query sequence" class="clusterblast-cluster"  >
<text x="5" y="20" class="clusterblast-acc"  >
Query sequence</text>
<line x1="10" y1="35" x2="778.0" y2="35" style="stroke-width:1; stroke:grey; "  />
<polygon points="0,40 1,40 6,35 1,30 0,30 0,40 " style="fill:white; stroke-width:1; stroke:black; " description="&lt;b&gt;HS041_26975&lt;/b&gt;&lt;br&gt;hypothetical protein&lt;br&gt;Location: 86753 - 87146" locus_tag="HS041_26975" class="clusterblast-orf" id="knownclusterblast-1_q0_0_all"  />
<polygon points="6,40 17,40 22,35 17,30 6,30 6,40 " style="fill:white; stroke-width:1; stroke:black; " description="&lt;b&gt;HS041_26980&lt;/b&gt;&lt;br&gt;MoxR family ATPase&lt;br&gt;Location: 87148 - 88129" locus_tag="HS041_26980" class="clusterblast-orf" id="knownclusterblast-1_q1_0_all"  />
<polygon points="22,40 38,40 43,35 38,30 22,30 22,40 " style="fill:white; stroke-width:1; stroke:black; " description="&lt;b&gt;HS041_26985&lt;/b&gt;&lt;br&gt;DUF58 domain-containing protein&lt;br&gt;Location: 88125 - 89373" locus_tag="HS041_26985" class="clusterblast-orf" id="knownclusterblast-1_q2_0_all"  />
<polygon points="44,40 48,40 53,35 48,30 44,30 44,40 " style="fill:white; stroke-width:1; stroke:black; " description="&lt;b&gt;HS041_26990&lt;/b&gt;&lt;br&gt;hypothetical protein&lt;br&gt;Location: 89428 - 89992" locus_tag="HS041_26990" class="clusterblast-orf" id="knownclusterblast-1_q3_0_all"  />
<polygon points="53,35 58,30 66,30 66,40 58,40 53,35 " style="fill:white; stroke-width:1; stroke:black; " description="&lt;b&gt;HS041_26995&lt;/b&gt;&lt;br&gt;amidohydrolase&lt;br&gt;Location: 89984 - 90767" locus_tag="HS041_26995" class="clusterblast-orf" id="knownclusterblast-1_q4_0_all"  />
<polygon points="68,40 78,40 83,35 78,30 68,30 68,40 " style="fill:white; stroke-width:1; stroke:black; " description="&lt;b&gt;HS041_27000&lt;/b&gt;&lt;br&gt;LysR family transcriptional regulator&lt;br&gt;Location: 90880 - 91789" locus_tag="HS041_27000" class="clusterblast-orf" id="knownclusterblast-1_q5_0_all"  />
<polygon points="85,40 88,35 85,30 85,40 " style="fill:white; stroke-width:1; stroke:black; " description="&lt;b&gt;HS041_27005&lt;/b&gt;&lt;br&gt;hypothetical protein&lt;br&gt;Location: 91927 - 92101" locus_tag="HS041_27005" class="clusterblast-orf" id="knownclusterblast-1_q6_0_all"  />
<polygon points="89,35 94,30 101,30 101,40 94,40 89,35 " style="fill:white; stroke-width:1; stroke:black; " description="&lt;b&gt;HS041_27010&lt;/b&gt;&lt;br&gt;methyltransferase domain-containing protein&lt;br&gt;Location: 92133 - 92898" locus_tag="HS041_27010" class="clusterblast-orf" id="knownclusterblast-1_q7_0_all"  />
<polygon points="102,35 107,30 111,30 111,40 107,40 102,35 " style="fill:#d81515; stroke-width:1; stroke:black; " description="&lt;b&gt;HS041_27015&lt;/b&gt;&lt;br&gt;TrmH family RNA methyltransferase&lt;br&gt;Location: 92922 - 93492" locus_tag="HS041_27015" class="clusterblast-orf" id="knownclusterblast-1_q8_0_all"  />
<polygon points="112,35 117,30 122,30 122,40 117,40 112,35 " style="fill:#77d815; stroke-width:1; stroke:black; " description="&lt;b&gt;HS041_27020&lt;/b&gt;&lt;br&gt;methyltransferase&lt;br&gt;Location: 93562 - 94174" locus_tag="HS041_27020" class="clusterblast-orf" id="knownclusterblast-1_q9_0_all"  />
<polygon points="126,35 131,30 142,30 142,40 131,40 126,35 " style="fill:white; stroke-width:1; stroke:black; " description="&lt;b&gt;HS041_27025&lt;/b&gt;&lt;br&gt;VWA domain-containing protein&lt;br&gt;Location: 94391 - 95339" locus_tag="HS041_27025" class="clusterblast-orf" id="knownclusterblast-1_q10_0_all"  />
<polygon points="142,35 147,30 158,30 158,40 147,40 142,35 " style="fill:white; stroke-width:1; stroke:black; " description="&lt;b&gt;HS041_27030&lt;/b&gt;&lt;br&gt;DUF58 domain-containing protein&lt;br&gt;Location: 95335 - 96325" locus_tag="HS041_27030" class="clusterblast-orf" id="knownclusterblast-1_q11_0_all"  />
<polygon points="158,35 163,30 174,30 174,40 163,40 158,35 " style="fill:white; stroke-width:1; stroke:black; " description="&lt;b&gt;HS041_27035&lt;/b&gt;&lt;br&gt;MoxR family ATPase&lt;br&gt;Location: 96321 - 97326" locus_tag="HS041_27035" class="clusterblast-orf" id="knownclusterblast-1_q12_0_all"  />
<polygon points="176,40 184,40 189,35 184,30 176,30 176,40 " style="fill:white; stroke-width:1; stroke:black; " description="&lt;b&gt;HS041_27040&lt;/b&gt;&lt;br&gt;hypothetical protein&lt;br&gt;Location: 97430 - 98192" locus_tag="HS041_27040" class="clusterblast-orf" id="knownclusterblast-1_q13_0_all"  />
<polygon points="190,40 200,40 205,35 200,30 190,30 190,40 " style="fill:white; stroke-width:1; stroke:black; " description="&lt;b&gt;HS041_27045&lt;/b&gt;&lt;br&gt;peptidase&lt;br&gt;Location: 98284 - 99184" locus_tag="HS041_27045" class="clusterblast-orf" id="knownclusterblast-1_q14_0_all"  />
<polygon points="205,35 210,30 215,30 215,40 210,40 205,35 " style="fill:white; stroke-width:1; stroke:black; " description="&lt;b&gt;HS041_27050&lt;/b&gt;&lt;br&gt;response regulator transcription factor&lt;br&gt;Location: 99153 - 99795" locus_tag="HS041_27050" class="clusterblast-orf" id="knownclusterblast-1_q15_0_all"  />
<polygon points="219,40 220,40 225,35 220,30 219,30 219,40 " style="fill:white; stroke-width:1; stroke:black; " description="&lt;b&gt;HS041_27055&lt;/b&gt;&lt;br&gt;hypothetical protein&lt;br&gt;Location: 100000 - 100366" locus_tag="HS041_27055" class="clusterblast-orf" id="knownclusterblast-1_q16_0_all"  />
<polygon points="230,35 235,30 253,30 253,40 235,40 230,35 " style="fill:white; stroke-width:1; stroke:black; " description="&lt;b&gt;HS041_27060&lt;/b&gt;&lt;br&gt;MFS transporter&lt;br&gt;Location: 100670 - 102092" locus_tag="HS041_27060" class="clusterblast-orf" id="knownclusterblast-1_q17_0_all"  />
<polygon points="255,40 265,40 270,35 265,30 255,30 255,40 " style="fill:white; stroke-width:1; stroke:black; " description="&lt;b&gt;HS041_27065&lt;/b&gt;&lt;br&gt;helix-turn-helix domain-containing protein&lt;br&gt;Location: 102216 - 103098" locus_tag="HS041_27065" class="clusterblast-orf" id="knownclusterblast-1_q18_0_all"  />
<polygon points="281,40 297,40 302,35 297,30 281,30 281,40 " style="fill:#15d8d8; stroke-width:1; stroke:black; " description="&lt;b&gt;HS041_27070&lt;/b&gt;&lt;br&gt;MFS transporter&lt;br&gt;Location: 103740 - 105042" locus_tag="HS041_27070" class="clusterblast-orf" id="knownclusterblast-1_q19_0_all"  />
<polygon points="303,40 318,40 323,35 318,30 303,30 303,40 " style="fill:#7715d8; stroke-width:1; stroke:black; " description="&lt;b&gt;HS041_27075&lt;/b&gt;&lt;br&gt;non-ribosomal peptide synthetase&lt;br&gt;Location: 105071 - 106319" locus_tag="HS041_27075" class="clusterblast-orf" id="knownclusterblast-1_q20_0_all"  />
<polygon points="325,40 371,40 376,35 371,30 325,30 325,40 " style="fill:#d8a715; stroke-width:1; stroke:black; " description="&lt;b&gt;HS041_27080&lt;/b&gt;&lt;br&gt;amino acid adenylation domain-containing protein&lt;br&gt;Location: 106407 - 109521" locus_tag="HS041_27080" class="clusterblast-orf" id="knownclusterblast-1_q21_0_all"  />
<polygon points="376,40 390,40 395,35 390,30 376,30 376,40 " style="fill:white; stroke-width:1; stroke:black; " description="&lt;b&gt;HS041_27085&lt;/b&gt;&lt;br&gt;acyl-CoA dehydrogenase family protein&lt;br&gt;Location: 109517 - 110669" locus_tag="HS041_27085" class="clusterblast-orf" id="knownclusterblast-1_q22_0_all"  />
<polygon points="395,40 421,40 426,35 421,30 395,30 395,40 " style="fill:#15d846; stroke-width:1; stroke:black; " description="&lt;b&gt;HS041_27090&lt;/b&gt;&lt;br&gt;non-ribosomal peptide synthetase&lt;br&gt;Location: 110687 - 112571" locus_tag="HS041_27090" class="clusterblast-orf" id="knownclusterblast-1_q23_0_all"  />
<polygon points="427,40 452,40 457,35 452,30 427,30 427,40 " style="fill:#1546d8; stroke-width:1; stroke:black; " description="&lt;b&gt;HS041_27095&lt;/b&gt;&lt;br&gt;non-ribosomal peptide synthetase&lt;br&gt;Location: 112593 - 114411" locus_tag="HS041_27095" class="clusterblast-orf" id="knownclusterblast-1_q24_0_all"  />
<polygon points="457,40 495,40 500,35 495,30 457,30 457,40 " style="fill:#d815a7; stroke-width:1; stroke:black; " description="&lt;b&gt;HS041_27100&lt;/b&gt;&lt;br&gt;NAD(P)H-binding protein&lt;br&gt;Location: 114394 - 117007" locus_tag="HS041_27100" class="clusterblast-orf" id="knownclusterblast-1_q25_0_all"  />
<polygon points="503,40 506,35 503,30 503,40 " style="fill:white; stroke-width:1; stroke:black; " description="&lt;b&gt;HS041_27105&lt;/b&gt;&lt;br&gt;hypothetical protein&lt;br&gt;Location: 117212 - 117389" locus_tag="HS041_27105" class="clusterblast-orf" id="knownclusterblast-1_q26_0_all"  />
<polygon points="506,35 511,30 519,30 519,40 511,40 506,35 " style="fill:white; stroke-width:1; stroke:black; " description="&lt;b&gt;HS041_27110&lt;/b&gt;&lt;br&gt;transposase family protein&lt;br&gt;Location: 117408 - 118191" locus_tag="HS041_27110" class="clusterblast-orf" id="knownclusterblast-1_q27_0_all"  />
<polygon points="525,35 530,30 568,30 568,40 530,40 525,35 " style="fill:white; stroke-width:1; stroke:black; " description="&lt;b&gt;HS041_27115&lt;/b&gt;&lt;br&gt;phosphoenolpyruvate synthase&lt;br&gt;Location: 118558 - 121153" locus_tag="HS041_27115" class="clusterblast-orf" id="knownclusterblast-1_q28_0_all"  />
<polygon points="585,35 590,30 595,30 595,40 590,40 585,35 " style="fill:white; stroke-width:1; stroke:black; " description="&lt;b&gt;HS041_27120&lt;/b&gt;&lt;br&gt;hypothetical protein&lt;br&gt;Location: 122181 - 122760" locus_tag="HS041_27120" class="clusterblast-orf" id="knownclusterblast-1_q29_0_all"  />
<polygon points="600,40 620,40 625,35 620,30 600,30 600,40 " style="fill:white; stroke-width:1; stroke:black; " description="&lt;b&gt;HS041_27125&lt;/b&gt;&lt;br&gt;isocitrate lyase/phosphoenolpyruvate mutase family protein&lt;br&gt;Location: 123056 - 124592" locus_tag="HS041_27125" class="clusterblast-orf" id="knownclusterblast-1_q30_0_all"  />
<polygon points="632,35 637,30 648,30 648,40 637,40 632,35 " style="fill:white; stroke-width:1; stroke:black; " description="&lt;b&gt;HS041_27130&lt;/b&gt;&lt;br&gt;winged helix-turn-helix transcriptional regulator&lt;br&gt;Location: 124977 - 125973" locus_tag="HS041_27130" class="clusterblast-orf" id="knownclusterblast-1_q31_0_all"  />
<polygon points="658,40 693,40 698,35 693,30 658,30 658,40 " style="fill:white; stroke-width:1; stroke:black; " description="&lt;b&gt;HS041_27135&lt;/b&gt;&lt;br&gt;hypothetical protein&lt;br&gt;Location: 126572 - 128975" locus_tag="HS041_27135" class="clusterblast-orf" id="knownclusterblast-1_q32_0_all"  />
<polygon points="702,35 705,30 705,40 702,35 " style="fill:white; stroke-width:1; stroke:black; " description="&lt;b&gt;HS041_27140&lt;/b&gt;&lt;br&gt;IS5/IS1182 family transposase&lt;br&gt;Location: 129257 - 129392" locus_tag="HS041_27140" class="clusterblast-orf" id="knownclusterblast-1_q33_0_all"  />
<polygon points="707,35 712,30 718,30 718,40 712,40 707,35 " style="fill:white; stroke-width:1; stroke:black; " description="&lt;b&gt;HS041_27145&lt;/b&gt;&lt;br&gt;helix-turn-helix domain-containing protein&lt;br&gt;Location: 129528 - 130227" locus_tag="HS041_27145" class="clusterblast-orf" id="knownclusterblast-1_q34_0_all"  />
<polygon points="722,40 733,40 738,35 733,30 722,30 722,40 " style="fill:white; stroke-width:1; stroke:black; " description="&lt;b&gt;HS041_27150&lt;/b&gt;&lt;br&gt;hypothetical protein&lt;br&gt;Location: 130455 - 131430" locus_tag="HS041_27150" class="clusterblast-orf" id="knownclusterblast-1_q35_0_all"  />
<polygon points="746,40 746,40 751,35 746,30 746,30 746,40 " style="fill:white; stroke-width:1; stroke:black; " description="&lt;b&gt;HS041_27155&lt;/b&gt;&lt;br&gt;hypothetical protein&lt;br&gt;Location: 131896 - 132178" locus_tag="HS041_27155" class="clusterblast-orf" id="knownclusterblast-1_q36_0_all"  />
<polygon points="755,35 760,30 760,30 760,40 760,40 755,35 " style="fill:white; stroke-width:1; stroke:black; " description="&lt;b&gt;HS041_27160&lt;/b&gt;&lt;br&gt;helix-turn-helix transcriptional regulator&lt;br&gt;Location: 132444 - 132759" locus_tag="HS041_27160" class="clusterblast-orf" id="knownclusterblast-1_q37_0_all"  />
<polygon points="764,40 767,40 772,35 767,30 764,30 764,40 " style="fill:white; stroke-width:1; stroke:black; " description="&lt;b&gt;HS041_27165&lt;/b&gt;&lt;br&gt;hypothetical protein&lt;br&gt;Location: 132977 - 133451" locus_tag="HS041_27165" class="clusterblast-orf" id="knownclusterblast-1_q38_0_all"  />
<polygon points="772,40 775,40 780,35 775,30 772,30 772,40 " style="fill:white; stroke-width:1; stroke:black; " description="&lt;b&gt;HS041_27170&lt;/b&gt;&lt;br&gt;GNAT family N-acetyltransferase&lt;br&gt;Location: 133462 - 133933" locus_tag="HS041_27170" class="clusterblast-orf" id="knownclusterblast-1_q39_0_all"  />
</g>
<g label="BGC0002051" description="BGC0002051_c1: antipain (100% of genes show similarity), NRP" class="clusterblast-cluster"  >
<text x="5" y="70" class="clusterblast-acc"  >
<a xlink:href="https://mibig.secondarymetabolites.org/go/BGC0002051/1" target="_blank">BGC0002051</a>: antipain                                                                         (100% of genes show similarity), NRP</text>
<line x1="10" y1="85" x2="778.0" y2="85" style="stroke-width:1; stroke:grey; "  />
</g>
<g id="a1_000"  >
<polygon points="284,90 301,90 306,85 301,80 284,80 284,90 " style="fill:#15d8d8; stroke-width:1; stroke:black; " description="&lt;b&gt;NAI38-460&lt;/b&gt;&lt;br&gt;putative multidrug-efflux transporter&lt;br&gt;Location: 163 - 1470&lt;br&gt;&lt;br&gt;&lt;b&gt;BlastP hit with HS041_27070&lt;/b&gt;&lt;br&gt;Percentage identity: 72&lt;br&gt;Percentage coverage: 94&lt;br&gt;BLAST bit score: 530&lt;br&gt;E-value: 6.39e-188" locus_tag="NAI38-460" class="clusterblast-orf" id="knownclusterblast-1_all_1_1_0"  />
</g>
<g id="a1_001"  >
<polygon points="307,90 324,90 329,85 324,80 307,80 307,90 " style="fill:#7715d8; stroke-width:1; stroke:black; " description="&lt;b&gt;NAI38-461&lt;/b&gt;&lt;br&gt;dimodular nonribosomal peptide synthase&lt;br&gt;Location: 1588 - 2883&lt;br&gt;&lt;br&gt;&lt;b&gt;BlastP hit with HS041_27075&lt;/b&gt;&lt;br&gt;Percentage identity: 54&lt;br&gt;Percentage coverage: 102&lt;br&gt;BLAST bit score: 405&lt;br&gt;E-value: 3.87e-139" locus_tag="NAI38-461" class="clusterblast-orf" id="knownclusterblast-1_all_1_1_1"  />
</g>
<g id="a1_002"  >
<polygon points="331,90 379,90 384,85 379,80 331,80 331,90 " style="fill:#d8a715; stroke-width:1; stroke:black; " description="&lt;b&gt;NAI38-462&lt;/b&gt;&lt;br&gt;tyrocidine synthase 3&lt;br&gt;Location: 3033 - 6227&lt;br&gt;&lt;br&gt;&lt;b&gt;BlastP hit with HS041_27080&lt;/b&gt;&lt;br&gt;Percentage identity: 66&lt;br&gt;Percentage coverage: 102&lt;br&gt;BLAST bit score: 1291&lt;br&gt;E-value: 0.0" locus_tag="NAI38-462" class="clusterblast-orf" id="knownclusterblast-1_all_1_1_2"  />
</g>
<g id="a1_003"  >
<polygon points="384,90 411,90 416,85 411,80 384,80 384,90 " style="fill:#15d846; stroke-width:1; stroke:black; " description="&lt;b&gt;NAI38-463&lt;/b&gt;&lt;br&gt;linear gramicidin synthase subunit D&lt;br&gt;Location: 6224 - 8167&lt;br&gt;&lt;br&gt;&lt;b&gt;BlastP hit with HS041_27090&lt;/b&gt;&lt;br&gt;Percentage identity: 56&lt;br&gt;Percentage coverage: 98&lt;br&gt;BLAST bit score: 600&lt;br&gt;E-value: 3.1e-209" locus_tag="NAI38-463" class="clusterblast-orf" id="knownclusterblast-1_all_1_1_3"  />
</g>
<g id="a1_004"  >
<polygon points="416,90 443,90 448,85 443,80 416,80 416,90 " style="fill:#1546d8; stroke-width:1; stroke:black; " description="&lt;b&gt;NAI38-464&lt;/b&gt;&lt;br&gt;linear gramicidin synthase subunit B&lt;br&gt;Location: 8169 - 10088&lt;br&gt;&lt;br&gt;&lt;b&gt;BlastP hit with HS041_27095&lt;/b&gt;&lt;br&gt;Percentage identity: 61&lt;br&gt;Percentage coverage: 101&lt;br&gt;BLAST bit score: 695&lt;br&gt;E-value: 4.14e-247" locus_tag="NAI38-464" class="clusterblast-orf" id="knownclusterblast-1_all_1_1_4"  />
</g>
<g id="a1_005"  >
<polygon points="448,90 490,90 495,85 490,80 448,80 448,90 " style="fill:#d815a7; stroke-width:1; stroke:black; " description="&lt;b&gt;NAI38-465&lt;/b&gt;&lt;br&gt;linear gramicidin synthase subunit B&lt;br&gt;Location: 10078 - 12936&lt;br&gt;&lt;br&gt;&lt;b&gt;BlastP hit with HS041_27100&lt;/b&gt;&lt;br&gt;Percentage identity: 51&lt;br&gt;Percentage coverage: 106&lt;br&gt;BLAST bit score: 795&lt;br&gt;E-value: 1.15e-277" locus_tag="NAI38-465" class="clusterblast-orf" id="knownclusterblast-1_all_1_1_5"  />
</g>
<g label="BGC0001570" description="BGC0001570_c1: deimino-antipain (66% of genes show similarity), NRP" class="clusterblast-cluster"  >
<text x="5" y="120" class="clusterblast-acc"  >
<a xlink:href="https://mibig.secondarymetabolites.org/go/BGC0001570/1" target="_blank">BGC0001570</a>: deimino-antipain                                                                 (66% of genes show similarity), NRP</text>
<line x1="10" y1="135" x2="778.0" y2="135" style="stroke-width:1; stroke:grey; "  />
</g>
<g id="a1_000"  >
<polygon points="262,140 275,140 280,135 275,130 262,130 262,140 " style="fill:white; stroke-width:1; stroke:black; " description="&lt;b&gt;A4V12_31625&lt;/b&gt;&lt;br&gt;hydrolase&lt;br&gt;Location: 1 - 1095" locus_tag="A4V12_31625" class="clusterblast-orf" id="knownclusterblast-1_all_1_2_0"  />
</g>
<g id="a1_001"  >
<polygon points="285,140 302,140 307,135 302,130 285,130 285,140 " style="fill:#15d8d8; stroke-width:1; stroke:black; " description="&lt;b&gt;A4V12_31630&lt;/b&gt;&lt;br&gt;MFS transporter&lt;br&gt;Location: 1427 - 2743&lt;br&gt;&lt;br&gt;&lt;b&gt;BlastP hit with HS041_27070&lt;/b&gt;&lt;br&gt;Percentage identity: 72&lt;br&gt;Percentage coverage: 93&lt;br&gt;BLAST bit score: 512&lt;br&gt;E-value: 4.83e-181" locus_tag="A4V12_31630" class="clusterblast-orf" id="knownclusterblast-1_all_1_2_1"  />
</g>
<g id="a1_002"  >
<polygon points="308,140 327,140 332,135 327,130 308,130 308,140 " style="fill:#7715d8; stroke-width:1; stroke:black; " description="&lt;b&gt;A4V12_31635&lt;/b&gt;&lt;br&gt;non-ribosomal peptide synthetase&lt;br&gt;Location: 2829 - 4247&lt;br&gt;&lt;br&gt;&lt;b&gt;BlastP hit with HS041_27075&lt;/b&gt;&lt;br&gt;Percentage identity: 51&lt;br&gt;Percentage coverage: 109&lt;br&gt;BLAST bit score: 397&lt;br&gt;E-value: 1.58e-135" locus_tag="A4V12_31635" class="clusterblast-orf" id="knownclusterblast-1_all_1_2_2"  />
</g>
<g id="a1_003"  >
<polygon points="332,135 335,130 335,140 332,135 " style="fill:white; stroke-width:1; stroke:black; " description="&lt;b&gt;A4V12_31640&lt;/b&gt;&lt;br&gt;hypothetical protein&lt;br&gt;Location: 4240 - 4446" locus_tag="A4V12_31640" class="clusterblast-orf" id="knownclusterblast-1_all_1_2_3"  />
</g>
<g id="a1_004"  >
<polygon points="335,140 386,140 391,135 386,130 335,130 335,140 " style="fill:#d8a715; stroke-width:1; stroke:black; " description="&lt;b&gt;A4V12_31645&lt;/b&gt;&lt;br&gt;non-ribosomal peptide synthetase&lt;br&gt;Location: 4475 - 7834&lt;br&gt;&lt;br&gt;&lt;b&gt;BlastP hit with HS041_27080&lt;/b&gt;&lt;br&gt;Percentage identity: 65&lt;br&gt;Percentage coverage: 107&lt;br&gt;BLAST bit score: 1306&lt;br&gt;E-value: 0.0" locus_tag="A4V12_31645" class="clusterblast-orf" id="knownclusterblast-1_all_1_2_4"  />
</g>
<g id="a1_005"  >
<polygon points="391,140 418,140 423,135 418,130 391,130 391,140 " style="fill:#15d846; stroke-width:1; stroke:black; " description="&lt;b&gt;A4V12_31650&lt;/b&gt;&lt;br&gt;hypothetical protein&lt;br&gt;Location: 7834 - 9771&lt;br&gt;&lt;br&gt;&lt;b&gt;BlastP hit with HS041_27090&lt;/b&gt;&lt;br&gt;Percentage identity: 58&lt;br&gt;Percentage coverage: 98&lt;br&gt;BLAST bit score: 642&lt;br&gt;E-value: 4.64e-226" locus_tag="A4V12_31650" class="clusterblast-orf" id="knownclusterblast-1_all_1_2_5"  />
</g>
<g id="a1_006"  >
<polygon points="423,140 449,140 454,135 449,130 423,130 423,140 " style="fill:#1546d8; stroke-width:1; stroke:black; " description="&lt;b&gt;A4V12_31655&lt;/b&gt;&lt;br&gt;non-ribosomal peptide synthetase module&lt;br&gt;Location: 9773 - 11653&lt;br&gt;&lt;br&gt;&lt;b&gt;BlastP hit with HS041_27095&lt;/b&gt;&lt;br&gt;Percentage identity: 63&lt;br&gt;Percentage coverage: 99&lt;br&gt;BLAST bit score: 712&lt;br&gt;E-value: 2.75e-254" locus_tag="A4V12_31655" class="clusterblast-orf" id="knownclusterblast-1_all_1_2_6"  />
</g>
<g id="a1_007"  >
<polygon points="456,140 500,140 505,135 500,130 456,130 456,140 " style="fill:#d815a7; stroke-width:1; stroke:black; " description="&lt;b&gt;A4V12_31660&lt;/b&gt;&lt;br&gt;non-ribosomal peptide synthetase/polyketide synthase&lt;br&gt;Location: 11790 - 14732&lt;br&gt;&lt;br&gt;&lt;b&gt;BlastP hit with HS041_27100&lt;/b&gt;&lt;br&gt;Percentage identity: 50&lt;br&gt;Percentage coverage: 111&lt;br&gt;BLAST bit score: 773&lt;br&gt;E-value: 8.02e-269" locus_tag="A4V12_31660" class="clusterblast-orf" id="knownclusterblast-1_all_1_2_7"  />
</g>
<g id="a1_008"  >
<polygon points="510,140 512,140 517,135 512,130 510,130 510,140 " style="fill:white; stroke-width:1; stroke:black; " description="&lt;b&gt;A4V12_31665&lt;/b&gt;&lt;br&gt;regulator&lt;br&gt;Location: 15008 - 15484" locus_tag="A4V12_31665" class="clusterblast-orf" id="knownclusterblast-1_all_1_2_8"  />
</g>
<g label="BGC0002434" description="BGC0002434_c1: clifednamide D/clifednamide E/clifednamide F/clifednamide G/cl... (22% of genes show similarity), Polyketide+NRP" class="clusterblast-cluster"  >
<text x="5" y="170" class="clusterblast-acc"  >
<a xlink:href="https://mibig.secondarymetabolites.org/go/BGC0002434/1" target="_blank">BGC0002434</a>: clifednamide D/clifednamide E/clifednamide F/clifednamide G/clifednamide H/clifednamide I/clifednamide J (22% of genes show similarity), Polyketide+NRP</text>
<line x1="10" y1="185" x2="778.0" y2="185" style="stroke-width:1; stroke:grey; "  />
</g>
<g id="a1_000"  >
<polygon points="232,185 237,180 257,180 257,190 237,190 232,185 " style="fill:white; stroke-width:1; stroke:black; " description="&lt;b&gt;QWM97859.1&lt;/b&gt;&lt;br&gt;MFS transporter&lt;br&gt;Location: 1 - 1530" locus_tag="QWM97859.1" class="clusterblast-orf" id="knownclusterblast-1_all_1_3_0"  />
</g>
<g id="a1_001"  >
<polygon points="260,190 272,190 277,185 272,180 260,180 260,190 " style="fill:white; stroke-width:1; stroke:black; " description="&lt;b&gt;QWM97860.1&lt;/b&gt;&lt;br&gt;AsnC family transcriptional regulator&lt;br&gt;Location: 1668 - 2705" locus_tag="QWM97860.1" class="clusterblast-orf" id="knownclusterblast-1_all_1_3_1"  />
</g>
<g id="a1_002"  >
<polygon points="280,190 289,190 294,185 289,180 280,180 280,190 " style="fill:white; stroke-width:1; stroke:black; " description="&lt;b&gt;QWM97861.1&lt;/b&gt;&lt;br&gt;fatty acid hydroxylase family protein&lt;br&gt;Location: 2886 - 3764" locus_tag="QWM97861.1" class="clusterblast-orf" id="knownclusterblast-1_all_1_3_2"  />
</g>
<g id="a1_003"  >
<polygon points="298,190 451,190 456,185 451,180 298,180 298,190 " style="fill:white; stroke-width:1; stroke:black; " description="&lt;b&gt;QWM97862.1&lt;/b&gt;&lt;br&gt;hybrid non-ribosomal peptide synthetase/type I polyketide synthase&lt;br&gt;Location: 3998 - 13540" locus_tag="QWM97862.1" class="clusterblast-orf" id="knownclusterblast-1_all_1_3_3"  />
</g>
<g id="a1_004"  >
<polygon points="456,190 471,190 476,185 471,180 456,180 456,190 " style="fill:white; stroke-width:1; stroke:black; " description="&lt;b&gt;QWM97863.1&lt;/b&gt;&lt;br&gt;cytochrome P450&lt;br&gt;Location: 13530 - 14789" locus_tag="QWM97863.1" class="clusterblast-orf" id="knownclusterblast-1_all_1_3_4"  />
</g>
<g id="a1_005"  >
<polygon points="478,190 503,190 508,185 503,180 478,180 478,190 " style="fill:white; stroke-width:1; stroke:black; " description="&lt;b&gt;QWM97864.1&lt;/b&gt;&lt;br&gt;NAD(P)/FAD-dependent oxidoreductase&lt;br&gt;Location: 14876 - 16702" locus_tag="QWM97864.1" class="clusterblast-orf" id="knownclusterblast-1_all_1_3_5"  />
</g>
<g id="a1_006"  >
<polygon points="508,190 521,190 526,185 521,180 508,180 508,190 " style="fill:white; stroke-width:1; stroke:black; " description="&lt;b&gt;QWM97865.1&lt;/b&gt;&lt;br&gt;NADP-dependent oxidoreductase&lt;br&gt;Location: 16699 - 17757" locus_tag="QWM97865.1" class="clusterblast-orf" id="knownclusterblast-1_all_1_3_6"  />
</g>
<g id="a1_007"  >
<polygon points="527,185 532,180 536,180 536,190 532,190 527,185 " style="fill:#d81515; stroke-width:1; stroke:black; " description="&lt;b&gt;QWM97866.1&lt;/b&gt;&lt;br&gt;TrmH family RNA methyltransferase&lt;br&gt;Location: 17836 - 18417&lt;br&gt;&lt;br&gt;&lt;b&gt;BlastP hit with HS041_27015&lt;/b&gt;&lt;br&gt;Percentage identity: 49&lt;br&gt;Percentage coverage: 91&lt;br&gt;BLAST bit score: 160&lt;br&gt;E-value: 6.51e-50" locus_tag="QWM97866.1" class="clusterblast-orf" id="knownclusterblast-1_all_1_3_7"  />
</g>
<g id="a1_008"  >
<polygon points="536,185 541,180 547,180 547,190 541,190 536,185 " style="fill:#77d815; stroke-width:1; stroke:black; " description="&lt;b&gt;QWM97867.1&lt;/b&gt;&lt;br&gt;methyltransferase domain-containing protein&lt;br&gt;Location: 18414 - 19058&lt;br&gt;&lt;br&gt;&lt;b&gt;BlastP hit with HS041_27020&lt;/b&gt;&lt;br&gt;Percentage identity: 62&lt;br&gt;Percentage coverage: 98&lt;br&gt;BLAST bit score: 246&lt;br&gt;E-value: 2.27e-83" locus_tag="QWM97867.1" class="clusterblast-orf" id="knownclusterblast-1_all_1_3_8"  />
</g>
</svg>
