<svg xmlns="http://www.w3.org/2000/svg" xmlns:xlink="http://www.w3.org/1999/xlink" version="1.1" x="0" y="0" height="230" width="800" viewBox="0 0 800 230" preserveAspectRatio="none"  >
<g label="Query sequence" class="clusterblast-cluster"  >
<text x="5" y="20" class="clusterblast-acc"  >
Query sequence</text>
<line x1="10" y1="35" x2="778.0" y2="35" style="stroke-width:1; stroke:grey; "  />
<polygon points="319,40 319,40 324,35 319,30 319,30 319,40 " style="fill:#d81515; stroke-width:1; stroke:black; " description="&lt;b&gt;HS041_25690&lt;/b&gt;&lt;br&gt;glycogen synthase&lt;br&gt;Location: 917462 - 918650" locus_tag="HS041_25690" class="clusterblast-orf" id="dummy-4_q0_0_all"  />
<polygon points="324,35 328,30 328,40 324,35 " style="fill:white; stroke-width:1; stroke:black; " description="&lt;b&gt;HS041_25695&lt;/b&gt;&lt;br&gt;hypothetical protein&lt;br&gt;Location: 918724 - 919570" locus_tag="HS041_25695" class="clusterblast-orf" id="dummy-4_q1_0_all"  />
<polygon points="329,35 332,30 332,40 329,35 " style="fill:white; stroke-width:1; stroke:black; " description="&lt;b&gt;HS041_25700&lt;/b&gt;&lt;br&gt;GNAT family N-acetyltransferase&lt;br&gt;Location: 919772 - 920330" locus_tag="HS041_25700" class="clusterblast-orf" id="dummy-4_q2_0_all"  />
<polygon points="333,35 338,30 339,30 339,40 338,40 333,35 " style="fill:#15d863; stroke-width:1; stroke:black; " description="&lt;b&gt;HS041_25705&lt;/b&gt;&lt;br&gt;MHS family MFS transporter&lt;br&gt;Location: 920571 - 921921" locus_tag="HS041_25705" class="clusterblast-orf" id="dummy-4_q3_0_all"  />
<polygon points="339,40 342,35 339,30 339,40 " style="fill:white; stroke-width:1; stroke:black; " description="&lt;b&gt;HS041_25710&lt;/b&gt;&lt;br&gt;GntR family transcriptional regulator&lt;br&gt;Location: 921973 - 922660" locus_tag="HS041_25710" class="clusterblast-orf" id="dummy-4_q4_0_all"  />
<polygon points="342,40 343,40 348,35 343,30 342,30 342,40 " style="fill:white; stroke-width:1; stroke:black; " description="&lt;b&gt;HS041_25715&lt;/b&gt;&lt;br&gt;alpha/beta hydrolase fold domain-containing protein&lt;br&gt;Location: 922737 - 923937" locus_tag="HS041_25715" class="clusterblast-orf" id="dummy-4_q5_0_all"  />
<polygon points="348,35 350,30 350,40 348,35 " style="fill:white; stroke-width:1; stroke:black; " description="&lt;b&gt;HS041_25720&lt;/b&gt;&lt;br&gt;Lrp/AsnC family transcriptional regulator&lt;br&gt;Location: 923998 - 924433" locus_tag="HS041_25720" class="clusterblast-orf" id="dummy-4_q6_0_all"  />
<polygon points="351,40 354,35 351,30 351,40 " style="fill:white; stroke-width:1; stroke:black; " description="&lt;b&gt;HS041_25725&lt;/b&gt;&lt;br&gt;tryptophan 2,3-dioxygenase&lt;br&gt;Location: 924589 - 925435" locus_tag="HS041_25725" class="clusterblast-orf" id="dummy-4_q7_0_all"  />
<polygon points="355,40 356,40 361,35 356,30 355,30 355,40 " style="fill:white; stroke-width:1; stroke:black; " description="&lt;b&gt;HS041_25730&lt;/b&gt;&lt;br&gt;FAD-dependent monooxygenase&lt;br&gt;Location: 925493 - 926867" locus_tag="HS041_25730" class="clusterblast-orf" id="dummy-4_q8_0_all"  />
<polygon points="361,35 365,30 365,40 361,35 " style="fill:#1563d8; stroke-width:1; stroke:black; " description="&lt;b&gt;HS041_25735&lt;/b&gt;&lt;br&gt;LysR family transcriptional regulator&lt;br&gt;Location: 926909 - 927860" locus_tag="HS041_25735" class="clusterblast-orf" id="dummy-4_q9_0_all"  />
<polygon points="365,40 369,35 365,30 365,40 " style="fill:#b115d8; stroke-width:1; stroke:black; " description="&lt;b&gt;HS041_25740&lt;/b&gt;&lt;br&gt;dihydrodipicolinate synthase family protein&lt;br&gt;Location: 927931 - 928798" locus_tag="HS041_25740" class="clusterblast-orf" id="dummy-4_q10_0_all"  />
<polygon points="369,35 373,30 373,40 369,35 " style="fill:white; stroke-width:1; stroke:black; " description="&lt;b&gt;HS041_25745&lt;/b&gt;&lt;br&gt;Fpg/Nei family DNA glycosylase&lt;br&gt;Location: 928834 - 929644" locus_tag="HS041_25745" class="clusterblast-orf" id="dummy-4_q11_0_all"  />
<polygon points="373,35 375,30 375,40 373,35 " style="fill:white; stroke-width:1; stroke:black; " description="&lt;b&gt;HS041_25750&lt;/b&gt;&lt;br&gt;DUF2809 domain-containing protein&lt;br&gt;Location: 929652 - 930153" locus_tag="HS041_25750" class="clusterblast-orf" id="dummy-4_q12_0_all"  />
<polygon points="376,35 381,30 382,30 382,40 381,40 376,35 " style="fill:white; stroke-width:1; stroke:black; " description="&lt;b&gt;HS041_25755&lt;/b&gt;&lt;br&gt;M1 family metallopeptidase&lt;br&gt;Location: 930315 - 931635" locus_tag="HS041_25755" class="clusterblast-orf" id="dummy-4_q13_0_all"  />
<polygon points="382,35 387,30 399,30 399,40 387,40 382,35 " style="fill:#b1d815; stroke-width:1; stroke:black; " description="&lt;b&gt;HS041_25760&lt;/b&gt;&lt;br&gt;amino acid adenylation domain-containing protein&lt;br&gt;Location: 931607 - 935510" locus_tag="HS041_25760" class="clusterblast-orf" id="dummy-4_q14_0_all"  />
<polygon points="400,40 402,35 400,30 400,40 " style="fill:white; stroke-width:1; stroke:black; " description="&lt;b&gt;HS041_25765&lt;/b&gt;&lt;br&gt;STAS domain-containing protein&lt;br&gt;Location: 935786 - 936236" locus_tag="HS041_25765" class="clusterblast-orf" id="dummy-4_q15_0_all"  />
<polygon points="403,35 406,30 406,40 403,35 " style="fill:white; stroke-width:1; stroke:black; " description="&lt;b&gt;HS041_25770&lt;/b&gt;&lt;br&gt;hypothetical protein&lt;br&gt;Location: 936256 - 937105" locus_tag="HS041_25770" class="clusterblast-orf" id="dummy-4_q16_0_all"  />
<polygon points="408,40 410,35 408,30 408,40 " style="fill:white; stroke-width:1; stroke:black; " description="&lt;b&gt;HS041_25775&lt;/b&gt;&lt;br&gt;DUF1772 domain-containing protein&lt;br&gt;Location: 937404 - 937878" locus_tag="HS041_25775" class="clusterblast-orf" id="dummy-4_q17_0_all"  />
<polygon points="410,40 414,35 410,30 410,40 " style="fill:white; stroke-width:1; stroke:black; " description="&lt;b&gt;HS041_25780&lt;/b&gt;&lt;br&gt;alpha/beta hydrolase&lt;br&gt;Location: 937874 - 938897" locus_tag="HS041_25780" class="clusterblast-orf" id="dummy-4_q18_0_all"  />
<polygon points="415,35 417,30 417,40 415,35 " style="fill:white; stroke-width:1; stroke:black; " description="&lt;b&gt;HS041_25785&lt;/b&gt;&lt;br&gt;DUF4291 domain-containing protein&lt;br&gt;Location: 938987 - 939608" locus_tag="HS041_25785" class="clusterblast-orf" id="dummy-4_q19_0_all"  />
<polygon points="418,35 423,30 423,30 423,40 423,40 418,35 " style="fill:white; stroke-width:1; stroke:black; " description="&lt;b&gt;HS041_25790&lt;/b&gt;&lt;br&gt;cytochrome P450&lt;br&gt;Location: 939660 - 940893" locus_tag="HS041_25790" class="clusterblast-orf" id="dummy-4_q20_0_all"  />
<polygon points="423,40 426,35 423,30 423,40 " style="fill:white; stroke-width:1; stroke:black; " description="&lt;b&gt;HS041_25795&lt;/b&gt;&lt;br&gt;hypothetical protein&lt;br&gt;Location: 940964 - 941510" locus_tag="HS041_25795" class="clusterblast-orf" id="dummy-4_q21_0_all"  />
<polygon points="426,35 430,30 430,40 426,35 " style="fill:white; stroke-width:1; stroke:black; " description="&lt;b&gt;HS041_25800&lt;/b&gt;&lt;br&gt;SDR family oxidoreductase&lt;br&gt;Location: 941527 - 942322" locus_tag="HS041_25800" class="clusterblast-orf" id="dummy-4_q22_0_all"  />
<polygon points="430,40 433,35 430,30 430,40 " style="fill:white; stroke-width:1; stroke:black; " description="&lt;b&gt;HS041_25805&lt;/b&gt;&lt;br&gt;hypothetical protein&lt;br&gt;Location: 942534 - 943185" locus_tag="HS041_25805" class="clusterblast-orf" id="dummy-4_q23_0_all"  />
<polygon points="434,35 435,30 435,40 434,35 " style="fill:white; stroke-width:1; stroke:black; " description="&lt;b&gt;HS041_25810&lt;/b&gt;&lt;br&gt;nuclear transport factor 2 family protein&lt;br&gt;Location: 943265 - 943625" locus_tag="HS041_25810" class="clusterblast-orf" id="dummy-4_q24_0_all"  />
<polygon points="439,40 439,40 444,35 439,30 439,30 439,40 " style="fill:white; stroke-width:1; stroke:black; " description="&lt;b&gt;HS041_25825&lt;/b&gt;&lt;br&gt;tRNA dihydrouridine synthase DusB&lt;br&gt;Location: 944405 - 945527" locus_tag="HS041_25825" class="clusterblast-orf" id="dummy-4_q25_0_all"  />
<polygon points="444,40 448,40 453,35 448,30 444,30 444,40 " style="fill:white; stroke-width:1; stroke:black; " description="&lt;b&gt;HS041_25830&lt;/b&gt;&lt;br&gt;TRAP transporter fused permease subunit&lt;br&gt;Location: 945655 - 947650" locus_tag="HS041_25830" class="clusterblast-orf" id="dummy-4_q26_0_all"  />
<polygon points="453,40 453,40 458,35 453,30 453,30 453,40 " style="fill:white; stroke-width:1; stroke:black; " description="&lt;b&gt;HS041_25835&lt;/b&gt;&lt;br&gt;TAXI family TRAP transporter solute-binding subunit&lt;br&gt;Location: 947646 - 948612" locus_tag="HS041_25835" class="clusterblast-orf" id="dummy-4_q27_0_all"  />
<polygon points="458,35 460,30 460,40 458,35 " style="fill:white; stroke-width:1; stroke:black; " description="&lt;b&gt;HS041_25840&lt;/b&gt;&lt;br&gt;DUF2087 domain-containing protein&lt;br&gt;Location: 948650 - 949223" locus_tag="HS041_25840" class="clusterblast-orf" id="dummy-4_q28_0_all"  />
</g>
<g label="BGC0002523" description="BGC0002523_c1: desertomycin B/desertomycin A/desertomycin G (3% of genes show similarity), NRP" class="clusterblast-cluster"  >
<text x="5" y="70" class="clusterblast-acc"  >
<a xlink:href="https://mibig.secondarymetabolites.org/go/BGC0002523/1" target="_blank">BGC0002523</a>: desertomycin B/desertomycin A/desertomycin G                                     (3% of genes show similarity), NRP</text>
<line x1="10" y1="85" x2="778.0" y2="85" style="stroke-width:1; stroke:grey; "  />
</g>
<g id="a4_000"  >
<polygon points="0,85 4,80 4,90 0,85 " style="fill:white; stroke-width:1; stroke:black; " description="&lt;b&gt;BCB17005.1&lt;/b&gt;&lt;br&gt;putative transcriptional regulator&lt;br&gt;Location: 4375 - 5397" locus_tag="BCB17005.1" class="clusterblast-orf" id="dummy-4_h4_3_0"  />
</g>
<g id="a4_001"  >
<polygon points="6,90 8,85 6,80 6,90 " style="fill:white; stroke-width:1; stroke:black; " description="&lt;b&gt;BCB17006.1&lt;/b&gt;&lt;br&gt;putative polyhydroxybutyratedepolymerase&lt;br&gt;Location: 5752 - 6237" locus_tag="BCB17006.1" class="clusterblast-orf" id="dummy-4_h4_3_1"  />
</g>
<g id="a4_002"  >
<polygon points="14,90 17,85 14,80 14,90 " style="fill:white; stroke-width:1; stroke:black; " description="&lt;b&gt;BCB17007.1&lt;/b&gt;&lt;br&gt;putative 3-hydroxybutyrate dehydrogenase&lt;br&gt;Location: 7592 - 8386" locus_tag="BCB17007.1" class="clusterblast-orf" id="dummy-4_h4_3_2"  />
</g>
<g id="a4_003"  >
<polygon points="18,90 19,90 24,85 19,80 18,80 18,90 " style="fill:#15d863; stroke-width:1; stroke:black; " description="&lt;b&gt;BCB17008.1&lt;/b&gt;&lt;br&gt;putative permease of the major facilitator superfamily&lt;br&gt;Location: 8442 - 9818&lt;br&gt;&lt;br&gt;&lt;b&gt;BlastP hit with HS041_25705&lt;/b&gt;&lt;br&gt;Percentage identity: 59&lt;br&gt;Percentage coverage: 94&lt;br&gt;BLAST bit score: 470&lt;br&gt;E-value: 8.46e-164" locus_tag="BCB17008.1" class="clusterblast-orf" id="dummy-4_h4_3_3"  />
</g>
<g id="a4_004"  >
<polygon points="24,90 28,90 33,85 28,80 24,80 24,90 " style="fill:white; stroke-width:1; stroke:black; " description="&lt;b&gt;BCB17009.1&lt;/b&gt;&lt;br&gt;conserved hypothetical protein&lt;br&gt;Location: 9879 - 11918" locus_tag="BCB17009.1" class="clusterblast-orf" id="dummy-4_h4_3_4"  />
</g>
<g id="a4_005"  >
<polygon points="33,85 38,80 42,80 42,90 38,90 33,85 " style="fill:white; stroke-width:1; stroke:black; " description="&lt;b&gt;BCB17010.1&lt;/b&gt;&lt;br&gt;putative ABC transporter ATP-binding protein&lt;br&gt;Location: 11830 - 13854" locus_tag="BCB17010.1" class="clusterblast-orf" id="dummy-4_h4_3_5"  />
</g>
<g id="a4_006"  >
<polygon points="43,85 45,80 45,90 43,85 " style="fill:white; stroke-width:1; stroke:black; " description="&lt;b&gt;BCB17011.1&lt;/b&gt;&lt;br&gt;hypothetical protein&lt;br&gt;Location: 14132 - 14650" locus_tag="BCB17011.1" class="clusterblast-orf" id="dummy-4_h4_3_6"  />
</g>
<g id="a4_007"  >
<polygon points="45,90 46,90 51,85 46,80 45,80 45,90 " style="fill:white; stroke-width:1; stroke:black; " description="&lt;b&gt;BCB17012.1&lt;/b&gt;&lt;br&gt;hypothetical protein&lt;br&gt;Location: 14677 - 16002" locus_tag="BCB17012.1" class="clusterblast-orf" id="dummy-4_h4_3_7"  />
</g>
<g id="a4_008"  >
<polygon points="51,85 56,80 56,80 56,90 56,90 51,85 " style="fill:white; stroke-width:1; stroke:black; " description="&lt;b&gt;BCB17013.1&lt;/b&gt;&lt;br&gt;putative dehydrogenase&lt;br&gt;Location: 16006 - 17139" locus_tag="BCB17013.1" class="clusterblast-orf" id="dummy-4_h4_3_8"  />
</g>
<g id="a4_009"  >
<polygon points="57,90 60,85 57,80 57,90 " style="fill:white; stroke-width:1; stroke:black; " description="&lt;b&gt;BCB17014.1&lt;/b&gt;&lt;br&gt;putative TetR-family transcriptional regulator&lt;br&gt;Location: 17292 - 18017" locus_tag="BCB17014.1" class="clusterblast-orf" id="dummy-4_h4_3_9"  />
</g>
<g id="a4_0010"  >
<polygon points="61,90 65,85 61,80 61,90 " style="fill:white; stroke-width:1; stroke:black; " description="&lt;b&gt;BCB17015.1&lt;/b&gt;&lt;br&gt;putative acetyltransferase&lt;br&gt;Location: 18137 - 18994" locus_tag="BCB17015.1" class="clusterblast-orf" id="dummy-4_h4_3_10"  />
</g>
<g id="a4_0011"  >
<polygon points="65,85 70,80 75,80 75,90 70,90 65,85 " style="fill:white; stroke-width:1; stroke:black; " description="&lt;b&gt;BCB17016.1&lt;/b&gt;&lt;br&gt;beta-glucosidase&lt;br&gt;Location: 19035 - 21383" locus_tag="BCB17016.1" class="clusterblast-orf" id="dummy-4_h4_3_11"  />
</g>
<g id="a4_0012"  >
<polygon points="76,90 80,90 85,85 80,80 76,80 76,90 " style="fill:white; stroke-width:1; stroke:black; " description="&lt;b&gt;BCB17017.1&lt;/b&gt;&lt;br&gt;putative ABC transporter ATP-binding protein&lt;br&gt;Location: 21566 - 23482" locus_tag="BCB17017.1" class="clusterblast-orf" id="dummy-4_h4_3_12"  />
</g>
<g id="a4_0013"  >
<polygon points="85,90 88,85 85,80 85,90 " style="fill:white; stroke-width:1; stroke:black; " description="&lt;b&gt;BCB17018.1&lt;/b&gt;&lt;br&gt;conserved hypothetical protein&lt;br&gt;Location: 23676 - 24251" locus_tag="BCB17018.1" class="clusterblast-orf" id="dummy-4_h4_3_13"  />
</g>
<g id="a4_0014"  >
<polygon points="88,85 91,80 91,90 88,85 " style="fill:white; stroke-width:1; stroke:black; " description="&lt;b&gt;BCB17019.1&lt;/b&gt;&lt;br&gt;putative phosphopantetheinyltransferase&lt;br&gt;Location: 24223 - 25026" locus_tag="BCB17019.1" class="clusterblast-orf" id="dummy-4_h4_3_14"  />
</g>
<g id="a4_0015"  >
<polygon points="91,85 96,80 97,80 97,90 96,90 91,85 " style="fill:white; stroke-width:1; stroke:black; " description="&lt;b&gt;BCB17020.1&lt;/b&gt;&lt;br&gt;putative dolichol-phosphate mannosyltransferase&lt;br&gt;Location: 25023 - 26258" locus_tag="BCB17020.1" class="clusterblast-orf" id="dummy-4_h4_3_15"  />
</g>
<g id="a4_0016"  >
<polygon points="102,90 110,90 115,85 110,80 102,80 102,90 " style="fill:white; stroke-width:1; stroke:black; " description="&lt;b&gt;BCB17021.1&lt;/b&gt;&lt;br&gt;LuxR-family transcriptional&lt;br&gt;Location: 27487 - 30324" locus_tag="BCB17021.1" class="clusterblast-orf" id="dummy-4_h4_3_16"  />
</g>
<g id="a4_0017"  >
<polygon points="115,85 119,80 119,90 115,85 " style="fill:white; stroke-width:1; stroke:black; " description="&lt;b&gt;BCB17022.1&lt;/b&gt;&lt;br&gt;putative ABC transporter protein&lt;br&gt;Location: 30393 - 31151" locus_tag="BCB17022.1" class="clusterblast-orf" id="dummy-4_h4_3_17"  />
</g>
<g id="a4_0018"  >
<polygon points="121,90 123,90 128,85 123,80 121,80 121,90 " style="fill:white; stroke-width:1; stroke:black; " description="&lt;b&gt;BCB17023.1&lt;/b&gt;&lt;br&gt;putative amine monooxygenase&lt;br&gt;Location: 31613 - 33292" locus_tag="BCB17023.1" class="clusterblast-orf" id="dummy-4_h4_3_18"  />
</g>
<g id="a4_0019"  >
<polygon points="129,85 133,80 133,90 129,85 " style="fill:white; stroke-width:1; stroke:black; " description="&lt;b&gt;BCB17024.1&lt;/b&gt;&lt;br&gt;putative ABC transporter protein&lt;br&gt;Location: 33411 - 34268" locus_tag="BCB17024.1" class="clusterblast-orf" id="dummy-4_h4_3_19"  />
</g>
<g id="a4_0020"  >
<polygon points="133,85 137,80 137,90 133,85 " style="fill:white; stroke-width:1; stroke:black; " description="&lt;b&gt;BCB17025.1&lt;/b&gt;&lt;br&gt;putative ABC transporter protein&lt;br&gt;Location: 34265 - 35209" locus_tag="BCB17025.1" class="clusterblast-orf" id="dummy-4_h4_3_20"  />
</g>
<g id="a4_0021"  >
<polygon points="138,90 203,90 208,85 203,80 138,80 138,90 " style="fill:white; stroke-width:1; stroke:black; " description="&lt;b&gt;BCB17026.1&lt;/b&gt;&lt;br&gt;modular polyketide synthase&lt;br&gt;Location: 35490 - 51197" locus_tag="BCB17026.1" class="clusterblast-orf" id="dummy-4_h4_3_21"  />
</g>
<g id="a4_0022"  >
<polygon points="209,90 248,90 253,85 248,80 209,80 209,90 " style="fill:white; stroke-width:1; stroke:black; " description="&lt;b&gt;BCB17027.1&lt;/b&gt;&lt;br&gt;modular polyketide synthase&lt;br&gt;Location: 51367 - 61269" locus_tag="BCB17027.1" class="clusterblast-orf" id="dummy-4_h4_3_22"  />
</g>
<g id="a4_0023"  >
<polygon points="253,90 316,90 321,85 316,80 253,80 253,90 " style="fill:white; stroke-width:1; stroke:black; " description="&lt;b&gt;BCB17028.1&lt;/b&gt;&lt;br&gt;modular polyketide synthase&lt;br&gt;Location: 61341 - 76583" locus_tag="BCB17028.1" class="clusterblast-orf" id="dummy-4_h4_3_23"  />
</g>
<g id="a4_0024"  >
<polygon points="321,90 381,90 386,85 381,80 321,80 321,90 " style="fill:white; stroke-width:1; stroke:black; " description="&lt;b&gt;BCB17029.1&lt;/b&gt;&lt;br&gt;modular polyketide synthase&lt;br&gt;Location: 76705 - 91119" locus_tag="BCB17029.1" class="clusterblast-orf" id="dummy-4_h4_3_24"  />
</g>
<g id="a4_0025"  >
<polygon points="387,90 452,90 457,85 452,80 387,80 387,90 " style="fill:white; stroke-width:1; stroke:black; " description="&lt;b&gt;BCB17030.1&lt;/b&gt;&lt;br&gt;modular polyketide synthase&lt;br&gt;Location: 91383 - 107243" locus_tag="BCB17030.1" class="clusterblast-orf" id="dummy-4_h4_3_25"  />
</g>
<g id="a4_0026"  >
<polygon points="457,90 498,90 503,85 498,80 457,80 457,90 " style="fill:white; stroke-width:1; stroke:black; " description="&lt;b&gt;BCB17031.1&lt;/b&gt;&lt;br&gt;modular polyketide synthase&lt;br&gt;Location: 107244 - 117587" locus_tag="BCB17031.1" class="clusterblast-orf" id="dummy-4_h4_3_26"  />
</g>
<g id="a4_0027"  >
<polygon points="504,90 571,90 576,85 571,80 504,80 504,90 " style="fill:white; stroke-width:1; stroke:black; " description="&lt;b&gt;BCB17032.1&lt;/b&gt;&lt;br&gt;modular polyketide synthase&lt;br&gt;Location: 117740 - 133936" locus_tag="BCB17032.1" class="clusterblast-orf" id="dummy-4_h4_3_27"  />
</g>
<g id="a4_0028"  >
<polygon points="577,90 629,90 634,85 629,80 577,80 577,90 " style="fill:white; stroke-width:1; stroke:black; " description="&lt;b&gt;BCB17033.1&lt;/b&gt;&lt;br&gt;modular polyketide synthase&lt;br&gt;Location: 134024 - 146830" locus_tag="BCB17033.1" class="clusterblast-orf" id="dummy-4_h4_3_28"  />
</g>
<g id="a4_0029"  >
<polygon points="634,85 639,80 641,80 641,90 639,90 634,85 " style="fill:white; stroke-width:1; stroke:black; " description="&lt;b&gt;BCB17034.1&lt;/b&gt;&lt;br&gt;putative glycosyl transferase&lt;br&gt;Location: 146936 - 148558" locus_tag="BCB17034.1" class="clusterblast-orf" id="dummy-4_h4_3_29"  />
</g>
<g id="a4_0030"  >
<polygon points="642,90 644,90 649,85 644,80 642,80 642,90 " style="fill:white; stroke-width:1; stroke:black; " description="&lt;b&gt;BCB17035.1&lt;/b&gt;&lt;br&gt;acyl-CoA ligase&lt;br&gt;Location: 148820 - 150256" locus_tag="BCB17035.1" class="clusterblast-orf" id="dummy-4_h4_3_30"  />
</g>
<g id="a4_0031"  >
<polygon points="650,90 654,85 650,80 650,90 " style="fill:white; stroke-width:1; stroke:black; " description="&lt;b&gt;BCB17036.1&lt;/b&gt;&lt;br&gt;acyltransferase&lt;br&gt;Location: 150401 - 151402" locus_tag="BCB17036.1" class="clusterblast-orf" id="dummy-4_h4_3_31"  />
</g>
<g id="a4_0032"  >
<polygon points="654,90 655,90 660,85 655,80 654,80 654,90 " style="fill:white; stroke-width:1; stroke:black; " description="&lt;b&gt;BCB17037.1&lt;/b&gt;&lt;br&gt;putative cytochrome P450&lt;br&gt;Location: 151402 - 152673" locus_tag="BCB17037.1" class="clusterblast-orf" id="dummy-4_h4_3_32"  />
</g>
<g id="a4_0033"  >
<polygon points="660,90 660,90 665,85 660,80 660,80 660,90 " style="fill:white; stroke-width:1; stroke:black; " description="&lt;b&gt;BCB17038.1&lt;/b&gt;&lt;br&gt;putative agmatinase&lt;br&gt;Location: 152723 - 153841" locus_tag="BCB17038.1" class="clusterblast-orf" id="dummy-4_h4_3_33"  />
</g>
<g id="a4_0034"  >
<polygon points="665,90 669,85 665,80 665,90 " style="fill:white; stroke-width:1; stroke:black; " description="&lt;b&gt;BCB17039.1&lt;/b&gt;&lt;br&gt;typeII thioesterase&lt;br&gt;Location: 153957 - 154706" locus_tag="BCB17039.1" class="clusterblast-orf" id="dummy-4_h4_3_34"  />
</g>
<g id="a4_0035"  >
<polygon points="670,85 671,80 671,90 670,85 " style="fill:white; stroke-width:1; stroke:black; " description="&lt;b&gt;BCB17040.1&lt;/b&gt;&lt;br&gt;hypothetical protein&lt;br&gt;Location: 154947 - 155147" locus_tag="BCB17040.1" class="clusterblast-orf" id="dummy-4_h4_3_35"  />
</g>
<g id="a4_0036"  >
<polygon points="672,90 673,90 678,85 673,80 672,80 672,90 " style="fill:white; stroke-width:1; stroke:black; " description="&lt;b&gt;BCB17041.1&lt;/b&gt;&lt;br&gt;sensor protein&lt;br&gt;Location: 155472 - 156815" locus_tag="BCB17041.1" class="clusterblast-orf" id="dummy-4_h4_3_36"  />
</g>
<g id="a4_0037"  >
<polygon points="682,85 687,80 687,80 687,90 687,90 682,85 " style="fill:white; stroke-width:1; stroke:black; " description="&lt;b&gt;BCB17042.1&lt;/b&gt;&lt;br&gt;hypothetical protein&lt;br&gt;Location: 157676 - 158935" locus_tag="BCB17042.1" class="clusterblast-orf" id="dummy-4_h4_3_37"  />
</g>
<g id="a4_0038"  >
<polygon points="689,90 691,85 689,80 689,90 " style="fill:white; stroke-width:1; stroke:black; " description="&lt;b&gt;BCB17043.1&lt;/b&gt;&lt;br&gt;putative membrane protein&lt;br&gt;Location: 159165 - 159704" locus_tag="BCB17043.1" class="clusterblast-orf" id="dummy-4_h4_3_38"  />
</g>
<g id="a4_0039"  >
<polygon points="691,90 693,90 698,85 693,80 691,80 691,90 " style="fill:white; stroke-width:1; stroke:black; " description="&lt;b&gt;BCB17044.1&lt;/b&gt;&lt;br&gt;putative membrane protein&lt;br&gt;Location: 159701 - 161272" locus_tag="BCB17044.1" class="clusterblast-orf" id="dummy-4_h4_3_39"  />
</g>
<g id="a4_0040"  >
<polygon points="698,90 703,90 708,85 703,80 698,80 698,90 " style="fill:white; stroke-width:1; stroke:black; " description="&lt;b&gt;BCB17045.1&lt;/b&gt;&lt;br&gt;putative membrane protein&lt;br&gt;Location: 161389 - 163578" locus_tag="BCB17045.1" class="clusterblast-orf" id="dummy-4_h4_3_40"  />
</g>
<g id="a4_0041"  >
<polygon points="709,85 710,80 710,90 709,85 " style="fill:white; stroke-width:1; stroke:black; " description="&lt;b&gt;BCB17046.1&lt;/b&gt;&lt;br&gt;hypothetical protein&lt;br&gt;Location: 163694 - 163969" locus_tag="BCB17046.1" class="clusterblast-orf" id="dummy-4_h4_3_41"  />
</g>
<g id="a4_0042"  >
<polygon points="710,85 714,80 714,90 710,85 " style="fill:white; stroke-width:1; stroke:black; " description="&lt;b&gt;BCB17047.1&lt;/b&gt;&lt;br&gt;hypothetical protein&lt;br&gt;Location: 164077 - 164805" locus_tag="BCB17047.1" class="clusterblast-orf" id="dummy-4_h4_3_42"  />
</g>
<g id="a4_0043"  >
<polygon points="714,90 716,90 721,85 716,80 714,80 714,90 " style="fill:white; stroke-width:1; stroke:black; " description="&lt;b&gt;BCB17048.1&lt;/b&gt;&lt;br&gt;hypothetical protein&lt;br&gt;Location: 164959 - 166503" locus_tag="BCB17048.1" class="clusterblast-orf" id="dummy-4_h4_3_43"  />
</g>
<g id="a4_0044"  >
<polygon points="722,90 724,85 722,80 722,90 " style="fill:white; stroke-width:1; stroke:black; " description="&lt;b&gt;BCB17049.1&lt;/b&gt;&lt;br&gt;DNA-binding protein&lt;br&gt;Location: 166652 - 167080" locus_tag="BCB17049.1" class="clusterblast-orf" id="dummy-4_h4_3_44"  />
</g>
<g id="a4_0045"  >
<polygon points="724,90 727,85 724,80 724,90 " style="fill:white; stroke-width:1; stroke:black; " description="&lt;b&gt;BCB17050.1&lt;/b&gt;&lt;br&gt;hypothetical protein&lt;br&gt;Location: 167124 - 167804" locus_tag="BCB17050.1" class="clusterblast-orf" id="dummy-4_h4_3_45"  />
</g>
<g id="a4_0046"  >
<polygon points="727,90 729,85 727,80 727,90 " style="fill:white; stroke-width:1; stroke:black; " description="&lt;b&gt;BCB17051.1&lt;/b&gt;&lt;br&gt;hypothetical protein&lt;br&gt;Location: 167860 - 168279" locus_tag="BCB17051.1" class="clusterblast-orf" id="dummy-4_h4_3_46"  />
</g>
<g id="a4_0047"  >
<polygon points="731,85 736,80 738,80 738,90 736,90 731,85 " style="fill:white; stroke-width:1; stroke:black; " description="&lt;b&gt;BCB17052.1&lt;/b&gt;&lt;br&gt;putative 6-phosphogluconate dehydrogenase&lt;br&gt;Location: 168763 - 170202" locus_tag="BCB17052.1" class="clusterblast-orf" id="dummy-4_h4_3_47"  />
</g>
<g id="a4_0048"  >
<polygon points="738,90 742,85 738,80 738,90 " style="fill:white; stroke-width:1; stroke:black; " description="&lt;b&gt;BCB17053.1&lt;/b&gt;&lt;br&gt;putative acetyl xylan esterase&lt;br&gt;Location: 170312 - 171286" locus_tag="BCB17053.1" class="clusterblast-orf" id="dummy-4_h4_3_48"  />
</g>
<g id="a4_0049"  >
<polygon points="743,90 744,90 749,85 744,80 743,80 743,90 " style="fill:white; stroke-width:1; stroke:black; " description="&lt;b&gt;BCB17054.1&lt;/b&gt;&lt;br&gt;putative zoocin A&lt;br&gt;Location: 171448 - 172767" locus_tag="BCB17054.1" class="clusterblast-orf" id="dummy-4_h4_3_49"  />
</g>
<g id="a4_0050"  >
<polygon points="750,85 755,80 755,80 755,90 755,90 750,85 " style="fill:white; stroke-width:1; stroke:black; " description="&lt;b&gt;BCB17055.1&lt;/b&gt;&lt;br&gt;putative secreted protein&lt;br&gt;Location: 172903 - 174135" locus_tag="BCB17055.1" class="clusterblast-orf" id="dummy-4_h4_3_50"  />
</g>
<g id="a4_0051"  >
<polygon points="756,90 760,85 756,80 756,90 " style="fill:white; stroke-width:1; stroke:black; " description="&lt;b&gt;BCB17056.1&lt;/b&gt;&lt;br&gt;hypothetical protein&lt;br&gt;Location: 174374 - 175150" locus_tag="BCB17056.1" class="clusterblast-orf" id="dummy-4_h4_3_51"  />
</g>
<g id="a4_0052"  >
<polygon points="760,90 760,90 765,85 760,80 760,80 760,90 " style="fill:#d81515; stroke-width:1; stroke:black; " description="&lt;b&gt;BCB17057.1&lt;/b&gt;&lt;br&gt;putative glycosyltransferase&lt;br&gt;Location: 175187 - 176356&lt;br&gt;&lt;br&gt;&lt;b&gt;BlastP hit with HS041_25690&lt;/b&gt;&lt;br&gt;Percentage identity: 64&lt;br&gt;Percentage coverage: 99&lt;br&gt;BLAST bit score: 496&lt;br&gt;E-value: 6.94e-176" locus_tag="BCB17057.1" class="clusterblast-orf" id="dummy-4_h4_3_52"  />
</g>
<g id="a4_0053"  >
<polygon points="765,90 766,90 771,85 766,80 765,80 765,90 " style="fill:white; stroke-width:1; stroke:black; " description="&lt;b&gt;BCB17058.1&lt;/b&gt;&lt;br&gt;putative glucose-1-phosphateadenylyltransferase&lt;br&gt;Location: 176397 - 177599" locus_tag="BCB17058.1" class="clusterblast-orf" id="dummy-4_h4_3_53"  />
</g>
<g id="a4_0054"  >
<polygon points="771,85 775,80 775,90 771,85 " style="fill:white; stroke-width:1; stroke:black; " description="&lt;b&gt;BCB17059.1&lt;/b&gt;&lt;br&gt;putative simple sugar ABC transporter permease protein&lt;br&gt;Location: 177617 - 178642" locus_tag="BCB17059.1" class="clusterblast-orf" id="dummy-4_h4_3_54"  />
</g>
<g id="a4_0055"  >
<polygon points="775,85 780,80 780,80 780,90 780,90 775,85 " style="fill:white; stroke-width:1; stroke:black; " description="&lt;b&gt;BCB17060.1&lt;/b&gt;&lt;br&gt;putative simple sugar ABC transporter permease protein&lt;br&gt;Location: 178639 - 179604" locus_tag="BCB17060.1" class="clusterblast-orf" id="dummy-4_h4_3_55"  />
</g>
</svg>
