<svg xmlns="http://www.w3.org/2000/svg" xmlns:xlink="http://www.w3.org/1999/xlink" version="1.1" x="0" y="0" height="200" width="800" viewBox="0 0 800 200" preserveAspectRatio="none"  >
<g label="Query sequence" class="clusterblast-cluster"  >
<text x="5" y="20" class="clusterblast-acc"  >
Query sequence</text>
<line x1="10" y1="35" x2="778.0" y2="35" style="stroke-width:1; stroke:grey; "  />
<polygon points="319,40 319,40 324,35 319,30 319,30 319,40 " style="fill:#d81515; stroke-width:1; stroke:black; " description="&lt;b&gt;HS041_25690&lt;/b&gt;&lt;br&gt;glycogen synthase&lt;br&gt;Location: 917462 - 918650" locus_tag="HS041_25690" class="clusterblast-orf" id="knownclusterblast-4_q0_0_all"  />
<polygon points="324,35 328,30 328,40 324,35 " style="fill:white; stroke-width:1; stroke:black; " description="&lt;b&gt;HS041_25695&lt;/b&gt;&lt;br&gt;hypothetical protein&lt;br&gt;Location: 918724 - 919570" locus_tag="HS041_25695" class="clusterblast-orf" id="knownclusterblast-4_q1_0_all"  />
<polygon points="329,35 332,30 332,40 329,35 " style="fill:white; stroke-width:1; stroke:black; " description="&lt;b&gt;HS041_25700&lt;/b&gt;&lt;br&gt;GNAT family N-acetyltransferase&lt;br&gt;Location: 919772 - 920330" locus_tag="HS041_25700" class="clusterblast-orf" id="knownclusterblast-4_q2_0_all"  />
<polygon points="333,35 338,30 339,30 339,40 338,40 333,35 " style="fill:#15d863; stroke-width:1; stroke:black; " description="&lt;b&gt;HS041_25705&lt;/b&gt;&lt;br&gt;MHS family MFS transporter&lt;br&gt;Location: 920571 - 921921" locus_tag="HS041_25705" class="clusterblast-orf" id="knownclusterblast-4_q3_0_all"  />
<polygon points="339,40 342,35 339,30 339,40 " style="fill:white; stroke-width:1; stroke:black; " description="&lt;b&gt;HS041_25710&lt;/b&gt;&lt;br&gt;GntR family transcriptional regulator&lt;br&gt;Location: 921973 - 922660" locus_tag="HS041_25710" class="clusterblast-orf" id="knownclusterblast-4_q4_0_all"  />
<polygon points="342,40 343,40 348,35 343,30 342,30 342,40 " style="fill:white; stroke-width:1; stroke:black; " description="&lt;b&gt;HS041_25715&lt;/b&gt;&lt;br&gt;alpha/beta hydrolase fold domain-containing protein&lt;br&gt;Location: 922737 - 923937" locus_tag="HS041_25715" class="clusterblast-orf" id="knownclusterblast-4_q5_0_all"  />
<polygon points="348,35 350,30 350,40 348,35 " style="fill:white; stroke-width:1; stroke:black; " description="&lt;b&gt;HS041_25720&lt;/b&gt;&lt;br&gt;Lrp/AsnC family transcriptional regulator&lt;br&gt;Location: 923998 - 924433" locus_tag="HS041_25720" class="clusterblast-orf" id="knownclusterblast-4_q6_0_all"  />
<polygon points="351,40 354,35 351,30 351,40 " style="fill:white; stroke-width:1; stroke:black; " description="&lt;b&gt;HS041_25725&lt;/b&gt;&lt;br&gt;tryptophan 2,3-dioxygenase&lt;br&gt;Location: 924589 - 925435" locus_tag="HS041_25725" class="clusterblast-orf" id="knownclusterblast-4_q7_0_all"  />
<polygon points="355,40 356,40 361,35 356,30 355,30 355,40 " style="fill:white; stroke-width:1; stroke:black; " description="&lt;b&gt;HS041_25730&lt;/b&gt;&lt;br&gt;FAD-dependent monooxygenase&lt;br&gt;Location: 925493 - 926867" locus_tag="HS041_25730" class="clusterblast-orf" id="knownclusterblast-4_q8_0_all"  />
<polygon points="361,35 365,30 365,40 361,35 " style="fill:#1563d8; stroke-width:1; stroke:black; " description="&lt;b&gt;HS041_25735&lt;/b&gt;&lt;br&gt;LysR family transcriptional regulator&lt;br&gt;Location: 926909 - 927860" locus_tag="HS041_25735" class="clusterblast-orf" id="knownclusterblast-4_q9_0_all"  />
<polygon points="365,40 369,35 365,30 365,40 " style="fill:#b115d8; stroke-width:1; stroke:black; " description="&lt;b&gt;HS041_25740&lt;/b&gt;&lt;br&gt;dihydrodipicolinate synthase family protein&lt;br&gt;Location: 927931 - 928798" locus_tag="HS041_25740" class="clusterblast-orf" id="knownclusterblast-4_q10_0_all"  />
<polygon points="369,35 373,30 373,40 369,35 " style="fill:white; stroke-width:1; stroke:black; " description="&lt;b&gt;HS041_25745&lt;/b&gt;&lt;br&gt;Fpg/Nei family DNA glycosylase&lt;br&gt;Location: 928834 - 929644" locus_tag="HS041_25745" class="clusterblast-orf" id="knownclusterblast-4_q11_0_all"  />
<polygon points="373,35 375,30 375,40 373,35 " style="fill:white; stroke-width:1; stroke:black; " description="&lt;b&gt;HS041_25750&lt;/b&gt;&lt;br&gt;DUF2809 domain-containing protein&lt;br&gt;Location: 929652 - 930153" locus_tag="HS041_25750" class="clusterblast-orf" id="knownclusterblast-4_q12_0_all"  />
<polygon points="376,35 381,30 382,30 382,40 381,40 376,35 " style="fill:white; stroke-width:1; stroke:black; " description="&lt;b&gt;HS041_25755&lt;/b&gt;&lt;br&gt;M1 family metallopeptidase&lt;br&gt;Location: 930315 - 931635" locus_tag="HS041_25755" class="clusterblast-orf" id="knownclusterblast-4_q13_0_all"  />
<polygon points="382,35 387,30 399,30 399,40 387,40 382,35 " style="fill:#b1d815; stroke-width:1; stroke:black; " description="&lt;b&gt;HS041_25760&lt;/b&gt;&lt;br&gt;amino acid adenylation domain-containing protein&lt;br&gt;Location: 931607 - 935510" locus_tag="HS041_25760" class="clusterblast-orf" id="knownclusterblast-4_q14_0_all"  />
<polygon points="400,40 402,35 400,30 400,40 " style="fill:white; stroke-width:1; stroke:black; " description="&lt;b&gt;HS041_25765&lt;/b&gt;&lt;br&gt;STAS domain-containing protein&lt;br&gt;Location: 935786 - 936236" locus_tag="HS041_25765" class="clusterblast-orf" id="knownclusterblast-4_q15_0_all"  />
<polygon points="403,35 406,30 406,40 403,35 " style="fill:white; stroke-width:1; stroke:black; " description="&lt;b&gt;HS041_25770&lt;/b&gt;&lt;br&gt;hypothetical protein&lt;br&gt;Location: 936256 - 937105" locus_tag="HS041_25770" class="clusterblast-orf" id="knownclusterblast-4_q16_0_all"  />
<polygon points="408,40 410,35 408,30 408,40 " style="fill:white; stroke-width:1; stroke:black; " description="&lt;b&gt;HS041_25775&lt;/b&gt;&lt;br&gt;DUF1772 domain-containing protein&lt;br&gt;Location: 937404 - 937878" locus_tag="HS041_25775" class="clusterblast-orf" id="knownclusterblast-4_q17_0_all"  />
<polygon points="410,40 414,35 410,30 410,40 " style="fill:white; stroke-width:1; stroke:black; " description="&lt;b&gt;HS041_25780&lt;/b&gt;&lt;br&gt;alpha/beta hydrolase&lt;br&gt;Location: 937874 - 938897" locus_tag="HS041_25780" class="clusterblast-orf" id="knownclusterblast-4_q18_0_all"  />
<polygon points="415,35 417,30 417,40 415,35 " style="fill:white; stroke-width:1; stroke:black; " description="&lt;b&gt;HS041_25785&lt;/b&gt;&lt;br&gt;DUF4291 domain-containing protein&lt;br&gt;Location: 938987 - 939608" locus_tag="HS041_25785" class="clusterblast-orf" id="knownclusterblast-4_q19_0_all"  />
<polygon points="418,35 423,30 423,30 423,40 423,40 418,35 " style="fill:white; stroke-width:1; stroke:black; " description="&lt;b&gt;HS041_25790&lt;/b&gt;&lt;br&gt;cytochrome P450&lt;br&gt;Location: 939660 - 940893" locus_tag="HS041_25790" class="clusterblast-orf" id="knownclusterblast-4_q20_0_all"  />
<polygon points="423,40 426,35 423,30 423,40 " style="fill:white; stroke-width:1; stroke:black; " description="&lt;b&gt;HS041_25795&lt;/b&gt;&lt;br&gt;hypothetical protein&lt;br&gt;Location: 940964 - 941510" locus_tag="HS041_25795" class="clusterblast-orf" id="knownclusterblast-4_q21_0_all"  />
<polygon points="426,35 430,30 430,40 426,35 " style="fill:white; stroke-width:1; stroke:black; " description="&lt;b&gt;HS041_25800&lt;/b&gt;&lt;br&gt;SDR family oxidoreductase&lt;br&gt;Location: 941527 - 942322" locus_tag="HS041_25800" class="clusterblast-orf" id="knownclusterblast-4_q22_0_all"  />
<polygon points="430,40 433,35 430,30 430,40 " style="fill:white; stroke-width:1; stroke:black; " description="&lt;b&gt;HS041_25805&lt;/b&gt;&lt;br&gt;hypothetical protein&lt;br&gt;Location: 942534 - 943185" locus_tag="HS041_25805" class="clusterblast-orf" id="knownclusterblast-4_q23_0_all"  />
<polygon points="434,35 435,30 435,40 434,35 " style="fill:white; stroke-width:1; stroke:black; " description="&lt;b&gt;HS041_25810&lt;/b&gt;&lt;br&gt;nuclear transport factor 2 family protein&lt;br&gt;Location: 943265 - 943625" locus_tag="HS041_25810" class="clusterblast-orf" id="knownclusterblast-4_q24_0_all"  />
<polygon points="439,40 439,40 444,35 439,30 439,30 439,40 " style="fill:white; stroke-width:1; stroke:black; " description="&lt;b&gt;HS041_25825&lt;/b&gt;&lt;br&gt;tRNA dihydrouridine synthase DusB&lt;br&gt;Location: 944405 - 945527" locus_tag="HS041_25825" class="clusterblast-orf" id="knownclusterblast-4_q25_0_all"  />
<polygon points="444,40 448,40 453,35 448,30 444,30 444,40 " style="fill:white; stroke-width:1; stroke:black; " description="&lt;b&gt;HS041_25830&lt;/b&gt;&lt;br&gt;TRAP transporter fused permease subunit&lt;br&gt;Location: 945655 - 947650" locus_tag="HS041_25830" class="clusterblast-orf" id="knownclusterblast-4_q26_0_all"  />
<polygon points="453,40 453,40 458,35 453,30 453,30 453,40 " style="fill:white; stroke-width:1; stroke:black; " description="&lt;b&gt;HS041_25835&lt;/b&gt;&lt;br&gt;TAXI family TRAP transporter solute-binding subunit&lt;br&gt;Location: 947646 - 948612" locus_tag="HS041_25835" class="clusterblast-orf" id="knownclusterblast-4_q27_0_all"  />
<polygon points="458,35 460,30 460,40 458,35 " style="fill:white; stroke-width:1; stroke:black; " description="&lt;b&gt;HS041_25840&lt;/b&gt;&lt;br&gt;DUF2087 domain-containing protein&lt;br&gt;Location: 948650 - 949223" locus_tag="HS041_25840" class="clusterblast-orf" id="knownclusterblast-4_q28_0_all"  />
</g>
<g label="BGC0002174" description="BGC0002174_c1: ε-Poly-L-lysine (100% of genes show similarity), NRP" class="clusterblast-cluster"  >
<text x="5" y="70" class="clusterblast-acc"  >
<a xlink:href="https://mibig.secondarymetabolites.org/go/BGC0002174/1" target="_blank">BGC0002174</a>: ε-Poly-L-lysine                                                                  (100% of genes show similarity), NRP</text>
<line x1="10" y1="85" x2="778.0" y2="85" style="stroke-width:1; stroke:grey; "  />
</g>
<g id="a4_000"  >
<polygon points="381,85 386,80 398,80 398,90 386,90 381,85 " style="fill:#b1d815; stroke-width:1; stroke:black; " description="&lt;b&gt;BBU42014.1&lt;/b&gt;&lt;br&gt;e-poly-L-lysine synthetase&lt;br&gt;Location: 3894 - 1&lt;br&gt;&lt;br&gt;&lt;b&gt;BlastP hit with HS041_25760&lt;/b&gt;&lt;br&gt;Percentage identity: 50&lt;br&gt;Percentage coverage: 100&lt;br&gt;BLAST bit score: 1131&lt;br&gt;E-value: 0.0" locus_tag="BBU42014.1" class="clusterblast-orf" id="knownclusterblast-4_all_4_1_0"  />
</g>
<g label="BGC0000100" description="BGC0000100_c1: monensin (5% of genes show similarity), Polyketide" class="clusterblast-cluster"  >
<text x="5" y="120" class="clusterblast-acc"  >
<a xlink:href="https://mibig.secondarymetabolites.org/go/BGC0000100/1" target="_blank">BGC0000100</a>: monensin                                                                         (5% of genes show similarity), Polyketide</text>
<line x1="10" y1="135" x2="778.0" y2="135" style="stroke-width:1; stroke:grey; "  />
</g>
<g id="a4_000"  >
<polygon points="159,135 162,130 162,140 159,135 " style="fill:white; stroke-width:1; stroke:black; " description="&lt;b&gt;AAO65815.1&lt;/b&gt;&lt;br&gt;glycine amidinotransferase&lt;br&gt;Location: 103450 - 102924" locus_tag="AAO65815.1" class="clusterblast-orf" id="knownclusterblast-4_all_4_2_0"  />
</g>
<g id="a4_001"  >
<polygon points="163,140 163,140 168,135 163,130 163,130 163,140 " style="fill:white; stroke-width:1; stroke:black; " description="&lt;b&gt;AAO65814.1&lt;/b&gt;&lt;br&gt;unknown&lt;br&gt;Location: 102581 - 101490" locus_tag="AAO65814.1" class="clusterblast-orf" id="knownclusterblast-4_all_4_2_1"  />
</g>
<g id="a4_002"  >
<polygon points="168,140 172,135 168,130 168,140 " style="fill:white; stroke-width:1; stroke:black; " description="&lt;b&gt;AAO65813.1&lt;/b&gt;&lt;br&gt;hypothetical transport protein&lt;br&gt;Location: 101433 - 100507" locus_tag="AAO65813.1" class="clusterblast-orf" id="knownclusterblast-4_all_4_2_2"  />
</g>
<g id="a4_003"  >
<polygon points="175,140 179,135 175,130 175,140 " style="fill:white; stroke-width:1; stroke:black; " description="&lt;b&gt;AAO65812.1&lt;/b&gt;&lt;br&gt;putative lipase&lt;br&gt;Location: 99983 - 98991" locus_tag="AAO65812.1" class="clusterblast-orf" id="knownclusterblast-4_all_4_2_3"  />
</g>
<g id="a4_004"  >
<polygon points="179,135 184,130 185,130 185,140 184,140 179,135 " style="fill:white; stroke-width:1; stroke:black; " description="&lt;b&gt;AAO65811.1&lt;/b&gt;&lt;br&gt;unknown&lt;br&gt;Location: 98953 - 97580" locus_tag="AAO65811.1" class="clusterblast-orf" id="knownclusterblast-4_all_4_2_4"  />
</g>
<g id="a4_005"  >
<polygon points="188,140 192,135 188,130 188,140 " style="fill:white; stroke-width:1; stroke:black; " description="&lt;b&gt;AAO65810.1&lt;/b&gt;&lt;br&gt;thioesterase&lt;br&gt;Location: 96941 - 96138" locus_tag="AAO65810.1" class="clusterblast-orf" id="knownclusterblast-4_all_4_2_5"  />
</g>
<g id="a4_006"  >
<polygon points="192,140 195,135 192,130 192,140 " style="fill:white; stroke-width:1; stroke:black; " description="&lt;b&gt;AAO65809.1&lt;/b&gt;&lt;br&gt;activator protein&lt;br&gt;Location: 96141 - 95338" locus_tag="AAO65809.1" class="clusterblast-orf" id="knownclusterblast-4_all_4_2_6"  />
</g>
<g id="a4_007"  >
<polygon points="196,135 201,130 201,130 201,140 201,140 196,135 " style="fill:white; stroke-width:1; stroke:black; " description="&lt;b&gt;AAO65808.1&lt;/b&gt;&lt;br&gt;monensin hydroxylase&lt;br&gt;Location: 95273 - 93981" locus_tag="AAO65808.1" class="clusterblast-orf" id="knownclusterblast-4_all_4_2_7"  />
</g>
<g id="a4_008"  >
<polygon points="202,140 219,140 224,135 219,130 202,130 202,140 " style="fill:white; stroke-width:1; stroke:black; " description="&lt;b&gt;AAO65807.1&lt;/b&gt;&lt;br&gt;monensin polyketide synthase module 10&lt;br&gt;Location: 93741 - 88816" locus_tag="AAO65807.1" class="clusterblast-orf" id="knownclusterblast-4_all_4_2_8"  />
</g>
<g id="a4_009"  >
<polygon points="225,140 270,140 275,135 270,130 225,130 225,140 " style="fill:white; stroke-width:1; stroke:black; " description="&lt;b&gt;AAO65806.1&lt;/b&gt;&lt;br&gt;monensin polyketide synthase modules 11 and 12&lt;br&gt;Location: 88708 - 77447" locus_tag="AAO65806.1" class="clusterblast-orf" id="knownclusterblast-4_all_4_2_9"  />
</g>
<g id="a4_0010"  >
<polygon points="275,140 277,135 275,130 275,140 " style="fill:white; stroke-width:1; stroke:black; " description="&lt;b&gt;AAO65805.1&lt;/b&gt;&lt;br&gt;probable monensin biosynthesis isomerase&lt;br&gt;Location: 77450 - 77016" locus_tag="AAO65805.1" class="clusterblast-orf" id="knownclusterblast-4_all_4_2_10"  />
</g>
<g id="a4_0011"  >
<polygon points="277,140 279,135 277,130 277,140 " style="fill:white; stroke-width:1; stroke:black; " description="&lt;b&gt;AAO65804.1&lt;/b&gt;&lt;br&gt;probable monensin biosynthesis isomerase&lt;br&gt;Location: 76960 - 76538" locus_tag="AAO65804.1" class="clusterblast-orf" id="knownclusterblast-4_all_4_2_11"  />
</g>
<g id="a4_0012"  >
<polygon points="279,140 281,140 286,135 281,130 279,130 279,140 " style="fill:white; stroke-width:1; stroke:black; " description="&lt;b&gt;AAO65803.1&lt;/b&gt;&lt;br&gt;monensin epoxidase&lt;br&gt;Location: 76541 - 75051" locus_tag="AAO65803.1" class="clusterblast-orf" id="knownclusterblast-4_all_4_2_12"  />
</g>
<g id="a4_0013"  >
<polygon points="286,135 291,130 299,130 299,140 291,140 286,135 " style="fill:white; stroke-width:1; stroke:black; " description="&lt;b&gt;AAO65802.1&lt;/b&gt;&lt;br&gt;putative regulatory protein&lt;br&gt;Location: 74993 - 72051" locus_tag="AAO65802.1" class="clusterblast-orf" id="knownclusterblast-4_all_4_2_13"  />
</g>
<g id="a4_0014"  >
<polygon points="299,135 304,130 322,130 322,140 304,140 299,135 " style="fill:white; stroke-width:1; stroke:black; " description="&lt;b&gt;AAO65801.1&lt;/b&gt;&lt;br&gt;monensin polyketide synthase module 9&lt;br&gt;Location: 72054 - 66952" locus_tag="AAO65801.1" class="clusterblast-orf" id="knownclusterblast-4_all_4_2_14"  />
</g>
<g id="a4_0015"  >
<polygon points="322,135 327,130 377,130 377,140 327,140 322,135 " style="fill:white; stroke-width:1; stroke:black; " description="&lt;b&gt;AAO65800.1&lt;/b&gt;&lt;br&gt;monensin polyketide synthase modules 7 and 8&lt;br&gt;Location: 66934 - 54614" locus_tag="AAO65800.1" class="clusterblast-orf" id="knownclusterblast-4_all_4_2_15"  />
</g>
<g id="a4_0016"  >
<polygon points="377,135 382,130 431,130 431,140 382,140 377,135 " style="fill:white; stroke-width:1; stroke:black; " description="&lt;b&gt;AAO65799.1&lt;/b&gt;&lt;br&gt;monensin polyketide synthase modules 5 and 6&lt;br&gt;Location: 54564 - 42448" locus_tag="AAO65799.1" class="clusterblast-orf" id="knownclusterblast-4_all_4_2_16"  />
</g>
<g id="a4_0017"  >
<polygon points="431,135 436,130 486,130 486,140 436,140 431,135 " style="fill:white; stroke-width:1; stroke:black; " description="&lt;b&gt;AAO65798.1&lt;/b&gt;&lt;br&gt;monensin polyketide synthase modules 3 and 4&lt;br&gt;Location: 42372 - 29974" locus_tag="AAO65798.1" class="clusterblast-orf" id="knownclusterblast-4_all_4_2_17"  />
</g>
<g id="a4_0018"  >
<polygon points="487,135 492,130 516,130 516,140 492,140 487,135 " style="fill:white; stroke-width:1; stroke:black; " description="&lt;b&gt;AAO65797.1&lt;/b&gt;&lt;br&gt;monensin polyketide synthase module 2&lt;br&gt;Location: 29921 - 23205" locus_tag="AAO65797.1" class="clusterblast-orf" id="knownclusterblast-4_all_4_2_18"  />
</g>
<g id="a4_0019"  >
<polygon points="516,135 521,130 557,130 557,140 521,140 516,135 " style="fill:white; stroke-width:1; stroke:black; " description="&lt;b&gt;AAO65796.1&lt;/b&gt;&lt;br&gt;monensin polyketide synthase loading module and module 1&lt;br&gt;Location: 23198 - 14121" locus_tag="AAO65796.1" class="clusterblast-orf" id="knownclusterblast-4_all_4_2_19"  />
</g>
<g id="a4_0020"  >
<polygon points="558,140 562,135 558,130 558,140 " style="fill:white; stroke-width:1; stroke:black; " description="&lt;b&gt;AAO65795.1&lt;/b&gt;&lt;br&gt;PKS thioesterase&lt;br&gt;Location: 13829 - 13023" locus_tag="AAO65795.1" class="clusterblast-orf" id="knownclusterblast-4_all_4_2_20"  />
</g>
<g id="a4_0021"  >
<polygon points="563,135 565,130 565,140 563,135 " style="fill:white; stroke-width:1; stroke:black; " description="&lt;b&gt;AAO65794.1&lt;/b&gt;&lt;br&gt;putative monensin cluster negative regulator&lt;br&gt;Location: 12780 - 12205" locus_tag="AAO65794.1" class="clusterblast-orf" id="knownclusterblast-4_all_4_2_21"  />
</g>
<g id="a4_0022"  >
<polygon points="565,135 570,130 572,130 572,140 570,140 565,135 " style="fill:white; stroke-width:1; stroke:black; " description="&lt;b&gt;AAO65793.1&lt;/b&gt;&lt;br&gt;putative monensin resistance protein&lt;br&gt;Location: 12191 - 10656" locus_tag="AAO65793.1" class="clusterblast-orf" id="knownclusterblast-4_all_4_2_22"  />
</g>
<g id="a4_0023"  >
<polygon points="573,140 577,135 573,130 573,140 " style="fill:white; stroke-width:1; stroke:black; " description="&lt;b&gt;AAO65792.1&lt;/b&gt;&lt;br&gt;monensin 3-O-methyl transferase&lt;br&gt;Location: 10426 - 9596" locus_tag="AAO65792.1" class="clusterblast-orf" id="knownclusterblast-4_all_4_2_23"  />
</g>
<g id="a4_0024"  >
<polygon points="577,140 581,135 577,130 577,140 " style="fill:white; stroke-width:1; stroke:black; " description="&lt;b&gt;AAO65791.1&lt;/b&gt;&lt;br&gt;monensin cyclase&lt;br&gt;Location: 9542 - 8643" locus_tag="AAO65791.1" class="clusterblast-orf" id="knownclusterblast-4_all_4_2_24"  />
</g>
<g id="a4_0025"  >
<polygon points="582,140 588,140 593,135 588,130 582,130 582,140 " style="fill:white; stroke-width:1; stroke:black; " description="&lt;b&gt;AAO65790.1&lt;/b&gt;&lt;br&gt;ketosynthase-like protein&lt;br&gt;Location: 8531 - 6045" locus_tag="AAO65790.1" class="clusterblast-orf" id="knownclusterblast-4_all_4_2_25"  />
</g>
<g id="a4_0026"  >
<polygon points="593,140 594,135 593,130 593,140 " style="fill:white; stroke-width:1; stroke:black; " description="&lt;b&gt;AAO65789.1&lt;/b&gt;&lt;br&gt;acyl carrier protein&lt;br&gt;Location: 6010 - 5693" locus_tag="AAO65789.1" class="clusterblast-orf" id="knownclusterblast-4_all_4_2_26"  />
</g>
<g id="a4_0027"  >
<polygon points="595,135 597,130 597,140 595,135 " style="fill:white; stroke-width:1; stroke:black; " description="&lt;b&gt;AAO65788.1&lt;/b&gt;&lt;br&gt;hypothetical protein&lt;br&gt;Location: 5612 - 5058" locus_tag="AAO65788.1" class="clusterblast-orf" id="knownclusterblast-4_all_4_2_27"  />
</g>
<g id="a4_0028"  >
<polygon points="599,135 599,130 599,140 599,135 " style="fill:white; stroke-width:1; stroke:black; " description="&lt;b&gt;AAO65787.1&lt;/b&gt;&lt;br&gt;hypothetical protein&lt;br&gt;Location: 4758 - 4570" locus_tag="AAO65787.1" class="clusterblast-orf" id="knownclusterblast-4_all_4_2_28"  />
</g>
<g id="a4_0029"  >
<polygon points="601,140 603,135 601,130 601,140 " style="fill:white; stroke-width:1; stroke:black; " description="&lt;b&gt;AAO65786.1&lt;/b&gt;&lt;br&gt;hypothetical protein&lt;br&gt;Location: 4307 - 3684" locus_tag="AAO65786.1" class="clusterblast-orf" id="knownclusterblast-4_all_4_2_29"  />
</g>
<g id="a4_0030"  >
<polygon points="603,135 605,130 605,140 603,135 " style="fill:white; stroke-width:1; stroke:black; " description="&lt;b&gt;AAO65785.1&lt;/b&gt;&lt;br&gt;hypothetical protein&lt;br&gt;Location: 3680 - 3264" locus_tag="AAO65785.1" class="clusterblast-orf" id="knownclusterblast-4_all_4_2_30"  />
</g>
<g id="a4_0031"  >
<polygon points="606,135 610,130 610,140 606,135 " style="fill:#1563d8; stroke-width:1; stroke:black; " description="&lt;b&gt;AAO65784.1&lt;/b&gt;&lt;br&gt;hypothetical DNA binding protein&lt;br&gt;Location: 3152 - 2211&lt;br&gt;&lt;br&gt;&lt;b&gt;BlastP hit with HS041_25735&lt;/b&gt;&lt;br&gt;Percentage identity: 64&lt;br&gt;Percentage coverage: 94&lt;br&gt;BLAST bit score: 330&lt;br&gt;E-value: 3.49e-113" locus_tag="AAO65784.1" class="clusterblast-orf" id="knownclusterblast-4_all_4_2_31"  />
</g>
<g id="a4_0032"  >
<polygon points="610,140 614,135 610,130 610,140 " style="fill:#b115d8; stroke-width:1; stroke:black; " description="&lt;b&gt;AAO65783.1&lt;/b&gt;&lt;br&gt;dihidro-dipicolinate synthase&lt;br&gt;Location: 2140 - 1220&lt;br&gt;&lt;br&gt;&lt;b&gt;BlastP hit with HS041_25740&lt;/b&gt;&lt;br&gt;Percentage identity: 55&lt;br&gt;Percentage coverage: 99&lt;br&gt;BLAST bit score: 276&lt;br&gt;E-value: 1.62e-92" locus_tag="AAO65783.1" class="clusterblast-orf" id="knownclusterblast-4_all_4_2_32"  />
</g>
<g id="a4_0033"  >
<polygon points="615,140 615,140 620,135 615,130 615,130 615,140 " style="fill:white; stroke-width:1; stroke:black; " description="&lt;b&gt;AAO65782.1&lt;/b&gt;&lt;br&gt;glutamate dehydrogenase&lt;br&gt;Location: 1038 - 1" locus_tag="AAO65782.1" class="clusterblast-orf" id="knownclusterblast-4_all_4_2_33"  />
</g>
<g label="BGC0002523" description="BGC0002523_c1: desertomycin B/desertomycin A/desertomycin G (3% of genes show similarity), NRP" class="clusterblast-cluster"  >
<text x="5" y="170" class="clusterblast-acc"  >
<a xlink:href="https://mibig.secondarymetabolites.org/go/BGC0002523/1" target="_blank">BGC0002523</a>: desertomycin B/desertomycin A/desertomycin G                                     (3% of genes show similarity), NRP</text>
<line x1="10" y1="185" x2="778.0" y2="185" style="stroke-width:1; stroke:grey; "  />
</g>
<g id="a4_000"  >
<polygon points="0,185 4,180 4,190 0,185 " style="fill:white; stroke-width:1; stroke:black; " description="&lt;b&gt;BCB17005.1&lt;/b&gt;&lt;br&gt;putative transcriptional regulator&lt;br&gt;Location: 4375 - 5397" locus_tag="BCB17005.1" class="clusterblast-orf" id="knownclusterblast-4_all_4_3_0"  />
</g>
<g id="a4_001"  >
<polygon points="6,190 8,185 6,180 6,190 " style="fill:white; stroke-width:1; stroke:black; " description="&lt;b&gt;BCB17006.1&lt;/b&gt;&lt;br&gt;putative polyhydroxybutyratedepolymerase&lt;br&gt;Location: 5752 - 6237" locus_tag="BCB17006.1" class="clusterblast-orf" id="knownclusterblast-4_all_4_3_1"  />
</g>
<g id="a4_002"  >
<polygon points="14,190 17,185 14,180 14,190 " style="fill:white; stroke-width:1; stroke:black; " description="&lt;b&gt;BCB17007.1&lt;/b&gt;&lt;br&gt;putative 3-hydroxybutyrate dehydrogenase&lt;br&gt;Location: 7592 - 8386" locus_tag="BCB17007.1" class="clusterblast-orf" id="knownclusterblast-4_all_4_3_2"  />
</g>
<g id="a4_003"  >
<polygon points="18,190 19,190 24,185 19,180 18,180 18,190 " style="fill:#15d863; stroke-width:1; stroke:black; " description="&lt;b&gt;BCB17008.1&lt;/b&gt;&lt;br&gt;putative permease of the major facilitator superfamily&lt;br&gt;Location: 8442 - 9818&lt;br&gt;&lt;br&gt;&lt;b&gt;BlastP hit with HS041_25705&lt;/b&gt;&lt;br&gt;Percentage identity: 59&lt;br&gt;Percentage coverage: 94&lt;br&gt;BLAST bit score: 470&lt;br&gt;E-value: 8.46e-164" locus_tag="BCB17008.1" class="clusterblast-orf" id="knownclusterblast-4_all_4_3_3"  />
</g>
<g id="a4_004"  >
<polygon points="24,190 28,190 33,185 28,180 24,180 24,190 " style="fill:white; stroke-width:1; stroke:black; " description="&lt;b&gt;BCB17009.1&lt;/b&gt;&lt;br&gt;conserved hypothetical protein&lt;br&gt;Location: 9879 - 11918" locus_tag="BCB17009.1" class="clusterblast-orf" id="knownclusterblast-4_all_4_3_4"  />
</g>
<g id="a4_005"  >
<polygon points="33,185 38,180 42,180 42,190 38,190 33,185 " style="fill:white; stroke-width:1; stroke:black; " description="&lt;b&gt;BCB17010.1&lt;/b&gt;&lt;br&gt;putative ABC transporter ATP-binding protein&lt;br&gt;Location: 11830 - 13854" locus_tag="BCB17010.1" class="clusterblast-orf" id="knownclusterblast-4_all_4_3_5"  />
</g>
<g id="a4_006"  >
<polygon points="43,185 45,180 45,190 43,185 " style="fill:white; stroke-width:1; stroke:black; " description="&lt;b&gt;BCB17011.1&lt;/b&gt;&lt;br&gt;hypothetical protein&lt;br&gt;Location: 14132 - 14650" locus_tag="BCB17011.1" class="clusterblast-orf" id="knownclusterblast-4_all_4_3_6"  />
</g>
<g id="a4_007"  >
<polygon points="45,190 46,190 51,185 46,180 45,180 45,190 " style="fill:white; stroke-width:1; stroke:black; " description="&lt;b&gt;BCB17012.1&lt;/b&gt;&lt;br&gt;hypothetical protein&lt;br&gt;Location: 14677 - 16002" locus_tag="BCB17012.1" class="clusterblast-orf" id="knownclusterblast-4_all_4_3_7"  />
</g>
<g id="a4_008"  >
<polygon points="51,185 56,180 56,180 56,190 56,190 51,185 " style="fill:white; stroke-width:1; stroke:black; " description="&lt;b&gt;BCB17013.1&lt;/b&gt;&lt;br&gt;putative dehydrogenase&lt;br&gt;Location: 16006 - 17139" locus_tag="BCB17013.1" class="clusterblast-orf" id="knownclusterblast-4_all_4_3_8"  />
</g>
<g id="a4_009"  >
<polygon points="57,190 60,185 57,180 57,190 " style="fill:white; stroke-width:1; stroke:black; " description="&lt;b&gt;BCB17014.1&lt;/b&gt;&lt;br&gt;putative TetR-family transcriptional regulator&lt;br&gt;Location: 17292 - 18017" locus_tag="BCB17014.1" class="clusterblast-orf" id="knownclusterblast-4_all_4_3_9"  />
</g>
<g id="a4_0010"  >
<polygon points="61,190 65,185 61,180 61,190 " style="fill:white; stroke-width:1; stroke:black; " description="&lt;b&gt;BCB17015.1&lt;/b&gt;&lt;br&gt;putative acetyltransferase&lt;br&gt;Location: 18137 - 18994" locus_tag="BCB17015.1" class="clusterblast-orf" id="knownclusterblast-4_all_4_3_10"  />
</g>
<g id="a4_0011"  >
<polygon points="65,185 70,180 75,180 75,190 70,190 65,185 " style="fill:white; stroke-width:1; stroke:black; " description="&lt;b&gt;BCB17016.1&lt;/b&gt;&lt;br&gt;beta-glucosidase&lt;br&gt;Location: 19035 - 21383" locus_tag="BCB17016.1" class="clusterblast-orf" id="knownclusterblast-4_all_4_3_11"  />
</g>
<g id="a4_0012"  >
<polygon points="76,190 80,190 85,185 80,180 76,180 76,190 " style="fill:white; stroke-width:1; stroke:black; " description="&lt;b&gt;BCB17017.1&lt;/b&gt;&lt;br&gt;putative ABC transporter ATP-binding protein&lt;br&gt;Location: 21566 - 23482" locus_tag="BCB17017.1" class="clusterblast-orf" id="knownclusterblast-4_all_4_3_12"  />
</g>
<g id="a4_0013"  >
<polygon points="85,190 88,185 85,180 85,190 " style="fill:white; stroke-width:1; stroke:black; " description="&lt;b&gt;BCB17018.1&lt;/b&gt;&lt;br&gt;conserved hypothetical protein&lt;br&gt;Location: 23676 - 24251" locus_tag="BCB17018.1" class="clusterblast-orf" id="knownclusterblast-4_all_4_3_13"  />
</g>
<g id="a4_0014"  >
<polygon points="88,185 91,180 91,190 88,185 " style="fill:white; stroke-width:1; stroke:black; " description="&lt;b&gt;BCB17019.1&lt;/b&gt;&lt;br&gt;putative phosphopantetheinyltransferase&lt;br&gt;Location: 24223 - 25026" locus_tag="BCB17019.1" class="clusterblast-orf" id="knownclusterblast-4_all_4_3_14"  />
</g>
<g id="a4_0015"  >
<polygon points="91,185 96,180 97,180 97,190 96,190 91,185 " style="fill:white; stroke-width:1; stroke:black; " description="&lt;b&gt;BCB17020.1&lt;/b&gt;&lt;br&gt;putative dolichol-phosphate mannosyltransferase&lt;br&gt;Location: 25023 - 26258" locus_tag="BCB17020.1" class="clusterblast-orf" id="knownclusterblast-4_all_4_3_15"  />
</g>
<g id="a4_0016"  >
<polygon points="102,190 110,190 115,185 110,180 102,180 102,190 " style="fill:white; stroke-width:1; stroke:black; " description="&lt;b&gt;BCB17021.1&lt;/b&gt;&lt;br&gt;LuxR-family transcriptional&lt;br&gt;Location: 27487 - 30324" locus_tag="BCB17021.1" class="clusterblast-orf" id="knownclusterblast-4_all_4_3_16"  />
</g>
<g id="a4_0017"  >
<polygon points="115,185 119,180 119,190 115,185 " style="fill:white; stroke-width:1; stroke:black; " description="&lt;b&gt;BCB17022.1&lt;/b&gt;&lt;br&gt;putative ABC transporter protein&lt;br&gt;Location: 30393 - 31151" locus_tag="BCB17022.1" class="clusterblast-orf" id="knownclusterblast-4_all_4_3_17"  />
</g>
<g id="a4_0018"  >
<polygon points="121,190 123,190 128,185 123,180 121,180 121,190 " style="fill:white; stroke-width:1; stroke:black; " description="&lt;b&gt;BCB17023.1&lt;/b&gt;&lt;br&gt;putative amine monooxygenase&lt;br&gt;Location: 31613 - 33292" locus_tag="BCB17023.1" class="clusterblast-orf" id="knownclusterblast-4_all_4_3_18"  />
</g>
<g id="a4_0019"  >
<polygon points="129,185 133,180 133,190 129,185 " style="fill:white; stroke-width:1; stroke:black; " description="&lt;b&gt;BCB17024.1&lt;/b&gt;&lt;br&gt;putative ABC transporter protein&lt;br&gt;Location: 33411 - 34268" locus_tag="BCB17024.1" class="clusterblast-orf" id="knownclusterblast-4_all_4_3_19"  />
</g>
<g id="a4_0020"  >
<polygon points="133,185 137,180 137,190 133,185 " style="fill:white; stroke-width:1; stroke:black; " description="&lt;b&gt;BCB17025.1&lt;/b&gt;&lt;br&gt;putative ABC transporter protein&lt;br&gt;Location: 34265 - 35209" locus_tag="BCB17025.1" class="clusterblast-orf" id="knownclusterblast-4_all_4_3_20"  />
</g>
<g id="a4_0021"  >
<polygon points="138,190 203,190 208,185 203,180 138,180 138,190 " style="fill:white; stroke-width:1; stroke:black; " description="&lt;b&gt;BCB17026.1&lt;/b&gt;&lt;br&gt;modular polyketide synthase&lt;br&gt;Location: 35490 - 51197" locus_tag="BCB17026.1" class="clusterblast-orf" id="knownclusterblast-4_all_4_3_21"  />
</g>
<g id="a4_0022"  >
<polygon points="209,190 248,190 253,185 248,180 209,180 209,190 " style="fill:white; stroke-width:1; stroke:black; " description="&lt;b&gt;BCB17027.1&lt;/b&gt;&lt;br&gt;modular polyketide synthase&lt;br&gt;Location: 51367 - 61269" locus_tag="BCB17027.1" class="clusterblast-orf" id="knownclusterblast-4_all_4_3_22"  />
</g>
<g id="a4_0023"  >
<polygon points="253,190 316,190 321,185 316,180 253,180 253,190 " style="fill:white; stroke-width:1; stroke:black; " description="&lt;b&gt;BCB17028.1&lt;/b&gt;&lt;br&gt;modular polyketide synthase&lt;br&gt;Location: 61341 - 76583" locus_tag="BCB17028.1" class="clusterblast-orf" id="knownclusterblast-4_all_4_3_23"  />
</g>
<g id="a4_0024"  >
<polygon points="321,190 381,190 386,185 381,180 321,180 321,190 " style="fill:white; stroke-width:1; stroke:black; " description="&lt;b&gt;BCB17029.1&lt;/b&gt;&lt;br&gt;modular polyketide synthase&lt;br&gt;Location: 76705 - 91119" locus_tag="BCB17029.1" class="clusterblast-orf" id="knownclusterblast-4_all_4_3_24"  />
</g>
<g id="a4_0025"  >
<polygon points="387,190 452,190 457,185 452,180 387,180 387,190 " style="fill:white; stroke-width:1; stroke:black; " description="&lt;b&gt;BCB17030.1&lt;/b&gt;&lt;br&gt;modular polyketide synthase&lt;br&gt;Location: 91383 - 107243" locus_tag="BCB17030.1" class="clusterblast-orf" id="knownclusterblast-4_all_4_3_25"  />
</g>
<g id="a4_0026"  >
<polygon points="457,190 498,190 503,185 498,180 457,180 457,190 " style="fill:white; stroke-width:1; stroke:black; " description="&lt;b&gt;BCB17031.1&lt;/b&gt;&lt;br&gt;modular polyketide synthase&lt;br&gt;Location: 107244 - 117587" locus_tag="BCB17031.1" class="clusterblast-orf" id="knownclusterblast-4_all_4_3_26"  />
</g>
<g id="a4_0027"  >
<polygon points="504,190 571,190 576,185 571,180 504,180 504,190 " style="fill:white; stroke-width:1; stroke:black; " description="&lt;b&gt;BCB17032.1&lt;/b&gt;&lt;br&gt;modular polyketide synthase&lt;br&gt;Location: 117740 - 133936" locus_tag="BCB17032.1" class="clusterblast-orf" id="knownclusterblast-4_all_4_3_27"  />
</g>
<g id="a4_0028"  >
<polygon points="577,190 629,190 634,185 629,180 577,180 577,190 " style="fill:white; stroke-width:1; stroke:black; " description="&lt;b&gt;BCB17033.1&lt;/b&gt;&lt;br&gt;modular polyketide synthase&lt;br&gt;Location: 134024 - 146830" locus_tag="BCB17033.1" class="clusterblast-orf" id="knownclusterblast-4_all_4_3_28"  />
</g>
<g id="a4_0029"  >
<polygon points="634,185 639,180 641,180 641,190 639,190 634,185 " style="fill:white; stroke-width:1; stroke:black; " description="&lt;b&gt;BCB17034.1&lt;/b&gt;&lt;br&gt;putative glycosyl transferase&lt;br&gt;Location: 146936 - 148558" locus_tag="BCB17034.1" class="clusterblast-orf" id="knownclusterblast-4_all_4_3_29"  />
</g>
<g id="a4_0030"  >
<polygon points="642,190 644,190 649,185 644,180 642,180 642,190 " style="fill:white; stroke-width:1; stroke:black; " description="&lt;b&gt;BCB17035.1&lt;/b&gt;&lt;br&gt;acyl-CoA ligase&lt;br&gt;Location: 148820 - 150256" locus_tag="BCB17035.1" class="clusterblast-orf" id="knownclusterblast-4_all_4_3_30"  />
</g>
<g id="a4_0031"  >
<polygon points="650,190 654,185 650,180 650,190 " style="fill:white; stroke-width:1; stroke:black; " description="&lt;b&gt;BCB17036.1&lt;/b&gt;&lt;br&gt;acyltransferase&lt;br&gt;Location: 150401 - 151402" locus_tag="BCB17036.1" class="clusterblast-orf" id="knownclusterblast-4_all_4_3_31"  />
</g>
<g id="a4_0032"  >
<polygon points="654,190 655,190 660,185 655,180 654,180 654,190 " style="fill:white; stroke-width:1; stroke:black; " description="&lt;b&gt;BCB17037.1&lt;/b&gt;&lt;br&gt;putative cytochrome P450&lt;br&gt;Location: 151402 - 152673" locus_tag="BCB17037.1" class="clusterblast-orf" id="knownclusterblast-4_all_4_3_32"  />
</g>
<g id="a4_0033"  >
<polygon points="660,190 660,190 665,185 660,180 660,180 660,190 " style="fill:white; stroke-width:1; stroke:black; " description="&lt;b&gt;BCB17038.1&lt;/b&gt;&lt;br&gt;putative agmatinase&lt;br&gt;Location: 152723 - 153841" locus_tag="BCB17038.1" class="clusterblast-orf" id="knownclusterblast-4_all_4_3_33"  />
</g>
<g id="a4_0034"  >
<polygon points="665,190 669,185 665,180 665,190 " style="fill:white; stroke-width:1; stroke:black; " description="&lt;b&gt;BCB17039.1&lt;/b&gt;&lt;br&gt;typeII thioesterase&lt;br&gt;Location: 153957 - 154706" locus_tag="BCB17039.1" class="clusterblast-orf" id="knownclusterblast-4_all_4_3_34"  />
</g>
<g id="a4_0035"  >
<polygon points="670,185 671,180 671,190 670,185 " style="fill:white; stroke-width:1; stroke:black; " description="&lt;b&gt;BCB17040.1&lt;/b&gt;&lt;br&gt;hypothetical protein&lt;br&gt;Location: 154947 - 155147" locus_tag="BCB17040.1" class="clusterblast-orf" id="knownclusterblast-4_all_4_3_35"  />
</g>
<g id="a4_0036"  >
<polygon points="672,190 673,190 678,185 673,180 672,180 672,190 " style="fill:white; stroke-width:1; stroke:black; " description="&lt;b&gt;BCB17041.1&lt;/b&gt;&lt;br&gt;sensor protein&lt;br&gt;Location: 155472 - 156815" locus_tag="BCB17041.1" class="clusterblast-orf" id="knownclusterblast-4_all_4_3_36"  />
</g>
<g id="a4_0037"  >
<polygon points="682,185 687,180 687,180 687,190 687,190 682,185 " style="fill:white; stroke-width:1; stroke:black; " description="&lt;b&gt;BCB17042.1&lt;/b&gt;&lt;br&gt;hypothetical protein&lt;br&gt;Location: 157676 - 158935" locus_tag="BCB17042.1" class="clusterblast-orf" id="knownclusterblast-4_all_4_3_37"  />
</g>
<g id="a4_0038"  >
<polygon points="689,190 691,185 689,180 689,190 " style="fill:white; stroke-width:1; stroke:black; " description="&lt;b&gt;BCB17043.1&lt;/b&gt;&lt;br&gt;putative membrane protein&lt;br&gt;Location: 159165 - 159704" locus_tag="BCB17043.1" class="clusterblast-orf" id="knownclusterblast-4_all_4_3_38"  />
</g>
<g id="a4_0039"  >
<polygon points="691,190 693,190 698,185 693,180 691,180 691,190 " style="fill:white; stroke-width:1; stroke:black; " description="&lt;b&gt;BCB17044.1&lt;/b&gt;&lt;br&gt;putative membrane protein&lt;br&gt;Location: 159701 - 161272" locus_tag="BCB17044.1" class="clusterblast-orf" id="knownclusterblast-4_all_4_3_39"  />
</g>
<g id="a4_0040"  >
<polygon points="698,190 703,190 708,185 703,180 698,180 698,190 " style="fill:white; stroke-width:1; stroke:black; " description="&lt;b&gt;BCB17045.1&lt;/b&gt;&lt;br&gt;putative membrane protein&lt;br&gt;Location: 161389 - 163578" locus_tag="BCB17045.1" class="clusterblast-orf" id="knownclusterblast-4_all_4_3_40"  />
</g>
<g id="a4_0041"  >
<polygon points="709,185 710,180 710,190 709,185 " style="fill:white; stroke-width:1; stroke:black; " description="&lt;b&gt;BCB17046.1&lt;/b&gt;&lt;br&gt;hypothetical protein&lt;br&gt;Location: 163694 - 163969" locus_tag="BCB17046.1" class="clusterblast-orf" id="knownclusterblast-4_all_4_3_41"  />
</g>
<g id="a4_0042"  >
<polygon points="710,185 714,180 714,190 710,185 " style="fill:white; stroke-width:1; stroke:black; " description="&lt;b&gt;BCB17047.1&lt;/b&gt;&lt;br&gt;hypothetical protein&lt;br&gt;Location: 164077 - 164805" locus_tag="BCB17047.1" class="clusterblast-orf" id="knownclusterblast-4_all_4_3_42"  />
</g>
<g id="a4_0043"  >
<polygon points="714,190 716,190 721,185 716,180 714,180 714,190 " style="fill:white; stroke-width:1; stroke:black; " description="&lt;b&gt;BCB17048.1&lt;/b&gt;&lt;br&gt;hypothetical protein&lt;br&gt;Location: 164959 - 166503" locus_tag="BCB17048.1" class="clusterblast-orf" id="knownclusterblast-4_all_4_3_43"  />
</g>
<g id="a4_0044"  >
<polygon points="722,190 724,185 722,180 722,190 " style="fill:white; stroke-width:1; stroke:black; " description="&lt;b&gt;BCB17049.1&lt;/b&gt;&lt;br&gt;DNA-binding protein&lt;br&gt;Location: 166652 - 167080" locus_tag="BCB17049.1" class="clusterblast-orf" id="knownclusterblast-4_all_4_3_44"  />
</g>
<g id="a4_0045"  >
<polygon points="724,190 727,185 724,180 724,190 " style="fill:white; stroke-width:1; stroke:black; " description="&lt;b&gt;BCB17050.1&lt;/b&gt;&lt;br&gt;hypothetical protein&lt;br&gt;Location: 167124 - 167804" locus_tag="BCB17050.1" class="clusterblast-orf" id="knownclusterblast-4_all_4_3_45"  />
</g>
<g id="a4_0046"  >
<polygon points="727,190 729,185 727,180 727,190 " style="fill:white; stroke-width:1; stroke:black; " description="&lt;b&gt;BCB17051.1&lt;/b&gt;&lt;br&gt;hypothetical protein&lt;br&gt;Location: 167860 - 168279" locus_tag="BCB17051.1" class="clusterblast-orf" id="knownclusterblast-4_all_4_3_46"  />
</g>
<g id="a4_0047"  >
<polygon points="731,185 736,180 738,180 738,190 736,190 731,185 " style="fill:white; stroke-width:1; stroke:black; " description="&lt;b&gt;BCB17052.1&lt;/b&gt;&lt;br&gt;putative 6-phosphogluconate dehydrogenase&lt;br&gt;Location: 168763 - 170202" locus_tag="BCB17052.1" class="clusterblast-orf" id="knownclusterblast-4_all_4_3_47"  />
</g>
<g id="a4_0048"  >
<polygon points="738,190 742,185 738,180 738,190 " style="fill:white; stroke-width:1; stroke:black; " description="&lt;b&gt;BCB17053.1&lt;/b&gt;&lt;br&gt;putative acetyl xylan esterase&lt;br&gt;Location: 170312 - 171286" locus_tag="BCB17053.1" class="clusterblast-orf" id="knownclusterblast-4_all_4_3_48"  />
</g>
<g id="a4_0049"  >
<polygon points="743,190 744,190 749,185 744,180 743,180 743,190 " style="fill:white; stroke-width:1; stroke:black; " description="&lt;b&gt;BCB17054.1&lt;/b&gt;&lt;br&gt;putative zoocin A&lt;br&gt;Location: 171448 - 172767" locus_tag="BCB17054.1" class="clusterblast-orf" id="knownclusterblast-4_all_4_3_49"  />
</g>
<g id="a4_0050"  >
<polygon points="750,185 755,180 755,180 755,190 755,190 750,185 " style="fill:white; stroke-width:1; stroke:black; " description="&lt;b&gt;BCB17055.1&lt;/b&gt;&lt;br&gt;putative secreted protein&lt;br&gt;Location: 172903 - 174135" locus_tag="BCB17055.1" class="clusterblast-orf" id="knownclusterblast-4_all_4_3_50"  />
</g>
<g id="a4_0051"  >
<polygon points="756,190 760,185 756,180 756,190 " style="fill:white; stroke-width:1; stroke:black; " description="&lt;b&gt;BCB17056.1&lt;/b&gt;&lt;br&gt;hypothetical protein&lt;br&gt;Location: 174374 - 175150" locus_tag="BCB17056.1" class="clusterblast-orf" id="knownclusterblast-4_all_4_3_51"  />
</g>
<g id="a4_0052"  >
<polygon points="760,190 760,190 765,185 760,180 760,180 760,190 " style="fill:#d81515; stroke-width:1; stroke:black; " description="&lt;b&gt;BCB17057.1&lt;/b&gt;&lt;br&gt;putative glycosyltransferase&lt;br&gt;Location: 175187 - 176356&lt;br&gt;&lt;br&gt;&lt;b&gt;BlastP hit with HS041_25690&lt;/b&gt;&lt;br&gt;Percentage identity: 64&lt;br&gt;Percentage coverage: 99&lt;br&gt;BLAST bit score: 496&lt;br&gt;E-value: 6.94e-176" locus_tag="BCB17057.1" class="clusterblast-orf" id="knownclusterblast-4_all_4_3_52"  />
</g>
<g id="a4_0053"  >
<polygon points="765,190 766,190 771,185 766,180 765,180 765,190 " style="fill:white; stroke-width:1; stroke:black; " description="&lt;b&gt;BCB17058.1&lt;/b&gt;&lt;br&gt;putative glucose-1-phosphateadenylyltransferase&lt;br&gt;Location: 176397 - 177599" locus_tag="BCB17058.1" class="clusterblast-orf" id="knownclusterblast-4_all_4_3_53"  />
</g>
<g id="a4_0054"  >
<polygon points="771,185 775,180 775,190 771,185 " style="fill:white; stroke-width:1; stroke:black; " description="&lt;b&gt;BCB17059.1&lt;/b&gt;&lt;br&gt;putative simple sugar ABC transporter permease protein&lt;br&gt;Location: 177617 - 178642" locus_tag="BCB17059.1" class="clusterblast-orf" id="knownclusterblast-4_all_4_3_54"  />
</g>
<g id="a4_0055"  >
<polygon points="775,185 780,180 780,180 780,190 780,190 775,185 " style="fill:white; stroke-width:1; stroke:black; " description="&lt;b&gt;BCB17060.1&lt;/b&gt;&lt;br&gt;putative simple sugar ABC transporter permease protein&lt;br&gt;Location: 178639 - 179604" locus_tag="BCB17060.1" class="clusterblast-orf" id="knownclusterblast-4_all_4_3_55"  />
</g>
</svg>
