<svg xmlns="http://www.w3.org/2000/svg" xmlns:xlink="http://www.w3.org/1999/xlink" version="1.1" x="0" y="0" height="230" width="800" viewBox="0 0 800 230" preserveAspectRatio="none"  >
<g label="Query sequence" class="clusterblast-cluster"  >
<text x="5" y="20" class="clusterblast-acc"  >
Query sequence</text>
<line x1="10" y1="35" x2="778.0" y2="35" style="stroke-width:1; stroke:grey; "  />
<polygon points="82,40 96,40 101,35 96,30 82,30 82,40 " style="fill:white; stroke-width:1; stroke:black; " description="&lt;b&gt;HS041_13055&lt;/b&gt;&lt;br&gt;EAL domain-containing protein&lt;br&gt;Location: 68739 - 70212" locus_tag="HS041_13055" class="clusterblast-orf" id="dummy-1_q0_0_all"  />
<polygon points="101,35 106,30 120,30 120,40 106,40 101,35 " style="fill:white; stroke-width:1; stroke:black; " description="&lt;b&gt;HS041_13060&lt;/b&gt;&lt;br&gt;AMP-binding protein&lt;br&gt;Location: 70222 - 71707" locus_tag="HS041_13060" class="clusterblast-orf" id="dummy-1_q1_0_all"  />
<polygon points="120,35 125,30 133,30 133,40 125,40 120,35 " style="fill:white; stroke-width:1; stroke:black; " description="&lt;b&gt;HS041_13065&lt;/b&gt;&lt;br&gt;LLM class flavin-dependent oxidoreductase&lt;br&gt;Location: 71729 - 72788" locus_tag="HS041_13065" class="clusterblast-orf" id="dummy-1_q2_0_all"  />
<polygon points="135,40 146,40 151,35 146,30 135,30 135,40 " style="fill:white; stroke-width:1; stroke:black; " description="&lt;b&gt;HS041_13070&lt;/b&gt;&lt;br&gt;alpha/beta fold hydrolase&lt;br&gt;Location: 72971 - 74225" locus_tag="HS041_13070" class="clusterblast-orf" id="dummy-1_q3_0_all"  />
<polygon points="152,35 157,30 160,30 160,40 157,40 152,35 " style="fill:white; stroke-width:1; stroke:black; " description="&lt;b&gt;HS041_13075&lt;/b&gt;&lt;br&gt;M15 family metallopeptidase&lt;br&gt;Location: 74277 - 74961" locus_tag="HS041_13075" class="clusterblast-orf" id="dummy-1_q4_0_all"  />
<polygon points="162,35 167,30 201,30 201,40 167,40 162,35 " style="fill:white; stroke-width:1; stroke:black; " description="&lt;b&gt;HS041_13080&lt;/b&gt;&lt;br&gt;winged helix-turn-helix domain-containing protein&lt;br&gt;Location: 75116 - 78197" locus_tag="HS041_13080" class="clusterblast-orf" id="dummy-1_q5_0_all"  />
<polygon points="204,40 217,40 222,35 217,30 204,30 204,40 " style="fill:white; stroke-width:1; stroke:black; " description="&lt;b&gt;HS041_13085&lt;/b&gt;&lt;br&gt;CHAP domain-containing protein&lt;br&gt;Location: 78476 - 79865" locus_tag="HS041_13085" class="clusterblast-orf" id="dummy-1_q6_0_all"  />
<polygon points="224,40 237,40 242,35 237,30 224,30 224,40 " style="fill:white; stroke-width:1; stroke:black; " description="&lt;b&gt;HS041_13090&lt;/b&gt;&lt;br&gt;VCBS repeat-containing protein&lt;br&gt;Location: 80011 - 81466" locus_tag="HS041_13090" class="clusterblast-orf" id="dummy-1_q7_0_all"  />
<polygon points="243,35 247,30 247,40 243,35 " style="fill:white; stroke-width:1; stroke:black; " description="&lt;b&gt;HS041_13095&lt;/b&gt;&lt;br&gt;SCO4226 family nickel-binding protein&lt;br&gt;Location: 81600 - 81849" locus_tag="HS041_13095" class="clusterblast-orf" id="dummy-1_q8_0_all"  />
<polygon points="248,35 253,30 266,30 266,40 253,40 248,35 " style="fill:white; stroke-width:1; stroke:black; " description="&lt;b&gt;HS041_13100&lt;/b&gt;&lt;br&gt;cyclic nucleotide-binding domain-containing protein&lt;br&gt;Location: 81979 - 83398" locus_tag="HS041_13100" class="clusterblast-orf" id="dummy-1_q9_0_all"  />
<polygon points="266,35 271,30 287,30 287,40 271,40 266,35 " style="fill:white; stroke-width:1; stroke:black; " description="&lt;b&gt;HS041_13105&lt;/b&gt;&lt;br&gt;FAD-dependent oxidoreductase&lt;br&gt;Location: 83394 - 85059" locus_tag="HS041_13105" class="clusterblast-orf" id="dummy-1_q10_0_all"  />
<polygon points="288,35 293,30 301,30 301,40 293,40 288,35 " style="fill:white; stroke-width:1; stroke:black; " description="&lt;b&gt;HS041_13110&lt;/b&gt;&lt;br&gt;glutamine synthetase beta-grasp domain-containing protein&lt;br&gt;Location: 85189 - 86209" locus_tag="HS041_13110" class="clusterblast-orf" id="dummy-1_q11_0_all"  />
<polygon points="304,40 307,40 312,35 307,30 304,30 304,40 " style="fill:white; stroke-width:1; stroke:black; " description="&lt;b&gt;HS041_13115&lt;/b&gt;&lt;br&gt;ThuA domain-containing protein&lt;br&gt;Location: 86438 - 87113" locus_tag="HS041_13115" class="clusterblast-orf" id="dummy-1_q12_0_all"  />
<polygon points="316,35 321,30 324,30 324,40 321,40 316,35 " style="fill:white; stroke-width:1; stroke:black; " description="&lt;b&gt;HS041_13120&lt;/b&gt;&lt;br&gt;MerR family transcriptional regulator&lt;br&gt;Location: 87416 - 88067" locus_tag="HS041_13120" class="clusterblast-orf" id="dummy-1_q13_0_all"  />
<polygon points="325,35 330,30 348,30 348,40 330,40 325,35 " style="fill:white; stroke-width:1; stroke:black; " description="&lt;b&gt;HS041_13125&lt;/b&gt;&lt;br&gt;non-ribosomal peptide synthetase&lt;br&gt;Location: 88149 - 89928" locus_tag="HS041_13125" class="clusterblast-orf" id="dummy-1_q14_0_all"  />
<polygon points="348,35 353,30 413,30 413,40 353,40 348,35 " style="fill:#d81515; stroke-width:1; stroke:black; " description="&lt;b&gt;HS041_13130&lt;/b&gt;&lt;br&gt;SDR family NAD(P)-dependent oxidoreductase&lt;br&gt;Location: 89932 - 95128" locus_tag="HS041_13130" class="clusterblast-orf" id="dummy-1_q15_0_all"  />
<polygon points="413,35 418,30 457,30 457,40 418,40 413,35 " style="fill:white; stroke-width:1; stroke:black; " description="&lt;b&gt;HS041_13135&lt;/b&gt;&lt;br&gt;amino acid adenylation domain-containing protein&lt;br&gt;Location: 95175 - 98622" locus_tag="HS041_13135" class="clusterblast-orf" id="dummy-1_q16_0_all"  />
<polygon points="457,35 462,30 486,30 486,40 462,40 457,35 " style="fill:white; stroke-width:1; stroke:black; " description="&lt;b&gt;HS041_13140&lt;/b&gt;&lt;br&gt;lantibiotic dehydratase&lt;br&gt;Location: 98618 - 100949" locus_tag="HS041_13140" class="clusterblast-orf" id="dummy-1_q17_0_all"  />
<polygon points="487,35 492,30 497,30 497,40 492,40 487,35 " style="fill:white; stroke-width:1; stroke:black; " description="&lt;b&gt;HS041_13145&lt;/b&gt;&lt;br&gt;thioesterase&lt;br&gt;Location: 101025 - 101805" locus_tag="HS041_13145" class="clusterblast-orf" id="dummy-1_q18_0_all"  />
<polygon points="497,35 502,30 517,30 517,40 502,40 497,35 " style="fill:#d81515; stroke-width:1; stroke:black; " description="&lt;b&gt;HS041_13150&lt;/b&gt;&lt;br&gt;hypothetical protein&lt;br&gt;Location: 101807 - 103448" locus_tag="HS041_13150" class="clusterblast-orf" id="dummy-1_q19_0_all"  />
<polygon points="517,35 522,30 534,30 534,40 522,40 517,35 " style="fill:white; stroke-width:1; stroke:black; " description="&lt;b&gt;HS041_13155&lt;/b&gt;&lt;br&gt;hypothetical protein&lt;br&gt;Location: 103447 - 104782" locus_tag="HS041_13155" class="clusterblast-orf" id="dummy-1_q20_0_all"  />
<polygon points="534,35 539,30 547,30 547,40 539,40 534,35 " style="fill:white; stroke-width:1; stroke:black; " description="&lt;b&gt;HS041_13160&lt;/b&gt;&lt;br&gt;potassium transporter TrkA&lt;br&gt;Location: 104798 - 105848" locus_tag="HS041_13160" class="clusterblast-orf" id="dummy-1_q21_0_all"  />
<polygon points="554,40 557,35 554,30 554,40 " style="fill:#15d8d8; stroke-width:1; stroke:black; " description="&lt;b&gt;HS041_13165&lt;/b&gt;&lt;br&gt;MbtH family NRPS accessory protein&lt;br&gt;Location: 106390 - 106594" locus_tag="HS041_13165" class="clusterblast-orf" id="dummy-1_q22_0_all"  />
<polygon points="558,40 558,40 563,35 558,30 558,30 558,40 " style="fill:white; stroke-width:1; stroke:black; " description="&lt;b&gt;HS041_13170&lt;/b&gt;&lt;br&gt;hypothetical protein&lt;br&gt;Location: 106744 - 107074" locus_tag="HS041_13170" class="clusterblast-orf" id="dummy-1_q23_0_all"  />
<polygon points="562,35 567,30 572,30 572,40 567,40 562,35 " style="fill:white; stroke-width:1; stroke:black; " description="&lt;b&gt;HS041_13175&lt;/b&gt;&lt;br&gt;SAM-dependent methyltransferase&lt;br&gt;Location: 107045 - 107855" locus_tag="HS041_13175" class="clusterblast-orf" id="dummy-1_q24_0_all"  />
<polygon points="574,35 579,30 581,30 581,40 579,40 574,35 " style="fill:white; stroke-width:1; stroke:black; " description="&lt;b&gt;HS041_13180&lt;/b&gt;&lt;br&gt;CGNR zinc finger domain-containing protein&lt;br&gt;Location: 108005 - 108545" locus_tag="HS041_13180" class="clusterblast-orf" id="dummy-1_q25_0_all"  />
<polygon points="583,40 589,40 594,35 589,30 583,30 583,40 " style="fill:white; stroke-width:1; stroke:black; " description="&lt;b&gt;HS041_13185&lt;/b&gt;&lt;br&gt;SDR family NAD(P)-dependent oxidoreductase&lt;br&gt;Location: 108724 - 109567" locus_tag="HS041_13185" class="clusterblast-orf" id="dummy-1_q26_0_all"  />
<polygon points="596,40 605,40 610,35 605,30 596,30 596,40 " style="fill:white; stroke-width:1; stroke:black; " description="&lt;b&gt;HS041_13190&lt;/b&gt;&lt;br&gt;acetyl-CoA acetyltransferase&lt;br&gt;Location: 109781 - 110864" locus_tag="HS041_13190" class="clusterblast-orf" id="dummy-1_q27_0_all"  />
<polygon points="611,40 617,40 622,35 617,30 611,30 611,40 " style="fill:white; stroke-width:1; stroke:black; " description="&lt;b&gt;HS041_13195&lt;/b&gt;&lt;br&gt;MurR/RpiR family transcriptional regulator&lt;br&gt;Location: 110952 - 111822" locus_tag="HS041_13195" class="clusterblast-orf" id="dummy-1_q28_0_all"  />
<polygon points="622,40 627,40 632,35 627,30 622,30 622,40 " style="fill:white; stroke-width:1; stroke:black; " description="&lt;b&gt;HS041_13200&lt;/b&gt;&lt;br&gt;SIS domain-containing protein&lt;br&gt;Location: 111826 - 112585" locus_tag="HS041_13200" class="clusterblast-orf" id="dummy-1_q29_0_all"  />
<polygon points="632,40 645,40 650,35 645,30 632,30 632,40 " style="fill:white; stroke-width:1; stroke:black; " description="&lt;b&gt;HS041_13205&lt;/b&gt;&lt;br&gt;carbohydrate ABC transporter, N-acetylglucosamine/diacetylchitobiose-binding protein&lt;br&gt;Location: 112590 - 114021" locus_tag="HS041_13205" class="clusterblast-orf" id="dummy-1_q30_0_all"  />
<polygon points="652,40 658,40 663,35 658,30 652,30 652,40 " style="fill:white; stroke-width:1; stroke:black; " description="&lt;b&gt;HS041_13210&lt;/b&gt;&lt;br&gt;sugar ABC transporter permease&lt;br&gt;Location: 114210 - 115113" locus_tag="HS041_13210" class="clusterblast-orf" id="dummy-1_q31_0_all"  />
<polygon points="663,40 670,40 675,35 670,30 663,30 663,40 " style="fill:white; stroke-width:1; stroke:black; " description="&lt;b&gt;HS041_13215&lt;/b&gt;&lt;br&gt;carbohydrate ABC transporter permease&lt;br&gt;Location: 115112 - 116024" locus_tag="HS041_13215" class="clusterblast-orf" id="dummy-1_q32_0_all"  />
<polygon points="677,40 683,40 688,35 683,30 677,30 677,40 " style="fill:white; stroke-width:1; stroke:black; " description="&lt;b&gt;HS041_13220&lt;/b&gt;&lt;br&gt;chitosanase&lt;br&gt;Location: 116201 - 117092" locus_tag="HS041_13220" class="clusterblast-orf" id="dummy-1_q33_0_all"  />
<polygon points="689,35 694,30 697,30 697,40 694,40 689,35 " style="fill:white; stroke-width:1; stroke:black; " description="&lt;b&gt;HS041_13225&lt;/b&gt;&lt;br&gt;DNA alkylation repair protein&lt;br&gt;Location: 117189 - 117801" locus_tag="HS041_13225" class="clusterblast-orf" id="dummy-1_q34_0_all"  />
</g>
<g label="BGC0001231" description="BGC0001231_c1: microsclerodermin (14% of genes show similarity), NRP+Polyketide:Modular type I polyketide" class="clusterblast-cluster"  >
<text x="5" y="70" class="clusterblast-acc"  >
<a xlink:href="https://mibig.secondarymetabolites.org/go/BGC0001231/1" target="_blank">BGC0001231</a>: microsclerodermin                                                                (14% of genes show similarity), NRP+Polyketide:Modular type I polyketide</text>
<line x1="10" y1="85" x2="778.0" y2="85" style="stroke-width:1; stroke:grey; "  />
</g>
<g id="a1_000"  >
<polygon points="0,90 15,90 20,85 15,80 0,80 0,90 " style="fill:white; stroke-width:1; stroke:black; " description="&lt;b&gt;AHB82073.1&lt;/b&gt;&lt;br&gt;tryptophan halogenase&lt;br&gt;Location: 62268 - 60661" locus_tag="AHB82073.1" class="clusterblast-orf" id="dummy-1_h1_5_0"  />
</g>
<g id="a1_001"  >
<polygon points="20,85 25,80 131,80 131,90 25,90 20,85 " style="fill:#d81515; stroke-width:1; stroke:black; " description="&lt;b&gt;AHB82072.1&lt;/b&gt;&lt;br&gt;non ribosomal peptide synthetase/polyketide synthase&lt;br&gt;Location: 60668 - 51789&lt;br&gt;&lt;br&gt;&lt;b&gt;BlastP hit with HS041_13130&lt;/b&gt;&lt;br&gt;Percentage identity: 47&lt;br&gt;Percentage coverage: 73&lt;br&gt;BLAST bit score: 979&lt;br&gt;E-value: 8.26e-315&lt;br&gt;&lt;br&gt;&lt;b&gt;BlastP hit with HS041_13150&lt;/b&gt;&lt;br&gt;Percentage identity: 48&lt;br&gt;Percentage coverage: 93&lt;br&gt;BLAST bit score: 416&lt;br&gt;E-value: 7.31e-129" locus_tag="AHB82072.1" class="clusterblast-orf" id="dummy-1_h1_5_1"  />
</g>
<g id="a1_002"  >
<polygon points="131,85 136,80 285,80 285,90 136,90 131,85 " style="fill:white; stroke-width:1; stroke:black; " description="&lt;b&gt;AHB82071.1&lt;/b&gt;&lt;br&gt;non ribosomal peptide synthetase&lt;br&gt;Location: 51792 - 39472" locus_tag="AHB82071.1" class="clusterblast-orf" id="dummy-1_h1_5_2"  />
</g>
<g id="a1_003"  >
<polygon points="286,85 291,80 343,80 343,90 291,90 286,85 " style="fill:white; stroke-width:1; stroke:black; " description="&lt;b&gt;AHB82070.1&lt;/b&gt;&lt;br&gt;polyketide synthase&lt;br&gt;Location: 39393 - 34858" locus_tag="AHB82070.1" class="clusterblast-orf" id="dummy-1_h1_5_3"  />
</g>
<g id="a1_004"  >
<polygon points="343,85 348,80 425,80 425,90 348,90 343,85 " style="fill:white; stroke-width:1; stroke:black; " description="&lt;b&gt;AHB82069.1&lt;/b&gt;&lt;br&gt;non ribosomal peptide synthetase&lt;br&gt;Location: 34856 - 28287" locus_tag="AHB82069.1" class="clusterblast-orf" id="dummy-1_h1_5_4"  />
</g>
<g id="a1_005"  >
<polygon points="430,90 439,90 444,85 439,80 430,80 430,90 " style="fill:white; stroke-width:1; stroke:black; " description="&lt;b&gt;AHB82068.1&lt;/b&gt;&lt;br&gt;Putative Amidohydrolase&lt;br&gt;Location: 27907 - 26747" locus_tag="AHB82068.1" class="clusterblast-orf" id="dummy-1_h1_5_5"  />
</g>
<g id="a1_006"  >
<polygon points="445,90 450,90 455,85 450,80 445,80 445,90 " style="fill:white; stroke-width:1; stroke:black; " description="&lt;b&gt;AHB82067.1&lt;/b&gt;&lt;br&gt;methyltransferase&lt;br&gt;Location: 26714 - 25881" locus_tag="AHB82067.1" class="clusterblast-orf" id="dummy-1_h1_5_6"  />
</g>
<g id="a1_007"  >
<polygon points="455,85 460,80 472,80 472,90 460,90 455,85 " style="fill:white; stroke-width:1; stroke:black; " description="&lt;b&gt;AHB82066.1&lt;/b&gt;&lt;br&gt;Fe(II)/α-ketoglutarate dependent oxygenase&lt;br&gt;Location: 25899 - 24583" locus_tag="AHB82066.1" class="clusterblast-orf" id="dummy-1_h1_5_7"  />
</g>
<g id="a1_008"  >
<polygon points="472,85 477,80 504,80 504,90 477,90 472,85 " style="fill:white; stroke-width:1; stroke:black; " description="&lt;b&gt;AHB82065.1&lt;/b&gt;&lt;br&gt;polyketide synthase&lt;br&gt;Location: 24546 - 22000" locus_tag="AHB82065.1" class="clusterblast-orf" id="dummy-1_h1_5_8"  />
</g>
<g id="a1_009"  >
<polygon points="504,85 509,80 562,80 562,90 509,90 504,85 " style="fill:white; stroke-width:1; stroke:black; " description="&lt;b&gt;AHB82064.1&lt;/b&gt;&lt;br&gt;polyketide synthase&lt;br&gt;Location: 21990 - 17341" locus_tag="AHB82064.1" class="clusterblast-orf" id="dummy-1_h1_5_9"  />
</g>
<g id="a1_0010"  >
<polygon points="562,85 567,80 595,80 595,90 567,90 562,85 " style="fill:white; stroke-width:1; stroke:black; " description="&lt;b&gt;AHB82063.1&lt;/b&gt;&lt;br&gt;polyketide synthase&lt;br&gt;Location: 17354 - 14718" locus_tag="AHB82063.1" class="clusterblast-orf" id="dummy-1_h1_5_10"  />
</g>
<g id="a1_0011"  >
<polygon points="595,85 600,80 728,80 728,90 600,90 595,85 " style="fill:#d81515; stroke-width:1; stroke:black; " description="&lt;b&gt;AHB82062.1&lt;/b&gt;&lt;br&gt;polyketide synthase&lt;br&gt;Location: 14731 - 4124&lt;br&gt;&lt;br&gt;&lt;b&gt;BlastP hit with HS041_13150&lt;/b&gt;&lt;br&gt;Percentage identity: 46&lt;br&gt;Percentage coverage: 95&lt;br&gt;BLAST bit score: 412&lt;br&gt;E-value: 1.2e-127" locus_tag="AHB82062.1" class="clusterblast-orf" id="dummy-1_h1_5_11"  />
</g>
<g id="a1_0012"  >
<polygon points="732,85 737,80 742,80 742,90 737,90 732,85 " style="fill:white; stroke-width:1; stroke:black; " description="&lt;b&gt;AHB82061.1&lt;/b&gt;&lt;br&gt;Thioesterase II&lt;br&gt;Location: 3794 - 3006" locus_tag="AHB82061.1" class="clusterblast-orf" id="dummy-1_h1_5_12"  />
</g>
<g id="a1_0013"  >
<polygon points="763,90 775,90 780,85 775,80 763,80 763,90 " style="fill:white; stroke-width:1; stroke:black; " description="&lt;b&gt;AHB82060.1&lt;/b&gt;&lt;br&gt;MFS transporter&lt;br&gt;Location: 1350 - 1" locus_tag="AHB82060.1" class="clusterblast-orf" id="dummy-1_h1_5_13"  />
</g>
</svg>
