<svg xmlns="http://www.w3.org/2000/svg" xmlns:xlink="http://www.w3.org/1999/xlink" version="1.1" x="0" y="0" height="230" width="800" viewBox="0 0 800 230" preserveAspectRatio="none"  >
<g label="Query sequence" class="clusterblast-cluster"  >
<text x="5" y="20" class="clusterblast-acc"  >
Query sequence</text>
<line x1="10" y1="35" x2="778.0" y2="35" style="stroke-width:1; stroke:grey; "  />
<polygon points="165,35 170,30 179,30 179,40 170,40 165,35 " style="fill:white; stroke-width:1; stroke:black; " description="&lt;b&gt;HS041_36530&lt;/b&gt;&lt;br&gt;LysR family transcriptional regulator&lt;br&gt;Location: 418494 - 419457" locus_tag="HS041_36530" class="clusterblast-orf" id="dummy-3_q0_0_all"  />
<polygon points="185,40 198,40 203,35 198,30 185,30 185,40 " style="fill:#d81515; stroke-width:1; stroke:black; " description="&lt;b&gt;HS041_36535&lt;/b&gt;&lt;br&gt;arginine deiminase&lt;br&gt;Location: 419904 - 421152" locus_tag="HS041_36535" class="clusterblast-orf" id="dummy-3_q1_0_all"  />
<polygon points="204,40 213,40 218,35 213,30 204,30 204,40 " style="fill:#15d815; stroke-width:1; stroke:black; " description="&lt;b&gt;HS041_36540&lt;/b&gt;&lt;br&gt;ornithine carbamoyltransferase&lt;br&gt;Location: 421178 - 422183" locus_tag="HS041_36540" class="clusterblast-orf" id="dummy-3_q2_0_all"  />
<polygon points="219,35 224,30 229,30 229,40 224,40 219,35 " style="fill:#1515d8; stroke-width:1; stroke:black; " description="&lt;b&gt;HS041_36545&lt;/b&gt;&lt;br&gt;thioesterase&lt;br&gt;Location: 422231 - 422939" locus_tag="HS041_36545" class="clusterblast-orf" id="dummy-3_q3_0_all"  />
<polygon points="230,35 235,30 251,30 251,40 235,40 230,35 " style="fill:white; stroke-width:1; stroke:black; " description="&lt;b&gt;HS041_36550&lt;/b&gt;&lt;br&gt;MFS transporter&lt;br&gt;Location: 422971 - 424405" locus_tag="HS041_36550" class="clusterblast-orf" id="dummy-3_q4_0_all"  />
<polygon points="252,35 257,30 264,30 264,40 257,40 252,35 " style="fill:#d815d8; stroke-width:1; stroke:black; " description="&lt;b&gt;HS041_36555&lt;/b&gt;&lt;br&gt;methyltransferase domain-containing protein&lt;br&gt;Location: 424476 - 425313" locus_tag="HS041_36555" class="clusterblast-orf" id="dummy-3_q5_0_all"  />
<polygon points="264,35 269,30 275,30 275,40 269,40 264,35 " style="fill:white; stroke-width:1; stroke:black; " description="&lt;b&gt;HS041_36560&lt;/b&gt;&lt;br&gt;class I SAM-dependent methyltransferase&lt;br&gt;Location: 425339 - 426083" locus_tag="HS041_36560" class="clusterblast-orf" id="dummy-3_q6_0_all"  />
<polygon points="275,35 280,30 287,30 287,40 280,40 275,35 " style="fill:white; stroke-width:1; stroke:black; " description="&lt;b&gt;HS041_36565&lt;/b&gt;&lt;br&gt;class I SAM-dependent methyltransferase&lt;br&gt;Location: 426079 - 426922" locus_tag="HS041_36565" class="clusterblast-orf" id="dummy-3_q7_0_all"  />
<polygon points="288,35 293,30 313,30 313,40 293,40 288,35 " style="fill:white; stroke-width:1; stroke:black; " description="&lt;b&gt;HS041_36570&lt;/b&gt;&lt;br&gt;hypothetical protein&lt;br&gt;Location: 426937 - 428644" locus_tag="HS041_36570" class="clusterblast-orf" id="dummy-3_q8_0_all"  />
<polygon points="313,35 318,30 319,30 319,40 318,40 313,35 " style="fill:white; stroke-width:1; stroke:black; " description="&lt;b&gt;HS041_36575&lt;/b&gt;&lt;br&gt;hypothetical protein&lt;br&gt;Location: 428640 - 429072" locus_tag="HS041_36575" class="clusterblast-orf" id="dummy-3_q9_0_all"  />
<polygon points="319,35 324,30 342,30 342,40 324,40 319,35 " style="fill:white; stroke-width:1; stroke:black; " description="&lt;b&gt;HS041_36580&lt;/b&gt;&lt;br&gt;hypothetical protein&lt;br&gt;Location: 429068 - 430640" locus_tag="HS041_36580" class="clusterblast-orf" id="dummy-3_q10_0_all"  />
<polygon points="344,40 351,40 356,35 351,30 344,30 344,40 " style="fill:white; stroke-width:1; stroke:black; " description="&lt;b&gt;HS041_36585&lt;/b&gt;&lt;br&gt;serine/threonine protein kinase&lt;br&gt;Location: 430794 - 431598" locus_tag="HS041_36585" class="clusterblast-orf" id="dummy-3_q11_0_all"  />
<polygon points="356,35 361,30 374,30 374,40 361,40 356,35 " style="fill:white; stroke-width:1; stroke:black; " description="&lt;b&gt;HS041_36590&lt;/b&gt;&lt;br&gt;MFS transporter&lt;br&gt;Location: 431587 - 432871" locus_tag="HS041_36590" class="clusterblast-orf" id="dummy-3_q12_0_all"  />
<polygon points="375,35 378,30 378,40 375,35 " style="fill:#d8d815; stroke-width:1; stroke:black; " description="&lt;b&gt;HS041_36595&lt;/b&gt;&lt;br&gt;MbtH family NRPS accessory protein&lt;br&gt;Location: 432924 - 433152" locus_tag="HS041_36595" class="clusterblast-orf" id="dummy-3_q13_0_all"  />
<polygon points="379,35 384,30 396,30 396,40 384,40 379,35 " style="fill:white; stroke-width:1; stroke:black; " description="&lt;b&gt;HS041_36600&lt;/b&gt;&lt;br&gt;VCBS repeat-containing protein&lt;br&gt;Location: 433179 - 434334" locus_tag="HS041_36600" class="clusterblast-orf" id="dummy-3_q14_0_all"  />
<polygon points="396,35 401,30 404,30 404,40 401,40 396,35 " style="fill:white; stroke-width:1; stroke:black; " description="&lt;b&gt;HS041_36605&lt;/b&gt;&lt;br&gt;hypothetical protein&lt;br&gt;Location: 434330 - 434945" locus_tag="HS041_36605" class="clusterblast-orf" id="dummy-3_q15_0_all"  />
<polygon points="405,35 410,30 424,30 424,40 410,40 405,35 " style="fill:white; stroke-width:1; stroke:black; " description="&lt;b&gt;HS041_36610&lt;/b&gt;&lt;br&gt;cytochrome P450&lt;br&gt;Location: 434956 - 436270" locus_tag="HS041_36610" class="clusterblast-orf" id="dummy-3_q16_0_all"  />
<polygon points="424,35 429,30 439,30 439,40 429,40 424,35 " style="fill:white; stroke-width:1; stroke:black; " description="&lt;b&gt;HS041_36615&lt;/b&gt;&lt;br&gt;methyltransferase&lt;br&gt;Location: 436266 - 437283" locus_tag="HS041_36615" class="clusterblast-orf" id="dummy-3_q17_0_all"  />
<polygon points="439,35 444,30 503,30 503,40 444,40 439,35 " style="fill:white; stroke-width:1; stroke:black; " description="&lt;b&gt;HS041_36620&lt;/b&gt;&lt;br&gt;amino acid adenylation domain-containing protein&lt;br&gt;Location: 437279 - 441701" locus_tag="HS041_36620" class="clusterblast-orf" id="dummy-3_q18_0_all"  />
<polygon points="503,35 508,30 546,30 546,40 508,40 503,35 " style="fill:#15d8d8; stroke-width:1; stroke:black; " description="&lt;b&gt;HS041_36625&lt;/b&gt;&lt;br&gt;acyltransferase domain-containing protein&lt;br&gt;Location: 441697 - 444619" locus_tag="HS041_36625" class="clusterblast-orf" id="dummy-3_q19_0_all"  />
<polygon points="546,35 551,30 615,30 615,40 551,40 546,35 " style="fill:white; stroke-width:1; stroke:black; " description="&lt;b&gt;HS041_36630&lt;/b&gt;&lt;br&gt;AMP-binding protein&lt;br&gt;Location: 444624 - 449361" locus_tag="HS041_36630" class="clusterblast-orf" id="dummy-3_q20_0_all"  />
</g>
<g label="BGC0002107" description="BGC0002107_c1: fabrubactin A/fabrubactin B (7% of genes show similarity), NRP+Polyketide" class="clusterblast-cluster"  >
<text x="5" y="70" class="clusterblast-acc"  >
<a xlink:href="https://mibig.secondarymetabolites.org/go/BGC0002107/1" target="_blank">BGC0002107</a>: fabrubactin A/fabrubactin B                                                      (7% of genes show similarity), NRP+Polyketide</text>
<line x1="10" y1="85" x2="778.0" y2="85" style="stroke-width:1; stroke:grey; "  />
</g>
<g id="a3_000"  >
<polygon points="0,85 5,80 14,80 14,90 5,90 0,85 " style="fill:white; stroke-width:1; stroke:black; " description="&lt;b&gt;Atu3693&lt;/b&gt;&lt;br&gt;two component sensor kinase&lt;br&gt;Location: 53477 - 52506" locus_tag="Atu3693" class="clusterblast-orf" id="dummy-3_h3_4_0"  />
</g>
<g id="a3_001"  >
<polygon points="14,85 19,80 22,80 22,90 19,90 14,85 " style="fill:white; stroke-width:1; stroke:black; " description="&lt;b&gt;Atu3692&lt;/b&gt;&lt;br&gt;sigma factor&lt;br&gt;Location: 52458 - 51916" locus_tag="Atu3692" class="clusterblast-orf" id="dummy-3_h3_4_1"  />
</g>
<g id="a3_002"  >
<polygon points="27,85 32,80 39,80 39,90 32,90 27,85 " style="fill:white; stroke-width:1; stroke:black; " description="&lt;b&gt;Atu3691&lt;/b&gt;&lt;br&gt;ABC transporter, nucleotide binding/ATPase protein (iron (III) dicitrate)&lt;br&gt;Location: 51564 - 50761" locus_tag="Atu3691" class="clusterblast-orf" id="dummy-3_h3_4_2"  />
</g>
<g id="a3_003"  >
<polygon points="39,85 44,80 53,80 53,90 44,90 39,85 " style="fill:white; stroke-width:1; stroke:black; " description="&lt;b&gt;Atu3690&lt;/b&gt;&lt;br&gt;ABC transporter, membrane spanning protein (iron (III) dicitrate)&lt;br&gt;Location: 50768 - 49794" locus_tag="Atu3690" class="clusterblast-orf" id="dummy-3_h3_4_3"  />
</g>
<g id="a3_004"  >
<polygon points="53,85 58,80 68,80 68,90 58,90 53,85 " style="fill:white; stroke-width:1; stroke:black; " description="&lt;b&gt;Atu3689&lt;/b&gt;&lt;br&gt;ABC transporter, membrane spanning protein (iron(III) dicitrate)&lt;br&gt;Location: 49797 - 48748" locus_tag="Atu3689" class="clusterblast-orf" id="dummy-3_h3_4_4"  />
</g>
<g id="a3_005"  >
<polygon points="68,85 73,80 82,80 82,90 73,90 68,85 " style="fill:white; stroke-width:1; stroke:black; " description="&lt;b&gt;Atu3688&lt;/b&gt;&lt;br&gt;ABC transporter, membrane spanning protein (iron(III) dicitrate)&lt;br&gt;Location: 48751 - 47831" locus_tag="Atu3688" class="clusterblast-orf" id="dummy-3_h3_4_5"  />
</g>
<g id="a3_006"  >
<polygon points="83,85 88,80 118,80 118,90 88,90 83,85 " style="fill:white; stroke-width:1; stroke:black; " description="&lt;b&gt;Atu3687&lt;/b&gt;&lt;br&gt;TonB-dependent receptor&lt;br&gt;Location: 47777 - 45339" locus_tag="Atu3687" class="clusterblast-orf" id="dummy-3_h3_4_6"  />
</g>
<g id="a3_007"  >
<polygon points="120,85 125,80 133,80 133,90 125,90 120,85 " style="fill:white; stroke-width:1; stroke:black; " description="&lt;b&gt;Atu3686&lt;/b&gt;&lt;br&gt;putative siderophore biosynthesis protein&lt;br&gt;Location: 45205 - 44312" locus_tag="Atu3686" class="clusterblast-orf" id="dummy-3_h3_4_7"  />
</g>
<g id="a3_008"  >
<polygon points="134,85 139,80 144,80 144,90 139,90 134,85 " style="fill:white; stroke-width:1; stroke:black; " description="&lt;b&gt;Atu3685&lt;/b&gt;&lt;br&gt;Thioesterase, putative siderophore biosynthesis protein&lt;br&gt;Location: 44284 - 43538" locus_tag="Atu3685" class="clusterblast-orf" id="dummy-3_h3_4_8"  />
</g>
<g id="a3_009"  >
<polygon points="145,85 150,80 169,80 169,90 150,90 145,85 " style="fill:white; stroke-width:1; stroke:black; " description="&lt;b&gt;Atu3684&lt;/b&gt;&lt;br&gt;siderophore biosynthesis protein&lt;br&gt;Location: 43523 - 41856" locus_tag="Atu3684" class="clusterblast-orf" id="dummy-3_h3_4_9"  />
</g>
<g id="a3_0010"  >
<polygon points="169,85 174,80 281,80 281,90 174,90 169,85 " style="fill:white; stroke-width:1; stroke:black; " description="&lt;b&gt;Atu3683&lt;/b&gt;&lt;br&gt;peptide synthetase, siderophore biosynthesis protein&lt;br&gt;Location: 41851 - 34160" locus_tag="Atu3683" class="clusterblast-orf" id="dummy-3_h3_4_10"  />
</g>
<g id="a3_0011"  >
<polygon points="281,85 286,80 386,80 386,90 286,90 281,85 " style="fill:white; stroke-width:1; stroke:black; " description="&lt;b&gt;Atu3682&lt;/b&gt;&lt;br&gt;non-ribosomal peptide synthetase, siderophore biosynthesis protein&lt;br&gt;Location: 34148 - 26949" locus_tag="Atu3682" class="clusterblast-orf" id="dummy-3_h3_4_11"  />
</g>
<g id="a3_0012"  >
<polygon points="386,85 391,80 451,80 451,90 391,90 386,85 " style="fill:#15d8d8; stroke-width:1; stroke:black; " description="&lt;b&gt;Atu3681&lt;/b&gt;&lt;br&gt;polyketide synthetase, siderophore biosynthesis protein&lt;br&gt;Location: 26952 - 22519&lt;br&gt;&lt;br&gt;&lt;b&gt;BlastP hit with HS041_36625&lt;/b&gt;&lt;br&gt;Percentage identity: 47&lt;br&gt;Percentage coverage: 91&lt;br&gt;BLAST bit score: 672&lt;br&gt;E-value: 1.06e-221" locus_tag="Atu3681" class="clusterblast-orf" id="dummy-3_h3_4_12"  />
</g>
<g id="a3_0013"  >
<polygon points="452,85 457,80 460,80 460,90 457,90 452,85 " style="fill:white; stroke-width:1; stroke:black; " description="&lt;b&gt;Atu3680&lt;/b&gt;&lt;br&gt;putative siderophore biosynthesis protein&lt;br&gt;Location: 22481 - 21918" locus_tag="Atu3680" class="clusterblast-orf" id="dummy-3_h3_4_13"  />
</g>
<g id="a3_0014"  >
<polygon points="460,85 465,80 467,80 467,90 465,90 460,85 " style="fill:white; stroke-width:1; stroke:black; " description="&lt;b&gt;Atu3679&lt;/b&gt;&lt;br&gt;putative siderophore biosynthesis protein&lt;br&gt;Location: 21921 - 21403" locus_tag="Atu3679" class="clusterblast-orf" id="dummy-3_h3_4_14"  />
</g>
<g id="a3_0015"  >
<polygon points="467,85 471,80 471,90 467,85 " style="fill:#d8d815; stroke-width:1; stroke:black; " description="&lt;b&gt;Atu3678&lt;/b&gt;&lt;br&gt;putative siderophore biosynthesis protein&lt;br&gt;Location: 21392 - 21153&lt;br&gt;&lt;br&gt;&lt;b&gt;BlastP hit with HS041_36595&lt;/b&gt;&lt;br&gt;Percentage identity: 51&lt;br&gt;Percentage coverage: 84&lt;br&gt;BLAST bit score: 71&lt;br&gt;E-value: 1.09e-17" locus_tag="Atu3678" class="clusterblast-orf" id="dummy-3_h3_4_15"  />
</g>
<g id="a3_0016"  >
<polygon points="471,85 476,80 493,80 493,90 476,90 471,85 " style="fill:white; stroke-width:1; stroke:black; " description="&lt;b&gt;Atu3677&lt;/b&gt;&lt;br&gt;polyketide synthase, siderophore biosynthesis protein&lt;br&gt;Location: 21138 - 19663" locus_tag="Atu3677" class="clusterblast-orf" id="dummy-3_h3_4_16"  />
</g>
<g id="a3_0017"  >
<polygon points="493,85 498,80 506,80 506,90 498,90 493,85 " style="fill:white; stroke-width:1; stroke:black; " description="&lt;b&gt;Atu3676&lt;/b&gt;&lt;br&gt;putative siderophore biosynthesis protein&lt;br&gt;Location: 19666 - 18770" locus_tag="Atu3676" class="clusterblast-orf" id="dummy-3_h3_4_17"  />
</g>
<g id="a3_0018"  >
<polygon points="506,85 511,80 572,80 572,90 511,90 506,85 " style="fill:white; stroke-width:1; stroke:black; " description="&lt;b&gt;Atu3675&lt;/b&gt;&lt;br&gt;peptide synthetase, siderophore biosynthesis protein&lt;br&gt;Location: 18773 - 14211" locus_tag="Atu3675" class="clusterblast-orf" id="dummy-3_h3_4_18"  />
</g>
<g id="a3_0019"  >
<polygon points="573,90 576,85 573,80 573,90 " style="fill:white; stroke-width:1; stroke:black; " description="&lt;b&gt;Atu3674&lt;/b&gt;&lt;br&gt;hypothetical protein&lt;br&gt;Location: 14165 - 13962" locus_tag="Atu3674" class="clusterblast-orf" id="dummy-3_h3_4_19"  />
</g>
<g id="a3_0020"  >
<polygon points="577,90 605,90 610,85 605,80 577,80 577,90 " style="fill:white; stroke-width:1; stroke:black; " description="&lt;b&gt;Atu3673&lt;/b&gt;&lt;br&gt;siderophore biosynthesis protein&lt;br&gt;Location: 13889 - 11637" locus_tag="Atu3673" class="clusterblast-orf" id="dummy-3_h3_4_20"  />
</g>
<g id="a3_0021"  >
<polygon points="610,90 672,90 677,85 672,80 610,80 610,90 " style="fill:white; stroke-width:1; stroke:black; " description="&lt;b&gt;Atu3672&lt;/b&gt;&lt;br&gt;polyketide synthase, siderophore biosynthesis protein&lt;br&gt;Location: 11595 - 7033" locus_tag="Atu3672" class="clusterblast-orf" id="dummy-3_h3_4_21"  />
</g>
<g id="a3_0022"  >
<polygon points="678,90 688,90 693,85 688,80 678,80 678,90 " style="fill:white; stroke-width:1; stroke:black; " description="&lt;b&gt;Atu3671&lt;/b&gt;&lt;br&gt;siderophore biosynthesis protein&lt;br&gt;Location: 6993 - 5926" locus_tag="Atu3671" class="clusterblast-orf" id="dummy-3_h3_4_22"  />
</g>
<g id="a3_0023"  >
<polygon points="693,90 738,90 743,85 738,80 693,80 693,90 " style="fill:white; stroke-width:1; stroke:black; " description="&lt;b&gt;Atu3670&lt;/b&gt;&lt;br&gt;siderophore biosynthesis protein&lt;br&gt;Location: 5915 - 2529" locus_tag="Atu3670" class="clusterblast-orf" id="dummy-3_h3_4_23"  />
</g>
<g id="a3_0024"  >
<polygon points="743,90 758,90 763,85 758,80 743,80 743,90 " style="fill:white; stroke-width:1; stroke:black; " description="&lt;b&gt;Atu3669&lt;/b&gt;&lt;br&gt;siderophore biosynthesis protein&lt;br&gt;Location: 2497 - 1136" locus_tag="Atu3669" class="clusterblast-orf" id="dummy-3_h3_4_24"  />
</g>
<g id="a3_0025"  >
<polygon points="765,90 767,90 772,85 767,80 765,80 765,90 " style="fill:white; stroke-width:1; stroke:black; " description="&lt;b&gt;Atu3668&lt;/b&gt;&lt;br&gt;siderophore biosynthesis protein&lt;br&gt;Location: 1021 - 500" locus_tag="Atu3668" class="clusterblast-orf" id="dummy-3_h3_4_25"  />
</g>
<g id="a3_0026"  >
<polygon points="773,85 778,80 780,80 780,90 778,90 773,85 " style="fill:white; stroke-width:1; stroke:black; " description="&lt;b&gt;Atu3667&lt;/b&gt;&lt;br&gt;aspartate 1-decarboxylase&lt;br&gt;Location: 468 - 1" locus_tag="Atu3667" class="clusterblast-orf" id="dummy-3_h3_4_26"  />
</g>
</svg>
