<svg xmlns="http://www.w3.org/2000/svg" xmlns:xlink="http://www.w3.org/1999/xlink" version="1.1" x="0" y="0" height="230" width="800" viewBox="0 0 800 230" preserveAspectRatio="none"  >
<g label="Query sequence" class="clusterblast-cluster"  >
<text x="5" y="20" class="clusterblast-acc"  >
Query sequence</text>
<line x1="10" y1="35" x2="778.0" y2="35" style="stroke-width:1; stroke:grey; "  />
<polygon points="0,40 24,40 29,35 24,30 0,30 0,40 " style="fill:#d81515; stroke-width:1; stroke:black; " description="&lt;b&gt;HS041_25690&lt;/b&gt;&lt;br&gt;glycogen synthase&lt;br&gt;Location: 917462 - 918650" locus_tag="HS041_25690" class="clusterblast-orf" id="dummy-4_q0_0_all"  />
<polygon points="31,35 36,30 52,30 52,40 36,40 31,35 " style="fill:white; stroke-width:1; stroke:black; " description="&lt;b&gt;HS041_25695&lt;/b&gt;&lt;br&gt;hypothetical protein&lt;br&gt;Location: 918724 - 919570" locus_tag="HS041_25695" class="clusterblast-orf" id="dummy-4_q1_0_all"  />
<polygon points="56,35 61,30 70,30 70,40 61,40 56,35 " style="fill:white; stroke-width:1; stroke:black; " description="&lt;b&gt;HS041_25700&lt;/b&gt;&lt;br&gt;GNAT family N-acetyltransferase&lt;br&gt;Location: 919772 - 920330" locus_tag="HS041_25700" class="clusterblast-orf" id="dummy-4_q2_0_all"  />
<polygon points="76,35 81,30 109,30 109,40 81,40 76,35 " style="fill:#15d863; stroke-width:1; stroke:black; " description="&lt;b&gt;HS041_25705&lt;/b&gt;&lt;br&gt;MHS family MFS transporter&lt;br&gt;Location: 920571 - 921921" locus_tag="HS041_25705" class="clusterblast-orf" id="dummy-4_q3_0_all"  />
<polygon points="111,40 122,40 127,35 122,30 111,30 111,40 " style="fill:white; stroke-width:1; stroke:black; " description="&lt;b&gt;HS041_25710&lt;/b&gt;&lt;br&gt;GntR family transcriptional regulator&lt;br&gt;Location: 921973 - 922660" locus_tag="HS041_25710" class="clusterblast-orf" id="dummy-4_q4_0_all"  />
<polygon points="129,40 154,40 159,35 154,30 129,30 129,40 " style="fill:white; stroke-width:1; stroke:black; " description="&lt;b&gt;HS041_25715&lt;/b&gt;&lt;br&gt;alpha/beta hydrolase fold domain-containing protein&lt;br&gt;Location: 922737 - 923937" locus_tag="HS041_25715" class="clusterblast-orf" id="dummy-4_q5_0_all"  />
<polygon points="160,35 165,30 171,30 171,40 165,40 160,35 " style="fill:white; stroke-width:1; stroke:black; " description="&lt;b&gt;HS041_25720&lt;/b&gt;&lt;br&gt;Lrp/AsnC family transcriptional regulator&lt;br&gt;Location: 923998 - 924433" locus_tag="HS041_25720" class="clusterblast-orf" id="dummy-4_q6_0_all"  />
<polygon points="175,40 191,40 196,35 191,30 175,30 175,40 " style="fill:white; stroke-width:1; stroke:black; " description="&lt;b&gt;HS041_25725&lt;/b&gt;&lt;br&gt;tryptophan 2,3-dioxygenase&lt;br&gt;Location: 924589 - 925435" locus_tag="HS041_25725" class="clusterblast-orf" id="dummy-4_q7_0_all"  />
<polygon points="197,40 226,40 231,35 226,30 197,30 197,40 " style="fill:white; stroke-width:1; stroke:black; " description="&lt;b&gt;HS041_25730&lt;/b&gt;&lt;br&gt;FAD-dependent monooxygenase&lt;br&gt;Location: 925493 - 926867" locus_tag="HS041_25730" class="clusterblast-orf" id="dummy-4_q8_0_all"  />
<polygon points="232,35 237,30 255,30 255,40 237,40 232,35 " style="fill:#1563d8; stroke-width:1; stroke:black; " description="&lt;b&gt;HS041_25735&lt;/b&gt;&lt;br&gt;LysR family transcriptional regulator&lt;br&gt;Location: 926909 - 927860" locus_tag="HS041_25735" class="clusterblast-orf" id="dummy-4_q9_0_all"  />
<polygon points="257,40 273,40 278,35 273,30 257,30 257,40 " style="fill:#b115d8; stroke-width:1; stroke:black; " description="&lt;b&gt;HS041_25740&lt;/b&gt;&lt;br&gt;dihydrodipicolinate synthase family protein&lt;br&gt;Location: 927931 - 928798" locus_tag="HS041_25740" class="clusterblast-orf" id="dummy-4_q10_0_all"  />
<polygon points="279,35 284,30 299,30 299,40 284,40 279,35 " style="fill:white; stroke-width:1; stroke:black; " description="&lt;b&gt;HS041_25745&lt;/b&gt;&lt;br&gt;Fpg/Nei family DNA glycosylase&lt;br&gt;Location: 928834 - 929644" locus_tag="HS041_25745" class="clusterblast-orf" id="dummy-4_q11_0_all"  />
<polygon points="299,35 304,30 311,30 311,40 304,40 299,35 " style="fill:white; stroke-width:1; stroke:black; " description="&lt;b&gt;HS041_25750&lt;/b&gt;&lt;br&gt;DUF2809 domain-containing protein&lt;br&gt;Location: 929652 - 930153" locus_tag="HS041_25750" class="clusterblast-orf" id="dummy-4_q12_0_all"  />
<polygon points="315,35 320,30 348,30 348,40 320,40 315,35 " style="fill:white; stroke-width:1; stroke:black; " description="&lt;b&gt;HS041_25755&lt;/b&gt;&lt;br&gt;M1 family metallopeptidase&lt;br&gt;Location: 930315 - 931635" locus_tag="HS041_25755" class="clusterblast-orf" id="dummy-4_q13_0_all"  />
<polygon points="347,35 352,30 443,30 443,40 352,40 347,35 " style="fill:#b1d815; stroke-width:1; stroke:black; " description="&lt;b&gt;HS041_25760&lt;/b&gt;&lt;br&gt;amino acid adenylation domain-containing protein&lt;br&gt;Location: 931607 - 935510" locus_tag="HS041_25760" class="clusterblast-orf" id="dummy-4_q14_0_all"  />
<polygon points="450,40 456,40 461,35 456,30 450,30 450,40 " style="fill:white; stroke-width:1; stroke:black; " description="&lt;b&gt;HS041_25765&lt;/b&gt;&lt;br&gt;STAS domain-containing protein&lt;br&gt;Location: 935786 - 936236" locus_tag="HS041_25765" class="clusterblast-orf" id="dummy-4_q15_0_all"  />
<polygon points="461,35 466,30 482,30 482,40 466,40 461,35 " style="fill:white; stroke-width:1; stroke:black; " description="&lt;b&gt;HS041_25770&lt;/b&gt;&lt;br&gt;hypothetical protein&lt;br&gt;Location: 936256 - 937105" locus_tag="HS041_25770" class="clusterblast-orf" id="dummy-4_q16_0_all"  />
<polygon points="489,40 496,40 501,35 496,30 489,30 489,40 " style="fill:white; stroke-width:1; stroke:black; " description="&lt;b&gt;HS041_25775&lt;/b&gt;&lt;br&gt;DUF1772 domain-containing protein&lt;br&gt;Location: 937404 - 937878" locus_tag="HS041_25775" class="clusterblast-orf" id="dummy-4_q17_0_all"  />
<polygon points="501,40 521,40 526,35 521,30 501,30 501,40 " style="fill:white; stroke-width:1; stroke:black; " description="&lt;b&gt;HS041_25780&lt;/b&gt;&lt;br&gt;alpha/beta hydrolase&lt;br&gt;Location: 937874 - 938897" locus_tag="HS041_25780" class="clusterblast-orf" id="dummy-4_q18_0_all"  />
<polygon points="528,35 533,30 544,30 544,40 533,40 528,35 " style="fill:white; stroke-width:1; stroke:black; " description="&lt;b&gt;HS041_25785&lt;/b&gt;&lt;br&gt;DUF4291 domain-containing protein&lt;br&gt;Location: 938987 - 939608" locus_tag="HS041_25785" class="clusterblast-orf" id="dummy-4_q19_0_all"  />
<polygon points="545,35 550,30 575,30 575,40 550,40 545,35 " style="fill:white; stroke-width:1; stroke:black; " description="&lt;b&gt;HS041_25790&lt;/b&gt;&lt;br&gt;cytochrome P450&lt;br&gt;Location: 939660 - 940893" locus_tag="HS041_25790" class="clusterblast-orf" id="dummy-4_q20_0_all"  />
<polygon points="577,40 585,40 590,35 585,30 577,30 577,40 " style="fill:white; stroke-width:1; stroke:black; " description="&lt;b&gt;HS041_25795&lt;/b&gt;&lt;br&gt;hypothetical protein&lt;br&gt;Location: 940964 - 941510" locus_tag="HS041_25795" class="clusterblast-orf" id="dummy-4_q21_0_all"  />
<polygon points="591,35 596,30 610,30 610,40 596,40 591,35 " style="fill:white; stroke-width:1; stroke:black; " description="&lt;b&gt;HS041_25800&lt;/b&gt;&lt;br&gt;SDR family oxidoreductase&lt;br&gt;Location: 941527 - 942322" locus_tag="HS041_25800" class="clusterblast-orf" id="dummy-4_q22_0_all"  />
<polygon points="615,40 626,40 631,35 626,30 615,30 615,40 " style="fill:white; stroke-width:1; stroke:black; " description="&lt;b&gt;HS041_25805&lt;/b&gt;&lt;br&gt;hypothetical protein&lt;br&gt;Location: 942534 - 943185" locus_tag="HS041_25805" class="clusterblast-orf" id="dummy-4_q23_0_all"  />
<polygon points="633,35 638,30 642,30 642,40 638,40 633,35 " style="fill:white; stroke-width:1; stroke:black; " description="&lt;b&gt;HS041_25810&lt;/b&gt;&lt;br&gt;nuclear transport factor 2 family protein&lt;br&gt;Location: 943265 - 943625" locus_tag="HS041_25810" class="clusterblast-orf" id="dummy-4_q24_0_all"  />
<polygon points="661,40 684,40 689,35 684,30 661,30 661,40 " style="fill:white; stroke-width:1; stroke:black; " description="&lt;b&gt;HS041_25825&lt;/b&gt;&lt;br&gt;tRNA dihydrouridine synthase DusB&lt;br&gt;Location: 944405 - 945527" locus_tag="HS041_25825" class="clusterblast-orf" id="dummy-4_q25_0_all"  />
<polygon points="692,40 736,40 741,35 736,30 692,30 692,40 " style="fill:white; stroke-width:1; stroke:black; " description="&lt;b&gt;HS041_25830&lt;/b&gt;&lt;br&gt;TRAP transporter fused permease subunit&lt;br&gt;Location: 945655 - 947650" locus_tag="HS041_25830" class="clusterblast-orf" id="dummy-4_q26_0_all"  />
<polygon points="741,40 760,40 765,35 760,30 741,30 741,40 " style="fill:white; stroke-width:1; stroke:black; " description="&lt;b&gt;HS041_25835&lt;/b&gt;&lt;br&gt;TAXI family TRAP transporter solute-binding subunit&lt;br&gt;Location: 947646 - 948612" locus_tag="HS041_25835" class="clusterblast-orf" id="dummy-4_q27_0_all"  />
<polygon points="766,35 771,30 780,30 780,40 771,40 766,35 " style="fill:white; stroke-width:1; stroke:black; " description="&lt;b&gt;HS041_25840&lt;/b&gt;&lt;br&gt;DUF2087 domain-containing protein&lt;br&gt;Location: 948650 - 949223" locus_tag="HS041_25840" class="clusterblast-orf" id="dummy-4_q28_0_all"  />
</g>
<g label="BGC0002174" description="BGC0002174_c1: ε-Poly-L-lysine (100% of genes show similarity), NRP" class="clusterblast-cluster"  >
<text x="5" y="70" class="clusterblast-acc"  >
<a xlink:href="https://mibig.secondarymetabolites.org/go/BGC0002174/1" target="_blank">BGC0002174</a>: ε-Poly-L-lysine                                                                  (100% of genes show similarity), NRP</text>
<line x1="10" y1="85" x2="778.0" y2="85" style="stroke-width:1; stroke:grey; "  />
</g>
<g id="a4_000"  >
<polygon points="342,85 347,80 437,80 437,90 347,90 342,85 " style="fill:#b1d815; stroke-width:1; stroke:black; " description="&lt;b&gt;BBU42014.1&lt;/b&gt;&lt;br&gt;e-poly-L-lysine synthetase&lt;br&gt;Location: 3894 - 1&lt;br&gt;&lt;br&gt;&lt;b&gt;BlastP hit with HS041_25760&lt;/b&gt;&lt;br&gt;Percentage identity: 50&lt;br&gt;Percentage coverage: 100&lt;br&gt;BLAST bit score: 1131&lt;br&gt;E-value: 0.0" locus_tag="BBU42014.1" class="clusterblast-orf" id="dummy-4_h4_1_0"  />
</g>
</svg>
