<svg xmlns="http://www.w3.org/2000/svg" xmlns:xlink="http://www.w3.org/1999/xlink" version="1.1" x="0" y="0" height="230" width="800" viewBox="0 0 800 230" preserveAspectRatio="none"  >
<g label="Query sequence" class="clusterblast-cluster"  >
<text x="5" y="20" class="clusterblast-acc"  >
Query sequence</text>
<line x1="10" y1="35" x2="778.0" y2="35" style="stroke-width:1; stroke:grey; "  />
<polygon points="146,35 151,30 164,30 164,40 151,40 146,35 " style="fill:white; stroke-width:1; stroke:black; " description="&lt;b&gt;HS041_32600&lt;/b&gt;&lt;br&gt;hypothetical protein&lt;br&gt;Location: 377985 - 379809" locus_tag="HS041_32600" class="clusterblast-orf" id="dummy-1_q0_0_all"  />
<polygon points="164,35 169,30 173,30 173,40 169,40 164,35 " style="fill:white; stroke-width:1; stroke:black; " description="&lt;b&gt;HS041_32605&lt;/b&gt;&lt;br&gt;ABC transporter ATP-binding protein&lt;br&gt;Location: 379793 - 380630" locus_tag="HS041_32605" class="clusterblast-orf" id="dummy-1_q1_0_all"  />
<polygon points="174,35 179,30 184,30 184,40 179,40 174,35 " style="fill:white; stroke-width:1; stroke:black; " description="&lt;b&gt;HS041_32610&lt;/b&gt;&lt;br&gt;aldo/keto reductase&lt;br&gt;Location: 380759 - 381737" locus_tag="HS041_32610" class="clusterblast-orf" id="dummy-1_q2_0_all"  />
<polygon points="186,35 191,30 191,30 191,40 191,40 186,35 " style="fill:white; stroke-width:1; stroke:black; " description="&lt;b&gt;HS041_32615&lt;/b&gt;&lt;br&gt;hypothetical protein&lt;br&gt;Location: 381914 - 382430" locus_tag="HS041_32615" class="clusterblast-orf" id="dummy-1_q3_0_all"  />
<polygon points="193,35 198,30 209,30 209,40 198,40 193,35 " style="fill:white; stroke-width:1; stroke:black; " description="&lt;b&gt;HS041_32620&lt;/b&gt;&lt;br&gt;N-acetylmuramoyl-L-alanine amidase&lt;br&gt;Location: 382653 - 384165" locus_tag="HS041_32620" class="clusterblast-orf" id="dummy-1_q4_0_all"  />
<polygon points="211,40 215,40 220,35 215,30 211,30 211,40 " style="fill:white; stroke-width:1; stroke:black; " description="&lt;b&gt;HS041_32625&lt;/b&gt;&lt;br&gt;hypothetical protein&lt;br&gt;Location: 384428 - 385226" locus_tag="HS041_32625" class="clusterblast-orf" id="dummy-1_q5_0_all"  />
<polygon points="225,40 229,35 225,30 225,40 " style="fill:#d81515; stroke-width:1; stroke:black; " description="&lt;b&gt;HS041_32630&lt;/b&gt;&lt;br&gt;VOC family protein&lt;br&gt;Location: 385745 - 386096" locus_tag="HS041_32630" class="clusterblast-orf" id="dummy-1_q6_0_all"  />
<polygon points="230,40 234,35 230,30 230,40 " style="fill:white; stroke-width:1; stroke:black; " description="&lt;b&gt;HS041_32635&lt;/b&gt;&lt;br&gt;VOC family protein&lt;br&gt;Location: 386220 - 386607" locus_tag="HS041_32635" class="clusterblast-orf" id="dummy-1_q7_0_all"  />
<polygon points="235,35 240,30 248,30 248,40 240,40 235,35 " style="fill:white; stroke-width:1; stroke:black; " description="&lt;b&gt;HS041_32640&lt;/b&gt;&lt;br&gt;alpha/beta fold hydrolase&lt;br&gt;Location: 386683 - 387973" locus_tag="HS041_32640" class="clusterblast-orf" id="dummy-1_q8_0_all"  />
<polygon points="249,40 249,40 254,35 249,30 249,30 249,40 " style="fill:white; stroke-width:1; stroke:black; " description="&lt;b&gt;HS041_32645&lt;/b&gt;&lt;br&gt;helix-turn-helix domain-containing protein&lt;br&gt;Location: 388049 - 388580" locus_tag="HS041_32645" class="clusterblast-orf" id="dummy-1_q9_0_all"  />
<polygon points="254,35 259,30 262,30 262,40 259,40 254,35 " style="fill:white; stroke-width:1; stroke:black; " description="&lt;b&gt;HS041_32650&lt;/b&gt;&lt;br&gt;helix-turn-helix transcriptional regulator&lt;br&gt;Location: 388576 - 389389" locus_tag="HS041_32650" class="clusterblast-orf" id="dummy-1_q10_0_all"  />
<polygon points="264,40 271,40 276,35 271,30 264,30 264,40 " style="fill:white; stroke-width:1; stroke:black; " description="&lt;b&gt;HS041_32655&lt;/b&gt;&lt;br&gt;aminoglycoside phosphotransferase family protein&lt;br&gt;Location: 389556 - 390755" locus_tag="HS041_32655" class="clusterblast-orf" id="dummy-1_q11_0_all"  />
<polygon points="277,35 282,30 300,30 300,40 282,40 277,35 " style="fill:white; stroke-width:1; stroke:black; " description="&lt;b&gt;HS041_32660&lt;/b&gt;&lt;br&gt;accessory Sec system translocase SecA2&lt;br&gt;Location: 390821 - 393044" locus_tag="HS041_32660" class="clusterblast-orf" id="dummy-1_q12_0_all"  />
<polygon points="301,35 306,30 312,30 312,40 306,40 301,35 " style="fill:white; stroke-width:1; stroke:black; " description="&lt;b&gt;HS041_32665&lt;/b&gt;&lt;br&gt;helix-turn-helix domain-containing protein&lt;br&gt;Location: 393147 - 394269" locus_tag="HS041_32665" class="clusterblast-orf" id="dummy-1_q13_0_all"  />
<polygon points="314,40 318,40 323,35 318,30 314,30 314,40 " style="fill:#15d863; stroke-width:1; stroke:black; " description="&lt;b&gt;HS041_32670&lt;/b&gt;&lt;br&gt;class II aldolase/adducin family protein&lt;br&gt;Location: 394498 - 395290" locus_tag="HS041_32670" class="clusterblast-orf" id="dummy-1_q14_0_all"  />
<polygon points="323,35 328,30 342,30 342,40 328,40 323,35 " style="fill:white; stroke-width:1; stroke:black; " description="&lt;b&gt;HS041_32675&lt;/b&gt;&lt;br&gt;winged helix-turn-helix domain-containing protein&lt;br&gt;Location: 395347 - 397192" locus_tag="HS041_32675" class="clusterblast-orf" id="dummy-1_q15_0_all"  />
<polygon points="346,40 374,40 379,35 374,30 346,30 346,40 " style="fill:#1563d8; stroke-width:1; stroke:black; " description="&lt;b&gt;HS041_32680&lt;/b&gt;&lt;br&gt;amino acid adenylation domain-containing protein&lt;br&gt;Location: 397572 - 400794" locus_tag="HS041_32680" class="clusterblast-orf" id="dummy-1_q16_0_all"  />
<polygon points="379,40 432,40 437,35 432,30 379,30 379,40 " style="fill:#b115d8; stroke-width:1; stroke:black; " description="&lt;b&gt;HS041_32685&lt;/b&gt;&lt;br&gt;amino acid adenylation domain-containing protein&lt;br&gt;Location: 400790 - 406460" locus_tag="HS041_32685" class="clusterblast-orf" id="dummy-1_q17_0_all"  />
<polygon points="437,40 442,40 447,35 442,30 437,30 437,40 " style="fill:#b1d815; stroke-width:1; stroke:black; " description="&lt;b&gt;HS041_32690&lt;/b&gt;&lt;br&gt;TauD/TfdA family dioxygenase&lt;br&gt;Location: 406456 - 407431" locus_tag="HS041_32690" class="clusterblast-orf" id="dummy-1_q18_0_all"  />
<polygon points="449,40 460,40 465,35 460,30 449,30 449,40 " style="fill:white; stroke-width:1; stroke:black; " description="&lt;b&gt;HS041_32695&lt;/b&gt;&lt;br&gt;CHASE3 domain-containing protein&lt;br&gt;Location: 407635 - 409249" locus_tag="HS041_32695" class="clusterblast-orf" id="dummy-1_q19_0_all"  />
<polygon points="466,40 469,35 466,30 466,40 " style="fill:white; stroke-width:1; stroke:black; " description="&lt;b&gt;HS041_32700&lt;/b&gt;&lt;br&gt;VOC family protein&lt;br&gt;Location: 409274 - 409634" locus_tag="HS041_32700" class="clusterblast-orf" id="dummy-1_q20_0_all"  />
<polygon points="470,35 475,30 482,30 482,40 475,40 470,35 " style="fill:white; stroke-width:1; stroke:black; " description="&lt;b&gt;HS041_32705&lt;/b&gt;&lt;br&gt;M20 family metallopeptidase&lt;br&gt;Location: 409668 - 410853" locus_tag="HS041_32705" class="clusterblast-orf" id="dummy-1_q21_0_all"  />
<polygon points="486,35 491,30 495,30 495,40 491,40 486,35 " style="fill:white; stroke-width:1; stroke:black; " description="&lt;b&gt;HS041_32710&lt;/b&gt;&lt;br&gt;EamA family transporter&lt;br&gt;Location: 411249 - 412152" locus_tag="HS041_32710" class="clusterblast-orf" id="dummy-1_q22_0_all"  />
<polygon points="499,40 503,40 508,35 503,30 499,30 499,40 " style="fill:white; stroke-width:1; stroke:black; " description="&lt;b&gt;HS041_32715&lt;/b&gt;&lt;br&gt;DMT family transporter&lt;br&gt;Location: 412573 - 413440" locus_tag="HS041_32715" class="clusterblast-orf" id="dummy-1_q23_0_all"  />
<polygon points="508,35 513,30 521,30 521,40 513,40 508,35 " style="fill:white; stroke-width:1; stroke:black; " description="&lt;b&gt;HS041_32720&lt;/b&gt;&lt;br&gt;FAD-dependent monooxygenase&lt;br&gt;Location: 413451 - 414669" locus_tag="HS041_32720" class="clusterblast-orf" id="dummy-1_q24_0_all"  />
<polygon points="522,40 523,40 528,35 523,30 522,30 522,40 " style="fill:white; stroke-width:1; stroke:black; " description="&lt;b&gt;HS041_32725&lt;/b&gt;&lt;br&gt;TetR/AcrR family transcriptional regulator&lt;br&gt;Location: 414741 - 415380" locus_tag="HS041_32725" class="clusterblast-orf" id="dummy-1_q25_0_all"  />
<polygon points="528,35 533,30 535,30 535,40 533,40 528,35 " style="fill:white; stroke-width:1; stroke:black; " description="&lt;b&gt;HS041_32730&lt;/b&gt;&lt;br&gt;GNAT family N-acetyltransferase&lt;br&gt;Location: 415410 - 416022" locus_tag="HS041_32730" class="clusterblast-orf" id="dummy-1_q26_0_all"  />
<polygon points="537,40 544,40 549,35 544,30 537,30 537,40 " style="fill:white; stroke-width:1; stroke:black; " description="&lt;b&gt;HS041_32735&lt;/b&gt;&lt;br&gt;acyl-CoA dehydrogenase family protein&lt;br&gt;Location: 416232 - 417447" locus_tag="HS041_32735" class="clusterblast-orf" id="dummy-1_q27_0_all"  />
<polygon points="549,40 556,40 561,35 556,30 549,30 549,40 " style="fill:white; stroke-width:1; stroke:black; " description="&lt;b&gt;HS041_32740&lt;/b&gt;&lt;br&gt;acyl-CoA dehydrogenase family protein&lt;br&gt;Location: 417443 - 418610" locus_tag="HS041_32740" class="clusterblast-orf" id="dummy-1_q28_0_all"  />
<polygon points="563,40 569,40 574,35 569,30 563,30 563,40 " style="fill:white; stroke-width:1; stroke:black; " description="&lt;b&gt;HS041_32745&lt;/b&gt;&lt;br&gt;acyl-CoA/acyl-ACP dehydrogenase&lt;br&gt;Location: 418784 - 419858" locus_tag="HS041_32745" class="clusterblast-orf" id="dummy-1_q29_0_all"  />
<polygon points="575,35 580,30 581,30 581,40 580,40 575,35 " style="fill:white; stroke-width:1; stroke:black; " description="&lt;b&gt;HS041_32750&lt;/b&gt;&lt;br&gt;helix-turn-helix transcriptional regulator&lt;br&gt;Location: 419935 - 420529" locus_tag="HS041_32750" class="clusterblast-orf" id="dummy-1_q30_0_all"  />
<polygon points="582,40 585,40 590,35 585,30 582,30 582,40 " style="fill:white; stroke-width:1; stroke:black; " description="&lt;b&gt;HS041_32755&lt;/b&gt;&lt;br&gt;SDR family oxidoreductase&lt;br&gt;Location: 420644 - 421451" locus_tag="HS041_32755" class="clusterblast-orf" id="dummy-1_q31_0_all"  />
<polygon points="590,35 595,30 596,30 596,40 595,40 590,35 " style="fill:white; stroke-width:1; stroke:black; " description="&lt;b&gt;HS041_32760&lt;/b&gt;&lt;br&gt;TetR/AcrR family transcriptional regulator&lt;br&gt;Location: 421419 - 422013" locus_tag="HS041_32760" class="clusterblast-orf" id="dummy-1_q32_0_all"  />
<polygon points="598,40 601,40 606,35 601,30 598,30 598,40 " style="fill:white; stroke-width:1; stroke:black; " description="&lt;b&gt;HS041_32765&lt;/b&gt;&lt;br&gt;NERD domain-containing protein&lt;br&gt;Location: 422196 - 422973" locus_tag="HS041_32765" class="clusterblast-orf" id="dummy-1_q33_0_all"  />
<polygon points="606,35 611,30 622,30 622,40 611,40 606,35 " style="fill:white; stroke-width:1; stroke:black; " description="&lt;b&gt;HS041_32770&lt;/b&gt;&lt;br&gt;VWA domain-containing protein&lt;br&gt;Location: 422993 - 424523" locus_tag="HS041_32770" class="clusterblast-orf" id="dummy-1_q34_0_all"  />
<polygon points="621,35 626,30 629,30 629,40 626,40 621,35 " style="fill:white; stroke-width:1; stroke:black; " description="&lt;b&gt;HS041_32775&lt;/b&gt;&lt;br&gt;MoxR family ATPase&lt;br&gt;Location: 424437 - 425289" locus_tag="HS041_32775" class="clusterblast-orf" id="dummy-1_q35_0_all"  />
<polygon points="631,35 634,30 634,40 631,35 " style="fill:white; stroke-width:1; stroke:black; " description="&lt;b&gt;HS041_32785&lt;/b&gt;&lt;br&gt;hypothetical protein&lt;br&gt;Location: 425429 - 425702" locus_tag="HS041_32785" class="clusterblast-orf" id="dummy-1_q36_0_all"  />
</g>
<g label="BGC0000963" description="BGC0000963_c1: bleomycin (9% of genes show similarity), NRP:Glycopeptide+Polyketide:Modular type I polyketide+Saccharide:Hybrid/tailoring saccharide" class="clusterblast-cluster"  >
<text x="5" y="70" class="clusterblast-acc"  >
<a xlink:href="https://mibig.secondarymetabolites.org/go/BGC0000963/1" target="_blank">BGC0000963</a>: bleomycin                                                                        (9% of genes show similarity), NRP:Glycopeptide+Polyketide:Modular type I polyketide+Saccharide:Hybrid/tailoring saccharide</text>
<line x1="10" y1="85" x2="778.0" y2="85" style="stroke-width:1; stroke:grey; "  />
</g>
<g id="a1_000"  >
<polygon points="0,85 5,80 13,80 13,90 5,90 0,85 " style="fill:white; stroke-width:1; stroke:black; " description="&lt;b&gt;AAG02372.1&lt;/b&gt;&lt;br&gt;coproporphyrinogen III oxidase-like protein&lt;br&gt;Location: 77457 - 76183" locus_tag="AAG02372.1" class="clusterblast-orf" id="dummy-1_h1_5_0"  />
</g>
<g id="a1_001"  >
<polygon points="13,85 18,80 28,80 28,90 18,90 13,85 " style="fill:white; stroke-width:1; stroke:black; " description="&lt;b&gt;AAG02371.1&lt;/b&gt;&lt;br&gt;sugar synthase BlmC&lt;br&gt;Location: 76186 - 74690" locus_tag="AAG02371.1" class="clusterblast-orf" id="dummy-1_h1_5_1"  />
</g>
<g id="a1_002"  >
<polygon points="28,85 31,80 31,90 28,85 " style="fill:white; stroke-width:1; stroke:black; " description="&lt;b&gt;AAD42077.1&lt;/b&gt;&lt;br&gt;peptide synthetase NRPS type II-PCP&lt;br&gt;Location: 74693 - 74421" locus_tag="AAD42077.1" class="clusterblast-orf" id="dummy-1_h1_5_2"  />
</g>
<g id="a1_003"  >
<polygon points="31,85 36,80 47,80 47,90 36,90 31,85 " style="fill:white; stroke-width:1; stroke:black; " description="&lt;b&gt;AAG02370.1&lt;/b&gt;&lt;br&gt;carbamyltransferase BlmD&lt;br&gt;Location: 74424 - 72787" locus_tag="AAG02370.1" class="clusterblast-orf" id="dummy-1_h1_5_3"  />
</g>
<g id="a1_004"  >
<polygon points="47,85 52,80 59,80 59,90 52,90 47,85 " style="fill:white; stroke-width:1; stroke:black; " description="&lt;b&gt;AAG02369.1&lt;/b&gt;&lt;br&gt;sugar transferase BlmE&lt;br&gt;Location: 72790 - 71618" locus_tag="AAG02369.1" class="clusterblast-orf" id="dummy-1_h1_5_4"  />
</g>
<g id="a1_005"  >
<polygon points="60,85 65,80 66,80 66,90 65,90 60,85 " style="fill:white; stroke-width:1; stroke:black; " description="&lt;b&gt;AAG02368.1&lt;/b&gt;&lt;br&gt;MbtH-like protein&lt;br&gt;Location: 71546 - 70983" locus_tag="AAG02368.1" class="clusterblast-orf" id="dummy-1_h1_5_5"  />
</g>
<g id="a1_006"  >
<polygon points="66,85 71,80 80,80 80,90 71,90 66,85 " style="fill:white; stroke-width:1; stroke:black; " description="&lt;b&gt;AAG02367.1&lt;/b&gt;&lt;br&gt;peptide synthetase NRPS&lt;br&gt;Location: 70986 - 69598" locus_tag="AAG02367.1" class="clusterblast-orf" id="dummy-1_h1_5_6"  />
</g>
<g id="a1_007"  >
<polygon points="80,85 85,80 90,80 90,90 85,90 80,85 " style="fill:#b1d815; stroke-width:1; stroke:black; " description="&lt;b&gt;AAG02366.1&lt;/b&gt;&lt;br&gt;SyrP-like protein&lt;br&gt;Location: 69601 - 68582&lt;br&gt;&lt;br&gt;&lt;b&gt;BlastP hit with HS041_32690&lt;/b&gt;&lt;br&gt;Percentage identity: 50&lt;br&gt;Percentage coverage: 90&lt;br&gt;BLAST bit score: 283&lt;br&gt;E-value: 4.52e-94" locus_tag="AAG02366.1" class="clusterblast-orf" id="dummy-1_h1_5_7"  />
</g>
<g id="a1_008"  >
<polygon points="90,85 95,80 119,80 119,90 95,90 90,85 " style="fill:white; stroke-width:1; stroke:black; " description="&lt;b&gt;AAG02365.1&lt;/b&gt;&lt;br&gt;peptide synthetase NRPS0&lt;br&gt;Location: 68585 - 65778" locus_tag="AAG02365.1" class="clusterblast-orf" id="dummy-1_h1_5_8"  />
</g>
<g id="a1_009"  >
<polygon points="119,85 124,80 200,80 200,90 124,90 119,85 " style="fill:white; stroke-width:1; stroke:black; " description="&lt;b&gt;AAG02364.1&lt;/b&gt;&lt;br&gt;peptide synthetase NRPS2-1&lt;br&gt;Location: 65781 - 57901" locus_tag="AAG02364.1" class="clusterblast-orf" id="dummy-1_h1_5_9"  />
</g>
<g id="a1_0010"  >
<polygon points="200,85 205,80 220,80 220,90 205,90 200,85 " style="fill:white; stroke-width:1; stroke:black; " description="&lt;b&gt;AAG02363.1&lt;/b&gt;&lt;br&gt;asparagine synthetase&lt;br&gt;Location: 57815 - 55899" locus_tag="AAG02363.1" class="clusterblast-orf" id="dummy-1_h1_5_10"  />
</g>
<g id="a1_0011"  >
<polygon points="220,85 225,80 235,80 235,90 225,90 220,85 " style="fill:white; stroke-width:1; stroke:black; " description="&lt;b&gt;AAG02362.1&lt;/b&gt;&lt;br&gt;hydroxylase BlmF&lt;br&gt;Location: 55902 - 54418" locus_tag="AAG02362.1" class="clusterblast-orf" id="dummy-1_h1_5_11"  />
</g>
<g id="a1_0012"  >
<polygon points="235,85 240,80 245,80 245,90 240,90 235,85 " style="fill:white; stroke-width:1; stroke:black; " description="&lt;b&gt;AAG02361.1&lt;/b&gt;&lt;br&gt;sugar epimerase BlmG&lt;br&gt;Location: 54404 - 53427" locus_tag="AAG02361.1" class="clusterblast-orf" id="dummy-1_h1_5_12"  />
</g>
<g id="a1_0013"  >
<polygon points="245,85 250,80 265,80 265,90 250,90 245,85 " style="fill:white; stroke-width:1; stroke:black; " description="&lt;b&gt;AAG02360.1&lt;/b&gt;&lt;br&gt;peptide synthetase NRPS3CT&lt;br&gt;Location: 53430 - 51493" locus_tag="AAG02360.1" class="clusterblast-orf" id="dummy-1_h1_5_13"  />
</g>
<g id="a1_0014"  >
<polygon points="267,85 272,80 349,80 349,90 272,90 267,85 " style="fill:white; stroke-width:1; stroke:black; " description="&lt;b&gt;AAG02359.1&lt;/b&gt;&lt;br&gt;peptide synthetase NRPS5-4-3&lt;br&gt;Location: 51290 - 43263" locus_tag="AAG02359.1" class="clusterblast-orf" id="dummy-1_h1_5_14"  />
</g>
<g id="a1_0015"  >
<polygon points="349,85 354,80 387,80 387,90 354,90 349,85 " style="fill:white; stroke-width:1; stroke:black; " description="&lt;b&gt;AAG02358.1&lt;/b&gt;&lt;br&gt;peptide synthetase NRPS6&lt;br&gt;Location: 43266 - 39610" locus_tag="AAG02358.1" class="clusterblast-orf" id="dummy-1_h1_5_15"  />
</g>
<g id="a1_0016"  >
<polygon points="387,85 392,80 443,80 443,90 392,90 387,85 " style="fill:white; stroke-width:1; stroke:black; " description="&lt;b&gt;AAG02357.1&lt;/b&gt;&lt;br&gt;polyketide synthase&lt;br&gt;Location: 39613 - 34088" locus_tag="AAG02357.1" class="clusterblast-orf" id="dummy-1_h1_5_16"  />
</g>
<g id="a1_0017"  >
<polygon points="443,85 448,80 476,80 476,90 448,90 443,85 " style="fill:white; stroke-width:1; stroke:black; " description="&lt;b&gt;AAG02356.1&lt;/b&gt;&lt;br&gt;peptide synthetase NRPS7&lt;br&gt;Location: 34091 - 30891" locus_tag="AAG02356.1" class="clusterblast-orf" id="dummy-1_h1_5_17"  />
</g>
<g id="a1_0018"  >
<polygon points="476,85 481,80 542,80 542,90 481,90 476,85 " style="fill:white; stroke-width:1; stroke:black; " description="&lt;b&gt;AAG02355.1&lt;/b&gt;&lt;br&gt;peptide synthetase NRPS9-8&lt;br&gt;Location: 30894 - 24406" locus_tag="AAG02355.1" class="clusterblast-orf" id="dummy-1_h1_5_18"  />
</g>
<g id="a1_0019"  >
<polygon points="544,85 549,80 565,80 565,90 549,90 544,85 " style="fill:white; stroke-width:1; stroke:black; " description="&lt;b&gt;AAG02354.1&lt;/b&gt;&lt;br&gt;peptide synthetase NRPS&lt;br&gt;Location: 24193 - 22127" locus_tag="AAG02354.1" class="clusterblast-orf" id="dummy-1_h1_5_19"  />
</g>
<g id="a1_0020"  >
<polygon points="566,85 571,80 573,80 573,90 571,90 566,85 " style="fill:white; stroke-width:1; stroke:black; " description="&lt;b&gt;AAG02353.1&lt;/b&gt;&lt;br&gt;phosphatidylserine decarboxylase&lt;br&gt;Location: 22086 - 21367" locus_tag="AAG02353.1" class="clusterblast-orf" id="dummy-1_h1_5_20"  />
</g>
<g id="a1_0021"  >
<polygon points="578,85 583,80 596,80 596,90 583,90 578,85 " style="fill:white; stroke-width:1; stroke:black; " description="&lt;b&gt;AAG02352.1&lt;/b&gt;&lt;br&gt;putative transporter&lt;br&gt;Location: 20909 - 19161" locus_tag="AAG02352.1" class="clusterblast-orf" id="dummy-1_h1_5_21"  />
</g>
<g id="a1_0022"  >
<polygon points="596,85 599,80 599,90 596,85 " style="fill:white; stroke-width:1; stroke:black; " description="&lt;b&gt;AAG02351.1&lt;/b&gt;&lt;br&gt;metal-dependent regulatory protein&lt;br&gt;Location: 19164 - 18823" locus_tag="AAG02351.1" class="clusterblast-orf" id="dummy-1_h1_5_22"  />
</g>
<g id="a1_0023"  >
<polygon points="601,90 605,85 601,80 601,90 " style="fill:white; stroke-width:1; stroke:black; " description="&lt;b&gt;AAG02350.1&lt;/b&gt;&lt;br&gt;PHNA-like protein&lt;br&gt;Location: 18660 - 18307" locus_tag="AAG02350.1" class="clusterblast-orf" id="dummy-1_h1_5_23"  />
</g>
<g id="a1_0024"  >
<polygon points="610,90 693,90 698,85 693,80 610,80 610,90 " style="fill:white; stroke-width:1; stroke:black; " description="&lt;b&gt;AAG02349.1&lt;/b&gt;&lt;br&gt;peptide synthetase NRPS11-10&lt;br&gt;Location: 17736 - 9211" locus_tag="AAG02349.1" class="clusterblast-orf" id="dummy-1_h1_5_24"  />
</g>
<g id="a1_0025"  >
<polygon points="698,90 706,90 711,85 706,80 698,80 698,90 " style="fill:white; stroke-width:1; stroke:black; " description="&lt;b&gt;AAG02348.1&lt;/b&gt;&lt;br&gt;putative transporter&lt;br&gt;Location: 9214 - 7859" locus_tag="AAG02348.1" class="clusterblast-orf" id="dummy-1_h1_5_25"  />
</g>
<g id="a1_0026"  >
<polygon points="712,90 717,90 722,85 717,80 712,80 712,90 " style="fill:white; stroke-width:1; stroke:black; " description="&lt;b&gt;AAG02347.1&lt;/b&gt;&lt;br&gt;clavaminic acid synthase-like protein&lt;br&gt;Location: 7797 - 6784" locus_tag="AAG02347.1" class="clusterblast-orf" id="dummy-1_h1_5_26"  />
</g>
<g id="a1_0027"  >
<polygon points="722,90 725,90 730,85 725,80 722,80 722,90 " style="fill:white; stroke-width:1; stroke:black; " description="&lt;b&gt;AAG02346.1&lt;/b&gt;&lt;br&gt;thioesterase&lt;br&gt;Location: 6773 - 6021" locus_tag="AAG02346.1" class="clusterblast-orf" id="dummy-1_h1_5_27"  />
</g>
<g id="a1_0028"  >
<polygon points="730,90 738,90 743,85 738,80 730,80 730,90 " style="fill:white; stroke-width:1; stroke:black; " description="&lt;b&gt;AAG02345.1&lt;/b&gt;&lt;br&gt;putative transporter&lt;br&gt;Location: 6024 - 4741" locus_tag="AAG02345.1" class="clusterblast-orf" id="dummy-1_h1_5_28"  />
</g>
<g id="a1_0029"  >
<polygon points="743,90 747,90 752,85 747,80 743,80 743,90 " style="fill:white; stroke-width:1; stroke:black; " description="&lt;b&gt;AAG02344.1&lt;/b&gt;&lt;br&gt;hypothetical protein&lt;br&gt;Location: 4733 - 3915" locus_tag="AAG02344.1" class="clusterblast-orf" id="dummy-1_h1_5_29"  />
</g>
<g id="a1_0030"  >
<polygon points="752,90 764,90 769,85 764,80 752,80 752,90 " style="fill:#1563d8; stroke-width:1; stroke:black; " description="&lt;b&gt;AAG02343.1&lt;/b&gt;&lt;br&gt;peptide synthetase NRPS12&lt;br&gt;Location: 3918 - 2182&lt;br&gt;&lt;br&gt;&lt;b&gt;BlastP hit with HS041_32680&lt;/b&gt;&lt;br&gt;Percentage identity: 46&lt;br&gt;Percentage coverage: 56&lt;br&gt;BLAST bit score: 420&lt;br&gt;E-value: 8.66e-135" locus_tag="AAG02343.1" class="clusterblast-orf" id="dummy-1_h1_5_30"  />
</g>
<g id="a1_0031"  >
<polygon points="769,90 775,90 780,85 775,80 769,80 769,90 " style="fill:#b1d815; stroke-width:1; stroke:black; " description="&lt;b&gt;AAG02342.1&lt;/b&gt;&lt;br&gt;SyrP-like protein&lt;br&gt;Location: 2185 - 1199&lt;br&gt;&lt;br&gt;&lt;b&gt;BlastP hit with HS041_32690&lt;/b&gt;&lt;br&gt;Percentage identity: 58&lt;br&gt;Percentage coverage: 101&lt;br&gt;BLAST bit score: 374&lt;br&gt;E-value: 5.6e-130" locus_tag="AAG02342.1" class="clusterblast-orf" id="dummy-1_h1_5_31"  />
</g>
</svg>
