<svg xmlns="http://www.w3.org/2000/svg" xmlns:xlink="http://www.w3.org/1999/xlink" version="1.1" x="0" y="0" height="100" width="800" viewBox="0 0 800 100" preserveAspectRatio="none"  >
<g label="Query sequence" class="clusterblast-cluster"  >
<text x="5" y="20" class="clusterblast-acc"  >
Query sequence</text>
<line x1="10" y1="35" x2="778.0" y2="35" style="stroke-width:1; stroke:grey; "  />
<polygon points="70,35 75,30 82,30 82,40 75,40 70,35 " style="fill:white; stroke-width:1; stroke:black; " description="&lt;b&gt;HS041_37425&lt;/b&gt;&lt;br&gt;hypothetical protein&lt;br&gt;Location: 11260 - 11833" locus_tag="HS041_37425" class="clusterblast-orf" id="knownclusterblast-1_q0_0_all"  />
<polygon points="83,35 88,30 94,30 94,40 88,40 83,35 " style="fill:white; stroke-width:1; stroke:black; " description="&lt;b&gt;HS041_37430&lt;/b&gt;&lt;br&gt;M48 family metallopeptidase&lt;br&gt;Location: 11889 - 12405" locus_tag="HS041_37430" class="clusterblast-orf" id="knownclusterblast-1_q1_0_all"  />
<polygon points="97,35 102,30 113,30 113,40 102,40 97,35 " style="fill:white; stroke-width:1; stroke:black; " description="&lt;b&gt;HS041_37435&lt;/b&gt;&lt;br&gt;enoyl-CoA hydratase/isomerase family protein&lt;br&gt;Location: 12546 - 13332" locus_tag="HS041_37435" class="clusterblast-orf" id="knownclusterblast-1_q2_0_all"  />
<polygon points="117,40 134,40 139,35 134,30 117,30 117,40 " style="fill:white; stroke-width:1; stroke:black; " description="&lt;b&gt;HS041_37440&lt;/b&gt;&lt;br&gt;ThiF family adenylyltransferase&lt;br&gt;Location: 13481 - 14582" locus_tag="HS041_37440" class="clusterblast-orf" id="knownclusterblast-1_q3_0_all"  />
<polygon points="141,40 164,40 169,35 164,30 141,30 141,40 " style="fill:white; stroke-width:1; stroke:black; " description="&lt;b&gt;HS041_37445&lt;/b&gt;&lt;br&gt;AarF/ABC1/UbiB kinase family protein&lt;br&gt;Location: 14645 - 15989" locus_tag="HS041_37445" class="clusterblast-orf" id="knownclusterblast-1_q4_0_all"  />
<polygon points="173,35 177,30 177,40 173,35 " style="fill:white; stroke-width:1; stroke:black; " description="&lt;b&gt;HS041_37450&lt;/b&gt;&lt;br&gt;hypothetical protein&lt;br&gt;Location: 16202 - 16397" locus_tag="HS041_37450" class="clusterblast-orf" id="knownclusterblast-1_q5_0_all"  />
<polygon points="178,35 183,30 184,30 184,40 183,40 178,35 " style="fill:white; stroke-width:1; stroke:black; " description="&lt;b&gt;HS041_37455&lt;/b&gt;&lt;br&gt;WhiB family transcriptional regulator&lt;br&gt;Location: 16448 - 16718" locus_tag="HS041_37455" class="clusterblast-orf" id="knownclusterblast-1_q6_0_all"  />
<polygon points="195,35 200,30 213,30 213,40 200,40 195,35 " style="fill:white; stroke-width:1; stroke:black; " description="&lt;b&gt;HS041_37460&lt;/b&gt;&lt;br&gt;acyl-CoA thioesterase II&lt;br&gt;Location: 17268 - 18135" locus_tag="HS041_37460" class="clusterblast-orf" id="knownclusterblast-1_q7_0_all"  />
<polygon points="213,35 218,30 256,30 256,40 218,40 213,35 " style="fill:white; stroke-width:1; stroke:black; " description="&lt;b&gt;HS041_37465&lt;/b&gt;&lt;br&gt;ATP-dependent DNA helicase UvrD2&lt;br&gt;Location: 18131 - 20201" locus_tag="HS041_37465" class="clusterblast-orf" id="knownclusterblast-1_q8_0_all"  />
<polygon points="260,40 275,40 280,35 275,30 260,30 260,40 " style="fill:white; stroke-width:1; stroke:black; " description="&lt;b&gt;HS041_37470&lt;/b&gt;&lt;br&gt;alpha/beta hydrolase&lt;br&gt;Location: 20379 - 21360" locus_tag="HS041_37470" class="clusterblast-orf" id="knownclusterblast-1_q9_0_all"  />
<polygon points="282,40 282,40 287,35 282,30 282,30 282,40 " style="fill:white; stroke-width:1; stroke:black; " description="&lt;b&gt;HS041_37475&lt;/b&gt;&lt;br&gt;mycoredoxin&lt;br&gt;Location: 21444 - 21696" locus_tag="HS041_37475" class="clusterblast-orf" id="knownclusterblast-1_q10_0_all"  />
<polygon points="288,35 293,30 294,30 294,40 293,40 288,35 " style="fill:white; stroke-width:1; stroke:black; " description="&lt;b&gt;HS041_37480&lt;/b&gt;&lt;br&gt;hypothetical protein&lt;br&gt;Location: 21717 - 22026" locus_tag="HS041_37480" class="clusterblast-orf" id="knownclusterblast-1_q11_0_all"  />
<polygon points="296,35 300,30 300,40 296,35 " style="fill:white; stroke-width:1; stroke:black; " description="&lt;b&gt;HS041_37485&lt;/b&gt;&lt;br&gt;hypothetical protein&lt;br&gt;Location: 22113 - 22308" locus_tag="HS041_37485" class="clusterblast-orf" id="knownclusterblast-1_q12_0_all"  />
<polygon points="304,35 309,30 324,30 324,40 309,40 304,35 " style="fill:white; stroke-width:1; stroke:black; " description="&lt;b&gt;HS041_37490&lt;/b&gt;&lt;br&gt;NAD(+) diphosphatase&lt;br&gt;Location: 22512 - 23490" locus_tag="HS041_37490" class="clusterblast-orf" id="knownclusterblast-1_q13_0_all"  />
<polygon points="330,40 349,40 354,35 349,30 330,30 330,40 " style="fill:#d81515; stroke-width:1; stroke:black; " description="&lt;b&gt;HS041_37495&lt;/b&gt;&lt;br&gt;ATP-grasp domain-containing protein&lt;br&gt;Location: 23772 - 24933" locus_tag="HS041_37495" class="clusterblast-orf" id="knownclusterblast-1_q14_0_all"  />
<polygon points="354,40 383,40 388,35 383,30 354,30 354,40 " style="fill:#15d8d8; stroke-width:1; stroke:black; " description="&lt;b&gt;HS041_37500&lt;/b&gt;&lt;br&gt;siderophore biosynthesis protein&lt;br&gt;Location: 24929 - 26531" locus_tag="HS041_37500" class="clusterblast-orf" id="knownclusterblast-1_q15_0_all"  />
<polygon points="387,40 417,40 422,35 417,30 387,30 387,40 " style="fill:white; stroke-width:1; stroke:black; " description="&lt;b&gt;HS041_37505&lt;/b&gt;&lt;br&gt;iron transporter&lt;br&gt;Location: 26527 - 28204" locus_tag="HS041_37505" class="clusterblast-orf" id="knownclusterblast-1_q16_0_all"  />
<polygon points="424,35 429,30 495,30 495,40 429,40 424,35 " style="fill:white; stroke-width:1; stroke:black; " description="&lt;b&gt;HS041_37510&lt;/b&gt;&lt;br&gt;ATP-dependent helicase&lt;br&gt;Location: 28286 - 31703" locus_tag="HS041_37510" class="clusterblast-orf" id="knownclusterblast-1_q17_0_all"  />
<polygon points="496,35 501,30 565,30 565,40 501,40 496,35 " style="fill:white; stroke-width:1; stroke:black; " description="&lt;b&gt;HS041_37515&lt;/b&gt;&lt;br&gt;ATP-dependent helicase&lt;br&gt;Location: 31773 - 35052" locus_tag="HS041_37515" class="clusterblast-orf" id="knownclusterblast-1_q18_0_all"  />
<polygon points="569,35 574,30 602,30 602,40 574,40 569,35 " style="fill:white; stroke-width:1; stroke:black; " description="&lt;b&gt;HS041_37520&lt;/b&gt;&lt;br&gt;beta-N-acetylhexosaminidase&lt;br&gt;Location: 35259 - 36876" locus_tag="HS041_37520" class="clusterblast-orf" id="knownclusterblast-1_q19_0_all"  />
<polygon points="604,35 609,30 662,30 662,40 609,40 604,35 " style="fill:white; stroke-width:1; stroke:black; " description="&lt;b&gt;HS041_37525&lt;/b&gt;&lt;br&gt;CDP-glycerol glycerophosphotransferase family protein&lt;br&gt;Location: 36956 - 39743" locus_tag="HS041_37525" class="clusterblast-orf" id="knownclusterblast-1_q20_0_all"  />
<polygon points="666,35 671,30 672,30 672,40 671,40 666,35 " style="fill:white; stroke-width:1; stroke:black; " description="&lt;b&gt;HS041_37530&lt;/b&gt;&lt;br&gt;MGMT family protein&lt;br&gt;Location: 39916 - 40246" locus_tag="HS041_37530" class="clusterblast-orf" id="knownclusterblast-1_q21_0_all"  />
<polygon points="673,35 678,30 680,30 680,40 678,40 673,35 " style="fill:white; stroke-width:1; stroke:black; " description="&lt;b&gt;HS041_37535&lt;/b&gt;&lt;br&gt;hypothetical protein&lt;br&gt;Location: 40262 - 40631" locus_tag="HS041_37535" class="clusterblast-orf" id="knownclusterblast-1_q22_0_all"  />
<polygon points="682,35 687,30 709,30 709,40 687,40 682,35 " style="fill:white; stroke-width:1; stroke:black; " description="&lt;b&gt;HS041_37540&lt;/b&gt;&lt;br&gt;S8 family serine peptidase&lt;br&gt;Location: 40730 - 42008" locus_tag="HS041_37540" class="clusterblast-orf" id="knownclusterblast-1_q23_0_all"  />
</g>
<g label="BGC0002466" description="BGC0002466_c1: peucechelin (10% of genes show similarity), NRP" class="clusterblast-cluster"  >
<text x="5" y="70" class="clusterblast-acc"  >
<a xlink:href="https://mibig.secondarymetabolites.org/go/BGC0002466/1" target="_blank">BGC0002466</a>: peucechelin                                                                      (10% of genes show similarity), NRP</text>
<line x1="10" y1="85" x2="778.0" y2="85" style="stroke-width:1; stroke:grey; "  />
</g>
<g id="a1_000"  >
<polygon points="0,85 5,80 13,80 13,90 5,90 0,85 " style="fill:white; stroke-width:1; stroke:black; " description="&lt;b&gt;CGZ69_03745&lt;/b&gt;&lt;br&gt;4-phosphopantetheinyl transferase&lt;br&gt;Location: 1 - 675" locus_tag="CGZ69_03745" class="clusterblast-orf" id="knownclusterblast-1_all_1_1_0"  />
</g>
<g id="a1_001"  >
<polygon points="14,85 19,80 19,80 19,90 19,90 14,85 " style="fill:white; stroke-width:1; stroke:black; " description="&lt;b&gt;CGZ69_03750&lt;/b&gt;&lt;br&gt;hypothetical protein&lt;br&gt;Location: 708 - 935" locus_tag="CGZ69_03750" class="clusterblast-orf" id="knownclusterblast-1_all_1_1_1"  />
</g>
<g id="a1_002"  >
<polygon points="19,85 24,80 52,80 52,90 24,90 19,85 " style="fill:white; stroke-width:1; stroke:black; " description="&lt;b&gt;CGZ69_03755&lt;/b&gt;&lt;br&gt;amidohydrolase&lt;br&gt;Location: 932 - 2512" locus_tag="CGZ69_03755" class="clusterblast-orf" id="knownclusterblast-1_all_1_1_2"  />
</g>
<g id="a1_003"  >
<polygon points="52,85 57,80 71,80 71,90 57,90 52,85 " style="fill:white; stroke-width:1; stroke:black; " description="&lt;b&gt;CGZ69_03760&lt;/b&gt;&lt;br&gt;ABC transporter&lt;br&gt;Location: 2531 - 3448" locus_tag="CGZ69_03760" class="clusterblast-orf" id="knownclusterblast-1_all_1_1_3"  />
</g>
<g id="a1_004"  >
<polygon points="71,85 76,80 94,80 94,90 76,90 71,85 " style="fill:white; stroke-width:1; stroke:black; " description="&lt;b&gt;CGZ69_03765&lt;/b&gt;&lt;br&gt;hypothetical protein&lt;br&gt;Location: 3445 - 4551" locus_tag="CGZ69_03765" class="clusterblast-orf" id="knownclusterblast-1_all_1_1_4"  />
</g>
<g id="a1_005"  >
<polygon points="94,85 99,80 116,80 116,90 99,90 94,85 " style="fill:white; stroke-width:1; stroke:black; " description="&lt;b&gt;CGZ69_03770&lt;/b&gt;&lt;br&gt;Fe(3+)-siderophore ABC transporter permease&lt;br&gt;Location: 4548 - 5615" locus_tag="CGZ69_03770" class="clusterblast-orf" id="knownclusterblast-1_all_1_1_5"  />
</g>
<g id="a1_006"  >
<polygon points="123,90 151,90 156,85 151,80 123,80 123,90 " style="fill:white; stroke-width:1; stroke:black; " description="&lt;b&gt;CGZ69_03775&lt;/b&gt;&lt;br&gt;multidrug ABC transporter ATP-binding protein&lt;br&gt;Location: 5931 - 7538" locus_tag="CGZ69_03775" class="clusterblast-orf" id="knownclusterblast-1_all_1_1_6"  />
</g>
<g id="a1_007"  >
<polygon points="157,90 189,90 194,85 189,80 157,80 157,90 " style="fill:white; stroke-width:1; stroke:black; " description="&lt;b&gt;CGZ69_03780&lt;/b&gt;&lt;br&gt;multidrug ABC transporter permease&lt;br&gt;Location: 7601 - 9379" locus_tag="CGZ69_03780" class="clusterblast-orf" id="knownclusterblast-1_all_1_1_7"  />
</g>
<g id="a1_008"  >
<polygon points="197,90 197,90 202,85 197,80 197,80 197,90 " style="fill:white; stroke-width:1; stroke:black; " description="&lt;b&gt;CGZ69_03785&lt;/b&gt;&lt;br&gt;hypothetical protein&lt;br&gt;Location: 9489 - 9734" locus_tag="CGZ69_03785" class="clusterblast-orf" id="knownclusterblast-1_all_1_1_8"  />
</g>
<g id="a1_009"  >
<polygon points="204,85 208,80 208,90 204,85 " style="fill:white; stroke-width:1; stroke:black; " description="&lt;b&gt;CGZ69_03790&lt;/b&gt;&lt;br&gt;MbtH family protein&lt;br&gt;Location: 9849 - 10058" locus_tag="CGZ69_03790" class="clusterblast-orf" id="knownclusterblast-1_all_1_1_9"  />
</g>
<g id="a1_0010"  >
<polygon points="208,85 213,80 531,80 531,90 213,90 208,85 " style="fill:white; stroke-width:1; stroke:black; " description="&lt;b&gt;CGZ69_03795&lt;/b&gt;&lt;br&gt;non-ribosomal peptide synthetase&lt;br&gt;Location: 10055 - 25609" locus_tag="CGZ69_03795" class="clusterblast-orf" id="knownclusterblast-1_all_1_1_10"  />
</g>
<g id="a1_0011"  >
<polygon points="538,85 543,80 559,80 559,90 543,90 538,85 " style="fill:white; stroke-width:1; stroke:black; " description="&lt;b&gt;CGZ69_03800&lt;/b&gt;&lt;br&gt;iron ABC transporter substrate-binding protein&lt;br&gt;Location: 25945 - 26934" locus_tag="CGZ69_03800" class="clusterblast-orf" id="knownclusterblast-1_all_1_1_11"  />
</g>
<g id="a1_0012"  >
<polygon points="563,85 568,80 591,80 591,90 568,90 563,85 " style="fill:white; stroke-width:1; stroke:black; " description="&lt;b&gt;CGZ69_03805&lt;/b&gt;&lt;br&gt;L-lysine 6-monooxygenase&lt;br&gt;Location: 27116 - 28471" locus_tag="CGZ69_03805" class="clusterblast-orf" id="knownclusterblast-1_all_1_1_12"  />
</g>
<g id="a1_0013"  >
<polygon points="596,90 611,90 616,85 611,80 596,80 596,90 " style="fill:white; stroke-width:1; stroke:black; " description="&lt;b&gt;CGZ69_03810&lt;/b&gt;&lt;br&gt;methionyl-tRNA formyltransferase&lt;br&gt;Location: 28717 - 29663" locus_tag="CGZ69_03810" class="clusterblast-orf" id="knownclusterblast-1_all_1_1_13"  />
</g>
<g id="a1_0014"  >
<polygon points="622,85 627,80 630,80 630,90 627,90 622,85 " style="fill:white; stroke-width:1; stroke:black; " description="&lt;b&gt;CGZ69_03815&lt;/b&gt;&lt;br&gt;hypothetical protein&lt;br&gt;Location: 29963 - 30334" locus_tag="CGZ69_03815" class="clusterblast-orf" id="knownclusterblast-1_all_1_1_14"  />
</g>
<g id="a1_0015"  >
<polygon points="629,85 634,80 647,80 647,90 634,90 629,85 " style="fill:white; stroke-width:1; stroke:black; " description="&lt;b&gt;CGZ69_03820&lt;/b&gt;&lt;br&gt;iron-sulfur protein&lt;br&gt;Location: 30310 - 31161" locus_tag="CGZ69_03820" class="clusterblast-orf" id="knownclusterblast-1_all_1_1_15"  />
</g>
<g id="a1_0016"  >
<polygon points="652,90 672,90 677,85 672,80 652,80 652,90 " style="fill:#d81515; stroke-width:1; stroke:black; " description="&lt;b&gt;CGZ69_03825&lt;/b&gt;&lt;br&gt;siderophore biosynthesis protein&lt;br&gt;Location: 31414 - 32604&lt;br&gt;&lt;br&gt;&lt;b&gt;BlastP hit with HS041_37495&lt;/b&gt;&lt;br&gt;Percentage identity: 57&lt;br&gt;Percentage coverage: 102&lt;br&gt;BLAST bit score: 389&lt;br&gt;E-value: 6.78e-134" locus_tag="CGZ69_03825" class="clusterblast-orf" id="knownclusterblast-1_all_1_1_16"  />
</g>
<g id="a1_0017"  >
<polygon points="676,90 708,90 713,85 708,80 676,80 676,90 " style="fill:#15d8d8; stroke-width:1; stroke:black; " description="&lt;b&gt;CGZ69_03830&lt;/b&gt;&lt;br&gt;siderophore biosynthesis protein&lt;br&gt;Location: 32586 - 34376&lt;br&gt;&lt;br&gt;&lt;b&gt;BlastP hit with HS041_37500&lt;/b&gt;&lt;br&gt;Percentage identity: 46&lt;br&gt;Percentage coverage: 110&lt;br&gt;BLAST bit score: 352&lt;br&gt;E-value: 1.41e-114" locus_tag="CGZ69_03830" class="clusterblast-orf" id="knownclusterblast-1_all_1_1_17"  />
</g>
<g id="a1_0018"  >
<polygon points="718,90 750,90 755,85 750,80 718,80 718,90 " style="fill:white; stroke-width:1; stroke:black; " description="&lt;b&gt;CGZ69_03835&lt;/b&gt;&lt;br&gt;iron transporter&lt;br&gt;Location: 34598 - 36355" locus_tag="CGZ69_03835" class="clusterblast-orf" id="knownclusterblast-1_all_1_1_18"  />
</g>
<g id="a1_0019"  >
<polygon points="755,90 775,90 780,85 775,80 755,80 755,90 " style="fill:white; stroke-width:1; stroke:black; " description="&lt;b&gt;CGZ69_03840&lt;/b&gt;&lt;br&gt;diaminopimelate decarboxylase&lt;br&gt;Location: 36352 - 37554" locus_tag="CGZ69_03840" class="clusterblast-orf" id="knownclusterblast-1_all_1_1_19"  />
</g>
</svg>
