<svg xmlns="http://www.w3.org/2000/svg" xmlns:xlink="http://www.w3.org/1999/xlink" version="1.1" x="0" y="0" height="230" width="800" viewBox="0 0 800 230" preserveAspectRatio="none"  >
<g label="Query sequence" class="clusterblast-cluster"  >
<text x="5" y="20" class="clusterblast-acc"  >
Query sequence</text>
<line x1="10" y1="35" x2="778.0" y2="35" style="stroke-width:1; stroke:grey; "  />
<polygon points="0,40 7,40 12,35 7,30 0,30 0,40 " style="fill:white; stroke-width:1; stroke:black; " description="&lt;b&gt;HS041_13695&lt;/b&gt;&lt;br&gt;helix-turn-helix domain-containing protein&lt;br&gt;Location: 216230 - 217061" locus_tag="HS041_13695" class="clusterblast-orf" id="dummy-2_q0_0_all"  />
<polygon points="13,40 28,40 33,35 28,30 13,30 13,40 " style="fill:white; stroke-width:1; stroke:black; " description="&lt;b&gt;HS041_13700&lt;/b&gt;&lt;br&gt;30S ribosomal protein S12 methylthiotransferase RimO&lt;br&gt;Location: 217141 - 218551" locus_tag="HS041_13700" class="clusterblast-orf" id="dummy-2_q1_0_all"  />
<polygon points="33,40 37,40 42,35 37,30 33,30 33,40 " style="fill:white; stroke-width:1; stroke:black; " description="&lt;b&gt;HS041_13705&lt;/b&gt;&lt;br&gt;CDP-diacylglycerol--glycerol-3-phosphate 3-phosphatidyltransferase&lt;br&gt;Location: 218576 - 219185" locus_tag="HS041_13705" class="clusterblast-orf" id="dummy-2_q2_0_all"  />
<polygon points="42,40 44,40 49,35 44,30 42,30 42,40 " style="fill:white; stroke-width:1; stroke:black; " description="&lt;b&gt;HS041_13710&lt;/b&gt;&lt;br&gt;nicotinamide-nucleotide amidohydrolase family protein&lt;br&gt;Location: 219181 - 219703" locus_tag="HS041_13710" class="clusterblast-orf" id="dummy-2_q3_0_all"  />
<polygon points="52,40 53,40 58,35 53,30 52,30 52,40 " style="fill:white; stroke-width:1; stroke:black; " description="&lt;b&gt;HS041_13715&lt;/b&gt;&lt;br&gt;helix-turn-helix transcriptional regulator&lt;br&gt;Location: 219910 - 220306" locus_tag="HS041_13715" class="clusterblast-orf" id="dummy-2_q4_0_all"  />
<polygon points="59,35 64,30 70,30 70,40 64,40 59,35 " style="fill:white; stroke-width:1; stroke:black; " description="&lt;b&gt;HS041_13720&lt;/b&gt;&lt;br&gt;Fpg/Nei family DNA glycosylase&lt;br&gt;Location: 220355 - 221135" locus_tag="HS041_13720" class="clusterblast-orf" id="dummy-2_q5_0_all"  />
<polygon points="71,35 76,30 77,30 77,40 76,40 71,35 " style="fill:white; stroke-width:1; stroke:black; " description="&lt;b&gt;HS041_13725&lt;/b&gt;&lt;br&gt;Rrf2 family transcriptional regulator&lt;br&gt;Location: 221187 - 221637" locus_tag="HS041_13725" class="clusterblast-orf" id="dummy-2_q6_0_all"  />
<polygon points="80,40 92,40 97,35 92,30 80,30 80,40 " style="fill:white; stroke-width:1; stroke:black; " description="&lt;b&gt;HS041_13730&lt;/b&gt;&lt;br&gt;ROK family protein&lt;br&gt;Location: 221824 - 223003" locus_tag="HS041_13730" class="clusterblast-orf" id="dummy-2_q7_0_all"  />
<polygon points="97,35 102,30 122,30 122,40 102,40 97,35 " style="fill:white; stroke-width:1; stroke:black; " description="&lt;b&gt;HS041_13735&lt;/b&gt;&lt;br&gt;glycoside hydrolase family 3 protein&lt;br&gt;Location: 223008 - 224733" locus_tag="HS041_13735" class="clusterblast-orf" id="dummy-2_q8_0_all"  />
<polygon points="123,35 128,30 144,30 144,40 128,40 123,35 " style="fill:white; stroke-width:1; stroke:black; " description="&lt;b&gt;HS041_13740&lt;/b&gt;&lt;br&gt;glycoside hydrolase family 3 protein&lt;br&gt;Location: 224847 - 226302" locus_tag="HS041_13740" class="clusterblast-orf" id="dummy-2_q9_0_all"  />
<polygon points="146,35 151,30 159,30 159,40 151,40 146,35 " style="fill:white; stroke-width:1; stroke:black; " description="&lt;b&gt;HS041_13745&lt;/b&gt;&lt;br&gt;carbohydrate ABC transporter permease&lt;br&gt;Location: 226399 - 227305" locus_tag="HS041_13745" class="clusterblast-orf" id="dummy-2_q10_0_all"  />
<polygon points="159,35 164,30 173,30 173,40 164,40 159,35 " style="fill:white; stroke-width:1; stroke:black; " description="&lt;b&gt;HS041_13750&lt;/b&gt;&lt;br&gt;sugar ABC transporter permease&lt;br&gt;Location: 227301 - 228315" locus_tag="HS041_13750" class="clusterblast-orf" id="dummy-2_q11_0_all"  />
<polygon points="173,35 178,30 192,30 192,40 178,40 173,35 " style="fill:white; stroke-width:1; stroke:black; " description="&lt;b&gt;HS041_13755&lt;/b&gt;&lt;br&gt;extracellular solute-binding protein&lt;br&gt;Location: 228317 - 229652" locus_tag="HS041_13755" class="clusterblast-orf" id="dummy-2_q12_0_all"  />
<polygon points="195,40 207,40 212,35 207,30 195,30 195,40 " style="fill:white; stroke-width:1; stroke:black; " description="&lt;b&gt;HS041_13760&lt;/b&gt;&lt;br&gt;ROK family transcriptional regulator&lt;br&gt;Location: 229856 - 231017" locus_tag="HS041_13760" class="clusterblast-orf" id="dummy-2_q13_0_all"  />
<polygon points="212,40 216,40 221,35 216,30 212,30 212,40 " style="fill:white; stroke-width:1; stroke:black; " description="&lt;b&gt;HS041_13765&lt;/b&gt;&lt;br&gt;M15 family metallopeptidase&lt;br&gt;Location: 231028 - 231673" locus_tag="HS041_13765" class="clusterblast-orf" id="dummy-2_q14_0_all"  />
<polygon points="222,35 227,30 248,30 248,40 227,40 222,35 " style="fill:white; stroke-width:1; stroke:black; " description="&lt;b&gt;HS041_13770&lt;/b&gt;&lt;br&gt;hypothetical protein&lt;br&gt;Location: 231712 - 233524" locus_tag="HS041_13770" class="clusterblast-orf" id="dummy-2_q15_0_all"  />
<polygon points="249,35 254,30 268,30 268,40 254,40 249,35 " style="fill:white; stroke-width:1; stroke:black; " description="&lt;b&gt;HS041_13775&lt;/b&gt;&lt;br&gt;non-ribosomal peptide synthetase condensation domain protein&lt;br&gt;Location: 233573 - 234935" locus_tag="HS041_13775" class="clusterblast-orf" id="dummy-2_q16_0_all"  />
<polygon points="268,35 272,30 272,40 268,35 " style="fill:white; stroke-width:1; stroke:black; " description="&lt;b&gt;HS041_13780&lt;/b&gt;&lt;br&gt;acyl carrier protein&lt;br&gt;Location: 234934 - 235174" locus_tag="HS041_13780" class="clusterblast-orf" id="dummy-2_q17_0_all"  />
<polygon points="271,35 275,30 275,40 271,35 " style="fill:#d81515; stroke-width:1; stroke:black; " description="&lt;b&gt;HS041_13785&lt;/b&gt;&lt;br&gt;MbtH family protein&lt;br&gt;Location: 235166 - 235403" locus_tag="HS041_13785" class="clusterblast-orf" id="dummy-2_q18_0_all"  />
<polygon points="275,35 280,30 320,30 320,40 280,40 275,35 " style="fill:white; stroke-width:1; stroke:black; " description="&lt;b&gt;HS041_13790&lt;/b&gt;&lt;br&gt;amino acid adenylation domain-containing protein&lt;br&gt;Location: 235399 - 238519" locus_tag="HS041_13790" class="clusterblast-orf" id="dummy-2_q19_0_all"  />
<polygon points="325,40 341,40 346,35 341,30 325,30 325,40 " style="fill:white; stroke-width:1; stroke:black; " description="&lt;b&gt;HS041_13795&lt;/b&gt;&lt;br&gt;acyl--CoA ligase&lt;br&gt;Location: 238880 - 240347" locus_tag="HS041_13795" class="clusterblast-orf" id="dummy-2_q20_0_all"  />
<polygon points="346,40 360,40 365,35 360,30 346,30 346,40 " style="fill:white; stroke-width:1; stroke:black; " description="&lt;b&gt;HS041_13800&lt;/b&gt;&lt;br&gt;hypothetical protein&lt;br&gt;Location: 240343 - 241654" locus_tag="HS041_13800" class="clusterblast-orf" id="dummy-2_q21_0_all"  />
<polygon points="366,40 369,35 366,30 366,40 " style="fill:white; stroke-width:1; stroke:black; " description="&lt;b&gt;HS041_13805&lt;/b&gt;&lt;br&gt;hypothetical protein&lt;br&gt;Location: 241729 - 241960" locus_tag="HS041_13805" class="clusterblast-orf" id="dummy-2_q22_0_all"  />
<polygon points="369,40 377,40 382,35 377,30 369,30 369,40 " style="fill:#15d815; stroke-width:1; stroke:black; " description="&lt;b&gt;HS041_13810&lt;/b&gt;&lt;br&gt;thiamine pyrophosphate-dependent dehydrogenase E1 component subunit alpha&lt;br&gt;Location: 241952 - 242897" locus_tag="HS041_13810" class="clusterblast-orf" id="dummy-2_q23_0_all"  />
<polygon points="382,40 392,40 397,35 392,30 382,30 382,40 " style="fill:#1515d8; stroke-width:1; stroke:black; " description="&lt;b&gt;HS041_13815&lt;/b&gt;&lt;br&gt;alpha-ketoacid dehydrogenase subunit beta&lt;br&gt;Location: 242887 - 243877" locus_tag="HS041_13815" class="clusterblast-orf" id="dummy-2_q24_0_all"  />
<polygon points="396,40 408,40 413,35 408,30 396,30 396,40 " style="fill:white; stroke-width:1; stroke:black; " description="&lt;b&gt;HS041_13820&lt;/b&gt;&lt;br&gt;2-oxo acid dehydrogenase subunit E2&lt;br&gt;Location: 243869 - 245039" locus_tag="HS041_13820" class="clusterblast-orf" id="dummy-2_q25_0_all"  />
<polygon points="415,40 490,40 495,35 490,30 415,30 415,40 " style="fill:white; stroke-width:1; stroke:black; " description="&lt;b&gt;HS041_13825&lt;/b&gt;&lt;br&gt;amino acid adenylation domain-containing protein&lt;br&gt;Location: 245137 - 250759" locus_tag="HS041_13825" class="clusterblast-orf" id="dummy-2_q26_0_all"  />
<polygon points="496,35 501,30 568,30 568,40 501,40 496,35 " style="fill:white; stroke-width:1; stroke:black; " description="&lt;b&gt;HS041_13830&lt;/b&gt;&lt;br&gt;DEAD/DEAH box helicase&lt;br&gt;Location: 250834 - 255832" locus_tag="HS041_13830" class="clusterblast-orf" id="dummy-2_q27_0_all"  />
<polygon points="570,40 584,40 589,35 584,30 570,30 570,40 " style="fill:white; stroke-width:1; stroke:black; " description="&lt;b&gt;HS041_13835&lt;/b&gt;&lt;br&gt;aspartate aminotransferase family protein&lt;br&gt;Location: 255994 - 257287" locus_tag="HS041_13835" class="clusterblast-orf" id="dummy-2_q28_0_all"  />
<polygon points="590,40 592,40 597,35 592,30 590,30 590,40 " style="fill:white; stroke-width:1; stroke:black; " description="&lt;b&gt;HS041_13840&lt;/b&gt;&lt;br&gt;VOC family protein&lt;br&gt;Location: 257363 - 257852" locus_tag="HS041_13840" class="clusterblast-orf" id="dummy-2_q29_0_all"  />
<polygon points="598,35 601,30 601,40 598,35 " style="fill:white; stroke-width:1; stroke:black; " description="&lt;b&gt;HS041_13845&lt;/b&gt;&lt;br&gt;hypothetical protein&lt;br&gt;Location: 257935 - 258151" locus_tag="HS041_13845" class="clusterblast-orf" id="dummy-2_q30_0_all"  />
<polygon points="604,40 607,35 604,30 604,40 " style="fill:white; stroke-width:1; stroke:black; " description="&lt;b&gt;HS041_13850&lt;/b&gt;&lt;br&gt;DUF3046 domain-containing protein&lt;br&gt;Location: 258345 - 258540" locus_tag="HS041_13850" class="clusterblast-orf" id="dummy-2_q31_0_all"  />
<polygon points="609,35 613,30 613,40 609,35 " style="fill:white; stroke-width:1; stroke:black; " description="&lt;b&gt;HS041_13855&lt;/b&gt;&lt;br&gt;hypothetical protein&lt;br&gt;Location: 258663 - 258939" locus_tag="HS041_13855" class="clusterblast-orf" id="dummy-2_q32_0_all"  />
<polygon points="617,40 628,40 633,35 628,30 617,30 617,40 " style="fill:white; stroke-width:1; stroke:black; " description="&lt;b&gt;HS041_13860&lt;/b&gt;&lt;br&gt;recombinase RecA&lt;br&gt;Location: 259234 - 260344" locus_tag="HS041_13860" class="clusterblast-orf" id="dummy-2_q33_0_all"  />
<polygon points="638,40 643,40 648,35 643,30 638,30 638,40 " style="fill:white; stroke-width:1; stroke:black; " description="&lt;b&gt;HS041_13865&lt;/b&gt;&lt;br&gt;recombination regulator RecX&lt;br&gt;Location: 260719 - 261361" locus_tag="HS041_13865" class="clusterblast-orf" id="dummy-2_q34_0_all"  />
<polygon points="652,40 671,40 676,35 671,30 652,30 652,40 " style="fill:white; stroke-width:1; stroke:black; " description="&lt;b&gt;HS041_13870&lt;/b&gt;&lt;br&gt;ribonuclease Y&lt;br&gt;Location: 261653 - 263339" locus_tag="HS041_13870" class="clusterblast-orf" id="dummy-2_q35_0_all"  />
<polygon points="676,35 681,30 704,30 704,40 681,40 676,35 " style="fill:white; stroke-width:1; stroke:black; " description="&lt;b&gt;HS041_13875&lt;/b&gt;&lt;br&gt;S9 family peptidase&lt;br&gt;Location: 263345 - 265307" locus_tag="HS041_13875" class="clusterblast-orf" id="dummy-2_q36_0_all"  />
<polygon points="706,35 711,30 719,30 719,40 711,40 706,35 " style="fill:white; stroke-width:1; stroke:black; " description="&lt;b&gt;HS041_13880&lt;/b&gt;&lt;br&gt;amino acid ABC transporter permease&lt;br&gt;Location: 265427 - 266372" locus_tag="HS041_13880" class="clusterblast-orf" id="dummy-2_q37_0_all"  />
<polygon points="719,35 724,30 729,30 729,40 724,40 719,35 " style="fill:white; stroke-width:1; stroke:black; " description="&lt;b&gt;HS041_13885&lt;/b&gt;&lt;br&gt;amino acid ABC transporter permease&lt;br&gt;Location: 266368 - 267037" locus_tag="HS041_13885" class="clusterblast-orf" id="dummy-2_q38_0_all"  />
<polygon points="730,35 735,30 742,30 742,40 735,40 730,35 " style="fill:white; stroke-width:1; stroke:black; " description="&lt;b&gt;HS041_13890&lt;/b&gt;&lt;br&gt;glutamate ABC transporter substrate-binding protein&lt;br&gt;Location: 267098 - 267920" locus_tag="HS041_13890" class="clusterblast-orf" id="dummy-2_q39_0_all"  />
<polygon points="743,35 748,30 753,30 753,40 748,40 743,35 " style="fill:white; stroke-width:1; stroke:black; " description="&lt;b&gt;HS041_13895&lt;/b&gt;&lt;br&gt;amino acid ABC transporter ATP-binding protein&lt;br&gt;Location: 267986 - 268742" locus_tag="HS041_13895" class="clusterblast-orf" id="dummy-2_q40_0_all"  />
<polygon points="758,40 775,40 780,35 775,30 758,30 758,40 " style="fill:white; stroke-width:1; stroke:black; " description="&lt;b&gt;HS041_13900&lt;/b&gt;&lt;br&gt;tRNA (N6-isopentenyl adenosine(37)-C2)-methylthiotransferase MiaB&lt;br&gt;Location: 269057 - 270566" locus_tag="HS041_13900" class="clusterblast-orf" id="dummy-2_q41_0_all"  />
</g>
<g label="BGC0000394" description="BGC0000394_c1: naphthyridinomycin (10% of genes show similarity), NRP" class="clusterblast-cluster"  >
<text x="5" y="70" class="clusterblast-acc"  >
<a xlink:href="https://mibig.secondarymetabolites.org/go/BGC0000394/1" target="_blank">BGC0000394</a>: naphthyridinomycin                                                               (10% of genes show similarity), NRP</text>
<line x1="10" y1="85" x2="778.0" y2="85" style="stroke-width:1; stroke:grey; "  />
</g>
<g id="a2_000"  >
<polygon points="16,90 47,90 52,85 47,80 16,80 16,90 " style="fill:white; stroke-width:1; stroke:black; " description="&lt;b&gt;AGD80606.1&lt;/b&gt;&lt;br&gt;UV-repair protein&lt;br&gt;Location: 1 - 2493" locus_tag="AGD80606.1" class="clusterblast-orf" id="dummy-2_h2_3_0"  />
</g>
<g id="a2_001"  >
<polygon points="53,85 58,80 71,80 71,90 58,90 53,85 " style="fill:white; stroke-width:1; stroke:black; " description="&lt;b&gt;AGD80607.1&lt;/b&gt;&lt;br&gt;membrane protein&lt;br&gt;Location: 2534 - 3799" locus_tag="AGD80607.1" class="clusterblast-orf" id="dummy-2_h2_3_1"  />
</g>
<g id="a2_002"  >
<polygon points="71,85 76,80 92,80 92,90 76,90 71,85 " style="fill:white; stroke-width:1; stroke:black; " description="&lt;b&gt;AGD80608.1&lt;/b&gt;&lt;br&gt;monooxygenase&lt;br&gt;Location: 3812 - 5290" locus_tag="AGD80608.1" class="clusterblast-orf" id="dummy-2_h2_3_2"  />
</g>
<g id="a2_003"  >
<polygon points="97,90 106,90 111,85 106,80 97,80 97,90 " style="fill:#15d815; stroke-width:1; stroke:black; " description="&lt;b&gt;AGD80609.1&lt;/b&gt;&lt;br&gt;thiamin diphosphate binding domain of transketolase&lt;br&gt;Location: 5586 - 6602&lt;br&gt;&lt;br&gt;&lt;b&gt;BlastP hit with HS041_13810&lt;/b&gt;&lt;br&gt;Percentage identity: 65&lt;br&gt;Percentage coverage: 91&lt;br&gt;BLAST bit score: 358&lt;br&gt;E-value: 9.05e-124" locus_tag="AGD80609.1" class="clusterblast-orf" id="dummy-2_h2_3_3"  />
</g>
<g id="a2_004"  >
<polygon points="111,90 115,85 111,80 111,90 " style="fill:white; stroke-width:1; stroke:black; " description="&lt;b&gt;AGD80610.1&lt;/b&gt;&lt;br&gt;acyl carrier protein&lt;br&gt;Location: 6590 - 6847" locus_tag="AGD80610.1" class="clusterblast-orf" id="dummy-2_h2_3_4"  />
</g>
<g id="a2_005"  >
<polygon points="115,90 141,90 146,85 141,80 115,80 115,90 " style="fill:#1515d8; stroke-width:1; stroke:black; " description="&lt;b&gt;AGD80611.1&lt;/b&gt;&lt;br&gt;transketolase&lt;br&gt;Location: 6844 - 9018&lt;br&gt;&lt;br&gt;&lt;b&gt;BlastP hit with HS041_13815&lt;/b&gt;&lt;br&gt;Percentage identity: 58&lt;br&gt;Percentage coverage: 97&lt;br&gt;BLAST bit score: 349&lt;br&gt;E-value: 6.28e-115" locus_tag="AGD80611.1" class="clusterblast-orf" id="dummy-2_h2_3_5"  />
</g>
<g id="a2_006"  >
<polygon points="147,90 157,90 162,85 157,80 147,80 147,90 " style="fill:white; stroke-width:1; stroke:black; " description="&lt;b&gt;AGD80612.1&lt;/b&gt;&lt;br&gt;3-oxoacyl-synthase III&lt;br&gt;Location: 9114 - 10118" locus_tag="AGD80612.1" class="clusterblast-orf" id="dummy-2_h2_3_6"  />
</g>
<g id="a2_007"  >
<polygon points="163,90 165,90 170,85 165,80 163,80 163,90 " style="fill:white; stroke-width:1; stroke:black; " description="&lt;b&gt;AGD80613.1&lt;/b&gt;&lt;br&gt;hypothetical protein&lt;br&gt;Location: 10186 - 10698" locus_tag="AGD80613.1" class="clusterblast-orf" id="dummy-2_h2_3_7"  />
</g>
<g id="a2_008"  >
<polygon points="172,85 177,80 207,80 207,90 177,90 172,85 " style="fill:white; stroke-width:1; stroke:black; " description="&lt;b&gt;AGD80614.1&lt;/b&gt;&lt;br&gt;peptidase&lt;br&gt;Location: 10806 - 13259" locus_tag="AGD80614.1" class="clusterblast-orf" id="dummy-2_h2_3_8"  />
</g>
<g id="a2_009"  >
<polygon points="206,85 211,80 235,80 235,90 211,90 206,85 " style="fill:white; stroke-width:1; stroke:black; " description="&lt;b&gt;AGD80615.1&lt;/b&gt;&lt;br&gt;regulatory protein&lt;br&gt;Location: 13240 - 15228" locus_tag="AGD80615.1" class="clusterblast-orf" id="dummy-2_h2_3_9"  />
</g>
<g id="a2_0010"  >
<polygon points="238,85 243,80 275,80 275,90 243,90 238,85 " style="fill:white; stroke-width:1; stroke:black; " description="&lt;b&gt;AGD80616.1&lt;/b&gt;&lt;br&gt;amino acid adenylation domain-containing protein&lt;br&gt;Location: 15407 - 18046" locus_tag="AGD80616.1" class="clusterblast-orf" id="dummy-2_h2_3_10"  />
</g>
<g id="a2_0011"  >
<polygon points="277,85 282,80 291,80 291,90 282,90 277,85 " style="fill:white; stroke-width:1; stroke:black; " description="&lt;b&gt;AGD80617.1&lt;/b&gt;&lt;br&gt;non-heme iron hydroxylase&lt;br&gt;Location: 18127 - 19131" locus_tag="AGD80617.1" class="clusterblast-orf" id="dummy-2_h2_3_11"  />
</g>
<g id="a2_0012"  >
<polygon points="292,85 297,80 356,80 356,90 297,90 292,85 " style="fill:white; stroke-width:1; stroke:black; " description="&lt;b&gt;AGD80618.1&lt;/b&gt;&lt;br&gt;non-ribosomal peptide synthetase&lt;br&gt;Location: 19203 - 23657" locus_tag="AGD80618.1" class="clusterblast-orf" id="dummy-2_h2_3_12"  />
</g>
<g id="a2_0013"  >
<polygon points="356,85 359,80 359,90 356,85 " style="fill:#d81515; stroke-width:1; stroke:black; " description="&lt;b&gt;AGD80619.1&lt;/b&gt;&lt;br&gt;MbtH-like protein&lt;br&gt;Location: 23690 - 23890&lt;br&gt;&lt;br&gt;&lt;b&gt;BlastP hit with HS041_13785&lt;/b&gt;&lt;br&gt;Percentage identity: 61&lt;br&gt;Percentage coverage: 65&lt;br&gt;BLAST bit score: 76&lt;br&gt;E-value: 4.59e-20" locus_tag="AGD80619.1" class="clusterblast-orf" id="dummy-2_h2_3_13"  />
</g>
<g id="a2_0014"  >
<polygon points="360,85 365,80 405,80 405,90 365,90 360,85 " style="fill:white; stroke-width:1; stroke:black; " description="&lt;b&gt;AGD80620.1&lt;/b&gt;&lt;br&gt;non-ribosomal peptide synthetase&lt;br&gt;Location: 23936 - 27043" locus_tag="AGD80620.1" class="clusterblast-orf" id="dummy-2_h2_3_14"  />
</g>
<g id="a2_0015"  >
<polygon points="405,85 410,80 416,80 416,90 410,90 405,85 " style="fill:white; stroke-width:1; stroke:black; " description="&lt;b&gt;AGD80621.1&lt;/b&gt;&lt;br&gt;thioesterase II&lt;br&gt;Location: 27040 - 27813" locus_tag="AGD80621.1" class="clusterblast-orf" id="dummy-2_h2_3_15"  />
</g>
<g id="a2_0016"  >
<polygon points="420,90 444,90 449,85 444,80 420,80 420,90 " style="fill:white; stroke-width:1; stroke:black; " description="&lt;b&gt;AGD80622.1&lt;/b&gt;&lt;br&gt;AMP-dependent synthetase and ligase&lt;br&gt;Location: 28146 - 30125" locus_tag="AGD80622.1" class="clusterblast-orf" id="dummy-2_h2_3_16"  />
</g>
<g id="a2_0017"  >
<polygon points="450,90 578,90 583,85 578,80 450,80 450,90 " style="fill:white; stroke-width:1; stroke:black; " description="&lt;b&gt;AGD80623.1&lt;/b&gt;&lt;br&gt;non-ribosomal peptide synthetase&lt;br&gt;Location: 30195 - 39491" locus_tag="AGD80623.1" class="clusterblast-orf" id="dummy-2_h2_3_17"  />
</g>
<g id="a2_0018"  >
<polygon points="584,90 590,90 595,85 590,80 584,80 584,90 " style="fill:white; stroke-width:1; stroke:black; " description="&lt;b&gt;AGD80633.1&lt;/b&gt;&lt;br&gt;hypothetical protein&lt;br&gt;Location: 39551 - 40276" locus_tag="AGD80633.1" class="clusterblast-orf" id="dummy-2_h2_3_18"  />
</g>
<g id="a2_0019"  >
<polygon points="596,90 606,90 611,85 606,80 596,80 596,90 " style="fill:white; stroke-width:1; stroke:black; " description="&lt;b&gt;AGD80624.1&lt;/b&gt;&lt;br&gt;hydroxylase&lt;br&gt;Location: 40370 - 41425" locus_tag="AGD80624.1" class="clusterblast-orf" id="dummy-2_h2_3_19"  />
</g>
<g id="a2_0020"  >
<polygon points="613,90 624,90 629,85 624,80 613,80 613,90 " style="fill:white; stroke-width:1; stroke:black; " description="&lt;b&gt;AGD80625.1&lt;/b&gt;&lt;br&gt;SAM-dependent methyltransferase&lt;br&gt;Location: 41593 - 42657" locus_tag="AGD80625.1" class="clusterblast-orf" id="dummy-2_h2_3_20"  />
</g>
<g id="a2_0021"  >
<polygon points="631,90 641,90 646,85 641,80 631,80 631,90 " style="fill:white; stroke-width:1; stroke:black; " description="&lt;b&gt;AGD80626.1&lt;/b&gt;&lt;br&gt;SAM-dependent methyltransferase&lt;br&gt;Location: 42817 - 43863" locus_tag="AGD80626.1" class="clusterblast-orf" id="dummy-2_h2_3_21"  />
</g>
<g id="a2_0022"  >
<polygon points="648,90 666,90 671,85 666,80 648,80 648,90 " style="fill:white; stroke-width:1; stroke:black; " description="&lt;b&gt;AGD80627.1&lt;/b&gt;&lt;br&gt;transmembrane-transport protein&lt;br&gt;Location: 44009 - 45598" locus_tag="AGD80627.1" class="clusterblast-orf" id="dummy-2_h2_3_22"  />
</g>
<g id="a2_0023"  >
<polygon points="676,90 694,90 699,85 694,80 676,80 676,90 " style="fill:white; stroke-width:1; stroke:black; " description="&lt;b&gt;AGD80628.1&lt;/b&gt;&lt;br&gt;oxidoreductase&lt;br&gt;Location: 45924 - 47546" locus_tag="AGD80628.1" class="clusterblast-orf" id="dummy-2_h2_3_23"  />
</g>
<g id="a2_0024"  >
<polygon points="699,90 711,90 716,85 711,80 699,80 699,90 " style="fill:white; stroke-width:1; stroke:black; " description="&lt;b&gt;AGD80629.1&lt;/b&gt;&lt;br&gt;methyltransferase&lt;br&gt;Location: 47564 - 48733" locus_tag="AGD80629.1" class="clusterblast-orf" id="dummy-2_h2_3_24"  />
</g>
<g id="a2_0025"  >
<polygon points="718,85 723,80 732,80 732,90 723,90 718,85 " style="fill:white; stroke-width:1; stroke:black; " description="&lt;b&gt;AGD80630.1&lt;/b&gt;&lt;br&gt;short chain dehydrogenase&lt;br&gt;Location: 48891 - 49826" locus_tag="AGD80630.1" class="clusterblast-orf" id="dummy-2_h2_3_25"  />
</g>
<g id="a2_0026"  >
<polygon points="739,85 744,80 749,80 749,90 744,90 739,85 " style="fill:white; stroke-width:1; stroke:black; " description="&lt;b&gt;AGD80631.1&lt;/b&gt;&lt;br&gt;phosphopantetheinyl transferase&lt;br&gt;Location: 50332 - 51018" locus_tag="AGD80631.1" class="clusterblast-orf" id="dummy-2_h2_3_26"  />
</g>
<g id="a2_0027"  >
<polygon points="753,85 758,80 763,80 763,90 758,90 753,85 " style="fill:white; stroke-width:1; stroke:black; " description="&lt;b&gt;AGD80632.1&lt;/b&gt;&lt;br&gt;transcriptional regulator&lt;br&gt;Location: 51312 - 51977" locus_tag="AGD80632.1" class="clusterblast-orf" id="dummy-2_h2_3_27"  />
</g>
</svg>
