<svg xmlns="http://www.w3.org/2000/svg" xmlns:xlink="http://www.w3.org/1999/xlink" version="1.1" x="0" y="0" height="400" width="800" viewBox="0 0 800 400" preserveAspectRatio="none"  >
<g label="Query sequence" class="clusterblast-cluster"  >
<text x="5" y="20" class="clusterblast-acc"  >
Query sequence</text>
<line x1="10" y1="35" x2="778.0" y2="35" style="stroke-width:1; stroke:grey; "  />
<polygon points="0,35 5,30 24,30 24,40 5,40 0,35 " style="fill:white; stroke-width:1; stroke:black; " description="&lt;b&gt;HS041_24960&lt;/b&gt;&lt;br&gt;hypothetical protein&lt;br&gt;Location: 753374 - 753986" locus_tag="HS041_24960" class="clusterblast-orf" id="knownclusterblast-3_q0_0_all"  />
<polygon points="51,35 56,30 99,30 99,40 56,40 51,35 " style="fill:white; stroke-width:1; stroke:black; " description="&lt;b&gt;HS041_24965&lt;/b&gt;&lt;br&gt;hypothetical protein&lt;br&gt;Location: 754683 - 755901" locus_tag="HS041_24965" class="clusterblast-orf" id="knownclusterblast-3_q1_0_all"  />
<polygon points="107,40 128,40 133,35 128,30 107,30 107,40 " style="fill:white; stroke-width:1; stroke:black; " description="&lt;b&gt;HS041_24970&lt;/b&gt;&lt;br&gt;response regulator transcription factor&lt;br&gt;Location: 756095 - 756752" locus_tag="HS041_24970" class="clusterblast-orf" id="knownclusterblast-3_q2_0_all"  />
<polygon points="132,35 137,30 200,30 200,40 137,40 132,35 " style="fill:#d81515; stroke-width:1; stroke:black; " description="&lt;b&gt;HS041_24975&lt;/b&gt;&lt;br&gt;ABC transporter ATP-binding protein&lt;br&gt;Location: 756733 - 758476" locus_tag="HS041_24975" class="clusterblast-orf" id="knownclusterblast-3_q3_0_all"  />
<polygon points="200,35 205,30 268,30 268,40 205,40 200,35 " style="fill:#4dd815; stroke-width:1; stroke:black; " description="&lt;b&gt;HS041_24980&lt;/b&gt;&lt;br&gt;ABC transporter ATP-binding protein&lt;br&gt;Location: 758472 - 760203" locus_tag="HS041_24980" class="clusterblast-orf" id="knownclusterblast-3_q4_0_all"  />
<polygon points="272,35 276,30 276,40 272,35 " style="fill:white; stroke-width:1; stroke:black; " description="&lt;b&gt;HS041_24985&lt;/b&gt;&lt;br&gt;SapB/AmfS family lantipeptide&lt;br&gt;Location: 760296 - 760410" locus_tag="HS041_24985" class="clusterblast-orf" id="knownclusterblast-3_q5_0_all"  />
<polygon points="279,35 284,30 388,30 388,40 284,40 279,35 " style="fill:#1585d8; stroke-width:1; stroke:black; " description="&lt;b&gt;HS041_24990&lt;/b&gt;&lt;br&gt;protein kinase/lanthionine synthetase C family protein&lt;br&gt;Location: 760480 - 763255" locus_tag="HS041_24990" class="clusterblast-orf" id="knownclusterblast-3_q6_0_all"  />
<polygon points="394,35 399,30 423,30 423,40 399,40 394,35 " style="fill:white; stroke-width:1; stroke:black; " description="&lt;b&gt;HS041_24995&lt;/b&gt;&lt;br&gt;hypothetical protein&lt;br&gt;Location: 763401 - 764133" locus_tag="HS041_24995" class="clusterblast-orf" id="knownclusterblast-3_q7_0_all"  />
<polygon points="429,35 434,30 457,30 457,40 434,40 429,35 " style="fill:white; stroke-width:1; stroke:black; " description="&lt;b&gt;HS041_25000&lt;/b&gt;&lt;br&gt;M50 family metallopeptidase&lt;br&gt;Location: 764287 - 765001" locus_tag="HS041_25000" class="clusterblast-orf" id="knownclusterblast-3_q8_0_all"  />
<polygon points="463,35 468,30 550,30 550,40 468,40 463,35 " style="fill:white; stroke-width:1; stroke:black; " description="&lt;b&gt;HS041_25005&lt;/b&gt;&lt;br&gt;MFS transporter&lt;br&gt;Location: 765160 - 767371" locus_tag="HS041_25005" class="clusterblast-orf" id="knownclusterblast-3_q9_0_all"  />
<polygon points="558,40 597,40 602,35 597,30 558,30 558,40 " style="fill:white; stroke-width:1; stroke:black; " description="&lt;b&gt;HS041_25010&lt;/b&gt;&lt;br&gt;hypothetical protein&lt;br&gt;Location: 767581 - 768694" locus_tag="HS041_25010" class="clusterblast-orf" id="knownclusterblast-3_q10_0_all"  />
<polygon points="605,35 610,30 639,30 639,40 610,40 605,35 " style="fill:#d815bc; stroke-width:1; stroke:black; " description="&lt;b&gt;HS041_25015&lt;/b&gt;&lt;br&gt;ABC transporter permease&lt;br&gt;Location: 768787 - 769642" locus_tag="HS041_25015" class="clusterblast-orf" id="knownclusterblast-3_q11_0_all"  />
<polygon points="642,35 647,30 681,30 681,40 647,40 642,35 " style="fill:#d8bc15; stroke-width:1; stroke:black; " description="&lt;b&gt;HS041_25020&lt;/b&gt;&lt;br&gt;ATP-binding cassette domain-containing protein&lt;br&gt;Location: 769729 - 770704" locus_tag="HS041_25020" class="clusterblast-orf" id="knownclusterblast-3_q12_0_all"  />
<polygon points="691,35 696,30 715,30 715,40 696,40 691,35 " style="fill:#15d885; stroke-width:1; stroke:black; " description="&lt;b&gt;HS041_25025&lt;/b&gt;&lt;br&gt;TetR/AcrR family transcriptional regulator&lt;br&gt;Location: 770968 - 771568" locus_tag="HS041_25025" class="clusterblast-orf" id="knownclusterblast-3_q13_0_all"  />
<polygon points="718,40 775,40 780,35 775,30 718,30 718,40 " style="fill:#4d15d8; stroke-width:1; stroke:black; " description="&lt;b&gt;HS041_25030&lt;/b&gt;&lt;br&gt;methylcrotonoyl-CoA carboxylase&lt;br&gt;Location: 771657 - 773226" locus_tag="HS041_25030" class="clusterblast-orf" id="knownclusterblast-3_q14_0_all"  />
</g>
<g label="BGC0000501" description="BGC0000501_c1: catenulipeptin (60% of genes show similarity), RiPP:Lanthipeptide" class="clusterblast-cluster"  >
<text x="5" y="70" class="clusterblast-acc"  >
<a xlink:href="https://mibig.secondarymetabolites.org/go/BGC0000501/1" target="_blank">BGC0000501</a>: catenulipeptin                                                                   (60% of genes show similarity), RiPP:Lanthipeptide</text>
<line x1="10" y1="85" x2="778.0" y2="85" style="stroke-width:1; stroke:grey; "  />
</g>
<g id="a3_000"  >
<polygon points="248,85 253,80 320,80 320,90 253,90 248,85 " style="fill:#d81515; stroke-width:1; stroke:black; " description="&lt;b&gt;Caci_4243&lt;/b&gt;&lt;br&gt;ABC transporter related&lt;br&gt;Location: 7208 - 5379&lt;br&gt;&lt;br&gt;&lt;b&gt;BlastP hit with HS041_24975&lt;/b&gt;&lt;br&gt;Percentage identity: 49&lt;br&gt;Percentage coverage: 93&lt;br&gt;BLAST bit score: 414&lt;br&gt;E-value: 7.69e-138" locus_tag="Caci_4243" class="clusterblast-orf" id="knownclusterblast-3_all_3_1_0"  />
</g>
<g id="a3_001"  >
<polygon points="320,85 325,80 384,80 384,90 325,90 320,85 " style="fill:#4dd815; stroke-width:1; stroke:black; " description="&lt;b&gt;Caci_4242&lt;/b&gt;&lt;br&gt;ABC transporter related&lt;br&gt;Location: 5382 - 3742&lt;br&gt;&lt;br&gt;&lt;b&gt;BlastP hit with HS041_24980&lt;/b&gt;&lt;br&gt;Percentage identity: 49&lt;br&gt;Percentage coverage: 94&lt;br&gt;BLAST bit score: 441&lt;br&gt;E-value: 4.04e-149" locus_tag="Caci_4242" class="clusterblast-orf" id="knownclusterblast-3_all_3_1_1"  />
</g>
<g id="a3_002"  >
<polygon points="387,90 411,90 416,85 411,80 387,80 387,90 " style="fill:white; stroke-width:1; stroke:black; " description="&lt;b&gt;Caci_4241&lt;/b&gt;&lt;br&gt;hypothetical protein&lt;br&gt;Location: 3663 - 2938" locus_tag="Caci_4241" class="clusterblast-orf" id="knownclusterblast-3_all_3_1_2"  />
</g>
<g id="a3_003"  >
<polygon points="422,85 427,80 428,80 428,90 427,90 422,85 " style="fill:white; stroke-width:1; stroke:black; " description="&lt;b&gt;Caci_4240&lt;/b&gt;&lt;br&gt;precursor&lt;br&gt;Location: 2774 - 2619" locus_tag="Caci_4240" class="clusterblast-orf" id="knownclusterblast-3_all_3_1_3"  />
</g>
<g id="a3_004"  >
<polygon points="428,85 433,80 531,80 531,90 433,90 428,85 " style="fill:#1585d8; stroke-width:1; stroke:black; " description="&lt;b&gt;Caci_4239&lt;/b&gt;&lt;br&gt;serine/threonine protein kinase&lt;br&gt;Location: 2613 - 1&lt;br&gt;&lt;br&gt;&lt;b&gt;BlastP hit with HS041_24990&lt;/b&gt;&lt;br&gt;Percentage identity: 49&lt;br&gt;Percentage coverage: 94&lt;br&gt;BLAST bit score: 778&lt;br&gt;E-value: 2.11e-271" locus_tag="Caci_4239" class="clusterblast-orf" id="knownclusterblast-3_all_3_1_4"  />
</g>
<g label="BGC0000551" description="BGC0000551_c1: SapB (75% of genes show similarity), RiPP:Lanthipeptide" class="clusterblast-cluster"  >
<text x="5" y="120" class="clusterblast-acc"  >
<a xlink:href="https://mibig.secondarymetabolites.org/go/BGC0000551/1" target="_blank">BGC0000551</a>: SapB                                                                             (75% of genes show similarity), RiPP:Lanthipeptide</text>
<line x1="10" y1="135" x2="778.0" y2="135" style="stroke-width:1; stroke:grey; "  />
</g>
<g id="a3_000"  >
<polygon points="257,135 262,130 329,130 329,140 262,140 257,135 " style="fill:#d81515; stroke-width:1; stroke:black; " description="&lt;b&gt;CAA19963.1&lt;/b&gt;&lt;br&gt;putative ABC transporter&lt;br&gt;Location: 6728 - 4902&lt;br&gt;&lt;br&gt;&lt;b&gt;BlastP hit with HS041_24975&lt;/b&gt;&lt;br&gt;Percentage identity: 46&lt;br&gt;Percentage coverage: 102&lt;br&gt;BLAST bit score: 425&lt;br&gt;E-value: 4.71e-142" locus_tag="CAA19963.1" class="clusterblast-orf" id="knownclusterblast-3_all_3_2_0"  />
</g>
<g id="a3_001"  >
<polygon points="329,135 334,130 404,130 404,140 334,140 329,135 " style="fill:#4dd815; stroke-width:1; stroke:black; " description="&lt;b&gt;CAA19962.1&lt;/b&gt;&lt;br&gt;putative ABC transporter&lt;br&gt;Location: 4905 - 2995&lt;br&gt;&lt;br&gt;&lt;b&gt;BlastP hit with HS041_24980&lt;/b&gt;&lt;br&gt;Percentage identity: 49&lt;br&gt;Percentage coverage: 93&lt;br&gt;BLAST bit score: 400&lt;br&gt;E-value: 2.63e-132" locus_tag="CAA19962.1" class="clusterblast-orf" id="knownclusterblast-3_all_3_2_1"  />
</g>
<g id="a3_002"  >
<polygon points="405,135 410,130 410,130 410,140 410,140 405,135 " style="fill:white; stroke-width:1; stroke:black; " description="&lt;b&gt;CAA19961.1&lt;/b&gt;&lt;br&gt;hypothetical protein SC5A7.32&lt;br&gt;Location: 2959 - 2831" locus_tag="CAA19961.1" class="clusterblast-orf" id="knownclusterblast-3_all_3_2_2"  />
</g>
<g id="a3_003"  >
<polygon points="412,135 417,130 522,130 522,140 417,140 412,135 " style="fill:#1585d8; stroke-width:1; stroke:black; " description="&lt;b&gt;CAA19960.1&lt;/b&gt;&lt;br&gt;putative serine/threonine protein kinase&lt;br&gt;Location: 2793 - 1&lt;br&gt;&lt;br&gt;&lt;b&gt;BlastP hit with HS041_24990&lt;/b&gt;&lt;br&gt;Percentage identity: 48&lt;br&gt;Percentage coverage: 97&lt;br&gt;BLAST bit score: 762&lt;br&gt;E-value: 2.35e-264" locus_tag="CAA19960.1" class="clusterblast-orf" id="knownclusterblast-3_all_3_2_3"  />
</g>
<g label="BGC0000519" description="BGC0000519_c1: labyrinthopeptin A2/labyrinthopeptin A1/labyrinthopeptin A3 (60% of genes show similarity), RiPP:Lanthipeptide" class="clusterblast-cluster"  >
<text x="5" y="170" class="clusterblast-acc"  >
<a xlink:href="https://mibig.secondarymetabolites.org/go/BGC0000519/1" target="_blank">BGC0000519</a>: labyrinthopeptin A2/labyrinthopeptin A1/labyrinthopeptin A3                      (60% of genes show similarity), RiPP:Lanthipeptide</text>
<line x1="10" y1="185" x2="778.0" y2="185" style="stroke-width:1; stroke:grey; "  />
</g>
<g id="a3_000"  >
<polygon points="264,185 269,180 331,180 331,190 269,190 264,185 " style="fill:#d81515; stroke-width:1; stroke:black; " description="&lt;b&gt;CAX48975.1&lt;/b&gt;&lt;br&gt;ABC-transporter&lt;br&gt;Location: 6400 - 4685&lt;br&gt;&lt;br&gt;&lt;b&gt;BlastP hit with HS041_24975&lt;/b&gt;&lt;br&gt;Percentage identity: 47&lt;br&gt;Percentage coverage: 96&lt;br&gt;BLAST bit score: 390&lt;br&gt;E-value: 6.71e-129" locus_tag="CAX48975.1" class="clusterblast-orf" id="knownclusterblast-3_all_3_3_0"  />
</g>
<g id="a3_001"  >
<polygon points="331,185 336,180 398,180 398,190 336,190 331,185 " style="fill:#4dd815; stroke-width:1; stroke:black; " description="&lt;b&gt;CAX48974.1&lt;/b&gt;&lt;br&gt;ABC-transporter&lt;br&gt;Location: 4688 - 2988&lt;br&gt;&lt;br&gt;&lt;b&gt;BlastP hit with HS041_24980&lt;/b&gt;&lt;br&gt;Percentage identity: 49&lt;br&gt;Percentage coverage: 97&lt;br&gt;BLAST bit score: 434&lt;br&gt;E-value: 2.77e-146" locus_tag="CAX48974.1" class="clusterblast-orf" id="knownclusterblast-3_all_3_3_1"  />
</g>
<g id="a3_002"  >
<polygon points="402,185 407,180 407,180 407,190 407,190 402,185 " style="fill:white; stroke-width:1; stroke:black; " description="&lt;b&gt;CAX48973.1&lt;/b&gt;&lt;br&gt;labyrinthopeptin A2 prepropeptide&lt;br&gt;Location: 2877 - 2761" locus_tag="CAX48973.1" class="clusterblast-orf" id="knownclusterblast-3_all_3_3_2"  />
</g>
<g id="a3_003"  >
<polygon points="408,185 413,180 413,180 413,190 413,190 408,185 " style="fill:white; stroke-width:1; stroke:black; " description="&lt;b&gt;CAX48972.1&lt;/b&gt;&lt;br&gt;labyrinthopeptin A1/A3 prepropeptide&lt;br&gt;Location: 2721 - 2599" locus_tag="CAX48972.1" class="clusterblast-orf" id="knownclusterblast-3_all_3_3_3"  />
</g>
<g id="a3_004"  >
<polygon points="414,185 419,180 515,180 515,190 419,190 414,185 " style="fill:#1585d8; stroke-width:1; stroke:black; " description="&lt;b&gt;CAX48971.1&lt;/b&gt;&lt;br&gt;serine/threonine kinase&lt;br&gt;Location: 2589 - 1&lt;br&gt;&lt;br&gt;&lt;b&gt;BlastP hit with HS041_24990&lt;/b&gt;&lt;br&gt;Percentage identity: 46&lt;br&gt;Percentage coverage: 94&lt;br&gt;BLAST bit score: 687&lt;br&gt;E-value: 5.72e-236" locus_tag="CAX48971.1" class="clusterblast-orf" id="knownclusterblast-3_all_3_3_4"  />
</g>
<g label="BGC0000546" description="BGC0000546_c1: SAL-2242 (44% of genes show similarity), RiPP:Lanthipeptide" class="clusterblast-cluster"  >
<text x="5" y="220" class="clusterblast-acc"  >
<a xlink:href="https://mibig.secondarymetabolites.org/go/BGC0000546/1" target="_blank">BGC0000546</a>: SAL-2242                                                                         (44% of genes show similarity), RiPP:Lanthipeptide</text>
<line x1="10" y1="235" x2="778.0" y2="235" style="stroke-width:1; stroke:grey; "  />
</g>
<g id="a3_000"  >
<polygon points="233,240 244,240 249,235 244,230 233,230 233,240 " style="fill:white; stroke-width:1; stroke:black; " description="&lt;b&gt;SSHG_RS18005&lt;/b&gt;&lt;br&gt;LuxR C-terminal-related transcriptional regulator&lt;br&gt;Location: 7976 - 7566" locus_tag="SSHG_RS18005" class="clusterblast-orf" id="knownclusterblast-3_all_3_4_0"  />
</g>
<g id="a3_001"  >
<polygon points="233,240 244,240 249,235 244,230 233,230 233,240 " style="fill:white; stroke-width:1; stroke:black; " description="&lt;b&gt;SSHG_03592&lt;/b&gt;&lt;br&gt;two-component system response regulator&lt;br&gt;Location: 7976 - 7566" locus_tag="SSHG_03592" class="clusterblast-orf" id="knownclusterblast-3_all_3_4_1"  />
</g>
<g id="a3_002"  >
<polygon points="274,235 279,230 350,230 350,240 279,240 274,235 " style="fill:white; stroke-width:1; stroke:black; " description="&lt;b&gt;SSHG_RS18000&lt;/b&gt;&lt;br&gt;ABC transporter ATP-binding protein/permease&lt;br&gt;Location: 6915 - 4984" locus_tag="SSHG_RS18000" class="clusterblast-orf" id="knownclusterblast-3_all_3_4_2"  />
</g>
<g id="a3_003"  >
<polygon points="350,235 355,230 419,230 419,240 355,240 350,235 " style="fill:#4dd815; stroke-width:1; stroke:black; " description="&lt;b&gt;SSHG_RS17995&lt;/b&gt;&lt;br&gt;ABC transporter ATP-binding protein/permease&lt;br&gt;Location: 4987 - 3248&lt;br&gt;&lt;br&gt;&lt;b&gt;BlastP hit with HS041_24980&lt;/b&gt;&lt;br&gt;Percentage identity: 50&lt;br&gt;Percentage coverage: 91&lt;br&gt;BLAST bit score: 400&lt;br&gt;E-value: 6.78e-133" locus_tag="SSHG_RS17995" class="clusterblast-orf" id="knownclusterblast-3_all_3_4_3"  />
</g>
<g id="a3_004"  >
<polygon points="350,235 355,230 422,230 422,240 355,240 350,235 " style="fill:#4dd815; stroke-width:1; stroke:black; " description="&lt;b&gt;SSHG_03590&lt;/b&gt;&lt;br&gt;ABC transporter ATP-binding protein&lt;br&gt;Location: 4987 - 3164&lt;br&gt;&lt;br&gt;&lt;b&gt;BlastP hit with HS041_24980&lt;/b&gt;&lt;br&gt;Percentage identity: 50&lt;br&gt;Percentage coverage: 96&lt;br&gt;BLAST bit score: 416&lt;br&gt;E-value: 1.6e-138" locus_tag="SSHG_03590" class="clusterblast-orf" id="knownclusterblast-3_all_3_4_4"  />
</g>
<g id="a3_005"  >
<polygon points="431,235 436,230 436,230 436,240 436,240 431,235 " style="fill:white; stroke-width:1; stroke:black; " description="&lt;b&gt;SSHG_RS17990&lt;/b&gt;&lt;br&gt;SapB/AmfS family lanthipeptide&lt;br&gt;Location: 2933 - 2802" locus_tag="SSHG_RS17990" class="clusterblast-orf" id="knownclusterblast-3_all_3_4_5"  />
</g>
<g id="a3_006"  >
<polygon points="431,235 436,230 438,230 438,240 436,240 431,235 " style="fill:white; stroke-width:1; stroke:black; " description="&lt;b&gt;SSHG_03589&lt;/b&gt;&lt;br&gt;predicted protein&lt;br&gt;Location: 2933 - 2763" locus_tag="SSHG_03589" class="clusterblast-orf" id="knownclusterblast-3_all_3_4_6"  />
</g>
<g id="a3_007"  >
<polygon points="440,235 445,230 541,230 541,240 445,240 440,235 " style="fill:#1585d8; stroke-width:1; stroke:black; " description="&lt;b&gt;SSHG_RS17985&lt;/b&gt;&lt;br&gt;class III lanthionine synthetase LanKC&lt;br&gt;Location: 2712 - 133&lt;br&gt;&lt;br&gt;&lt;b&gt;BlastP hit with HS041_24990&lt;/b&gt;&lt;br&gt;Percentage identity: 47&lt;br&gt;Percentage coverage: 94&lt;br&gt;BLAST bit score: 689&lt;br&gt;E-value: 9.19e-237" locus_tag="SSHG_RS17985" class="clusterblast-orf" id="knownclusterblast-3_all_3_4_7"  />
</g>
<g id="a3_008"  >
<polygon points="440,235 445,230 546,230 546,240 445,240 440,235 " style="fill:#1585d8; stroke-width:1; stroke:black; " description="&lt;b&gt;SSHG_03588&lt;/b&gt;&lt;br&gt;serine/threonine protein kinase&lt;br&gt;Location: 2712 - 1&lt;br&gt;&lt;br&gt;&lt;b&gt;BlastP hit with HS041_24990&lt;/b&gt;&lt;br&gt;Percentage identity: 47&lt;br&gt;Percentage coverage: 94&lt;br&gt;BLAST bit score: 687&lt;br&gt;E-value: 1.52e-235" locus_tag="SSHG_03588" class="clusterblast-orf" id="knownclusterblast-3_all_3_4_8"  />
</g>
<g label="BGC0002284" description="BGC0002284_c1: corynecin III/corynecin I/corynecin II (13% of genes show similarity), Other" class="clusterblast-cluster"  >
<text x="5" y="270" class="clusterblast-acc"  >
<a xlink:href="https://mibig.secondarymetabolites.org/go/BGC0002284/1" target="_blank">BGC0002284</a>: corynecin III/corynecin I/corynecin II                                           (13% of genes show similarity), Other</text>
<line x1="10" y1="285" x2="778.0" y2="285" style="stroke-width:1; stroke:grey; "  />
</g>
<g id="a3_000"  >
<polygon points="38,285 43,280 95,280 95,290 43,290 38,285 " style="fill:white; stroke-width:1; stroke:black; " description="&lt;b&gt;CPI83_20065&lt;/b&gt;&lt;br&gt;hypothetical protein&lt;br&gt;Location: 17900 - 16452" locus_tag="CPI83_20065" class="clusterblast-orf" id="knownclusterblast-3_all_3_5_0"  />
</g>
<g id="a3_001"  >
<polygon points="104,290 187,290 192,285 187,280 104,280 104,290 " style="fill:white; stroke-width:1; stroke:black; " description="&lt;b&gt;CPI83_20060&lt;/b&gt;&lt;br&gt;MMPL family transporter&lt;br&gt;Location: 16227 - 13981" locus_tag="CPI83_20060" class="clusterblast-orf" id="knownclusterblast-3_all_3_5_1"  />
</g>
<g id="a3_002"  >
<polygon points="199,290 251,290 256,285 251,280 199,280 199,290 " style="fill:white; stroke-width:1; stroke:black; " description="&lt;b&gt;CPI83_20055&lt;/b&gt;&lt;br&gt;hypothetical protein&lt;br&gt;Location: 13797 - 12358" locus_tag="CPI83_20055" class="clusterblast-orf" id="knownclusterblast-3_all_3_5_2"  />
</g>
<g id="a3_003"  >
<polygon points="255,290 304,290 309,285 304,280 255,280 255,290 " style="fill:white; stroke-width:1; stroke:black; " description="&lt;b&gt;CPI83_20050&lt;/b&gt;&lt;br&gt;hypothetical protein&lt;br&gt;Location: 12361 - 10997" locus_tag="CPI83_20050" class="clusterblast-orf" id="knownclusterblast-3_all_3_5_3"  />
</g>
<g id="a3_004"  >
<polygon points="308,285 313,280 363,280 363,290 313,290 308,285 " style="fill:white; stroke-width:1; stroke:black; " description="&lt;b&gt;CPI83_20045&lt;/b&gt;&lt;br&gt;C4-dicarboxylate transporter DctA&lt;br&gt;Location: 11019 - 9613" locus_tag="CPI83_20045" class="clusterblast-orf" id="knownclusterblast-3_all_3_5_4"  />
</g>
<g id="a3_005"  >
<polygon points="371,290 376,290 381,285 376,280 371,280 371,290 " style="fill:white; stroke-width:1; stroke:black; " description="&lt;b&gt;CPI83_20040&lt;/b&gt;&lt;br&gt;GlsB/YeaQ/YmgE family stress response membrane protein&lt;br&gt;Location: 9424 - 9164" locus_tag="CPI83_20040" class="clusterblast-orf" id="knownclusterblast-3_all_3_5_5"  />
</g>
<g id="a3_006"  >
<polygon points="387,285 392,280 417,280 417,290 392,290 387,285 " style="fill:white; stroke-width:1; stroke:black; " description="&lt;b&gt;CPI83_20035&lt;/b&gt;&lt;br&gt;GTP pyrophosphokinase&lt;br&gt;Location: 9006 - 8260" locus_tag="CPI83_20035" class="clusterblast-orf" id="knownclusterblast-3_all_3_5_6"  />
</g>
<g id="a3_007"  >
<polygon points="419,285 424,280 442,280 442,290 424,290 419,285 " style="fill:#15d885; stroke-width:1; stroke:black; " description="&lt;b&gt;CPI83_20030&lt;/b&gt;&lt;br&gt;TetR/AcrR family transcriptional regulator&lt;br&gt;Location: 8211 - 7612&lt;br&gt;&lt;br&gt;&lt;b&gt;BlastP hit with HS041_25025&lt;/b&gt;&lt;br&gt;Percentage identity: 50&lt;br&gt;Percentage coverage: 94&lt;br&gt;BLAST bit score: 166&lt;br&gt;E-value: 8.5e-52" locus_tag="CPI83_20030" class="clusterblast-orf" id="knownclusterblast-3_all_3_5_7"  />
</g>
<g id="a3_008"  >
<polygon points="446,290 503,290 508,285 503,280 446,280 446,290 " style="fill:#4d15d8; stroke-width:1; stroke:black; " description="&lt;b&gt;CPI83_20025&lt;/b&gt;&lt;br&gt;methylcrotonoyl-CoA carboxylase&lt;br&gt;Location: 7513 - 5924&lt;br&gt;&lt;br&gt;&lt;b&gt;BlastP hit with HS041_25030&lt;/b&gt;&lt;br&gt;Percentage identity: 78&lt;br&gt;Percentage coverage: 98&lt;br&gt;BLAST bit score: 805&lt;br&gt;E-value: 1.13e-293" locus_tag="CPI83_20025" class="clusterblast-orf" id="knownclusterblast-3_all_3_5_8"  />
</g>
<g id="a3_009"  >
<polygon points="509,290 584,290 589,285 584,280 509,280 509,290 " style="fill:white; stroke-width:1; stroke:black; " description="&lt;b&gt;CPI83_20020&lt;/b&gt;&lt;br&gt;acetyl/propionyl/methylcrotonyl-CoA carboxylase subunit alpha&lt;br&gt;Location: 5918 - 3879" locus_tag="CPI83_20020" class="clusterblast-orf" id="knownclusterblast-3_all_3_5_9"  />
</g>
<g id="a3_0010"  >
<polygon points="589,290 629,290 634,285 629,280 589,280 589,290 " style="fill:white; stroke-width:1; stroke:black; " description="&lt;b&gt;CPI83_20015&lt;/b&gt;&lt;br&gt;acyl-CoA dehydrogenase&lt;br&gt;Location: 3879 - 2716" locus_tag="CPI83_20015" class="clusterblast-orf" id="knownclusterblast-3_all_3_5_10"  />
</g>
<g id="a3_0011"  >
<polygon points="634,290 648,290 653,285 648,280 634,280 634,290 " style="fill:white; stroke-width:1; stroke:black; " description="&lt;b&gt;CPI83_20010&lt;/b&gt;&lt;br&gt;dehydratase&lt;br&gt;Location: 2719 - 2231" locus_tag="CPI83_20010" class="clusterblast-orf" id="knownclusterblast-3_all_3_5_11"  />
</g>
<g id="a3_0012"  >
<polygon points="653,290 681,290 686,285 681,280 653,280 653,290 " style="fill:white; stroke-width:1; stroke:black; " description="&lt;b&gt;CPI83_20005&lt;/b&gt;&lt;br&gt;CoA ester lyase&lt;br&gt;Location: 2234 - 1407" locus_tag="CPI83_20005" class="clusterblast-orf" id="knownclusterblast-3_all_3_5_12"  />
</g>
<g id="a3_0013"  >
<polygon points="686,290 711,290 716,285 711,280 686,280 686,290 " style="fill:white; stroke-width:1; stroke:black; " description="&lt;b&gt;CPI83_20000&lt;/b&gt;&lt;br&gt;CoA transferase subunit A&lt;br&gt;Location: 1403 - 648" locus_tag="CPI83_20000" class="clusterblast-orf" id="knownclusterblast-3_all_3_5_13"  />
</g>
<g id="a3_0014"  >
<polygon points="717,290 736,290 741,285 736,280 717,280 717,290 " style="fill:white; stroke-width:1; stroke:black; " description="&lt;b&gt;CPI83_19995&lt;/b&gt;&lt;br&gt;succinyl-CoA--3-ketoacid-CoA transferase&lt;br&gt;Location: 627 - 1" locus_tag="CPI83_19995" class="clusterblast-orf" id="knownclusterblast-3_all_3_5_14"  />
</g>
<g label="BGC0001579" description="BGC0001579_c1: duramycin (25% of genes show similarity), RiPP:Lanthipeptide" class="clusterblast-cluster"  >
<text x="5" y="320" class="clusterblast-acc"  >
<a xlink:href="https://mibig.secondarymetabolites.org/go/BGC0001579/1" target="_blank">BGC0001579</a>: duramycin                                                                        (25% of genes show similarity), RiPP:Lanthipeptide</text>
<line x1="10" y1="335" x2="778.0" y2="335" style="stroke-width:1; stroke:grey; "  />
</g>
<g id="a3_000"  >
<polygon points="216,340 235,340 240,335 235,330 216,330 216,340 " style="fill:white; stroke-width:1; stroke:black; " description="&lt;b&gt;BLK03_RS04585&lt;/b&gt;&lt;br&gt;YigZ family protein&lt;br&gt;Location: 8838 - 8212" locus_tag="BLK03_RS04585" class="clusterblast-orf" id="knownclusterblast-3_all_3_6_0"  />
</g>
<g id="a3_001"  >
<polygon points="244,335 249,330 284,330 284,340 249,340 244,335 " style="fill:white; stroke-width:1; stroke:black; " description="&lt;b&gt;BLK03_RS04580&lt;/b&gt;&lt;br&gt;CinY protein&lt;br&gt;Location: 8125 - 7103" locus_tag="BLK03_RS04580" class="clusterblast-orf" id="knownclusterblast-3_all_3_6_1"  />
</g>
<g id="a3_002"  >
<polygon points="288,335 293,330 322,330 322,340 293,340 288,335 " style="fill:#d815bc; stroke-width:1; stroke:black; " description="&lt;b&gt;BLK03_RS04575&lt;/b&gt;&lt;br&gt;ABC transporter permease&lt;br&gt;Location: 7003 - 6131&lt;br&gt;&lt;br&gt;&lt;b&gt;BlastP hit with HS041_25015&lt;/b&gt;&lt;br&gt;Percentage identity: 48&lt;br&gt;Percentage coverage: 94&lt;br&gt;BLAST bit score: 224&lt;br&gt;E-value: 2.99e-72" locus_tag="BLK03_RS04575" class="clusterblast-orf" id="knownclusterblast-3_all_3_6_2"  />
</g>
<g id="a3_003"  >
<polygon points="322,335 327,330 364,330 364,340 327,340 322,335 " style="fill:#d8bc15; stroke-width:1; stroke:black; " description="&lt;b&gt;BLK03_RS04570&lt;/b&gt;&lt;br&gt;ATP-binding cassette domain-containing protein&lt;br&gt;Location: 6134 - 5076&lt;br&gt;&lt;br&gt;&lt;b&gt;BlastP hit with HS041_25020&lt;/b&gt;&lt;br&gt;Percentage identity: 59&lt;br&gt;Percentage coverage: 96&lt;br&gt;BLAST bit score: 350&lt;br&gt;E-value: 4.56e-120" locus_tag="BLK03_RS04570" class="clusterblast-orf" id="knownclusterblast-3_all_3_6_3"  />
</g>
<g id="a3_004"  >
<polygon points="366,335 371,330 404,330 404,340 371,340 366,335 " style="fill:white; stroke-width:1; stroke:black; " description="&lt;b&gt;BLK03_RS04565&lt;/b&gt;&lt;br&gt;Nif11-like leader peptide family natural product precursor&lt;br&gt;Location: 5029 - 4046" locus_tag="BLK03_RS04565" class="clusterblast-orf" id="knownclusterblast-3_all_3_6_4"  />
</g>
<g id="a3_005"  >
<polygon points="405,335 410,330 532,330 532,340 410,340 405,335 " style="fill:white; stroke-width:1; stroke:black; " description="&lt;b&gt;BLK03_RS04560&lt;/b&gt;&lt;br&gt;type 2 lantipeptide synthetase LanM&lt;br&gt;Location: 4031 - 780" locus_tag="BLK03_RS04560" class="clusterblast-orf" id="knownclusterblast-3_all_3_6_5"  />
</g>
<g id="a3_006"  >
<polygon points="538,335 543,330 547,330 547,340 543,340 538,335 " style="fill:white; stroke-width:1; stroke:black; " description="&lt;b&gt;BLK03_RS04555&lt;/b&gt;&lt;br&gt;precursor peptide&lt;br&gt;Location: 637 - 404" locus_tag="BLK03_RS04555" class="clusterblast-orf" id="knownclusterblast-3_all_3_6_6"  />
</g>
<g id="a3_007"  >
<polygon points="549,335 554,330 563,330 563,340 554,340 549,335 " style="fill:white; stroke-width:1; stroke:black; " description="&lt;b&gt;BLK03_RS04550&lt;/b&gt;&lt;br&gt;installing (2S,9S)-lysinoalanine&lt;br&gt;Location: 360 - 1" locus_tag="BLK03_RS04550" class="clusterblast-orf" id="knownclusterblast-3_all_3_6_7"  />
</g>
<g label="BGC0000503" description="BGC0000503_c1: cinnamycin (9% of genes show similarity), RiPP:Lanthipeptide" class="clusterblast-cluster"  >
<text x="5" y="370" class="clusterblast-acc"  >
<a xlink:href="https://mibig.secondarymetabolites.org/go/BGC0000503/1" target="_blank">BGC0000503</a>: cinnamycin                                                                       (9% of genes show similarity), RiPP:Lanthipeptide</text>
<line x1="10" y1="385" x2="778.0" y2="385" style="stroke-width:1; stroke:grey; "  />
</g>
<g id="a3_000"  >
<polygon points="54,385 59,380 75,380 75,390 59,390 54,385 " style="fill:white; stroke-width:1; stroke:black; " description="&lt;b&gt;CAD60536.1&lt;/b&gt;&lt;br&gt;Cinorf14 protein&lt;br&gt;Location: 17083 - 16549" locus_tag="CAD60536.1" class="clusterblast-orf" id="knownclusterblast-3_all_3_7_0"  />
</g>
<g id="a3_001"  >
<polygon points="77,385 82,380 100,380 100,390 82,390 77,385 " style="fill:white; stroke-width:1; stroke:black; " description="&lt;b&gt;CAD60535.1&lt;/b&gt;&lt;br&gt;Cinorf13 protein&lt;br&gt;Location: 16496 - 15912" locus_tag="CAD60535.1" class="clusterblast-orf" id="knownclusterblast-3_all_3_7_1"  />
</g>
<g id="a3_002"  >
<polygon points="101,385 106,380 121,380 121,390 106,390 101,385 " style="fill:white; stroke-width:1; stroke:black; " description="&lt;b&gt;CAD60534.1&lt;/b&gt;&lt;br&gt;Cinorf12 protein&lt;br&gt;Location: 15872 - 15381" locus_tag="CAD60534.1" class="clusterblast-orf" id="knownclusterblast-3_all_3_7_2"  />
</g>
<g id="a3_003"  >
<polygon points="129,390 155,390 160,385 155,380 129,380 129,390 " style="fill:white; stroke-width:1; stroke:black; " description="&lt;b&gt;CAD60533.1&lt;/b&gt;&lt;br&gt;CinR1 protein&lt;br&gt;Location: 15160 - 14375" locus_tag="CAD60533.1" class="clusterblast-orf" id="knownclusterblast-3_all_3_7_3"  />
</g>
<g id="a3_004"  >
<polygon points="138,385 143,380 185,380 185,390 143,390 138,385 " style="fill:white; stroke-width:1; stroke:black; " description="&lt;b&gt;CAD60532.1&lt;/b&gt;&lt;br&gt;Cinorf11 protein&lt;br&gt;Location: 14944 - 13754" locus_tag="CAD60532.1" class="clusterblast-orf" id="knownclusterblast-3_all_3_7_4"  />
</g>
<g id="a3_005"  >
<polygon points="185,385 190,380 204,380 204,390 190,390 185,385 " style="fill:white; stroke-width:1; stroke:black; " description="&lt;b&gt;CAD60531.1&lt;/b&gt;&lt;br&gt;Cinorf10 protein&lt;br&gt;Location: 13754 - 13257" locus_tag="CAD60531.1" class="clusterblast-orf" id="knownclusterblast-3_all_3_7_5"  />
</g>
<g id="a3_006"  >
<polygon points="221,390 258,390 263,385 258,380 221,380 221,390 " style="fill:white; stroke-width:1; stroke:black; " description="&lt;b&gt;CAD60530.1&lt;/b&gt;&lt;br&gt;CinK protein&lt;br&gt;Location: 12822 - 11758" locus_tag="CAD60530.1" class="clusterblast-orf" id="knownclusterblast-3_all_3_7_6"  />
</g>
<g id="a3_007"  >
<polygon points="263,390 284,390 289,385 284,380 263,380 263,390 " style="fill:white; stroke-width:1; stroke:black; " description="&lt;b&gt;CAD60529.1&lt;/b&gt;&lt;br&gt;CinR protein&lt;br&gt;Location: 11761 - 11111" locus_tag="CAD60529.1" class="clusterblast-orf" id="knownclusterblast-3_all_3_7_7"  />
</g>
<g id="a3_008"  >
<polygon points="290,385 295,380 302,380 302,390 295,390 290,385 " style="fill:white; stroke-width:1; stroke:black; " description="&lt;b&gt;CAD60528.1&lt;/b&gt;&lt;br&gt;Cinorf9 protein&lt;br&gt;Location: 11078 - 10758" locus_tag="CAD60528.1" class="clusterblast-orf" id="knownclusterblast-3_all_3_7_8"  />
</g>
<g id="a3_009"  >
<polygon points="306,385 311,380 323,380 323,390 311,390 306,385 " style="fill:white; stroke-width:1; stroke:black; " description="&lt;b&gt;CAD60527.1&lt;/b&gt;&lt;br&gt;Cinorf8 protein&lt;br&gt;Location: 10665 - 10246" locus_tag="CAD60527.1" class="clusterblast-orf" id="knownclusterblast-3_all_3_7_9"  />
</g>
<g id="a3_0010"  >
<polygon points="325,390 345,390 350,385 345,380 325,380 325,390 " style="fill:white; stroke-width:1; stroke:black; " description="&lt;b&gt;CAD60526.1&lt;/b&gt;&lt;br&gt;CinZ protein&lt;br&gt;Location: 10171 - 9545" locus_tag="CAD60526.1" class="clusterblast-orf" id="knownclusterblast-3_all_3_7_10"  />
</g>
<g id="a3_0011"  >
<polygon points="353,385 358,380 393,380 393,390 358,390 353,385 " style="fill:white; stroke-width:1; stroke:black; " description="&lt;b&gt;CAD60525.1&lt;/b&gt;&lt;br&gt;CinY protein&lt;br&gt;Location: 9466 - 8444" locus_tag="CAD60525.1" class="clusterblast-orf" id="knownclusterblast-3_all_3_7_11"  />
</g>
<g id="a3_0012"  >
<polygon points="397,385 402,380 432,380 432,390 402,390 397,385 " style="fill:#d815bc; stroke-width:1; stroke:black; " description="&lt;b&gt;CAD60524.1&lt;/b&gt;&lt;br&gt;CinH protein&lt;br&gt;Location: 8341 - 7469&lt;br&gt;&lt;br&gt;&lt;b&gt;BlastP hit with HS041_25015&lt;/b&gt;&lt;br&gt;Percentage identity: 46&lt;br&gt;Percentage coverage: 101&lt;br&gt;BLAST bit score: 223&lt;br&gt;E-value: 5.98e-72" locus_tag="CAD60524.1" class="clusterblast-orf" id="knownclusterblast-3_all_3_7_12"  />
</g>
<g id="a3_0013"  >
<polygon points="432,385 437,380 468,380 468,390 437,390 432,385 " style="fill:#d8bc15; stroke-width:1; stroke:black; " description="&lt;b&gt;CAD60523.1&lt;/b&gt;&lt;br&gt;CinT protein&lt;br&gt;Location: 7472 - 6543&lt;br&gt;&lt;br&gt;&lt;b&gt;BlastP hit with HS041_25020&lt;/b&gt;&lt;br&gt;Percentage identity: 58&lt;br&gt;Percentage coverage: 91&lt;br&gt;BLAST bit score: 327&lt;br&gt;E-value: 9.47e-112" locus_tag="CAD60523.1" class="clusterblast-orf" id="knownclusterblast-3_all_3_7_13"  />
</g>
<g id="a3_0014"  >
<polygon points="477,385 482,380 515,380 515,390 482,390 477,385 " style="fill:white; stroke-width:1; stroke:black; " description="&lt;b&gt;CAD60522.1&lt;/b&gt;&lt;br&gt;CinX protein&lt;br&gt;Location: 6317 - 5340" locus_tag="CAD60522.1" class="clusterblast-orf" id="knownclusterblast-3_all_3_7_14"  />
</g>
<g id="a3_0015"  >
<polygon points="516,385 521,380 644,380 644,390 521,390 516,385 " style="fill:white; stroke-width:1; stroke:black; " description="&lt;b&gt;CAD60521.1&lt;/b&gt;&lt;br&gt;CinM protein&lt;br&gt;Location: 5325 - 2059" locus_tag="CAD60521.1" class="clusterblast-orf" id="knownclusterblast-3_all_3_7_15"  />
</g>
<g id="a3_0016"  >
<polygon points="650,385 655,380 659,380 659,390 655,390 650,385 " style="fill:white; stroke-width:1; stroke:black; " description="&lt;b&gt;CAD60520.1&lt;/b&gt;&lt;br&gt;preprocinnamycin&lt;br&gt;Location: 1907 - 1671" locus_tag="CAD60520.1" class="clusterblast-orf" id="knownclusterblast-3_all_3_7_16"  />
</g>
<g id="a3_0017"  >
<polygon points="661,385 666,380 675,380 675,390 666,390 661,385 " style="fill:white; stroke-width:1; stroke:black; " description="&lt;b&gt;CAD60519.1&lt;/b&gt;&lt;br&gt;Cin orf7 protein&lt;br&gt;Location: 1626 - 1267" locus_tag="CAD60519.1" class="clusterblast-orf" id="knownclusterblast-3_all_3_7_17"  />
</g>
<g id="a3_0018"  >
<polygon points="678,385 682,380 682,390 678,385 " style="fill:white; stroke-width:1; stroke:black; " description="&lt;b&gt;CAD60518.1&lt;/b&gt;&lt;br&gt;hypothetical protein&lt;br&gt;Location: 1198 - 1109" locus_tag="CAD60518.1" class="clusterblast-orf" id="knownclusterblast-3_all_3_7_18"  />
</g>
<g id="a3_0019"  >
<polygon points="685,385 690,380 707,380 707,390 690,390 685,385 " style="fill:white; stroke-width:1; stroke:black; " description="&lt;b&gt;CAD60517.1&lt;/b&gt;&lt;br&gt;Cinorf4 protein&lt;br&gt;Location: 1026 - 454" locus_tag="CAD60517.1" class="clusterblast-orf" id="knownclusterblast-3_all_3_7_19"  />
</g>
<g id="a3_0020"  >
<polygon points="712,390 720,390 725,385 720,380 712,380 712,390 " style="fill:white; stroke-width:1; stroke:black; " description="&lt;b&gt;CAD60516.1&lt;/b&gt;&lt;br&gt;Cinorf3 protein&lt;br&gt;Location: 346 - 1" locus_tag="CAD60516.1" class="clusterblast-orf" id="knownclusterblast-3_all_3_7_20"  />
</g>
</svg>
