<svg xmlns="http://www.w3.org/2000/svg" xmlns:xlink="http://www.w3.org/1999/xlink" version="1.1" x="0" y="0" height="230" width="800" viewBox="0 0 800 230" preserveAspectRatio="none"  >
<g label="Query sequence" class="clusterblast-cluster"  >
<text x="5" y="20" class="clusterblast-acc"  >
Query sequence</text>
<line x1="10" y1="35" x2="778.0" y2="35" style="stroke-width:1; stroke:grey; "  />
<polygon points="242,40 242,40 247,35 242,30 242,30 242,40 " style="fill:white; stroke-width:1; stroke:black; " description="&lt;b&gt;HS041_33900&lt;/b&gt;&lt;br&gt;ABC transporter ATP-binding protein&lt;br&gt;Location: 706760 - 707567" locus_tag="HS041_33900" class="clusterblast-orf" id="dummy-3_q0_0_all"  />
<polygon points="247,40 252,40 257,35 252,30 247,30 247,40 " style="fill:white; stroke-width:1; stroke:black; " description="&lt;b&gt;HS041_33905&lt;/b&gt;&lt;br&gt;CocE/NonD family hydrolase&lt;br&gt;Location: 707603 - 709274" locus_tag="HS041_33905" class="clusterblast-orf" id="dummy-3_q1_0_all"  />
<polygon points="258,40 261,35 258,30 258,40 " style="fill:white; stroke-width:1; stroke:black; " description="&lt;b&gt;HS041_33910&lt;/b&gt;&lt;br&gt;DUF3237 domain-containing protein&lt;br&gt;Location: 709435 - 709912" locus_tag="HS041_33910" class="clusterblast-orf" id="dummy-3_q2_0_all"  />
<polygon points="262,40 266,35 262,30 262,40 " style="fill:white; stroke-width:1; stroke:black; " description="&lt;b&gt;HS041_33915&lt;/b&gt;&lt;br&gt;DUF2238 domain-containing protein&lt;br&gt;Location: 710106 - 710724" locus_tag="HS041_33915" class="clusterblast-orf" id="dummy-3_q3_0_all"  />
<polygon points="267,40 269,40 274,35 269,30 267,30 267,40 " style="fill:#d81515; stroke-width:1; stroke:black; " description="&lt;b&gt;HS041_33920&lt;/b&gt;&lt;br&gt;GTP-binding protein&lt;br&gt;Location: 710941 - 712084" locus_tag="HS041_33920" class="clusterblast-orf" id="dummy-3_q4_0_all"  />
<polygon points="274,40 275,35 274,30 274,40 " style="fill:#5cd815; stroke-width:1; stroke:black; " description="&lt;b&gt;HS041_33925&lt;/b&gt;&lt;br&gt;30S ribosomal protein S18&lt;br&gt;Location: 712080 - 712308" locus_tag="HS041_33925" class="clusterblast-orf" id="dummy-3_q5_0_all"  />
<polygon points="276,40 277,35 276,30 276,40 " style="fill:#15a3d8; stroke-width:1; stroke:black; " description="&lt;b&gt;HS041_33930&lt;/b&gt;&lt;br&gt;50S ribosomal protein L33&lt;br&gt;Location: 712433 - 712598" locus_tag="HS041_33930" class="clusterblast-orf" id="dummy-3_q6_0_all"  />
<polygon points="277,40 278,35 277,30 277,40 " style="fill:#c715d8; stroke-width:1; stroke:black; " description="&lt;b&gt;HS041_33935&lt;/b&gt;&lt;br&gt;type B 50S ribosomal protein L31&lt;br&gt;Location: 712602 - 712848" locus_tag="HS041_33935" class="clusterblast-orf" id="dummy-3_q7_0_all"  />
<polygon points="278,40 279,35 278,30 278,40 " style="fill:#d88015; stroke-width:1; stroke:black; " description="&lt;b&gt;HS041_33940&lt;/b&gt;&lt;br&gt;50S ribosomal protein L28&lt;br&gt;Location: 712847 - 713084" locus_tag="HS041_33940" class="clusterblast-orf" id="dummy-3_q8_0_all"  />
<polygon points="279,40 281,35 279,30 279,40 " style="fill:#15d839; stroke-width:1; stroke:black; " description="&lt;b&gt;HS041_33945&lt;/b&gt;&lt;br&gt;30S ribosomal protein S14&lt;br&gt;Location: 713083 - 713383" locus_tag="HS041_33945" class="clusterblast-orf" id="dummy-3_q9_0_all"  />
<polygon points="281,40 282,35 281,30 281,40 " style="fill:white; stroke-width:1; stroke:black; " description="&lt;b&gt;HS041_33950&lt;/b&gt;&lt;br&gt;50S ribosomal protein L32&lt;br&gt;Location: 713386 - 713554" locus_tag="HS041_33950" class="clusterblast-orf" id="dummy-3_q10_0_all"  />
<polygon points="283,40 287,35 283,30 283,40 " style="fill:white; stroke-width:1; stroke:black; " description="&lt;b&gt;HS041_33955&lt;/b&gt;&lt;br&gt;class I SAM-dependent methyltransferase&lt;br&gt;Location: 713649 - 714447" locus_tag="HS041_33955" class="clusterblast-orf" id="dummy-3_q11_0_all"  />
<polygon points="288,35 293,30 294,30 294,40 293,40 288,35 " style="fill:white; stroke-width:1; stroke:black; " description="&lt;b&gt;HS041_33960&lt;/b&gt;&lt;br&gt;LacI family DNA-binding transcriptional regulator&lt;br&gt;Location: 714561 - 715590" locus_tag="HS041_33960" class="clusterblast-orf" id="dummy-3_q12_0_all"  />
<polygon points="295,35 300,30 308,30 308,40 300,40 295,35 " style="fill:#1539d8; stroke-width:1; stroke:black; " description="&lt;b&gt;HS041_33965&lt;/b&gt;&lt;br&gt;ATP-binding cassette domain-containing protein&lt;br&gt;Location: 715665 - 718005" locus_tag="HS041_33965" class="clusterblast-orf" id="dummy-3_q13_0_all"  />
<polygon points="309,40 310,40 315,35 310,30 309,30 309,40 " style="fill:white; stroke-width:1; stroke:black; " description="&lt;b&gt;HS041_33970&lt;/b&gt;&lt;br&gt;YafY family transcriptional regulator&lt;br&gt;Location: 718114 - 719071" locus_tag="HS041_33970" class="clusterblast-orf" id="dummy-3_q14_0_all"  />
<polygon points="315,35 320,30 320,30 320,40 320,40 315,35 " style="fill:white; stroke-width:1; stroke:black; " description="&lt;b&gt;HS041_33975&lt;/b&gt;&lt;br&gt;hypothetical protein&lt;br&gt;Location: 719203 - 720076" locus_tag="HS041_33975" class="clusterblast-orf" id="dummy-3_q15_0_all"  />
<polygon points="321,40 325,35 321,30 321,40 " style="fill:white; stroke-width:1; stroke:black; " description="&lt;b&gt;HS041_33980&lt;/b&gt;&lt;br&gt;winged helix-turn-helix transcriptional regulator&lt;br&gt;Location: 720196 - 720811" locus_tag="HS041_33980" class="clusterblast-orf" id="dummy-3_q16_0_all"  />
<polygon points="326,40 328,40 333,35 328,30 326,30 326,40 " style="fill:#d81580; stroke-width:1; stroke:black; " description="&lt;b&gt;HS041_33985&lt;/b&gt;&lt;br&gt;tryptophan 7-halogenase&lt;br&gt;Location: 720962 - 722273" locus_tag="HS041_33985" class="clusterblast-orf" id="dummy-3_q17_0_all"  />
<polygon points="334,35 339,30 340,30 340,40 339,40 334,35 " style="fill:white; stroke-width:1; stroke:black; " description="&lt;b&gt;HS041_33990&lt;/b&gt;&lt;br&gt;saccharopine dehydrogenase NADP-binding domain-containing protein&lt;br&gt;Location: 722306 - 723383" locus_tag="HS041_33990" class="clusterblast-orf" id="dummy-3_q18_0_all"  />
<polygon points="340,35 345,30 351,30 351,40 345,40 340,35 " style="fill:white; stroke-width:1; stroke:black; " description="&lt;b&gt;HS041_33995&lt;/b&gt;&lt;br&gt;condensation protein&lt;br&gt;Location: 723379 - 725344" locus_tag="HS041_33995" class="clusterblast-orf" id="dummy-3_q19_0_all"  />
<polygon points="351,35 356,30 358,30 358,40 356,40 351,35 " style="fill:white; stroke-width:1; stroke:black; " description="&lt;b&gt;HS041_34000&lt;/b&gt;&lt;br&gt;class I SAM-dependent methyltransferase&lt;br&gt;Location: 725340 - 726483" locus_tag="HS041_34000" class="clusterblast-orf" id="dummy-3_q20_0_all"  />
<polygon points="359,40 378,40 383,35 378,30 359,30 359,40 " style="fill:white; stroke-width:1; stroke:black; " description="&lt;b&gt;HS041_34005&lt;/b&gt;&lt;br&gt;amino acid adenylation domain-containing protein&lt;br&gt;Location: 726574 - 730708" locus_tag="HS041_34005" class="clusterblast-orf" id="dummy-3_q21_0_all"  />
<polygon points="383,40 416,40 421,35 416,30 383,30 383,40 " style="fill:white; stroke-width:1; stroke:black; " description="&lt;b&gt;HS041_34010&lt;/b&gt;&lt;br&gt;SDR family NAD(P)-dependent oxidoreductase&lt;br&gt;Location: 730722 - 737169" locus_tag="HS041_34010" class="clusterblast-orf" id="dummy-3_q22_0_all"  />
<polygon points="421,40 425,40 430,35 425,30 421,30 421,40 " style="fill:white; stroke-width:1; stroke:black; " description="&lt;b&gt;HS041_34015&lt;/b&gt;&lt;br&gt;ABC transporter substrate-binding protein&lt;br&gt;Location: 737180 - 738722" locus_tag="HS041_34015" class="clusterblast-orf" id="dummy-3_q23_0_all"  />
<polygon points="430,40 430,40 435,35 430,30 430,30 430,40 " style="fill:white; stroke-width:1; stroke:black; " description="&lt;b&gt;HS041_34020&lt;/b&gt;&lt;br&gt;ABC transporter permease&lt;br&gt;Location: 738750 - 739674" locus_tag="HS041_34020" class="clusterblast-orf" id="dummy-3_q24_0_all"  />
<polygon points="435,40 435,40 440,35 435,30 435,30 435,40 " style="fill:white; stroke-width:1; stroke:black; " description="&lt;b&gt;HS041_34025&lt;/b&gt;&lt;br&gt;ABC transporter permease subunit&lt;br&gt;Location: 739670 - 740453" locus_tag="HS041_34025" class="clusterblast-orf" id="dummy-3_q25_0_all"  />
<polygon points="440,40 443,40 448,35 443,30 440,30 440,40 " style="fill:white; stroke-width:1; stroke:black; " description="&lt;b&gt;HS041_34030&lt;/b&gt;&lt;br&gt;ABC transporter ATP-binding protein&lt;br&gt;Location: 740449 - 741841" locus_tag="HS041_34030" class="clusterblast-orf" id="dummy-3_q26_0_all"  />
<polygon points="448,40 458,40 463,35 458,30 448,30 448,40 " style="fill:white; stroke-width:1; stroke:black; " description="&lt;b&gt;HS041_34035&lt;/b&gt;&lt;br&gt;class I SAM-dependent methyltransferase&lt;br&gt;Location: 741848 - 744314" locus_tag="HS041_34035" class="clusterblast-orf" id="dummy-3_q27_0_all"  />
<polygon points="463,35 468,30 468,30 468,40 468,40 463,35 " style="fill:white; stroke-width:1; stroke:black; " description="&lt;b&gt;HS041_34040&lt;/b&gt;&lt;br&gt;NAD(P)/FAD-dependent oxidoreductase&lt;br&gt;Location: 744366 - 745296" locus_tag="HS041_34040" class="clusterblast-orf" id="dummy-3_q28_0_all"  />
<polygon points="468,35 473,30 473,30 473,40 473,40 468,35 " style="fill:white; stroke-width:1; stroke:black; " description="&lt;b&gt;HS041_34045&lt;/b&gt;&lt;br&gt;class I SAM-dependent methyltransferase&lt;br&gt;Location: 745288 - 746008" locus_tag="HS041_34045" class="clusterblast-orf" id="dummy-3_q29_0_all"  />
<polygon points="479,40 482,35 479,30 479,40 " style="fill:white; stroke-width:1; stroke:black; " description="&lt;b&gt;HS041_34050&lt;/b&gt;&lt;br&gt;hypothetical protein&lt;br&gt;Location: 747065 - 747557" locus_tag="HS041_34050" class="clusterblast-orf" id="dummy-3_q30_0_all"  />
<polygon points="482,40 484,35 482,30 482,40 " style="fill:white; stroke-width:1; stroke:black; " description="&lt;b&gt;HS041_34055&lt;/b&gt;&lt;br&gt;STAS domain-containing protein&lt;br&gt;Location: 747675 - 747999" locus_tag="HS041_34055" class="clusterblast-orf" id="dummy-3_q31_0_all"  />
<polygon points="485,35 490,30 494,30 494,40 490,40 485,35 " style="fill:white; stroke-width:1; stroke:black; " description="&lt;b&gt;HS041_34060&lt;/b&gt;&lt;br&gt;pentapeptide repeat-containing protein&lt;br&gt;Location: 748144 - 749671" locus_tag="HS041_34060" class="clusterblast-orf" id="dummy-3_q32_0_all"  />
<polygon points="498,35 500,30 500,40 498,35 " style="fill:white; stroke-width:1; stroke:black; " description="&lt;b&gt;HS041_34065&lt;/b&gt;&lt;br&gt;hypothetical protein&lt;br&gt;Location: 750360 - 750696" locus_tag="HS041_34065" class="clusterblast-orf" id="dummy-3_q33_0_all"  />
<polygon points="501,35 506,30 507,30 507,40 506,40 501,35 " style="fill:#c7d815; stroke-width:1; stroke:black; " description="&lt;b&gt;HS041_34070&lt;/b&gt;&lt;br&gt;YafY family transcriptional regulator&lt;br&gt;Location: 750831 - 751833" locus_tag="HS041_34070" class="clusterblast-orf" id="dummy-3_q34_0_all"  />
<polygon points="507,40 509,40 514,35 509,30 507,30 507,40 " style="fill:#15d8a3; stroke-width:1; stroke:black; " description="&lt;b&gt;HS041_34075&lt;/b&gt;&lt;br&gt;alpha/beta fold hydrolase&lt;br&gt;Location: 751875 - 753066" locus_tag="HS041_34075" class="clusterblast-orf" id="dummy-3_q35_0_all"  />
<polygon points="514,40 516,40 521,35 516,30 514,30 514,40 " style="fill:#5c15d8; stroke-width:1; stroke:black; " description="&lt;b&gt;HS041_34080&lt;/b&gt;&lt;br&gt;winged helix DNA-binding domain-containing protein&lt;br&gt;Location: 753091 - 754246" locus_tag="HS041_34080" class="clusterblast-orf" id="dummy-3_q36_0_all"  />
<polygon points="521,35 526,30 532,30 532,40 526,40 521,35 " style="fill:white; stroke-width:1; stroke:black; " description="&lt;b&gt;HS041_34085&lt;/b&gt;&lt;br&gt;acyltransferase&lt;br&gt;Location: 754268 - 756140" locus_tag="HS041_34085" class="clusterblast-orf" id="dummy-3_q37_0_all"  />
<polygon points="535,40 537,35 535,30 535,40 " style="fill:white; stroke-width:1; stroke:black; " description="&lt;b&gt;HS041_34090&lt;/b&gt;&lt;br&gt;hypothetical protein&lt;br&gt;Location: 756583 - 756964" locus_tag="HS041_34090" class="clusterblast-orf" id="dummy-3_q38_0_all"  />
</g>
<g label="BGC0000081" description="BGC0000081_c1: kedarcidin (2% of genes show similarity), NRP+Polyketide:Iterative type I polyketide+Polyketide:Enediyne type I polyketide" class="clusterblast-cluster"  >
<text x="5" y="70" class="clusterblast-acc"  >
<a xlink:href="https://mibig.secondarymetabolites.org/go/BGC0000081/1" target="_blank">BGC0000081</a>: kedarcidin                                                                       (2% of genes show similarity), NRP+Polyketide:Iterative type I polyketide+Polyketide:Enediyne type I polyketide</text>
<line x1="10" y1="85" x2="778.0" y2="85" style="stroke-width:1; stroke:grey; "  />
</g>
<g id="a3_000"  >
<polygon points="0,90 2,85 0,80 0,90 " style="fill:white; stroke-width:1; stroke:black; " description="&lt;b&gt;AFV52213.1&lt;/b&gt;&lt;br&gt;hypothetical protein&lt;br&gt;Location: 134829 - 134395" locus_tag="AFV52213.1" class="clusterblast-orf" id="dummy-3_h3_2_0"  />
</g>
<g id="a3_001"  >
<polygon points="2,85 6,80 6,90 2,85 " style="fill:white; stroke-width:1; stroke:black; " description="&lt;b&gt;AFV52212.1&lt;/b&gt;&lt;br&gt;NDP-hexose epimerase&lt;br&gt;Location: 134376 - 133780" locus_tag="AFV52212.1" class="clusterblast-orf" id="dummy-3_h3_2_1"  />
</g>
<g id="a3_002"  >
<polygon points="6,85 11,80 12,80 12,90 11,90 6,85 " style="fill:white; stroke-width:1; stroke:black; " description="&lt;b&gt;AFV52211.1&lt;/b&gt;&lt;br&gt;NDP-hexose oxidoreductase&lt;br&gt;Location: 133772 - 132774" locus_tag="AFV52211.1" class="clusterblast-orf" id="dummy-3_h3_2_2"  />
</g>
<g id="a3_003"  >
<polygon points="12,85 17,80 20,80 20,90 17,90 12,85 " style="fill:white; stroke-width:1; stroke:black; " description="&lt;b&gt;AFV52210.1&lt;/b&gt;&lt;br&gt;aryl-ACP halogenase&lt;br&gt;Location: 132777 - 131302" locus_tag="AFV52210.1" class="clusterblast-orf" id="dummy-3_h3_2_3"  />
</g>
<g id="a3_004"  >
<polygon points="22,90 23,85 22,80 22,90 " style="fill:white; stroke-width:1; stroke:black; " description="&lt;b&gt;AFV52209.1&lt;/b&gt;&lt;br&gt;NRPS peptidyl-carrier protein&lt;br&gt;Location: 131034 - 130765" locus_tag="AFV52209.1" class="clusterblast-orf" id="dummy-3_h3_2_4"  />
</g>
<g id="a3_005"  >
<polygon points="24,85 28,80 28,90 24,85 " style="fill:white; stroke-width:1; stroke:black; " description="&lt;b&gt;AFV52208.1&lt;/b&gt;&lt;br&gt;transcriptional regulator&lt;br&gt;Location: 130710 - 129934" locus_tag="AFV52208.1" class="clusterblast-orf" id="dummy-3_h3_2_5"  />
</g>
<g id="a3_006"  >
<polygon points="31,85 36,80 38,80 38,90 36,90 31,85 " style="fill:white; stroke-width:1; stroke:black; " description="&lt;b&gt;AFV52207.1&lt;/b&gt;&lt;br&gt;P450 monooxygenase&lt;br&gt;Location: 129478 - 128252" locus_tag="AFV52207.1" class="clusterblast-orf" id="dummy-3_h3_2_6"  />
</g>
<g id="a3_007"  >
<polygon points="38,85 41,80 41,90 38,85 " style="fill:white; stroke-width:1; stroke:black; " description="&lt;b&gt;AFV52206.1&lt;/b&gt;&lt;br&gt;hypothetical protein&lt;br&gt;Location: 128277 - 127729" locus_tag="AFV52206.1" class="clusterblast-orf" id="dummy-3_h3_2_7"  />
</g>
<g id="a3_008"  >
<polygon points="41,85 46,80 46,80 46,90 46,90 41,85 " style="fill:white; stroke-width:1; stroke:black; " description="&lt;b&gt;AFV52205.1&lt;/b&gt;&lt;br&gt;thioesterase&lt;br&gt;Location: 127715 - 126972" locus_tag="AFV52205.1" class="clusterblast-orf" id="dummy-3_h3_2_8"  />
</g>
<g id="a3_009"  >
<polygon points="46,85 51,80 52,80 52,90 51,90 46,85 " style="fill:white; stroke-width:1; stroke:black; " description="&lt;b&gt;AFV52204.1&lt;/b&gt;&lt;br&gt;hypothetical protein&lt;br&gt;Location: 126975 - 125908" locus_tag="AFV52204.1" class="clusterblast-orf" id="dummy-3_h3_2_9"  />
</g>
<g id="a3_0010"  >
<polygon points="52,85 57,80 59,80 59,90 57,90 52,85 " style="fill:white; stroke-width:1; stroke:black; " description="&lt;b&gt;AFV52203.1&lt;/b&gt;&lt;br&gt;enoyl reductase&lt;br&gt;Location: 125911 - 124709" locus_tag="AFV52203.1" class="clusterblast-orf" id="dummy-3_h3_2_10"  />
</g>
<g id="a3_0011"  >
<polygon points="59,85 60,80 60,90 59,85 " style="fill:white; stroke-width:1; stroke:black; " description="&lt;b&gt;AFV52202.1&lt;/b&gt;&lt;br&gt;acyl-carrier protein&lt;br&gt;Location: 124712 - 124437" locus_tag="AFV52202.1" class="clusterblast-orf" id="dummy-3_h3_2_11"  />
</g>
<g id="a3_0012"  >
<polygon points="60,85 65,80 66,80 66,90 65,90 60,85 " style="fill:white; stroke-width:1; stroke:black; " description="&lt;b&gt;AFV52201.1&lt;/b&gt;&lt;br&gt;enoyl reductase&lt;br&gt;Location: 124440 - 123544" locus_tag="AFV52201.1" class="clusterblast-orf" id="dummy-3_h3_2_12"  />
</g>
<g id="a3_0013"  >
<polygon points="66,85 71,80 97,80 97,90 71,90 66,85 " style="fill:white; stroke-width:1; stroke:black; " description="&lt;b&gt;AFV52200.1&lt;/b&gt;&lt;br&gt;polyketide synthase module&lt;br&gt;Location: 123547 - 118139" locus_tag="AFV52200.1" class="clusterblast-orf" id="dummy-3_h3_2_13"  />
</g>
<g id="a3_0014"  >
<polygon points="97,85 102,80 108,80 108,90 102,90 97,85 " style="fill:white; stroke-width:1; stroke:black; " description="&lt;b&gt;AFV52199.1&lt;/b&gt;&lt;br&gt;acyl-ACP synthetase&lt;br&gt;Location: 118142 - 116244" locus_tag="AFV52199.1" class="clusterblast-orf" id="dummy-3_h3_2_14"  />
</g>
<g id="a3_0015"  >
<polygon points="108,85 113,80 113,80 113,90 113,90 108,85 " style="fill:white; stroke-width:1; stroke:black; " description="&lt;b&gt;AFV52198.1&lt;/b&gt;&lt;br&gt;dihydropicolinate reductase&lt;br&gt;Location: 116247 - 115507" locus_tag="AFV52198.1" class="clusterblast-orf" id="dummy-3_h3_2_15"  />
</g>
<g id="a3_0016"  >
<polygon points="113,85 118,80 118,80 118,90 118,90 113,85 " style="fill:white; stroke-width:1; stroke:black; " description="&lt;b&gt;AFV52197.1&lt;/b&gt;&lt;br&gt;hypothetical protein&lt;br&gt;Location: 115505 - 114615" locus_tag="AFV52197.1" class="clusterblast-orf" id="dummy-3_h3_2_16"  />
</g>
<g id="a3_0017"  >
<polygon points="118,85 120,80 120,90 118,85 " style="fill:white; stroke-width:1; stroke:black; " description="&lt;b&gt;AFV52196.1&lt;/b&gt;&lt;br&gt;acyl-carrier protein&lt;br&gt;Location: 114618 - 114343" locus_tag="AFV52196.1" class="clusterblast-orf" id="dummy-3_h3_2_17"  />
</g>
<g id="a3_0018"  >
<polygon points="120,85 125,80 128,80 128,90 125,90 120,85 " style="fill:white; stroke-width:1; stroke:black; " description="&lt;b&gt;AFV52195.1&lt;/b&gt;&lt;br&gt;acyl-CoA synthetase&lt;br&gt;Location: 114341 - 112881" locus_tag="AFV52195.1" class="clusterblast-orf" id="dummy-3_h3_2_18"  />
</g>
<g id="a3_0019"  >
<polygon points="128,85 133,80 135,80 135,90 133,90 128,85 " style="fill:white; stroke-width:1; stroke:black; " description="&lt;b&gt;AFV52194.1&lt;/b&gt;&lt;br&gt;enoyl reductase&lt;br&gt;Location: 112884 - 111718" locus_tag="AFV52194.1" class="clusterblast-orf" id="dummy-3_h3_2_19"  />
</g>
<g id="a3_0020"  >
<polygon points="135,85 140,80 144,80 144,90 140,90 135,85 " style="fill:white; stroke-width:1; stroke:black; " description="&lt;b&gt;AFV52193.1&lt;/b&gt;&lt;br&gt;enoyl reductase&lt;br&gt;Location: 111721 - 110231" locus_tag="AFV52193.1" class="clusterblast-orf" id="dummy-3_h3_2_20"  />
</g>
<g id="a3_0021"  >
<polygon points="146,90 148,90 153,85 148,80 146,80 146,90 " style="fill:white; stroke-width:1; stroke:black; " description="&lt;b&gt;AFV52192.1&lt;/b&gt;&lt;br&gt;NRPS condensation domain&lt;br&gt;Location: 109928 - 108573" locus_tag="AFV52192.1" class="clusterblast-orf" id="dummy-3_h3_2_21"  />
</g>
<g id="a3_0022"  >
<polygon points="153,90 169,90 174,85 169,80 153,80 153,90 " style="fill:white; stroke-width:1; stroke:black; " description="&lt;b&gt;AFV52191.1&lt;/b&gt;&lt;br&gt;NRPS adenylation domain&lt;br&gt;Location: 108576 - 105061" locus_tag="AFV52191.1" class="clusterblast-orf" id="dummy-3_h3_2_22"  />
</g>
<g id="a3_0023"  >
<polygon points="174,90 179,90 184,85 179,80 174,80 174,90 " style="fill:white; stroke-width:1; stroke:black; " description="&lt;b&gt;AFV52190.1&lt;/b&gt;&lt;br&gt;4-Methylideneimidazole-5-one (MIO)-containing aminomutases &lt;br&gt;Location: 105059 - 103443" locus_tag="AFV52190.1" class="clusterblast-orf" id="dummy-3_h3_2_23"  />
</g>
<g id="a3_0024"  >
<polygon points="185,90 189,90 194,85 189,80 185,80 185,90 " style="fill:white; stroke-width:1; stroke:black; " description="&lt;b&gt;AFV52189.1&lt;/b&gt;&lt;br&gt;efflux pump&lt;br&gt;Location: 103266 - 101584" locus_tag="AFV52189.1" class="clusterblast-orf" id="dummy-3_h3_2_24"  />
</g>
<g id="a3_0025"  >
<polygon points="196,90 198,85 196,80 196,90 " style="fill:white; stroke-width:1; stroke:black; " description="&lt;b&gt;AFV52188.1&lt;/b&gt;&lt;br&gt;kedarcidin apoprotein&lt;br&gt;Location: 101381 - 100944" locus_tag="AFV52188.1" class="clusterblast-orf" id="dummy-3_h3_2_25"  />
</g>
<g id="a3_0026"  >
<polygon points="200,90 205,90 210,85 205,80 200,80 200,90 " style="fill:white; stroke-width:1; stroke:black; " description="&lt;b&gt;AFV52187.1&lt;/b&gt;&lt;br&gt;acyl-CoA synthetase&lt;br&gt;Location: 100665 - 99007" locus_tag="AFV52187.1" class="clusterblast-orf" id="dummy-3_h3_2_26"  />
</g>
<g id="a3_0027"  >
<polygon points="210,90 212,90 217,85 212,80 210,80 210,90 " style="fill:white; stroke-width:1; stroke:black; " description="&lt;b&gt;AFV52186.1&lt;/b&gt;&lt;br&gt;C-methyltransferase&lt;br&gt;Location: 99007 - 97727" locus_tag="AFV52186.1" class="clusterblast-orf" id="dummy-3_h3_2_27"  />
</g>
<g id="a3_0028"  >
<polygon points="219,85 224,80 225,80 225,90 224,90 219,85 " style="fill:white; stroke-width:1; stroke:black; " description="&lt;b&gt;AFV52185.1&lt;/b&gt;&lt;br&gt;NDP-hexose oxidoreductase&lt;br&gt;Location: 97383 - 96406" locus_tag="AFV52185.1" class="clusterblast-orf" id="dummy-3_h3_2_28"  />
</g>
<g id="a3_0029"  >
<polygon points="225,85 230,80 243,80 243,90 230,90 225,85 " style="fill:white; stroke-width:1; stroke:black; " description="&lt;b&gt;AFV52184.1&lt;/b&gt;&lt;br&gt;acyl-CoA synthetase/P450 monooxygenase&lt;br&gt;Location: 96402 - 93277" locus_tag="AFV52184.1" class="clusterblast-orf" id="dummy-3_h3_2_29"  />
</g>
<g id="a3_0030"  >
<polygon points="243,85 248,80 248,80 248,90 248,90 243,85 " style="fill:white; stroke-width:1; stroke:black; " description="&lt;b&gt;AFV52183.1&lt;/b&gt;&lt;br&gt;aldolase&lt;br&gt;Location: 93243 - 92506" locus_tag="AFV52183.1" class="clusterblast-orf" id="dummy-3_h3_2_30"  />
</g>
<g id="a3_0031"  >
<polygon points="248,85 252,80 252,90 248,85 " style="fill:white; stroke-width:1; stroke:black; " description="&lt;b&gt;AFV52182.1&lt;/b&gt;&lt;br&gt;isomerase&lt;br&gt;Location: 92390 - 91755" locus_tag="AFV52182.1" class="clusterblast-orf" id="dummy-3_h3_2_31"  />
</g>
<g id="a3_0032"  >
<polygon points="252,85 257,80 258,80 258,90 257,90 252,85 " style="fill:white; stroke-width:1; stroke:black; " description="&lt;b&gt;AFV52181.1&lt;/b&gt;&lt;br&gt;thioesterase&lt;br&gt;Location: 91758 - 90838" locus_tag="AFV52181.1" class="clusterblast-orf" id="dummy-3_h3_2_32"  />
</g>
<g id="a3_0033"  >
<polygon points="257,85 262,80 262,80 262,90 262,90 257,85 " style="fill:white; stroke-width:1; stroke:black; " description="&lt;b&gt;AFV52180.1&lt;/b&gt;&lt;br&gt;hypothetical protein&lt;br&gt;Location: 90841 - 90047" locus_tag="AFV52180.1" class="clusterblast-orf" id="dummy-3_h3_2_33"  />
</g>
<g id="a3_0034"  >
<polygon points="262,85 267,80 267,80 267,90 267,90 262,85 " style="fill:white; stroke-width:1; stroke:black; " description="&lt;b&gt;AFV52179.1&lt;/b&gt;&lt;br&gt;ketosynthase&lt;br&gt;Location: 90054 - 89185" locus_tag="AFV52179.1" class="clusterblast-orf" id="dummy-3_h3_2_34"  />
</g>
<g id="a3_0035"  >
<polygon points="267,85 272,80 274,80 274,90 272,90 267,85 " style="fill:white; stroke-width:1; stroke:black; " description="&lt;b&gt;AFV52178.1&lt;/b&gt;&lt;br&gt;ketosynthase&lt;br&gt;Location: 89188 - 88064" locus_tag="AFV52178.1" class="clusterblast-orf" id="dummy-3_h3_2_35"  />
</g>
<g id="a3_0036"  >
<polygon points="274,85 279,80 280,80 280,90 279,90 274,85 " style="fill:white; stroke-width:1; stroke:black; " description="&lt;b&gt;AFV52177.1&lt;/b&gt;&lt;br&gt;ketosynthase&lt;br&gt;Location: 88064 - 87006" locus_tag="AFV52177.1" class="clusterblast-orf" id="dummy-3_h3_2_36"  />
</g>
<g id="a3_0037"  >
<polygon points="280,85 285,80 287,80 287,90 285,90 280,85 " style="fill:white; stroke-width:1; stroke:black; " description="&lt;b&gt;AFV52176.1&lt;/b&gt;&lt;br&gt;ketosynthase&lt;br&gt;Location: 87009 - 85804" locus_tag="AFV52176.1" class="clusterblast-orf" id="dummy-3_h3_2_37"  />
</g>
<g id="a3_0038"  >
<polygon points="287,85 288,80 288,90 287,85 " style="fill:white; stroke-width:1; stroke:black; " description="&lt;b&gt;AFV52175.1&lt;/b&gt;&lt;br&gt;acyl-carrier protein&lt;br&gt;Location: 85800 - 85567" locus_tag="AFV52175.1" class="clusterblast-orf" id="dummy-3_h3_2_38"  />
</g>
<g id="a3_0039"  >
<polygon points="289,85 292,80 292,90 289,85 " style="fill:white; stroke-width:1; stroke:black; " description="&lt;b&gt;AFV52174.1&lt;/b&gt;&lt;br&gt;dehydratase&lt;br&gt;Location: 85505 - 85023" locus_tag="AFV52174.1" class="clusterblast-orf" id="dummy-3_h3_2_39"  />
</g>
<g id="a3_0040"  >
<polygon points="292,85 294,80 294,90 292,85 " style="fill:white; stroke-width:1; stroke:black; " description="&lt;b&gt;AFV52173.1&lt;/b&gt;&lt;br&gt;dehydratase&lt;br&gt;Location: 85033 - 84578" locus_tag="AFV52173.1" class="clusterblast-orf" id="dummy-3_h3_2_40"  />
</g>
<g id="a3_0041"  >
<polygon points="294,85 299,80 299,80 299,90 299,90 294,85 " style="fill:white; stroke-width:1; stroke:black; " description="&lt;b&gt;AFV52172.1&lt;/b&gt;&lt;br&gt;ketoreductase&lt;br&gt;Location: 84581 - 83841" locus_tag="AFV52172.1" class="clusterblast-orf" id="dummy-3_h3_2_41"  />
</g>
<g id="a3_0042"  >
<polygon points="299,85 304,80 306,80 306,90 304,90 299,85 " style="fill:white; stroke-width:1; stroke:black; " description="&lt;b&gt;AFV52171.1&lt;/b&gt;&lt;br&gt;CoA transferase&lt;br&gt;Location: 83755 - 82535" locus_tag="AFV52171.1" class="clusterblast-orf" id="dummy-3_h3_2_42"  />
</g>
<g id="a3_0043"  >
<polygon points="306,85 311,80 313,80 313,90 311,90 306,85 " style="fill:white; stroke-width:1; stroke:black; " description="&lt;b&gt;AFV52170.1&lt;/b&gt;&lt;br&gt;acyltransferase&lt;br&gt;Location: 82526 - 81336" locus_tag="AFV52170.1" class="clusterblast-orf" id="dummy-3_h3_2_43"  />
</g>
<g id="a3_0044"  >
<polygon points="314,90 316,90 321,85 316,80 314,80 314,90 " style="fill:white; stroke-width:1; stroke:black; " description="&lt;b&gt;AFV52169.1&lt;/b&gt;&lt;br&gt;enoyl reductase&lt;br&gt;Location: 81203 - 80055" locus_tag="AFV52169.1" class="clusterblast-orf" id="dummy-3_h3_2_44"  />
</g>
<g id="a3_0045"  >
<polygon points="321,90 322,90 327,85 322,80 321,80 321,90 " style="fill:white; stroke-width:1; stroke:black; " description="&lt;b&gt;AFV52168.1&lt;/b&gt;&lt;br&gt;enoyl reductase&lt;br&gt;Location: 80046 - 79063" locus_tag="AFV52168.1" class="clusterblast-orf" id="dummy-3_h3_2_45"  />
</g>
<g id="a3_0046"  >
<polygon points="327,90 328,90 333,85 328,80 327,80 327,90 " style="fill:white; stroke-width:1; stroke:black; " description="&lt;b&gt;AFV52167.1&lt;/b&gt;&lt;br&gt;monooxygenase&lt;br&gt;Location: 79066 - 77966" locus_tag="AFV52167.1" class="clusterblast-orf" id="dummy-3_h3_2_46"  />
</g>
<g id="a3_0047"  >
<polygon points="334,85 336,80 336,90 334,85 " style="fill:white; stroke-width:1; stroke:black; " description="&lt;b&gt;AFV52166.1&lt;/b&gt;&lt;br&gt;hypothetical protein&lt;br&gt;Location: 77731 - 77513" locus_tag="AFV52166.1" class="clusterblast-orf" id="dummy-3_h3_2_47"  />
</g>
<g id="a3_0048"  >
<polygon points="336,85 341,80 344,80 344,90 341,90 336,85 " style="fill:white; stroke-width:1; stroke:black; " description="&lt;b&gt;AFV52165.1&lt;/b&gt;&lt;br&gt;glycosyltransferase&lt;br&gt;Location: 77391 - 76141" locus_tag="AFV52165.1" class="clusterblast-orf" id="dummy-3_h3_2_48"  />
</g>
<g id="a3_0049"  >
<polygon points="344,85 349,80 351,80 351,90 349,90 344,85 " style="fill:white; stroke-width:1; stroke:black; " description="&lt;b&gt;AFV52164.1&lt;/b&gt;&lt;br&gt;acyl-CoA N-acyltransferase&lt;br&gt;Location: 76125 - 74851" locus_tag="AFV52164.1" class="clusterblast-orf" id="dummy-3_h3_2_49"  />
</g>
<g id="a3_0050"  >
<polygon points="351,85 356,80 362,80 362,90 356,90 351,85 " style="fill:white; stroke-width:1; stroke:black; " description="&lt;b&gt;AFV52163.1&lt;/b&gt;&lt;br&gt;radical SAM C-methyltransferase&lt;br&gt;Location: 74854 - 72974" locus_tag="AFV52163.1" class="clusterblast-orf" id="dummy-3_h3_2_50"  />
</g>
<g id="a3_0051"  >
<polygon points="366,85 371,80 385,80 385,90 371,90 366,85 " style="fill:white; stroke-width:1; stroke:black; " description="&lt;b&gt;AFV52162.1&lt;/b&gt;&lt;br&gt;transcriptional regulator&lt;br&gt;Location: 72378 - 69115" locus_tag="AFV52162.1" class="clusterblast-orf" id="dummy-3_h3_2_51"  />
</g>
<g id="a3_0052"  >
<polygon points="386,85 391,80 394,80 394,90 391,90 386,85 " style="fill:white; stroke-width:1; stroke:black; " description="&lt;b&gt;AFV52161.1&lt;/b&gt;&lt;br&gt;glycosyltransferase&lt;br&gt;Location: 68879 - 67596" locus_tag="AFV52161.1" class="clusterblast-orf" id="dummy-3_h3_2_52"  />
</g>
<g id="a3_0053"  >
<polygon points="396,85 400,80 400,90 396,85 " style="fill:white; stroke-width:1; stroke:black; " description="&lt;b&gt;AFV52160.1&lt;/b&gt;&lt;br&gt;N-methyltransferase&lt;br&gt;Location: 67307 - 66576" locus_tag="AFV52160.1" class="clusterblast-orf" id="dummy-3_h3_2_53"  />
</g>
<g id="a3_0054"  >
<polygon points="400,85 404,80 404,90 400,85 " style="fill:white; stroke-width:1; stroke:black; " description="&lt;b&gt;AFV52159.1&lt;/b&gt;&lt;br&gt;N-methyltransferase&lt;br&gt;Location: 66579 - 65833" locus_tag="AFV52159.1" class="clusterblast-orf" id="dummy-3_h3_2_54"  />
</g>
<g id="a3_0055"  >
<polygon points="404,85 409,80 411,80 411,90 409,90 404,85 " style="fill:white; stroke-width:1; stroke:black; " description="&lt;b&gt;AFV52158.1&lt;/b&gt;&lt;br&gt;sugar aminotransferase&lt;br&gt;Location: 65833 - 64685" locus_tag="AFV52158.1" class="clusterblast-orf" id="dummy-3_h3_2_55"  />
</g>
<g id="a3_0056"  >
<polygon points="411,85 416,80 417,80 417,90 416,90 411,85 " style="fill:white; stroke-width:1; stroke:black; " description="&lt;b&gt;AFV52157.1&lt;/b&gt;&lt;br&gt;O-methyltransferase&lt;br&gt;Location: 64644 - 63643" locus_tag="AFV52157.1" class="clusterblast-orf" id="dummy-3_h3_2_56"  />
</g>
<g id="a3_0057"  >
<polygon points="418,90 422,90 427,85 422,80 418,80 418,90 " style="fill:white; stroke-width:1; stroke:black; " description="&lt;b&gt;AFV52156.1&lt;/b&gt;&lt;br&gt;aryl-ACP hydroxylase&lt;br&gt;Location: 63408 - 61867" locus_tag="AFV52156.1" class="clusterblast-orf" id="dummy-3_h3_2_57"  />
</g>
<g id="a3_0058"  >
<polygon points="427,90 430,90 435,85 430,80 427,80 427,90 " style="fill:white; stroke-width:1; stroke:black; " description="&lt;b&gt;AFV52155.1&lt;/b&gt;&lt;br&gt;NDP-hexose 2,3-dehydratase&lt;br&gt;Location: 61870 - 60497" locus_tag="AFV52155.1" class="clusterblast-orf" id="dummy-3_h3_2_58"  />
</g>
<g id="a3_0059"  >
<polygon points="436,85 441,80 449,80 449,90 441,90 436,85 " style="fill:#1539d8; stroke-width:1; stroke:black; " description="&lt;b&gt;AFV52154.1&lt;/b&gt;&lt;br&gt;efflux pump&lt;br&gt;Location: 60449 - 58182&lt;br&gt;&lt;br&gt;&lt;b&gt;BlastP hit with HS041_33965&lt;/b&gt;&lt;br&gt;Percentage identity: 48&lt;br&gt;Percentage coverage: 97&lt;br&gt;BLAST bit score: 669&lt;br&gt;E-value: 1.54e-232" locus_tag="AFV52154.1" class="clusterblast-orf" id="dummy-3_h3_2_59"  />
</g>
<g id="a3_0060"  >
<polygon points="450,85 454,80 454,90 450,85 " style="fill:white; stroke-width:1; stroke:black; " description="&lt;b&gt;AFV52153.1&lt;/b&gt;&lt;br&gt;hypothetical protein&lt;br&gt;Location: 58055 - 57336" locus_tag="AFV52153.1" class="clusterblast-orf" id="dummy-3_h3_2_60"  />
</g>
<g id="a3_0061"  >
<polygon points="457,90 459,90 464,85 459,80 457,80 457,90 " style="fill:#15d8a3; stroke-width:1; stroke:black; " description="&lt;b&gt;AFV52152.1&lt;/b&gt;&lt;br&gt;epoxide hydrolase&lt;br&gt;Location: 56787 - 55633&lt;br&gt;&lt;br&gt;&lt;b&gt;BlastP hit with HS041_34075&lt;/b&gt;&lt;br&gt;Percentage identity: 48&lt;br&gt;Percentage coverage: 96&lt;br&gt;BLAST bit score: 372&lt;br&gt;E-value: 4.23e-127" locus_tag="AFV52152.1" class="clusterblast-orf" id="dummy-3_h3_2_61"  />
</g>
<g id="a3_0062"  >
<polygon points="464,90 466,90 471,85 466,80 464,80 464,90 " style="fill:white; stroke-width:1; stroke:black; " description="&lt;b&gt;AFV52151.1&lt;/b&gt;&lt;br&gt;P450 monooxygenase&lt;br&gt;Location: 55599 - 54373" locus_tag="AFV52151.1" class="clusterblast-orf" id="dummy-3_h3_2_62"  />
</g>
<g id="a3_0063"  >
<polygon points="472,85 477,80 480,80 480,90 477,90 472,85 " style="fill:#d81580; stroke-width:1; stroke:black; " description="&lt;b&gt;AFV52150.1&lt;/b&gt;&lt;br&gt;FAD dependent monooxygenase&lt;br&gt;Location: 54324 - 52933&lt;br&gt;&lt;br&gt;&lt;b&gt;BlastP hit with HS041_33985&lt;/b&gt;&lt;br&gt;Percentage identity: 48&lt;br&gt;Percentage coverage: 100&lt;br&gt;BLAST bit score: 371&lt;br&gt;E-value: 3.22e-125" locus_tag="AFV52150.1" class="clusterblast-orf" id="dummy-3_h3_2_63"  />
</g>
<g id="a3_0064"  >
<polygon points="480,85 482,80 482,90 480,85 " style="fill:white; stroke-width:1; stroke:black; " description="&lt;b&gt;AFV52149.1&lt;/b&gt;&lt;br&gt;hypothetical protein&lt;br&gt;Location: 52943 - 52521" locus_tag="AFV52149.1" class="clusterblast-orf" id="dummy-3_h3_2_64"  />
</g>
<g id="a3_0065"  >
<polygon points="482,85 487,80 489,80 489,90 487,90 482,85 " style="fill:white; stroke-width:1; stroke:black; " description="&lt;b&gt;AFV52148.1&lt;/b&gt;&lt;br&gt;putative enoyl reductase&lt;br&gt;Location: 52497 - 51325" locus_tag="AFV52148.1" class="clusterblast-orf" id="dummy-3_h3_2_65"  />
</g>
<g id="a3_0066"  >
<polygon points="491,85 494,80 494,90 491,85 " style="fill:white; stroke-width:1; stroke:black; " description="&lt;b&gt;AFV52147.1&lt;/b&gt;&lt;br&gt;flavin reductase&lt;br&gt;Location: 51044 - 50553" locus_tag="AFV52147.1" class="clusterblast-orf" id="dummy-3_h3_2_66"  />
</g>
<g id="a3_0067"  >
<polygon points="494,85 496,80 496,90 494,85 " style="fill:white; stroke-width:1; stroke:black; " description="&lt;b&gt;AFV52146.1&lt;/b&gt;&lt;br&gt;hotdog fold thioesterase&lt;br&gt;Location: 50556 - 50113" locus_tag="AFV52146.1" class="clusterblast-orf" id="dummy-3_h3_2_67"  />
</g>
<g id="a3_0068"  >
<polygon points="496,85 501,80 530,80 530,90 501,90 496,85 " style="fill:white; stroke-width:1; stroke:black; " description="&lt;b&gt;AFV52145.1&lt;/b&gt;&lt;br&gt;polyketide synthase&lt;br&gt;Location: 50111 - 44355" locus_tag="AFV52145.1" class="clusterblast-orf" id="dummy-3_h3_2_68"  />
</g>
<g id="a3_0069"  >
<polygon points="533,90 534,90 539,85 534,80 533,80 533,90 " style="fill:white; stroke-width:1; stroke:black; " description="&lt;b&gt;AFV52144.1&lt;/b&gt;&lt;br&gt;hypothetical protein&lt;br&gt;Location: 43834 - 42875" locus_tag="AFV52144.1" class="clusterblast-orf" id="dummy-3_h3_2_69"  />
</g>
<g id="a3_0070"  >
<polygon points="539,90 540,90 545,85 540,80 539,80 539,90 " style="fill:white; stroke-width:1; stroke:black; " description="&lt;b&gt;AFV52143.1&lt;/b&gt;&lt;br&gt;hypothetical protein&lt;br&gt;Location: 42831 - 41806" locus_tag="AFV52143.1" class="clusterblast-orf" id="dummy-3_h3_2_70"  />
</g>
<g id="a3_0071"  >
<polygon points="545,90 546,90 551,85 546,80 545,80 545,90 " style="fill:white; stroke-width:1; stroke:black; " description="&lt;b&gt;AFV52142.1&lt;/b&gt;&lt;br&gt;hypothetical protein&lt;br&gt;Location: 41740 - 40757" locus_tag="AFV52142.1" class="clusterblast-orf" id="dummy-3_h3_2_71"  />
</g>
<g id="a3_0072"  >
<polygon points="551,90 558,90 563,85 558,80 551,80 551,90 " style="fill:white; stroke-width:1; stroke:black; " description="&lt;b&gt;AFV52141.1&lt;/b&gt;&lt;br&gt;hypothetical protein&lt;br&gt;Location: 40760 - 38814" locus_tag="AFV52141.1" class="clusterblast-orf" id="dummy-3_h3_2_72"  />
</g>
<g id="a3_0073"  >
<polygon points="563,90 564,90 569,85 564,80 563,80 563,90 " style="fill:white; stroke-width:1; stroke:black; " description="&lt;b&gt;AFV52140.1&lt;/b&gt;&lt;br&gt;hypothetical protein&lt;br&gt;Location: 38809 - 37757" locus_tag="AFV52140.1" class="clusterblast-orf" id="dummy-3_h3_2_73"  />
</g>
<g id="a3_0074"  >
<polygon points="569,90 571,85 569,80 569,90 " style="fill:white; stroke-width:1; stroke:black; " description="&lt;b&gt;AFV52139.1&lt;/b&gt;&lt;br&gt;hypothetical protein&lt;br&gt;Location: 37760 - 37392" locus_tag="AFV52139.1" class="clusterblast-orf" id="dummy-3_h3_2_74"  />
</g>
<g id="a3_0075"  >
<polygon points="571,90 574,90 579,85 574,80 571,80 571,90 " style="fill:white; stroke-width:1; stroke:black; " description="&lt;b&gt;AFV52138.1&lt;/b&gt;&lt;br&gt;P450 monooxygenase&lt;br&gt;Location: 37395 - 36055" locus_tag="AFV52138.1" class="clusterblast-orf" id="dummy-3_h3_2_75"  />
</g>
<g id="a3_0076"  >
<polygon points="579,85 584,80 584,80 584,90 584,90 579,85 " style="fill:white; stroke-width:1; stroke:black; " description="&lt;b&gt;AFV52137.1&lt;/b&gt;&lt;br&gt;AraC-like transcriptional regulator&lt;br&gt;Location: 36022 - 35246" locus_tag="AFV52137.1" class="clusterblast-orf" id="dummy-3_h3_2_76"  />
</g>
<g id="a3_0077"  >
<polygon points="586,90 590,85 586,80 586,90 " style="fill:white; stroke-width:1; stroke:black; " description="&lt;b&gt;AFV52136.1&lt;/b&gt;&lt;br&gt;hypothetical protein&lt;br&gt;Location: 34760 - 34191" locus_tag="AFV52136.1" class="clusterblast-orf" id="dummy-3_h3_2_77"  />
</g>
<g id="a3_0078"  >
<polygon points="590,90 594,90 599,85 594,80 590,80 590,90 " style="fill:white; stroke-width:1; stroke:black; " description="&lt;b&gt;AFV52135.1&lt;/b&gt;&lt;br&gt;putative ketoreductase&lt;br&gt;Location: 34194 - 32557" locus_tag="AFV52135.1" class="clusterblast-orf" id="dummy-3_h3_2_78"  />
</g>
<g id="a3_0079"  >
<polygon points="599,90 602,85 599,80 599,90 " style="fill:white; stroke-width:1; stroke:black; " description="&lt;b&gt;AFV52134.1&lt;/b&gt;&lt;br&gt;hypothetical protein&lt;br&gt;Location: 32560 - 32015" locus_tag="AFV52134.1" class="clusterblast-orf" id="dummy-3_h3_2_79"  />
</g>
<g id="a3_0080"  >
<polygon points="602,90 606,85 602,80 602,90 " style="fill:white; stroke-width:1; stroke:black; " description="&lt;b&gt;AFV52133.1&lt;/b&gt;&lt;br&gt;hypothetical protein&lt;br&gt;Location: 32036 - 31374" locus_tag="AFV52133.1" class="clusterblast-orf" id="dummy-3_h3_2_80"  />
</g>
<g id="a3_0081"  >
<polygon points="606,90 607,90 612,85 607,80 606,80 606,90 " style="fill:white; stroke-width:1; stroke:black; " description="&lt;b&gt;AFV52132.1&lt;/b&gt;&lt;br&gt;hypothetical protein&lt;br&gt;Location: 31352 - 30348" locus_tag="AFV52132.1" class="clusterblast-orf" id="dummy-3_h3_2_81"  />
</g>
<g id="a3_0082"  >
<polygon points="613,90 617,85 613,80 613,90 " style="fill:white; stroke-width:1; stroke:black; " description="&lt;b&gt;AFV52131.1&lt;/b&gt;&lt;br&gt;hypothetical protein&lt;br&gt;Location: 30257 - 29457" locus_tag="AFV52131.1" class="clusterblast-orf" id="dummy-3_h3_2_82"  />
</g>
<g id="a3_0083"  >
<polygon points="621,90 623,90 628,85 623,80 621,80 621,90 " style="fill:white; stroke-width:1; stroke:black; " description="&lt;b&gt;AFV52130.1&lt;/b&gt;&lt;br&gt;hypothetical protein DUF297&lt;br&gt;Location: 28845 - 27640" locus_tag="AFV52130.1" class="clusterblast-orf" id="dummy-3_h3_2_83"  />
</g>
<g id="a3_0084"  >
<polygon points="629,85 633,80 633,90 629,85 " style="fill:white; stroke-width:1; stroke:black; " description="&lt;b&gt;AFV52129.1&lt;/b&gt;&lt;br&gt;epoxide hydrolase-like protein&lt;br&gt;Location: 27571 - 26729" locus_tag="AFV52129.1" class="clusterblast-orf" id="dummy-3_h3_2_84"  />
</g>
<g id="a3_0085"  >
<polygon points="634,90 638,85 634,80 634,90 " style="fill:white; stroke-width:1; stroke:black; " description="&lt;b&gt;AFV52128.1&lt;/b&gt;&lt;br&gt;TetR-like transcriptional regulator&lt;br&gt;Location: 26571 - 26002" locus_tag="AFV52128.1" class="clusterblast-orf" id="dummy-3_h3_2_85"  />
</g>
<g id="a3_0086"  >
<polygon points="638,85 643,80 645,80 645,90 643,90 638,85 " style="fill:white; stroke-width:1; stroke:black; " description="&lt;b&gt;AFV52127.1&lt;/b&gt;&lt;br&gt;peptidase&lt;br&gt;Location: 25929 - 24778" locus_tag="AFV52127.1" class="clusterblast-orf" id="dummy-3_h3_2_86"  />
</g>
<g id="a3_0087"  >
<polygon points="648,85 650,80 650,90 648,85 " style="fill:white; stroke-width:1; stroke:black; " description="&lt;b&gt;AFV52126.1&lt;/b&gt;&lt;br&gt;chorismate mutase-like protein&lt;br&gt;Location: 24316 - 23933" locus_tag="AFV52126.1" class="clusterblast-orf" id="dummy-3_h3_2_87"  />
</g>
<g id="a3_0088"  >
<polygon points="650,85 651,80 651,90 650,85 " style="fill:white; stroke-width:1; stroke:black; " description="&lt;b&gt;AFV52125.1&lt;/b&gt;&lt;br&gt;4-oxalocrotonate tatuomerase&lt;br&gt;Location: 23896 - 23714" locus_tag="AFV52125.1" class="clusterblast-orf" id="dummy-3_h3_2_88"  />
</g>
<g id="a3_0089"  >
<polygon points="653,90 657,85 653,80 653,90 " style="fill:white; stroke-width:1; stroke:black; " description="&lt;b&gt;AFV52124.1&lt;/b&gt;&lt;br&gt;ADIC dehydrogenase&lt;br&gt;Location: 23443 - 22766" locus_tag="AFV52124.1" class="clusterblast-orf" id="dummy-3_h3_2_89"  />
</g>
<g id="a3_0090"  >
<polygon points="657,90 661,90 666,85 661,80 657,80 657,90 " style="fill:white; stroke-width:1; stroke:black; " description="&lt;b&gt;AFV52123.1&lt;/b&gt;&lt;br&gt;ADC synthase I&lt;br&gt;Location: 22769 - 21246" locus_tag="AFV52123.1" class="clusterblast-orf" id="dummy-3_h3_2_90"  />
</g>
<g id="a3_0091"  >
<polygon points="666,90 669,85 666,80 666,90 " style="fill:white; stroke-width:1; stroke:black; " description="&lt;b&gt;AFV52122.1&lt;/b&gt;&lt;br&gt;ADC synthase II&lt;br&gt;Location: 21265 - 20642" locus_tag="AFV52122.1" class="clusterblast-orf" id="dummy-3_h3_2_91"  />
</g>
<g id="a3_0092"  >
<polygon points="670,90 671,85 670,80 670,90 " style="fill:white; stroke-width:1; stroke:black; " description="&lt;b&gt;AFV52121.1&lt;/b&gt;&lt;br&gt;chorismate mutase&lt;br&gt;Location: 20546 - 20316" locus_tag="AFV52121.1" class="clusterblast-orf" id="dummy-3_h3_2_92"  />
</g>
<g id="a3_0093"  >
<polygon points="671,90 672,90 677,85 672,80 671,80 671,90 " style="fill:white; stroke-width:1; stroke:black; " description="&lt;b&gt;AFV52120.1&lt;/b&gt;&lt;br&gt;DAHP synthase&lt;br&gt;Location: 20298 - 19255" locus_tag="AFV52120.1" class="clusterblast-orf" id="dummy-3_h3_2_93"  />
</g>
<g id="a3_0094"  >
<polygon points="677,90 679,90 684,85 679,80 677,80 677,90 " style="fill:white; stroke-width:1; stroke:black; " description="&lt;b&gt;AFV52119.1&lt;/b&gt;&lt;br&gt;phenylalanine aminotransferase&lt;br&gt;Location: 19228 - 18116" locus_tag="AFV52119.1" class="clusterblast-orf" id="dummy-3_h3_2_94"  />
</g>
<g id="a3_0095"  >
<polygon points="684,85 689,80 693,80 693,90 689,90 684,85 " style="fill:white; stroke-width:1; stroke:black; " description="&lt;b&gt;AFV52118.1&lt;/b&gt;&lt;br&gt;putative GntR transcriptional regulator/aminotransferase&lt;br&gt;Location: 18056 - 16608" locus_tag="AFV52118.1" class="clusterblast-orf" id="dummy-3_h3_2_95"  />
</g>
<g id="a3_0096"  >
<polygon points="694,85 695,80 695,90 694,85 " style="fill:white; stroke-width:1; stroke:black; " description="&lt;b&gt;AFV52117.1&lt;/b&gt;&lt;br&gt;hypothetical protein&lt;br&gt;Location: 16485 - 16189" locus_tag="AFV52117.1" class="clusterblast-orf" id="dummy-3_h3_2_96"  />
</g>
<g id="a3_0097"  >
<polygon points="696,85 701,80 701,80 701,90 701,90 696,85 " style="fill:white; stroke-width:1; stroke:black; " description="&lt;b&gt;AFV52116.1&lt;/b&gt;&lt;br&gt;putative LysR transcriptional regulator&lt;br&gt;Location: 16102 - 15212" locus_tag="AFV52116.1" class="clusterblast-orf" id="dummy-3_h3_2_97"  />
</g>
<g id="a3_0098"  >
<polygon points="703,90 706,85 703,80 703,90 " style="fill:white; stroke-width:1; stroke:black; " description="&lt;b&gt;AFV52115.1&lt;/b&gt;&lt;br&gt;hypothetical protein DUF1470&lt;br&gt;Location: 14944 - 14348" locus_tag="AFV52115.1" class="clusterblast-orf" id="dummy-3_h3_2_98"  />
</g>
<g id="a3_0099"  >
<polygon points="706,85 711,80 711,80 711,90 711,90 706,85 " style="fill:white; stroke-width:1; stroke:black; " description="&lt;b&gt;AFV52114.1&lt;/b&gt;&lt;br&gt;hypothetical protein&lt;br&gt;Location: 14351 - 13566" locus_tag="AFV52114.1" class="clusterblast-orf" id="dummy-3_h3_2_99"  />
</g>
<g id="a3_00100"  >
<polygon points="711,85 716,80 718,80 718,90 716,90 711,85 " style="fill:white; stroke-width:1; stroke:black; " description="&lt;b&gt;AFV52113.1&lt;/b&gt;&lt;br&gt;putative transporter&lt;br&gt;Location: 13569 - 12343" locus_tag="AFV52113.1" class="clusterblast-orf" id="dummy-3_h3_2_100"  />
</g>
<g id="a3_00101"  >
<polygon points="720,85 724,80 724,90 720,85 " style="fill:white; stroke-width:1; stroke:black; " description="&lt;b&gt;AFV52112.1&lt;/b&gt;&lt;br&gt;hypothetical protein&lt;br&gt;Location: 11942 - 11382" locus_tag="AFV52112.1" class="clusterblast-orf" id="dummy-3_h3_2_101"  />
</g>
<g id="a3_00102"  >
<polygon points="723,85 727,80 727,90 723,85 " style="fill:white; stroke-width:1; stroke:black; " description="&lt;b&gt;AFV52111.1&lt;/b&gt;&lt;br&gt;hypothetical protein&lt;br&gt;Location: 11385 - 10777" locus_tag="AFV52111.1" class="clusterblast-orf" id="dummy-3_h3_2_102"  />
</g>
<g id="a3_00103"  >
<polygon points="728,85 732,80 732,90 728,85 " style="fill:white; stroke-width:1; stroke:black; " description="&lt;b&gt;AFV52110.1&lt;/b&gt;&lt;br&gt;hypothetical protein&lt;br&gt;Location: 10621 - 9953" locus_tag="AFV52110.1" class="clusterblast-orf" id="dummy-3_h3_2_103"  />
</g>
<g id="a3_00104"  >
<polygon points="733,90 733,90 738,85 733,80 733,80 733,90 " style="fill:white; stroke-width:1; stroke:black; " description="&lt;b&gt;AFV52109.1&lt;/b&gt;&lt;br&gt;hypothetical protein&lt;br&gt;Location: 9790 - 8849" locus_tag="AFV52109.1" class="clusterblast-orf" id="dummy-3_h3_2_104"  />
</g>
<g id="a3_00105"  >
<polygon points="739,85 743,80 743,90 739,85 " style="fill:white; stroke-width:1; stroke:black; " description="&lt;b&gt;AFV52108.1&lt;/b&gt;&lt;br&gt;putative TetR transcriptional regulator&lt;br&gt;Location: 8704 - 8093" locus_tag="AFV52108.1" class="clusterblast-orf" id="dummy-3_h3_2_105"  />
</g>
<g id="a3_00106"  >
<polygon points="744,90 744,90 749,85 744,80 744,80 744,90 " style="fill:white; stroke-width:1; stroke:black; " description="&lt;b&gt;AFV52107.1&lt;/b&gt;&lt;br&gt;putative monooxygenase&lt;br&gt;Location: 7962 - 7003" locus_tag="AFV52107.1" class="clusterblast-orf" id="dummy-3_h3_2_106"  />
</g>
<g id="a3_00107"  >
<polygon points="749,90 752,85 749,80 749,90 " style="fill:white; stroke-width:1; stroke:black; " description="&lt;b&gt;AFV52106.1&lt;/b&gt;&lt;br&gt;putative flavin reductase&lt;br&gt;Location: 7009 - 6515" locus_tag="AFV52106.1" class="clusterblast-orf" id="dummy-3_h3_2_107"  />
</g>
<g id="a3_00108"  >
<polygon points="752,90 755,85 752,80 752,90 " style="fill:white; stroke-width:1; stroke:black; " description="&lt;b&gt;AFV52105.1&lt;/b&gt;&lt;br&gt;hypothetical protein&lt;br&gt;Location: 6518 - 6036" locus_tag="AFV52105.1" class="clusterblast-orf" id="dummy-3_h3_2_108"  />
</g>
<g id="a3_00109"  >
<polygon points="755,85 757,80 757,90 755,85 " style="fill:white; stroke-width:1; stroke:black; " description="&lt;b&gt;AFV52104.1&lt;/b&gt;&lt;br&gt;hypothetical protein&lt;br&gt;Location: 5989 - 5630" locus_tag="AFV52104.1" class="clusterblast-orf" id="dummy-3_h3_2_109"  />
</g>
<g id="a3_00110"  >
<polygon points="759,85 764,80 765,80 765,90 764,90 759,85 " style="fill:white; stroke-width:1; stroke:black; " description="&lt;b&gt;AFV52103.1&lt;/b&gt;&lt;br&gt;putative O-methyltransferase&lt;br&gt;Location: 5286 - 4291" locus_tag="AFV52103.1" class="clusterblast-orf" id="dummy-3_h3_2_110"  />
</g>
<g id="a3_00111"  >
<polygon points="766,85 771,80 772,80 772,90 771,90 766,85 " style="fill:white; stroke-width:1; stroke:black; " description="&lt;b&gt;AFV52102.1&lt;/b&gt;&lt;br&gt;hypothetical protein&lt;br&gt;Location: 4097 - 3093" locus_tag="AFV52102.1" class="clusterblast-orf" id="dummy-3_h3_2_111"  />
</g>
<g id="a3_00112"  >
<polygon points="773,90 775,85 773,80 773,90 " style="fill:white; stroke-width:1; stroke:black; " description="&lt;b&gt;AFV52101.1&lt;/b&gt;&lt;br&gt;hypothetical protein&lt;br&gt;Location: 2991 - 2617" locus_tag="AFV52101.1" class="clusterblast-orf" id="dummy-3_h3_2_112"  />
</g>
<g id="a3_00113"  >
<polygon points="776,90 777,85 776,80 776,90 " style="fill:white; stroke-width:1; stroke:black; " description="&lt;b&gt;AFV52100.1&lt;/b&gt;&lt;br&gt;hypothetical protein&lt;br&gt;Location: 2420 - 2265" locus_tag="AFV52100.1" class="clusterblast-orf" id="dummy-3_h3_2_113"  />
</g>
<g id="a3_00114"  >
<polygon points="777,90 780,85 777,80 777,90 " style="fill:white; stroke-width:1; stroke:black; " description="&lt;b&gt;AFV52099.1&lt;/b&gt;&lt;br&gt;hypothetical protein&lt;br&gt;Location: 2256 - 1834" locus_tag="AFV52099.1" class="clusterblast-orf" id="dummy-3_h3_2_114"  />
</g>
</svg>
