<svg xmlns="http://www.w3.org/2000/svg" xmlns:xlink="http://www.w3.org/1999/xlink" version="1.1" x="0" y="0" height="230" width="800" viewBox="0 0 800 230" preserveAspectRatio="none"  >
<g label="Query sequence" class="clusterblast-cluster"  >
<text x="5" y="20" class="clusterblast-acc"  >
Query sequence</text>
<line x1="10" y1="35" x2="778.0" y2="35" style="stroke-width:1; stroke:grey; "  />
<polygon points="0,40 9,40 14,35 9,30 0,30 0,40 " style="fill:white; stroke-width:1; stroke:black; " description="&lt;b&gt;HS041_25945&lt;/b&gt;&lt;br&gt;DUF305 domain-containing protein&lt;br&gt;Location: 972519 - 973152" locus_tag="HS041_25945" class="clusterblast-orf" id="dummy-5_q0_0_all"  />
<polygon points="14,35 19,30 24,30 24,40 19,40 14,35 " style="fill:white; stroke-width:1; stroke:black; " description="&lt;b&gt;HS041_25950&lt;/b&gt;&lt;br&gt;SsgA family sporulation/cell division regulator&lt;br&gt;Location: 973164 - 973581" locus_tag="HS041_25950" class="clusterblast-orf" id="dummy-5_q1_0_all"  />
<polygon points="46,40 51,40 56,35 51,30 46,30 46,40 " style="fill:white; stroke-width:1; stroke:black; " description="&lt;b&gt;HS041_25960&lt;/b&gt;&lt;br&gt;transcription initiation protein&lt;br&gt;Location: 974579 - 974999" locus_tag="HS041_25960" class="clusterblast-orf" id="dummy-5_q2_0_all"  />
<polygon points="56,40 80,40 85,35 80,30 56,30 56,40 " style="fill:white; stroke-width:1; stroke:black; " description="&lt;b&gt;HS041_25965&lt;/b&gt;&lt;br&gt;RNA polymerase subunit sigma-24&lt;br&gt;Location: 975024 - 976311" locus_tag="HS041_25965" class="clusterblast-orf" id="dummy-5_q3_0_all"  />
<polygon points="87,35 92,30 109,30 109,40 92,40 87,35 " style="fill:white; stroke-width:1; stroke:black; " description="&lt;b&gt;HS041_25970&lt;/b&gt;&lt;br&gt;NAD(P)-dependent alcohol dehydrogenase&lt;br&gt;Location: 976402 - 977365" locus_tag="HS041_25970" class="clusterblast-orf" id="dummy-5_q4_0_all"  />
<polygon points="115,35 120,30 129,30 129,40 120,40 115,35 " style="fill:white; stroke-width:1; stroke:black; " description="&lt;b&gt;HS041_25975&lt;/b&gt;&lt;br&gt;maleylpyruvate isomerase family mycothiol-dependent enzyme&lt;br&gt;Location: 977617 - 978265" locus_tag="HS041_25975" class="clusterblast-orf" id="dummy-5_q5_0_all"  />
<polygon points="131,40 136,40 141,35 136,30 131,30 131,40 " style="fill:white; stroke-width:1; stroke:black; " description="&lt;b&gt;HS041_25980&lt;/b&gt;&lt;br&gt;MarR family transcriptional regulator&lt;br&gt;Location: 978353 - 978803" locus_tag="HS041_25980" class="clusterblast-orf" id="dummy-5_q6_0_all"  />
<polygon points="146,40 176,40 181,35 176,30 146,30 146,40 " style="fill:white; stroke-width:1; stroke:black; " description="&lt;b&gt;HS041_25985&lt;/b&gt;&lt;br&gt;FG-GAP repeat protein&lt;br&gt;Location: 979009 - 980566" locus_tag="HS041_25985" class="clusterblast-orf" id="dummy-5_q7_0_all"  />
<polygon points="190,40 210,40 215,35 210,30 190,30 190,40 " style="fill:white; stroke-width:1; stroke:black; " description="&lt;b&gt;HS041_25990&lt;/b&gt;&lt;br&gt;polyprenyl synthetase family protein&lt;br&gt;Location: 980967 - 982074" locus_tag="HS041_25990" class="clusterblast-orf" id="dummy-5_q8_0_all"  />
<polygon points="219,40 238,40 243,35 238,30 219,30 219,40 " style="fill:white; stroke-width:1; stroke:black; " description="&lt;b&gt;HS041_25995&lt;/b&gt;&lt;br&gt;hypothetical protein&lt;br&gt;Location: 982256 - 983309" locus_tag="HS041_25995" class="clusterblast-orf" id="dummy-5_q9_0_all"  />
<polygon points="244,35 249,30 278,30 278,40 249,40 244,35 " style="fill:white; stroke-width:1; stroke:black; " description="&lt;b&gt;HS041_26000&lt;/b&gt;&lt;br&gt;AarF/ABC1/UbiB kinase family protein&lt;br&gt;Location: 983351 - 984872" locus_tag="HS041_26000" class="clusterblast-orf" id="dummy-5_q10_0_all"  />
<polygon points="278,35 283,30 285,30 285,40 283,40 278,35 " style="fill:white; stroke-width:1; stroke:black; " description="&lt;b&gt;HS041_26005&lt;/b&gt;&lt;br&gt;hypothetical protein&lt;br&gt;Location: 984868 - 985207" locus_tag="HS041_26005" class="clusterblast-orf" id="dummy-5_q11_0_all"  />
<polygon points="286,35 291,30 295,30 295,40 291,40 286,35 " style="fill:white; stroke-width:1; stroke:black; " description="&lt;b&gt;HS041_26010&lt;/b&gt;&lt;br&gt;hypothetical protein&lt;br&gt;Location: 985228 - 985648" locus_tag="HS041_26010" class="clusterblast-orf" id="dummy-5_q12_0_all"  />
<polygon points="302,35 307,30 307,30 307,40 307,40 302,35 " style="fill:white; stroke-width:1; stroke:black; " description="&lt;b&gt;HS041_26015&lt;/b&gt;&lt;br&gt;hypothetical protein&lt;br&gt;Location: 985940 - 986168" locus_tag="HS041_26015" class="clusterblast-orf" id="dummy-5_q13_0_all"  />
<polygon points="310,35 315,30 339,30 339,40 315,40 310,35 " style="fill:white; stroke-width:1; stroke:black; " description="&lt;b&gt;HS041_26020&lt;/b&gt;&lt;br&gt;DUF3459 domain-containing protein&lt;br&gt;Location: 986292 - 987597" locus_tag="HS041_26020" class="clusterblast-orf" id="dummy-5_q14_0_all"  />
<polygon points="346,40 362,40 367,35 362,30 346,30 346,40 " style="fill:white; stroke-width:1; stroke:black; " description="&lt;b&gt;HS041_26025&lt;/b&gt;&lt;br&gt;TIGR03564 family F420-dependent LLM class oxidoreductase&lt;br&gt;Location: 987920 - 988817" locus_tag="HS041_26025" class="clusterblast-orf" id="dummy-5_q15_0_all"  />
<polygon points="366,35 371,30 408,30 408,40 371,40 366,35 " style="fill:#d81515; stroke-width:1; stroke:black; " description="&lt;b&gt;HS041_26030&lt;/b&gt;&lt;br&gt;ABC transporter ATP-binding protein&lt;br&gt;Location: 988800 - 990633" locus_tag="HS041_26030" class="clusterblast-orf" id="dummy-5_q16_0_all"  />
<polygon points="409,35 414,30 449,30 449,40 414,40 409,35 " style="fill:#15d8d8; stroke-width:1; stroke:black; " description="&lt;b&gt;HS041_26035&lt;/b&gt;&lt;br&gt;ABC transporter ATP-binding protein&lt;br&gt;Location: 990695 - 992465" locus_tag="HS041_26035" class="clusterblast-orf" id="dummy-5_q17_0_all"  />
<polygon points="458,35 463,30 500,30 500,40 463,40 458,35 " style="fill:white; stroke-width:1; stroke:black; " description="&lt;b&gt;HS041_26040&lt;/b&gt;&lt;br&gt;prolyl oligopeptidase family serine peptidase&lt;br&gt;Location: 992894 - 994721" locus_tag="HS041_26040" class="clusterblast-orf" id="dummy-5_q18_0_all"  />
<polygon points="500,35 505,30 565,30 565,40 505,40 500,35 " style="fill:white; stroke-width:1; stroke:black; " description="&lt;b&gt;HS041_26045&lt;/b&gt;&lt;br&gt;protein kinase/lanthionine synthetase C family protein&lt;br&gt;Location: 994720 - 997606" locus_tag="HS041_26045" class="clusterblast-orf" id="dummy-5_q19_0_all"  />
<polygon points="573,35 578,30 578,30 578,40 578,40 573,35 " style="fill:white; stroke-width:1; stroke:black; " description="&lt;b&gt;HS041_26050&lt;/b&gt;&lt;br&gt;hypothetical protein&lt;br&gt;Location: 997976 - 998219" locus_tag="HS041_26050" class="clusterblast-orf" id="dummy-5_q20_0_all"  />
<polygon points="582,35 587,30 657,30 657,40 587,40 582,35 " style="fill:white; stroke-width:1; stroke:black; " description="&lt;b&gt;HS041_26055&lt;/b&gt;&lt;br&gt;AAA family ATPase&lt;br&gt;Location: 998402 - 1001714" locus_tag="HS041_26055" class="clusterblast-orf" id="dummy-5_q21_0_all"  />
<polygon points="661,35 666,30 679,30 679,40 666,40 661,35 " style="fill:white; stroke-width:1; stroke:black; " description="&lt;b&gt;HS041_26060&lt;/b&gt;&lt;br&gt;PaaX domain-containing protein, C- domain protein&lt;br&gt;Location: 1001882 - 1002677" locus_tag="HS041_26060" class="clusterblast-orf" id="dummy-5_q22_0_all"  />
<polygon points="681,40 716,40 721,35 716,30 681,30 681,40 " style="fill:white; stroke-width:1; stroke:black; " description="&lt;b&gt;HS041_26065&lt;/b&gt;&lt;br&gt;acyl-CoA dehydrogenase family protein&lt;br&gt;Location: 1002790 - 1004542" locus_tag="HS041_26065" class="clusterblast-orf" id="dummy-5_q23_0_all"  />
<polygon points="720,35 724,30 724,40 720,35 " style="fill:white; stroke-width:1; stroke:black; " description="&lt;b&gt;HS041_26070&lt;/b&gt;&lt;br&gt;hypothetical protein&lt;br&gt;Location: 1004531 - 1004681" locus_tag="HS041_26070" class="clusterblast-orf" id="dummy-5_q24_0_all"  />
<polygon points="724,35 729,30 729,30 729,40 729,40 724,35 " style="fill:white; stroke-width:1; stroke:black; " description="&lt;b&gt;HS041_26075&lt;/b&gt;&lt;br&gt;hypothetical protein&lt;br&gt;Location: 1004665 - 1004911" locus_tag="HS041_26075" class="clusterblast-orf" id="dummy-5_q25_0_all"  />
<polygon points="732,40 732,40 737,35 732,30 732,30 732,40 " style="fill:white; stroke-width:1; stroke:black; " description="&lt;b&gt;HS041_26080&lt;/b&gt;&lt;br&gt;hypothetical protein&lt;br&gt;Location: 1005021 - 1005258" locus_tag="HS041_26080" class="clusterblast-orf" id="dummy-5_q26_0_all"  />
<polygon points="741,35 746,30 750,30 750,40 746,40 741,35 " style="fill:white; stroke-width:1; stroke:black; " description="&lt;b&gt;HS041_26085&lt;/b&gt;&lt;br&gt;DUF4259 domain-containing protein&lt;br&gt;Location: 1005420 - 1005837" locus_tag="HS041_26085" class="clusterblast-orf" id="dummy-5_q27_0_all"  />
<polygon points="751,35 756,30 756,30 756,40 756,40 751,35 " style="fill:white; stroke-width:1; stroke:black; " description="&lt;b&gt;HS041_26090&lt;/b&gt;&lt;br&gt;cold shock domain-containing protein&lt;br&gt;Location: 1005891 - 1006107" locus_tag="HS041_26090" class="clusterblast-orf" id="dummy-5_q28_0_all"  />
<polygon points="761,40 775,40 780,35 775,30 761,30 761,40 " style="fill:white; stroke-width:1; stroke:black; " description="&lt;b&gt;HS041_26095&lt;/b&gt;&lt;br&gt;ATP-grasp domain-containing protein&lt;br&gt;Location: 1006313 - 1007162" locus_tag="HS041_26095" class="clusterblast-orf" id="dummy-5_q29_0_all"  />
</g>
<g label="BGC0000519" description="BGC0000519_c1: labyrinthopeptin A2/labyrinthopeptin A1/labyrinthopeptin A3 (40% of genes show similarity), RiPP:Lanthipeptide" class="clusterblast-cluster"  >
<text x="5" y="70" class="clusterblast-acc"  >
<a xlink:href="https://mibig.secondarymetabolites.org/go/BGC0000519/1" target="_blank">BGC0000519</a>: labyrinthopeptin A2/labyrinthopeptin A1/labyrinthopeptin A3                      (40% of genes show similarity), RiPP:Lanthipeptide</text>
<line x1="10" y1="85" x2="778.0" y2="85" style="stroke-width:1; stroke:grey; "  />
</g>
<g id="a5_000"  >
<polygon points="317,85 322,80 356,80 356,90 322,90 317,85 " style="fill:#d81515; stroke-width:1; stroke:black; " description="&lt;b&gt;CAX48975.1&lt;/b&gt;&lt;br&gt;ABC-transporter&lt;br&gt;Location: 6400 - 4685&lt;br&gt;&lt;br&gt;&lt;b&gt;BlastP hit with HS041_26030&lt;/b&gt;&lt;br&gt;Percentage identity: 47&lt;br&gt;Percentage coverage: 97&lt;br&gt;BLAST bit score: 409&lt;br&gt;E-value: 5.61e-136" locus_tag="CAX48975.1" class="clusterblast-orf" id="dummy-5_h5_1_0"  />
</g>
<g id="a5_001"  >
<polygon points="356,85 361,80 394,80 394,90 361,90 356,85 " style="fill:#15d8d8; stroke-width:1; stroke:black; " description="&lt;b&gt;CAX48974.1&lt;/b&gt;&lt;br&gt;ABC-transporter&lt;br&gt;Location: 4688 - 2988&lt;br&gt;&lt;br&gt;&lt;b&gt;BlastP hit with HS041_26035&lt;/b&gt;&lt;br&gt;Percentage identity: 50&lt;br&gt;Percentage coverage: 95&lt;br&gt;BLAST bit score: 464&lt;br&gt;E-value: 5.49e-158" locus_tag="CAX48974.1" class="clusterblast-orf" id="dummy-5_h5_1_1"  />
</g>
<g id="a5_002"  >
<polygon points="397,85 399,80 399,90 397,85 " style="fill:white; stroke-width:1; stroke:black; " description="&lt;b&gt;CAX48973.1&lt;/b&gt;&lt;br&gt;labyrinthopeptin A2 prepropeptide&lt;br&gt;Location: 2877 - 2761" locus_tag="CAX48973.1" class="clusterblast-orf" id="dummy-5_h5_1_2"  />
</g>
<g id="a5_003"  >
<polygon points="400,85 403,80 403,90 400,85 " style="fill:white; stroke-width:1; stroke:black; " description="&lt;b&gt;CAX48972.1&lt;/b&gt;&lt;br&gt;labyrinthopeptin A1/A3 prepropeptide&lt;br&gt;Location: 2721 - 2599" locus_tag="CAX48972.1" class="clusterblast-orf" id="dummy-5_h5_1_3"  />
</g>
<g id="a5_004"  >
<polygon points="403,85 408,80 462,80 462,90 408,90 403,85 " style="fill:white; stroke-width:1; stroke:black; " description="&lt;b&gt;CAX48971.1&lt;/b&gt;&lt;br&gt;serine/threonine kinase&lt;br&gt;Location: 2589 - 1" locus_tag="CAX48971.1" class="clusterblast-orf" id="dummy-5_h5_1_4"  />
</g>
</svg>
