<svg xmlns="http://www.w3.org/2000/svg" xmlns:xlink="http://www.w3.org/1999/xlink" version="1.1" x="0" y="0" height="230" width="800" viewBox="0 0 800 230" preserveAspectRatio="none"  >
<g label="Query sequence" class="clusterblast-cluster"  >
<text x="5" y="20" class="clusterblast-acc"  >
Query sequence</text>
<line x1="10" y1="35" x2="778.0" y2="35" style="stroke-width:1; stroke:grey; "  />
<polygon points="0,35 5,30 28,30 28,40 5,40 0,35 " style="fill:white; stroke-width:1; stroke:black; " description="&lt;b&gt;HS041_21235&lt;/b&gt;&lt;br&gt;hypothetical protein&lt;br&gt;Location: 1937112 - 1939371" locus_tag="HS041_21235" class="clusterblast-orf" id="dummy-7_q0_0_all"  />
<polygon points="33,35 38,30 44,30 44,40 38,40 33,35 " style="fill:white; stroke-width:1; stroke:black; " description="&lt;b&gt;HS041_21240&lt;/b&gt;&lt;br&gt;CHAP domain-containing protein&lt;br&gt;Location: 1939701 - 1940556" locus_tag="HS041_21240" class="clusterblast-orf" id="dummy-7_q1_0_all"  />
<polygon points="50,40 53,40 58,35 53,30 50,30 50,40 " style="fill:white; stroke-width:1; stroke:black; " description="&lt;b&gt;HS041_21245&lt;/b&gt;&lt;br&gt;hypothetical protein&lt;br&gt;Location: 1941076 - 1941694" locus_tag="HS041_21245" class="clusterblast-orf" id="dummy-7_q2_0_all"  />
<polygon points="60,40 70,40 75,35 70,30 60,30 60,40 " style="fill:white; stroke-width:1; stroke:black; " description="&lt;b&gt;HS041_21250&lt;/b&gt;&lt;br&gt;sensor histidine kinase&lt;br&gt;Location: 1941814 - 1943008" locus_tag="HS041_21250" class="clusterblast-orf" id="dummy-7_q3_0_all"  />
<polygon points="75,40 78,40 83,35 78,30 75,30 75,40 " style="fill:white; stroke-width:1; stroke:black; " description="&lt;b&gt;HS041_21255&lt;/b&gt;&lt;br&gt;response regulator transcription factor&lt;br&gt;Location: 1942997 - 1943669" locus_tag="HS041_21255" class="clusterblast-orf" id="dummy-7_q4_0_all"  />
<polygon points="84,35 89,30 108,30 108,40 89,40 84,35 " style="fill:#d81515; stroke-width:1; stroke:black; " description="&lt;b&gt;HS041_21260&lt;/b&gt;&lt;br&gt;ABC transporter ATP-binding protein&lt;br&gt;Location: 1943750 - 1945613" locus_tag="HS041_21260" class="clusterblast-orf" id="dummy-7_q5_0_all"  />
<polygon points="108,35 113,30 131,30 131,40 113,40 108,35 " style="fill:#15d815; stroke-width:1; stroke:black; " description="&lt;b&gt;HS041_21265&lt;/b&gt;&lt;br&gt;ABC transporter ATP-binding protein&lt;br&gt;Location: 1945609 - 1947397" locus_tag="HS041_21265" class="clusterblast-orf" id="dummy-7_q6_0_all"  />
<polygon points="137,40 142,40 147,35 142,30 137,30 137,40 " style="fill:white; stroke-width:1; stroke:black; " description="&lt;b&gt;HS041_21270&lt;/b&gt;&lt;br&gt;ATP-grasp domain-containing protein&lt;br&gt;Location: 1947832 - 1948663" locus_tag="HS041_21270" class="clusterblast-orf" id="dummy-7_q7_0_all"  />
<polygon points="148,40 162,40 167,35 162,30 148,30 148,40 " style="fill:white; stroke-width:1; stroke:black; " description="&lt;b&gt;HS041_21275&lt;/b&gt;&lt;br&gt;carboxylesterase/lipase family protein&lt;br&gt;Location: 1948734 - 1950192" locus_tag="HS041_21275" class="clusterblast-orf" id="dummy-7_q8_0_all"  />
<polygon points="167,35 172,30 177,30 177,40 172,40 167,35 " style="fill:white; stroke-width:1; stroke:black; " description="&lt;b&gt;HS041_21280&lt;/b&gt;&lt;br&gt;SAM-dependent methyltransferase&lt;br&gt;Location: 1950208 - 1951003" locus_tag="HS041_21280" class="clusterblast-orf" id="dummy-7_q9_0_all"  />
<polygon points="179,35 184,30 236,30 236,40 184,40 179,35 " style="fill:white; stroke-width:1; stroke:black; " description="&lt;b&gt;HS041_21285&lt;/b&gt;&lt;br&gt;HAMP domain-containing protein&lt;br&gt;Location: 1951119 - 1955643" locus_tag="HS041_21285" class="clusterblast-orf" id="dummy-7_q10_0_all"  />
<polygon points="238,35 243,30 249,30 249,40 243,40 238,35 " style="fill:white; stroke-width:1; stroke:black; " description="&lt;b&gt;HS041_21290&lt;/b&gt;&lt;br&gt;hypothetical protein&lt;br&gt;Location: 1955761 - 1956601" locus_tag="HS041_21290" class="clusterblast-orf" id="dummy-7_q11_0_all"  />
<polygon points="249,35 254,30 289,30 289,40 254,40 249,35 " style="fill:#1515d8; stroke-width:1; stroke:black; " description="&lt;b&gt;HS041_21295&lt;/b&gt;&lt;br&gt;amino acid adenylation domain-containing protein&lt;br&gt;Location: 1956659 - 1959785" locus_tag="HS041_21295" class="clusterblast-orf" id="dummy-7_q12_0_all"  />
<polygon points="289,35 294,30 374,30 374,40 294,40 289,35 " style="fill:#1515d8; stroke-width:1; stroke:black; " description="&lt;b&gt;HS041_21300&lt;/b&gt;&lt;br&gt;amino acid adenylation domain-containing protein&lt;br&gt;Location: 1959781 - 1966429" locus_tag="HS041_21300" class="clusterblast-orf" id="dummy-7_q13_0_all"  />
<polygon points="377,40 388,40 393,35 388,30 377,30 377,40 " style="fill:white; stroke-width:1; stroke:black; " description="&lt;b&gt;HS041_21305&lt;/b&gt;&lt;br&gt;thioesterase&lt;br&gt;Location: 1966631 - 1967954" locus_tag="HS041_21305" class="clusterblast-orf" id="dummy-7_q14_0_all"  />
<polygon points="394,40 455,40 460,35 455,30 394,30 394,40 " style="fill:white; stroke-width:1; stroke:black; " description="&lt;b&gt;HS041_21310&lt;/b&gt;&lt;br&gt;amino acid adenylation domain-containing protein&lt;br&gt;Location: 1967969 - 1973141" locus_tag="HS041_21310" class="clusterblast-orf" id="dummy-7_q15_0_all"  />
<polygon points="460,40 525,40 530,35 525,30 460,30 460,40 " style="fill:#1515d8; stroke-width:1; stroke:black; " description="&lt;b&gt;HS041_21315&lt;/b&gt;&lt;br&gt;SDR family NAD(P)-dependent oxidoreductase&lt;br&gt;Location: 1973137 - 1978654" locus_tag="HS041_21315" class="clusterblast-orf" id="dummy-7_q16_0_all"  />
<polygon points="531,35 536,30 545,30 545,40 536,40 531,35 " style="fill:white; stroke-width:1; stroke:black; " description="&lt;b&gt;HS041_21320&lt;/b&gt;&lt;br&gt;LLM class F420-dependent oxidoreductase&lt;br&gt;Location: 1978729 - 1979803" locus_tag="HS041_21320" class="clusterblast-orf" id="dummy-7_q17_0_all"  />
<polygon points="548,40 559,40 564,35 559,30 548,30 548,40 " style="fill:white; stroke-width:1; stroke:black; " description="&lt;b&gt;HS041_21325&lt;/b&gt;&lt;br&gt;FxsB family radical SAM/SPASM domain protein&lt;br&gt;Location: 1980014 - 1981337" locus_tag="HS041_21325" class="clusterblast-orf" id="dummy-7_q18_0_all"  />
<polygon points="564,40 577,40 582,35 577,30 564,30 564,40 " style="fill:white; stroke-width:1; stroke:black; " description="&lt;b&gt;HS041_21330&lt;/b&gt;&lt;br&gt;HEXXH motif domain-containing protein&lt;br&gt;Location: 1981333 - 1982683" locus_tag="HS041_21330" class="clusterblast-orf" id="dummy-7_q19_0_all"  />
<polygon points="582,35 587,30 615,30 615,40 587,40 582,35 " style="fill:white; stroke-width:1; stroke:black; " description="&lt;b&gt;HS041_21335&lt;/b&gt;&lt;br&gt;tetratricopeptide repeat protein&lt;br&gt;Location: 1982707 - 1985305" locus_tag="HS041_21335" class="clusterblast-orf" id="dummy-7_q20_0_all"  />
<polygon points="617,40 619,35 617,30 617,40 " style="fill:white; stroke-width:1; stroke:black; " description="&lt;b&gt;HS041_21340&lt;/b&gt;&lt;br&gt;hypothetical protein&lt;br&gt;Location: 1985453 - 1985621" locus_tag="HS041_21340" class="clusterblast-orf" id="dummy-7_q21_0_all"  />
<polygon points="624,40 628,40 633,35 628,30 624,30 624,40 " style="fill:white; stroke-width:1; stroke:black; " description="&lt;b&gt;HS041_21345&lt;/b&gt;&lt;br&gt;SIR2 family protein&lt;br&gt;Location: 1985987 - 1986707" locus_tag="HS041_21345" class="clusterblast-orf" id="dummy-7_q22_0_all"  />
<polygon points="633,40 654,40 659,35 654,30 633,30 633,40 " style="fill:white; stroke-width:1; stroke:black; " description="&lt;b&gt;HS041_21350&lt;/b&gt;&lt;br&gt;tetratricopeptide repeat protein&lt;br&gt;Location: 1986703 - 1988722" locus_tag="HS041_21350" class="clusterblast-orf" id="dummy-7_q23_0_all"  />
<polygon points="658,35 663,30 673,30 673,40 663,40 658,35 " style="fill:white; stroke-width:1; stroke:black; " description="&lt;b&gt;HS041_21355&lt;/b&gt;&lt;br&gt;MFS transporter&lt;br&gt;Location: 1988678 - 1989872" locus_tag="HS041_21355" class="clusterblast-orf" id="dummy-7_q24_0_all"  />
<polygon points="678,35 683,30 696,30 696,40 683,40 678,35 " style="fill:white; stroke-width:1; stroke:black; " description="&lt;b&gt;HS041_21360&lt;/b&gt;&lt;br&gt;NAD(P)/FAD-dependent oxidoreductase&lt;br&gt;Location: 1990223 - 1991636" locus_tag="HS041_21360" class="clusterblast-orf" id="dummy-7_q25_0_all"  />
<polygon points="698,40 705,40 710,35 705,30 698,30 698,40 " style="fill:white; stroke-width:1; stroke:black; " description="&lt;b&gt;HS041_21365&lt;/b&gt;&lt;br&gt;DMT family transporter&lt;br&gt;Location: 1991825 - 1992710" locus_tag="HS041_21365" class="clusterblast-orf" id="dummy-7_q26_0_all"  />
<polygon points="711,35 716,30 717,30 717,40 716,40 711,35 " style="fill:white; stroke-width:1; stroke:black; " description="&lt;b&gt;HS041_21370&lt;/b&gt;&lt;br&gt;low molecular weight phosphotyrosine protein phosphatase&lt;br&gt;Location: 1992839 - 1993316" locus_tag="HS041_21370" class="clusterblast-orf" id="dummy-7_q27_0_all"  />
<polygon points="718,35 723,30 730,30 730,40 723,40 718,35 " style="fill:white; stroke-width:1; stroke:black; " description="&lt;b&gt;HS041_21375&lt;/b&gt;&lt;br&gt;helix-turn-helix domain-containing protein&lt;br&gt;Location: 1993359 - 1994304" locus_tag="HS041_21375" class="clusterblast-orf" id="dummy-7_q28_0_all"  />
<polygon points="731,40 737,40 742,35 737,30 731,30 731,40 " style="fill:white; stroke-width:1; stroke:black; " description="&lt;b&gt;HS041_21380&lt;/b&gt;&lt;br&gt;NAD-dependent epimerase&lt;br&gt;Location: 1994388 - 1995267" locus_tag="HS041_21380" class="clusterblast-orf" id="dummy-7_q29_0_all"  />
<polygon points="745,35 750,30 752,30 752,40 750,40 745,35 " style="fill:white; stroke-width:1; stroke:black; " description="&lt;b&gt;HS041_21385&lt;/b&gt;&lt;br&gt;tryptophan-rich sensory protein&lt;br&gt;Location: 1995462 - 1996020" locus_tag="HS041_21385" class="clusterblast-orf" id="dummy-7_q30_0_all"  />
<polygon points="755,40 767,40 772,35 767,30 755,30 755,40 " style="fill:white; stroke-width:1; stroke:black; " description="&lt;b&gt;HS041_21390&lt;/b&gt;&lt;br&gt;serine hydrolase&lt;br&gt;Location: 1996236 - 1997562" locus_tag="HS041_21390" class="clusterblast-orf" id="dummy-7_q31_0_all"  />
<polygon points="773,35 778,30 780,30 780,40 778,40 773,35 " style="fill:white; stroke-width:1; stroke:black; " description="&lt;b&gt;HS041_21395&lt;/b&gt;&lt;br&gt;hypothetical protein&lt;br&gt;Location: 1997644 - 1998190" locus_tag="HS041_21395" class="clusterblast-orf" id="dummy-7_q32_0_all"  />
</g>
<g label="BGC0002001" description="BGC0002001_c1: crochelin A (12% of genes show similarity), NRP+Polyketide" class="clusterblast-cluster"  >
<text x="5" y="70" class="clusterblast-acc"  >
<a xlink:href="https://mibig.secondarymetabolites.org/go/BGC0002001/1" target="_blank">BGC0002001</a>: crochelin A                                                                      (12% of genes show similarity), NRP+Polyketide</text>
<line x1="10" y1="85" x2="778.0" y2="85" style="stroke-width:1; stroke:grey; "  />
</g>
<g id="a7_000"  >
<polygon points="69,90 74,90 79,85 74,80 69,80 69,90 " style="fill:white; stroke-width:1; stroke:black; " description="&lt;b&gt;Achr_RS19525&lt;/b&gt;&lt;br&gt;ATP-binding cassette domain-containing protein&lt;br&gt;Location: 1 - 768" locus_tag="Achr_RS19525" class="clusterblast-orf" id="dummy-7_h7_1_0"  />
</g>
<g id="a7_001"  >
<polygon points="83,85 88,80 100,80 100,90 88,90 83,85 " style="fill:white; stroke-width:1; stroke:black; " description="&lt;b&gt;Achr_RS19530&lt;/b&gt;&lt;br&gt;PepSY domain-containing protein&lt;br&gt;Location: 1101 - 2444" locus_tag="Achr_RS19530" class="clusterblast-orf" id="dummy-7_h7_1_1"  />
</g>
<g id="a7_002"  >
<polygon points="100,85 105,80 121,80 121,90 105,90 100,85 " style="fill:white; stroke-width:1; stroke:black; " description="&lt;b&gt;Achr_RS19535&lt;/b&gt;&lt;br&gt;cyclic peptide export ABC transporter&lt;br&gt;Location: 2441 - 4102" locus_tag="Achr_RS19535" class="clusterblast-orf" id="dummy-7_h7_1_2"  />
</g>
<g id="a7_003"  >
<polygon points="123,85 128,80 155,80 155,90 128,90 123,85 " style="fill:white; stroke-width:1; stroke:black; " description="&lt;b&gt;Achr_RS19540&lt;/b&gt;&lt;br&gt;penicillin acylase family protein&lt;br&gt;Location: 4234 - 6720" locus_tag="Achr_RS19540" class="clusterblast-orf" id="dummy-7_h7_1_3"  />
</g>
<g id="a7_004"  >
<polygon points="156,85 161,80 170,80 170,90 161,90 156,85 " style="fill:white; stroke-width:1; stroke:black; " description="&lt;b&gt;Achr_RS19545&lt;/b&gt;&lt;br&gt;histone deacetylase family protein&lt;br&gt;Location: 6836 - 7879" locus_tag="Achr_RS19545" class="clusterblast-orf" id="dummy-7_h7_1_4"  />
</g>
<g id="a7_005"  >
<polygon points="170,85 175,80 180,80 180,90 175,90 170,85 " style="fill:white; stroke-width:1; stroke:black; " description="&lt;b&gt;Achr_RS19550&lt;/b&gt;&lt;br&gt;N(5)-hydroxyornithine transformylase PvdF&lt;br&gt;Location: 7892 - 8716" locus_tag="Achr_RS19550" class="clusterblast-orf" id="dummy-7_h7_1_5"  />
</g>
<g id="a7_006"  >
<polygon points="185,90 199,90 204,85 199,80 185,80 185,90 " style="fill:white; stroke-width:1; stroke:black; " description="&lt;b&gt;Achr_RS19555&lt;/b&gt;&lt;br&gt;diaminobutyrate--2-oxoglutarate transaminase&lt;br&gt;Location: 9082 - 10524" locus_tag="Achr_RS19555" class="clusterblast-orf" id="dummy-7_h7_1_6"  />
</g>
<g id="a7_007"  >
<polygon points="204,90 228,90 233,85 228,80 204,80 204,90 " style="fill:white; stroke-width:1; stroke:black; " description="&lt;b&gt;Achr_RS19560&lt;/b&gt;&lt;br&gt;TonB-dependent siderophore receptor&lt;br&gt;Location: 10590 - 12854" locus_tag="Achr_RS19560" class="clusterblast-orf" id="dummy-7_h7_1_7"  />
</g>
<g id="a7_008"  >
<polygon points="236,85 241,80 288,80 288,90 241,90 236,85 " style="fill:white; stroke-width:1; stroke:black; " description="&lt;b&gt;Achr_RS19570&lt;/b&gt;&lt;br&gt;non-ribosomal peptide synthetase&lt;br&gt;Location: 13069 - 17136" locus_tag="Achr_RS19570" class="clusterblast-orf" id="dummy-7_h7_1_8"  />
</g>
<g id="a7_009"  >
<polygon points="288,85 293,80 388,80 388,90 293,90 288,85 " style="fill:white; stroke-width:1; stroke:black; " description="&lt;b&gt;Achr_RS19575&lt;/b&gt;&lt;br&gt;non-ribosomal peptide synthetase&lt;br&gt;Location: 17133 - 24944" locus_tag="Achr_RS19575" class="clusterblast-orf" id="dummy-7_h7_1_9"  />
</g>
<g id="a7_0010"  >
<polygon points="388,85 393,80 430,80 430,90 393,90 388,85 " style="fill:#1515d8; stroke-width:1; stroke:black; " description="&lt;b&gt;Achr_RS19580&lt;/b&gt;&lt;br&gt;non-ribosomal peptide synthetase&lt;br&gt;Location: 24948 - 28274&lt;br&gt;&lt;br&gt;&lt;b&gt;BlastP hit with HS041_21300&lt;/b&gt;&lt;br&gt;Percentage identity: 48&lt;br&gt;Percentage coverage: 50&lt;br&gt;BLAST bit score: 875&lt;br&gt;E-value: 6.34e-290" locus_tag="Achr_RS19580" class="clusterblast-orf" id="dummy-7_h7_1_10"  />
</g>
<g id="a7_0011"  >
<polygon points="436,85 441,80 494,80 494,90 441,90 436,85 " style="fill:#1515d8; stroke-width:1; stroke:black; " description="&lt;b&gt;Achr_RS19585&lt;/b&gt;&lt;br&gt;type I polyketide synthase&lt;br&gt;Location: 28716 - 33278&lt;br&gt;&lt;br&gt;&lt;b&gt;BlastP hit with HS041_21315&lt;/b&gt;&lt;br&gt;Percentage identity: 48&lt;br&gt;Percentage coverage: 75&lt;br&gt;BLAST bit score: 1110&lt;br&gt;E-value: 0.0" locus_tag="Achr_RS19585" class="clusterblast-orf" id="dummy-7_h7_1_11"  />
</g>
<g id="a7_0012"  >
<polygon points="494,85 499,80 562,80 562,90 499,90 494,85 " style="fill:#1515d8; stroke-width:1; stroke:black; " description="&lt;b&gt;Achr_RS19590&lt;/b&gt;&lt;br&gt;non-ribosomal peptide synthetase&lt;br&gt;Location: 33275 - 38572&lt;br&gt;&lt;br&gt;&lt;b&gt;BlastP hit with HS041_21300&lt;/b&gt;&lt;br&gt;Percentage identity: 47&lt;br&gt;Percentage coverage: 49&lt;br&gt;BLAST bit score: 833&lt;br&gt;E-value: 1.21e-265" locus_tag="Achr_RS19590" class="clusterblast-orf" id="dummy-7_h7_1_12"  />
</g>
<g id="a7_0013"  >
<polygon points="562,85 567,80 575,80 575,90 567,90 562,85 " style="fill:white; stroke-width:1; stroke:black; " description="&lt;b&gt;Achr_RS19595&lt;/b&gt;&lt;br&gt;TauD/TfdA family dioxygenase&lt;br&gt;Location: 38601 - 39578" locus_tag="Achr_RS19595" class="clusterblast-orf" id="dummy-7_h7_1_13"  />
</g>
<g id="a7_0014"  >
<polygon points="576,85 581,80 585,80 585,90 581,90 576,85 " style="fill:white; stroke-width:1; stroke:black; " description="&lt;b&gt;Achr_RS19600&lt;/b&gt;&lt;br&gt;alpha/beta fold hydrolase&lt;br&gt;Location: 39660 - 40397" locus_tag="Achr_RS19600" class="clusterblast-orf" id="dummy-7_h7_1_14"  />
</g>
<g id="a7_0015"  >
<polygon points="585,85 588,80 588,90 585,85 " style="fill:white; stroke-width:1; stroke:black; " description="&lt;b&gt;Achr_RS19605&lt;/b&gt;&lt;br&gt;MbtH family NRPS accessory protein&lt;br&gt;Location: 40408 - 40650" locus_tag="Achr_RS19605" class="clusterblast-orf" id="dummy-7_h7_1_15"  />
</g>
<g id="a7_0016"  >
<polygon points="592,90 592,90 597,85 592,80 592,80 592,90 " style="fill:white; stroke-width:1; stroke:black; " description="&lt;b&gt;Achr_RS19610&lt;/b&gt;&lt;br&gt;DUF4880 domain-containing protein&lt;br&gt;Location: 40938 - 41354" locus_tag="Achr_RS19610" class="clusterblast-orf" id="dummy-7_h7_1_16"  />
</g>
<g id="a7_0017"  >
<polygon points="599,90 609,90 614,85 609,80 599,80 599,90 " style="fill:white; stroke-width:1; stroke:black; " description="&lt;b&gt;Achr_RS19615&lt;/b&gt;&lt;br&gt;efflux RND transporter periplasmic adaptor subunit&lt;br&gt;Location: 41499 - 42650" locus_tag="Achr_RS19615" class="clusterblast-orf" id="dummy-7_h7_1_17"  />
</g>
<g id="a7_0018"  >
<polygon points="615,90 628,90 633,85 628,80 615,80 615,90 " style="fill:white; stroke-width:1; stroke:black; " description="&lt;b&gt;Achr_RS19620&lt;/b&gt;&lt;br&gt;efflux transporter outer membrane subunit&lt;br&gt;Location: 42738 - 44171" locus_tag="Achr_RS19620" class="clusterblast-orf" id="dummy-7_h7_1_18"  />
</g>
<g id="a7_0019"  >
<polygon points="636,90 638,90 643,85 638,80 636,80 636,90 " style="fill:white; stroke-width:1; stroke:black; " description="&lt;b&gt;Achr_RS19625&lt;/b&gt;&lt;br&gt;RNA polymerase factor sigma-70&lt;br&gt;Location: 44415 - 44960" locus_tag="Achr_RS19625" class="clusterblast-orf" id="dummy-7_h7_1_19"  />
</g>
<g id="a7_0020"  >
<polygon points="646,90 646,90 651,85 646,80 646,80 646,90 " style="fill:white; stroke-width:1; stroke:black; " description="&lt;b&gt;Achr_RS19630&lt;/b&gt;&lt;br&gt;hypothetical protein&lt;br&gt;Location: 45166 - 45540" locus_tag="Achr_RS19630" class="clusterblast-orf" id="dummy-7_h7_1_20"  />
</g>
<g id="a7_0021"  >
<polygon points="654,85 659,80 671,80 671,90 659,90 654,85 " style="fill:white; stroke-width:1; stroke:black; " description="&lt;b&gt;Achr_RS19635&lt;/b&gt;&lt;br&gt;lysine N(6)-hydroxylase/L-ornithine N(5)-oxygenase family protein&lt;br&gt;Location: 45792 - 47093" locus_tag="Achr_RS19635" class="clusterblast-orf" id="dummy-7_h7_1_21"  />
</g>
<g id="a7_0022"  >
<polygon points="672,85 677,80 679,80 679,90 677,90 672,85 " style="fill:white; stroke-width:1; stroke:black; " description="&lt;b&gt;Achr_RS19640&lt;/b&gt;&lt;br&gt;hypothetical protein&lt;br&gt;Location: 47222 - 47743" locus_tag="Achr_RS19640" class="clusterblast-orf" id="dummy-7_h7_1_22"  />
</g>
<g id="a7_0023"  >
<polygon points="679,85 684,80 706,80 706,90 684,90 679,85 " style="fill:white; stroke-width:1; stroke:black; " description="&lt;b&gt;Achr_RS24430&lt;/b&gt;&lt;br&gt;condensation domain-containing protein&lt;br&gt;Location: 47794 - 49899" locus_tag="Achr_RS24430" class="clusterblast-orf" id="dummy-7_h7_1_23"  />
</g>
<g id="a7_0024"  >
<polygon points="707,85 710,80 710,90 707,85 " style="fill:white; stroke-width:1; stroke:black; " description="&lt;b&gt;Achr_RS19650&lt;/b&gt;&lt;br&gt;MbtH family protein&lt;br&gt;Location: 49972 - 50175" locus_tag="Achr_RS19650" class="clusterblast-orf" id="dummy-7_h7_1_24"  />
</g>
</svg>
