<svg xmlns="http://www.w3.org/2000/svg" xmlns:xlink="http://www.w3.org/1999/xlink" version="1.1" x="0" y="0" height="230" width="800" viewBox="0 0 800 230" preserveAspectRatio="none"  >
<g label="Query sequence" class="clusterblast-cluster"  >
<text x="5" y="20" class="clusterblast-acc"  >
Query sequence</text>
<line x1="10" y1="35" x2="778.0" y2="35" style="stroke-width:1; stroke:grey; "  />
<polygon points="63,40 78,40 83,35 78,30 63,30 63,40 " style="fill:white; stroke-width:1; stroke:black; " description="&lt;b&gt;HS041_13055&lt;/b&gt;&lt;br&gt;EAL domain-containing protein&lt;br&gt;Location: 68739 - 70212" locus_tag="HS041_13055" class="clusterblast-orf" id="dummy-1_q0_0_all"  />
<polygon points="83,35 88,30 103,30 103,40 88,40 83,35 " style="fill:white; stroke-width:1; stroke:black; " description="&lt;b&gt;HS041_13060&lt;/b&gt;&lt;br&gt;AMP-binding protein&lt;br&gt;Location: 70222 - 71707" locus_tag="HS041_13060" class="clusterblast-orf" id="dummy-1_q1_0_all"  />
<polygon points="103,35 108,30 117,30 117,40 108,40 103,35 " style="fill:white; stroke-width:1; stroke:black; " description="&lt;b&gt;HS041_13065&lt;/b&gt;&lt;br&gt;LLM class flavin-dependent oxidoreductase&lt;br&gt;Location: 71729 - 72788" locus_tag="HS041_13065" class="clusterblast-orf" id="dummy-1_q2_0_all"  />
<polygon points="120,40 131,40 136,35 131,30 120,30 120,40 " style="fill:white; stroke-width:1; stroke:black; " description="&lt;b&gt;HS041_13070&lt;/b&gt;&lt;br&gt;alpha/beta fold hydrolase&lt;br&gt;Location: 72971 - 74225" locus_tag="HS041_13070" class="clusterblast-orf" id="dummy-1_q3_0_all"  />
<polygon points="137,35 142,30 146,30 146,40 142,40 137,35 " style="fill:white; stroke-width:1; stroke:black; " description="&lt;b&gt;HS041_13075&lt;/b&gt;&lt;br&gt;M15 family metallopeptidase&lt;br&gt;Location: 74277 - 74961" locus_tag="HS041_13075" class="clusterblast-orf" id="dummy-1_q4_0_all"  />
<polygon points="148,35 153,30 189,30 189,40 153,40 148,35 " style="fill:white; stroke-width:1; stroke:black; " description="&lt;b&gt;HS041_13080&lt;/b&gt;&lt;br&gt;winged helix-turn-helix domain-containing protein&lt;br&gt;Location: 75116 - 78197" locus_tag="HS041_13080" class="clusterblast-orf" id="dummy-1_q5_0_all"  />
<polygon points="193,40 206,40 211,35 206,30 193,30 193,40 " style="fill:white; stroke-width:1; stroke:black; " description="&lt;b&gt;HS041_13085&lt;/b&gt;&lt;br&gt;CHAP domain-containing protein&lt;br&gt;Location: 78476 - 79865" locus_tag="HS041_13085" class="clusterblast-orf" id="dummy-1_q6_0_all"  />
<polygon points="213,40 228,40 233,35 228,30 213,30 213,40 " style="fill:white; stroke-width:1; stroke:black; " description="&lt;b&gt;HS041_13090&lt;/b&gt;&lt;br&gt;VCBS repeat-containing protein&lt;br&gt;Location: 80011 - 81466" locus_tag="HS041_13090" class="clusterblast-orf" id="dummy-1_q7_0_all"  />
<polygon points="234,35 238,30 238,40 234,35 " style="fill:white; stroke-width:1; stroke:black; " description="&lt;b&gt;HS041_13095&lt;/b&gt;&lt;br&gt;SCO4226 family nickel-binding protein&lt;br&gt;Location: 81600 - 81849" locus_tag="HS041_13095" class="clusterblast-orf" id="dummy-1_q8_0_all"  />
<polygon points="239,35 244,30 258,30 258,40 244,40 239,35 " style="fill:white; stroke-width:1; stroke:black; " description="&lt;b&gt;HS041_13100&lt;/b&gt;&lt;br&gt;cyclic nucleotide-binding domain-containing protein&lt;br&gt;Location: 81979 - 83398" locus_tag="HS041_13100" class="clusterblast-orf" id="dummy-1_q9_0_all"  />
<polygon points="258,35 263,30 280,30 280,40 263,40 258,35 " style="fill:white; stroke-width:1; stroke:black; " description="&lt;b&gt;HS041_13105&lt;/b&gt;&lt;br&gt;FAD-dependent oxidoreductase&lt;br&gt;Location: 83394 - 85059" locus_tag="HS041_13105" class="clusterblast-orf" id="dummy-1_q10_0_all"  />
<polygon points="282,35 287,30 296,30 296,40 287,40 282,35 " style="fill:white; stroke-width:1; stroke:black; " description="&lt;b&gt;HS041_13110&lt;/b&gt;&lt;br&gt;glutamine synthetase beta-grasp domain-containing protein&lt;br&gt;Location: 85189 - 86209" locus_tag="HS041_13110" class="clusterblast-orf" id="dummy-1_q11_0_all"  />
<polygon points="299,40 303,40 308,35 303,30 299,30 299,40 " style="fill:white; stroke-width:1; stroke:black; " description="&lt;b&gt;HS041_13115&lt;/b&gt;&lt;br&gt;ThuA domain-containing protein&lt;br&gt;Location: 86438 - 87113" locus_tag="HS041_13115" class="clusterblast-orf" id="dummy-1_q12_0_all"  />
<polygon points="312,35 317,30 320,30 320,40 317,40 312,35 " style="fill:white; stroke-width:1; stroke:black; " description="&lt;b&gt;HS041_13120&lt;/b&gt;&lt;br&gt;MerR family transcriptional regulator&lt;br&gt;Location: 87416 - 88067" locus_tag="HS041_13120" class="clusterblast-orf" id="dummy-1_q13_0_all"  />
<polygon points="321,35 326,30 345,30 345,40 326,40 321,35 " style="fill:white; stroke-width:1; stroke:black; " description="&lt;b&gt;HS041_13125&lt;/b&gt;&lt;br&gt;non-ribosomal peptide synthetase&lt;br&gt;Location: 88149 - 89928" locus_tag="HS041_13125" class="clusterblast-orf" id="dummy-1_q14_0_all"  />
<polygon points="345,35 350,30 414,30 414,40 350,40 345,35 " style="fill:#d81515; stroke-width:1; stroke:black; " description="&lt;b&gt;HS041_13130&lt;/b&gt;&lt;br&gt;SDR family NAD(P)-dependent oxidoreductase&lt;br&gt;Location: 89932 - 95128" locus_tag="HS041_13130" class="clusterblast-orf" id="dummy-1_q15_0_all"  />
<polygon points="415,35 420,30 461,30 461,40 420,40 415,35 " style="fill:white; stroke-width:1; stroke:black; " description="&lt;b&gt;HS041_13135&lt;/b&gt;&lt;br&gt;amino acid adenylation domain-containing protein&lt;br&gt;Location: 95175 - 98622" locus_tag="HS041_13135" class="clusterblast-orf" id="dummy-1_q16_0_all"  />
<polygon points="461,35 466,30 492,30 492,40 466,40 461,35 " style="fill:white; stroke-width:1; stroke:black; " description="&lt;b&gt;HS041_13140&lt;/b&gt;&lt;br&gt;lantibiotic dehydratase&lt;br&gt;Location: 98618 - 100949" locus_tag="HS041_13140" class="clusterblast-orf" id="dummy-1_q17_0_all"  />
<polygon points="493,35 498,30 503,30 503,40 498,40 493,35 " style="fill:white; stroke-width:1; stroke:black; " description="&lt;b&gt;HS041_13145&lt;/b&gt;&lt;br&gt;thioesterase&lt;br&gt;Location: 101025 - 101805" locus_tag="HS041_13145" class="clusterblast-orf" id="dummy-1_q18_0_all"  />
<polygon points="503,35 508,30 525,30 525,40 508,40 503,35 " style="fill:#d81515; stroke-width:1; stroke:black; " description="&lt;b&gt;HS041_13150&lt;/b&gt;&lt;br&gt;hypothetical protein&lt;br&gt;Location: 101807 - 103448" locus_tag="HS041_13150" class="clusterblast-orf" id="dummy-1_q19_0_all"  />
<polygon points="525,35 530,30 543,30 543,40 530,40 525,35 " style="fill:white; stroke-width:1; stroke:black; " description="&lt;b&gt;HS041_13155&lt;/b&gt;&lt;br&gt;hypothetical protein&lt;br&gt;Location: 103447 - 104782" locus_tag="HS041_13155" class="clusterblast-orf" id="dummy-1_q20_0_all"  />
<polygon points="543,35 548,30 557,30 557,40 548,40 543,35 " style="fill:white; stroke-width:1; stroke:black; " description="&lt;b&gt;HS041_13160&lt;/b&gt;&lt;br&gt;potassium transporter TrkA&lt;br&gt;Location: 104798 - 105848" locus_tag="HS041_13160" class="clusterblast-orf" id="dummy-1_q21_0_all"  />
<polygon points="564,40 567,35 564,30 564,40 " style="fill:#15d8d8; stroke-width:1; stroke:black; " description="&lt;b&gt;HS041_13165&lt;/b&gt;&lt;br&gt;MbtH family NRPS accessory protein&lt;br&gt;Location: 106390 - 106594" locus_tag="HS041_13165" class="clusterblast-orf" id="dummy-1_q22_0_all"  />
<polygon points="569,40 573,35 569,30 569,40 " style="fill:white; stroke-width:1; stroke:black; " description="&lt;b&gt;HS041_13170&lt;/b&gt;&lt;br&gt;hypothetical protein&lt;br&gt;Location: 106744 - 107074" locus_tag="HS041_13170" class="clusterblast-orf" id="dummy-1_q23_0_all"  />
<polygon points="573,35 578,30 584,30 584,40 578,40 573,35 " style="fill:white; stroke-width:1; stroke:black; " description="&lt;b&gt;HS041_13175&lt;/b&gt;&lt;br&gt;SAM-dependent methyltransferase&lt;br&gt;Location: 107045 - 107855" locus_tag="HS041_13175" class="clusterblast-orf" id="dummy-1_q24_0_all"  />
<polygon points="586,35 591,30 593,30 593,40 591,40 586,35 " style="fill:white; stroke-width:1; stroke:black; " description="&lt;b&gt;HS041_13180&lt;/b&gt;&lt;br&gt;CGNR zinc finger domain-containing protein&lt;br&gt;Location: 108005 - 108545" locus_tag="HS041_13180" class="clusterblast-orf" id="dummy-1_q25_0_all"  />
<polygon points="595,40 601,40 606,35 601,30 595,30 595,40 " style="fill:white; stroke-width:1; stroke:black; " description="&lt;b&gt;HS041_13185&lt;/b&gt;&lt;br&gt;SDR family NAD(P)-dependent oxidoreductase&lt;br&gt;Location: 108724 - 109567" locus_tag="HS041_13185" class="clusterblast-orf" id="dummy-1_q26_0_all"  />
<polygon points="609,40 619,40 624,35 619,30 609,30 609,40 " style="fill:white; stroke-width:1; stroke:black; " description="&lt;b&gt;HS041_13190&lt;/b&gt;&lt;br&gt;acetyl-CoA acetyltransferase&lt;br&gt;Location: 109781 - 110864" locus_tag="HS041_13190" class="clusterblast-orf" id="dummy-1_q27_0_all"  />
<polygon points="625,40 631,40 636,35 631,30 625,30 625,40 " style="fill:white; stroke-width:1; stroke:black; " description="&lt;b&gt;HS041_13195&lt;/b&gt;&lt;br&gt;MurR/RpiR family transcriptional regulator&lt;br&gt;Location: 110952 - 111822" locus_tag="HS041_13195" class="clusterblast-orf" id="dummy-1_q28_0_all"  />
<polygon points="637,40 642,40 647,35 642,30 637,30 637,40 " style="fill:white; stroke-width:1; stroke:black; " description="&lt;b&gt;HS041_13200&lt;/b&gt;&lt;br&gt;SIS domain-containing protein&lt;br&gt;Location: 111826 - 112585" locus_tag="HS041_13200" class="clusterblast-orf" id="dummy-1_q29_0_all"  />
<polygon points="647,40 661,40 666,35 661,30 647,30 647,40 " style="fill:white; stroke-width:1; stroke:black; " description="&lt;b&gt;HS041_13205&lt;/b&gt;&lt;br&gt;carbohydrate ABC transporter, N-acetylglucosamine/diacetylchitobiose-binding protein&lt;br&gt;Location: 112590 - 114021" locus_tag="HS041_13205" class="clusterblast-orf" id="dummy-1_q30_0_all"  />
<polygon points="668,40 675,40 680,35 675,30 668,30 668,40 " style="fill:white; stroke-width:1; stroke:black; " description="&lt;b&gt;HS041_13210&lt;/b&gt;&lt;br&gt;sugar ABC transporter permease&lt;br&gt;Location: 114210 - 115113" locus_tag="HS041_13210" class="clusterblast-orf" id="dummy-1_q31_0_all"  />
<polygon points="680,40 687,40 692,35 687,30 680,30 680,40 " style="fill:white; stroke-width:1; stroke:black; " description="&lt;b&gt;HS041_13215&lt;/b&gt;&lt;br&gt;carbohydrate ABC transporter permease&lt;br&gt;Location: 115112 - 116024" locus_tag="HS041_13215" class="clusterblast-orf" id="dummy-1_q32_0_all"  />
<polygon points="695,40 702,40 707,35 702,30 695,30 695,40 " style="fill:white; stroke-width:1; stroke:black; " description="&lt;b&gt;HS041_13220&lt;/b&gt;&lt;br&gt;chitosanase&lt;br&gt;Location: 116201 - 117092" locus_tag="HS041_13220" class="clusterblast-orf" id="dummy-1_q33_0_all"  />
<polygon points="708,35 713,30 716,30 716,40 713,40 708,35 " style="fill:white; stroke-width:1; stroke:black; " description="&lt;b&gt;HS041_13225&lt;/b&gt;&lt;br&gt;DNA alkylation repair protein&lt;br&gt;Location: 117189 - 117801" locus_tag="HS041_13225" class="clusterblast-orf" id="dummy-1_q34_0_all"  />
</g>
<g label="BGC0000984" description="BGC0000984_c1: delftibactin A/delftibactin B (10% of genes show similarity), NRP+Polyketide" class="clusterblast-cluster"  >
<text x="5" y="70" class="clusterblast-acc"  >
<a xlink:href="https://mibig.secondarymetabolites.org/go/BGC0000984/1" target="_blank">BGC0000984</a>: delftibactin A/delftibactin B                                                    (10% of genes show similarity), NRP+Polyketide</text>
<line x1="10" y1="85" x2="778.0" y2="85" style="stroke-width:1; stroke:grey; "  />
</g>
<g id="a1_000"  >
<polygon points="0,90 11,90 16,85 11,80 0,80 0,90 " style="fill:white; stroke-width:1; stroke:black; " description="&lt;b&gt;Daci_4764&lt;/b&gt;&lt;br&gt;efflux transporter, RND family, MFP subunit&lt;br&gt;Location: 58626 - 57409" locus_tag="Daci_4764" class="clusterblast-orf" id="dummy-1_h1_9_0"  />
</g>
<g id="a1_001"  >
<polygon points="16,90 52,90 57,85 52,80 16,80 16,90 " style="fill:white; stroke-width:1; stroke:black; " description="&lt;b&gt;Daci_4763&lt;/b&gt;&lt;br&gt;heavy metal efflux pump, CzcA family&lt;br&gt;Location: 57404 - 54315" locus_tag="Daci_4763" class="clusterblast-orf" id="dummy-1_h1_9_1"  />
</g>
<g id="a1_002"  >
<polygon points="57,90 57,90 62,85 57,80 57,80 57,90 " style="fill:white; stroke-width:1; stroke:black; " description="&lt;b&gt;Daci_4762&lt;/b&gt;&lt;br&gt;nitrogen regulatory protein P-II&lt;br&gt;Location: 54298 - 53963" locus_tag="Daci_4762" class="clusterblast-orf" id="dummy-1_h1_9_2"  />
</g>
<g id="a1_003"  >
<polygon points="77,90 79,90 84,85 79,80 77,80 77,90 " style="fill:white; stroke-width:1; stroke:black; " description="&lt;b&gt;Daci_4761&lt;/b&gt;&lt;br&gt;RNA polymerase, sigma-24 subunit, ECF subfamily&lt;br&gt;Location: 52815 - 52291" locus_tag="Daci_4761" class="clusterblast-orf" id="dummy-1_h1_9_3"  />
</g>
<g id="a1_004"  >
<polygon points="85,90 85,90 90,85 85,80 85,80 85,90 " style="fill:#15d8d8; stroke-width:1; stroke:black; " description="&lt;b&gt;Daci_4760&lt;/b&gt;&lt;br&gt;MbtH domain protein&lt;br&gt;Location: 52220 - 51855&lt;br&gt;&lt;br&gt;&lt;b&gt;BlastP hit with HS041_13165&lt;/b&gt;&lt;br&gt;Percentage identity: 56&lt;br&gt;Percentage coverage: 91&lt;br&gt;BLAST bit score: 75&lt;br&gt;E-value: 5e-19" locus_tag="Daci_4760" class="clusterblast-orf" id="dummy-1_h1_9_4"  />
</g>
<g id="a1_005"  >
<polygon points="90,90 95,90 100,85 95,80 90,80 90,90 " style="fill:white; stroke-width:1; stroke:black; " description="&lt;b&gt;Daci_4759&lt;/b&gt;&lt;br&gt;Thioesterase&lt;br&gt;Location: 51849 - 51106" locus_tag="Daci_4759" class="clusterblast-orf" id="dummy-1_h1_9_5"  />
</g>
<g id="a1_006"  >
<polygon points="99,90 103,90 108,85 103,80 99,80 99,90 " style="fill:white; stroke-width:1; stroke:black; " description="&lt;b&gt;Daci_4758&lt;/b&gt;&lt;br&gt;4'-phosphopantetheinyl transferase&lt;br&gt;Location: 51128 - 50439" locus_tag="Daci_4758" class="clusterblast-orf" id="dummy-1_h1_9_6"  />
</g>
<g id="a1_007"  >
<polygon points="108,90 117,90 122,85 117,80 108,80 108,90 " style="fill:white; stroke-width:1; stroke:black; " description="&lt;b&gt;Daci_4757&lt;/b&gt;&lt;br&gt;Taurine catabolism dioxygenase TauD/TfdA&lt;br&gt;Location: 50442 - 49453" locus_tag="Daci_4757" class="clusterblast-orf" id="dummy-1_h1_9_7"  />
</g>
<g id="a1_008"  >
<polygon points="122,90 188,90 193,85 188,80 122,80 122,90 " style="fill:white; stroke-width:1; stroke:black; " description="&lt;b&gt;Daci_4756&lt;/b&gt;&lt;br&gt;amino acid adenylation domain protein&lt;br&gt;Location: 49432 - 44063" locus_tag="Daci_4756" class="clusterblast-orf" id="dummy-1_h1_9_8"  />
</g>
<g id="a1_009"  >
<polygon points="193,90 251,90 256,85 251,80 193,80 193,90 " style="fill:#d81515; stroke-width:1; stroke:black; " description="&lt;b&gt;Daci_4755&lt;/b&gt;&lt;br&gt;Beta-ketoacyl synthase&lt;br&gt;Location: 44063 - 39381&lt;br&gt;&lt;br&gt;&lt;b&gt;BlastP hit with HS041_13150&lt;/b&gt;&lt;br&gt;Percentage identity: 47&lt;br&gt;Percentage coverage: 100&lt;br&gt;BLAST bit score: 431&lt;br&gt;E-value: 4.64e-136" locus_tag="Daci_4755" class="clusterblast-orf" id="dummy-1_h1_9_9"  />
</g>
<g id="a1_0010"  >
<polygon points="255,90 383,90 388,85 383,80 255,80 255,90 " style="fill:white; stroke-width:1; stroke:black; " description="&lt;b&gt;Daci_4754&lt;/b&gt;&lt;br&gt;amino acid adenylation domain protein&lt;br&gt;Location: 39418 - 29423" locus_tag="Daci_4754" class="clusterblast-orf" id="dummy-1_h1_9_10"  />
</g>
<g id="a1_0011"  >
<polygon points="388,90 630,90 635,85 630,80 388,80 388,90 " style="fill:white; stroke-width:1; stroke:black; " description="&lt;b&gt;Daci_4753&lt;/b&gt;&lt;br&gt;amino acid adenylation domain protein&lt;br&gt;Location: 29423 - 10893" locus_tag="Daci_4753" class="clusterblast-orf" id="dummy-1_h1_9_11"  />
</g>
<g id="a1_0012"  >
<polygon points="637,90 664,90 669,85 664,80 637,80 637,90 " style="fill:white; stroke-width:1; stroke:black; " description="&lt;b&gt;Daci_4752&lt;/b&gt;&lt;br&gt;TonB-dependent siderophore receptor&lt;br&gt;Location: 10711 - 8312" locus_tag="Daci_4752" class="clusterblast-orf" id="dummy-1_h1_9_12"  />
</g>
<g id="a1_0013"  >
<polygon points="670,85 675,80 684,80 684,90 675,90 670,85 " style="fill:white; stroke-width:1; stroke:black; " description="&lt;b&gt;Daci_4751&lt;/b&gt;&lt;br&gt;anti-FecI sigma factor, FecR&lt;br&gt;Location: 8235 - 7201" locus_tag="Daci_4751" class="clusterblast-orf" id="dummy-1_h1_9_13"  />
</g>
<g id="a1_0014"  >
<polygon points="684,85 689,80 692,80 692,90 689,90 684,85 " style="fill:white; stroke-width:1; stroke:black; " description="&lt;b&gt;Daci_4750&lt;/b&gt;&lt;br&gt;RNA polymerase, sigma-24 subunit, ECF subfamily&lt;br&gt;Location: 7188 - 6589" locus_tag="Daci_4750" class="clusterblast-orf" id="dummy-1_h1_9_14"  />
</g>
<g id="a1_0015"  >
<polygon points="695,85 700,80 712,80 712,90 700,90 695,85 " style="fill:white; stroke-width:1; stroke:black; " description="&lt;b&gt;Daci_4749&lt;/b&gt;&lt;br&gt;L-lysine 6-monooxygenase (NADPH)&lt;br&gt;Location: 6376 - 5078" locus_tag="Daci_4749" class="clusterblast-orf" id="dummy-1_h1_9_15"  />
</g>
<g id="a1_0016"  >
<polygon points="712,85 717,80 728,80 728,90 717,90 712,85 " style="fill:white; stroke-width:1; stroke:black; " description="&lt;b&gt;Daci_4748&lt;/b&gt;&lt;br&gt;conserved hypothetical protein&lt;br&gt;Location: 5066 - 3864" locus_tag="Daci_4748" class="clusterblast-orf" id="dummy-1_h1_9_16"  />
</g>
<g id="a1_0017"  >
<polygon points="729,85 734,80 742,80 742,90 734,90 729,85 " style="fill:white; stroke-width:1; stroke:black; " description="&lt;b&gt;Daci_4747&lt;/b&gt;&lt;br&gt;Alpha/beta hydrolase fold-3 domain protein&lt;br&gt;Location: 3804 - 2839" locus_tag="Daci_4747" class="clusterblast-orf" id="dummy-1_h1_9_17"  />
</g>
<g id="a1_0018"  >
<polygon points="745,90 763,90 768,85 763,80 745,80 745,90 " style="fill:white; stroke-width:1; stroke:black; " description="&lt;b&gt;Daci_4746&lt;/b&gt;&lt;br&gt;cyclic peptide transporter&lt;br&gt;Location: 2593 - 878" locus_tag="Daci_4746" class="clusterblast-orf" id="dummy-1_h1_9_18"  />
</g>
<g id="a1_0019"  >
<polygon points="768,90 775,90 780,85 775,80 768,80 768,90 " style="fill:white; stroke-width:1; stroke:black; " description="&lt;b&gt;Daci_4745&lt;/b&gt;&lt;br&gt;conserved hypothetical protein&lt;br&gt;Location: 856 - 2" locus_tag="Daci_4745" class="clusterblast-orf" id="dummy-1_h1_9_19"  />
</g>
</svg>
