<svg xmlns="http://www.w3.org/2000/svg" xmlns:xlink="http://www.w3.org/1999/xlink" version="1.1" x="0" y="0" height="230" width="800" viewBox="0 0 800 230" preserveAspectRatio="none"  >
<g label="Query sequence" class="clusterblast-cluster"  >
<text x="5" y="20" class="clusterblast-acc"  >
Query sequence</text>
<line x1="10" y1="35" x2="778.0" y2="35" style="stroke-width:1; stroke:grey; "  />
<polygon points="239,35 244,30 248,30 248,40 244,40 239,35 " style="fill:white; stroke-width:1; stroke:black; " description="&lt;b&gt;HS041_36530&lt;/b&gt;&lt;br&gt;LysR family transcriptional regulator&lt;br&gt;Location: 418494 - 419457" locus_tag="HS041_36530" class="clusterblast-orf" id="dummy-3_q0_0_all"  />
<polygon points="252,40 260,40 265,35 260,30 252,30 252,40 " style="fill:#d81515; stroke-width:1; stroke:black; " description="&lt;b&gt;HS041_36535&lt;/b&gt;&lt;br&gt;arginine deiminase&lt;br&gt;Location: 419904 - 421152" locus_tag="HS041_36535" class="clusterblast-orf" id="dummy-3_q1_0_all"  />
<polygon points="265,40 270,40 275,35 270,30 265,30 265,40 " style="fill:#15d815; stroke-width:1; stroke:black; " description="&lt;b&gt;HS041_36540&lt;/b&gt;&lt;br&gt;ornithine carbamoyltransferase&lt;br&gt;Location: 421178 - 422183" locus_tag="HS041_36540" class="clusterblast-orf" id="dummy-3_q2_0_all"  />
<polygon points="275,35 280,30 282,30 282,40 280,40 275,35 " style="fill:#1515d8; stroke-width:1; stroke:black; " description="&lt;b&gt;HS041_36545&lt;/b&gt;&lt;br&gt;thioesterase&lt;br&gt;Location: 422231 - 422939" locus_tag="HS041_36545" class="clusterblast-orf" id="dummy-3_q3_0_all"  />
<polygon points="282,35 287,30 297,30 297,40 287,40 282,35 " style="fill:white; stroke-width:1; stroke:black; " description="&lt;b&gt;HS041_36550&lt;/b&gt;&lt;br&gt;MFS transporter&lt;br&gt;Location: 422971 - 424405" locus_tag="HS041_36550" class="clusterblast-orf" id="dummy-3_q4_0_all"  />
<polygon points="297,35 302,30 305,30 305,40 302,40 297,35 " style="fill:#d815d8; stroke-width:1; stroke:black; " description="&lt;b&gt;HS041_36555&lt;/b&gt;&lt;br&gt;methyltransferase domain-containing protein&lt;br&gt;Location: 424476 - 425313" locus_tag="HS041_36555" class="clusterblast-orf" id="dummy-3_q5_0_all"  />
<polygon points="306,35 311,30 313,30 313,40 311,40 306,35 " style="fill:white; stroke-width:1; stroke:black; " description="&lt;b&gt;HS041_36560&lt;/b&gt;&lt;br&gt;class I SAM-dependent methyltransferase&lt;br&gt;Location: 425339 - 426083" locus_tag="HS041_36560" class="clusterblast-orf" id="dummy-3_q6_0_all"  />
<polygon points="313,35 318,30 321,30 321,40 318,40 313,35 " style="fill:white; stroke-width:1; stroke:black; " description="&lt;b&gt;HS041_36565&lt;/b&gt;&lt;br&gt;class I SAM-dependent methyltransferase&lt;br&gt;Location: 426079 - 426922" locus_tag="HS041_36565" class="clusterblast-orf" id="dummy-3_q7_0_all"  />
<polygon points="321,35 326,30 338,30 338,40 326,40 321,35 " style="fill:white; stroke-width:1; stroke:black; " description="&lt;b&gt;HS041_36570&lt;/b&gt;&lt;br&gt;hypothetical protein&lt;br&gt;Location: 426937 - 428644" locus_tag="HS041_36570" class="clusterblast-orf" id="dummy-3_q8_0_all"  />
<polygon points="338,35 342,30 342,40 338,35 " style="fill:white; stroke-width:1; stroke:black; " description="&lt;b&gt;HS041_36575&lt;/b&gt;&lt;br&gt;hypothetical protein&lt;br&gt;Location: 428640 - 429072" locus_tag="HS041_36575" class="clusterblast-orf" id="dummy-3_q9_0_all"  />
<polygon points="342,35 347,30 357,30 357,40 347,40 342,35 " style="fill:white; stroke-width:1; stroke:black; " description="&lt;b&gt;HS041_36580&lt;/b&gt;&lt;br&gt;hypothetical protein&lt;br&gt;Location: 429068 - 430640" locus_tag="HS041_36580" class="clusterblast-orf" id="dummy-3_q10_0_all"  />
<polygon points="359,40 362,40 367,35 362,30 359,30 359,40 " style="fill:white; stroke-width:1; stroke:black; " description="&lt;b&gt;HS041_36585&lt;/b&gt;&lt;br&gt;serine/threonine protein kinase&lt;br&gt;Location: 430794 - 431598" locus_tag="HS041_36585" class="clusterblast-orf" id="dummy-3_q11_0_all"  />
<polygon points="367,35 372,30 379,30 379,40 372,40 367,35 " style="fill:white; stroke-width:1; stroke:black; " description="&lt;b&gt;HS041_36590&lt;/b&gt;&lt;br&gt;MFS transporter&lt;br&gt;Location: 431587 - 432871" locus_tag="HS041_36590" class="clusterblast-orf" id="dummy-3_q12_0_all"  />
<polygon points="380,35 382,30 382,40 380,35 " style="fill:#d8d815; stroke-width:1; stroke:black; " description="&lt;b&gt;HS041_36595&lt;/b&gt;&lt;br&gt;MbtH family NRPS accessory protein&lt;br&gt;Location: 432924 - 433152" locus_tag="HS041_36595" class="clusterblast-orf" id="dummy-3_q13_0_all"  />
<polygon points="382,35 387,30 394,30 394,40 387,40 382,35 " style="fill:white; stroke-width:1; stroke:black; " description="&lt;b&gt;HS041_36600&lt;/b&gt;&lt;br&gt;VCBS repeat-containing protein&lt;br&gt;Location: 433179 - 434334" locus_tag="HS041_36600" class="clusterblast-orf" id="dummy-3_q14_0_all"  />
<polygon points="394,35 399,30 400,30 400,40 399,40 394,35 " style="fill:white; stroke-width:1; stroke:black; " description="&lt;b&gt;HS041_36605&lt;/b&gt;&lt;br&gt;hypothetical protein&lt;br&gt;Location: 434330 - 434945" locus_tag="HS041_36605" class="clusterblast-orf" id="dummy-3_q15_0_all"  />
<polygon points="400,35 405,30 412,30 412,40 405,40 400,35 " style="fill:white; stroke-width:1; stroke:black; " description="&lt;b&gt;HS041_36610&lt;/b&gt;&lt;br&gt;cytochrome P450&lt;br&gt;Location: 434956 - 436270" locus_tag="HS041_36610" class="clusterblast-orf" id="dummy-3_q16_0_all"  />
<polygon points="412,35 417,30 422,30 422,40 417,40 412,35 " style="fill:white; stroke-width:1; stroke:black; " description="&lt;b&gt;HS041_36615&lt;/b&gt;&lt;br&gt;methyltransferase&lt;br&gt;Location: 436266 - 437283" locus_tag="HS041_36615" class="clusterblast-orf" id="dummy-3_q17_0_all"  />
<polygon points="422,35 427,30 466,30 466,40 427,40 422,35 " style="fill:white; stroke-width:1; stroke:black; " description="&lt;b&gt;HS041_36620&lt;/b&gt;&lt;br&gt;amino acid adenylation domain-containing protein&lt;br&gt;Location: 437279 - 441701" locus_tag="HS041_36620" class="clusterblast-orf" id="dummy-3_q18_0_all"  />
<polygon points="466,35 471,30 494,30 494,40 471,40 466,35 " style="fill:#15d8d8; stroke-width:1; stroke:black; " description="&lt;b&gt;HS041_36625&lt;/b&gt;&lt;br&gt;acyltransferase domain-containing protein&lt;br&gt;Location: 441697 - 444619" locus_tag="HS041_36625" class="clusterblast-orf" id="dummy-3_q19_0_all"  />
<polygon points="494,35 499,30 540,30 540,40 499,40 494,35 " style="fill:white; stroke-width:1; stroke:black; " description="&lt;b&gt;HS041_36630&lt;/b&gt;&lt;br&gt;AMP-binding protein&lt;br&gt;Location: 444624 - 449361" locus_tag="HS041_36630" class="clusterblast-orf" id="dummy-3_q20_0_all"  />
</g>
<g label="BGC0001370" description="BGC0001370_c1: lipopeptide 8D1-1/lipopeptide 8D1-2 (6% of genes show similarity), NRP" class="clusterblast-cluster"  >
<text x="5" y="70" class="clusterblast-acc"  >
<a xlink:href="https://mibig.secondarymetabolites.org/go/BGC0001370/1" target="_blank">BGC0001370</a>: lipopeptide 8D1-1/lipopeptide 8D1-2                                              (6% of genes show similarity), NRP</text>
<line x1="10" y1="85" x2="778.0" y2="85" style="stroke-width:1; stroke:grey; "  />
</g>
<g id="a3_000"  >
<polygon points="0,90 0,90 5,85 0,80 0,80 0,90 " style="fill:#d81515; stroke-width:1; stroke:black; " description="&lt;b&gt;ALV82364.1&lt;/b&gt;&lt;br&gt;arginine deiminase&lt;br&gt;Location: 79794 - 79252&lt;br&gt;&lt;br&gt;&lt;b&gt;BlastP hit with HS041_36535&lt;/b&gt;&lt;br&gt;Percentage identity: 58&lt;br&gt;Percentage coverage: 43&lt;br&gt;BLAST bit score: 211&lt;br&gt;E-value: 6.99e-67" locus_tag="ALV82364.1" class="clusterblast-orf" id="dummy-3_h3_7_0"  />
</g>
<g id="a3_001"  >
<polygon points="5,90 10,90 15,85 10,80 5,80 5,90 " style="fill:#15d815; stroke-width:1; stroke:black; " description="&lt;b&gt;ALV82349.1&lt;/b&gt;&lt;br&gt;ornithine carbamoyltransferase&lt;br&gt;Location: 79229 - 78228&lt;br&gt;&lt;br&gt;&lt;b&gt;BlastP hit with HS041_36540&lt;/b&gt;&lt;br&gt;Percentage identity: 66&lt;br&gt;Percentage coverage: 100&lt;br&gt;BLAST bit score: 438&lt;br&gt;E-value: 5.86e-155" locus_tag="ALV82349.1" class="clusterblast-orf" id="dummy-3_h3_7_1"  />
</g>
<g id="a3_002"  >
<polygon points="15,90 19,90 24,85 19,80 15,80 15,90 " style="fill:white; stroke-width:1; stroke:black; " description="&lt;b&gt;ALV82367.1&lt;/b&gt;&lt;br&gt;carbamate kinase&lt;br&gt;Location: 78224 - 77301" locus_tag="ALV82367.1" class="clusterblast-orf" id="dummy-3_h3_7_2"  />
</g>
<g id="a3_003"  >
<polygon points="25,90 29,90 34,85 29,80 25,80 25,90 " style="fill:white; stroke-width:1; stroke:black; " description="&lt;b&gt;ALV82379.1&lt;/b&gt;&lt;br&gt;stress-inducible protein&lt;br&gt;Location: 77176 - 76256" locus_tag="ALV82379.1" class="clusterblast-orf" id="dummy-3_h3_7_3"  />
</g>
<g id="a3_004"  >
<polygon points="38,90 38,90 43,85 38,80 38,80 38,90 " style="fill:white; stroke-width:1; stroke:black; " description="&lt;b&gt;ALV82368.1&lt;/b&gt;&lt;br&gt;membrane protein&lt;br&gt;Location: 75875 - 75375" locus_tag="ALV82368.1" class="clusterblast-orf" id="dummy-3_h3_7_4"  />
</g>
<g id="a3_005"  >
<polygon points="44,90 48,90 53,85 48,80 44,80 44,90 " style="fill:white; stroke-width:1; stroke:black; " description="&lt;b&gt;ALV82357.1&lt;/b&gt;&lt;br&gt;stress-inducible protein&lt;br&gt;Location: 75243 - 74317" locus_tag="ALV82357.1" class="clusterblast-orf" id="dummy-3_h3_7_5"  />
</g>
<g id="a3_006"  >
<polygon points="53,90 58,90 63,85 58,80 53,80 53,90 " style="fill:white; stroke-width:1; stroke:black; " description="&lt;b&gt;ALV82389.1&lt;/b&gt;&lt;br&gt;alcohol dehydrogenase&lt;br&gt;Location: 74278 - 73256" locus_tag="ALV82389.1" class="clusterblast-orf" id="dummy-3_h3_7_6"  />
</g>
<g id="a3_007"  >
<polygon points="63,90 67,90 72,85 67,80 63,80 63,90 " style="fill:white; stroke-width:1; stroke:black; " description="&lt;b&gt;ALV82354.1&lt;/b&gt;&lt;br&gt;universal stress protein&lt;br&gt;Location: 73250 - 72387" locus_tag="ALV82354.1" class="clusterblast-orf" id="dummy-3_h3_7_7"  />
</g>
<g id="a3_008"  >
<polygon points="75,90 76,85 75,80 75,90 " style="fill:white; stroke-width:1; stroke:black; " description="&lt;b&gt;ALV82373.1&lt;/b&gt;&lt;br&gt;hypothetical protein&lt;br&gt;Location: 72084 - 71944" locus_tag="ALV82373.1" class="clusterblast-orf" id="dummy-3_h3_7_8"  />
</g>
<g id="a3_009"  >
<polygon points="76,90 79,90 84,85 79,80 76,80 76,90 " style="fill:white; stroke-width:1; stroke:black; " description="&lt;b&gt;ALV82376.1&lt;/b&gt;&lt;br&gt;hypothetical protein&lt;br&gt;Location: 71931 - 71200" locus_tag="ALV82376.1" class="clusterblast-orf" id="dummy-3_h3_7_9"  />
</g>
<g id="a3_0010"  >
<polygon points="84,90 84,90 89,85 84,80 84,80 84,90 " style="fill:white; stroke-width:1; stroke:black; " description="&lt;b&gt;ALV82358.1&lt;/b&gt;&lt;br&gt;flavodoxin&lt;br&gt;Location: 71183 - 70677" locus_tag="ALV82358.1" class="clusterblast-orf" id="dummy-3_h3_7_10"  />
</g>
<g id="a3_0011"  >
<polygon points="90,85 95,80 95,80 95,90 95,90 90,85 " style="fill:white; stroke-width:1; stroke:black; " description="&lt;b&gt;ALV82378.1&lt;/b&gt;&lt;br&gt;hypothetical protein&lt;br&gt;Location: 70583 - 70038" locus_tag="ALV82378.1" class="clusterblast-orf" id="dummy-3_h3_7_11"  />
</g>
<g id="a3_0012"  >
<polygon points="99,85 104,80 104,80 104,90 104,90 99,85 " style="fill:white; stroke-width:1; stroke:black; " description="&lt;b&gt;ALV82362.1&lt;/b&gt;&lt;br&gt;membrane protein&lt;br&gt;Location: 69662 - 69081" locus_tag="ALV82362.1" class="clusterblast-orf" id="dummy-3_h3_7_12"  />
</g>
<g id="a3_0013"  >
<polygon points="107,90 107,90 112,85 107,80 107,80 107,90 " style="fill:white; stroke-width:1; stroke:black; " description="&lt;b&gt;ALV82352.1&lt;/b&gt;&lt;br&gt;DNA-binding protein&lt;br&gt;Location: 68770 - 68240" locus_tag="ALV82352.1" class="clusterblast-orf" id="dummy-3_h3_7_13"  />
</g>
<g id="a3_0014"  >
<polygon points="115,90 118,85 115,80 115,90 " style="fill:white; stroke-width:1; stroke:black; " description="&lt;b&gt;ALV82385.1&lt;/b&gt;&lt;br&gt;hypothetical protein&lt;br&gt;Location: 67949 - 67632" locus_tag="ALV82385.1" class="clusterblast-orf" id="dummy-3_h3_7_14"  />
</g>
<g id="a3_0015"  >
<polygon points="119,90 121,85 119,80 119,90 " style="fill:white; stroke-width:1; stroke:black; " description="&lt;b&gt;ALV82381.1&lt;/b&gt;&lt;br&gt;acyl carrier protein&lt;br&gt;Location: 67612 - 67367" locus_tag="ALV82381.1" class="clusterblast-orf" id="dummy-3_h3_7_15"  />
</g>
<g id="a3_0016"  >
<polygon points="121,90 128,90 133,85 128,80 121,80 121,90 " style="fill:white; stroke-width:1; stroke:black; " description="&lt;b&gt;ALV82387.1&lt;/b&gt;&lt;br&gt;3-oxoacyl-[acyl-carrier-protein] synthase, KASII&lt;br&gt;Location: 67370 - 66150" locus_tag="ALV82387.1" class="clusterblast-orf" id="dummy-3_h3_7_16"  />
</g>
<g id="a3_0017"  >
<polygon points="134,90 146,90 151,85 146,80 134,80 134,90 " style="fill:white; stroke-width:1; stroke:black; " description="&lt;b&gt;ALV82371.1&lt;/b&gt;&lt;br&gt;acyl-CoA oxidase&lt;br&gt;Location: 66051 - 64324" locus_tag="ALV82371.1" class="clusterblast-orf" id="dummy-3_h3_7_17"  />
</g>
<g id="a3_0018"  >
<polygon points="151,90 155,90 160,85 155,80 151,80 151,90 " style="fill:white; stroke-width:1; stroke:black; " description="&lt;b&gt;ALV82391.1&lt;/b&gt;&lt;br&gt;3-oxoacyl-[acyl carrier protein] synthase, KASIII&lt;br&gt;Location: 64327 - 63341" locus_tag="ALV82391.1" class="clusterblast-orf" id="dummy-3_h3_7_18"  />
</g>
<g id="a3_0019"  >
<polygon points="161,90 168,90 173,85 168,80 161,80 161,90 " style="fill:white; stroke-width:1; stroke:black; " description="&lt;b&gt;ALV82350.1&lt;/b&gt;&lt;br&gt;salicylate hydroxylase&lt;br&gt;Location: 63310 - 62093" locus_tag="ALV82350.1" class="clusterblast-orf" id="dummy-3_h3_7_19"  />
</g>
<g id="a3_0020"  >
<polygon points="173,90 176,90 181,85 176,80 173,80 173,90 " style="fill:white; stroke-width:1; stroke:black; " description="&lt;b&gt;ALV82380.1&lt;/b&gt;&lt;br&gt;secreted protein&lt;br&gt;Location: 62039 - 61236" locus_tag="ALV82380.1" class="clusterblast-orf" id="dummy-3_h3_7_20"  />
</g>
<g id="a3_0021"  >
<polygon points="183,90 188,90 193,85 188,80 183,80 183,90 " style="fill:white; stroke-width:1; stroke:black; " description="&lt;b&gt;ALV82360.1&lt;/b&gt;&lt;br&gt;oxygenase&lt;br&gt;Location: 61053 - 60052" locus_tag="ALV82360.1" class="clusterblast-orf" id="dummy-3_h3_7_21"  />
</g>
<g id="a3_0022"  >
<polygon points="193,90 206,90 211,85 206,80 193,80 193,90 " style="fill:white; stroke-width:1; stroke:black; " description="&lt;b&gt;ALV82355.1&lt;/b&gt;&lt;br&gt;ABC transporter&lt;br&gt;Location: 60012 - 58162" locus_tag="ALV82355.1" class="clusterblast-orf" id="dummy-3_h3_7_22"  />
</g>
<g id="a3_0023"  >
<polygon points="212,85 217,80 220,80 220,90 217,90 212,85 " style="fill:white; stroke-width:1; stroke:black; " description="&lt;b&gt;ALV82370.1&lt;/b&gt;&lt;br&gt;phosphotransferase&lt;br&gt;Location: 58094 - 57201" locus_tag="ALV82370.1" class="clusterblast-orf" id="dummy-3_h3_7_23"  />
</g>
<g id="a3_0024"  >
<polygon points="220,85 225,80 228,80 228,90 225,90 220,85 " style="fill:white; stroke-width:1; stroke:black; " description="&lt;b&gt;ALV82377.1&lt;/b&gt;&lt;br&gt;hydrolase&lt;br&gt;Location: 57189 - 56371" locus_tag="ALV82377.1" class="clusterblast-orf" id="dummy-3_h3_7_24"  />
</g>
<g id="a3_0025"  >
<polygon points="229,85 234,80 299,80 299,90 234,90 229,85 " style="fill:white; stroke-width:1; stroke:black; " description="&lt;b&gt;ALV82388.1&lt;/b&gt;&lt;br&gt;CDA peptide synthetase III&lt;br&gt;Location: 56366 - 49143" locus_tag="ALV82388.1" class="clusterblast-orf" id="dummy-3_h3_7_25"  />
</g>
<g id="a3_0026"  >
<polygon points="299,85 304,80 406,80 406,90 304,90 299,85 " style="fill:white; stroke-width:1; stroke:black; " description="&lt;b&gt;ALV82384.1&lt;/b&gt;&lt;br&gt;CDA peptide synthetase II&lt;br&gt;Location: 49158 - 38245" locus_tag="ALV82384.1" class="clusterblast-orf" id="dummy-3_h3_7_26"  />
</g>
<g id="a3_0027"  >
<polygon points="406,85 411,80 620,80 620,90 411,90 406,85 " style="fill:white; stroke-width:1; stroke:black; " description="&lt;b&gt;ALV82356.1&lt;/b&gt;&lt;br&gt;CDA peptide synthetase I&lt;br&gt;Location: 38248 - 16367" locus_tag="ALV82356.1" class="clusterblast-orf" id="dummy-3_h3_7_27"  />
</g>
<g id="a3_0028"  >
<polygon points="619,90 622,85 619,80 619,90 " style="fill:white; stroke-width:1; stroke:black; " description="&lt;b&gt;ALV82390.1&lt;/b&gt;&lt;br&gt;hypothetical protein&lt;br&gt;Location: 16393 - 16163" locus_tag="ALV82390.1" class="clusterblast-orf" id="dummy-3_h3_7_28"  />
</g>
<g id="a3_0029"  >
<polygon points="623,90 628,90 633,85 628,80 623,80 623,90 " style="fill:white; stroke-width:1; stroke:black; " description="&lt;b&gt;ALV82353.1&lt;/b&gt;&lt;br&gt;4-hydroxyphenylpyruvic acid dioxygenase&lt;br&gt;Location: 16054 - 14981" locus_tag="ALV82353.1" class="clusterblast-orf" id="dummy-3_h3_7_29"  />
</g>
<g id="a3_0030"  >
<polygon points="633,90 640,90 645,85 640,80 633,80 633,90 " style="fill:white; stroke-width:1; stroke:black; " description="&lt;b&gt;ALV82386.1&lt;/b&gt;&lt;br&gt;putative oxidase&lt;br&gt;Location: 14984 - 13785" locus_tag="ALV82386.1" class="clusterblast-orf" id="dummy-3_h3_7_30"  />
</g>
<g id="a3_0031"  >
<polygon points="645,90 653,90 658,85 653,80 645,80 645,90 " style="fill:white; stroke-width:1; stroke:black; " description="&lt;b&gt;ALV82375.1&lt;/b&gt;&lt;br&gt;putative aminotransferase&lt;br&gt;Location: 13788 - 12463" locus_tag="ALV82375.1" class="clusterblast-orf" id="dummy-3_h3_7_31"  />
</g>
<g id="a3_0032"  >
<polygon points="658,85 663,80 664,80 664,90 663,90 658,85 " style="fill:white; stroke-width:1; stroke:black; " description="&lt;b&gt;ALV82366.1&lt;/b&gt;&lt;br&gt;regulator&lt;br&gt;Location: 12448 - 11780" locus_tag="ALV82366.1" class="clusterblast-orf" id="dummy-3_h3_7_32"  />
</g>
<g id="a3_0033"  >
<polygon points="665,85 670,80 681,80 681,90 670,90 665,85 " style="fill:white; stroke-width:1; stroke:black; " description="&lt;b&gt;ALV82363.1&lt;/b&gt;&lt;br&gt;two component sensor kinase&lt;br&gt;Location: 11761 - 10046" locus_tag="ALV82363.1" class="clusterblast-orf" id="dummy-3_h3_7_33"  />
</g>
<g id="a3_0034"  >
<polygon points="681,90 683,85 681,80 681,90 " style="fill:white; stroke-width:1; stroke:black; " description="&lt;b&gt;ALV82374.1&lt;/b&gt;&lt;br&gt;hypothetical protein&lt;br&gt;Location: 10051 - 9932" locus_tag="ALV82374.1" class="clusterblast-orf" id="dummy-3_h3_7_34"  />
</g>
<g id="a3_0035"  >
<polygon points="683,90 687,90 692,85 687,80 683,80 683,90 " style="fill:white; stroke-width:1; stroke:black; " description="&lt;b&gt;ALV82359.1&lt;/b&gt;&lt;br&gt;ABC transporter ATP-binding protein&lt;br&gt;Location: 9909 - 8956" locus_tag="ALV82359.1" class="clusterblast-orf" id="dummy-3_h3_7_35"  />
</g>
<g id="a3_0036"  >
<polygon points="692,90 695,90 700,85 695,80 692,80 692,90 " style="fill:white; stroke-width:1; stroke:black; " description="&lt;b&gt;ALV82348.1&lt;/b&gt;&lt;br&gt;ABC transporter&lt;br&gt;Location: 8910 - 8152" locus_tag="ALV82348.1" class="clusterblast-orf" id="dummy-3_h3_7_36"  />
</g>
<g id="a3_0037"  >
<polygon points="702,90 706,85 702,80 702,90 " style="fill:white; stroke-width:1; stroke:black; " description="&lt;b&gt;ALV82372.1&lt;/b&gt;&lt;br&gt;putative secreted protein&lt;br&gt;Location: 7970 - 7515" locus_tag="ALV82372.1" class="clusterblast-orf" id="dummy-3_h3_7_37"  />
</g>
<g id="a3_0038"  >
<polygon points="707,90 710,90 715,85 710,80 707,80 707,90 " style="fill:white; stroke-width:1; stroke:black; " description="&lt;b&gt;ALV82369.1&lt;/b&gt;&lt;br&gt;prephenate dehydrogenase&lt;br&gt;Location: 7434 - 6577" locus_tag="ALV82369.1" class="clusterblast-orf" id="dummy-3_h3_7_38"  />
</g>
<g id="a3_0039"  >
<polygon points="716,90 720,85 716,80 716,90 " style="fill:white; stroke-width:1; stroke:black; " description="&lt;b&gt;ALV82351.1&lt;/b&gt;&lt;br&gt;putative secreted protein&lt;br&gt;Location: 6504 - 6073" locus_tag="ALV82351.1" class="clusterblast-orf" id="dummy-3_h3_7_39"  />
</g>
<g id="a3_0040"  >
<polygon points="722,90 729,90 734,85 729,80 722,80 722,90 " style="fill:white; stroke-width:1; stroke:black; " description="&lt;b&gt;ALV82365.1&lt;/b&gt;&lt;br&gt;lipase&lt;br&gt;Location: 5842 - 4676" locus_tag="ALV82365.1" class="clusterblast-orf" id="dummy-3_h3_7_40"  />
</g>
<g id="a3_0041"  >
<polygon points="735,90 737,85 735,80 735,90 " style="fill:#d8d815; stroke-width:1; stroke:black; " description="&lt;b&gt;ALV82382.1&lt;/b&gt;&lt;br&gt;putative mbtH protein&lt;br&gt;Location: 4545 - 4330&lt;br&gt;&lt;br&gt;&lt;b&gt;BlastP hit with HS041_36595&lt;/b&gt;&lt;br&gt;Percentage identity: 52&lt;br&gt;Percentage coverage: 67&lt;br&gt;BLAST bit score: 64&lt;br&gt;E-value: 3.44e-15" locus_tag="ALV82382.1" class="clusterblast-orf" id="dummy-3_h3_7_41"  />
</g>
<g id="a3_0042"  >
<polygon points="738,85 743,80 754,80 754,90 743,90 738,85 " style="fill:white; stroke-width:1; stroke:black; " description="&lt;b&gt;ALV82361.1&lt;/b&gt;&lt;br&gt;regulator&lt;br&gt;Location: 4263 - 2626" locus_tag="ALV82361.1" class="clusterblast-orf" id="dummy-3_h3_7_42"  />
</g>
<g id="a3_0043"  >
<polygon points="764,85 769,80 780,80 780,90 769,90 764,85 " style="fill:white; stroke-width:1; stroke:black; " description="&lt;b&gt;ALV82383.1&lt;/b&gt;&lt;br&gt;ABC transporter&lt;br&gt;Location: 1630 - 11" locus_tag="ALV82383.1" class="clusterblast-orf" id="dummy-3_h3_7_43"  />
</g>
</svg>
