<svg xmlns="http://www.w3.org/2000/svg" xmlns:xlink="http://www.w3.org/1999/xlink" version="1.1" x="0" y="0" height="230" width="800" viewBox="0 0 800 230" preserveAspectRatio="none"  >
<g label="Query sequence" class="clusterblast-cluster"  >
<text x="5" y="20" class="clusterblast-acc"  >
Query sequence</text>
<line x1="10" y1="35" x2="778.0" y2="35" style="stroke-width:1; stroke:grey; "  />
<polygon points="243,40 243,40 248,35 243,30 243,30 243,40 " style="fill:white; stroke-width:1; stroke:black; " description="&lt;b&gt;HS041_13695&lt;/b&gt;&lt;br&gt;helix-turn-helix domain-containing protein&lt;br&gt;Location: 216230 - 217061" locus_tag="HS041_13695" class="clusterblast-orf" id="dummy-2_q0_0_all"  />
<polygon points="248,40 251,40 256,35 251,30 248,30 248,40 " style="fill:white; stroke-width:1; stroke:black; " description="&lt;b&gt;HS041_13700&lt;/b&gt;&lt;br&gt;30S ribosomal protein S12 methylthiotransferase RimO&lt;br&gt;Location: 217141 - 218551" locus_tag="HS041_13700" class="clusterblast-orf" id="dummy-2_q1_0_all"  />
<polygon points="256,40 259,35 256,30 256,40 " style="fill:white; stroke-width:1; stroke:black; " description="&lt;b&gt;HS041_13705&lt;/b&gt;&lt;br&gt;CDP-diacylglycerol--glycerol-3-phosphate 3-phosphatidyltransferase&lt;br&gt;Location: 218576 - 219185" locus_tag="HS041_13705" class="clusterblast-orf" id="dummy-2_q2_0_all"  />
<polygon points="259,40 262,35 259,30 259,40 " style="fill:white; stroke-width:1; stroke:black; " description="&lt;b&gt;HS041_13710&lt;/b&gt;&lt;br&gt;nicotinamide-nucleotide amidohydrolase family protein&lt;br&gt;Location: 219181 - 219703" locus_tag="HS041_13710" class="clusterblast-orf" id="dummy-2_q3_0_all"  />
<polygon points="263,40 265,35 263,30 263,40 " style="fill:white; stroke-width:1; stroke:black; " description="&lt;b&gt;HS041_13715&lt;/b&gt;&lt;br&gt;helix-turn-helix transcriptional regulator&lt;br&gt;Location: 219910 - 220306" locus_tag="HS041_13715" class="clusterblast-orf" id="dummy-2_q4_0_all"  />
<polygon points="265,35 270,30 270,30 270,40 270,40 265,35 " style="fill:white; stroke-width:1; stroke:black; " description="&lt;b&gt;HS041_13720&lt;/b&gt;&lt;br&gt;Fpg/Nei family DNA glycosylase&lt;br&gt;Location: 220355 - 221135" locus_tag="HS041_13720" class="clusterblast-orf" id="dummy-2_q5_0_all"  />
<polygon points="270,35 272,30 272,40 270,35 " style="fill:white; stroke-width:1; stroke:black; " description="&lt;b&gt;HS041_13725&lt;/b&gt;&lt;br&gt;Rrf2 family transcriptional regulator&lt;br&gt;Location: 221187 - 221637" locus_tag="HS041_13725" class="clusterblast-orf" id="dummy-2_q6_0_all"  />
<polygon points="273,40 275,40 280,35 275,30 273,30 273,40 " style="fill:white; stroke-width:1; stroke:black; " description="&lt;b&gt;HS041_13730&lt;/b&gt;&lt;br&gt;ROK family protein&lt;br&gt;Location: 221824 - 223003" locus_tag="HS041_13730" class="clusterblast-orf" id="dummy-2_q7_0_all"  />
<polygon points="280,35 285,30 289,30 289,40 285,40 280,35 " style="fill:white; stroke-width:1; stroke:black; " description="&lt;b&gt;HS041_13735&lt;/b&gt;&lt;br&gt;glycoside hydrolase family 3 protein&lt;br&gt;Location: 223008 - 224733" locus_tag="HS041_13735" class="clusterblast-orf" id="dummy-2_q8_0_all"  />
<polygon points="290,35 295,30 297,30 297,40 295,40 290,35 " style="fill:white; stroke-width:1; stroke:black; " description="&lt;b&gt;HS041_13740&lt;/b&gt;&lt;br&gt;glycoside hydrolase family 3 protein&lt;br&gt;Location: 224847 - 226302" locus_tag="HS041_13740" class="clusterblast-orf" id="dummy-2_q9_0_all"  />
<polygon points="298,35 303,30 303,30 303,40 303,40 298,35 " style="fill:white; stroke-width:1; stroke:black; " description="&lt;b&gt;HS041_13745&lt;/b&gt;&lt;br&gt;carbohydrate ABC transporter permease&lt;br&gt;Location: 226399 - 227305" locus_tag="HS041_13745" class="clusterblast-orf" id="dummy-2_q10_0_all"  />
<polygon points="303,35 308,30 308,30 308,40 308,40 303,35 " style="fill:white; stroke-width:1; stroke:black; " description="&lt;b&gt;HS041_13750&lt;/b&gt;&lt;br&gt;sugar ABC transporter permease&lt;br&gt;Location: 227301 - 228315" locus_tag="HS041_13750" class="clusterblast-orf" id="dummy-2_q11_0_all"  />
<polygon points="308,35 313,30 315,30 315,40 313,40 308,35 " style="fill:white; stroke-width:1; stroke:black; " description="&lt;b&gt;HS041_13755&lt;/b&gt;&lt;br&gt;extracellular solute-binding protein&lt;br&gt;Location: 228317 - 229652" locus_tag="HS041_13755" class="clusterblast-orf" id="dummy-2_q12_0_all"  />
<polygon points="317,40 318,40 323,35 318,30 317,30 317,40 " style="fill:white; stroke-width:1; stroke:black; " description="&lt;b&gt;HS041_13760&lt;/b&gt;&lt;br&gt;ROK family transcriptional regulator&lt;br&gt;Location: 229856 - 231017" locus_tag="HS041_13760" class="clusterblast-orf" id="dummy-2_q13_0_all"  />
<polygon points="323,40 326,35 323,30 323,40 " style="fill:white; stroke-width:1; stroke:black; " description="&lt;b&gt;HS041_13765&lt;/b&gt;&lt;br&gt;M15 family metallopeptidase&lt;br&gt;Location: 231028 - 231673" locus_tag="HS041_13765" class="clusterblast-orf" id="dummy-2_q14_0_all"  />
<polygon points="327,35 332,30 336,30 336,40 332,40 327,35 " style="fill:white; stroke-width:1; stroke:black; " description="&lt;b&gt;HS041_13770&lt;/b&gt;&lt;br&gt;hypothetical protein&lt;br&gt;Location: 231712 - 233524" locus_tag="HS041_13770" class="clusterblast-orf" id="dummy-2_q15_0_all"  />
<polygon points="337,35 342,30 344,30 344,40 342,40 337,35 " style="fill:white; stroke-width:1; stroke:black; " description="&lt;b&gt;HS041_13775&lt;/b&gt;&lt;br&gt;non-ribosomal peptide synthetase condensation domain protein&lt;br&gt;Location: 233573 - 234935" locus_tag="HS041_13775" class="clusterblast-orf" id="dummy-2_q16_0_all"  />
<polygon points="344,35 345,30 345,40 344,35 " style="fill:white; stroke-width:1; stroke:black; " description="&lt;b&gt;HS041_13780&lt;/b&gt;&lt;br&gt;acyl carrier protein&lt;br&gt;Location: 234934 - 235174" locus_tag="HS041_13780" class="clusterblast-orf" id="dummy-2_q17_0_all"  />
<polygon points="345,35 346,30 346,40 345,35 " style="fill:#d81515; stroke-width:1; stroke:black; " description="&lt;b&gt;HS041_13785&lt;/b&gt;&lt;br&gt;MbtH family protein&lt;br&gt;Location: 235166 - 235403" locus_tag="HS041_13785" class="clusterblast-orf" id="dummy-2_q18_0_all"  />
<polygon points="346,35 351,30 363,30 363,40 351,40 346,35 " style="fill:white; stroke-width:1; stroke:black; " description="&lt;b&gt;HS041_13790&lt;/b&gt;&lt;br&gt;amino acid adenylation domain-containing protein&lt;br&gt;Location: 235399 - 238519" locus_tag="HS041_13790" class="clusterblast-orf" id="dummy-2_q19_0_all"  />
<polygon points="365,40 368,40 373,35 368,30 365,30 365,40 " style="fill:white; stroke-width:1; stroke:black; " description="&lt;b&gt;HS041_13795&lt;/b&gt;&lt;br&gt;acyl--CoA ligase&lt;br&gt;Location: 238880 - 240347" locus_tag="HS041_13795" class="clusterblast-orf" id="dummy-2_q20_0_all"  />
<polygon points="373,40 375,40 380,35 375,30 373,30 373,40 " style="fill:white; stroke-width:1; stroke:black; " description="&lt;b&gt;HS041_13800&lt;/b&gt;&lt;br&gt;hypothetical protein&lt;br&gt;Location: 240343 - 241654" locus_tag="HS041_13800" class="clusterblast-orf" id="dummy-2_q21_0_all"  />
<polygon points="381,40 382,35 381,30 381,40 " style="fill:white; stroke-width:1; stroke:black; " description="&lt;b&gt;HS041_13805&lt;/b&gt;&lt;br&gt;hypothetical protein&lt;br&gt;Location: 241729 - 241960" locus_tag="HS041_13805" class="clusterblast-orf" id="dummy-2_q22_0_all"  />
<polygon points="382,40 382,40 387,35 382,30 382,30 382,40 " style="fill:#15d815; stroke-width:1; stroke:black; " description="&lt;b&gt;HS041_13810&lt;/b&gt;&lt;br&gt;thiamine pyrophosphate-dependent dehydrogenase E1 component subunit alpha&lt;br&gt;Location: 241952 - 242897" locus_tag="HS041_13810" class="clusterblast-orf" id="dummy-2_q23_0_all"  />
<polygon points="387,40 387,40 392,35 387,30 387,30 387,40 " style="fill:#1515d8; stroke-width:1; stroke:black; " description="&lt;b&gt;HS041_13815&lt;/b&gt;&lt;br&gt;alpha-ketoacid dehydrogenase subunit beta&lt;br&gt;Location: 242887 - 243877" locus_tag="HS041_13815" class="clusterblast-orf" id="dummy-2_q24_0_all"  />
<polygon points="392,40 393,40 398,35 393,30 392,30 392,40 " style="fill:white; stroke-width:1; stroke:black; " description="&lt;b&gt;HS041_13820&lt;/b&gt;&lt;br&gt;2-oxo acid dehydrogenase subunit E2&lt;br&gt;Location: 243869 - 245039" locus_tag="HS041_13820" class="clusterblast-orf" id="dummy-2_q25_0_all"  />
<polygon points="399,40 424,40 429,35 424,30 399,30 399,40 " style="fill:white; stroke-width:1; stroke:black; " description="&lt;b&gt;HS041_13825&lt;/b&gt;&lt;br&gt;amino acid adenylation domain-containing protein&lt;br&gt;Location: 245137 - 250759" locus_tag="HS041_13825" class="clusterblast-orf" id="dummy-2_q26_0_all"  />
<polygon points="430,35 435,30 457,30 457,40 435,40 430,35 " style="fill:white; stroke-width:1; stroke:black; " description="&lt;b&gt;HS041_13830&lt;/b&gt;&lt;br&gt;DEAD/DEAH box helicase&lt;br&gt;Location: 250834 - 255832" locus_tag="HS041_13830" class="clusterblast-orf" id="dummy-2_q27_0_all"  />
<polygon points="457,40 459,40 464,35 459,30 457,30 457,40 " style="fill:white; stroke-width:1; stroke:black; " description="&lt;b&gt;HS041_13835&lt;/b&gt;&lt;br&gt;aspartate aminotransferase family protein&lt;br&gt;Location: 255994 - 257287" locus_tag="HS041_13835" class="clusterblast-orf" id="dummy-2_q28_0_all"  />
<polygon points="465,40 467,35 465,30 465,40 " style="fill:white; stroke-width:1; stroke:black; " description="&lt;b&gt;HS041_13840&lt;/b&gt;&lt;br&gt;VOC family protein&lt;br&gt;Location: 257363 - 257852" locus_tag="HS041_13840" class="clusterblast-orf" id="dummy-2_q29_0_all"  />
<polygon points="468,35 469,30 469,40 468,35 " style="fill:white; stroke-width:1; stroke:black; " description="&lt;b&gt;HS041_13845&lt;/b&gt;&lt;br&gt;hypothetical protein&lt;br&gt;Location: 257935 - 258151" locus_tag="HS041_13845" class="clusterblast-orf" id="dummy-2_q30_0_all"  />
<polygon points="470,40 471,35 470,30 470,40 " style="fill:white; stroke-width:1; stroke:black; " description="&lt;b&gt;HS041_13850&lt;/b&gt;&lt;br&gt;DUF3046 domain-containing protein&lt;br&gt;Location: 258345 - 258540" locus_tag="HS041_13850" class="clusterblast-orf" id="dummy-2_q31_0_all"  />
<polygon points="472,35 473,30 473,40 472,35 " style="fill:white; stroke-width:1; stroke:black; " description="&lt;b&gt;HS041_13855&lt;/b&gt;&lt;br&gt;hypothetical protein&lt;br&gt;Location: 258663 - 258939" locus_tag="HS041_13855" class="clusterblast-orf" id="dummy-2_q32_0_all"  />
<polygon points="475,40 476,40 481,35 476,30 475,30 475,40 " style="fill:white; stroke-width:1; stroke:black; " description="&lt;b&gt;HS041_13860&lt;/b&gt;&lt;br&gt;recombinase RecA&lt;br&gt;Location: 259234 - 260344" locus_tag="HS041_13860" class="clusterblast-orf" id="dummy-2_q33_0_all"  />
<polygon points="483,40 486,35 483,30 483,40 " style="fill:white; stroke-width:1; stroke:black; " description="&lt;b&gt;HS041_13865&lt;/b&gt;&lt;br&gt;recombination regulator RecX&lt;br&gt;Location: 260719 - 261361" locus_tag="HS041_13865" class="clusterblast-orf" id="dummy-2_q34_0_all"  />
<polygon points="488,40 492,40 497,35 492,30 488,30 488,40 " style="fill:white; stroke-width:1; stroke:black; " description="&lt;b&gt;HS041_13870&lt;/b&gt;&lt;br&gt;ribonuclease Y&lt;br&gt;Location: 261653 - 263339" locus_tag="HS041_13870" class="clusterblast-orf" id="dummy-2_q35_0_all"  />
<polygon points="497,35 502,30 508,30 508,40 502,40 497,35 " style="fill:white; stroke-width:1; stroke:black; " description="&lt;b&gt;HS041_13875&lt;/b&gt;&lt;br&gt;S9 family peptidase&lt;br&gt;Location: 263345 - 265307" locus_tag="HS041_13875" class="clusterblast-orf" id="dummy-2_q36_0_all"  />
<polygon points="508,35 513,30 513,30 513,40 513,40 508,35 " style="fill:white; stroke-width:1; stroke:black; " description="&lt;b&gt;HS041_13880&lt;/b&gt;&lt;br&gt;amino acid ABC transporter permease&lt;br&gt;Location: 265427 - 266372" locus_tag="HS041_13880" class="clusterblast-orf" id="dummy-2_q37_0_all"  />
<polygon points="513,35 517,30 517,40 513,35 " style="fill:white; stroke-width:1; stroke:black; " description="&lt;b&gt;HS041_13885&lt;/b&gt;&lt;br&gt;amino acid ABC transporter permease&lt;br&gt;Location: 266368 - 267037" locus_tag="HS041_13885" class="clusterblast-orf" id="dummy-2_q38_0_all"  />
<polygon points="517,35 522,30 522,30 522,40 522,40 517,35 " style="fill:white; stroke-width:1; stroke:black; " description="&lt;b&gt;HS041_13890&lt;/b&gt;&lt;br&gt;glutamate ABC transporter substrate-binding protein&lt;br&gt;Location: 267098 - 267920" locus_tag="HS041_13890" class="clusterblast-orf" id="dummy-2_q39_0_all"  />
<polygon points="522,35 526,30 526,40 522,35 " style="fill:white; stroke-width:1; stroke:black; " description="&lt;b&gt;HS041_13895&lt;/b&gt;&lt;br&gt;amino acid ABC transporter ATP-binding protein&lt;br&gt;Location: 267986 - 268742" locus_tag="HS041_13895" class="clusterblast-orf" id="dummy-2_q40_0_all"  />
<polygon points="528,40 531,40 536,35 531,30 528,30 528,40 " style="fill:white; stroke-width:1; stroke:black; " description="&lt;b&gt;HS041_13900&lt;/b&gt;&lt;br&gt;tRNA (N6-isopentenyl adenosine(37)-C2)-methylthiotransferase MiaB&lt;br&gt;Location: 269057 - 270566" locus_tag="HS041_13900" class="clusterblast-orf" id="dummy-2_q41_0_all"  />
</g>
<g label="BGC0000163" description="BGC0000163_c1: tetronasin (3% of genes show similarity), Polyketide" class="clusterblast-cluster"  >
<text x="5" y="70" class="clusterblast-acc"  >
<a xlink:href="https://mibig.secondarymetabolites.org/go/BGC0000163/1" target="_blank">BGC0000163</a>: tetronasin                                                                       (3% of genes show similarity), Polyketide</text>
<line x1="10" y1="85" x2="778.0" y2="85" style="stroke-width:1; stroke:grey; "  />
</g>
<g id="a2_000"  >
<polygon points="0,90 4,85 0,80 0,90 " style="fill:white; stroke-width:1; stroke:black; " description="&lt;b&gt;ACR50801.1&lt;/b&gt;&lt;br&gt;putative methyltransferase&lt;br&gt;Location: 144698 - 143949" locus_tag="ACR50801.1" class="clusterblast-orf" id="dummy-2_h2_1_0"  />
</g>
<g id="a2_001"  >
<polygon points="7,90 17,90 22,85 17,80 7,80 7,90 " style="fill:white; stroke-width:1; stroke:black; " description="&lt;b&gt;ACR50800.1&lt;/b&gt;&lt;br&gt;putative LuxR-family transcriptional regulator&lt;br&gt;Location: 143221 - 140465" locus_tag="ACR50800.1" class="clusterblast-orf" id="dummy-2_h2_1_1"  />
</g>
<g id="a2_002"  >
<polygon points="25,90 26,90 31,85 26,80 25,80 25,90 " style="fill:white; stroke-width:1; stroke:black; " description="&lt;b&gt;ACR50799.1&lt;/b&gt;&lt;br&gt;putative membrane protein&lt;br&gt;Location: 139933 - 138794" locus_tag="ACR50799.1" class="clusterblast-orf" id="dummy-2_h2_1_2"  />
</g>
<g id="a2_003"  >
<polygon points="31,90 35,85 31,80 31,90 " style="fill:white; stroke-width:1; stroke:black; " description="&lt;b&gt;ACR50798.1&lt;/b&gt;&lt;br&gt;putative TetR-family transcriptional regulator&lt;br&gt;Location: 138929 - 138180" locus_tag="ACR50798.1" class="clusterblast-orf" id="dummy-2_h2_1_3"  />
</g>
<g id="a2_004"  >
<polygon points="35,85 40,80 44,80 44,90 40,90 35,85 " style="fill:white; stroke-width:1; stroke:black; " description="&lt;b&gt;ACR50797.1&lt;/b&gt;&lt;br&gt;acyltransferase&lt;br&gt;Location: 138136 - 136385" locus_tag="ACR50797.1" class="clusterblast-orf" id="dummy-2_h2_1_4"  />
</g>
<g id="a2_005"  >
<polygon points="46,90 81,90 86,85 81,80 46,80 46,90 " style="fill:white; stroke-width:1; stroke:black; " description="&lt;b&gt;ACR50796.1&lt;/b&gt;&lt;br&gt;putative polyketide synthase&lt;br&gt;Location: 136011 - 128581" locus_tag="ACR50796.1" class="clusterblast-orf" id="dummy-2_h2_1_5"  />
</g>
<g id="a2_006"  >
<polygon points="87,90 106,90 111,85 106,80 87,80 87,90 " style="fill:white; stroke-width:1; stroke:black; " description="&lt;b&gt;ACR50795.1&lt;/b&gt;&lt;br&gt;putative polyketide synthase&lt;br&gt;Location: 128456 - 123948" locus_tag="ACR50795.1" class="clusterblast-orf" id="dummy-2_h2_1_6"  />
</g>
<g id="a2_007"  >
<polygon points="112,90 116,85 112,80 112,90 " style="fill:white; stroke-width:1; stroke:black; " description="&lt;b&gt;ACR50794.1&lt;/b&gt;&lt;br&gt;putative type II thioesterase&lt;br&gt;Location: 123907 - 123140" locus_tag="ACR50794.1" class="clusterblast-orf" id="dummy-2_h2_1_7"  />
</g>
<g id="a2_008"  >
<polygon points="117,85 122,80 124,80 124,90 122,90 117,85 " style="fill:white; stroke-width:1; stroke:black; " description="&lt;b&gt;ACR50793.1&lt;/b&gt;&lt;br&gt;putative P450 monooxygenase&lt;br&gt;Location: 122875 - 121604" locus_tag="ACR50793.1" class="clusterblast-orf" id="dummy-2_h2_1_8"  />
</g>
<g id="a2_009"  >
<polygon points="124,85 129,80 132,80 132,90 129,90 124,85 " style="fill:white; stroke-width:1; stroke:black; " description="&lt;b&gt;ACR50792.1&lt;/b&gt;&lt;br&gt;putative acyl-CoA synthase&lt;br&gt;Location: 121591 - 120029" locus_tag="ACR50792.1" class="clusterblast-orf" id="dummy-2_h2_1_9"  />
</g>
<g id="a2_0010"  >
<polygon points="132,85 137,80 166,80 166,90 137,90 132,85 " style="fill:white; stroke-width:1; stroke:black; " description="&lt;b&gt;ACR50791.1&lt;/b&gt;&lt;br&gt;putative polyketide synthase&lt;br&gt;Location: 120032 - 113739" locus_tag="ACR50791.1" class="clusterblast-orf" id="dummy-2_h2_1_10"  />
</g>
<g id="a2_0011"  >
<polygon points="170,85 175,80 175,80 175,90 175,90 170,85 " style="fill:white; stroke-width:1; stroke:black; " description="&lt;b&gt;ACR50790.1&lt;/b&gt;&lt;br&gt;putative oxidoreductase&lt;br&gt;Location: 113113 - 112229" locus_tag="ACR50790.1" class="clusterblast-orf" id="dummy-2_h2_1_11"  />
</g>
<g id="a2_0012"  >
<polygon points="177,85 181,80 181,90 177,85 " style="fill:white; stroke-width:1; stroke:black; " description="&lt;b&gt;ACR50789.1&lt;/b&gt;&lt;br&gt;putative pathway specific activator&lt;br&gt;Location: 111842 - 111072" locus_tag="ACR50789.1" class="clusterblast-orf" id="dummy-2_h2_1_12"  />
</g>
<g id="a2_0013"  >
<polygon points="184,90 188,85 184,80 184,90 " style="fill:white; stroke-width:1; stroke:black; " description="&lt;b&gt;ACR50788.1&lt;/b&gt;&lt;br&gt;putative ABC transporter, ATP binding component&lt;br&gt;Location: 110544 - 109639" locus_tag="ACR50788.1" class="clusterblast-orf" id="dummy-2_h2_1_13"  />
</g>
<g id="a2_0014"  >
<polygon points="188,90 192,90 197,85 192,80 188,80 188,90 " style="fill:white; stroke-width:1; stroke:black; " description="&lt;b&gt;ACR50787.1&lt;/b&gt;&lt;br&gt;putative ABC transporter, membrane spanning protein&lt;br&gt;Location: 109642 - 108020" locus_tag="ACR50787.1" class="clusterblast-orf" id="dummy-2_h2_1_14"  />
</g>
<g id="a2_0015"  >
<polygon points="199,85 202,80 202,90 199,85 " style="fill:white; stroke-width:1; stroke:black; " description="&lt;b&gt;ACR50786.1&lt;/b&gt;&lt;br&gt;putative regulatory protein&lt;br&gt;Location: 107738 - 107202" locus_tag="ACR50786.1" class="clusterblast-orf" id="dummy-2_h2_1_15"  />
</g>
<g id="a2_0016"  >
<polygon points="203,90 279,90 284,85 279,80 203,80 203,90 " style="fill:white; stroke-width:1; stroke:black; " description="&lt;b&gt;ACR50785.1&lt;/b&gt;&lt;br&gt;polyketide synthase&lt;br&gt;Location: 107005 - 91916" locus_tag="ACR50785.1" class="clusterblast-orf" id="dummy-2_h2_1_16"  />
</g>
<g id="a2_0017"  >
<polygon points="289,85 294,80 294,80 294,90 294,90 289,85 " style="fill:white; stroke-width:1; stroke:black; " description="&lt;b&gt;ACR50784.1&lt;/b&gt;&lt;br&gt;putative 3-oxoacyl-ACP synthase III&lt;br&gt;Location: 91082 - 90030" locus_tag="ACR50784.1" class="clusterblast-orf" id="dummy-2_h2_1_17"  />
</g>
<g id="a2_0018"  >
<polygon points="296,90 297,90 302,85 297,80 296,80 296,90 " style="fill:white; stroke-width:1; stroke:black; " description="&lt;b&gt;ACR50783.1&lt;/b&gt;&lt;br&gt;P450 monooxygenase&lt;br&gt;Location: 89766 - 88582" locus_tag="ACR50783.1" class="clusterblast-orf" id="dummy-2_h2_1_18"  />
</g>
<g id="a2_0019"  >
<polygon points="303,90 323,90 328,85 323,80 303,80 303,90 " style="fill:white; stroke-width:1; stroke:black; " description="&lt;b&gt;ACR50782.1&lt;/b&gt;&lt;br&gt;polyketide synthase&lt;br&gt;Location: 88375 - 83714" locus_tag="ACR50782.1" class="clusterblast-orf" id="dummy-2_h2_1_19"  />
</g>
<g id="a2_0020"  >
<polygon points="328,90 331,90 336,85 331,80 328,80 328,90 " style="fill:white; stroke-width:1; stroke:black; " description="&lt;b&gt;ACR50781.1&lt;/b&gt;&lt;br&gt;putative FAD-dependent oxygenase&lt;br&gt;Location: 83697 - 82195" locus_tag="ACR50781.1" class="clusterblast-orf" id="dummy-2_h2_1_20"  />
</g>
<g id="a2_0021"  >
<polygon points="337,85 342,80 345,80 345,90 342,90 337,85 " style="fill:white; stroke-width:1; stroke:black; " description="&lt;b&gt;ACR50780.1&lt;/b&gt;&lt;br&gt;epoxidase&lt;br&gt;Location: 82076 - 80643" locus_tag="ACR50780.1" class="clusterblast-orf" id="dummy-2_h2_1_21"  />
</g>
<g id="a2_0022"  >
<polygon points="345,85 350,80 350,80 350,90 350,90 345,85 " style="fill:white; stroke-width:1; stroke:black; " description="&lt;b&gt;ACR50779.1&lt;/b&gt;&lt;br&gt;putative 3-oxoacyl-ACP synthase III&lt;br&gt;Location: 80646 - 79594" locus_tag="ACR50779.1" class="clusterblast-orf" id="dummy-2_h2_1_22"  />
</g>
<g id="a2_0023"  >
<polygon points="352,90 352,90 357,85 352,80 352,80 352,90 " style="fill:white; stroke-width:1; stroke:black; " description="&lt;b&gt;ACR50778.1&lt;/b&gt;&lt;br&gt;methyltransferase&lt;br&gt;Location: 79313 - 78441" locus_tag="ACR50778.1" class="clusterblast-orf" id="dummy-2_h2_1_23"  />
</g>
<g id="a2_0024"  >
<polygon points="357,85 362,80 364,80 364,90 362,90 357,85 " style="fill:white; stroke-width:1; stroke:black; " description="&lt;b&gt;ACR50777.1&lt;/b&gt;&lt;br&gt;putative major facilitator transporter&lt;br&gt;Location: 78327 - 77059" locus_tag="ACR50777.1" class="clusterblast-orf" id="dummy-2_h2_1_24"  />
</g>
<g id="a2_0025"  >
<polygon points="364,85 366,80 366,90 364,85 " style="fill:white; stroke-width:1; stroke:black; " description="&lt;b&gt;ACR50776.1&lt;/b&gt;&lt;br&gt;epoxide hydrolase&lt;br&gt;Location: 77062 - 76643" locus_tag="ACR50776.1" class="clusterblast-orf" id="dummy-2_h2_1_25"  />
</g>
<g id="a2_0026"  >
<polygon points="366,85 371,80 464,80 464,90 371,90 366,85 " style="fill:white; stroke-width:1; stroke:black; " description="&lt;b&gt;ACR50775.1&lt;/b&gt;&lt;br&gt;polyketide synthase&lt;br&gt;Location: 76650 - 58540" locus_tag="ACR50775.1" class="clusterblast-orf" id="dummy-2_h2_1_26"  />
</g>
<g id="a2_0027"  >
<polygon points="464,85 469,80 555,80 555,90 469,90 464,85 " style="fill:white; stroke-width:1; stroke:black; " description="&lt;b&gt;ACR50774.1&lt;/b&gt;&lt;br&gt;polyketide synthase&lt;br&gt;Location: 58468 - 41576" locus_tag="ACR50774.1" class="clusterblast-orf" id="dummy-2_h2_1_27"  />
</g>
<g id="a2_0028"  >
<polygon points="556,85 561,80 639,80 639,90 561,90 556,85 " style="fill:white; stroke-width:1; stroke:black; " description="&lt;b&gt;ACR50773.1&lt;/b&gt;&lt;br&gt;polyketide synthase&lt;br&gt;Location: 41511 - 26101" locus_tag="ACR50773.1" class="clusterblast-orf" id="dummy-2_h2_1_28"  />
</g>
<g id="a2_0029"  >
<polygon points="640,90 642,85 640,80 640,90 " style="fill:white; stroke-width:1; stroke:black; " description="&lt;b&gt;ACR50772.1&lt;/b&gt;&lt;br&gt;acyl carrier protein&lt;br&gt;Location: 25803 - 25477" locus_tag="ACR50772.1" class="clusterblast-orf" id="dummy-2_h2_1_29"  />
</g>
<g id="a2_0030"  >
<polygon points="642,90 643,90 648,85 643,80 642,80 642,90 " style="fill:#15d815; stroke-width:1; stroke:black; " description="&lt;b&gt;ACR50771.1&lt;/b&gt;&lt;br&gt;pyruvate dehydrogenase E1 alpha subunit&lt;br&gt;Location: 25480 - 24443&lt;br&gt;&lt;br&gt;&lt;b&gt;BlastP hit with HS041_13810&lt;/b&gt;&lt;br&gt;Percentage identity: 71&lt;br&gt;Percentage coverage: 98&lt;br&gt;BLAST bit score: 435&lt;br&gt;E-value: 6.82e-154" locus_tag="ACR50771.1" class="clusterblast-orf" id="dummy-2_h2_1_30"  />
</g>
<g id="a2_0031"  >
<polygon points="648,90 648,90 653,85 648,80 648,80 648,90 " style="fill:#1515d8; stroke-width:1; stroke:black; " description="&lt;b&gt;ACR50770.1&lt;/b&gt;&lt;br&gt;pyruvate dehydrogenase E1 beta subunit&lt;br&gt;Location: 24464 - 23448&lt;br&gt;&lt;br&gt;&lt;b&gt;BlastP hit with HS041_13815&lt;/b&gt;&lt;br&gt;Percentage identity: 61&lt;br&gt;Percentage coverage: 101&lt;br&gt;BLAST bit score: 386&lt;br&gt;E-value: 1.32e-134" locus_tag="ACR50770.1" class="clusterblast-orf" id="dummy-2_h2_1_31"  />
</g>
<g id="a2_0032"  >
<polygon points="653,90 655,90 660,85 655,80 653,80 653,90 " style="fill:white; stroke-width:1; stroke:black; " description="&lt;b&gt;ACR50769.1&lt;/b&gt;&lt;br&gt;E2 dihydrolipoyl acyltransferase&lt;br&gt;Location: 23455 - 22160" locus_tag="ACR50769.1" class="clusterblast-orf" id="dummy-2_h2_1_32"  />
</g>
<g id="a2_0033"  >
<polygon points="660,85 665,80 665,80 665,90 665,90 660,85 " style="fill:white; stroke-width:1; stroke:black; " description="&lt;b&gt;ACR50768.1&lt;/b&gt;&lt;br&gt;putative E2-like acyltransferase component of pyruvate/2-oxoglutarate dehydrogenase&lt;br&gt;Location: 22122 - 21304" locus_tag="ACR50768.1" class="clusterblast-orf" id="dummy-2_h2_1_33"  />
</g>
<g id="a2_0034"  >
<polygon points="666,90 669,85 666,80 666,90 " style="fill:white; stroke-width:1; stroke:black; " description="&lt;b&gt;ACR50767.1&lt;/b&gt;&lt;br&gt;hypothetical protein&lt;br&gt;Location: 20994 - 20581" locus_tag="ACR50767.1" class="clusterblast-orf" id="dummy-2_h2_1_34"  />
</g>
<g id="a2_0035"  >
<polygon points="670,90 674,85 670,80 670,90 " style="fill:white; stroke-width:1; stroke:black; " description="&lt;b&gt;ACR50766.1&lt;/b&gt;&lt;br&gt;putative phosphoesterase&lt;br&gt;Location: 20401 - 19520" locus_tag="ACR50766.1" class="clusterblast-orf" id="dummy-2_h2_1_35"  />
</g>
<g id="a2_0036"  >
<polygon points="674,85 678,80 678,90 674,85 " style="fill:white; stroke-width:1; stroke:black; " description="&lt;b&gt;ACR50765.1&lt;/b&gt;&lt;br&gt;hypothetical protein&lt;br&gt;Location: 19616 - 18798" locus_tag="ACR50765.1" class="clusterblast-orf" id="dummy-2_h2_1_36"  />
</g>
<g id="a2_0037"  >
<polygon points="679,90 681,85 679,80 679,90 " style="fill:white; stroke-width:1; stroke:black; " description="&lt;b&gt;ACR50764.1&lt;/b&gt;&lt;br&gt;hypothetical protein&lt;br&gt;Location: 18683 - 18327" locus_tag="ACR50764.1" class="clusterblast-orf" id="dummy-2_h2_1_37"  />
</g>
<g id="a2_0038"  >
<polygon points="682,90 689,90 694,85 689,80 682,80 682,90 " style="fill:white; stroke-width:1; stroke:black; " description="&lt;b&gt;ACR50763.1&lt;/b&gt;&lt;br&gt;periplasmic beta-glucosidase&lt;br&gt;Location: 18077 - 15861" locus_tag="ACR50763.1" class="clusterblast-orf" id="dummy-2_h2_1_38"  />
</g>
<g id="a2_0039"  >
<polygon points="695,90 697,85 695,80 695,90 " style="fill:white; stroke-width:1; stroke:black; " description="&lt;b&gt;ACR50762.1&lt;/b&gt;&lt;br&gt;conserved hypothetical protein&lt;br&gt;Location: 15675 - 15322" locus_tag="ACR50762.1" class="clusterblast-orf" id="dummy-2_h2_1_39"  />
</g>
<g id="a2_0040"  >
<polygon points="699,85 704,80 707,80 707,90 704,90 699,85 " style="fill:white; stroke-width:1; stroke:black; " description="&lt;b&gt;ACR50761.1&lt;/b&gt;&lt;br&gt;6-phosphogluconate 1-dehydrogenase&lt;br&gt;Location: 14896 - 13457" locus_tag="ACR50761.1" class="clusterblast-orf" id="dummy-2_h2_1_40"  />
</g>
<g id="a2_0041"  >
<polygon points="709,90 710,90 715,85 710,80 709,80 709,90 " style="fill:white; stroke-width:1; stroke:black; " description="&lt;b&gt;ACR50760.1&lt;/b&gt;&lt;br&gt;hypothetical protein&lt;br&gt;Location: 13090 - 11993" locus_tag="ACR50760.1" class="clusterblast-orf" id="dummy-2_h2_1_41"  />
</g>
<g id="a2_0042"  >
<polygon points="716,90 720,90 725,85 720,80 716,80 716,90 " style="fill:white; stroke-width:1; stroke:black; " description="&lt;b&gt;ACR50759.1&lt;/b&gt;&lt;br&gt;putative secreted protein&lt;br&gt;Location: 11776 - 10058" locus_tag="ACR50759.1" class="clusterblast-orf" id="dummy-2_h2_1_42"  />
</g>
<g id="a2_0043"  >
<polygon points="728,90 732,85 728,80 728,90 " style="fill:white; stroke-width:1; stroke:black; " description="&lt;b&gt;ACR50758.1&lt;/b&gt;&lt;br&gt;DeoR family transcriptional regulator&lt;br&gt;Location: 9528 - 8767" locus_tag="ACR50758.1" class="clusterblast-orf" id="dummy-2_h2_1_43"  />
</g>
<g id="a2_0044"  >
<polygon points="733,90 735,90 740,85 735,80 733,80 733,90 " style="fill:white; stroke-width:1; stroke:black; " description="&lt;b&gt;ACR50757.1&lt;/b&gt;&lt;br&gt;putative multiple sugar ABC transporter solute-binding protein&lt;br&gt;Location: 8585 - 7266" locus_tag="ACR50757.1" class="clusterblast-orf" id="dummy-2_h2_1_44"  />
</g>
<g id="a2_0045"  >
<polygon points="740,90 741,90 746,85 741,80 740,80 740,90 " style="fill:white; stroke-width:1; stroke:black; " description="&lt;b&gt;ACR50756.1&lt;/b&gt;&lt;br&gt;putative ABC transporter permease protein&lt;br&gt;Location: 7269 - 6283" locus_tag="ACR50756.1" class="clusterblast-orf" id="dummy-2_h2_1_45"  />
</g>
<g id="a2_0046"  >
<polygon points="746,90 746,90 751,85 746,80 746,80 746,90 " style="fill:white; stroke-width:1; stroke:black; " description="&lt;b&gt;ACR50755.1&lt;/b&gt;&lt;br&gt;integral membrane sugar transport protein&lt;br&gt;Location: 6286 - 5369" locus_tag="ACR50755.1" class="clusterblast-orf" id="dummy-2_h2_1_46"  />
</g>
<g id="a2_0047"  >
<polygon points="751,90 751,90 756,85 751,80 751,80 751,90 " style="fill:white; stroke-width:1; stroke:black; " description="&lt;b&gt;ACR50754.1&lt;/b&gt;&lt;br&gt;zinc-binding dehydrogenase&lt;br&gt;Location: 5339 - 4383" locus_tag="ACR50754.1" class="clusterblast-orf" id="dummy-2_h2_1_47"  />
</g>
<g id="a2_0048"  >
<polygon points="756,90 756,90 761,85 756,80 756,80 756,90 " style="fill:white; stroke-width:1; stroke:black; " description="&lt;b&gt;ACR50753.1&lt;/b&gt;&lt;br&gt;putative sugar kinase&lt;br&gt;Location: 4326 - 3427" locus_tag="ACR50753.1" class="clusterblast-orf" id="dummy-2_h2_1_48"  />
</g>
<g id="a2_0049"  >
<polygon points="762,90 765,90 770,85 765,80 762,80 762,90 " style="fill:white; stroke-width:1; stroke:black; " description="&lt;b&gt;ACR50752.1&lt;/b&gt;&lt;br&gt;conserved hypothetical protein&lt;br&gt;Location: 3256 - 1838" locus_tag="ACR50752.1" class="clusterblast-orf" id="dummy-2_h2_1_49"  />
</g>
<g id="a2_0050"  >
<polygon points="770,85 774,80 774,90 770,85 " style="fill:white; stroke-width:1; stroke:black; " description="&lt;b&gt;ACR50751.1&lt;/b&gt;&lt;br&gt;putative ABC transporter permease protein&lt;br&gt;Location: 1778 - 1020" locus_tag="ACR50751.1" class="clusterblast-orf" id="dummy-2_h2_1_50"  />
</g>
<g id="a2_0051"  >
<polygon points="775,85 780,80 780,80 780,90 780,90 775,85 " style="fill:white; stroke-width:1; stroke:black; " description="&lt;b&gt;ACR50750.1&lt;/b&gt;&lt;br&gt;putative ABC transporter permease protein&lt;br&gt;Location: 910 - 1" locus_tag="ACR50750.1" class="clusterblast-orf" id="dummy-2_h2_1_51"  />
</g>
</svg>
