<svg xmlns="http://www.w3.org/2000/svg" xmlns:xlink="http://www.w3.org/1999/xlink" version="1.1" x="0" y="0" height="230" width="800" viewBox="0 0 800 230" preserveAspectRatio="none"  >
<g label="Query sequence" class="clusterblast-cluster"  >
<text x="5" y="20" class="clusterblast-acc"  >
Query sequence</text>
<line x1="10" y1="35" x2="778.0" y2="35" style="stroke-width:1; stroke:grey; "  />
<polygon points="0,35 5,30 6,30 6,40 5,40 0,35 " style="fill:white; stroke-width:1; stroke:black; " description="&lt;b&gt;HS041_14845&lt;/b&gt;&lt;br&gt;hypothetical protein&lt;br&gt;Location: 480361 - 481108" locus_tag="HS041_14845" class="clusterblast-orf" id="dummy-3_q0_0_all"  />
<polygon points="7,35 12,30 12,30 12,40 12,40 7,35 " style="fill:white; stroke-width:1; stroke:black; " description="&lt;b&gt;HS041_14850&lt;/b&gt;&lt;br&gt;disulfide bond formation protein DsbA&lt;br&gt;Location: 481209 - 481833" locus_tag="HS041_14850" class="clusterblast-orf" id="dummy-3_q1_0_all"  />
<polygon points="13,35 17,30 17,40 13,35 " style="fill:white; stroke-width:1; stroke:black; " description="&lt;b&gt;HS041_14855&lt;/b&gt;&lt;br&gt;O-acetyl-ADP-ribose deacetylase&lt;br&gt;Location: 481940 - 482462" locus_tag="HS041_14855" class="clusterblast-orf" id="dummy-3_q2_0_all"  />
<polygon points="18,35 23,30 30,30 30,40 23,40 18,35 " style="fill:white; stroke-width:1; stroke:black; " description="&lt;b&gt;HS041_14860&lt;/b&gt;&lt;br&gt;aminopeptidase&lt;br&gt;Location: 482615 - 484037" locus_tag="HS041_14860" class="clusterblast-orf" id="dummy-3_q3_0_all"  />
<polygon points="33,35 38,30 59,30 59,40 38,40 33,35 " style="fill:white; stroke-width:1; stroke:black; " description="&lt;b&gt;HS041_14865&lt;/b&gt;&lt;br&gt;tetratricopeptide repeat protein&lt;br&gt;Location: 484325 - 487460" locus_tag="HS041_14865" class="clusterblast-orf" id="dummy-3_q4_0_all"  />
<polygon points="63,35 64,30 64,40 63,35 " style="fill:white; stroke-width:1; stroke:black; " description="&lt;b&gt;HS041_14870&lt;/b&gt;&lt;br&gt;hypothetical protein&lt;br&gt;Location: 487890 - 488073" locus_tag="HS041_14870" class="clusterblast-orf" id="dummy-3_q5_0_all"  />
<polygon points="67,40 70,35 67,30 67,40 " style="fill:white; stroke-width:1; stroke:black; " description="&lt;b&gt;HS041_14875&lt;/b&gt;&lt;br&gt;hydroxyisourate hydrolase&lt;br&gt;Location: 488456 - 488795" locus_tag="HS041_14875" class="clusterblast-orf" id="dummy-3_q6_0_all"  />
<polygon points="71,40 80,40 85,35 80,30 71,30 71,40 " style="fill:white; stroke-width:1; stroke:black; " description="&lt;b&gt;HS041_14880&lt;/b&gt;&lt;br&gt;2-isopropylmalate synthase&lt;br&gt;Location: 488826 - 490563" locus_tag="HS041_14880" class="clusterblast-orf" id="dummy-3_q7_0_all"  />
<polygon points="87,40 105,40 110,35 105,30 87,30 87,40 " style="fill:white; stroke-width:1; stroke:black; " description="&lt;b&gt;HS041_14885&lt;/b&gt;&lt;br&gt;AAA family ATPase&lt;br&gt;Location: 490739 - 493505" locus_tag="HS041_14885" class="clusterblast-orf" id="dummy-3_q8_0_all"  />
<polygon points="112,40 115,40 120,35 115,30 112,30 112,40 " style="fill:#d81515; stroke-width:1; stroke:black; " description="&lt;b&gt;HS041_14890&lt;/b&gt;&lt;br&gt;hypothetical protein&lt;br&gt;Location: 493822 - 494686" locus_tag="HS041_14890" class="clusterblast-orf" id="dummy-3_q9_0_all"  />
<polygon points="120,40 124,40 129,35 124,30 120,30 120,40 " style="fill:#6cd815; stroke-width:1; stroke:black; " description="&lt;b&gt;HS041_14895&lt;/b&gt;&lt;br&gt;DUF1702 family protein&lt;br&gt;Location: 494767 - 495763" locus_tag="HS041_14895" class="clusterblast-orf" id="dummy-3_q10_0_all"  />
<polygon points="130,40 133,40 138,35 133,30 130,30 130,40 " style="fill:#15c3d8; stroke-width:1; stroke:black; " description="&lt;b&gt;HS041_14900&lt;/b&gt;&lt;br&gt;DUF1702 family protein&lt;br&gt;Location: 495938 - 496919" locus_tag="HS041_14900" class="clusterblast-orf" id="dummy-3_q11_0_all"  />
<polygon points="138,40 150,40 155,35 150,30 138,30 138,40 " style="fill:#9715d8; stroke-width:1; stroke:black; " description="&lt;b&gt;HS041_14905&lt;/b&gt;&lt;br&gt;CRTAC1 family protein&lt;br&gt;Location: 496915 - 498892" locus_tag="HS041_14905" class="clusterblast-orf" id="dummy-3_q12_0_all"  />
<polygon points="155,40 158,40 163,35 158,30 155,30 155,40 " style="fill:#d84115; stroke-width:1; stroke:black; " description="&lt;b&gt;HS041_14910&lt;/b&gt;&lt;br&gt;enediyne biosynthesis protein&lt;br&gt;Location: 498896 - 499868" locus_tag="HS041_14910" class="clusterblast-orf" id="dummy-3_q13_0_all"  />
<polygon points="163,40 207,40 212,35 207,30 163,30 163,40 " style="fill:#41d815; stroke-width:1; stroke:black; " description="&lt;b&gt;HS041_14915&lt;/b&gt;&lt;br&gt;SDR family NAD(P)-dependent oxidoreductase&lt;br&gt;Location: 499864 - 505648" locus_tag="HS041_14915" class="clusterblast-orf" id="dummy-3_q14_0_all"  />
<polygon points="212,40 215,35 212,30 212,40 " style="fill:#1597d8; stroke-width:1; stroke:black; " description="&lt;b&gt;HS041_14920&lt;/b&gt;&lt;br&gt;acyl-CoA thioesterase&lt;br&gt;Location: 505651 - 506080" locus_tag="HS041_14920" class="clusterblast-orf" id="dummy-3_q15_0_all"  />
<polygon points="215,40 215,40 220,35 215,30 215,30 215,40 " style="fill:#c315d8; stroke-width:1; stroke:black; " description="&lt;b&gt;HS041_14925&lt;/b&gt;&lt;br&gt;flavin reductase family protein&lt;br&gt;Location: 506101 - 506641" locus_tag="HS041_14925" class="clusterblast-orf" id="dummy-3_q16_0_all"  />
<polygon points="221,40 227,40 232,35 227,30 221,30 221,40 " style="fill:#d86c15; stroke-width:1; stroke:black; " description="&lt;b&gt;HS041_14930&lt;/b&gt;&lt;br&gt;cytochrome P450&lt;br&gt;Location: 506703 - 508032" locus_tag="HS041_14930" class="clusterblast-orf" id="dummy-3_q17_0_all"  />
<polygon points="232,35 237,30 239,30 239,40 237,40 232,35 " style="fill:#15d815; stroke-width:1; stroke:black; " description="&lt;b&gt;HS041_14935&lt;/b&gt;&lt;br&gt;helix-turn-helix transcriptional regulator&lt;br&gt;Location: 508116 - 508884" locus_tag="HS041_14935" class="clusterblast-orf" id="dummy-3_q18_0_all"  />
<polygon points="241,35 246,30 248,30 248,40 246,40 241,35 " style="fill:white; stroke-width:1; stroke:black; " description="&lt;b&gt;HS041_14940&lt;/b&gt;&lt;br&gt;metallophosphoesterase&lt;br&gt;Location: 509157 - 509979" locus_tag="HS041_14940" class="clusterblast-orf" id="dummy-3_q19_0_all"  />
<polygon points="250,40 250,40 255,35 250,30 250,30 250,40 " style="fill:white; stroke-width:1; stroke:black; " description="&lt;b&gt;HS041_14945&lt;/b&gt;&lt;br&gt;SigE family RNA polymerase sigma factor&lt;br&gt;Location: 510239 - 510818" locus_tag="HS041_14945" class="clusterblast-orf" id="dummy-3_q20_0_all"  />
<polygon points="255,40 255,40 260,35 255,30 255,30 255,40 " style="fill:#156cd8; stroke-width:1; stroke:black; " description="&lt;b&gt;HS041_14950&lt;/b&gt;&lt;br&gt;regulator&lt;br&gt;Location: 510817 - 511384" locus_tag="HS041_14950" class="clusterblast-orf" id="dummy-3_q21_0_all"  />
<polygon points="260,40 269,40 274,35 269,30 260,30 260,40 " style="fill:#d815c3; stroke-width:1; stroke:black; " description="&lt;b&gt;HS041_14955&lt;/b&gt;&lt;br&gt;GMC family oxidoreductase&lt;br&gt;Location: 511380 - 513030" locus_tag="HS041_14955" class="clusterblast-orf" id="dummy-3_q22_0_all"  />
<polygon points="274,40 278,40 283,35 278,30 274,30 274,40 " style="fill:#d89715; stroke-width:1; stroke:black; " description="&lt;b&gt;HS041_14960&lt;/b&gt;&lt;br&gt;carboxymuconolactone decarboxylase family protein&lt;br&gt;Location: 513056 - 514106" locus_tag="HS041_14960" class="clusterblast-orf" id="dummy-3_q23_0_all"  />
<polygon points="283,40 285,40 290,35 285,30 283,30 283,40 " style="fill:#15d841; stroke-width:1; stroke:black; " description="&lt;b&gt;HS041_14965&lt;/b&gt;&lt;br&gt;TIGR03084 family protein&lt;br&gt;Location: 514159 - 514963" locus_tag="HS041_14965" class="clusterblast-orf" id="dummy-3_q24_0_all"  />
<polygon points="292,40 295,40 300,35 295,30 292,30 292,40 " style="fill:white; stroke-width:1; stroke:black; " description="&lt;b&gt;HS041_14970&lt;/b&gt;&lt;br&gt;hypothetical protein&lt;br&gt;Location: 515180 - 516203" locus_tag="HS041_14970" class="clusterblast-orf" id="dummy-3_q25_0_all"  />
<polygon points="302,40 305,40 310,35 305,30 302,30 302,40 " style="fill:white; stroke-width:1; stroke:black; " description="&lt;b&gt;HS041_14975&lt;/b&gt;&lt;br&gt;helix-turn-helix transcriptional regulator&lt;br&gt;Location: 516462 - 517362" locus_tag="HS041_14975" class="clusterblast-orf" id="dummy-3_q26_0_all"  />
<polygon points="315,35 317,30 317,40 315,35 " style="fill:white; stroke-width:1; stroke:black; " description="&lt;b&gt;HS041_14980&lt;/b&gt;&lt;br&gt;hypothetical protein&lt;br&gt;Location: 517936 - 518215" locus_tag="HS041_14980" class="clusterblast-orf" id="dummy-3_q27_0_all"  />
<polygon points="320,40 329,40 334,35 329,30 320,30 320,40 " style="fill:#1541d8; stroke-width:1; stroke:black; " description="&lt;b&gt;HS041_14985&lt;/b&gt;&lt;br&gt;acyl-CoA carboxylase subunit beta&lt;br&gt;Location: 518597 - 520223" locus_tag="HS041_14985" class="clusterblast-orf" id="dummy-3_q28_0_all"  />
<polygon points="337,40 339,35 337,30 337,40 " style="fill:white; stroke-width:1; stroke:black; " description="&lt;b&gt;HS041_14990&lt;/b&gt;&lt;br&gt;hypothetical protein&lt;br&gt;Location: 520566 - 520836" locus_tag="HS041_14990" class="clusterblast-orf" id="dummy-3_q29_0_all"  />
<polygon points="339,40 341,40 346,35 341,30 339,30 339,40 " style="fill:white; stroke-width:1; stroke:black; " description="&lt;b&gt;HS041_14995&lt;/b&gt;&lt;br&gt;4'-phosphopantetheinyl transferase superfamily protein&lt;br&gt;Location: 520860 - 521619" locus_tag="HS041_14995" class="clusterblast-orf" id="dummy-3_q30_0_all"  />
<polygon points="346,40 348,40 353,35 348,30 346,30 346,40 " style="fill:white; stroke-width:1; stroke:black; " description="&lt;b&gt;HS041_15000&lt;/b&gt;&lt;br&gt;alpha/beta hydrolase&lt;br&gt;Location: 521715 - 522441" locus_tag="HS041_15000" class="clusterblast-orf" id="dummy-3_q31_0_all"  />
<polygon points="353,35 357,30 357,40 353,35 " style="fill:white; stroke-width:1; stroke:black; " description="&lt;b&gt;HS041_15005&lt;/b&gt;&lt;br&gt;hypothetical protein&lt;br&gt;Location: 522501 - 523002" locus_tag="HS041_15005" class="clusterblast-orf" id="dummy-3_q32_0_all"  />
<polygon points="357,35 362,30 362,30 362,40 362,40 357,35 " style="fill:#d81597; stroke-width:1; stroke:black; " description="&lt;b&gt;HS041_15010&lt;/b&gt;&lt;br&gt;hypothetical protein&lt;br&gt;Location: 522995 - 523562" locus_tag="HS041_15010" class="clusterblast-orf" id="dummy-3_q33_0_all"  />
<polygon points="364,40 368,40 373,35 368,30 364,30 364,40 " style="fill:white; stroke-width:1; stroke:black; " description="&lt;b&gt;HS041_15015&lt;/b&gt;&lt;br&gt;alpha/beta hydrolase&lt;br&gt;Location: 523859 - 524906" locus_tag="HS041_15015" class="clusterblast-orf" id="dummy-3_q34_0_all"  />
<polygon points="375,40 381,40 386,35 381,30 375,30 375,40 " style="fill:white; stroke-width:1; stroke:black; " description="&lt;b&gt;HS041_15020&lt;/b&gt;&lt;br&gt;FAD-binding oxidoreductase&lt;br&gt;Location: 525072 - 526437" locus_tag="HS041_15020" class="clusterblast-orf" id="dummy-3_q35_0_all"  />
<polygon points="387,35 392,30 403,30 403,40 392,40 387,35 " style="fill:white; stroke-width:1; stroke:black; " description="&lt;b&gt;HS041_15025&lt;/b&gt;&lt;br&gt;asparagine synthase (glutamine-hydrolyzing)&lt;br&gt;Location: 526572 - 528420" locus_tag="HS041_15025" class="clusterblast-orf" id="dummy-3_q36_0_all"  />
<polygon points="403,35 408,30 413,30 413,40 408,40 403,35 " style="fill:white; stroke-width:1; stroke:black; " description="&lt;b&gt;HS041_15030&lt;/b&gt;&lt;br&gt;3-hydroxybenzoate 6-monooxygenase&lt;br&gt;Location: 528426 - 529641" locus_tag="HS041_15030" class="clusterblast-orf" id="dummy-3_q37_0_all"  />
<polygon points="413,35 418,30 429,30 429,40 418,40 413,35 " style="fill:white; stroke-width:1; stroke:black; " description="&lt;b&gt;HS041_15035&lt;/b&gt;&lt;br&gt;phenazine-specific anthranilate synthase&lt;br&gt;Location: 529637 - 531536" locus_tag="HS041_15035" class="clusterblast-orf" id="dummy-3_q38_0_all"  />
<polygon points="429,35 434,30 434,30 434,40 434,40 429,35 " style="fill:white; stroke-width:1; stroke:black; " description="&lt;b&gt;HS041_15040&lt;/b&gt;&lt;br&gt;isochorismatase family protein&lt;br&gt;Location: 531532 - 532186" locus_tag="HS041_15040" class="clusterblast-orf" id="dummy-3_q39_0_all"  />
<polygon points="435,35 440,30 441,30 441,40 440,40 435,35 " style="fill:white; stroke-width:1; stroke:black; " description="&lt;b&gt;HS041_15045&lt;/b&gt;&lt;br&gt;2,3-dihydro-2,3-dihydroxybenzoate dehydrogenase&lt;br&gt;Location: 532219 - 532984" locus_tag="HS041_15045" class="clusterblast-orf" id="dummy-3_q40_0_all"  />
<polygon points="443,40 465,40 470,35 465,30 443,30 443,40 " style="fill:white; stroke-width:1; stroke:black; " description="&lt;b&gt;HS041_15050&lt;/b&gt;&lt;br&gt;AMP-binding protein&lt;br&gt;Location: 533205 - 536418" locus_tag="HS041_15050" class="clusterblast-orf" id="dummy-3_q41_0_all"  />
<polygon points="470,40 479,40 484,35 479,30 470,30 470,40 " style="fill:#d8c315; stroke-width:1; stroke:black; " description="&lt;b&gt;HS041_15055&lt;/b&gt;&lt;br&gt;tyrosine 2,3-aminomutase&lt;br&gt;Location: 536419 - 538087" locus_tag="HS041_15055" class="clusterblast-orf" id="dummy-3_q42_0_all"  />
<polygon points="485,35 487,30 487,40 485,35 " style="fill:white; stroke-width:1; stroke:black; " description="&lt;b&gt;HS041_15060&lt;/b&gt;&lt;br&gt;helix-turn-helix domain-containing protein&lt;br&gt;Location: 538280 - 538469" locus_tag="HS041_15060" class="clusterblast-orf" id="dummy-3_q43_0_all"  />
<polygon points="488,35 493,30 501,30 501,40 493,40 488,35 " style="fill:#15d86c; stroke-width:1; stroke:black; " description="&lt;b&gt;HS041_15065&lt;/b&gt;&lt;br&gt;Pyoverdin chromophore biosynthetic protein pvcC&lt;br&gt;Location: 538617 - 540195" locus_tag="HS041_15065" class="clusterblast-orf" id="dummy-3_q44_0_all"  />
<polygon points="502,35 507,30 512,30 512,40 507,40 502,35 " style="fill:#1515d8; stroke-width:1; stroke:black; " description="&lt;b&gt;HS041_15070&lt;/b&gt;&lt;br&gt;acyl-CoA dehydrogenase family protein&lt;br&gt;Location: 540205 - 541426" locus_tag="HS041_15070" class="clusterblast-orf" id="dummy-3_q45_0_all"  />
<polygon points="514,40 516,40 521,35 516,30 514,30 514,40 " style="fill:#d8156c; stroke-width:1; stroke:black; " description="&lt;b&gt;HS041_15075&lt;/b&gt;&lt;br&gt;class I SAM-dependent methyltransferase&lt;br&gt;Location: 541748 - 542555" locus_tag="HS041_15075" class="clusterblast-orf" id="dummy-3_q46_0_all"  />
<polygon points="521,40 526,40 531,35 526,30 521,30 521,40 " style="fill:#c3d815; stroke-width:1; stroke:black; " description="&lt;b&gt;HS041_15080&lt;/b&gt;&lt;br&gt;DegT/DnrJ/EryC1/StrS family aminotransferase&lt;br&gt;Location: 542551 - 543661" locus_tag="HS041_15080" class="clusterblast-orf" id="dummy-3_q47_0_all"  />
<polygon points="531,35 536,30 549,30 549,40 536,40 531,35 " style="fill:white; stroke-width:1; stroke:black; " description="&lt;b&gt;HS041_15085&lt;/b&gt;&lt;br&gt;molybdopterin-dependent oxidoreductase&lt;br&gt;Location: 543715 - 545851" locus_tag="HS041_15085" class="clusterblast-orf" id="dummy-3_q48_0_all"  />
<polygon points="549,35 554,30 558,30 558,40 554,40 549,35 " style="fill:white; stroke-width:1; stroke:black; " description="&lt;b&gt;HS041_15090&lt;/b&gt;&lt;br&gt;2Fe-2S iron-sulfur cluster binding domain-containing protein&lt;br&gt;Location: 545872 - 546955" locus_tag="HS041_15090" class="clusterblast-orf" id="dummy-3_q49_0_all"  />
<polygon points="558,35 562,30 562,40 558,35 " style="fill:white; stroke-width:1; stroke:black; " description="&lt;b&gt;HS041_15095&lt;/b&gt;&lt;br&gt;phenylacetate-CoA oxygenase subunit PaaJ&lt;br&gt;Location: 546954 - 547419" locus_tag="HS041_15095" class="clusterblast-orf" id="dummy-3_q50_0_all"  />
<polygon points="562,35 567,30 568,30 568,40 567,40 562,35 " style="fill:white; stroke-width:1; stroke:black; " description="&lt;b&gt;HS041_15100&lt;/b&gt;&lt;br&gt;phenylacetate-CoA oxygenase subunit PaaC&lt;br&gt;Location: 547412 - 548144" locus_tag="HS041_15100" class="clusterblast-orf" id="dummy-3_q51_0_all"  />
<polygon points="568,35 573,30 579,30 579,40 573,40 568,35 " style="fill:white; stroke-width:1; stroke:black; " description="&lt;b&gt;HS041_15105&lt;/b&gt;&lt;br&gt;1,2-phenylacetyl-CoA epoxidase subunit A&lt;br&gt;Location: 548140 - 549433" locus_tag="HS041_15105" class="clusterblast-orf" id="dummy-3_q52_0_all"  />
<polygon points="579,40 587,40 592,35 587,30 579,30 579,40 " style="fill:white; stroke-width:1; stroke:black; " description="&lt;b&gt;HS041_15110&lt;/b&gt;&lt;br&gt;benzoate-CoA ligase family protein&lt;br&gt;Location: 549494 - 551021" locus_tag="HS041_15110" class="clusterblast-orf" id="dummy-3_q53_0_all"  />
<polygon points="592,35 597,30 599,30 599,40 597,40 592,35 " style="fill:white; stroke-width:1; stroke:black; " description="&lt;b&gt;HS041_15115&lt;/b&gt;&lt;br&gt;arylamine N-acetyltransferase&lt;br&gt;Location: 551021 - 551813" locus_tag="HS041_15115" class="clusterblast-orf" id="dummy-3_q54_0_all"  />
<polygon points="601,40 610,40 615,35 610,30 601,30 601,40 " style="fill:white; stroke-width:1; stroke:black; " description="&lt;b&gt;HS041_15120&lt;/b&gt;&lt;br&gt;non-ribosomal peptide synthetase&lt;br&gt;Location: 552036 - 553731" locus_tag="HS041_15120" class="clusterblast-orf" id="dummy-3_q55_0_all"  />
<polygon points="615,40 626,40 631,35 626,30 615,30 615,40 " style="fill:white; stroke-width:1; stroke:black; " description="&lt;b&gt;HS041_15125&lt;/b&gt;&lt;br&gt;B12-binding domain-containing radical SAM protein&lt;br&gt;Location: 553727 - 555632" locus_tag="HS041_15125" class="clusterblast-orf" id="dummy-3_q56_0_all"  />
<polygon points="631,40 635,40 640,35 635,30 631,30 631,40 " style="fill:white; stroke-width:1; stroke:black; " description="&lt;b&gt;HS041_15130&lt;/b&gt;&lt;br&gt;acyl-CoA dehydrogenase family protein&lt;br&gt;Location: 555621 - 556746" locus_tag="HS041_15130" class="clusterblast-orf" id="dummy-3_q57_0_all"  />
<polygon points="640,40 642,40 647,35 642,30 640,30 640,40 " style="fill:white; stroke-width:1; stroke:black; " description="&lt;b&gt;HS041_15135&lt;/b&gt;&lt;br&gt;thioesterase&lt;br&gt;Location: 556742 - 557534" locus_tag="HS041_15135" class="clusterblast-orf" id="dummy-3_q58_0_all"  />
<polygon points="647,40 652,40 657,35 652,30 647,30 647,40 " style="fill:white; stroke-width:1; stroke:black; " description="&lt;b&gt;HS041_15140&lt;/b&gt;&lt;br&gt;acyltransferase&lt;br&gt;Location: 557530 - 558760" locus_tag="HS041_15140" class="clusterblast-orf" id="dummy-3_q59_0_all"  />
<polygon points="658,40 660,40 665,35 660,30 658,30 658,40 " style="fill:white; stroke-width:1; stroke:black; " description="&lt;b&gt;HS041_15145&lt;/b&gt;&lt;br&gt;phytanoyl-CoA dioxygenase family protein&lt;br&gt;Location: 558856 - 559738" locus_tag="HS041_15145" class="clusterblast-orf" id="dummy-3_q60_0_all"  />
<polygon points="666,40 670,35 666,30 666,40 " style="fill:white; stroke-width:1; stroke:black; " description="&lt;b&gt;HS041_15150&lt;/b&gt;&lt;br&gt;SRPBCC domain-containing protein&lt;br&gt;Location: 559828 - 560284" locus_tag="HS041_15150" class="clusterblast-orf" id="dummy-3_q61_0_all"  />
<polygon points="676,35 681,30 686,30 686,40 681,40 676,35 " style="fill:#15d897; stroke-width:1; stroke:black; " description="&lt;b&gt;HS041_15155&lt;/b&gt;&lt;br&gt;class I SAM-dependent methyltransferase&lt;br&gt;Location: 560986 - 562198" locus_tag="HS041_15155" class="clusterblast-orf" id="dummy-3_q62_0_all"  />
<polygon points="687,35 692,30 698,30 698,40 692,40 687,35 " style="fill:white; stroke-width:1; stroke:black; " description="&lt;b&gt;HS041_15160&lt;/b&gt;&lt;br&gt;FAD-dependent oxidoreductase&lt;br&gt;Location: 562305 - 563664" locus_tag="HS041_15160" class="clusterblast-orf" id="dummy-3_q63_0_all"  />
<polygon points="698,35 703,30 711,30 711,40 703,40 698,35 " style="fill:white; stroke-width:1; stroke:black; " description="&lt;b&gt;HS041_15165&lt;/b&gt;&lt;br&gt;methyltransferase domain-containing protein&lt;br&gt;Location: 563664 - 565209" locus_tag="HS041_15165" class="clusterblast-orf" id="dummy-3_q64_0_all"  />
<polygon points="712,40 719,40 724,35 719,30 712,30 712,40 " style="fill:#4115d8; stroke-width:1; stroke:black; " description="&lt;b&gt;HS041_15170&lt;/b&gt;&lt;br&gt;extracellular solute-binding protein&lt;br&gt;Location: 565343 - 566771" locus_tag="HS041_15170" class="clusterblast-orf" id="dummy-3_q65_0_all"  />
<polygon points="725,35 730,30 736,30 736,40 730,40 725,35 " style="fill:#d81541; stroke-width:1; stroke:black; " description="&lt;b&gt;HS041_15175&lt;/b&gt;&lt;br&gt;DUF1205 domain-containing protein&lt;br&gt;Location: 566828 - 568124" locus_tag="HS041_15175" class="clusterblast-orf" id="dummy-3_q66_0_all"  />
<polygon points="738,40 741,40 746,35 741,30 738,30 738,40 " style="fill:#97d815; stroke-width:1; stroke:black; " description="&lt;b&gt;HS041_15180&lt;/b&gt;&lt;br&gt;NAD-dependent epimerase/dehydratase family protein&lt;br&gt;Location: 568354 - 569335" locus_tag="HS041_15180" class="clusterblast-orf" id="dummy-3_q67_0_all"  />
<polygon points="746,35 751,30 757,30 757,40 751,40 746,35 " style="fill:#15d8c3; stroke-width:1; stroke:black; " description="&lt;b&gt;HS041_15185&lt;/b&gt;&lt;br&gt;cytochrome P450&lt;br&gt;Location: 569385 - 570627" locus_tag="HS041_15185" class="clusterblast-orf" id="dummy-3_q68_0_all"  />
<polygon points="757,35 762,30 770,30 770,40 762,40 757,35 " style="fill:#6c15d8; stroke-width:1; stroke:black; " description="&lt;b&gt;HS041_15190&lt;/b&gt;&lt;br&gt;MFS transporter&lt;br&gt;Location: 570663 - 572235" locus_tag="HS041_15190" class="clusterblast-orf" id="dummy-3_q69_0_all"  />
<polygon points="770,35 775,30 780,30 780,40 775,40 770,35 " style="fill:white; stroke-width:1; stroke:black; " description="&lt;b&gt;HS041_15195&lt;/b&gt;&lt;br&gt;acyltransferase&lt;br&gt;Location: 572248 - 573352" locus_tag="HS041_15195" class="clusterblast-orf" id="dummy-3_q70_0_all"  />
</g>
<g label="BGC0001397" description="BGC0001397_c1: lidamycin (32% of genes show similarity), NRP+Polyketide" class="clusterblast-cluster"  >
<text x="5" y="70" class="clusterblast-acc"  >
<a xlink:href="https://mibig.secondarymetabolites.org/go/BGC0001397/1" target="_blank">BGC0001397</a>: lidamycin                                                                        (32% of genes show similarity), NRP+Polyketide</text>
<line x1="10" y1="85" x2="778.0" y2="85" style="stroke-width:1; stroke:grey; "  />
</g>
<g id="a3_000"  >
<polygon points="85,90 90,90 95,85 90,80 85,80 85,90 " style="fill:white; stroke-width:1; stroke:black; " description="&lt;b&gt;WQO_34030&lt;/b&gt;&lt;br&gt;hypothetical protein&lt;br&gt;Location: 72673 - 71486" locus_tag="WQO_34030" class="clusterblast-orf" id="dummy-3_h3_5_0"  />
</g>
<g id="a3_001"  >
<polygon points="95,85 99,80 99,90 95,85 " style="fill:white; stroke-width:1; stroke:black; " description="&lt;b&gt;WQO_34025&lt;/b&gt;&lt;br&gt;hypothetical protein&lt;br&gt;Location: 71396 - 70935" locus_tag="WQO_34025" class="clusterblast-orf" id="dummy-3_h3_5_1"  />
</g>
<g id="a3_002"  >
<polygon points="99,85 104,80 104,80 104,90 104,90 99,85 " style="fill:#d81597; stroke-width:1; stroke:black; " description="&lt;b&gt;WQO_34020&lt;/b&gt;&lt;br&gt;hypothetical protein&lt;br&gt;Location: 70930 - 70367&lt;br&gt;&lt;br&gt;&lt;b&gt;BlastP hit with HS041_15010&lt;/b&gt;&lt;br&gt;Percentage identity: 70&lt;br&gt;Percentage coverage: 91&lt;br&gt;BLAST bit score: 265&lt;br&gt;E-value: 3.63e-91" locus_tag="WQO_34020" class="clusterblast-orf" id="dummy-3_h3_5_2"  />
</g>
<g id="a3_003"  >
<polygon points="105,90 109,85 105,80 105,90 " style="fill:white; stroke-width:1; stroke:black; " description="&lt;b&gt;WQO_34015&lt;/b&gt;&lt;br&gt;HxlR family transcriptional regulator&lt;br&gt;Location: 70220 - 69777" locus_tag="WQO_34015" class="clusterblast-orf" id="dummy-3_h3_5_3"  />
</g>
<g id="a3_004"  >
<polygon points="110,90 114,90 119,85 114,80 110,80 110,90 " style="fill:#6cd815; stroke-width:1; stroke:black; " description="&lt;b&gt;WQO_34010&lt;/b&gt;&lt;br&gt;enediyne biosynthesis protein&lt;br&gt;Location: 69640 - 68612&lt;br&gt;&lt;br&gt;&lt;b&gt;BlastP hit with HS041_14895&lt;/b&gt;&lt;br&gt;Percentage identity: 63&lt;br&gt;Percentage coverage: 98&lt;br&gt;BLAST bit score: 391&lt;br&gt;E-value: 2.46e-136" locus_tag="WQO_34010" class="clusterblast-orf" id="dummy-3_h3_5_4"  />
</g>
<g id="a3_005"  >
<polygon points="120,90 123,90 128,85 123,80 120,80 120,90 " style="fill:#15c3d8; stroke-width:1; stroke:black; " description="&lt;b&gt;WQO_34005&lt;/b&gt;&lt;br&gt;enediyne biosynthesis protein&lt;br&gt;Location: 68435 - 67530&lt;br&gt;&lt;br&gt;&lt;b&gt;BlastP hit with HS041_14900&lt;/b&gt;&lt;br&gt;Percentage identity: 52&lt;br&gt;Percentage coverage: 90&lt;br&gt;BLAST bit score: 308&lt;br&gt;E-value: 2.07e-104" locus_tag="WQO_34005" class="clusterblast-orf" id="dummy-3_h3_5_5"  />
</g>
<g id="a3_006"  >
<polygon points="128,90 139,90 144,85 139,80 128,80 128,90 " style="fill:#9715d8; stroke-width:1; stroke:black; " description="&lt;b&gt;WQO_34000&lt;/b&gt;&lt;br&gt;RNA-binding protein&lt;br&gt;Location: 67473 - 65605&lt;br&gt;&lt;br&gt;&lt;b&gt;BlastP hit with HS041_14905&lt;/b&gt;&lt;br&gt;Percentage identity: 57&lt;br&gt;Percentage coverage: 98&lt;br&gt;BLAST bit score: 728&lt;br&gt;E-value: 1.45e-259" locus_tag="WQO_34000" class="clusterblast-orf" id="dummy-3_h3_5_6"  />
</g>
<g id="a3_007"  >
<polygon points="144,90 148,90 153,85 148,80 144,80 144,90 " style="fill:#d84115; stroke-width:1; stroke:black; " description="&lt;b&gt;WQO_33995&lt;/b&gt;&lt;br&gt;enediyne biosynthesis protein&lt;br&gt;Location: 65608 - 64478&lt;br&gt;&lt;br&gt;&lt;b&gt;BlastP hit with HS041_14910&lt;/b&gt;&lt;br&gt;Percentage identity: 67&lt;br&gt;Percentage coverage: 93&lt;br&gt;BLAST bit score: 427&lt;br&gt;E-value: 2.2e-150" locus_tag="WQO_33995" class="clusterblast-orf" id="dummy-3_h3_5_7"  />
</g>
<g id="a3_008"  >
<polygon points="153,90 197,90 202,85 197,80 153,80 153,90 " style="fill:#41d815; stroke-width:1; stroke:black; " description="&lt;b&gt;WQO_33990&lt;/b&gt;&lt;br&gt;erythronolide synthase&lt;br&gt;Location: 64481 - 58662&lt;br&gt;&lt;br&gt;&lt;b&gt;BlastP hit with HS041_14915&lt;/b&gt;&lt;br&gt;Percentage identity: 65&lt;br&gt;Percentage coverage: 101&lt;br&gt;BLAST bit score: 2367&lt;br&gt;E-value: 0.0" locus_tag="WQO_33990" class="clusterblast-orf" id="dummy-3_h3_5_8"  />
</g>
<g id="a3_009"  >
<polygon points="203,90 203,90 208,85 203,80 203,80 203,90 " style="fill:#c315d8; stroke-width:1; stroke:black; " description="&lt;b&gt;WQO_33985&lt;/b&gt;&lt;br&gt;flavin reductase&lt;br&gt;Location: 58536 - 57988&lt;br&gt;&lt;br&gt;&lt;b&gt;BlastP hit with HS041_14925&lt;/b&gt;&lt;br&gt;Percentage identity: 54&lt;br&gt;Percentage coverage: 96&lt;br&gt;BLAST bit score: 186&lt;br&gt;E-value: 2.26e-60" locus_tag="WQO_33985" class="clusterblast-orf" id="dummy-3_h3_5_9"  />
</g>
<g id="a3_0010"  >
<polygon points="208,90 214,90 219,85 214,80 208,80 208,90 " style="fill:#d86c15; stroke-width:1; stroke:black; " description="&lt;b&gt;WQO_33980&lt;/b&gt;&lt;br&gt;cytochrome P450&lt;br&gt;Location: 57991 - 56642&lt;br&gt;&lt;br&gt;&lt;b&gt;BlastP hit with HS041_14930&lt;/b&gt;&lt;br&gt;Percentage identity: 67&lt;br&gt;Percentage coverage: 101&lt;br&gt;BLAST bit score: 566&lt;br&gt;E-value: 7.76e-202" locus_tag="WQO_33980" class="clusterblast-orf" id="dummy-3_h3_5_10"  />
</g>
<g id="a3_0011"  >
<polygon points="218,85 223,80 225,80 225,90 223,90 218,85 " style="fill:#15d815; stroke-width:1; stroke:black; " description="&lt;b&gt;WQO_33975&lt;/b&gt;&lt;br&gt;hypothetical protein&lt;br&gt;Location: 56754 - 55900&lt;br&gt;&lt;br&gt;&lt;b&gt;BlastP hit with HS041_14935&lt;/b&gt;&lt;br&gt;Percentage identity: 49&lt;br&gt;Percentage coverage: 95&lt;br&gt;BLAST bit score: 219&lt;br&gt;E-value: 8.28e-71" locus_tag="WQO_33975" class="clusterblast-orf" id="dummy-3_h3_5_11"  />
</g>
<g id="a3_0012"  >
<polygon points="226,85 231,80 234,80 234,90 231,90 226,85 " style="fill:white; stroke-width:1; stroke:black; " description="&lt;b&gt;WQO_33970&lt;/b&gt;&lt;br&gt;transcriptional regulator&lt;br&gt;Location: 55874 - 54822" locus_tag="WQO_33970" class="clusterblast-orf" id="dummy-3_h3_5_12"  />
</g>
<g id="a3_0013"  >
<polygon points="237,90 237,90 242,85 237,80 237,80 237,90 " style="fill:#156cd8; stroke-width:1; stroke:black; " description="&lt;b&gt;WQO_33965&lt;/b&gt;&lt;br&gt;regulator&lt;br&gt;Location: 54537 - 53947&lt;br&gt;&lt;br&gt;&lt;b&gt;BlastP hit with HS041_14950&lt;/b&gt;&lt;br&gt;Percentage identity: 71&lt;br&gt;Percentage coverage: 93&lt;br&gt;BLAST bit score: 254&lt;br&gt;E-value: 8.99e-87" locus_tag="WQO_33965" class="clusterblast-orf" id="dummy-3_h3_5_13"  />
</g>
<g id="a3_0014"  >
<polygon points="242,90 251,90 256,85 251,80 242,80 242,90 " style="fill:#d815c3; stroke-width:1; stroke:black; " description="&lt;b&gt;WQO_33960&lt;/b&gt;&lt;br&gt;glucose-methanol-choline oxidoreductase&lt;br&gt;Location: 53950 - 52295&lt;br&gt;&lt;br&gt;&lt;b&gt;BlastP hit with HS041_14955&lt;/b&gt;&lt;br&gt;Percentage identity: 79&lt;br&gt;Percentage coverage: 98&lt;br&gt;BLAST bit score: 892&lt;br&gt;E-value: 0.0" locus_tag="WQO_33960" class="clusterblast-orf" id="dummy-3_h3_5_14"  />
</g>
<g id="a3_0015"  >
<polygon points="257,90 261,85 257,80 257,90 " style="fill:#1597d8; stroke-width:1; stroke:black; " description="&lt;b&gt;WQO_33955&lt;/b&gt;&lt;br&gt;4-hydroxybenzoyl-CoA thioesterase&lt;br&gt;Location: 52158 - 51688&lt;br&gt;&lt;br&gt;&lt;b&gt;BlastP hit with HS041_14920&lt;/b&gt;&lt;br&gt;Percentage identity: 78&lt;br&gt;Percentage coverage: 97&lt;br&gt;BLAST bit score: 229&lt;br&gt;E-value: 3e-78" locus_tag="WQO_33955" class="clusterblast-orf" id="dummy-3_h3_5_15"  />
</g>
<g id="a3_0016"  >
<polygon points="262,90 263,90 268,85 263,80 262,80 262,90 " style="fill:#15d841; stroke-width:1; stroke:black; " description="&lt;b&gt;WQO_33950&lt;/b&gt;&lt;br&gt;wyosine base formation domain-containing protein&lt;br&gt;Location: 51585 - 50782&lt;br&gt;&lt;br&gt;&lt;b&gt;BlastP hit with HS041_14965&lt;/b&gt;&lt;br&gt;Percentage identity: 64&lt;br&gt;Percentage coverage: 99&lt;br&gt;BLAST bit score: 347&lt;br&gt;E-value: 4.8e-121" locus_tag="WQO_33950" class="clusterblast-orf" id="dummy-3_h3_5_16"  />
</g>
<g id="a3_0017"  >
<polygon points="269,85 274,80 277,80 277,90 274,90 269,85 " style="fill:white; stroke-width:1; stroke:black; " description="&lt;b&gt;WQO_33945&lt;/b&gt;&lt;br&gt;hypothetical protein&lt;br&gt;Location: 50735 - 49761" locus_tag="WQO_33945" class="clusterblast-orf" id="dummy-3_h3_5_17"  />
</g>
<g id="a3_0018"  >
<polygon points="281,85 286,80 292,80 292,90 286,90 281,85 " style="fill:white; stroke-width:1; stroke:black; " description="&lt;b&gt;WQO_33940&lt;/b&gt;&lt;br&gt;DNA-binding protein&lt;br&gt;Location: 49234 - 47999" locus_tag="WQO_33940" class="clusterblast-orf" id="dummy-3_h3_5_18"  />
</g>
<g id="a3_0019"  >
<polygon points="294,90 294,90 299,85 294,80 294,80 294,90 " style="fill:white; stroke-width:1; stroke:black; " description="&lt;b&gt;WQO_33935&lt;/b&gt;&lt;br&gt;hypothetical protein&lt;br&gt;Location: 47739 - 47101" locus_tag="WQO_33935" class="clusterblast-orf" id="dummy-3_h3_5_19"  />
</g>
<g id="a3_0020"  >
<polygon points="302,90 302,90 307,85 302,80 302,80 302,90 " style="fill:white; stroke-width:1; stroke:black; " description="&lt;b&gt;WQO_33930&lt;/b&gt;&lt;br&gt;alkylhydroperoxidase&lt;br&gt;Location: 46772 - 46221" locus_tag="WQO_33930" class="clusterblast-orf" id="dummy-3_h3_5_20"  />
</g>
<g id="a3_0021"  >
<polygon points="307,90 310,90 315,85 310,80 307,80 307,90 " style="fill:white; stroke-width:1; stroke:black; " description="&lt;b&gt;WQO_33925&lt;/b&gt;&lt;br&gt;short-chain dehydrogenase&lt;br&gt;Location: 46196 - 45276" locus_tag="WQO_33925" class="clusterblast-orf" id="dummy-3_h3_5_21"  />
</g>
<g id="a3_0022"  >
<polygon points="315,85 320,80 323,80 323,90 320,90 315,85 " style="fill:#d89715; stroke-width:1; stroke:black; " description="&lt;b&gt;WQO_33920&lt;/b&gt;&lt;br&gt;alkylhydroperoxidase&lt;br&gt;Location: 45245 - 44205&lt;br&gt;&lt;br&gt;&lt;b&gt;BlastP hit with HS041_14960&lt;/b&gt;&lt;br&gt;Percentage identity: 52&lt;br&gt;Percentage coverage: 99&lt;br&gt;BLAST bit score: 292&lt;br&gt;E-value: 4.56e-97" locus_tag="WQO_33920" class="clusterblast-orf" id="dummy-3_h3_5_22"  />
</g>
<g id="a3_0023"  >
<polygon points="323,85 326,80 326,90 323,85 " style="fill:white; stroke-width:1; stroke:black; " description="&lt;b&gt;WQO_33915&lt;/b&gt;&lt;br&gt;hypothetical protein&lt;br&gt;Location: 44208 - 43873" locus_tag="WQO_33915" class="clusterblast-orf" id="dummy-3_h3_5_23"  />
</g>
<g id="a3_0024"  >
<polygon points="329,90 334,90 339,85 334,80 329,80 329,90 " style="fill:white; stroke-width:1; stroke:black; " description="&lt;b&gt;WQO_33910&lt;/b&gt;&lt;br&gt;acyl-CoA dehydrogenase&lt;br&gt;Location: 43569 - 42388" locus_tag="WQO_33910" class="clusterblast-orf" id="dummy-3_h3_5_24"  />
</g>
<g id="a3_0025"  >
<polygon points="339,85 344,80 350,80 350,90 344,90 339,85 " style="fill:white; stroke-width:1; stroke:black; " description="&lt;b&gt;WQO_33905&lt;/b&gt;&lt;br&gt;cytochrome&lt;br&gt;Location: 42335 - 41094" locus_tag="WQO_33905" class="clusterblast-orf" id="dummy-3_h3_5_25"  />
</g>
<g id="a3_0026"  >
<polygon points="350,85 355,80 359,80 359,90 355,90 350,85 " style="fill:white; stroke-width:1; stroke:black; " description="&lt;b&gt;WQO_33900&lt;/b&gt;&lt;br&gt;methyltransferase&lt;br&gt;Location: 41022 - 40021" locus_tag="WQO_33900" class="clusterblast-orf" id="dummy-3_h3_5_26"  />
</g>
<g id="a3_0027"  >
<polygon points="360,85 365,80 378,80 378,90 365,90 360,85 " style="fill:white; stroke-width:1; stroke:black; " description="&lt;b&gt;WQO_33895&lt;/b&gt;&lt;br&gt;hypothetical protein&lt;br&gt;Location: 39867 - 37759" locus_tag="WQO_33895" class="clusterblast-orf" id="dummy-3_h3_5_27"  />
</g>
<g id="a3_0028"  >
<polygon points="380,90 396,90 401,85 396,80 380,80 380,90 " style="fill:white; stroke-width:1; stroke:black; " description="&lt;b&gt;WQO_33890&lt;/b&gt;&lt;br&gt;hypothetical protein&lt;br&gt;Location: 37523 - 34908" locus_tag="WQO_33890" class="clusterblast-orf" id="dummy-3_h3_5_28"  />
</g>
<g id="a3_0029"  >
<polygon points="402,90 411,90 416,85 411,80 402,80 402,90 " style="fill:#d8c315; stroke-width:1; stroke:black; " description="&lt;b&gt;WQO_33885&lt;/b&gt;&lt;br&gt;tyrosine 2,3-aminomutase&lt;br&gt;Location: 34836 - 33223&lt;br&gt;&lt;br&gt;&lt;b&gt;BlastP hit with HS041_15055&lt;/b&gt;&lt;br&gt;Percentage identity: 72&lt;br&gt;Percentage coverage: 100&lt;br&gt;BLAST bit score: 754&lt;br&gt;E-value: 9.33e-273" locus_tag="WQO_33885" class="clusterblast-orf" id="dummy-3_h3_5_29"  />
</g>
<g id="a3_0030"  >
<polygon points="416,85 419,80 419,90 416,85 " style="fill:white; stroke-width:1; stroke:black; " description="&lt;b&gt;WQO_33880&lt;/b&gt;&lt;br&gt;phosphopantetheine-binding protein&lt;br&gt;Location: 33120 - 32839" locus_tag="WQO_33880" class="clusterblast-orf" id="dummy-3_h3_5_30"  />
</g>
<g id="a3_0031"  >
<polygon points="419,85 424,80 431,80 431,90 424,90 419,85 " style="fill:white; stroke-width:1; stroke:black; " description="&lt;b&gt;WQO_33875&lt;/b&gt;&lt;br&gt;hypothetical protein&lt;br&gt;Location: 32794 - 31415" locus_tag="WQO_33875" class="clusterblast-orf" id="dummy-3_h3_5_31"  />
</g>
<g id="a3_0032"  >
<polygon points="431,85 436,80 442,80 442,90 436,90 431,85 " style="fill:white; stroke-width:1; stroke:black; " description="&lt;b&gt;WQO_33870&lt;/b&gt;&lt;br&gt;cinnamoyl-CoA reductase&lt;br&gt;Location: 31346 - 30075" locus_tag="WQO_33870" class="clusterblast-orf" id="dummy-3_h3_5_32"  />
</g>
<g id="a3_0033"  >
<polygon points="444,90 448,85 444,80 444,90 " style="fill:white; stroke-width:1; stroke:black; " description="&lt;b&gt;WQO_33865&lt;/b&gt;&lt;br&gt;DUF4440 domain-containing protein&lt;br&gt;Location: 29794 - 29372" locus_tag="WQO_33865" class="clusterblast-orf" id="dummy-3_h3_5_33"  />
</g>
<g id="a3_0034"  >
<polygon points="450,90 452,90 457,85 452,80 450,80 450,90 " style="fill:white; stroke-width:1; stroke:black; " description="&lt;b&gt;WQO_33860&lt;/b&gt;&lt;br&gt;hydrolase&lt;br&gt;Location: 29150 - 28314" locus_tag="WQO_33860" class="clusterblast-orf" id="dummy-3_h3_5_34"  />
</g>
<g id="a3_0035"  >
<polygon points="457,85 462,80 470,80 470,90 462,90 457,85 " style="fill:#15d86c; stroke-width:1; stroke:black; " description="&lt;b&gt;WQO_33855&lt;/b&gt;&lt;br&gt;Pyoverdin chromophore biosynthetic protein pvcC&lt;br&gt;Location: 28240 - 26717&lt;br&gt;&lt;br&gt;&lt;b&gt;BlastP hit with HS041_15065&lt;/b&gt;&lt;br&gt;Percentage identity: 77&lt;br&gt;Percentage coverage: 96&lt;br&gt;BLAST bit score: 832&lt;br&gt;E-value: 8.75e-305" locus_tag="WQO_33855" class="clusterblast-orf" id="dummy-3_h3_5_35"  />
</g>
<g id="a3_0036"  >
<polygon points="471,85 473,80 473,90 471,85 " style="fill:white; stroke-width:1; stroke:black; " description="&lt;b&gt;WQO_33850&lt;/b&gt;&lt;br&gt;hypothetical protein&lt;br&gt;Location: 26616 - 26407" locus_tag="WQO_33850" class="clusterblast-orf" id="dummy-3_h3_5_36"  />
</g>
<g id="a3_0037"  >
<polygon points="473,85 478,80 484,80 484,90 478,90 473,85 " style="fill:white; stroke-width:1; stroke:black; " description="&lt;b&gt;WQO_33845&lt;/b&gt;&lt;br&gt;phenylacetate--CoA ligase&lt;br&gt;Location: 26438 - 25128" locus_tag="WQO_33845" class="clusterblast-orf" id="dummy-3_h3_5_37"  />
</g>
<g id="a3_0038"  >
<polygon points="484,85 489,80 497,80 497,90 489,90 484,85 " style="fill:#6c15d8; stroke-width:1; stroke:black; " description="&lt;b&gt;WQO_33840&lt;/b&gt;&lt;br&gt;MFS transporter&lt;br&gt;Location: 25045 - 23480&lt;br&gt;&lt;br&gt;&lt;b&gt;BlastP hit with HS041_15190&lt;/b&gt;&lt;br&gt;Percentage identity: 50&lt;br&gt;Percentage coverage: 98&lt;br&gt;BLAST bit score: 442&lt;br&gt;E-value: 1.05e-150" locus_tag="WQO_33840" class="clusterblast-orf" id="dummy-3_h3_5_38"  />
</g>
<g id="a3_0039"  >
<polygon points="498,85 503,80 506,80 506,90 503,90 498,85 " style="fill:white; stroke-width:1; stroke:black; " description="&lt;b&gt;WQO_33835&lt;/b&gt;&lt;br&gt;dTDP-glucose 4,6-dehydratase&lt;br&gt;Location: 23436 - 22438" locus_tag="WQO_33835" class="clusterblast-orf" id="dummy-3_h3_5_39"  />
</g>
<g id="a3_0040"  >
<polygon points="506,85 511,80 518,80 518,90 511,90 506,85 " style="fill:#d81541; stroke-width:1; stroke:black; " description="&lt;b&gt;WQO_33830&lt;/b&gt;&lt;br&gt;hypothetical protein&lt;br&gt;Location: 22441 - 21062&lt;br&gt;&lt;br&gt;&lt;b&gt;BlastP hit with HS041_15175&lt;/b&gt;&lt;br&gt;Percentage identity: 52&lt;br&gt;Percentage coverage: 105&lt;br&gt;BLAST bit score: 438&lt;br&gt;E-value: 1.69e-151" locus_tag="WQO_33830" class="clusterblast-orf" id="dummy-3_h3_5_40"  />
</g>
<g id="a3_0041"  >
<polygon points="518,85 523,80 529,80 529,90 523,90 518,85 " style="fill:white; stroke-width:1; stroke:black; " description="&lt;b&gt;WQO_33825&lt;/b&gt;&lt;br&gt;FAD-binding monooxygenase&lt;br&gt;Location: 21018 - 19663" locus_tag="WQO_33825" class="clusterblast-orf" id="dummy-3_h3_5_41"  />
</g>
<g id="a3_0042"  >
<polygon points="531,90 531,90 536,85 531,80 531,80 531,90 " style="fill:white; stroke-width:1; stroke:black; " description="&lt;b&gt;WQO_33820&lt;/b&gt;&lt;br&gt;dTDP-4-dehydrorhamnose 3,5-epimerase&lt;br&gt;Location: 19412 - 18834" locus_tag="WQO_33820" class="clusterblast-orf" id="dummy-3_h3_5_42"  />
</g>
<g id="a3_0043"  >
<polygon points="538,90 543,90 548,85 543,80 538,80 538,90 " style="fill:white; stroke-width:1; stroke:black; " description="&lt;b&gt;WQO_33815&lt;/b&gt;&lt;br&gt;hypothetical protein&lt;br&gt;Location: 18648 - 17413" locus_tag="WQO_33815" class="clusterblast-orf" id="dummy-3_h3_5_43"  />
</g>
<g id="a3_0044"  >
<polygon points="548,90 549,90 554,85 549,80 548,80 548,90 " style="fill:white; stroke-width:1; stroke:black; " description="&lt;b&gt;WQO_33810&lt;/b&gt;&lt;br&gt;NADPH-dependent FMN reductase&lt;br&gt;Location: 17393 - 16722" locus_tag="WQO_33810" class="clusterblast-orf" id="dummy-3_h3_5_44"  />
</g>
<g id="a3_0045"  >
<polygon points="554,90 561,90 566,85 561,80 554,80 554,90 " style="fill:white; stroke-width:1; stroke:black; " description="&lt;b&gt;WQO_33805&lt;/b&gt;&lt;br&gt;CoF synthetase&lt;br&gt;Location: 16683 - 15271" locus_tag="WQO_33805" class="clusterblast-orf" id="dummy-3_h3_5_45"  />
</g>
<g id="a3_0046"  >
<polygon points="566,90 574,90 579,85 574,80 566,80 566,90 " style="fill:white; stroke-width:1; stroke:black; " description="&lt;b&gt;WQO_33800&lt;/b&gt;&lt;br&gt;aminodeoxychorismate synthase component I&lt;br&gt;Location: 15254 - 13773" locus_tag="WQO_33800" class="clusterblast-orf" id="dummy-3_h3_5_46"  />
</g>
<g id="a3_0047"  >
<polygon points="580,90 584,85 580,80 580,90 " style="fill:white; stroke-width:1; stroke:black; " description="&lt;b&gt;WQO_33795&lt;/b&gt;&lt;br&gt;anthranilate synthase subunit II&lt;br&gt;Location: 13671 - 13114" locus_tag="WQO_33795" class="clusterblast-orf" id="dummy-3_h3_5_47"  />
</g>
<g id="a3_0048"  >
<polygon points="585,90 590,90 595,85 590,80 585,80 585,90 " style="fill:white; stroke-width:1; stroke:black; " description="&lt;b&gt;WQO_33790&lt;/b&gt;&lt;br&gt;epoxide hydrolase&lt;br&gt;Location: 13040 - 11883" locus_tag="WQO_33790" class="clusterblast-orf" id="dummy-3_h3_5_48"  />
</g>
<g id="a3_0049"  >
<polygon points="596,90 601,90 606,85 601,80 596,80 596,90 " style="fill:white; stroke-width:1; stroke:black; " description="&lt;b&gt;WQO_33785&lt;/b&gt;&lt;br&gt;SAM-dependent methyltransferase&lt;br&gt;Location: 11776 - 10505" locus_tag="WQO_33785" class="clusterblast-orf" id="dummy-3_h3_5_49"  />
</g>
<g id="a3_0050"  >
<polygon points="606,90 607,90 612,85 607,80 606,80 606,90 " style="fill:white; stroke-width:1; stroke:black; " description="&lt;b&gt;WQO_33780&lt;/b&gt;&lt;br&gt;SAM-dependent methyltransferase&lt;br&gt;Location: 10505 - 9771" locus_tag="WQO_33780" class="clusterblast-orf" id="dummy-3_h3_5_50"  />
</g>
<g id="a3_0051"  >
<polygon points="612,90 618,90 623,85 618,80 612,80 612,90 " style="fill:white; stroke-width:1; stroke:black; " description="&lt;b&gt;WQO_33775&lt;/b&gt;&lt;br&gt;dTDP-4-dehydro-6-deoxyglucose aminotransferase&lt;br&gt;Location: 9774 - 8542" locus_tag="WQO_33775" class="clusterblast-orf" id="dummy-3_h3_5_51"  />
</g>
<g id="a3_0052"  >
<polygon points="623,90 627,85 623,80 623,90 " style="fill:white; stroke-width:1; stroke:black; " description="&lt;b&gt;WQO_33770&lt;/b&gt;&lt;br&gt;hypothetical protein&lt;br&gt;Location: 8450 - 8064" locus_tag="WQO_33770" class="clusterblast-orf" id="dummy-3_h3_5_52"  />
</g>
<g id="a3_0053"  >
<polygon points="628,85 633,80 637,80 637,90 633,90 628,85 " style="fill:white; stroke-width:1; stroke:black; " description="&lt;b&gt;WQO_33765&lt;/b&gt;&lt;br&gt;glucose-1-phosphate thymidylyltransferase&lt;br&gt;Location: 7931 - 6864" locus_tag="WQO_33765" class="clusterblast-orf" id="dummy-3_h3_5_53"  />
</g>
<g id="a3_0054"  >
<polygon points="638,90 646,90 651,85 646,80 638,80 638,90 " style="fill:white; stroke-width:1; stroke:black; " description="&lt;b&gt;WQO_33760&lt;/b&gt;&lt;br&gt;tryptophan halogenase&lt;br&gt;Location: 6681 - 5203" locus_tag="WQO_33760" class="clusterblast-orf" id="dummy-3_h3_5_54"  />
</g>
<g id="a3_0055"  >
<polygon points="651,90 657,90 662,85 657,80 651,80 651,90 " style="fill:white; stroke-width:1; stroke:black; " description="&lt;b&gt;WQO_33755&lt;/b&gt;&lt;br&gt;sodium:proton exchanger&lt;br&gt;Location: 5216 - 3834" locus_tag="WQO_33755" class="clusterblast-orf" id="dummy-3_h3_5_55"  />
</g>
<g id="a3_0056"  >
<polygon points="663,90 677,90 682,85 677,80 663,80 663,90 " style="fill:white; stroke-width:1; stroke:black; " description="&lt;b&gt;WQO_33750&lt;/b&gt;&lt;br&gt;daunorubicin resistance protein DrrC&lt;br&gt;Location: 3753 - 1426" locus_tag="WQO_33750" class="clusterblast-orf" id="dummy-3_h3_5_56"  />
</g>
<g id="a3_0057"  >
<polygon points="683,85 688,80 694,80 694,90 688,90 683,85 " style="fill:#4115d8; stroke-width:1; stroke:black; " description="&lt;b&gt;WQO_33745&lt;/b&gt;&lt;br&gt;hypothetical protein&lt;br&gt;Location: 1320 - 1&lt;br&gt;&lt;br&gt;&lt;b&gt;BlastP hit with HS041_15170&lt;/b&gt;&lt;br&gt;Percentage identity: 46&lt;br&gt;Percentage coverage: 90&lt;br&gt;BLAST bit score: 392&lt;br&gt;E-value: 2.86e-133" locus_tag="WQO_33745" class="clusterblast-orf" id="dummy-3_h3_5_57"  />
</g>
</svg>
