<svg xmlns="http://www.w3.org/2000/svg" xmlns:xlink="http://www.w3.org/1999/xlink" version="1.1" x="0" y="0" height="230" width="800" viewBox="0 0 800 230" preserveAspectRatio="none"  >
<g label="Query sequence" class="clusterblast-cluster"  >
<text x="5" y="20" class="clusterblast-acc"  >
Query sequence</text>
<line x1="10" y1="35" x2="778.0" y2="35" style="stroke-width:1; stroke:grey; "  />
<polygon points="185,35 190,30 201,30 201,40 190,40 185,35 " style="fill:white; stroke-width:1; stroke:black; " description="&lt;b&gt;HS041_32600&lt;/b&gt;&lt;br&gt;hypothetical protein&lt;br&gt;Location: 377985 - 379809" locus_tag="HS041_32600" class="clusterblast-orf" id="dummy-1_q0_0_all"  />
<polygon points="200,35 205,30 208,30 208,40 205,40 200,35 " style="fill:white; stroke-width:1; stroke:black; " description="&lt;b&gt;HS041_32605&lt;/b&gt;&lt;br&gt;ABC transporter ATP-binding protein&lt;br&gt;Location: 379793 - 380630" locus_tag="HS041_32605" class="clusterblast-orf" id="dummy-1_q1_0_all"  />
<polygon points="209,35 214,30 217,30 217,40 214,40 209,35 " style="fill:white; stroke-width:1; stroke:black; " description="&lt;b&gt;HS041_32610&lt;/b&gt;&lt;br&gt;aldo/keto reductase&lt;br&gt;Location: 380759 - 381737" locus_tag="HS041_32610" class="clusterblast-orf" id="dummy-1_q2_0_all"  />
<polygon points="219,35 223,30 223,40 219,35 " style="fill:white; stroke-width:1; stroke:black; " description="&lt;b&gt;HS041_32615&lt;/b&gt;&lt;br&gt;hypothetical protein&lt;br&gt;Location: 381914 - 382430" locus_tag="HS041_32615" class="clusterblast-orf" id="dummy-1_q3_0_all"  />
<polygon points="225,35 230,30 238,30 238,40 230,40 225,35 " style="fill:white; stroke-width:1; stroke:black; " description="&lt;b&gt;HS041_32620&lt;/b&gt;&lt;br&gt;N-acetylmuramoyl-L-alanine amidase&lt;br&gt;Location: 382653 - 384165" locus_tag="HS041_32620" class="clusterblast-orf" id="dummy-1_q4_0_all"  />
<polygon points="240,40 242,40 247,35 242,30 240,30 240,40 " style="fill:white; stroke-width:1; stroke:black; " description="&lt;b&gt;HS041_32625&lt;/b&gt;&lt;br&gt;hypothetical protein&lt;br&gt;Location: 384428 - 385226" locus_tag="HS041_32625" class="clusterblast-orf" id="dummy-1_q5_0_all"  />
<polygon points="252,40 255,35 252,30 252,40 " style="fill:#d81515; stroke-width:1; stroke:black; " description="&lt;b&gt;HS041_32630&lt;/b&gt;&lt;br&gt;VOC family protein&lt;br&gt;Location: 385745 - 386096" locus_tag="HS041_32630" class="clusterblast-orf" id="dummy-1_q6_0_all"  />
<polygon points="256,40 259,35 256,30 256,40 " style="fill:white; stroke-width:1; stroke:black; " description="&lt;b&gt;HS041_32635&lt;/b&gt;&lt;br&gt;VOC family protein&lt;br&gt;Location: 386220 - 386607" locus_tag="HS041_32635" class="clusterblast-orf" id="dummy-1_q7_0_all"  />
<polygon points="260,35 265,30 271,30 271,40 265,40 260,35 " style="fill:white; stroke-width:1; stroke:black; " description="&lt;b&gt;HS041_32640&lt;/b&gt;&lt;br&gt;alpha/beta fold hydrolase&lt;br&gt;Location: 386683 - 387973" locus_tag="HS041_32640" class="clusterblast-orf" id="dummy-1_q8_0_all"  />
<polygon points="271,40 271,40 276,35 271,30 271,30 271,40 " style="fill:white; stroke-width:1; stroke:black; " description="&lt;b&gt;HS041_32645&lt;/b&gt;&lt;br&gt;helix-turn-helix domain-containing protein&lt;br&gt;Location: 388049 - 388580" locus_tag="HS041_32645" class="clusterblast-orf" id="dummy-1_q9_0_all"  />
<polygon points="276,35 281,30 283,30 283,40 281,40 276,35 " style="fill:white; stroke-width:1; stroke:black; " description="&lt;b&gt;HS041_32650&lt;/b&gt;&lt;br&gt;helix-turn-helix transcriptional regulator&lt;br&gt;Location: 388576 - 389389" locus_tag="HS041_32650" class="clusterblast-orf" id="dummy-1_q10_0_all"  />
<polygon points="284,40 289,40 294,35 289,30 284,30 284,40 " style="fill:white; stroke-width:1; stroke:black; " description="&lt;b&gt;HS041_32655&lt;/b&gt;&lt;br&gt;aminoglycoside phosphotransferase family protein&lt;br&gt;Location: 389556 - 390755" locus_tag="HS041_32655" class="clusterblast-orf" id="dummy-1_q11_0_all"  />
<polygon points="295,35 300,30 314,30 314,40 300,40 295,35 " style="fill:white; stroke-width:1; stroke:black; " description="&lt;b&gt;HS041_32660&lt;/b&gt;&lt;br&gt;accessory Sec system translocase SecA2&lt;br&gt;Location: 390821 - 393044" locus_tag="HS041_32660" class="clusterblast-orf" id="dummy-1_q12_0_all"  />
<polygon points="315,35 320,30 325,30 325,40 320,40 315,35 " style="fill:white; stroke-width:1; stroke:black; " description="&lt;b&gt;HS041_32665&lt;/b&gt;&lt;br&gt;helix-turn-helix domain-containing protein&lt;br&gt;Location: 393147 - 394269" locus_tag="HS041_32665" class="clusterblast-orf" id="dummy-1_q13_0_all"  />
<polygon points="327,40 328,40 333,35 328,30 327,30 327,40 " style="fill:#15d863; stroke-width:1; stroke:black; " description="&lt;b&gt;HS041_32670&lt;/b&gt;&lt;br&gt;class II aldolase/adducin family protein&lt;br&gt;Location: 394498 - 395290" locus_tag="HS041_32670" class="clusterblast-orf" id="dummy-1_q14_0_all"  />
<polygon points="334,35 339,30 350,30 350,40 339,40 334,35 " style="fill:white; stroke-width:1; stroke:black; " description="&lt;b&gt;HS041_32675&lt;/b&gt;&lt;br&gt;winged helix-turn-helix domain-containing protein&lt;br&gt;Location: 395347 - 397192" locus_tag="HS041_32675" class="clusterblast-orf" id="dummy-1_q15_0_all"  />
<polygon points="353,40 376,40 381,35 376,30 353,30 353,40 " style="fill:#1563d8; stroke-width:1; stroke:black; " description="&lt;b&gt;HS041_32680&lt;/b&gt;&lt;br&gt;amino acid adenylation domain-containing protein&lt;br&gt;Location: 397572 - 400794" locus_tag="HS041_32680" class="clusterblast-orf" id="dummy-1_q16_0_all"  />
<polygon points="381,40 424,40 429,35 424,30 381,30 381,40 " style="fill:#b115d8; stroke-width:1; stroke:black; " description="&lt;b&gt;HS041_32685&lt;/b&gt;&lt;br&gt;amino acid adenylation domain-containing protein&lt;br&gt;Location: 400790 - 406460" locus_tag="HS041_32685" class="clusterblast-orf" id="dummy-1_q17_0_all"  />
<polygon points="429,40 433,40 438,35 433,30 429,30 429,40 " style="fill:#b1d815; stroke-width:1; stroke:black; " description="&lt;b&gt;HS041_32690&lt;/b&gt;&lt;br&gt;TauD/TfdA family dioxygenase&lt;br&gt;Location: 406456 - 407431" locus_tag="HS041_32690" class="clusterblast-orf" id="dummy-1_q18_0_all"  />
<polygon points="439,40 448,40 453,35 448,30 439,30 439,40 " style="fill:white; stroke-width:1; stroke:black; " description="&lt;b&gt;HS041_32695&lt;/b&gt;&lt;br&gt;CHASE3 domain-containing protein&lt;br&gt;Location: 407635 - 409249" locus_tag="HS041_32695" class="clusterblast-orf" id="dummy-1_q19_0_all"  />
<polygon points="453,40 456,35 453,30 453,40 " style="fill:white; stroke-width:1; stroke:black; " description="&lt;b&gt;HS041_32700&lt;/b&gt;&lt;br&gt;VOC family protein&lt;br&gt;Location: 409274 - 409634" locus_tag="HS041_32700" class="clusterblast-orf" id="dummy-1_q20_0_all"  />
<polygon points="457,35 462,30 467,30 467,40 462,40 457,35 " style="fill:white; stroke-width:1; stroke:black; " description="&lt;b&gt;HS041_32705&lt;/b&gt;&lt;br&gt;M20 family metallopeptidase&lt;br&gt;Location: 409668 - 410853" locus_tag="HS041_32705" class="clusterblast-orf" id="dummy-1_q21_0_all"  />
<polygon points="470,35 475,30 478,30 478,40 475,40 470,35 " style="fill:white; stroke-width:1; stroke:black; " description="&lt;b&gt;HS041_32710&lt;/b&gt;&lt;br&gt;EamA family transporter&lt;br&gt;Location: 411249 - 412152" locus_tag="HS041_32710" class="clusterblast-orf" id="dummy-1_q22_0_all"  />
<polygon points="482,40 484,40 489,35 484,30 482,30 482,40 " style="fill:white; stroke-width:1; stroke:black; " description="&lt;b&gt;HS041_32715&lt;/b&gt;&lt;br&gt;DMT family transporter&lt;br&gt;Location: 412573 - 413440" locus_tag="HS041_32715" class="clusterblast-orf" id="dummy-1_q23_0_all"  />
<polygon points="489,35 494,30 500,30 500,40 494,40 489,35 " style="fill:white; stroke-width:1; stroke:black; " description="&lt;b&gt;HS041_32720&lt;/b&gt;&lt;br&gt;FAD-dependent monooxygenase&lt;br&gt;Location: 413451 - 414669" locus_tag="HS041_32720" class="clusterblast-orf" id="dummy-1_q24_0_all"  />
<polygon points="500,40 501,40 506,35 501,30 500,30 500,40 " style="fill:white; stroke-width:1; stroke:black; " description="&lt;b&gt;HS041_32725&lt;/b&gt;&lt;br&gt;TetR/AcrR family transcriptional regulator&lt;br&gt;Location: 414741 - 415380" locus_tag="HS041_32725" class="clusterblast-orf" id="dummy-1_q25_0_all"  />
<polygon points="506,35 511,30 511,30 511,40 511,40 506,35 " style="fill:white; stroke-width:1; stroke:black; " description="&lt;b&gt;HS041_32730&lt;/b&gt;&lt;br&gt;GNAT family N-acetyltransferase&lt;br&gt;Location: 415410 - 416022" locus_tag="HS041_32730" class="clusterblast-orf" id="dummy-1_q26_0_all"  />
<polygon points="513,40 518,40 523,35 518,30 513,30 513,40 " style="fill:white; stroke-width:1; stroke:black; " description="&lt;b&gt;HS041_32735&lt;/b&gt;&lt;br&gt;acyl-CoA dehydrogenase family protein&lt;br&gt;Location: 416232 - 417447" locus_tag="HS041_32735" class="clusterblast-orf" id="dummy-1_q27_0_all"  />
<polygon points="523,40 528,40 533,35 528,30 523,30 523,40 " style="fill:white; stroke-width:1; stroke:black; " description="&lt;b&gt;HS041_32740&lt;/b&gt;&lt;br&gt;acyl-CoA dehydrogenase family protein&lt;br&gt;Location: 417443 - 418610" locus_tag="HS041_32740" class="clusterblast-orf" id="dummy-1_q28_0_all"  />
<polygon points="535,40 539,40 544,35 539,30 535,30 535,40 " style="fill:white; stroke-width:1; stroke:black; " description="&lt;b&gt;HS041_32745&lt;/b&gt;&lt;br&gt;acyl-CoA/acyl-ACP dehydrogenase&lt;br&gt;Location: 418784 - 419858" locus_tag="HS041_32745" class="clusterblast-orf" id="dummy-1_q29_0_all"  />
<polygon points="545,35 550,30 550,30 550,40 550,40 545,35 " style="fill:white; stroke-width:1; stroke:black; " description="&lt;b&gt;HS041_32750&lt;/b&gt;&lt;br&gt;helix-turn-helix transcriptional regulator&lt;br&gt;Location: 419935 - 420529" locus_tag="HS041_32750" class="clusterblast-orf" id="dummy-1_q30_0_all"  />
<polygon points="551,40 553,40 558,35 553,30 551,30 551,40 " style="fill:white; stroke-width:1; stroke:black; " description="&lt;b&gt;HS041_32755&lt;/b&gt;&lt;br&gt;SDR family oxidoreductase&lt;br&gt;Location: 420644 - 421451" locus_tag="HS041_32755" class="clusterblast-orf" id="dummy-1_q31_0_all"  />
<polygon points="557,35 562,30 563,30 563,40 562,40 557,35 " style="fill:white; stroke-width:1; stroke:black; " description="&lt;b&gt;HS041_32760&lt;/b&gt;&lt;br&gt;TetR/AcrR family transcriptional regulator&lt;br&gt;Location: 421419 - 422013" locus_tag="HS041_32760" class="clusterblast-orf" id="dummy-1_q32_0_all"  />
<polygon points="564,40 566,40 571,35 566,30 564,30 564,40 " style="fill:white; stroke-width:1; stroke:black; " description="&lt;b&gt;HS041_32765&lt;/b&gt;&lt;br&gt;NERD domain-containing protein&lt;br&gt;Location: 422196 - 422973" locus_tag="HS041_32765" class="clusterblast-orf" id="dummy-1_q33_0_all"  />
<polygon points="571,35 576,30 584,30 584,40 576,40 571,35 " style="fill:white; stroke-width:1; stroke:black; " description="&lt;b&gt;HS041_32770&lt;/b&gt;&lt;br&gt;VWA domain-containing protein&lt;br&gt;Location: 422993 - 424523" locus_tag="HS041_32770" class="clusterblast-orf" id="dummy-1_q34_0_all"  />
<polygon points="583,35 588,30 591,30 591,40 588,40 583,35 " style="fill:white; stroke-width:1; stroke:black; " description="&lt;b&gt;HS041_32775&lt;/b&gt;&lt;br&gt;MoxR family ATPase&lt;br&gt;Location: 424437 - 425289" locus_tag="HS041_32775" class="clusterblast-orf" id="dummy-1_q35_0_all"  />
<polygon points="592,35 594,30 594,40 592,35 " style="fill:white; stroke-width:1; stroke:black; " description="&lt;b&gt;HS041_32785&lt;/b&gt;&lt;br&gt;hypothetical protein&lt;br&gt;Location: 425429 - 425702" locus_tag="HS041_32785" class="clusterblast-orf" id="dummy-1_q36_0_all"  />
</g>
<g label="BGC0002350" description="BGC0002350_c1: bleomycin A2/bleomycin B2 (7% of genes show similarity), NRP+Polyketide+Saccharide" class="clusterblast-cluster"  >
<text x="5" y="70" class="clusterblast-acc"  >
<a xlink:href="https://mibig.secondarymetabolites.org/go/BGC0002350/1" target="_blank">BGC0002350</a>: bleomycin A2/bleomycin B2                                                        (7% of genes show similarity), NRP+Polyketide+Saccharide</text>
<line x1="10" y1="85" x2="778.0" y2="85" style="stroke-width:1; stroke:grey; "  />
</g>
<g id="a1_000"  >
<polygon points="0,85 5,80 14,80 14,90 5,90 0,85 " style="fill:white; stroke-width:1; stroke:black; " description="&lt;b&gt;J7W19_00305&lt;/b&gt;&lt;br&gt;ABC transporter ATP-binding protein&lt;br&gt;Location: 1 - 1659" locus_tag="J7W19_00305" class="clusterblast-orf" id="dummy-1_h1_6_0"  />
</g>
<g id="a1_001"  >
<polygon points="15,85 20,80 23,80 23,90 20,90 15,85 " style="fill:white; stroke-width:1; stroke:black; " description="&lt;b&gt;J7W19_00310&lt;/b&gt;&lt;br&gt;amidinotransferase&lt;br&gt;Location: 1812 - 2792" locus_tag="J7W19_00310" class="clusterblast-orf" id="dummy-1_h1_6_1"  />
</g>
<g id="a1_002"  >
<polygon points="24,85 29,80 32,80 32,90 29,90 24,85 " style="fill:white; stroke-width:1; stroke:black; " description="&lt;b&gt;J7W19_00315&lt;/b&gt;&lt;br&gt;bleomycin family antibiotic N-acetyltransferase BlmB&lt;br&gt;Location: 2828 - 3733" locus_tag="J7W19_00315" class="clusterblast-orf" id="dummy-1_h1_6_2"  />
</g>
<g id="a1_003"  >
<polygon points="31,85 35,80 35,90 31,85 " style="fill:white; stroke-width:1; stroke:black; " description="&lt;b&gt;J7W19_00320&lt;/b&gt;&lt;br&gt;hypothetical protein&lt;br&gt;Location: 3730 - 4131" locus_tag="J7W19_00320" class="clusterblast-orf" id="dummy-1_h1_6_3"  />
</g>
<g id="a1_004"  >
<polygon points="35,85 40,80 40,80 40,90 40,90 35,85 " style="fill:white; stroke-width:1; stroke:black; " description="&lt;b&gt;J7W19_00325&lt;/b&gt;&lt;br&gt;ankyrin repeat domain-containing protein&lt;br&gt;Location: 4128 - 4709" locus_tag="J7W19_00325" class="clusterblast-orf" id="dummy-1_h1_6_4"  />
</g>
<g id="a1_005"  >
<polygon points="40,85 44,80 44,90 40,85 " style="fill:white; stroke-width:1; stroke:black; " description="&lt;b&gt;J7W19_00330&lt;/b&gt;&lt;br&gt;bleomycin binding protein BLMA&lt;br&gt;Location: 4767 - 5135" locus_tag="J7W19_00330" class="clusterblast-orf" id="dummy-1_h1_6_5"  />
</g>
<g id="a1_006"  >
<polygon points="44,85 49,80 52,80 52,90 49,90 44,85 " style="fill:white; stroke-width:1; stroke:black; " description="&lt;b&gt;J7W19_00335&lt;/b&gt;&lt;br&gt;aspartyl/asparaginyl beta-hydroxylase domain-containing protein&lt;br&gt;Location: 5203 - 6117" locus_tag="J7W19_00335" class="clusterblast-orf" id="dummy-1_h1_6_6"  />
</g>
<g id="a1_007"  >
<polygon points="52,85 57,80 63,80 63,90 57,90 52,85 " style="fill:white; stroke-width:1; stroke:black; " description="&lt;b&gt;J7W19_00340&lt;/b&gt;&lt;br&gt;radical SAM protein&lt;br&gt;Location: 6143 - 7417" locus_tag="J7W19_00340" class="clusterblast-orf" id="dummy-1_h1_6_7"  />
</g>
<g id="a1_008"  >
<polygon points="63,85 68,80 76,80 76,90 68,90 63,85 " style="fill:white; stroke-width:1; stroke:black; " description="&lt;b&gt;J7W19_00345&lt;/b&gt;&lt;br&gt;D-glycero-beta-D-manno-heptose 1-phosphate adenylyltransferase&lt;br&gt;Location: 7414 - 8910" locus_tag="J7W19_00345" class="clusterblast-orf" id="dummy-1_h1_6_8"  />
</g>
<g id="a1_009"  >
<polygon points="76,85 78,80 78,90 76,85 " style="fill:white; stroke-width:1; stroke:black; " description="&lt;b&gt;J7W19_00350&lt;/b&gt;&lt;br&gt;hypothetical protein&lt;br&gt;Location: 8907 - 9179" locus_tag="J7W19_00350" class="clusterblast-orf" id="dummy-1_h1_6_9"  />
</g>
<g id="a1_0010"  >
<polygon points="78,85 83,80 92,80 92,90 83,90 78,85 " style="fill:white; stroke-width:1; stroke:black; " description="&lt;b&gt;J7W19_00355&lt;/b&gt;&lt;br&gt;carbamoyltransferase&lt;br&gt;Location: 9176 - 10813" locus_tag="J7W19_00355" class="clusterblast-orf" id="dummy-1_h1_6_10"  />
</g>
<g id="a1_0011"  >
<polygon points="92,85 97,80 102,80 102,90 97,90 92,85 " style="fill:white; stroke-width:1; stroke:black; " description="&lt;b&gt;J7W19_00360&lt;/b&gt;&lt;br&gt;glycosyltransferase family 9 protein&lt;br&gt;Location: 10810 - 11982" locus_tag="J7W19_00360" class="clusterblast-orf" id="dummy-1_h1_6_11"  />
</g>
<g id="a1_0012"  >
<polygon points="103,85 108,80 108,80 108,90 108,90 103,85 " style="fill:white; stroke-width:1; stroke:black; " description="&lt;b&gt;J7W19_00365&lt;/b&gt;&lt;br&gt;MbtH family NRPS accessory protein&lt;br&gt;Location: 12054 - 12617" locus_tag="J7W19_00365" class="clusterblast-orf" id="dummy-1_h1_6_12"  />
</g>
<g id="a1_0013"  >
<polygon points="108,85 113,80 120,80 120,90 113,90 108,85 " style="fill:white; stroke-width:1; stroke:black; " description="&lt;b&gt;J7W19_00370&lt;/b&gt;&lt;br&gt;hypothetical protein&lt;br&gt;Location: 12614 - 14002" locus_tag="J7W19_00370" class="clusterblast-orf" id="dummy-1_h1_6_13"  />
</g>
<g id="a1_0014"  >
<polygon points="120,85 125,80 128,80 128,90 125,90 120,85 " style="fill:#b1d815; stroke-width:1; stroke:black; " description="&lt;b&gt;J7W19_00375&lt;/b&gt;&lt;br&gt;TauD/TfdA family dioxygenase&lt;br&gt;Location: 13999 - 14931&lt;br&gt;&lt;br&gt;&lt;b&gt;BlastP hit with HS041_32690&lt;/b&gt;&lt;br&gt;Percentage identity: 50&lt;br&gt;Percentage coverage: 90&lt;br&gt;BLAST bit score: 283&lt;br&gt;E-value: 1.78e-94" locus_tag="J7W19_00375" class="clusterblast-orf" id="dummy-1_h1_6_14"  />
</g>
<g id="a1_0015"  >
<polygon points="128,85 133,80 152,80 152,90 133,90 128,85 " style="fill:white; stroke-width:1; stroke:black; " description="&lt;b&gt;J7W19_00380&lt;/b&gt;&lt;br&gt;AMP-binding protein&lt;br&gt;Location: 15015 - 17837" locus_tag="J7W19_00380" class="clusterblast-orf" id="dummy-1_h1_6_15"  />
</g>
<g id="a1_0016"  >
<polygon points="152,85 157,80 220,80 220,90 157,90 152,85 " style="fill:white; stroke-width:1; stroke:black; " description="&lt;b&gt;J7W19_00385&lt;/b&gt;&lt;br&gt;amino acid adenylation domain-containing protein&lt;br&gt;Location: 17834 - 25732" locus_tag="J7W19_00385" class="clusterblast-orf" id="dummy-1_h1_6_16"  />
</g>
<g id="a1_0017"  >
<polygon points="220,85 225,80 236,80 236,90 225,90 220,85 " style="fill:white; stroke-width:1; stroke:black; " description="&lt;b&gt;J7W19_00390&lt;/b&gt;&lt;br&gt;asparagine synthase (glutamine-hydrolyzing)&lt;br&gt;Location: 25725 - 27632" locus_tag="J7W19_00390" class="clusterblast-orf" id="dummy-1_h1_6_17"  />
</g>
<g id="a1_0018"  >
<polygon points="237,85 242,80 249,80 249,90 242,90 237,85 " style="fill:white; stroke-width:1; stroke:black; " description="&lt;b&gt;J7W19_00395&lt;/b&gt;&lt;br&gt;aspartyl/asparaginyl beta-hydroxylase domain-containing protein&lt;br&gt;Location: 27638 - 29152" locus_tag="J7W19_00395" class="clusterblast-orf" id="dummy-1_h1_6_18"  />
</g>
<g id="a1_0019"  >
<polygon points="249,85 254,80 258,80 258,90 254,90 249,85 " style="fill:white; stroke-width:1; stroke:black; " description="&lt;b&gt;J7W19_00400&lt;/b&gt;&lt;br&gt;NAD-dependent epimerase/dehydratase family protein&lt;br&gt;Location: 29145 - 30122" locus_tag="J7W19_00400" class="clusterblast-orf" id="dummy-1_h1_6_19"  />
</g>
<g id="a1_0020"  >
<polygon points="258,85 263,80 274,80 274,90 263,90 258,85 " style="fill:white; stroke-width:1; stroke:black; " description="&lt;b&gt;J7W19_00405&lt;/b&gt;&lt;br&gt;hypothetical protein&lt;br&gt;Location: 30119 - 32056" locus_tag="J7W19_00405" class="clusterblast-orf" id="dummy-1_h1_6_20"  />
</g>
<g id="a1_0021"  >
<polygon points="276,85 281,80 345,80 345,90 281,90 276,85 " style="fill:white; stroke-width:1; stroke:black; " description="&lt;b&gt;J7W19_00410&lt;/b&gt;&lt;br&gt;amino acid adenylation domain-containing protein&lt;br&gt;Location: 32259 - 40304" locus_tag="J7W19_00410" class="clusterblast-orf" id="dummy-1_h1_6_21"  />
</g>
<g id="a1_0022"  >
<polygon points="345,85 350,80 376,80 376,90 350,90 345,85 " style="fill:white; stroke-width:1; stroke:black; " description="&lt;b&gt;J7W19_00415&lt;/b&gt;&lt;br&gt;non-ribosomal peptide synthetase&lt;br&gt;Location: 40286 - 43900" locus_tag="J7W19_00415" class="clusterblast-orf" id="dummy-1_h1_6_22"  />
</g>
<g id="a1_0023"  >
<polygon points="376,85 381,80 423,80 423,90 381,90 376,85 " style="fill:white; stroke-width:1; stroke:black; " description="&lt;b&gt;J7W19_00420&lt;/b&gt;&lt;br&gt;type I polyketide synthase&lt;br&gt;Location: 43897 - 49422" locus_tag="J7W19_00420" class="clusterblast-orf" id="dummy-1_h1_6_23"  />
</g>
<g id="a1_0024"  >
<polygon points="423,85 428,80 451,80 451,90 428,90 423,85 " style="fill:white; stroke-width:1; stroke:black; " description="&lt;b&gt;J7W19_00425&lt;/b&gt;&lt;br&gt;non-ribosomal peptide synthetase&lt;br&gt;Location: 49419 - 52619" locus_tag="J7W19_00425" class="clusterblast-orf" id="dummy-1_h1_6_24"  />
</g>
<g id="a1_0025"  >
<polygon points="451,85 456,80 506,80 506,90 456,90 451,85 " style="fill:white; stroke-width:1; stroke:black; " description="&lt;b&gt;J7W19_00430&lt;/b&gt;&lt;br&gt;non-ribosomal peptide synthetase&lt;br&gt;Location: 52616 - 59035" locus_tag="J7W19_00430" class="clusterblast-orf" id="dummy-1_h1_6_25"  />
</g>
<g id="a1_0026"  >
<polygon points="508,85 513,80 525,80 525,90 513,90 508,85 " style="fill:white; stroke-width:1; stroke:black; " description="&lt;b&gt;J7W19_00435&lt;/b&gt;&lt;br&gt;hypothetical protein&lt;br&gt;Location: 59317 - 61248" locus_tag="J7W19_00435" class="clusterblast-orf" id="dummy-1_h1_6_26"  />
</g>
<g id="a1_0027"  >
<polygon points="526,85 531,80 532,80 532,90 531,90 526,85 " style="fill:white; stroke-width:1; stroke:black; " description="&lt;b&gt;J7W19_00440&lt;/b&gt;&lt;br&gt;phosphatidylserine decarboxylase&lt;br&gt;Location: 61424 - 62143" locus_tag="J7W19_00440" class="clusterblast-orf" id="dummy-1_h1_6_27"  />
</g>
<g id="a1_0028"  >
<polygon points="536,85 541,80 551,80 551,90 541,90 536,85 " style="fill:white; stroke-width:1; stroke:black; " description="&lt;b&gt;J7W19_00445&lt;/b&gt;&lt;br&gt;SulP family inorganic anion transporter&lt;br&gt;Location: 62601 - 64350" locus_tag="J7W19_00445" class="clusterblast-orf" id="dummy-1_h1_6_28"  />
</g>
<g id="a1_0029"  >
<polygon points="551,85 554,80 554,90 551,85 " style="fill:white; stroke-width:1; stroke:black; " description="&lt;b&gt;J7W19_00450&lt;/b&gt;&lt;br&gt;winged helix-turn-helix transcriptional regulator&lt;br&gt;Location: 64347 - 64688" locus_tag="J7W19_00450" class="clusterblast-orf" id="dummy-1_h1_6_29"  />
</g>
<g id="a1_0030"  >
<polygon points="556,90 559,85 556,80 556,90 " style="fill:white; stroke-width:1; stroke:black; " description="&lt;b&gt;J7W19_00455&lt;/b&gt;&lt;br&gt;alkylphosphonate utilization protein&lt;br&gt;Location: 64851 - 65204" locus_tag="J7W19_00455" class="clusterblast-orf" id="dummy-1_h1_6_30"  />
</g>
<g id="a1_0031"  >
<polygon points="564,90 632,90 637,85 632,80 564,80 564,90 " style="fill:white; stroke-width:1; stroke:black; " description="&lt;b&gt;J7W19_00460&lt;/b&gt;&lt;br&gt;amino acid adenylation domain-containing protein&lt;br&gt;Location: 65841 - 74303" locus_tag="J7W19_00460" class="clusterblast-orf" id="dummy-1_h1_6_31"  />
</g>
<g id="a1_0032"  >
<polygon points="637,90 640,90 645,85 640,80 637,80 637,90 " style="fill:white; stroke-width:1; stroke:black; " description="&lt;b&gt;J7W19_00465&lt;/b&gt;&lt;br&gt;TauD/TfdA family dioxygenase&lt;br&gt;Location: 74296 - 75309" locus_tag="J7W19_00465" class="clusterblast-orf" id="dummy-1_h1_6_32"  />
</g>
<g id="a1_0033"  >
<polygon points="645,90 647,90 652,85 647,80 645,80 645,90 " style="fill:white; stroke-width:1; stroke:black; " description="&lt;b&gt;J7W19_00470&lt;/b&gt;&lt;br&gt;thioesterase&lt;br&gt;Location: 75320 - 76072" locus_tag="J7W19_00470" class="clusterblast-orf" id="dummy-1_h1_6_33"  />
</g>
<g id="a1_0034"  >
<polygon points="652,90 658,90 663,85 658,80 652,80 652,90 " style="fill:white; stroke-width:1; stroke:black; " description="&lt;b&gt;J7W19_00475&lt;/b&gt;&lt;br&gt;MFS transporter&lt;br&gt;Location: 76069 - 77352" locus_tag="J7W19_00475" class="clusterblast-orf" id="dummy-1_h1_6_34"  />
</g>
<g id="a1_0035"  >
<polygon points="663,90 665,90 670,85 665,80 663,80 663,90 " style="fill:white; stroke-width:1; stroke:black; " description="&lt;b&gt;J7W19_00480&lt;/b&gt;&lt;br&gt;hypothetical protein&lt;br&gt;Location: 77360 - 78178" locus_tag="J7W19_00480" class="clusterblast-orf" id="dummy-1_h1_6_35"  />
</g>
<g id="a1_0036"  >
<polygon points="670,90 680,90 685,85 680,80 670,80 670,90 " style="fill:#1563d8; stroke-width:1; stroke:black; " description="&lt;b&gt;J7W19_00485&lt;/b&gt;&lt;br&gt;non-ribosomal peptide synthetase&lt;br&gt;Location: 78175 - 79911&lt;br&gt;&lt;br&gt;&lt;b&gt;BlastP hit with HS041_32680&lt;/b&gt;&lt;br&gt;Percentage identity: 46&lt;br&gt;Percentage coverage: 56&lt;br&gt;BLAST bit score: 419&lt;br&gt;E-value: 2.39e-134" locus_tag="J7W19_00485" class="clusterblast-orf" id="dummy-1_h1_6_36"  />
</g>
<g id="a1_0037"  >
<polygon points="685,90 688,90 693,85 688,80 685,80 685,90 " style="fill:#b1d815; stroke-width:1; stroke:black; " description="&lt;b&gt;J7W19_00490&lt;/b&gt;&lt;br&gt;TauD/TfdA family dioxygenase&lt;br&gt;Location: 79908 - 80894&lt;br&gt;&lt;br&gt;&lt;b&gt;BlastP hit with HS041_32690&lt;/b&gt;&lt;br&gt;Percentage identity: 58&lt;br&gt;Percentage coverage: 101&lt;br&gt;BLAST bit score: 374&lt;br&gt;E-value: 5.6e-130" locus_tag="J7W19_00490" class="clusterblast-orf" id="dummy-1_h1_6_37"  />
</g>
<g id="a1_0038"  >
<polygon points="695,90 758,90 763,85 758,80 695,80 695,90 " style="fill:white; stroke-width:1; stroke:black; " description="&lt;b&gt;J7W19_00495&lt;/b&gt;&lt;br&gt;type I polyketide synthase&lt;br&gt;Location: 81078 - 89051" locus_tag="J7W19_00495" class="clusterblast-orf" id="dummy-1_h1_6_38"  />
</g>
<g id="a1_0039"  >
<polygon points="764,85 769,80 769,80 769,90 769,90 764,85 " style="fill:white; stroke-width:1; stroke:black; " description="&lt;b&gt;J7W19_00500&lt;/b&gt;&lt;br&gt;helix-turn-helix domain-containing protein&lt;br&gt;Location: 89143 - 89760" locus_tag="J7W19_00500" class="clusterblast-orf" id="dummy-1_h1_6_39"  />
</g>
<g id="a1_0040"  >
<polygon points="771,90 775,90 780,85 775,80 771,80 771,90 " style="fill:white; stroke-width:1; stroke:black; " description="&lt;b&gt;J7W19_00505&lt;/b&gt;&lt;br&gt;alpha/beta hydrolase&lt;br&gt;Location: 89942 - 90958" locus_tag="J7W19_00505" class="clusterblast-orf" id="dummy-1_h1_6_40"  />
</g>
</svg>
