<svg xmlns="http://www.w3.org/2000/svg" xmlns:xlink="http://www.w3.org/1999/xlink" version="1.1" x="0" y="0" height="230" width="800" viewBox="0 0 800 230" preserveAspectRatio="none"  >
<g label="Query sequence" class="clusterblast-cluster"  >
<text x="5" y="20" class="clusterblast-acc"  >
Query sequence</text>
<line x1="10" y1="35" x2="778.0" y2="35" style="stroke-width:1; stroke:grey; "  />
<polygon points="0,35 5,30 63,30 63,40 5,40 0,35 " style="fill:white; stroke-width:1; stroke:black; " description="&lt;b&gt;HS041_18780&lt;/b&gt;&lt;br&gt;hypothetical protein&lt;br&gt;Location: 1372842 - 1374474" locus_tag="HS041_18780" class="clusterblast-orf" id="dummy-5_q0_0_all"  />
<polygon points="69,40 89,40 94,35 89,30 69,30 69,40 " style="fill:white; stroke-width:1; stroke:black; " description="&lt;b&gt;HS041_18785&lt;/b&gt;&lt;br&gt;TetR family transcriptional regulator&lt;br&gt;Location: 1374624 - 1375272" locus_tag="HS041_18785" class="clusterblast-orf" id="dummy-5_q1_0_all"  />
<polygon points="98,40 170,40 175,35 170,30 98,30 98,40 " style="fill:#d81515; stroke-width:1; stroke:black; " description="&lt;b&gt;HS041_18790&lt;/b&gt;&lt;br&gt;methylmalonyl-CoA mutase small subunit&lt;br&gt;Location: 1375358 - 1377350" locus_tag="HS041_18790" class="clusterblast-orf" id="dummy-5_q2_0_all"  />
<polygon points="178,40 259,40 264,35 259,30 178,30 178,40 " style="fill:#15d863; stroke-width:1; stroke:black; " description="&lt;b&gt;HS041_18795&lt;/b&gt;&lt;br&gt;methylmalonyl-CoA mutase&lt;br&gt;Location: 1377417 - 1379625" locus_tag="HS041_18795" class="clusterblast-orf" id="dummy-5_q3_0_all"  />
<polygon points="266,40 299,40 304,35 299,30 266,30 266,40 " style="fill:#1563d8; stroke-width:1; stroke:black; " description="&lt;b&gt;HS041_18800&lt;/b&gt;&lt;br&gt;methylmalonyl Co-A mutase-associated GTPase MeaB&lt;br&gt;Location: 1379674 - 1380646" locus_tag="HS041_18800" class="clusterblast-orf" id="dummy-5_q4_0_all"  />
<polygon points="320,40 369,40 374,35 369,30 320,30 320,40 " style="fill:white; stroke-width:1; stroke:black; " description="&lt;b&gt;HS041_18805&lt;/b&gt;&lt;br&gt;cytochrome P450&lt;br&gt;Location: 1381062 - 1382457" locus_tag="HS041_18805" class="clusterblast-orf" id="dummy-5_q5_0_all"  />
<polygon points="376,40 404,40 409,35 404,30 376,30 376,40 " style="fill:white; stroke-width:1; stroke:black; " description="&lt;b&gt;HS041_18810&lt;/b&gt;&lt;br&gt;hypothetical protein&lt;br&gt;Location: 1382492 - 1383338" locus_tag="HS041_18810" class="clusterblast-orf" id="dummy-5_q6_0_all"  />
<polygon points="408,40 470,40 475,35 470,30 408,30 408,40 " style="fill:white; stroke-width:1; stroke:black; " description="&lt;b&gt;HS041_18815&lt;/b&gt;&lt;br&gt;hypothetical protein&lt;br&gt;Location: 1383337 - 1385053" locus_tag="HS041_18815" class="clusterblast-orf" id="dummy-5_q7_0_all"  />
<polygon points="484,40 579,40 584,35 579,30 484,30 484,40 " style="fill:white; stroke-width:1; stroke:black; " description="&lt;b&gt;HS041_18820&lt;/b&gt;&lt;br&gt;nitrate- and nitrite sensing domain-containing protein&lt;br&gt;Location: 1385266 - 1387858" locus_tag="HS041_18820" class="clusterblast-orf" id="dummy-5_q8_0_all"  />
<polygon points="588,40 600,40 605,35 600,30 588,30 588,40 " style="fill:#b115d8; stroke-width:1; stroke:black; " description="&lt;b&gt;HS041_18825&lt;/b&gt;&lt;br&gt;roadblock/LC7 domain-containing protein&lt;br&gt;Location: 1387949 - 1388381" locus_tag="HS041_18825" class="clusterblast-orf" id="dummy-5_q9_0_all"  />
<polygon points="605,40 615,40 620,35 615,30 605,30 605,40 " style="fill:white; stroke-width:1; stroke:black; " description="&lt;b&gt;HS041_18830&lt;/b&gt;&lt;br&gt;DUF742 domain-containing protein&lt;br&gt;Location: 1388377 - 1388764" locus_tag="HS041_18830" class="clusterblast-orf" id="dummy-5_q10_0_all"  />
<polygon points="619,40 639,40 644,35 639,30 619,30 619,40 " style="fill:#b1d815; stroke-width:1; stroke:black; " description="&lt;b&gt;HS041_18835&lt;/b&gt;&lt;br&gt;ATP/GTP-binding protein&lt;br&gt;Location: 1388744 - 1389374" locus_tag="HS041_18835" class="clusterblast-orf" id="dummy-5_q11_0_all"  />
<polygon points="652,40 664,40 669,35 664,30 652,30 652,40 " style="fill:white; stroke-width:1; stroke:black; " description="&lt;b&gt;HS041_18840&lt;/b&gt;&lt;br&gt;protease inhibitor I42 family protein&lt;br&gt;Location: 1389585 - 1390020" locus_tag="HS041_18840" class="clusterblast-orf" id="dummy-5_q12_0_all"  />
<polygon points="672,40 697,40 702,35 697,30 672,30 672,40 " style="fill:white; stroke-width:1; stroke:black; " description="&lt;b&gt;HS041_18845&lt;/b&gt;&lt;br&gt;UDP-galactose-lipid carrier transferase&lt;br&gt;Location: 1390095 - 1390878" locus_tag="HS041_18845" class="clusterblast-orf" id="dummy-5_q13_0_all"  />
<polygon points="708,40 750,40 755,35 750,30 708,30 708,40 " style="fill:white; stroke-width:1; stroke:black; " description="&lt;b&gt;HS041_18850&lt;/b&gt;&lt;br&gt;hypothetical protein&lt;br&gt;Location: 1391039 - 1392242" locus_tag="HS041_18850" class="clusterblast-orf" id="dummy-5_q14_0_all"  />
<polygon points="758,35 763,30 780,30 780,40 763,40 758,35 " style="fill:white; stroke-width:1; stroke:black; " description="&lt;b&gt;HS041_18855&lt;/b&gt;&lt;br&gt;hemerythrin domain-containing protein&lt;br&gt;Location: 1392322 - 1392877" locus_tag="HS041_18855" class="clusterblast-orf" id="dummy-5_q15_0_all"  />
</g>
<g label="BGC0001197" description="BGC0001197_c1: frankiamicin (14% of genes show similarity), Polyketide" class="clusterblast-cluster"  >
<text x="5" y="70" class="clusterblast-acc"  >
<a xlink:href="https://mibig.secondarymetabolites.org/go/BGC0001197/1" target="_blank">BGC0001197</a>: frankiamicin                                                                     (14% of genes show similarity), Polyketide</text>
<line x1="10" y1="85" x2="778.0" y2="85" style="stroke-width:1; stroke:grey; "  />
</g>
<g id="a5_000"  >
<polygon points="143,90 270,90 275,85 270,80 143,80 143,90 " style="fill:white; stroke-width:1; stroke:black; " description="&lt;b&gt;Franean1_2384&lt;/b&gt;&lt;br&gt;integral membrane sensor signal transduction histidine kinase&lt;br&gt;Location: 1 - 3399" locus_tag="Franean1_2384" class="clusterblast-orf" id="dummy-5_h5_2_0"  />
</g>
<g id="a5_001"  >
<polygon points="275,90 286,90 291,85 286,80 275,80 275,90 " style="fill:#b115d8; stroke-width:1; stroke:black; " description="&lt;b&gt;Franean1_2385&lt;/b&gt;&lt;br&gt;Roadblock/LC7 family protein&lt;br&gt;Location: 3399 - 3818&lt;br&gt;&lt;br&gt;&lt;b&gt;BlastP hit with HS041_18825&lt;/b&gt;&lt;br&gt;Percentage identity: 52&lt;br&gt;Percentage coverage: 88&lt;br&gt;BLAST bit score: 123&lt;br&gt;E-value: 1.2e-36" locus_tag="Franean1_2385" class="clusterblast-orf" id="dummy-5_h5_2_1"  />
</g>
<g id="a5_002"  >
<polygon points="296,90 305,90 310,85 305,80 296,80 296,90 " style="fill:white; stroke-width:1; stroke:black; " description="&lt;b&gt;Franean1_2386&lt;/b&gt;&lt;br&gt;protein of unknown function DUF742&lt;br&gt;Location: 3936 - 4307" locus_tag="Franean1_2386" class="clusterblast-orf" id="dummy-5_h5_2_2"  />
</g>
<g id="a5_003"  >
<polygon points="310,90 329,90 334,85 329,80 310,80 310,90 " style="fill:#b1d815; stroke-width:1; stroke:black; " description="&lt;b&gt;Franean1_2387&lt;/b&gt;&lt;br&gt;protein of unknown function ATP binding&lt;br&gt;Location: 4288 - 4911&lt;br&gt;&lt;br&gt;&lt;b&gt;BlastP hit with HS041_18835&lt;/b&gt;&lt;br&gt;Percentage identity: 62&lt;br&gt;Percentage coverage: 92&lt;br&gt;BLAST bit score: 242&lt;br&gt;E-value: 1.51e-81" locus_tag="Franean1_2387" class="clusterblast-orf" id="dummy-5_h5_2_3"  />
</g>
<g id="a5_004"  >
<polygon points="336,90 370,90 375,85 370,80 336,80 336,90 " style="fill:white; stroke-width:1; stroke:black; " description="&lt;b&gt;Franean1_2388&lt;/b&gt;&lt;br&gt;transcriptional regulator, LuxR family&lt;br&gt;Location: 4974 - 5972" locus_tag="Franean1_2388" class="clusterblast-orf" id="dummy-5_h5_2_4"  />
</g>
<g id="a5_005"  >
<polygon points="388,90 398,90 403,85 398,80 388,80 388,90 " style="fill:white; stroke-width:1; stroke:black; " description="&lt;b&gt;Franean1_2389&lt;/b&gt;&lt;br&gt;Polyketide synthesis cyclase&lt;br&gt;Location: 6305 - 6682" locus_tag="Franean1_2389" class="clusterblast-orf" id="dummy-5_h5_2_5"  />
</g>
<g id="a5_006"  >
<polygon points="418,90 423,90 428,85 423,80 418,80 418,90 " style="fill:white; stroke-width:1; stroke:black; " description="&lt;b&gt;Franean1_2390&lt;/b&gt;&lt;br&gt;putative actinorhodin polyketide synthase acyl carrier protein (ACP) (ActI ORF3)&lt;br&gt;Location: 7083 - 7340" locus_tag="Franean1_2390" class="clusterblast-orf" id="dummy-5_h5_2_6"  />
</g>
<g id="a5_007"  >
<polygon points="430,90 445,90 450,85 445,80 430,80 430,90 " style="fill:white; stroke-width:1; stroke:black; " description="&lt;b&gt;Franean1_2391&lt;/b&gt;&lt;br&gt;cyclase/dehydrase&lt;br&gt;Location: 7391 - 7885" locus_tag="Franean1_2391" class="clusterblast-orf" id="dummy-5_h5_2_7"  />
</g>
<g id="a5_008"  >
<polygon points="450,90 461,90 466,85 461,80 450,80 450,90 " style="fill:white; stroke-width:1; stroke:black; " description="&lt;b&gt;Franean1_2392&lt;/b&gt;&lt;br&gt;Cupin 2 conserved barrel domain protein&lt;br&gt;Location: 7896 - 8318" locus_tag="Franean1_2392" class="clusterblast-orf" id="dummy-5_h5_2_8"  />
</g>
<g id="a5_009"  >
<polygon points="466,90 514,90 519,85 514,80 466,80 466,90 " style="fill:white; stroke-width:1; stroke:black; " description="&lt;b&gt;Franean1_2393&lt;/b&gt;&lt;br&gt;Beta-ketoacyl synthase&lt;br&gt;Location: 8315 - 9667" locus_tag="Franean1_2393" class="clusterblast-orf" id="dummy-5_h5_2_9"  />
</g>
<g id="a5_0010"  >
<polygon points="519,90 564,90 569,85 564,80 519,80 519,90 " style="fill:white; stroke-width:1; stroke:black; " description="&lt;b&gt;Franean1_2394&lt;/b&gt;&lt;br&gt;Beta-ketoacyl synthase&lt;br&gt;Location: 9664 - 10950" locus_tag="Franean1_2394" class="clusterblast-orf" id="dummy-5_h5_2_10"  />
</g>
<g id="a5_0011"  >
<polygon points="573,90 597,90 602,85 597,80 573,80 573,90 " style="fill:white; stroke-width:1; stroke:black; " description="&lt;b&gt;Franean1_2395&lt;/b&gt;&lt;br&gt;short-chain dehydrogenase/reductase SDR&lt;br&gt;Location: 11053 - 11790" locus_tag="Franean1_2395" class="clusterblast-orf" id="dummy-5_h5_2_11"  />
</g>
<g id="a5_0012"  >
<polygon points="602,90 609,90 614,85 609,80 602,80 602,90 " style="fill:white; stroke-width:1; stroke:black; " description="&lt;b&gt;Franean1_2396&lt;/b&gt;&lt;br&gt;Antibiotic biosynthesis monooxygenase&lt;br&gt;Location: 11790 - 12113" locus_tag="Franean1_2396" class="clusterblast-orf" id="dummy-5_h5_2_12"  />
</g>
<g id="a5_0013"  >
<polygon points="619,90 631,90 636,85 631,80 619,80 619,90 " style="fill:white; stroke-width:1; stroke:black; " description="&lt;b&gt;Franean1_2397&lt;/b&gt;&lt;br&gt;Antibiotic biosynthesis monooxygenase&lt;br&gt;Location: 12230 - 12679" locus_tag="Franean1_2397" class="clusterblast-orf" id="dummy-5_h5_2_13"  />
</g>
</svg>
