<svg xmlns="http://www.w3.org/2000/svg" xmlns:xlink="http://www.w3.org/1999/xlink" version="1.1" x="0" y="0" height="230" width="800" viewBox="0 0 800 230" preserveAspectRatio="none"  >
<g label="Query sequence" class="clusterblast-cluster"  >
<text x="5" y="20" class="clusterblast-acc"  >
Query sequence</text>
<line x1="10" y1="35" x2="778.0" y2="35" style="stroke-width:1; stroke:grey; "  />
<polygon points="0,35 5,30 6,30 6,40 5,40 0,35 " style="fill:white; stroke-width:1; stroke:black; " description="&lt;b&gt;HS041_14845&lt;/b&gt;&lt;br&gt;hypothetical protein&lt;br&gt;Location: 480361 - 481108" locus_tag="HS041_14845" class="clusterblast-orf" id="dummy-3_q0_0_all"  />
<polygon points="7,35 12,30 12,30 12,40 12,40 7,35 " style="fill:white; stroke-width:1; stroke:black; " description="&lt;b&gt;HS041_14850&lt;/b&gt;&lt;br&gt;disulfide bond formation protein DsbA&lt;br&gt;Location: 481209 - 481833" locus_tag="HS041_14850" class="clusterblast-orf" id="dummy-3_q1_0_all"  />
<polygon points="13,35 17,30 17,40 13,35 " style="fill:white; stroke-width:1; stroke:black; " description="&lt;b&gt;HS041_14855&lt;/b&gt;&lt;br&gt;O-acetyl-ADP-ribose deacetylase&lt;br&gt;Location: 481940 - 482462" locus_tag="HS041_14855" class="clusterblast-orf" id="dummy-3_q2_0_all"  />
<polygon points="18,35 23,30 30,30 30,40 23,40 18,35 " style="fill:white; stroke-width:1; stroke:black; " description="&lt;b&gt;HS041_14860&lt;/b&gt;&lt;br&gt;aminopeptidase&lt;br&gt;Location: 482615 - 484037" locus_tag="HS041_14860" class="clusterblast-orf" id="dummy-3_q3_0_all"  />
<polygon points="33,35 38,30 59,30 59,40 38,40 33,35 " style="fill:white; stroke-width:1; stroke:black; " description="&lt;b&gt;HS041_14865&lt;/b&gt;&lt;br&gt;tetratricopeptide repeat protein&lt;br&gt;Location: 484325 - 487460" locus_tag="HS041_14865" class="clusterblast-orf" id="dummy-3_q4_0_all"  />
<polygon points="63,35 64,30 64,40 63,35 " style="fill:white; stroke-width:1; stroke:black; " description="&lt;b&gt;HS041_14870&lt;/b&gt;&lt;br&gt;hypothetical protein&lt;br&gt;Location: 487890 - 488073" locus_tag="HS041_14870" class="clusterblast-orf" id="dummy-3_q5_0_all"  />
<polygon points="67,40 70,35 67,30 67,40 " style="fill:white; stroke-width:1; stroke:black; " description="&lt;b&gt;HS041_14875&lt;/b&gt;&lt;br&gt;hydroxyisourate hydrolase&lt;br&gt;Location: 488456 - 488795" locus_tag="HS041_14875" class="clusterblast-orf" id="dummy-3_q6_0_all"  />
<polygon points="71,40 80,40 85,35 80,30 71,30 71,40 " style="fill:white; stroke-width:1; stroke:black; " description="&lt;b&gt;HS041_14880&lt;/b&gt;&lt;br&gt;2-isopropylmalate synthase&lt;br&gt;Location: 488826 - 490563" locus_tag="HS041_14880" class="clusterblast-orf" id="dummy-3_q7_0_all"  />
<polygon points="87,40 105,40 110,35 105,30 87,30 87,40 " style="fill:white; stroke-width:1; stroke:black; " description="&lt;b&gt;HS041_14885&lt;/b&gt;&lt;br&gt;AAA family ATPase&lt;br&gt;Location: 490739 - 493505" locus_tag="HS041_14885" class="clusterblast-orf" id="dummy-3_q8_0_all"  />
<polygon points="112,40 115,40 120,35 115,30 112,30 112,40 " style="fill:#d81515; stroke-width:1; stroke:black; " description="&lt;b&gt;HS041_14890&lt;/b&gt;&lt;br&gt;hypothetical protein&lt;br&gt;Location: 493822 - 494686" locus_tag="HS041_14890" class="clusterblast-orf" id="dummy-3_q9_0_all"  />
<polygon points="120,40 124,40 129,35 124,30 120,30 120,40 " style="fill:#6cd815; stroke-width:1; stroke:black; " description="&lt;b&gt;HS041_14895&lt;/b&gt;&lt;br&gt;DUF1702 family protein&lt;br&gt;Location: 494767 - 495763" locus_tag="HS041_14895" class="clusterblast-orf" id="dummy-3_q10_0_all"  />
<polygon points="130,40 133,40 138,35 133,30 130,30 130,40 " style="fill:#15c3d8; stroke-width:1; stroke:black; " description="&lt;b&gt;HS041_14900&lt;/b&gt;&lt;br&gt;DUF1702 family protein&lt;br&gt;Location: 495938 - 496919" locus_tag="HS041_14900" class="clusterblast-orf" id="dummy-3_q11_0_all"  />
<polygon points="138,40 150,40 155,35 150,30 138,30 138,40 " style="fill:#9715d8; stroke-width:1; stroke:black; " description="&lt;b&gt;HS041_14905&lt;/b&gt;&lt;br&gt;CRTAC1 family protein&lt;br&gt;Location: 496915 - 498892" locus_tag="HS041_14905" class="clusterblast-orf" id="dummy-3_q12_0_all"  />
<polygon points="155,40 158,40 163,35 158,30 155,30 155,40 " style="fill:#d84115; stroke-width:1; stroke:black; " description="&lt;b&gt;HS041_14910&lt;/b&gt;&lt;br&gt;enediyne biosynthesis protein&lt;br&gt;Location: 498896 - 499868" locus_tag="HS041_14910" class="clusterblast-orf" id="dummy-3_q13_0_all"  />
<polygon points="163,40 207,40 212,35 207,30 163,30 163,40 " style="fill:#41d815; stroke-width:1; stroke:black; " description="&lt;b&gt;HS041_14915&lt;/b&gt;&lt;br&gt;SDR family NAD(P)-dependent oxidoreductase&lt;br&gt;Location: 499864 - 505648" locus_tag="HS041_14915" class="clusterblast-orf" id="dummy-3_q14_0_all"  />
<polygon points="212,40 215,35 212,30 212,40 " style="fill:#1597d8; stroke-width:1; stroke:black; " description="&lt;b&gt;HS041_14920&lt;/b&gt;&lt;br&gt;acyl-CoA thioesterase&lt;br&gt;Location: 505651 - 506080" locus_tag="HS041_14920" class="clusterblast-orf" id="dummy-3_q15_0_all"  />
<polygon points="215,40 215,40 220,35 215,30 215,30 215,40 " style="fill:#c315d8; stroke-width:1; stroke:black; " description="&lt;b&gt;HS041_14925&lt;/b&gt;&lt;br&gt;flavin reductase family protein&lt;br&gt;Location: 506101 - 506641" locus_tag="HS041_14925" class="clusterblast-orf" id="dummy-3_q16_0_all"  />
<polygon points="221,40 227,40 232,35 227,30 221,30 221,40 " style="fill:#d86c15; stroke-width:1; stroke:black; " description="&lt;b&gt;HS041_14930&lt;/b&gt;&lt;br&gt;cytochrome P450&lt;br&gt;Location: 506703 - 508032" locus_tag="HS041_14930" class="clusterblast-orf" id="dummy-3_q17_0_all"  />
<polygon points="232,35 237,30 239,30 239,40 237,40 232,35 " style="fill:#15d815; stroke-width:1; stroke:black; " description="&lt;b&gt;HS041_14935&lt;/b&gt;&lt;br&gt;helix-turn-helix transcriptional regulator&lt;br&gt;Location: 508116 - 508884" locus_tag="HS041_14935" class="clusterblast-orf" id="dummy-3_q18_0_all"  />
<polygon points="241,35 246,30 248,30 248,40 246,40 241,35 " style="fill:white; stroke-width:1; stroke:black; " description="&lt;b&gt;HS041_14940&lt;/b&gt;&lt;br&gt;metallophosphoesterase&lt;br&gt;Location: 509157 - 509979" locus_tag="HS041_14940" class="clusterblast-orf" id="dummy-3_q19_0_all"  />
<polygon points="250,40 250,40 255,35 250,30 250,30 250,40 " style="fill:white; stroke-width:1; stroke:black; " description="&lt;b&gt;HS041_14945&lt;/b&gt;&lt;br&gt;SigE family RNA polymerase sigma factor&lt;br&gt;Location: 510239 - 510818" locus_tag="HS041_14945" class="clusterblast-orf" id="dummy-3_q20_0_all"  />
<polygon points="255,40 255,40 260,35 255,30 255,30 255,40 " style="fill:#156cd8; stroke-width:1; stroke:black; " description="&lt;b&gt;HS041_14950&lt;/b&gt;&lt;br&gt;regulator&lt;br&gt;Location: 510817 - 511384" locus_tag="HS041_14950" class="clusterblast-orf" id="dummy-3_q21_0_all"  />
<polygon points="260,40 269,40 274,35 269,30 260,30 260,40 " style="fill:#d815c3; stroke-width:1; stroke:black; " description="&lt;b&gt;HS041_14955&lt;/b&gt;&lt;br&gt;GMC family oxidoreductase&lt;br&gt;Location: 511380 - 513030" locus_tag="HS041_14955" class="clusterblast-orf" id="dummy-3_q22_0_all"  />
<polygon points="274,40 278,40 283,35 278,30 274,30 274,40 " style="fill:#d89715; stroke-width:1; stroke:black; " description="&lt;b&gt;HS041_14960&lt;/b&gt;&lt;br&gt;carboxymuconolactone decarboxylase family protein&lt;br&gt;Location: 513056 - 514106" locus_tag="HS041_14960" class="clusterblast-orf" id="dummy-3_q23_0_all"  />
<polygon points="283,40 285,40 290,35 285,30 283,30 283,40 " style="fill:#15d841; stroke-width:1; stroke:black; " description="&lt;b&gt;HS041_14965&lt;/b&gt;&lt;br&gt;TIGR03084 family protein&lt;br&gt;Location: 514159 - 514963" locus_tag="HS041_14965" class="clusterblast-orf" id="dummy-3_q24_0_all"  />
<polygon points="292,40 295,40 300,35 295,30 292,30 292,40 " style="fill:white; stroke-width:1; stroke:black; " description="&lt;b&gt;HS041_14970&lt;/b&gt;&lt;br&gt;hypothetical protein&lt;br&gt;Location: 515180 - 516203" locus_tag="HS041_14970" class="clusterblast-orf" id="dummy-3_q25_0_all"  />
<polygon points="302,40 305,40 310,35 305,30 302,30 302,40 " style="fill:white; stroke-width:1; stroke:black; " description="&lt;b&gt;HS041_14975&lt;/b&gt;&lt;br&gt;helix-turn-helix transcriptional regulator&lt;br&gt;Location: 516462 - 517362" locus_tag="HS041_14975" class="clusterblast-orf" id="dummy-3_q26_0_all"  />
<polygon points="315,35 317,30 317,40 315,35 " style="fill:white; stroke-width:1; stroke:black; " description="&lt;b&gt;HS041_14980&lt;/b&gt;&lt;br&gt;hypothetical protein&lt;br&gt;Location: 517936 - 518215" locus_tag="HS041_14980" class="clusterblast-orf" id="dummy-3_q27_0_all"  />
<polygon points="320,40 329,40 334,35 329,30 320,30 320,40 " style="fill:#1541d8; stroke-width:1; stroke:black; " description="&lt;b&gt;HS041_14985&lt;/b&gt;&lt;br&gt;acyl-CoA carboxylase subunit beta&lt;br&gt;Location: 518597 - 520223" locus_tag="HS041_14985" class="clusterblast-orf" id="dummy-3_q28_0_all"  />
<polygon points="337,40 339,35 337,30 337,40 " style="fill:white; stroke-width:1; stroke:black; " description="&lt;b&gt;HS041_14990&lt;/b&gt;&lt;br&gt;hypothetical protein&lt;br&gt;Location: 520566 - 520836" locus_tag="HS041_14990" class="clusterblast-orf" id="dummy-3_q29_0_all"  />
<polygon points="339,40 341,40 346,35 341,30 339,30 339,40 " style="fill:white; stroke-width:1; stroke:black; " description="&lt;b&gt;HS041_14995&lt;/b&gt;&lt;br&gt;4'-phosphopantetheinyl transferase superfamily protein&lt;br&gt;Location: 520860 - 521619" locus_tag="HS041_14995" class="clusterblast-orf" id="dummy-3_q30_0_all"  />
<polygon points="346,40 348,40 353,35 348,30 346,30 346,40 " style="fill:white; stroke-width:1; stroke:black; " description="&lt;b&gt;HS041_15000&lt;/b&gt;&lt;br&gt;alpha/beta hydrolase&lt;br&gt;Location: 521715 - 522441" locus_tag="HS041_15000" class="clusterblast-orf" id="dummy-3_q31_0_all"  />
<polygon points="353,35 357,30 357,40 353,35 " style="fill:white; stroke-width:1; stroke:black; " description="&lt;b&gt;HS041_15005&lt;/b&gt;&lt;br&gt;hypothetical protein&lt;br&gt;Location: 522501 - 523002" locus_tag="HS041_15005" class="clusterblast-orf" id="dummy-3_q32_0_all"  />
<polygon points="357,35 362,30 362,30 362,40 362,40 357,35 " style="fill:#d81597; stroke-width:1; stroke:black; " description="&lt;b&gt;HS041_15010&lt;/b&gt;&lt;br&gt;hypothetical protein&lt;br&gt;Location: 522995 - 523562" locus_tag="HS041_15010" class="clusterblast-orf" id="dummy-3_q33_0_all"  />
<polygon points="364,40 368,40 373,35 368,30 364,30 364,40 " style="fill:white; stroke-width:1; stroke:black; " description="&lt;b&gt;HS041_15015&lt;/b&gt;&lt;br&gt;alpha/beta hydrolase&lt;br&gt;Location: 523859 - 524906" locus_tag="HS041_15015" class="clusterblast-orf" id="dummy-3_q34_0_all"  />
<polygon points="375,40 381,40 386,35 381,30 375,30 375,40 " style="fill:white; stroke-width:1; stroke:black; " description="&lt;b&gt;HS041_15020&lt;/b&gt;&lt;br&gt;FAD-binding oxidoreductase&lt;br&gt;Location: 525072 - 526437" locus_tag="HS041_15020" class="clusterblast-orf" id="dummy-3_q35_0_all"  />
<polygon points="387,35 392,30 403,30 403,40 392,40 387,35 " style="fill:white; stroke-width:1; stroke:black; " description="&lt;b&gt;HS041_15025&lt;/b&gt;&lt;br&gt;asparagine synthase (glutamine-hydrolyzing)&lt;br&gt;Location: 526572 - 528420" locus_tag="HS041_15025" class="clusterblast-orf" id="dummy-3_q36_0_all"  />
<polygon points="403,35 408,30 413,30 413,40 408,40 403,35 " style="fill:white; stroke-width:1; stroke:black; " description="&lt;b&gt;HS041_15030&lt;/b&gt;&lt;br&gt;3-hydroxybenzoate 6-monooxygenase&lt;br&gt;Location: 528426 - 529641" locus_tag="HS041_15030" class="clusterblast-orf" id="dummy-3_q37_0_all"  />
<polygon points="413,35 418,30 429,30 429,40 418,40 413,35 " style="fill:white; stroke-width:1; stroke:black; " description="&lt;b&gt;HS041_15035&lt;/b&gt;&lt;br&gt;phenazine-specific anthranilate synthase&lt;br&gt;Location: 529637 - 531536" locus_tag="HS041_15035" class="clusterblast-orf" id="dummy-3_q38_0_all"  />
<polygon points="429,35 434,30 434,30 434,40 434,40 429,35 " style="fill:white; stroke-width:1; stroke:black; " description="&lt;b&gt;HS041_15040&lt;/b&gt;&lt;br&gt;isochorismatase family protein&lt;br&gt;Location: 531532 - 532186" locus_tag="HS041_15040" class="clusterblast-orf" id="dummy-3_q39_0_all"  />
<polygon points="435,35 440,30 441,30 441,40 440,40 435,35 " style="fill:white; stroke-width:1; stroke:black; " description="&lt;b&gt;HS041_15045&lt;/b&gt;&lt;br&gt;2,3-dihydro-2,3-dihydroxybenzoate dehydrogenase&lt;br&gt;Location: 532219 - 532984" locus_tag="HS041_15045" class="clusterblast-orf" id="dummy-3_q40_0_all"  />
<polygon points="443,40 465,40 470,35 465,30 443,30 443,40 " style="fill:white; stroke-width:1; stroke:black; " description="&lt;b&gt;HS041_15050&lt;/b&gt;&lt;br&gt;AMP-binding protein&lt;br&gt;Location: 533205 - 536418" locus_tag="HS041_15050" class="clusterblast-orf" id="dummy-3_q41_0_all"  />
<polygon points="470,40 479,40 484,35 479,30 470,30 470,40 " style="fill:#d8c315; stroke-width:1; stroke:black; " description="&lt;b&gt;HS041_15055&lt;/b&gt;&lt;br&gt;tyrosine 2,3-aminomutase&lt;br&gt;Location: 536419 - 538087" locus_tag="HS041_15055" class="clusterblast-orf" id="dummy-3_q42_0_all"  />
<polygon points="485,35 487,30 487,40 485,35 " style="fill:white; stroke-width:1; stroke:black; " description="&lt;b&gt;HS041_15060&lt;/b&gt;&lt;br&gt;helix-turn-helix domain-containing protein&lt;br&gt;Location: 538280 - 538469" locus_tag="HS041_15060" class="clusterblast-orf" id="dummy-3_q43_0_all"  />
<polygon points="488,35 493,30 501,30 501,40 493,40 488,35 " style="fill:#15d86c; stroke-width:1; stroke:black; " description="&lt;b&gt;HS041_15065&lt;/b&gt;&lt;br&gt;Pyoverdin chromophore biosynthetic protein pvcC&lt;br&gt;Location: 538617 - 540195" locus_tag="HS041_15065" class="clusterblast-orf" id="dummy-3_q44_0_all"  />
<polygon points="502,35 507,30 512,30 512,40 507,40 502,35 " style="fill:#1515d8; stroke-width:1; stroke:black; " description="&lt;b&gt;HS041_15070&lt;/b&gt;&lt;br&gt;acyl-CoA dehydrogenase family protein&lt;br&gt;Location: 540205 - 541426" locus_tag="HS041_15070" class="clusterblast-orf" id="dummy-3_q45_0_all"  />
<polygon points="514,40 516,40 521,35 516,30 514,30 514,40 " style="fill:#d8156c; stroke-width:1; stroke:black; " description="&lt;b&gt;HS041_15075&lt;/b&gt;&lt;br&gt;class I SAM-dependent methyltransferase&lt;br&gt;Location: 541748 - 542555" locus_tag="HS041_15075" class="clusterblast-orf" id="dummy-3_q46_0_all"  />
<polygon points="521,40 526,40 531,35 526,30 521,30 521,40 " style="fill:#c3d815; stroke-width:1; stroke:black; " description="&lt;b&gt;HS041_15080&lt;/b&gt;&lt;br&gt;DegT/DnrJ/EryC1/StrS family aminotransferase&lt;br&gt;Location: 542551 - 543661" locus_tag="HS041_15080" class="clusterblast-orf" id="dummy-3_q47_0_all"  />
<polygon points="531,35 536,30 549,30 549,40 536,40 531,35 " style="fill:white; stroke-width:1; stroke:black; " description="&lt;b&gt;HS041_15085&lt;/b&gt;&lt;br&gt;molybdopterin-dependent oxidoreductase&lt;br&gt;Location: 543715 - 545851" locus_tag="HS041_15085" class="clusterblast-orf" id="dummy-3_q48_0_all"  />
<polygon points="549,35 554,30 558,30 558,40 554,40 549,35 " style="fill:white; stroke-width:1; stroke:black; " description="&lt;b&gt;HS041_15090&lt;/b&gt;&lt;br&gt;2Fe-2S iron-sulfur cluster binding domain-containing protein&lt;br&gt;Location: 545872 - 546955" locus_tag="HS041_15090" class="clusterblast-orf" id="dummy-3_q49_0_all"  />
<polygon points="558,35 562,30 562,40 558,35 " style="fill:white; stroke-width:1; stroke:black; " description="&lt;b&gt;HS041_15095&lt;/b&gt;&lt;br&gt;phenylacetate-CoA oxygenase subunit PaaJ&lt;br&gt;Location: 546954 - 547419" locus_tag="HS041_15095" class="clusterblast-orf" id="dummy-3_q50_0_all"  />
<polygon points="562,35 567,30 568,30 568,40 567,40 562,35 " style="fill:white; stroke-width:1; stroke:black; " description="&lt;b&gt;HS041_15100&lt;/b&gt;&lt;br&gt;phenylacetate-CoA oxygenase subunit PaaC&lt;br&gt;Location: 547412 - 548144" locus_tag="HS041_15100" class="clusterblast-orf" id="dummy-3_q51_0_all"  />
<polygon points="568,35 573,30 579,30 579,40 573,40 568,35 " style="fill:white; stroke-width:1; stroke:black; " description="&lt;b&gt;HS041_15105&lt;/b&gt;&lt;br&gt;1,2-phenylacetyl-CoA epoxidase subunit A&lt;br&gt;Location: 548140 - 549433" locus_tag="HS041_15105" class="clusterblast-orf" id="dummy-3_q52_0_all"  />
<polygon points="579,40 587,40 592,35 587,30 579,30 579,40 " style="fill:white; stroke-width:1; stroke:black; " description="&lt;b&gt;HS041_15110&lt;/b&gt;&lt;br&gt;benzoate-CoA ligase family protein&lt;br&gt;Location: 549494 - 551021" locus_tag="HS041_15110" class="clusterblast-orf" id="dummy-3_q53_0_all"  />
<polygon points="592,35 597,30 599,30 599,40 597,40 592,35 " style="fill:white; stroke-width:1; stroke:black; " description="&lt;b&gt;HS041_15115&lt;/b&gt;&lt;br&gt;arylamine N-acetyltransferase&lt;br&gt;Location: 551021 - 551813" locus_tag="HS041_15115" class="clusterblast-orf" id="dummy-3_q54_0_all"  />
<polygon points="601,40 610,40 615,35 610,30 601,30 601,40 " style="fill:white; stroke-width:1; stroke:black; " description="&lt;b&gt;HS041_15120&lt;/b&gt;&lt;br&gt;non-ribosomal peptide synthetase&lt;br&gt;Location: 552036 - 553731" locus_tag="HS041_15120" class="clusterblast-orf" id="dummy-3_q55_0_all"  />
<polygon points="615,40 626,40 631,35 626,30 615,30 615,40 " style="fill:white; stroke-width:1; stroke:black; " description="&lt;b&gt;HS041_15125&lt;/b&gt;&lt;br&gt;B12-binding domain-containing radical SAM protein&lt;br&gt;Location: 553727 - 555632" locus_tag="HS041_15125" class="clusterblast-orf" id="dummy-3_q56_0_all"  />
<polygon points="631,40 635,40 640,35 635,30 631,30 631,40 " style="fill:white; stroke-width:1; stroke:black; " description="&lt;b&gt;HS041_15130&lt;/b&gt;&lt;br&gt;acyl-CoA dehydrogenase family protein&lt;br&gt;Location: 555621 - 556746" locus_tag="HS041_15130" class="clusterblast-orf" id="dummy-3_q57_0_all"  />
<polygon points="640,40 642,40 647,35 642,30 640,30 640,40 " style="fill:white; stroke-width:1; stroke:black; " description="&lt;b&gt;HS041_15135&lt;/b&gt;&lt;br&gt;thioesterase&lt;br&gt;Location: 556742 - 557534" locus_tag="HS041_15135" class="clusterblast-orf" id="dummy-3_q58_0_all"  />
<polygon points="647,40 652,40 657,35 652,30 647,30 647,40 " style="fill:white; stroke-width:1; stroke:black; " description="&lt;b&gt;HS041_15140&lt;/b&gt;&lt;br&gt;acyltransferase&lt;br&gt;Location: 557530 - 558760" locus_tag="HS041_15140" class="clusterblast-orf" id="dummy-3_q59_0_all"  />
<polygon points="658,40 660,40 665,35 660,30 658,30 658,40 " style="fill:white; stroke-width:1; stroke:black; " description="&lt;b&gt;HS041_15145&lt;/b&gt;&lt;br&gt;phytanoyl-CoA dioxygenase family protein&lt;br&gt;Location: 558856 - 559738" locus_tag="HS041_15145" class="clusterblast-orf" id="dummy-3_q60_0_all"  />
<polygon points="666,40 670,35 666,30 666,40 " style="fill:white; stroke-width:1; stroke:black; " description="&lt;b&gt;HS041_15150&lt;/b&gt;&lt;br&gt;SRPBCC domain-containing protein&lt;br&gt;Location: 559828 - 560284" locus_tag="HS041_15150" class="clusterblast-orf" id="dummy-3_q61_0_all"  />
<polygon points="676,35 681,30 686,30 686,40 681,40 676,35 " style="fill:#15d897; stroke-width:1; stroke:black; " description="&lt;b&gt;HS041_15155&lt;/b&gt;&lt;br&gt;class I SAM-dependent methyltransferase&lt;br&gt;Location: 560986 - 562198" locus_tag="HS041_15155" class="clusterblast-orf" id="dummy-3_q62_0_all"  />
<polygon points="687,35 692,30 698,30 698,40 692,40 687,35 " style="fill:white; stroke-width:1; stroke:black; " description="&lt;b&gt;HS041_15160&lt;/b&gt;&lt;br&gt;FAD-dependent oxidoreductase&lt;br&gt;Location: 562305 - 563664" locus_tag="HS041_15160" class="clusterblast-orf" id="dummy-3_q63_0_all"  />
<polygon points="698,35 703,30 711,30 711,40 703,40 698,35 " style="fill:white; stroke-width:1; stroke:black; " description="&lt;b&gt;HS041_15165&lt;/b&gt;&lt;br&gt;methyltransferase domain-containing protein&lt;br&gt;Location: 563664 - 565209" locus_tag="HS041_15165" class="clusterblast-orf" id="dummy-3_q64_0_all"  />
<polygon points="712,40 719,40 724,35 719,30 712,30 712,40 " style="fill:#4115d8; stroke-width:1; stroke:black; " description="&lt;b&gt;HS041_15170&lt;/b&gt;&lt;br&gt;extracellular solute-binding protein&lt;br&gt;Location: 565343 - 566771" locus_tag="HS041_15170" class="clusterblast-orf" id="dummy-3_q65_0_all"  />
<polygon points="725,35 730,30 736,30 736,40 730,40 725,35 " style="fill:#d81541; stroke-width:1; stroke:black; " description="&lt;b&gt;HS041_15175&lt;/b&gt;&lt;br&gt;DUF1205 domain-containing protein&lt;br&gt;Location: 566828 - 568124" locus_tag="HS041_15175" class="clusterblast-orf" id="dummy-3_q66_0_all"  />
<polygon points="738,40 741,40 746,35 741,30 738,30 738,40 " style="fill:#97d815; stroke-width:1; stroke:black; " description="&lt;b&gt;HS041_15180&lt;/b&gt;&lt;br&gt;NAD-dependent epimerase/dehydratase family protein&lt;br&gt;Location: 568354 - 569335" locus_tag="HS041_15180" class="clusterblast-orf" id="dummy-3_q67_0_all"  />
<polygon points="746,35 751,30 757,30 757,40 751,40 746,35 " style="fill:#15d8c3; stroke-width:1; stroke:black; " description="&lt;b&gt;HS041_15185&lt;/b&gt;&lt;br&gt;cytochrome P450&lt;br&gt;Location: 569385 - 570627" locus_tag="HS041_15185" class="clusterblast-orf" id="dummy-3_q68_0_all"  />
<polygon points="757,35 762,30 770,30 770,40 762,40 757,35 " style="fill:#6c15d8; stroke-width:1; stroke:black; " description="&lt;b&gt;HS041_15190&lt;/b&gt;&lt;br&gt;MFS transporter&lt;br&gt;Location: 570663 - 572235" locus_tag="HS041_15190" class="clusterblast-orf" id="dummy-3_q69_0_all"  />
<polygon points="770,35 775,30 780,30 780,40 775,40 770,35 " style="fill:white; stroke-width:1; stroke:black; " description="&lt;b&gt;HS041_15195&lt;/b&gt;&lt;br&gt;acyltransferase&lt;br&gt;Location: 572248 - 573352" locus_tag="HS041_15195" class="clusterblast-orf" id="dummy-3_q70_0_all"  />
</g>
<g label="BGC0001503" description="BGC0001503_c1: amycolamycin A/amycolamycin B (24% of genes show similarity), Polyketide" class="clusterblast-cluster"  >
<text x="5" y="70" class="clusterblast-acc"  >
<a xlink:href="https://mibig.secondarymetabolites.org/go/BGC0001503/1" target="_blank">BGC0001503</a>: amycolamycin A/amycolamycin B                                                    (24% of genes show similarity), Polyketide</text>
<line x1="10" y1="85" x2="778.0" y2="85" style="stroke-width:1; stroke:grey; "  />
</g>
<g id="a3_000"  >
<polygon points="54,85 57,80 57,90 54,85 " style="fill:white; stroke-width:1; stroke:black; " description="&lt;b&gt;ATV95657.1&lt;/b&gt;&lt;br&gt;hypothetical protein&lt;br&gt;Location: 86932 - 86621" locus_tag="ATV95657.1" class="clusterblast-orf" id="dummy-3_h3_8_0"  />
</g>
<g id="a3_001"  >
<polygon points="58,90 58,90 63,85 58,80 58,80 58,90 " style="fill:white; stroke-width:1; stroke:black; " description="&lt;b&gt;ATV95656.1&lt;/b&gt;&lt;br&gt;tRNA threonylcarbamoyl adenosine modification protein&lt;br&gt;Location: 86478 - 85858" locus_tag="ATV95656.1" class="clusterblast-orf" id="dummy-3_h3_8_1"  />
</g>
<g id="a3_002"  >
<polygon points="63,85 68,80 69,80 69,90 68,90 63,85 " style="fill:#15d841; stroke-width:1; stroke:black; " description="&lt;b&gt;ATV95655.1&lt;/b&gt;&lt;br&gt;hypothetical protein&lt;br&gt;Location: 85854 - 85153&lt;br&gt;&lt;br&gt;&lt;b&gt;BlastP hit with HS041_14965&lt;/b&gt;&lt;br&gt;Percentage identity: 48&lt;br&gt;Percentage coverage: 58&lt;br&gt;BLAST bit score: 142&lt;br&gt;E-value: 4.23e-41" locus_tag="ATV95655.1" class="clusterblast-orf" id="dummy-3_h3_8_2"  />
</g>
<g id="a3_003"  >
<polygon points="70,90 74,85 70,80 70,90 " style="fill:white; stroke-width:1; stroke:black; " description="&lt;b&gt;ATV95654.1&lt;/b&gt;&lt;br&gt;hypothetical protein&lt;br&gt;Location: 85024 - 84635" locus_tag="ATV95654.1" class="clusterblast-orf" id="dummy-3_h3_8_3"  />
</g>
<g id="a3_004"  >
<polygon points="74,90 79,90 84,85 79,80 74,80 74,90 " style="fill:white; stroke-width:1; stroke:black; " description="&lt;b&gt;ATV95653.1&lt;/b&gt;&lt;br&gt;RNA polymerase sigma factor&lt;br&gt;Location: 84638 - 83427" locus_tag="ATV95653.1" class="clusterblast-orf" id="dummy-3_h3_8_4"  />
</g>
<g id="a3_005"  >
<polygon points="85,85 90,80 90,80 90,90 90,90 85,85 " style="fill:white; stroke-width:1; stroke:black; " description="&lt;b&gt;ATV95652.1&lt;/b&gt;&lt;br&gt;HxlR family transcriptional regulator&lt;br&gt;Location: 83329 - 82634" locus_tag="ATV95652.1" class="clusterblast-orf" id="dummy-3_h3_8_5"  />
</g>
<g id="a3_006"  >
<polygon points="91,85 96,80 98,80 98,90 96,90 91,85 " style="fill:white; stroke-width:1; stroke:black; " description="&lt;b&gt;ATV95651.1&lt;/b&gt;&lt;br&gt;transcriptional regulator&lt;br&gt;Location: 82581 - 81745" locus_tag="ATV95651.1" class="clusterblast-orf" id="dummy-3_h3_8_6"  />
</g>
<g id="a3_007"  >
<polygon points="102,90 105,90 110,85 105,80 102,80 102,90 " style="fill:white; stroke-width:1; stroke:black; " description="&lt;b&gt;ATV95650.1&lt;/b&gt;&lt;br&gt;regulatory protein&lt;br&gt;Location: 81241 - 80321" locus_tag="ATV95650.1" class="clusterblast-orf" id="dummy-3_h3_8_7"  />
</g>
<g id="a3_008"  >
<polygon points="110,90 113,90 118,85 113,80 110,80 110,90 " style="fill:#6cd815; stroke-width:1; stroke:black; " description="&lt;b&gt;ATV95649.1&lt;/b&gt;&lt;br&gt;hypothetical protein&lt;br&gt;Location: 80295 - 79300&lt;br&gt;&lt;br&gt;&lt;b&gt;BlastP hit with HS041_14895&lt;/b&gt;&lt;br&gt;Percentage identity: 65&lt;br&gt;Percentage coverage: 97&lt;br&gt;BLAST bit score: 399&lt;br&gt;E-value: 1.09e-139" locus_tag="ATV95649.1" class="clusterblast-orf" id="dummy-3_h3_8_8"  />
</g>
<g id="a3_009"  >
<polygon points="119,90 123,90 128,85 123,80 119,80 119,90 " style="fill:#15c3d8; stroke-width:1; stroke:black; " description="&lt;b&gt;ATV95648.1&lt;/b&gt;&lt;br&gt;hypothetical protein&lt;br&gt;Location: 79193 - 78210&lt;br&gt;&lt;br&gt;&lt;b&gt;BlastP hit with HS041_14900&lt;/b&gt;&lt;br&gt;Percentage identity: 60&lt;br&gt;Percentage coverage: 99&lt;br&gt;BLAST bit score: 395&lt;br&gt;E-value: 1.83e-138" locus_tag="ATV95648.1" class="clusterblast-orf" id="dummy-3_h3_8_9"  />
</g>
<g id="a3_0010"  >
<polygon points="127,90 139,90 144,85 139,80 127,80 127,90 " style="fill:#9715d8; stroke-width:1; stroke:black; " description="&lt;b&gt;ATV95647.1&lt;/b&gt;&lt;br&gt;hypothetical protein&lt;br&gt;Location: 78213 - 76240&lt;br&gt;&lt;br&gt;&lt;b&gt;BlastP hit with HS041_14905&lt;/b&gt;&lt;br&gt;Percentage identity: 59&lt;br&gt;Percentage coverage: 101&lt;br&gt;BLAST bit score: 774&lt;br&gt;E-value: 3.14e-277" locus_tag="ATV95647.1" class="clusterblast-orf" id="dummy-3_h3_8_10"  />
</g>
<g id="a3_0011"  >
<polygon points="144,90 147,90 152,85 147,80 144,80 144,90 " style="fill:#d84115; stroke-width:1; stroke:black; " description="&lt;b&gt;ATV95646.1&lt;/b&gt;&lt;br&gt;hypothetical protein&lt;br&gt;Location: 76238 - 75234&lt;br&gt;&lt;br&gt;&lt;b&gt;BlastP hit with HS041_14910&lt;/b&gt;&lt;br&gt;Percentage identity: 66&lt;br&gt;Percentage coverage: 90&lt;br&gt;BLAST bit score: 395&lt;br&gt;E-value: 2.08e-138" locus_tag="ATV95646.1" class="clusterblast-orf" id="dummy-3_h3_8_11"  />
</g>
<g id="a3_0012"  >
<polygon points="152,90 159,90 164,85 159,80 152,80 152,90 " style="fill:#d86c15; stroke-width:1; stroke:black; " description="&lt;b&gt;ATV95645.1&lt;/b&gt;&lt;br&gt;P450 hydroxylase&lt;br&gt;Location: 75237 - 73861&lt;br&gt;&lt;br&gt;&lt;b&gt;BlastP hit with HS041_14930&lt;/b&gt;&lt;br&gt;Percentage identity: 65&lt;br&gt;Percentage coverage: 100&lt;br&gt;BLAST bit score: 566&lt;br&gt;E-value: 7.53e-202" locus_tag="ATV95645.1" class="clusterblast-orf" id="dummy-3_h3_8_12"  />
</g>
<g id="a3_0013"  >
<polygon points="164,90 164,90 169,85 164,80 164,80 164,90 " style="fill:#156cd8; stroke-width:1; stroke:black; " description="&lt;b&gt;ATV95644.1&lt;/b&gt;&lt;br&gt;Regulatory&lt;br&gt;Location: 73825 - 73244&lt;br&gt;&lt;br&gt;&lt;b&gt;BlastP hit with HS041_14950&lt;/b&gt;&lt;br&gt;Percentage identity: 69&lt;br&gt;Percentage coverage: 98&lt;br&gt;BLAST bit score: 253&lt;br&gt;E-value: 1.15e-86" locus_tag="ATV95644.1" class="clusterblast-orf" id="dummy-3_h3_8_13"  />
</g>
<g id="a3_0014"  >
<polygon points="169,90 178,90 183,85 178,80 169,80 169,90 " style="fill:#d815c3; stroke-width:1; stroke:black; " description="&lt;b&gt;ATV95643.1&lt;/b&gt;&lt;br&gt;Oxidoreductase&lt;br&gt;Location: 73247 - 71595&lt;br&gt;&lt;br&gt;&lt;b&gt;BlastP hit with HS041_14955&lt;/b&gt;&lt;br&gt;Percentage identity: 76&lt;br&gt;Percentage coverage: 99&lt;br&gt;BLAST bit score: 870&lt;br&gt;E-value: 9.16e-319" locus_tag="ATV95643.1" class="clusterblast-orf" id="dummy-3_h3_8_14"  />
</g>
<g id="a3_0015"  >
<polygon points="183,90 183,90 188,85 183,80 183,80 183,90 " style="fill:white; stroke-width:1; stroke:black; " description="&lt;b&gt;ATV95642.1&lt;/b&gt;&lt;br&gt;alkyhydroperoxidase&lt;br&gt;Location: 71595 - 71029" locus_tag="ATV95642.1" class="clusterblast-orf" id="dummy-3_h3_8_15"  />
</g>
<g id="a3_0016"  >
<polygon points="188,90 188,90 193,85 188,80 188,80 188,90 " style="fill:#d89715; stroke-width:1; stroke:black; " description="&lt;b&gt;ATV95641.1&lt;/b&gt;&lt;br&gt;alkylhydroperoxidase like protein&lt;br&gt;Location: 71053 - 70454&lt;br&gt;&lt;br&gt;&lt;b&gt;BlastP hit with HS041_14960&lt;/b&gt;&lt;br&gt;Percentage identity: 49&lt;br&gt;Percentage coverage: 54&lt;br&gt;BLAST bit score: 149&lt;br&gt;E-value: 1.59e-43" locus_tag="ATV95641.1" class="clusterblast-orf" id="dummy-3_h3_8_16"  />
</g>
<g id="a3_0017"  >
<polygon points="194,90 196,90 201,85 196,80 194,80 194,90 " style="fill:#15d841; stroke-width:1; stroke:black; " description="&lt;b&gt;ATV95640.1&lt;/b&gt;&lt;br&gt;hypothetical protein&lt;br&gt;Location: 70237 - 69443&lt;br&gt;&lt;br&gt;&lt;b&gt;BlastP hit with HS041_14965&lt;/b&gt;&lt;br&gt;Percentage identity: 64&lt;br&gt;Percentage coverage: 98&lt;br&gt;BLAST bit score: 329&lt;br&gt;E-value: 3e-114" locus_tag="ATV95640.1" class="clusterblast-orf" id="dummy-3_h3_8_17"  />
</g>
<g id="a3_0018"  >
<polygon points="203,90 247,90 252,85 247,80 203,80 203,90 " style="fill:#41d815; stroke-width:1; stroke:black; " description="&lt;b&gt;ATV95639.1&lt;/b&gt;&lt;br&gt;type I PKS&lt;br&gt;Location: 69191 - 63372&lt;br&gt;&lt;br&gt;&lt;b&gt;BlastP hit with HS041_14915&lt;/b&gt;&lt;br&gt;Percentage identity: 55&lt;br&gt;Percentage coverage: 101&lt;br&gt;BLAST bit score: 1927&lt;br&gt;E-value: 0.0" locus_tag="ATV95639.1" class="clusterblast-orf" id="dummy-3_h3_8_18"  />
</g>
<g id="a3_0019"  >
<polygon points="252,90 256,85 252,80 252,90 " style="fill:#1597d8; stroke-width:1; stroke:black; " description="&lt;b&gt;ATV95638.1&lt;/b&gt;&lt;br&gt;Thioesterase&lt;br&gt;Location: 63369 - 62920&lt;br&gt;&lt;br&gt;&lt;b&gt;BlastP hit with HS041_14920&lt;/b&gt;&lt;br&gt;Percentage identity: 75&lt;br&gt;Percentage coverage: 100&lt;br&gt;BLAST bit score: 219&lt;br&gt;E-value: 1.08e-74" locus_tag="ATV95638.1" class="clusterblast-orf" id="dummy-3_h3_8_19"  />
</g>
<g id="a3_0020"  >
<polygon points="256,90 256,90 261,85 256,80 256,80 256,90 " style="fill:white; stroke-width:1; stroke:black; " description="&lt;b&gt;ATV95637.1&lt;/b&gt;&lt;br&gt;FAD-dependent monooxygenase&lt;br&gt;Location: 62918 - 62346" locus_tag="ATV95637.1" class="clusterblast-orf" id="dummy-3_h3_8_20"  />
</g>
<g id="a3_0021"  >
<polygon points="261,90 265,90 270,85 265,80 261,80 261,90 " style="fill:white; stroke-width:1; stroke:black; " description="&lt;b&gt;ATV95636.1&lt;/b&gt;&lt;br&gt;NAD-dependent epimerase/dehydratase&lt;br&gt;Location: 62330 - 61251" locus_tag="ATV95636.1" class="clusterblast-orf" id="dummy-3_h3_8_21"  />
</g>
<g id="a3_0022"  >
<polygon points="270,90 272,85 270,80 270,90 " style="fill:white; stroke-width:1; stroke:black; " description="&lt;b&gt;ATV95635.1&lt;/b&gt;&lt;br&gt;hypothetical protein&lt;br&gt;Location: 61254 - 61039" locus_tag="ATV95635.1" class="clusterblast-orf" id="dummy-3_h3_8_22"  />
</g>
<g id="a3_0023"  >
<polygon points="272,90 281,90 286,85 281,80 272,80 272,90 " style="fill:#1541d8; stroke-width:1; stroke:black; " description="&lt;b&gt;ATV95634.1&lt;/b&gt;&lt;br&gt;methylmalonyl-CoA carboxyltransferase&lt;br&gt;Location: 61042 - 59339&lt;br&gt;&lt;br&gt;&lt;b&gt;BlastP hit with HS041_14985&lt;/b&gt;&lt;br&gt;Percentage identity: 74&lt;br&gt;Percentage coverage: 98&lt;br&gt;BLAST bit score: 772&lt;br&gt;E-value: 8.21e-280" locus_tag="ATV95634.1" class="clusterblast-orf" id="dummy-3_h3_8_23"  />
</g>
<g id="a3_0024"  >
<polygon points="286,90 288,85 286,80 286,90 " style="fill:white; stroke-width:1; stroke:black; " description="&lt;b&gt;ATV95633.1&lt;/b&gt;&lt;br&gt;acetyl-CoA carboxylase&lt;br&gt;Location: 59322 - 59101" locus_tag="ATV95633.1" class="clusterblast-orf" id="dummy-3_h3_8_24"  />
</g>
<g id="a3_0025"  >
<polygon points="288,85 290,80 290,90 288,85 " style="fill:white; stroke-width:1; stroke:black; " description="&lt;b&gt;ATV95632.1&lt;/b&gt;&lt;br&gt;hypothetical protein&lt;br&gt;Location: 59025 - 58840" locus_tag="ATV95632.1" class="clusterblast-orf" id="dummy-3_h3_8_25"  />
</g>
<g id="a3_0026"  >
<polygon points="291,90 293,85 291,80 291,90 " style="fill:white; stroke-width:1; stroke:black; " description="&lt;b&gt;ATV95631.1&lt;/b&gt;&lt;br&gt;hypothetical protein&lt;br&gt;Location: 58661 - 58503" locus_tag="ATV95631.1" class="clusterblast-orf" id="dummy-3_h3_8_26"  />
</g>
<g id="a3_0027"  >
<polygon points="294,90 297,85 294,80 294,90 " style="fill:white; stroke-width:1; stroke:black; " description="&lt;b&gt;ATV95630.1&lt;/b&gt;&lt;br&gt;hypothetical protein&lt;br&gt;Location: 58395 - 58051" locus_tag="ATV95630.1" class="clusterblast-orf" id="dummy-3_h3_8_27"  />
</g>
<g id="a3_0028"  >
<polygon points="298,90 298,90 303,85 298,80 298,80 298,90 " style="fill:white; stroke-width:1; stroke:black; " description="&lt;b&gt;ATV95629.1&lt;/b&gt;&lt;br&gt;hypothetical protein&lt;br&gt;Location: 57859 - 57311" locus_tag="ATV95629.1" class="clusterblast-orf" id="dummy-3_h3_8_28"  />
</g>
<g id="a3_0029"  >
<polygon points="303,90 309,90 314,85 309,80 303,80 303,90 " style="fill:white; stroke-width:1; stroke:black; " description="&lt;b&gt;ATV95628.1&lt;/b&gt;&lt;br&gt;pyridine nucleotide-disulfide oxidoreductase&lt;br&gt;Location: 57279 - 55936" locus_tag="ATV95628.1" class="clusterblast-orf" id="dummy-3_h3_8_29"  />
</g>
<g id="a3_0030"  >
<polygon points="314,90 318,85 314,80 314,90 " style="fill:white; stroke-width:1; stroke:black; " description="&lt;b&gt;ATV95627.1&lt;/b&gt;&lt;br&gt;hypothetical protein&lt;br&gt;Location: 55943 - 55485" locus_tag="ATV95627.1" class="clusterblast-orf" id="dummy-3_h3_8_30"  />
</g>
<g id="a3_0031"  >
<polygon points="318,90 322,85 318,80 318,90 " style="fill:white; stroke-width:1; stroke:black; " description="&lt;b&gt;ATV95626.1&lt;/b&gt;&lt;br&gt;peroxidase&lt;br&gt;Location: 55513 - 54968" locus_tag="ATV95626.1" class="clusterblast-orf" id="dummy-3_h3_8_31"  />
</g>
<g id="a3_0032"  >
<polygon points="323,85 328,80 334,80 334,90 328,90 323,85 " style="fill:white; stroke-width:1; stroke:black; " description="&lt;b&gt;ATV95625.1&lt;/b&gt;&lt;br&gt;sodium:proton exchanger&lt;br&gt;Location: 54921 - 53548" locus_tag="ATV95625.1" class="clusterblast-orf" id="dummy-3_h3_8_32"  />
</g>
<g id="a3_0033"  >
<polygon points="336,90 340,85 336,80 336,90 " style="fill:white; stroke-width:1; stroke:black; " description="&lt;b&gt;ATV95624.1&lt;/b&gt;&lt;br&gt;apoprotein&lt;br&gt;Location: 53354 - 52932" locus_tag="ATV95624.1" class="clusterblast-orf" id="dummy-3_h3_8_33"  />
</g>
<g id="a3_0034"  >
<polygon points="340,85 343,80 343,90 340,85 " style="fill:white; stroke-width:1; stroke:black; " description="&lt;b&gt;ATV95623.1&lt;/b&gt;&lt;br&gt;DNA ligase&lt;br&gt;Location: 52875 - 52528" locus_tag="ATV95623.1" class="clusterblast-orf" id="dummy-3_h3_8_34"  />
</g>
<g id="a3_0035"  >
<polygon points="343,85 348,80 358,80 358,90 348,90 343,85 " style="fill:white; stroke-width:1; stroke:black; " description="&lt;b&gt;ATV95622.1&lt;/b&gt;&lt;br&gt;DNA ligase&lt;br&gt;Location: 52531 - 50762" locus_tag="ATV95622.1" class="clusterblast-orf" id="dummy-3_h3_8_35"  />
</g>
<g id="a3_0036"  >
<polygon points="359,85 363,80 363,90 359,85 " style="fill:white; stroke-width:1; stroke:black; " description="&lt;b&gt;ATV95621.1&lt;/b&gt;&lt;br&gt;hypothetical protein&lt;br&gt;Location: 50613 - 50137" locus_tag="ATV95621.1" class="clusterblast-orf" id="dummy-3_h3_8_36"  />
</g>
<g id="a3_0037"  >
<polygon points="363,85 367,80 367,90 363,85 " style="fill:white; stroke-width:1; stroke:black; " description="&lt;b&gt;ATV95620.1&lt;/b&gt;&lt;br&gt;hypothetical protein&lt;br&gt;Location: 50113 - 49646" locus_tag="ATV95620.1" class="clusterblast-orf" id="dummy-3_h3_8_37"  />
</g>
<g id="a3_0038"  >
<polygon points="369,90 373,85 369,80 369,90 " style="fill:white; stroke-width:1; stroke:black; " description="&lt;b&gt;ATV95619.1&lt;/b&gt;&lt;br&gt;hypothetical protein&lt;br&gt;Location: 49407 - 48952" locus_tag="ATV95619.1" class="clusterblast-orf" id="dummy-3_h3_8_38"  />
</g>
<g id="a3_0039"  >
<polygon points="373,90 373,90 378,85 373,80 373,80 373,90 " style="fill:white; stroke-width:1; stroke:black; " description="&lt;b&gt;ATV95618.1&lt;/b&gt;&lt;br&gt;thiol peroxidase&lt;br&gt;Location: 48939 - 48400" locus_tag="ATV95618.1" class="clusterblast-orf" id="dummy-3_h3_8_39"  />
</g>
<g id="a3_0040"  >
<polygon points="380,85 385,80 394,80 394,90 385,90 380,85 " style="fill:white; stroke-width:1; stroke:black; " description="&lt;b&gt;ATV95617.1&lt;/b&gt;&lt;br&gt;CoA ligase&lt;br&gt;Location: 48128 - 46470" locus_tag="ATV95617.1" class="clusterblast-orf" id="dummy-3_h3_8_40"  />
</g>
<g id="a3_0041"  >
<polygon points="394,85 399,80 438,80 438,90 399,90 394,85 " style="fill:white; stroke-width:1; stroke:black; " description="&lt;b&gt;ATV95616.1&lt;/b&gt;&lt;br&gt;6-methylsalicylic acid synthase&lt;br&gt;Location: 46473 - 41251" locus_tag="ATV95616.1" class="clusterblast-orf" id="dummy-3_h3_8_41"  />
</g>
<g id="a3_0042"  >
<polygon points="438,85 443,80 447,80 447,90 443,90 438,85 " style="fill:white; stroke-width:1; stroke:black; " description="&lt;b&gt;ATV95615.1&lt;/b&gt;&lt;br&gt;C-methyltransferase&lt;br&gt;Location: 41153 - 40113" locus_tag="ATV95615.1" class="clusterblast-orf" id="dummy-3_h3_8_42"  />
</g>
<g id="a3_0043"  >
<polygon points="449,90 456,90 461,85 456,80 449,80 449,90 " style="fill:white; stroke-width:1; stroke:black; " description="&lt;b&gt;ATV95614.1&lt;/b&gt;&lt;br&gt;RNA polymerase sigma-70 factor&lt;br&gt;Location: 39838 - 38474" locus_tag="ATV95614.1" class="clusterblast-orf" id="dummy-3_h3_8_43"  />
</g>
<g id="a3_0044"  >
<polygon points="462,90 463,90 468,85 463,80 462,80 462,90 " style="fill:white; stroke-width:1; stroke:black; " description="&lt;b&gt;ATV95613.1&lt;/b&gt;&lt;br&gt;NADP-dependent 3-hydroxy acid dehydrogenase&lt;br&gt;Location: 38379 - 37591" locus_tag="ATV95613.1" class="clusterblast-orf" id="dummy-3_h3_8_44"  />
</g>
<g id="a3_0045"  >
<polygon points="470,90 472,90 477,85 472,80 470,80 470,90 " style="fill:white; stroke-width:1; stroke:black; " description="&lt;b&gt;ATV95612.1&lt;/b&gt;&lt;br&gt;NADP-dependent dehydrogenase&lt;br&gt;Location: 37363 - 36575" locus_tag="ATV95612.1" class="clusterblast-orf" id="dummy-3_h3_8_45"  />
</g>
<g id="a3_0046"  >
<polygon points="479,90 485,90 490,85 485,80 479,80 479,90 " style="fill:white; stroke-width:1; stroke:black; " description="&lt;b&gt;ATV95611.1&lt;/b&gt;&lt;br&gt;epoxidase&lt;br&gt;Location: 36332 - 35001" locus_tag="ATV95611.1" class="clusterblast-orf" id="dummy-3_h3_8_46"  />
</g>
<g id="a3_0047"  >
<polygon points="491,90 500,90 505,85 500,80 491,80 491,90 " style="fill:white; stroke-width:1; stroke:black; " description="&lt;b&gt;ATV95610.1&lt;/b&gt;&lt;br&gt;NRPS A-PCP didomain protein&lt;br&gt;Location: 34893 - 33163" locus_tag="ATV95610.1" class="clusterblast-orf" id="dummy-3_h3_8_47"  />
</g>
<g id="a3_0048"  >
<polygon points="505,90 507,85 505,80 505,90 " style="fill:white; stroke-width:1; stroke:black; " description="&lt;b&gt;ATV95609.1&lt;/b&gt;&lt;br&gt;MbtH-like protein&lt;br&gt;Location: 33152 - 32946" locus_tag="ATV95609.1" class="clusterblast-orf" id="dummy-3_h3_8_48"  />
</g>
<g id="a3_0049"  >
<polygon points="508,90 511,90 516,85 511,80 508,80 508,90 " style="fill:white; stroke-width:1; stroke:black; " description="&lt;b&gt;ATV95608.1&lt;/b&gt;&lt;br&gt;p-hydroxymandelate synthase&lt;br&gt;Location: 32899 - 31847" locus_tag="ATV95608.1" class="clusterblast-orf" id="dummy-3_h3_8_49"  />
</g>
<g id="a3_0050"  >
<polygon points="517,90 523,90 528,85 523,80 517,80 517,90 " style="fill:white; stroke-width:1; stroke:black; " description="&lt;b&gt;ATV95607.1&lt;/b&gt;&lt;br&gt;type II condensation domain protein&lt;br&gt;Location: 31817 - 30480" locus_tag="ATV95607.1" class="clusterblast-orf" id="dummy-3_h3_8_50"  />
</g>
<g id="a3_0051"  >
<polygon points="528,90 534,90 539,85 534,80 528,80 528,90 " style="fill:white; stroke-width:1; stroke:black; " description="&lt;b&gt;ATV95606.1&lt;/b&gt;&lt;br&gt;halogenase&lt;br&gt;Location: 30438 - 29209" locus_tag="ATV95606.1" class="clusterblast-orf" id="dummy-3_h3_8_51"  />
</g>
<g id="a3_0052"  >
<polygon points="539,90 543,90 548,85 543,80 539,80 539,90 " style="fill:white; stroke-width:1; stroke:black; " description="&lt;b&gt;ATV95605.1&lt;/b&gt;&lt;br&gt;hypothetical protein&lt;br&gt;Location: 29188 - 28079" locus_tag="ATV95605.1" class="clusterblast-orf" id="dummy-3_h3_8_52"  />
</g>
<g id="a3_0053"  >
<polygon points="551,85 556,80 561,80 561,90 556,90 551,85 " style="fill:white; stroke-width:1; stroke:black; " description="&lt;b&gt;ATV95604.1&lt;/b&gt;&lt;br&gt;cytochrome P450 monooxygenase&lt;br&gt;Location: 27748 - 26519" locus_tag="ATV95604.1" class="clusterblast-orf" id="dummy-3_h3_8_53"  />
</g>
<g id="a3_0054"  >
<polygon points="562,85 567,80 575,80 575,90 567,90 562,85 " style="fill:#15d86c; stroke-width:1; stroke:black; " description="&lt;b&gt;ATV95603.1&lt;/b&gt;&lt;br&gt;hydroxylase&lt;br&gt;Location: 26377 - 24869&lt;br&gt;&lt;br&gt;&lt;b&gt;BlastP hit with HS041_15065&lt;/b&gt;&lt;br&gt;Percentage identity: 81&lt;br&gt;Percentage coverage: 95&lt;br&gt;BLAST bit score: 861&lt;br&gt;E-value: 2.76e-316" locus_tag="ATV95603.1" class="clusterblast-orf" id="dummy-3_h3_8_54"  />
</g>
<g id="a3_0055"  >
<polygon points="575,85 580,80 581,80 581,90 580,90 575,85 " style="fill:white; stroke-width:1; stroke:black; " description="&lt;b&gt;ATV95602.1&lt;/b&gt;&lt;br&gt;O-methyltransferase&lt;br&gt;Location: 24848 - 24180" locus_tag="ATV95602.1" class="clusterblast-orf" id="dummy-3_h3_8_55"  />
</g>
<g id="a3_0056"  >
<polygon points="582,90 590,90 595,85 590,80 582,80 582,90 " style="fill:white; stroke-width:1; stroke:black; " description="&lt;b&gt;ATV95601.1&lt;/b&gt;&lt;br&gt;glycosyltransferase&lt;br&gt;Location: 23970 - 22516" locus_tag="ATV95601.1" class="clusterblast-orf" id="dummy-3_h3_8_56"  />
</g>
<g id="a3_0057"  >
<polygon points="598,85 603,80 608,80 608,90 603,90 598,85 " style="fill:#15d897; stroke-width:1; stroke:black; " description="&lt;b&gt;ATV95600.1&lt;/b&gt;&lt;br&gt;C-methyltransferase&lt;br&gt;Location: 22088 - 20886&lt;br&gt;&lt;br&gt;&lt;b&gt;BlastP hit with HS041_15155&lt;/b&gt;&lt;br&gt;Percentage identity: 58&lt;br&gt;Percentage coverage: 99&lt;br&gt;BLAST bit score: 470&lt;br&gt;E-value: 2.08e-165" locus_tag="ATV95600.1" class="clusterblast-orf" id="dummy-3_h3_8_57"  />
</g>
<g id="a3_0058"  >
<polygon points="609,85 614,80 617,80 617,90 614,90 609,85 " style="fill:#97d815; stroke-width:1; stroke:black; " description="&lt;b&gt;ATV95599.1&lt;/b&gt;&lt;br&gt;glucuronic acid decarboxylae&lt;br&gt;Location: 20833 - 19853&lt;br&gt;&lt;br&gt;&lt;b&gt;BlastP hit with HS041_15180&lt;/b&gt;&lt;br&gt;Percentage identity: 61&lt;br&gt;Percentage coverage: 98&lt;br&gt;BLAST bit score: 385&lt;br&gt;E-value: 1.57e-134" locus_tag="ATV95599.1" class="clusterblast-orf" id="dummy-3_h3_8_58"  />
</g>
<g id="a3_0059"  >
<polygon points="617,85 622,80 630,80 630,90 622,90 617,85 " style="fill:white; stroke-width:1; stroke:black; " description="&lt;b&gt;ATV95598.1&lt;/b&gt;&lt;br&gt;NDP-glucose dehydrogenase&lt;br&gt;Location: 19856 - 18351" locus_tag="ATV95598.1" class="clusterblast-orf" id="dummy-3_h3_8_59"  />
</g>
<g id="a3_0060"  >
<polygon points="630,90 630,90 635,85 630,80 630,80 630,90 " style="fill:white; stroke-width:1; stroke:black; " description="&lt;b&gt;ATV95597.1&lt;/b&gt;&lt;br&gt;NUDIX domain-containing protein&lt;br&gt;Location: 18264 - 17683" locus_tag="ATV95597.1" class="clusterblast-orf" id="dummy-3_h3_8_60"  />
</g>
<g id="a3_0061"  >
<polygon points="635,85 640,80 642,80 642,90 640,90 635,85 " style="fill:white; stroke-width:1; stroke:black; " description="&lt;b&gt;ATV95596.1&lt;/b&gt;&lt;br&gt;aceryltransferase/esterase&lt;br&gt;Location: 17657 - 16830" locus_tag="ATV95596.1" class="clusterblast-orf" id="dummy-3_h3_8_61"  />
</g>
<g id="a3_0062"  >
<polygon points="644,90 649,90 654,85 649,80 644,80 644,90 " style="fill:white; stroke-width:1; stroke:black; " description="&lt;b&gt;ATV95595.1&lt;/b&gt;&lt;br&gt;oxidoreductase&lt;br&gt;Location: 16576 - 15392" locus_tag="ATV95595.1" class="clusterblast-orf" id="dummy-3_h3_8_62"  />
</g>
<g id="a3_0063"  >
<polygon points="657,90 665,90 670,85 665,80 657,80 657,90 " style="fill:#6c15d8; stroke-width:1; stroke:black; " description="&lt;b&gt;ATV95594.1&lt;/b&gt;&lt;br&gt;efflux pump transporter&lt;br&gt;Location: 15116 - 13518&lt;br&gt;&lt;br&gt;&lt;b&gt;BlastP hit with HS041_15190&lt;/b&gt;&lt;br&gt;Percentage identity: 49&lt;br&gt;Percentage coverage: 100&lt;br&gt;BLAST bit score: 433&lt;br&gt;E-value: 4.42e-147" locus_tag="ATV95594.1" class="clusterblast-orf" id="dummy-3_h3_8_63"  />
</g>
<g id="a3_0064"  >
<polygon points="671,90 676,90 681,85 676,80 671,80 671,90 " style="fill:white; stroke-width:1; stroke:black; " description="&lt;b&gt;ATV95593.1&lt;/b&gt;&lt;br&gt;aminotransferase&lt;br&gt;Location: 13434 - 12271" locus_tag="ATV95593.1" class="clusterblast-orf" id="dummy-3_h3_8_64"  />
</g>
<g id="a3_0065"  >
<polygon points="681,90 685,90 690,85 685,80 681,80 681,90 " style="fill:white; stroke-width:1; stroke:black; " description="&lt;b&gt;ATV95592.1&lt;/b&gt;&lt;br&gt;zinc-containing alcohol dehydrogenase&lt;br&gt;Location: 12190 - 11168" locus_tag="ATV95592.1" class="clusterblast-orf" id="dummy-3_h3_8_65"  />
</g>
<g id="a3_0066"  >
<polygon points="692,90 695,90 700,85 695,80 692,80 692,90 " style="fill:white; stroke-width:1; stroke:black; " description="&lt;b&gt;ATV95591.1&lt;/b&gt;&lt;br&gt;glycosyltransferase&lt;br&gt;Location: 10906 - 10001" locus_tag="ATV95591.1" class="clusterblast-orf" id="dummy-3_h3_8_66"  />
</g>
<g id="a3_0067"  >
<polygon points="699,85 704,80 708,80 708,90 704,90 699,85 " style="fill:white; stroke-width:1; stroke:black; " description="&lt;b&gt;ATV95590.1&lt;/b&gt;&lt;br&gt;hypothetical protein&lt;br&gt;Location: 10115 - 9039" locus_tag="ATV95590.1" class="clusterblast-orf" id="dummy-3_h3_8_67"  />
</g>
<g id="a3_0068"  >
<polygon points="709,85 710,80 710,90 709,85 " style="fill:white; stroke-width:1; stroke:black; " description="&lt;b&gt;ATV95589.1&lt;/b&gt;&lt;br&gt;hypothetical protein&lt;br&gt;Location: 8942 - 8727" locus_tag="ATV95589.1" class="clusterblast-orf" id="dummy-3_h3_8_68"  />
</g>
<g id="a3_0069"  >
<polygon points="721,85 725,80 725,90 721,85 " style="fill:white; stroke-width:1; stroke:black; " description="&lt;b&gt;ATV95588.1&lt;/b&gt;&lt;br&gt;peptidase inhibitor&lt;br&gt;Location: 7396 - 7022" locus_tag="ATV95588.1" class="clusterblast-orf" id="dummy-3_h3_8_69"  />
</g>
</svg>
