<svg xmlns="http://www.w3.org/2000/svg" xmlns:xlink="http://www.w3.org/1999/xlink" version="1.1" x="0" y="0" height="230" width="800" viewBox="0 0 800 230" preserveAspectRatio="none"  >
<g label="Query sequence" class="clusterblast-cluster"  >
<text x="5" y="20" class="clusterblast-acc"  >
Query sequence</text>
<line x1="10" y1="35" x2="778.0" y2="35" style="stroke-width:1; stroke:grey; "  />
<polygon points="250,35 255,30 260,30 260,40 255,40 250,35 " style="fill:white; stroke-width:1; stroke:black; " description="&lt;b&gt;HS041_32600&lt;/b&gt;&lt;br&gt;hypothetical protein&lt;br&gt;Location: 377985 - 379809" locus_tag="HS041_32600" class="clusterblast-orf" id="dummy-1_q0_0_all"  />
<polygon points="260,35 265,30 265,30 265,40 265,40 260,35 " style="fill:white; stroke-width:1; stroke:black; " description="&lt;b&gt;HS041_32605&lt;/b&gt;&lt;br&gt;ABC transporter ATP-binding protein&lt;br&gt;Location: 379793 - 380630" locus_tag="HS041_32605" class="clusterblast-orf" id="dummy-1_q1_0_all"  />
<polygon points="266,35 271,30 272,30 272,40 271,40 266,35 " style="fill:white; stroke-width:1; stroke:black; " description="&lt;b&gt;HS041_32610&lt;/b&gt;&lt;br&gt;aldo/keto reductase&lt;br&gt;Location: 380759 - 381737" locus_tag="HS041_32610" class="clusterblast-orf" id="dummy-1_q2_0_all"  />
<polygon points="273,35 276,30 276,40 273,35 " style="fill:white; stroke-width:1; stroke:black; " description="&lt;b&gt;HS041_32615&lt;/b&gt;&lt;br&gt;hypothetical protein&lt;br&gt;Location: 381914 - 382430" locus_tag="HS041_32615" class="clusterblast-orf" id="dummy-1_q3_0_all"  />
<polygon points="277,35 282,30 286,30 286,40 282,40 277,35 " style="fill:white; stroke-width:1; stroke:black; " description="&lt;b&gt;HS041_32620&lt;/b&gt;&lt;br&gt;N-acetylmuramoyl-L-alanine amidase&lt;br&gt;Location: 382653 - 384165" locus_tag="HS041_32620" class="clusterblast-orf" id="dummy-1_q4_0_all"  />
<polygon points="287,40 287,40 292,35 287,30 287,30 287,40 " style="fill:white; stroke-width:1; stroke:black; " description="&lt;b&gt;HS041_32625&lt;/b&gt;&lt;br&gt;hypothetical protein&lt;br&gt;Location: 384428 - 385226" locus_tag="HS041_32625" class="clusterblast-orf" id="dummy-1_q5_0_all"  />
<polygon points="295,40 297,35 295,30 295,40 " style="fill:#d81515; stroke-width:1; stroke:black; " description="&lt;b&gt;HS041_32630&lt;/b&gt;&lt;br&gt;VOC family protein&lt;br&gt;Location: 385745 - 386096" locus_tag="HS041_32630" class="clusterblast-orf" id="dummy-1_q6_0_all"  />
<polygon points="298,40 300,35 298,30 298,40 " style="fill:white; stroke-width:1; stroke:black; " description="&lt;b&gt;HS041_32635&lt;/b&gt;&lt;br&gt;VOC family protein&lt;br&gt;Location: 386220 - 386607" locus_tag="HS041_32635" class="clusterblast-orf" id="dummy-1_q7_0_all"  />
<polygon points="301,35 306,30 308,30 308,40 306,40 301,35 " style="fill:white; stroke-width:1; stroke:black; " description="&lt;b&gt;HS041_32640&lt;/b&gt;&lt;br&gt;alpha/beta fold hydrolase&lt;br&gt;Location: 386683 - 387973" locus_tag="HS041_32640" class="clusterblast-orf" id="dummy-1_q8_0_all"  />
<polygon points="309,40 312,35 309,30 309,40 " style="fill:white; stroke-width:1; stroke:black; " description="&lt;b&gt;HS041_32645&lt;/b&gt;&lt;br&gt;helix-turn-helix domain-containing protein&lt;br&gt;Location: 388049 - 388580" locus_tag="HS041_32645" class="clusterblast-orf" id="dummy-1_q9_0_all"  />
<polygon points="312,35 317,30 317,30 317,40 317,40 312,35 " style="fill:white; stroke-width:1; stroke:black; " description="&lt;b&gt;HS041_32650&lt;/b&gt;&lt;br&gt;helix-turn-helix transcriptional regulator&lt;br&gt;Location: 388576 - 389389" locus_tag="HS041_32650" class="clusterblast-orf" id="dummy-1_q10_0_all"  />
<polygon points="317,40 320,40 325,35 320,30 317,30 317,40 " style="fill:white; stroke-width:1; stroke:black; " description="&lt;b&gt;HS041_32655&lt;/b&gt;&lt;br&gt;aminoglycoside phosphotransferase family protein&lt;br&gt;Location: 389556 - 390755" locus_tag="HS041_32655" class="clusterblast-orf" id="dummy-1_q11_0_all"  />
<polygon points="325,35 330,30 338,30 338,40 330,40 325,35 " style="fill:white; stroke-width:1; stroke:black; " description="&lt;b&gt;HS041_32660&lt;/b&gt;&lt;br&gt;accessory Sec system translocase SecA2&lt;br&gt;Location: 390821 - 393044" locus_tag="HS041_32660" class="clusterblast-orf" id="dummy-1_q12_0_all"  />
<polygon points="339,35 344,30 345,30 345,40 344,40 339,35 " style="fill:white; stroke-width:1; stroke:black; " description="&lt;b&gt;HS041_32665&lt;/b&gt;&lt;br&gt;helix-turn-helix domain-containing protein&lt;br&gt;Location: 393147 - 394269" locus_tag="HS041_32665" class="clusterblast-orf" id="dummy-1_q13_0_all"  />
<polygon points="346,40 346,40 351,35 346,30 346,30 346,40 " style="fill:#15d863; stroke-width:1; stroke:black; " description="&lt;b&gt;HS041_32670&lt;/b&gt;&lt;br&gt;class II aldolase/adducin family protein&lt;br&gt;Location: 394498 - 395290" locus_tag="HS041_32670" class="clusterblast-orf" id="dummy-1_q14_0_all"  />
<polygon points="351,35 356,30 362,30 362,40 356,40 351,35 " style="fill:white; stroke-width:1; stroke:black; " description="&lt;b&gt;HS041_32675&lt;/b&gt;&lt;br&gt;winged helix-turn-helix domain-containing protein&lt;br&gt;Location: 395347 - 397192" locus_tag="HS041_32675" class="clusterblast-orf" id="dummy-1_q15_0_all"  />
<polygon points="365,40 378,40 383,35 378,30 365,30 365,40 " style="fill:#1563d8; stroke-width:1; stroke:black; " description="&lt;b&gt;HS041_32680&lt;/b&gt;&lt;br&gt;amino acid adenylation domain-containing protein&lt;br&gt;Location: 397572 - 400794" locus_tag="HS041_32680" class="clusterblast-orf" id="dummy-1_q16_0_all"  />
<polygon points="383,40 412,40 417,35 412,30 383,30 383,40 " style="fill:#b115d8; stroke-width:1; stroke:black; " description="&lt;b&gt;HS041_32685&lt;/b&gt;&lt;br&gt;amino acid adenylation domain-containing protein&lt;br&gt;Location: 400790 - 406460" locus_tag="HS041_32685" class="clusterblast-orf" id="dummy-1_q17_0_all"  />
<polygon points="417,40 417,40 422,35 417,30 417,30 417,40 " style="fill:#b1d815; stroke-width:1; stroke:black; " description="&lt;b&gt;HS041_32690&lt;/b&gt;&lt;br&gt;TauD/TfdA family dioxygenase&lt;br&gt;Location: 406456 - 407431" locus_tag="HS041_32690" class="clusterblast-orf" id="dummy-1_q18_0_all"  />
<polygon points="424,40 428,40 433,35 428,30 424,30 424,40 " style="fill:white; stroke-width:1; stroke:black; " description="&lt;b&gt;HS041_32695&lt;/b&gt;&lt;br&gt;CHASE3 domain-containing protein&lt;br&gt;Location: 407635 - 409249" locus_tag="HS041_32695" class="clusterblast-orf" id="dummy-1_q19_0_all"  />
<polygon points="433,40 435,35 433,30 433,40 " style="fill:white; stroke-width:1; stroke:black; " description="&lt;b&gt;HS041_32700&lt;/b&gt;&lt;br&gt;VOC family protein&lt;br&gt;Location: 409274 - 409634" locus_tag="HS041_32700" class="clusterblast-orf" id="dummy-1_q20_0_all"  />
<polygon points="435,35 440,30 442,30 442,40 440,40 435,35 " style="fill:white; stroke-width:1; stroke:black; " description="&lt;b&gt;HS041_32705&lt;/b&gt;&lt;br&gt;M20 family metallopeptidase&lt;br&gt;Location: 409668 - 410853" locus_tag="HS041_32705" class="clusterblast-orf" id="dummy-1_q21_0_all"  />
<polygon points="445,35 450,30 450,30 450,40 450,40 445,35 " style="fill:white; stroke-width:1; stroke:black; " description="&lt;b&gt;HS041_32710&lt;/b&gt;&lt;br&gt;EamA family transporter&lt;br&gt;Location: 411249 - 412152" locus_tag="HS041_32710" class="clusterblast-orf" id="dummy-1_q22_0_all"  />
<polygon points="452,40 453,40 458,35 453,30 452,30 452,40 " style="fill:white; stroke-width:1; stroke:black; " description="&lt;b&gt;HS041_32715&lt;/b&gt;&lt;br&gt;DMT family transporter&lt;br&gt;Location: 412573 - 413440" locus_tag="HS041_32715" class="clusterblast-orf" id="dummy-1_q23_0_all"  />
<polygon points="458,35 463,30 465,30 465,40 463,40 458,35 " style="fill:white; stroke-width:1; stroke:black; " description="&lt;b&gt;HS041_32720&lt;/b&gt;&lt;br&gt;FAD-dependent monooxygenase&lt;br&gt;Location: 413451 - 414669" locus_tag="HS041_32720" class="clusterblast-orf" id="dummy-1_q24_0_all"  />
<polygon points="465,40 469,35 465,30 465,40 " style="fill:white; stroke-width:1; stroke:black; " description="&lt;b&gt;HS041_32725&lt;/b&gt;&lt;br&gt;TetR/AcrR family transcriptional regulator&lt;br&gt;Location: 414741 - 415380" locus_tag="HS041_32725" class="clusterblast-orf" id="dummy-1_q25_0_all"  />
<polygon points="469,35 473,30 473,40 469,35 " style="fill:white; stroke-width:1; stroke:black; " description="&lt;b&gt;HS041_32730&lt;/b&gt;&lt;br&gt;GNAT family N-acetyltransferase&lt;br&gt;Location: 415410 - 416022" locus_tag="HS041_32730" class="clusterblast-orf" id="dummy-1_q26_0_all"  />
<polygon points="474,40 476,40 481,35 476,30 474,30 474,40 " style="fill:white; stroke-width:1; stroke:black; " description="&lt;b&gt;HS041_32735&lt;/b&gt;&lt;br&gt;acyl-CoA dehydrogenase family protein&lt;br&gt;Location: 416232 - 417447" locus_tag="HS041_32735" class="clusterblast-orf" id="dummy-1_q27_0_all"  />
<polygon points="481,40 483,40 488,35 483,30 481,30 481,40 " style="fill:white; stroke-width:1; stroke:black; " description="&lt;b&gt;HS041_32740&lt;/b&gt;&lt;br&gt;acyl-CoA dehydrogenase family protein&lt;br&gt;Location: 417443 - 418610" locus_tag="HS041_32740" class="clusterblast-orf" id="dummy-1_q28_0_all"  />
<polygon points="489,40 490,40 495,35 490,30 489,30 489,40 " style="fill:white; stroke-width:1; stroke:black; " description="&lt;b&gt;HS041_32745&lt;/b&gt;&lt;br&gt;acyl-CoA/acyl-ACP dehydrogenase&lt;br&gt;Location: 418784 - 419858" locus_tag="HS041_32745" class="clusterblast-orf" id="dummy-1_q29_0_all"  />
<polygon points="496,35 499,30 499,40 496,35 " style="fill:white; stroke-width:1; stroke:black; " description="&lt;b&gt;HS041_32750&lt;/b&gt;&lt;br&gt;helix-turn-helix transcriptional regulator&lt;br&gt;Location: 419935 - 420529" locus_tag="HS041_32750" class="clusterblast-orf" id="dummy-1_q30_0_all"  />
<polygon points="500,40 500,40 505,35 500,30 500,30 500,40 " style="fill:white; stroke-width:1; stroke:black; " description="&lt;b&gt;HS041_32755&lt;/b&gt;&lt;br&gt;SDR family oxidoreductase&lt;br&gt;Location: 420644 - 421451" locus_tag="HS041_32755" class="clusterblast-orf" id="dummy-1_q31_0_all"  />
<polygon points="504,35 508,30 508,40 504,35 " style="fill:white; stroke-width:1; stroke:black; " description="&lt;b&gt;HS041_32760&lt;/b&gt;&lt;br&gt;TetR/AcrR family transcriptional regulator&lt;br&gt;Location: 421419 - 422013" locus_tag="HS041_32760" class="clusterblast-orf" id="dummy-1_q32_0_all"  />
<polygon points="509,40 513,35 509,30 509,40 " style="fill:white; stroke-width:1; stroke:black; " description="&lt;b&gt;HS041_32765&lt;/b&gt;&lt;br&gt;NERD domain-containing protein&lt;br&gt;Location: 422196 - 422973" locus_tag="HS041_32765" class="clusterblast-orf" id="dummy-1_q33_0_all"  />
<polygon points="514,35 519,30 523,30 523,40 519,40 514,35 " style="fill:white; stroke-width:1; stroke:black; " description="&lt;b&gt;HS041_32770&lt;/b&gt;&lt;br&gt;VWA domain-containing protein&lt;br&gt;Location: 422993 - 424523" locus_tag="HS041_32770" class="clusterblast-orf" id="dummy-1_q34_0_all"  />
<polygon points="522,35 527,30 527,30 527,40 527,40 522,35 " style="fill:white; stroke-width:1; stroke:black; " description="&lt;b&gt;HS041_32775&lt;/b&gt;&lt;br&gt;MoxR family ATPase&lt;br&gt;Location: 424437 - 425289" locus_tag="HS041_32775" class="clusterblast-orf" id="dummy-1_q35_0_all"  />
<polygon points="528,35 529,30 529,40 528,35 " style="fill:white; stroke-width:1; stroke:black; " description="&lt;b&gt;HS041_32785&lt;/b&gt;&lt;br&gt;hypothetical protein&lt;br&gt;Location: 425429 - 425702" locus_tag="HS041_32785" class="clusterblast-orf" id="dummy-1_q36_0_all"  />
</g>
<g label="BGC0000081" description="BGC0000081_c1: kedarcidin (1% of genes show similarity), NRP+Polyketide:Iterative type I polyketide+Polyketide:Enediyne type I polyketide" class="clusterblast-cluster"  >
<text x="5" y="70" class="clusterblast-acc"  >
<a xlink:href="https://mibig.secondarymetabolites.org/go/BGC0000081/1" target="_blank">BGC0000081</a>: kedarcidin                                                                       (1% of genes show similarity), NRP+Polyketide:Iterative type I polyketide+Polyketide:Enediyne type I polyketide</text>
<line x1="10" y1="85" x2="778.0" y2="85" style="stroke-width:1; stroke:grey; "  />
</g>
<g id="a1_000"  >
<polygon points="0,85 2,80 2,90 0,85 " style="fill:white; stroke-width:1; stroke:black; " description="&lt;b&gt;AFV52099.1&lt;/b&gt;&lt;br&gt;hypothetical protein&lt;br&gt;Location: 1834 - 2256" locus_tag="AFV52099.1" class="clusterblast-orf" id="dummy-1_h1_7_0"  />
</g>
<g id="a1_001"  >
<polygon points="2,85 3,80 3,90 2,85 " style="fill:white; stroke-width:1; stroke:black; " description="&lt;b&gt;AFV52100.1&lt;/b&gt;&lt;br&gt;hypothetical protein&lt;br&gt;Location: 2265 - 2420" locus_tag="AFV52100.1" class="clusterblast-orf" id="dummy-1_h1_7_1"  />
</g>
<g id="a1_002"  >
<polygon points="4,85 6,80 6,90 4,85 " style="fill:#d81515; stroke-width:1; stroke:black; " description="&lt;b&gt;AFV52101.1&lt;/b&gt;&lt;br&gt;hypothetical protein&lt;br&gt;Location: 2617 - 2991&lt;br&gt;&lt;br&gt;&lt;b&gt;BlastP hit with HS041_32630&lt;/b&gt;&lt;br&gt;Percentage identity: 48&lt;br&gt;Percentage coverage: 105&lt;br&gt;BLAST bit score: 99&lt;br&gt;E-value: 1.02e-27" locus_tag="AFV52101.1" class="clusterblast-orf" id="dummy-1_h1_7_2"  />
</g>
<g id="a1_003"  >
<polygon points="7,90 8,90 13,85 8,80 7,80 7,90 " style="fill:white; stroke-width:1; stroke:black; " description="&lt;b&gt;AFV52102.1&lt;/b&gt;&lt;br&gt;hypothetical protein&lt;br&gt;Location: 3093 - 4097" locus_tag="AFV52102.1" class="clusterblast-orf" id="dummy-1_h1_7_3"  />
</g>
<g id="a1_004"  >
<polygon points="14,90 15,90 20,85 15,80 14,80 14,90 " style="fill:white; stroke-width:1; stroke:black; " description="&lt;b&gt;AFV52103.1&lt;/b&gt;&lt;br&gt;putative O-methyltransferase&lt;br&gt;Location: 4291 - 5286" locus_tag="AFV52103.1" class="clusterblast-orf" id="dummy-1_h1_7_4"  />
</g>
<g id="a1_005"  >
<polygon points="22,90 24,85 22,80 22,90 " style="fill:white; stroke-width:1; stroke:black; " description="&lt;b&gt;AFV52104.1&lt;/b&gt;&lt;br&gt;hypothetical protein&lt;br&gt;Location: 5630 - 5989" locus_tag="AFV52104.1" class="clusterblast-orf" id="dummy-1_h1_7_5"  />
</g>
<g id="a1_006"  >
<polygon points="24,85 27,80 27,90 24,85 " style="fill:white; stroke-width:1; stroke:black; " description="&lt;b&gt;AFV52105.1&lt;/b&gt;&lt;br&gt;hypothetical protein&lt;br&gt;Location: 6036 - 6518" locus_tag="AFV52105.1" class="clusterblast-orf" id="dummy-1_h1_7_6"  />
</g>
<g id="a1_007"  >
<polygon points="27,85 30,80 30,90 27,85 " style="fill:white; stroke-width:1; stroke:black; " description="&lt;b&gt;AFV52106.1&lt;/b&gt;&lt;br&gt;putative flavin reductase&lt;br&gt;Location: 6515 - 7009" locus_tag="AFV52106.1" class="clusterblast-orf" id="dummy-1_h1_7_7"  />
</g>
<g id="a1_008"  >
<polygon points="30,85 35,80 35,80 35,90 35,90 30,85 " style="fill:white; stroke-width:1; stroke:black; " description="&lt;b&gt;AFV52107.1&lt;/b&gt;&lt;br&gt;putative monooxygenase&lt;br&gt;Location: 7003 - 7962" locus_tag="AFV52107.1" class="clusterblast-orf" id="dummy-1_h1_7_8"  />
</g>
<g id="a1_009"  >
<polygon points="36,90 40,85 36,80 36,90 " style="fill:white; stroke-width:1; stroke:black; " description="&lt;b&gt;AFV52108.1&lt;/b&gt;&lt;br&gt;putative TetR transcriptional regulator&lt;br&gt;Location: 8093 - 8704" locus_tag="AFV52108.1" class="clusterblast-orf" id="dummy-1_h1_7_9"  />
</g>
<g id="a1_0010"  >
<polygon points="41,85 46,80 46,80 46,90 46,90 41,85 " style="fill:white; stroke-width:1; stroke:black; " description="&lt;b&gt;AFV52109.1&lt;/b&gt;&lt;br&gt;hypothetical protein&lt;br&gt;Location: 8849 - 9790" locus_tag="AFV52109.1" class="clusterblast-orf" id="dummy-1_h1_7_10"  />
</g>
<g id="a1_0011"  >
<polygon points="47,90 51,85 47,80 47,90 " style="fill:white; stroke-width:1; stroke:black; " description="&lt;b&gt;AFV52110.1&lt;/b&gt;&lt;br&gt;hypothetical protein&lt;br&gt;Location: 9953 - 10621" locus_tag="AFV52110.1" class="clusterblast-orf" id="dummy-1_h1_7_11"  />
</g>
<g id="a1_0012"  >
<polygon points="52,90 56,85 52,80 52,90 " style="fill:white; stroke-width:1; stroke:black; " description="&lt;b&gt;AFV52111.1&lt;/b&gt;&lt;br&gt;hypothetical protein&lt;br&gt;Location: 10777 - 11385" locus_tag="AFV52111.1" class="clusterblast-orf" id="dummy-1_h1_7_12"  />
</g>
<g id="a1_0013"  >
<polygon points="55,90 59,85 55,80 55,90 " style="fill:white; stroke-width:1; stroke:black; " description="&lt;b&gt;AFV52112.1&lt;/b&gt;&lt;br&gt;hypothetical protein&lt;br&gt;Location: 11382 - 11942" locus_tag="AFV52112.1" class="clusterblast-orf" id="dummy-1_h1_7_13"  />
</g>
<g id="a1_0014"  >
<polygon points="61,90 63,90 68,85 63,80 61,80 61,90 " style="fill:white; stroke-width:1; stroke:black; " description="&lt;b&gt;AFV52113.1&lt;/b&gt;&lt;br&gt;putative transporter&lt;br&gt;Location: 12343 - 13569" locus_tag="AFV52113.1" class="clusterblast-orf" id="dummy-1_h1_7_14"  />
</g>
<g id="a1_0015"  >
<polygon points="68,90 68,90 73,85 68,80 68,80 68,90 " style="fill:white; stroke-width:1; stroke:black; " description="&lt;b&gt;AFV52114.1&lt;/b&gt;&lt;br&gt;hypothetical protein&lt;br&gt;Location: 13566 - 14351" locus_tag="AFV52114.1" class="clusterblast-orf" id="dummy-1_h1_7_15"  />
</g>
<g id="a1_0016"  >
<polygon points="73,85 76,80 76,90 73,85 " style="fill:white; stroke-width:1; stroke:black; " description="&lt;b&gt;AFV52115.1&lt;/b&gt;&lt;br&gt;hypothetical protein DUF1470&lt;br&gt;Location: 14348 - 14944" locus_tag="AFV52115.1" class="clusterblast-orf" id="dummy-1_h1_7_16"  />
</g>
<g id="a1_0017"  >
<polygon points="78,90 78,90 83,85 78,80 78,80 78,90 " style="fill:white; stroke-width:1; stroke:black; " description="&lt;b&gt;AFV52116.1&lt;/b&gt;&lt;br&gt;putative LysR transcriptional regulator&lt;br&gt;Location: 15212 - 16102" locus_tag="AFV52116.1" class="clusterblast-orf" id="dummy-1_h1_7_17"  />
</g>
<g id="a1_0018"  >
<polygon points="84,90 85,85 84,80 84,90 " style="fill:white; stroke-width:1; stroke:black; " description="&lt;b&gt;AFV52117.1&lt;/b&gt;&lt;br&gt;hypothetical protein&lt;br&gt;Location: 16189 - 16485" locus_tag="AFV52117.1" class="clusterblast-orf" id="dummy-1_h1_7_18"  />
</g>
<g id="a1_0019"  >
<polygon points="86,90 90,90 95,85 90,80 86,80 86,90 " style="fill:white; stroke-width:1; stroke:black; " description="&lt;b&gt;AFV52118.1&lt;/b&gt;&lt;br&gt;putative GntR transcriptional regulator/aminotransferase&lt;br&gt;Location: 16608 - 18056" locus_tag="AFV52118.1" class="clusterblast-orf" id="dummy-1_h1_7_19"  />
</g>
<g id="a1_0020"  >
<polygon points="95,85 100,80 102,80 102,90 100,90 95,85 " style="fill:white; stroke-width:1; stroke:black; " description="&lt;b&gt;AFV52119.1&lt;/b&gt;&lt;br&gt;phenylalanine aminotransferase&lt;br&gt;Location: 18116 - 19228" locus_tag="AFV52119.1" class="clusterblast-orf" id="dummy-1_h1_7_20"  />
</g>
<g id="a1_0021"  >
<polygon points="102,85 107,80 108,80 108,90 107,90 102,85 " style="fill:white; stroke-width:1; stroke:black; " description="&lt;b&gt;AFV52120.1&lt;/b&gt;&lt;br&gt;DAHP synthase&lt;br&gt;Location: 19255 - 20298" locus_tag="AFV52120.1" class="clusterblast-orf" id="dummy-1_h1_7_21"  />
</g>
<g id="a1_0022"  >
<polygon points="108,85 109,80 109,90 108,85 " style="fill:white; stroke-width:1; stroke:black; " description="&lt;b&gt;AFV52121.1&lt;/b&gt;&lt;br&gt;chorismate mutase&lt;br&gt;Location: 20316 - 20546" locus_tag="AFV52121.1" class="clusterblast-orf" id="dummy-1_h1_7_22"  />
</g>
<g id="a1_0023"  >
<polygon points="110,85 113,80 113,90 110,85 " style="fill:white; stroke-width:1; stroke:black; " description="&lt;b&gt;AFV52122.1&lt;/b&gt;&lt;br&gt;ADC synthase II&lt;br&gt;Location: 20642 - 21265" locus_tag="AFV52122.1" class="clusterblast-orf" id="dummy-1_h1_7_23"  />
</g>
<g id="a1_0024"  >
<polygon points="113,85 118,80 122,80 122,90 118,90 113,85 " style="fill:white; stroke-width:1; stroke:black; " description="&lt;b&gt;AFV52123.1&lt;/b&gt;&lt;br&gt;ADC synthase I&lt;br&gt;Location: 21246 - 22769" locus_tag="AFV52123.1" class="clusterblast-orf" id="dummy-1_h1_7_24"  />
</g>
<g id="a1_0025"  >
<polygon points="122,85 126,80 126,90 122,85 " style="fill:white; stroke-width:1; stroke:black; " description="&lt;b&gt;AFV52124.1&lt;/b&gt;&lt;br&gt;ADIC dehydrogenase&lt;br&gt;Location: 22766 - 23443" locus_tag="AFV52124.1" class="clusterblast-orf" id="dummy-1_h1_7_25"  />
</g>
<g id="a1_0026"  >
<polygon points="128,90 129,85 128,80 128,90 " style="fill:white; stroke-width:1; stroke:black; " description="&lt;b&gt;AFV52125.1&lt;/b&gt;&lt;br&gt;4-oxalocrotonate tatuomerase&lt;br&gt;Location: 23714 - 23896" locus_tag="AFV52125.1" class="clusterblast-orf" id="dummy-1_h1_7_26"  />
</g>
<g id="a1_0027"  >
<polygon points="129,90 131,85 129,80 129,90 " style="fill:white; stroke-width:1; stroke:black; " description="&lt;b&gt;AFV52126.1&lt;/b&gt;&lt;br&gt;chorismate mutase-like protein&lt;br&gt;Location: 23933 - 24316" locus_tag="AFV52126.1" class="clusterblast-orf" id="dummy-1_h1_7_27"  />
</g>
<g id="a1_0028"  >
<polygon points="134,90 136,90 141,85 136,80 134,80 134,90 " style="fill:white; stroke-width:1; stroke:black; " description="&lt;b&gt;AFV52127.1&lt;/b&gt;&lt;br&gt;peptidase&lt;br&gt;Location: 24778 - 25929" locus_tag="AFV52127.1" class="clusterblast-orf" id="dummy-1_h1_7_28"  />
</g>
<g id="a1_0029"  >
<polygon points="141,85 145,80 145,90 141,85 " style="fill:white; stroke-width:1; stroke:black; " description="&lt;b&gt;AFV52128.1&lt;/b&gt;&lt;br&gt;TetR-like transcriptional regulator&lt;br&gt;Location: 26002 - 26571" locus_tag="AFV52128.1" class="clusterblast-orf" id="dummy-1_h1_7_29"  />
</g>
<g id="a1_0030"  >
<polygon points="146,90 150,85 146,80 146,90 " style="fill:white; stroke-width:1; stroke:black; " description="&lt;b&gt;AFV52129.1&lt;/b&gt;&lt;br&gt;epoxide hydrolase-like protein&lt;br&gt;Location: 26729 - 27571" locus_tag="AFV52129.1" class="clusterblast-orf" id="dummy-1_h1_7_30"  />
</g>
<g id="a1_0031"  >
<polygon points="151,85 156,80 158,80 158,90 156,90 151,85 " style="fill:white; stroke-width:1; stroke:black; " description="&lt;b&gt;AFV52130.1&lt;/b&gt;&lt;br&gt;hypothetical protein DUF297&lt;br&gt;Location: 27640 - 28845" locus_tag="AFV52130.1" class="clusterblast-orf" id="dummy-1_h1_7_31"  />
</g>
<g id="a1_0032"  >
<polygon points="162,85 166,80 166,90 162,85 " style="fill:white; stroke-width:1; stroke:black; " description="&lt;b&gt;AFV52131.1&lt;/b&gt;&lt;br&gt;hypothetical protein&lt;br&gt;Location: 29457 - 30257" locus_tag="AFV52131.1" class="clusterblast-orf" id="dummy-1_h1_7_32"  />
</g>
<g id="a1_0033"  >
<polygon points="167,85 172,80 173,80 173,90 172,90 167,85 " style="fill:white; stroke-width:1; stroke:black; " description="&lt;b&gt;AFV52132.1&lt;/b&gt;&lt;br&gt;hypothetical protein&lt;br&gt;Location: 30348 - 31352" locus_tag="AFV52132.1" class="clusterblast-orf" id="dummy-1_h1_7_33"  />
</g>
<g id="a1_0034"  >
<polygon points="173,85 177,80 177,90 173,85 " style="fill:white; stroke-width:1; stroke:black; " description="&lt;b&gt;AFV52133.1&lt;/b&gt;&lt;br&gt;hypothetical protein&lt;br&gt;Location: 31374 - 32036" locus_tag="AFV52133.1" class="clusterblast-orf" id="dummy-1_h1_7_34"  />
</g>
<g id="a1_0035"  >
<polygon points="177,85 180,80 180,90 177,85 " style="fill:white; stroke-width:1; stroke:black; " description="&lt;b&gt;AFV52134.1&lt;/b&gt;&lt;br&gt;hypothetical protein&lt;br&gt;Location: 32015 - 32560" locus_tag="AFV52134.1" class="clusterblast-orf" id="dummy-1_h1_7_35"  />
</g>
<g id="a1_0036"  >
<polygon points="180,85 185,80 189,80 189,90 185,90 180,85 " style="fill:white; stroke-width:1; stroke:black; " description="&lt;b&gt;AFV52135.1&lt;/b&gt;&lt;br&gt;putative ketoreductase&lt;br&gt;Location: 32557 - 34194" locus_tag="AFV52135.1" class="clusterblast-orf" id="dummy-1_h1_7_36"  />
</g>
<g id="a1_0037"  >
<polygon points="189,85 193,80 193,90 189,85 " style="fill:white; stroke-width:1; stroke:black; " description="&lt;b&gt;AFV52136.1&lt;/b&gt;&lt;br&gt;hypothetical protein&lt;br&gt;Location: 34191 - 34760" locus_tag="AFV52136.1" class="clusterblast-orf" id="dummy-1_h1_7_37"  />
</g>
<g id="a1_0038"  >
<polygon points="195,90 195,90 200,85 195,80 195,80 195,90 " style="fill:white; stroke-width:1; stroke:black; " description="&lt;b&gt;AFV52137.1&lt;/b&gt;&lt;br&gt;AraC-like transcriptional regulator&lt;br&gt;Location: 35246 - 36022" locus_tag="AFV52137.1" class="clusterblast-orf" id="dummy-1_h1_7_38"  />
</g>
<g id="a1_0039"  >
<polygon points="200,85 205,80 208,80 208,90 205,90 200,85 " style="fill:white; stroke-width:1; stroke:black; " description="&lt;b&gt;AFV52138.1&lt;/b&gt;&lt;br&gt;P450 monooxygenase&lt;br&gt;Location: 36055 - 37395" locus_tag="AFV52138.1" class="clusterblast-orf" id="dummy-1_h1_7_39"  />
</g>
<g id="a1_0040"  >
<polygon points="208,85 210,80 210,90 208,85 " style="fill:white; stroke-width:1; stroke:black; " description="&lt;b&gt;AFV52139.1&lt;/b&gt;&lt;br&gt;hypothetical protein&lt;br&gt;Location: 37392 - 37760" locus_tag="AFV52139.1" class="clusterblast-orf" id="dummy-1_h1_7_40"  />
</g>
<g id="a1_0041"  >
<polygon points="210,85 215,80 216,80 216,90 215,90 210,85 " style="fill:white; stroke-width:1; stroke:black; " description="&lt;b&gt;AFV52140.1&lt;/b&gt;&lt;br&gt;hypothetical protein&lt;br&gt;Location: 37757 - 38809" locus_tag="AFV52140.1" class="clusterblast-orf" id="dummy-1_h1_7_41"  />
</g>
<g id="a1_0042"  >
<polygon points="216,85 221,80 228,80 228,90 221,90 216,85 " style="fill:white; stroke-width:1; stroke:black; " description="&lt;b&gt;AFV52141.1&lt;/b&gt;&lt;br&gt;hypothetical protein&lt;br&gt;Location: 38814 - 40760" locus_tag="AFV52141.1" class="clusterblast-orf" id="dummy-1_h1_7_42"  />
</g>
<g id="a1_0043"  >
<polygon points="228,85 233,80 234,80 234,90 233,90 228,85 " style="fill:white; stroke-width:1; stroke:black; " description="&lt;b&gt;AFV52142.1&lt;/b&gt;&lt;br&gt;hypothetical protein&lt;br&gt;Location: 40757 - 41740" locus_tag="AFV52142.1" class="clusterblast-orf" id="dummy-1_h1_7_43"  />
</g>
<g id="a1_0044"  >
<polygon points="234,85 239,80 240,80 240,90 239,90 234,85 " style="fill:white; stroke-width:1; stroke:black; " description="&lt;b&gt;AFV52143.1&lt;/b&gt;&lt;br&gt;hypothetical protein&lt;br&gt;Location: 41806 - 42831" locus_tag="AFV52143.1" class="clusterblast-orf" id="dummy-1_h1_7_44"  />
</g>
<g id="a1_0045"  >
<polygon points="240,85 245,80 246,80 246,90 245,90 240,85 " style="fill:white; stroke-width:1; stroke:black; " description="&lt;b&gt;AFV52144.1&lt;/b&gt;&lt;br&gt;hypothetical protein&lt;br&gt;Location: 42875 - 43834" locus_tag="AFV52144.1" class="clusterblast-orf" id="dummy-1_h1_7_45"  />
</g>
<g id="a1_0046"  >
<polygon points="249,90 278,90 283,85 278,80 249,80 249,90 " style="fill:white; stroke-width:1; stroke:black; " description="&lt;b&gt;AFV52145.1&lt;/b&gt;&lt;br&gt;polyketide synthase&lt;br&gt;Location: 44355 - 50111" locus_tag="AFV52145.1" class="clusterblast-orf" id="dummy-1_h1_7_46"  />
</g>
<g id="a1_0047"  >
<polygon points="283,90 285,85 283,80 283,90 " style="fill:white; stroke-width:1; stroke:black; " description="&lt;b&gt;AFV52146.1&lt;/b&gt;&lt;br&gt;hotdog fold thioesterase&lt;br&gt;Location: 50113 - 50556" locus_tag="AFV52146.1" class="clusterblast-orf" id="dummy-1_h1_7_47"  />
</g>
<g id="a1_0048"  >
<polygon points="285,90 288,85 285,80 285,90 " style="fill:white; stroke-width:1; stroke:black; " description="&lt;b&gt;AFV52147.1&lt;/b&gt;&lt;br&gt;flavin reductase&lt;br&gt;Location: 50553 - 51044" locus_tag="AFV52147.1" class="clusterblast-orf" id="dummy-1_h1_7_48"  />
</g>
<g id="a1_0049"  >
<polygon points="290,90 292,90 297,85 292,80 290,80 290,90 " style="fill:white; stroke-width:1; stroke:black; " description="&lt;b&gt;AFV52148.1&lt;/b&gt;&lt;br&gt;putative enoyl reductase&lt;br&gt;Location: 51325 - 52497" locus_tag="AFV52148.1" class="clusterblast-orf" id="dummy-1_h1_7_49"  />
</g>
<g id="a1_0050"  >
<polygon points="297,90 299,85 297,80 297,90 " style="fill:white; stroke-width:1; stroke:black; " description="&lt;b&gt;AFV52149.1&lt;/b&gt;&lt;br&gt;hypothetical protein&lt;br&gt;Location: 52521 - 52943" locus_tag="AFV52149.1" class="clusterblast-orf" id="dummy-1_h1_7_50"  />
</g>
<g id="a1_0051"  >
<polygon points="299,90 302,90 307,85 302,80 299,80 299,90 " style="fill:white; stroke-width:1; stroke:black; " description="&lt;b&gt;AFV52150.1&lt;/b&gt;&lt;br&gt;FAD dependent monooxygenase&lt;br&gt;Location: 52933 - 54324" locus_tag="AFV52150.1" class="clusterblast-orf" id="dummy-1_h1_7_51"  />
</g>
<g id="a1_0052"  >
<polygon points="308,85 313,80 315,80 315,90 313,90 308,85 " style="fill:white; stroke-width:1; stroke:black; " description="&lt;b&gt;AFV52151.1&lt;/b&gt;&lt;br&gt;P450 monooxygenase&lt;br&gt;Location: 54373 - 55599" locus_tag="AFV52151.1" class="clusterblast-orf" id="dummy-1_h1_7_52"  />
</g>
<g id="a1_0053"  >
<polygon points="315,85 320,80 322,80 322,90 320,90 315,85 " style="fill:white; stroke-width:1; stroke:black; " description="&lt;b&gt;AFV52152.1&lt;/b&gt;&lt;br&gt;epoxide hydrolase&lt;br&gt;Location: 55633 - 56787" locus_tag="AFV52152.1" class="clusterblast-orf" id="dummy-1_h1_7_53"  />
</g>
<g id="a1_0054"  >
<polygon points="325,90 329,85 325,80 325,90 " style="fill:white; stroke-width:1; stroke:black; " description="&lt;b&gt;AFV52153.1&lt;/b&gt;&lt;br&gt;hypothetical protein&lt;br&gt;Location: 57336 - 58055" locus_tag="AFV52153.1" class="clusterblast-orf" id="dummy-1_h1_7_54"  />
</g>
<g id="a1_0055"  >
<polygon points="330,90 338,90 343,85 338,80 330,80 330,90 " style="fill:white; stroke-width:1; stroke:black; " description="&lt;b&gt;AFV52154.1&lt;/b&gt;&lt;br&gt;efflux pump&lt;br&gt;Location: 58182 - 60449" locus_tag="AFV52154.1" class="clusterblast-orf" id="dummy-1_h1_7_55"  />
</g>
<g id="a1_0056"  >
<polygon points="344,85 349,80 352,80 352,90 349,90 344,85 " style="fill:white; stroke-width:1; stroke:black; " description="&lt;b&gt;AFV52155.1&lt;/b&gt;&lt;br&gt;NDP-hexose 2,3-dehydratase&lt;br&gt;Location: 60497 - 61870" locus_tag="AFV52155.1" class="clusterblast-orf" id="dummy-1_h1_7_56"  />
</g>
<g id="a1_0057"  >
<polygon points="352,85 357,80 361,80 361,90 357,90 352,85 " style="fill:white; stroke-width:1; stroke:black; " description="&lt;b&gt;AFV52156.1&lt;/b&gt;&lt;br&gt;aryl-ACP hydroxylase&lt;br&gt;Location: 61867 - 63408" locus_tag="AFV52156.1" class="clusterblast-orf" id="dummy-1_h1_7_57"  />
</g>
<g id="a1_0058"  >
<polygon points="362,90 363,90 368,85 363,80 362,80 362,90 " style="fill:white; stroke-width:1; stroke:black; " description="&lt;b&gt;AFV52157.1&lt;/b&gt;&lt;br&gt;O-methyltransferase&lt;br&gt;Location: 63643 - 64644" locus_tag="AFV52157.1" class="clusterblast-orf" id="dummy-1_h1_7_58"  />
</g>
<g id="a1_0059"  >
<polygon points="368,90 370,90 375,85 370,80 368,80 368,90 " style="fill:white; stroke-width:1; stroke:black; " description="&lt;b&gt;AFV52158.1&lt;/b&gt;&lt;br&gt;sugar aminotransferase&lt;br&gt;Location: 64685 - 65833" locus_tag="AFV52158.1" class="clusterblast-orf" id="dummy-1_h1_7_59"  />
</g>
<g id="a1_0060"  >
<polygon points="375,90 379,85 375,80 375,90 " style="fill:white; stroke-width:1; stroke:black; " description="&lt;b&gt;AFV52159.1&lt;/b&gt;&lt;br&gt;N-methyltransferase&lt;br&gt;Location: 65833 - 66579" locus_tag="AFV52159.1" class="clusterblast-orf" id="dummy-1_h1_7_60"  />
</g>
<g id="a1_0061"  >
<polygon points="379,90 383,85 379,80 379,90 " style="fill:white; stroke-width:1; stroke:black; " description="&lt;b&gt;AFV52160.1&lt;/b&gt;&lt;br&gt;N-methyltransferase&lt;br&gt;Location: 66576 - 67307" locus_tag="AFV52160.1" class="clusterblast-orf" id="dummy-1_h1_7_61"  />
</g>
<g id="a1_0062"  >
<polygon points="385,90 388,90 393,85 388,80 385,80 385,90 " style="fill:white; stroke-width:1; stroke:black; " description="&lt;b&gt;AFV52161.1&lt;/b&gt;&lt;br&gt;glycosyltransferase&lt;br&gt;Location: 67596 - 68879" locus_tag="AFV52161.1" class="clusterblast-orf" id="dummy-1_h1_7_62"  />
</g>
<g id="a1_0063"  >
<polygon points="394,90 408,90 413,85 408,80 394,80 394,90 " style="fill:white; stroke-width:1; stroke:black; " description="&lt;b&gt;AFV52162.1&lt;/b&gt;&lt;br&gt;transcriptional regulator&lt;br&gt;Location: 69115 - 72378" locus_tag="AFV52162.1" class="clusterblast-orf" id="dummy-1_h1_7_63"  />
</g>
<g id="a1_0064"  >
<polygon points="417,90 423,90 428,85 423,80 417,80 417,90 " style="fill:white; stroke-width:1; stroke:black; " description="&lt;b&gt;AFV52163.1&lt;/b&gt;&lt;br&gt;radical SAM C-methyltransferase&lt;br&gt;Location: 72974 - 74854" locus_tag="AFV52163.1" class="clusterblast-orf" id="dummy-1_h1_7_64"  />
</g>
<g id="a1_0065"  >
<polygon points="428,90 430,90 435,85 430,80 428,80 428,90 " style="fill:white; stroke-width:1; stroke:black; " description="&lt;b&gt;AFV52164.1&lt;/b&gt;&lt;br&gt;acyl-CoA N-acyltransferase&lt;br&gt;Location: 74851 - 76125" locus_tag="AFV52164.1" class="clusterblast-orf" id="dummy-1_h1_7_65"  />
</g>
<g id="a1_0066"  >
<polygon points="435,90 438,90 443,85 438,80 435,80 435,90 " style="fill:white; stroke-width:1; stroke:black; " description="&lt;b&gt;AFV52165.1&lt;/b&gt;&lt;br&gt;glycosyltransferase&lt;br&gt;Location: 76141 - 77391" locus_tag="AFV52165.1" class="clusterblast-orf" id="dummy-1_h1_7_66"  />
</g>
<g id="a1_0067"  >
<polygon points="443,90 445,85 443,80 443,90 " style="fill:white; stroke-width:1; stroke:black; " description="&lt;b&gt;AFV52166.1&lt;/b&gt;&lt;br&gt;hypothetical protein&lt;br&gt;Location: 77513 - 77731" locus_tag="AFV52166.1" class="clusterblast-orf" id="dummy-1_h1_7_67"  />
</g>
<g id="a1_0068"  >
<polygon points="446,85 451,80 452,80 452,90 451,90 446,85 " style="fill:white; stroke-width:1; stroke:black; " description="&lt;b&gt;AFV52167.1&lt;/b&gt;&lt;br&gt;monooxygenase&lt;br&gt;Location: 77966 - 79066" locus_tag="AFV52167.1" class="clusterblast-orf" id="dummy-1_h1_7_68"  />
</g>
<g id="a1_0069"  >
<polygon points="452,85 457,80 458,80 458,90 457,90 452,85 " style="fill:white; stroke-width:1; stroke:black; " description="&lt;b&gt;AFV52168.1&lt;/b&gt;&lt;br&gt;enoyl reductase&lt;br&gt;Location: 79063 - 80046" locus_tag="AFV52168.1" class="clusterblast-orf" id="dummy-1_h1_7_69"  />
</g>
<g id="a1_0070"  >
<polygon points="458,85 463,80 465,80 465,90 463,90 458,85 " style="fill:white; stroke-width:1; stroke:black; " description="&lt;b&gt;AFV52169.1&lt;/b&gt;&lt;br&gt;enoyl reductase&lt;br&gt;Location: 80055 - 81203" locus_tag="AFV52169.1" class="clusterblast-orf" id="dummy-1_h1_7_70"  />
</g>
<g id="a1_0071"  >
<polygon points="466,90 468,90 473,85 468,80 466,80 466,90 " style="fill:white; stroke-width:1; stroke:black; " description="&lt;b&gt;AFV52170.1&lt;/b&gt;&lt;br&gt;acyltransferase&lt;br&gt;Location: 81336 - 82526" locus_tag="AFV52170.1" class="clusterblast-orf" id="dummy-1_h1_7_71"  />
</g>
<g id="a1_0072"  >
<polygon points="473,90 475,90 480,85 475,80 473,80 473,90 " style="fill:white; stroke-width:1; stroke:black; " description="&lt;b&gt;AFV52171.1&lt;/b&gt;&lt;br&gt;CoA transferase&lt;br&gt;Location: 82535 - 83755" locus_tag="AFV52171.1" class="clusterblast-orf" id="dummy-1_h1_7_72"  />
</g>
<g id="a1_0073"  >
<polygon points="480,90 480,90 485,85 480,80 480,80 480,90 " style="fill:white; stroke-width:1; stroke:black; " description="&lt;b&gt;AFV52172.1&lt;/b&gt;&lt;br&gt;ketoreductase&lt;br&gt;Location: 83841 - 84581" locus_tag="AFV52172.1" class="clusterblast-orf" id="dummy-1_h1_7_73"  />
</g>
<g id="a1_0074"  >
<polygon points="485,90 487,85 485,80 485,90 " style="fill:white; stroke-width:1; stroke:black; " description="&lt;b&gt;AFV52173.1&lt;/b&gt;&lt;br&gt;dehydratase&lt;br&gt;Location: 84578 - 85033" locus_tag="AFV52173.1" class="clusterblast-orf" id="dummy-1_h1_7_74"  />
</g>
<g id="a1_0075"  >
<polygon points="487,90 490,85 487,80 487,90 " style="fill:white; stroke-width:1; stroke:black; " description="&lt;b&gt;AFV52174.1&lt;/b&gt;&lt;br&gt;dehydratase&lt;br&gt;Location: 85023 - 85505" locus_tag="AFV52174.1" class="clusterblast-orf" id="dummy-1_h1_7_75"  />
</g>
<g id="a1_0076"  >
<polygon points="491,90 492,85 491,80 491,90 " style="fill:white; stroke-width:1; stroke:black; " description="&lt;b&gt;AFV52175.1&lt;/b&gt;&lt;br&gt;acyl-carrier protein&lt;br&gt;Location: 85567 - 85800" locus_tag="AFV52175.1" class="clusterblast-orf" id="dummy-1_h1_7_76"  />
</g>
<g id="a1_0077"  >
<polygon points="492,90 494,90 499,85 494,80 492,80 492,90 " style="fill:white; stroke-width:1; stroke:black; " description="&lt;b&gt;AFV52176.1&lt;/b&gt;&lt;br&gt;ketosynthase&lt;br&gt;Location: 85804 - 87009" locus_tag="AFV52176.1" class="clusterblast-orf" id="dummy-1_h1_7_77"  />
</g>
<g id="a1_0078"  >
<polygon points="499,90 500,90 505,85 500,80 499,80 499,90 " style="fill:white; stroke-width:1; stroke:black; " description="&lt;b&gt;AFV52177.1&lt;/b&gt;&lt;br&gt;ketosynthase&lt;br&gt;Location: 87006 - 88064" locus_tag="AFV52177.1" class="clusterblast-orf" id="dummy-1_h1_7_78"  />
</g>
<g id="a1_0079"  >
<polygon points="505,90 507,90 512,85 507,80 505,80 505,90 " style="fill:white; stroke-width:1; stroke:black; " description="&lt;b&gt;AFV52178.1&lt;/b&gt;&lt;br&gt;ketosynthase&lt;br&gt;Location: 88064 - 89188" locus_tag="AFV52178.1" class="clusterblast-orf" id="dummy-1_h1_7_79"  />
</g>
<g id="a1_0080"  >
<polygon points="512,90 512,90 517,85 512,80 512,80 512,90 " style="fill:white; stroke-width:1; stroke:black; " description="&lt;b&gt;AFV52179.1&lt;/b&gt;&lt;br&gt;ketosynthase&lt;br&gt;Location: 89185 - 90054" locus_tag="AFV52179.1" class="clusterblast-orf" id="dummy-1_h1_7_80"  />
</g>
<g id="a1_0081"  >
<polygon points="517,90 517,90 522,85 517,80 517,80 517,90 " style="fill:white; stroke-width:1; stroke:black; " description="&lt;b&gt;AFV52180.1&lt;/b&gt;&lt;br&gt;hypothetical protein&lt;br&gt;Location: 90047 - 90841" locus_tag="AFV52180.1" class="clusterblast-orf" id="dummy-1_h1_7_81"  />
</g>
<g id="a1_0082"  >
<polygon points="521,90 522,90 527,85 522,80 521,80 521,90 " style="fill:white; stroke-width:1; stroke:black; " description="&lt;b&gt;AFV52181.1&lt;/b&gt;&lt;br&gt;thioesterase&lt;br&gt;Location: 90838 - 91758" locus_tag="AFV52181.1" class="clusterblast-orf" id="dummy-1_h1_7_82"  />
</g>
<g id="a1_0083"  >
<polygon points="527,90 531,85 527,80 527,90 " style="fill:white; stroke-width:1; stroke:black; " description="&lt;b&gt;AFV52182.1&lt;/b&gt;&lt;br&gt;isomerase&lt;br&gt;Location: 91755 - 92390" locus_tag="AFV52182.1" class="clusterblast-orf" id="dummy-1_h1_7_83"  />
</g>
<g id="a1_0084"  >
<polygon points="531,90 531,90 536,85 531,80 531,80 531,90 " style="fill:#15d863; stroke-width:1; stroke:black; " description="&lt;b&gt;AFV52183.1&lt;/b&gt;&lt;br&gt;aldolase&lt;br&gt;Location: 92506 - 93243&lt;br&gt;&lt;br&gt;&lt;b&gt;BlastP hit with HS041_32670&lt;/b&gt;&lt;br&gt;Percentage identity: 63&lt;br&gt;Percentage coverage: 90&lt;br&gt;BLAST bit score: 308&lt;br&gt;E-value: 2.16e-106" locus_tag="AFV52183.1" class="clusterblast-orf" id="dummy-1_h1_7_84"  />
</g>
<g id="a1_0085"  >
<polygon points="536,90 549,90 554,85 549,80 536,80 536,90 " style="fill:white; stroke-width:1; stroke:black; " description="&lt;b&gt;AFV52184.1&lt;/b&gt;&lt;br&gt;acyl-CoA synthetase/P450 monooxygenase&lt;br&gt;Location: 93277 - 96402" locus_tag="AFV52184.1" class="clusterblast-orf" id="dummy-1_h1_7_85"  />
</g>
<g id="a1_0086"  >
<polygon points="554,90 555,90 560,85 555,80 554,80 554,90 " style="fill:white; stroke-width:1; stroke:black; " description="&lt;b&gt;AFV52185.1&lt;/b&gt;&lt;br&gt;NDP-hexose oxidoreductase&lt;br&gt;Location: 96406 - 97383" locus_tag="AFV52185.1" class="clusterblast-orf" id="dummy-1_h1_7_86"  />
</g>
<g id="a1_0087"  >
<polygon points="562,85 567,80 569,80 569,90 567,90 562,85 " style="fill:white; stroke-width:1; stroke:black; " description="&lt;b&gt;AFV52186.1&lt;/b&gt;&lt;br&gt;C-methyltransferase&lt;br&gt;Location: 97727 - 99007" locus_tag="AFV52186.1" class="clusterblast-orf" id="dummy-1_h1_7_87"  />
</g>
<g id="a1_0088"  >
<polygon points="569,85 574,80 579,80 579,90 574,90 569,85 " style="fill:white; stroke-width:1; stroke:black; " description="&lt;b&gt;AFV52187.1&lt;/b&gt;&lt;br&gt;acyl-CoA synthetase&lt;br&gt;Location: 99007 - 100665" locus_tag="AFV52187.1" class="clusterblast-orf" id="dummy-1_h1_7_88"  />
</g>
<g id="a1_0089"  >
<polygon points="581,85 583,80 583,90 581,85 " style="fill:white; stroke-width:1; stroke:black; " description="&lt;b&gt;AFV52188.1&lt;/b&gt;&lt;br&gt;kedarcidin apoprotein&lt;br&gt;Location: 100944 - 101381" locus_tag="AFV52188.1" class="clusterblast-orf" id="dummy-1_h1_7_89"  />
</g>
<g id="a1_0090"  >
<polygon points="585,85 590,80 594,80 594,90 590,90 585,85 " style="fill:white; stroke-width:1; stroke:black; " description="&lt;b&gt;AFV52189.1&lt;/b&gt;&lt;br&gt;efflux pump&lt;br&gt;Location: 101584 - 103266" locus_tag="AFV52189.1" class="clusterblast-orf" id="dummy-1_h1_7_90"  />
</g>
<g id="a1_0091"  >
<polygon points="595,85 600,80 605,80 605,90 600,90 595,85 " style="fill:white; stroke-width:1; stroke:black; " description="&lt;b&gt;AFV52190.1&lt;/b&gt;&lt;br&gt;4-Methylideneimidazole-5-one (MIO)-containing aminomutases &lt;br&gt;Location: 103443 - 105059" locus_tag="AFV52190.1" class="clusterblast-orf" id="dummy-1_h1_7_91"  />
</g>
<g id="a1_0092"  >
<polygon points="605,85 610,80 626,80 626,90 610,90 605,85 " style="fill:white; stroke-width:1; stroke:black; " description="&lt;b&gt;AFV52191.1&lt;/b&gt;&lt;br&gt;NRPS adenylation domain&lt;br&gt;Location: 105061 - 108576" locus_tag="AFV52191.1" class="clusterblast-orf" id="dummy-1_h1_7_92"  />
</g>
<g id="a1_0093"  >
<polygon points="626,85 631,80 633,80 633,90 631,90 626,85 " style="fill:white; stroke-width:1; stroke:black; " description="&lt;b&gt;AFV52192.1&lt;/b&gt;&lt;br&gt;NRPS condensation domain&lt;br&gt;Location: 108573 - 109928" locus_tag="AFV52192.1" class="clusterblast-orf" id="dummy-1_h1_7_93"  />
</g>
<g id="a1_0094"  >
<polygon points="635,90 639,90 644,85 639,80 635,80 635,90 " style="fill:white; stroke-width:1; stroke:black; " description="&lt;b&gt;AFV52193.1&lt;/b&gt;&lt;br&gt;enoyl reductase&lt;br&gt;Location: 110231 - 111721" locus_tag="AFV52193.1" class="clusterblast-orf" id="dummy-1_h1_7_94"  />
</g>
<g id="a1_0095"  >
<polygon points="644,90 646,90 651,85 646,80 644,80 644,90 " style="fill:white; stroke-width:1; stroke:black; " description="&lt;b&gt;AFV52194.1&lt;/b&gt;&lt;br&gt;enoyl reductase&lt;br&gt;Location: 111718 - 112884" locus_tag="AFV52194.1" class="clusterblast-orf" id="dummy-1_h1_7_95"  />
</g>
<g id="a1_0096"  >
<polygon points="651,90 654,90 659,85 654,80 651,80 651,90 " style="fill:white; stroke-width:1; stroke:black; " description="&lt;b&gt;AFV52195.1&lt;/b&gt;&lt;br&gt;acyl-CoA synthetase&lt;br&gt;Location: 112881 - 114341" locus_tag="AFV52195.1" class="clusterblast-orf" id="dummy-1_h1_7_96"  />
</g>
<g id="a1_0097"  >
<polygon points="659,90 661,85 659,80 659,90 " style="fill:white; stroke-width:1; stroke:black; " description="&lt;b&gt;AFV52196.1&lt;/b&gt;&lt;br&gt;acyl-carrier protein&lt;br&gt;Location: 114343 - 114618" locus_tag="AFV52196.1" class="clusterblast-orf" id="dummy-1_h1_7_97"  />
</g>
<g id="a1_0098"  >
<polygon points="661,90 661,90 666,85 661,80 661,80 661,90 " style="fill:white; stroke-width:1; stroke:black; " description="&lt;b&gt;AFV52197.1&lt;/b&gt;&lt;br&gt;hypothetical protein&lt;br&gt;Location: 114615 - 115505" locus_tag="AFV52197.1" class="clusterblast-orf" id="dummy-1_h1_7_98"  />
</g>
<g id="a1_0099"  >
<polygon points="666,90 666,90 671,85 666,80 666,80 666,90 " style="fill:white; stroke-width:1; stroke:black; " description="&lt;b&gt;AFV52198.1&lt;/b&gt;&lt;br&gt;dihydropicolinate reductase&lt;br&gt;Location: 115507 - 116247" locus_tag="AFV52198.1" class="clusterblast-orf" id="dummy-1_h1_7_99"  />
</g>
<g id="a1_00100"  >
<polygon points="671,90 677,90 682,85 677,80 671,80 671,90 " style="fill:white; stroke-width:1; stroke:black; " description="&lt;b&gt;AFV52199.1&lt;/b&gt;&lt;br&gt;acyl-ACP synthetase&lt;br&gt;Location: 116244 - 118142" locus_tag="AFV52199.1" class="clusterblast-orf" id="dummy-1_h1_7_100"  />
</g>
<g id="a1_00101"  >
<polygon points="682,90 708,90 713,85 708,80 682,80 682,90 " style="fill:white; stroke-width:1; stroke:black; " description="&lt;b&gt;AFV52200.1&lt;/b&gt;&lt;br&gt;polyketide synthase module&lt;br&gt;Location: 118139 - 123547" locus_tag="AFV52200.1" class="clusterblast-orf" id="dummy-1_h1_7_101"  />
</g>
<g id="a1_00102"  >
<polygon points="713,90 714,90 719,85 714,80 713,80 713,90 " style="fill:white; stroke-width:1; stroke:black; " description="&lt;b&gt;AFV52201.1&lt;/b&gt;&lt;br&gt;enoyl reductase&lt;br&gt;Location: 123544 - 124440" locus_tag="AFV52201.1" class="clusterblast-orf" id="dummy-1_h1_7_102"  />
</g>
<g id="a1_00103"  >
<polygon points="719,90 720,85 719,80 719,90 " style="fill:white; stroke-width:1; stroke:black; " description="&lt;b&gt;AFV52202.1&lt;/b&gt;&lt;br&gt;acyl-carrier protein&lt;br&gt;Location: 124437 - 124712" locus_tag="AFV52202.1" class="clusterblast-orf" id="dummy-1_h1_7_103"  />
</g>
<g id="a1_00104"  >
<polygon points="720,90 722,90 727,85 722,80 720,80 720,90 " style="fill:white; stroke-width:1; stroke:black; " description="&lt;b&gt;AFV52203.1&lt;/b&gt;&lt;br&gt;enoyl reductase&lt;br&gt;Location: 124709 - 125911" locus_tag="AFV52203.1" class="clusterblast-orf" id="dummy-1_h1_7_104"  />
</g>
<g id="a1_00105"  >
<polygon points="727,90 728,90 733,85 728,80 727,80 727,90 " style="fill:white; stroke-width:1; stroke:black; " description="&lt;b&gt;AFV52204.1&lt;/b&gt;&lt;br&gt;hypothetical protein&lt;br&gt;Location: 125908 - 126975" locus_tag="AFV52204.1" class="clusterblast-orf" id="dummy-1_h1_7_105"  />
</g>
<g id="a1_00106"  >
<polygon points="733,90 733,90 738,85 733,80 733,80 733,90 " style="fill:white; stroke-width:1; stroke:black; " description="&lt;b&gt;AFV52205.1&lt;/b&gt;&lt;br&gt;thioesterase&lt;br&gt;Location: 126972 - 127715" locus_tag="AFV52205.1" class="clusterblast-orf" id="dummy-1_h1_7_106"  />
</g>
<g id="a1_00107"  >
<polygon points="738,90 741,85 738,80 738,90 " style="fill:white; stroke-width:1; stroke:black; " description="&lt;b&gt;AFV52206.1&lt;/b&gt;&lt;br&gt;hypothetical protein&lt;br&gt;Location: 127729 - 128277" locus_tag="AFV52206.1" class="clusterblast-orf" id="dummy-1_h1_7_107"  />
</g>
<g id="a1_00108"  >
<polygon points="741,90 743,90 748,85 743,80 741,80 741,90 " style="fill:white; stroke-width:1; stroke:black; " description="&lt;b&gt;AFV52207.1&lt;/b&gt;&lt;br&gt;P450 monooxygenase&lt;br&gt;Location: 128252 - 129478" locus_tag="AFV52207.1" class="clusterblast-orf" id="dummy-1_h1_7_108"  />
</g>
<g id="a1_00109"  >
<polygon points="751,90 755,85 751,80 751,90 " style="fill:white; stroke-width:1; stroke:black; " description="&lt;b&gt;AFV52208.1&lt;/b&gt;&lt;br&gt;transcriptional regulator&lt;br&gt;Location: 129934 - 130710" locus_tag="AFV52208.1" class="clusterblast-orf" id="dummy-1_h1_7_109"  />
</g>
<g id="a1_00110"  >
<polygon points="756,85 757,80 757,90 756,85 " style="fill:white; stroke-width:1; stroke:black; " description="&lt;b&gt;AFV52209.1&lt;/b&gt;&lt;br&gt;NRPS peptidyl-carrier protein&lt;br&gt;Location: 130765 - 131034" locus_tag="AFV52209.1" class="clusterblast-orf" id="dummy-1_h1_7_110"  />
</g>
<g id="a1_00111"  >
<polygon points="759,90 762,90 767,85 762,80 759,80 759,90 " style="fill:white; stroke-width:1; stroke:black; " description="&lt;b&gt;AFV52210.1&lt;/b&gt;&lt;br&gt;aryl-ACP halogenase&lt;br&gt;Location: 131302 - 132777" locus_tag="AFV52210.1" class="clusterblast-orf" id="dummy-1_h1_7_111"  />
</g>
<g id="a1_00112"  >
<polygon points="767,90 768,90 773,85 768,80 767,80 767,90 " style="fill:white; stroke-width:1; stroke:black; " description="&lt;b&gt;AFV52211.1&lt;/b&gt;&lt;br&gt;NDP-hexose oxidoreductase&lt;br&gt;Location: 132774 - 133772" locus_tag="AFV52211.1" class="clusterblast-orf" id="dummy-1_h1_7_112"  />
</g>
<g id="a1_00113"  >
<polygon points="773,90 777,85 773,80 773,90 " style="fill:white; stroke-width:1; stroke:black; " description="&lt;b&gt;AFV52212.1&lt;/b&gt;&lt;br&gt;NDP-hexose epimerase&lt;br&gt;Location: 133780 - 134376" locus_tag="AFV52212.1" class="clusterblast-orf" id="dummy-1_h1_7_113"  />
</g>
<g id="a1_00114"  >
<polygon points="777,85 780,80 780,90 777,85 " style="fill:white; stroke-width:1; stroke:black; " description="&lt;b&gt;AFV52213.1&lt;/b&gt;&lt;br&gt;hypothetical protein&lt;br&gt;Location: 134395 - 134829" locus_tag="AFV52213.1" class="clusterblast-orf" id="dummy-1_h1_7_114"  />
</g>
</svg>
