<svg xmlns="http://www.w3.org/2000/svg" xmlns:xlink="http://www.w3.org/1999/xlink" version="1.1" x="0" y="0" height="50" width="800" viewBox="0 0 800 50" preserveAspectRatio="none"  >
<g label="Query sequence" class="clusterblast-cluster"  >
<text x="5" y="20" class="clusterblast-acc"  >
Query sequence</text>
<line x1="10" y1="35" x2="778.0" y2="35" style="stroke-width:1; stroke:grey; "  />
<polygon points="0,40 18,40 23,35 18,30 0,30 0,40 " style="fill:white; stroke-width:1; stroke:black; " description="&lt;b&gt;HS041_08370&lt;/b&gt;&lt;br&gt;alpha/beta fold hydrolase&lt;br&gt;Location: 1742361 - 1743240" locus_tag="HS041_08370" class="clusterblast-orf" id="knownclusterblast-4_q0_0_all"  />
<polygon points="22,40 39,40 44,35 39,30 22,30 22,40 " style="fill:white; stroke-width:1; stroke:black; " description="&lt;b&gt;HS041_08375&lt;/b&gt;&lt;br&gt;NAD(P)H-binding protein&lt;br&gt;Location: 1743236 - 1744061" locus_tag="HS041_08375" class="clusterblast-orf" id="knownclusterblast-4_q1_0_all"  />
<polygon points="45,40 49,40 54,35 49,30 45,30 45,40 " style="fill:white; stroke-width:1; stroke:black; " description="&lt;b&gt;HS041_08380&lt;/b&gt;&lt;br&gt;holo-ACP synthase&lt;br&gt;Location: 1744103 - 1744454" locus_tag="HS041_08380" class="clusterblast-orf" id="knownclusterblast-4_q2_0_all"  />
<polygon points="54,40 91,40 96,35 91,30 54,30 54,40 " style="fill:white; stroke-width:1; stroke:black; " description="&lt;b&gt;HS041_08385&lt;/b&gt;&lt;br&gt;NAD(P)H-hydrate dehydratase&lt;br&gt;Location: 1744464 - 1746096" locus_tag="HS041_08385" class="clusterblast-orf" id="knownclusterblast-4_q3_0_all"  />
<polygon points="98,40 122,40 127,35 122,30 98,30 98,40 " style="fill:white; stroke-width:1; stroke:black; " description="&lt;b&gt;HS041_08390&lt;/b&gt;&lt;br&gt;alanine racemase&lt;br&gt;Location: 1746160 - 1747276" locus_tag="HS041_08390" class="clusterblast-orf" id="knownclusterblast-4_q4_0_all"  />
<polygon points="127,40 150,40 155,35 150,30 127,30 127,40 " style="fill:white; stroke-width:1; stroke:black; " description="&lt;b&gt;HS041_08395&lt;/b&gt;&lt;br&gt;alpha/beta hydrolase&lt;br&gt;Location: 1747287 - 1748358" locus_tag="HS041_08395" class="clusterblast-orf" id="knownclusterblast-4_q5_0_all"  />
<polygon points="156,40 162,40 167,35 162,30 156,30 156,40 " style="fill:white; stroke-width:1; stroke:black; " description="&lt;b&gt;HS041_08400&lt;/b&gt;&lt;br&gt;tRNA (adenosine(37)-N6)-threonylcarbamoyltransferase complex ATPase subunit type 1 TsaE&lt;br&gt;Location: 1748380 - 1748824" locus_tag="HS041_08400" class="clusterblast-orf" id="knownclusterblast-4_q6_0_all"  />
<polygon points="173,40 185,40 190,35 185,30 173,30 173,40 " style="fill:white; stroke-width:1; stroke:black; " description="&lt;b&gt;HS041_08405&lt;/b&gt;&lt;br&gt;hypothetical protein&lt;br&gt;Location: 1749048 - 1749705" locus_tag="HS041_08405" class="clusterblast-orf" id="knownclusterblast-4_q7_0_all"  />
<polygon points="190,40 200,40 205,35 200,30 190,30 190,40 " style="fill:white; stroke-width:1; stroke:black; " description="&lt;b&gt;HS041_08410&lt;/b&gt;&lt;br&gt;class F sortase&lt;br&gt;Location: 1749711 - 1750272" locus_tag="HS041_08410" class="clusterblast-orf" id="knownclusterblast-4_q8_0_all"  />
<polygon points="207,40 228,40 233,35 228,30 207,30 207,40 " style="fill:white; stroke-width:1; stroke:black; " description="&lt;b&gt;HS041_08415&lt;/b&gt;&lt;br&gt;ABC transporter ATP-binding protein&lt;br&gt;Location: 1750378 - 1751362" locus_tag="HS041_08415" class="clusterblast-orf" id="knownclusterblast-4_q9_0_all"  />
<polygon points="233,40 248,40 253,35 248,30 233,30 233,40 " style="fill:white; stroke-width:1; stroke:black; " description="&lt;b&gt;HS041_08420&lt;/b&gt;&lt;br&gt;ABC transporter permease&lt;br&gt;Location: 1751358 - 1752153" locus_tag="HS041_08420" class="clusterblast-orf" id="knownclusterblast-4_q10_0_all"  />
<polygon points="253,40 283,40 288,35 283,30 253,30 253,40 " style="fill:white; stroke-width:1; stroke:black; " description="&lt;b&gt;HS041_08425&lt;/b&gt;&lt;br&gt;YcaO-like family protein&lt;br&gt;Location: 1752149 - 1753481" locus_tag="HS041_08425" class="clusterblast-orf" id="knownclusterblast-4_q11_0_all"  />
<polygon points="288,40 300,40 305,35 300,30 288,30 288,40 " style="fill:white; stroke-width:1; stroke:black; " description="&lt;b&gt;HS041_08430&lt;/b&gt;&lt;br&gt;TOMM precursor leader peptide-binding protein&lt;br&gt;Location: 1753496 - 1754147" locus_tag="HS041_08430" class="clusterblast-orf" id="knownclusterblast-4_q12_0_all"  />
<polygon points="305,40 343,40 348,35 343,30 305,30 305,40 " style="fill:white; stroke-width:1; stroke:black; " description="&lt;b&gt;HS041_08435&lt;/b&gt;&lt;br&gt;TOMM precursor leader peptide-binding protein&lt;br&gt;Location: 1754155 - 1755817" locus_tag="HS041_08435" class="clusterblast-orf" id="knownclusterblast-4_q13_0_all"  />
<polygon points="348,40 362,40 367,35 362,30 348,30 348,40 " style="fill:white; stroke-width:1; stroke:black; " description="&lt;b&gt;HS041_08440&lt;/b&gt;&lt;br&gt;hypothetical protein&lt;br&gt;Location: 1755813 - 1756545" locus_tag="HS041_08440" class="clusterblast-orf" id="knownclusterblast-4_q14_0_all"  />
<polygon points="369,40 373,35 369,30 369,40 " style="fill:white; stroke-width:1; stroke:black; " description="&lt;b&gt;HS041_08445&lt;/b&gt;&lt;br&gt;thiocillin family RiPP&lt;br&gt;Location: 1756607 - 1756787" locus_tag="HS041_08445" class="clusterblast-orf" id="knownclusterblast-4_q15_0_all"  />
<polygon points="379,40 383,35 379,30 379,40 " style="fill:white; stroke-width:1; stroke:black; " description="&lt;b&gt;HS041_08450&lt;/b&gt;&lt;br&gt;thiocillin family RiPP&lt;br&gt;Location: 1757008 - 1757179" locus_tag="HS041_08450" class="clusterblast-orf" id="knownclusterblast-4_q16_0_all"  />
<polygon points="384,40 388,35 384,30 384,40 " style="fill:white; stroke-width:1; stroke:black; " description="&lt;b&gt;HS041_08455&lt;/b&gt;&lt;br&gt;thiocillin family RiPP&lt;br&gt;Location: 1757196 - 1757370" locus_tag="HS041_08455" class="clusterblast-orf" id="knownclusterblast-4_q17_0_all"  />
<polygon points="389,40 389,40 394,35 389,30 389,30 389,40 " style="fill:white; stroke-width:1; stroke:black; " description="&lt;b&gt;HS041_08460&lt;/b&gt;&lt;br&gt;thiocillin family RiPP&lt;br&gt;Location: 1757388 - 1757580" locus_tag="HS041_08460" class="clusterblast-orf" id="knownclusterblast-4_q18_0_all"  />
<polygon points="396,40 396,40 401,35 396,30 396,30 396,40 " style="fill:white; stroke-width:1; stroke:black; " description="&lt;b&gt;HS041_08465&lt;/b&gt;&lt;br&gt;thiocillin family RiPP&lt;br&gt;Location: 1757671 - 1757857" locus_tag="HS041_08465" class="clusterblast-orf" id="knownclusterblast-4_q19_0_all"  />
<polygon points="406,40 429,40 434,35 429,30 406,30 406,40 " style="fill:white; stroke-width:1; stroke:black; " description="&lt;b&gt;HS041_08470&lt;/b&gt;&lt;br&gt;PqqD family peptide modification chaperone&lt;br&gt;Location: 1758061 - 1759132" locus_tag="HS041_08470" class="clusterblast-orf" id="knownclusterblast-4_q20_0_all"  />
<polygon points="434,40 494,40 499,35 494,30 434,30 434,40 " style="fill:white; stroke-width:1; stroke:black; " description="&lt;b&gt;HS041_08475&lt;/b&gt;&lt;br&gt;lantibiotic dehydratase&lt;br&gt;Location: 1759128 - 1761633" locus_tag="HS041_08475" class="clusterblast-orf" id="knownclusterblast-4_q21_0_all"  />
<polygon points="498,40 518,40 523,35 518,30 498,30 498,40 " style="fill:white; stroke-width:1; stroke:black; " description="&lt;b&gt;HS041_08480&lt;/b&gt;&lt;br&gt;hypothetical protein&lt;br&gt;Location: 1761616 - 1762558" locus_tag="HS041_08480" class="clusterblast-orf" id="knownclusterblast-4_q22_0_all"  />
<polygon points="523,40 527,40 532,35 527,30 523,30 523,40 " style="fill:white; stroke-width:1; stroke:black; " description="&lt;b&gt;HS041_08485&lt;/b&gt;&lt;br&gt;hypothetical protein&lt;br&gt;Location: 1762572 - 1762932" locus_tag="HS041_08485" class="clusterblast-orf" id="knownclusterblast-4_q23_0_all"  />
<polygon points="536,40 536,40 541,35 536,30 536,30 536,40 " style="fill:white; stroke-width:1; stroke:black; " description="&lt;b&gt;HS041_08490&lt;/b&gt;&lt;br&gt;hypothetical protein&lt;br&gt;Location: 1763084 - 1763282" locus_tag="HS041_08490" class="clusterblast-orf" id="knownclusterblast-4_q24_0_all"  />
<polygon points="544,35 549,30 619,30 619,40 549,40 544,35 " style="fill:white; stroke-width:1; stroke:black; " description="&lt;b&gt;HS041_08495&lt;/b&gt;&lt;br&gt;winged helix-turn-helix domain-containing protein&lt;br&gt;Location: 1763371 - 1766272" locus_tag="HS041_08495" class="clusterblast-orf" id="knownclusterblast-4_q25_0_all"  />
<polygon points="626,40 639,40 644,35 639,30 626,30 626,40 " style="fill:white; stroke-width:1; stroke:black; " description="&lt;b&gt;HS041_08500&lt;/b&gt;&lt;br&gt;tRNA (adenosine(37)-N6)-threonylcarbamoyltransferase complex dimerization subunit type 1 TsaB&lt;br&gt;Location: 1766550 - 1767243" locus_tag="HS041_08500" class="clusterblast-orf" id="knownclusterblast-4_q26_0_all"  />
<polygon points="645,40 651,40 656,35 651,30 645,30 645,40 " style="fill:white; stroke-width:1; stroke:black; " description="&lt;b&gt;HS041_08505&lt;/b&gt;&lt;br&gt;ribosomal protein S18-alanine N-acetyltransferase&lt;br&gt;Location: 1767296 - 1767728" locus_tag="HS041_08505" class="clusterblast-orf" id="knownclusterblast-4_q27_0_all"  />
<polygon points="656,40 678,40 683,35 678,30 656,30 656,40 " style="fill:white; stroke-width:1; stroke:black; " description="&lt;b&gt;HS041_08510&lt;/b&gt;&lt;br&gt;tRNA (adenosine(37)-N6)-threonylcarbamoyltransferase complex transferase subunit TsaD&lt;br&gt;Location: 1767720 - 1768752" locus_tag="HS041_08510" class="clusterblast-orf" id="knownclusterblast-4_q28_0_all"  />
<polygon points="684,35 689,30 712,30 712,40 689,40 684,35 " style="fill:white; stroke-width:1; stroke:black; " description="&lt;b&gt;HS041_08515&lt;/b&gt;&lt;br&gt;alkene reductase&lt;br&gt;Location: 1768787 - 1769858" locus_tag="HS041_08515" class="clusterblast-orf" id="knownclusterblast-4_q29_0_all"  />
<polygon points="714,40 722,40 727,35 722,30 714,30 714,40 " style="fill:white; stroke-width:1; stroke:black; " description="&lt;b&gt;HS041_08520&lt;/b&gt;&lt;br&gt;MarR family transcriptional regulator&lt;br&gt;Location: 1769967 - 1770462" locus_tag="HS041_08520" class="clusterblast-orf" id="knownclusterblast-4_q30_0_all"  />
<polygon points="732,40 734,40 739,35 734,30 732,30 732,40 " style="fill:white; stroke-width:1; stroke:black; " description="&lt;b&gt;HS041_08525&lt;/b&gt;&lt;br&gt;hypothetical protein&lt;br&gt;Location: 1770650 - 1770905" locus_tag="HS041_08525" class="clusterblast-orf" id="knownclusterblast-4_q31_0_all"  />
<polygon points="743,35 748,30 780,30 780,40 748,40 743,35 " style="fill:white; stroke-width:1; stroke:black; " description="&lt;b&gt;HS041_08530&lt;/b&gt;&lt;br&gt;hypothetical protein&lt;br&gt;Location: 1771061 - 1772492" locus_tag="HS041_08530" class="clusterblast-orf" id="knownclusterblast-4_q32_0_all"  />
</g>
</svg>
