<svg xmlns="http://www.w3.org/2000/svg" xmlns:xlink="http://www.w3.org/1999/xlink" version="1.1" x="0" y="0" height="230" width="800" viewBox="0 0 800 230" preserveAspectRatio="none"  >
<g label="Query sequence" class="clusterblast-cluster"  >
<text x="5" y="20" class="clusterblast-acc"  >
Query sequence</text>
<line x1="10" y1="35" x2="778.0" y2="35" style="stroke-width:1; stroke:grey; "  />
<polygon points="275,35 280,30 282,30 282,40 280,40 275,35 " style="fill:white; stroke-width:1; stroke:black; " description="&lt;b&gt;HS041_36530&lt;/b&gt;&lt;br&gt;LysR family transcriptional regulator&lt;br&gt;Location: 418494 - 419457" locus_tag="HS041_36530" class="clusterblast-orf" id="dummy-3_q0_0_all"  />
<polygon points="285,40 289,40 294,35 289,30 285,30 285,40 " style="fill:#d81515; stroke-width:1; stroke:black; " description="&lt;b&gt;HS041_36535&lt;/b&gt;&lt;br&gt;arginine deiminase&lt;br&gt;Location: 419904 - 421152" locus_tag="HS041_36535" class="clusterblast-orf" id="dummy-3_q1_0_all"  />
<polygon points="295,40 297,40 302,35 297,30 295,30 295,40 " style="fill:#15d815; stroke-width:1; stroke:black; " description="&lt;b&gt;HS041_36540&lt;/b&gt;&lt;br&gt;ornithine carbamoyltransferase&lt;br&gt;Location: 421178 - 422183" locus_tag="HS041_36540" class="clusterblast-orf" id="dummy-3_q2_0_all"  />
<polygon points="302,35 307,30 308,30 308,40 307,40 302,35 " style="fill:#1515d8; stroke-width:1; stroke:black; " description="&lt;b&gt;HS041_36545&lt;/b&gt;&lt;br&gt;thioesterase&lt;br&gt;Location: 422231 - 422939" locus_tag="HS041_36545" class="clusterblast-orf" id="dummy-3_q3_0_all"  />
<polygon points="308,35 313,30 319,30 319,40 313,40 308,35 " style="fill:white; stroke-width:1; stroke:black; " description="&lt;b&gt;HS041_36550&lt;/b&gt;&lt;br&gt;MFS transporter&lt;br&gt;Location: 422971 - 424405" locus_tag="HS041_36550" class="clusterblast-orf" id="dummy-3_q4_0_all"  />
<polygon points="319,35 324,30 325,30 325,40 324,40 319,35 " style="fill:#d815d8; stroke-width:1; stroke:black; " description="&lt;b&gt;HS041_36555&lt;/b&gt;&lt;br&gt;methyltransferase domain-containing protein&lt;br&gt;Location: 424476 - 425313" locus_tag="HS041_36555" class="clusterblast-orf" id="dummy-3_q5_0_all"  />
<polygon points="326,35 331,30 331,30 331,40 331,40 326,35 " style="fill:white; stroke-width:1; stroke:black; " description="&lt;b&gt;HS041_36560&lt;/b&gt;&lt;br&gt;class I SAM-dependent methyltransferase&lt;br&gt;Location: 425339 - 426083" locus_tag="HS041_36560" class="clusterblast-orf" id="dummy-3_q6_0_all"  />
<polygon points="331,35 336,30 337,30 337,40 336,40 331,35 " style="fill:white; stroke-width:1; stroke:black; " description="&lt;b&gt;HS041_36565&lt;/b&gt;&lt;br&gt;class I SAM-dependent methyltransferase&lt;br&gt;Location: 426079 - 426922" locus_tag="HS041_36565" class="clusterblast-orf" id="dummy-3_q7_0_all"  />
<polygon points="337,35 342,30 350,30 350,40 342,40 337,35 " style="fill:white; stroke-width:1; stroke:black; " description="&lt;b&gt;HS041_36570&lt;/b&gt;&lt;br&gt;hypothetical protein&lt;br&gt;Location: 426937 - 428644" locus_tag="HS041_36570" class="clusterblast-orf" id="dummy-3_q8_0_all"  />
<polygon points="350,35 353,30 353,40 350,35 " style="fill:white; stroke-width:1; stroke:black; " description="&lt;b&gt;HS041_36575&lt;/b&gt;&lt;br&gt;hypothetical protein&lt;br&gt;Location: 428640 - 429072" locus_tag="HS041_36575" class="clusterblast-orf" id="dummy-3_q9_0_all"  />
<polygon points="353,35 358,30 365,30 365,40 358,40 353,35 " style="fill:white; stroke-width:1; stroke:black; " description="&lt;b&gt;HS041_36580&lt;/b&gt;&lt;br&gt;hypothetical protein&lt;br&gt;Location: 429068 - 430640" locus_tag="HS041_36580" class="clusterblast-orf" id="dummy-3_q10_0_all"  />
<polygon points="366,40 367,40 372,35 367,30 366,30 366,40 " style="fill:white; stroke-width:1; stroke:black; " description="&lt;b&gt;HS041_36585&lt;/b&gt;&lt;br&gt;serine/threonine protein kinase&lt;br&gt;Location: 430794 - 431598" locus_tag="HS041_36585" class="clusterblast-orf" id="dummy-3_q11_0_all"  />
<polygon points="372,35 377,30 382,30 382,40 377,40 372,35 " style="fill:white; stroke-width:1; stroke:black; " description="&lt;b&gt;HS041_36590&lt;/b&gt;&lt;br&gt;MFS transporter&lt;br&gt;Location: 431587 - 432871" locus_tag="HS041_36590" class="clusterblast-orf" id="dummy-3_q12_0_all"  />
<polygon points="382,35 384,30 384,40 382,35 " style="fill:#d8d815; stroke-width:1; stroke:black; " description="&lt;b&gt;HS041_36595&lt;/b&gt;&lt;br&gt;MbtH family NRPS accessory protein&lt;br&gt;Location: 432924 - 433152" locus_tag="HS041_36595" class="clusterblast-orf" id="dummy-3_q13_0_all"  />
<polygon points="384,35 389,30 393,30 393,40 389,40 384,35 " style="fill:white; stroke-width:1; stroke:black; " description="&lt;b&gt;HS041_36600&lt;/b&gt;&lt;br&gt;VCBS repeat-containing protein&lt;br&gt;Location: 433179 - 434334" locus_tag="HS041_36600" class="clusterblast-orf" id="dummy-3_q14_0_all"  />
<polygon points="393,35 397,30 397,40 393,35 " style="fill:white; stroke-width:1; stroke:black; " description="&lt;b&gt;HS041_36605&lt;/b&gt;&lt;br&gt;hypothetical protein&lt;br&gt;Location: 434330 - 434945" locus_tag="HS041_36605" class="clusterblast-orf" id="dummy-3_q15_0_all"  />
<polygon points="397,35 402,30 407,30 407,40 402,40 397,35 " style="fill:white; stroke-width:1; stroke:black; " description="&lt;b&gt;HS041_36610&lt;/b&gt;&lt;br&gt;cytochrome P450&lt;br&gt;Location: 434956 - 436270" locus_tag="HS041_36610" class="clusterblast-orf" id="dummy-3_q16_0_all"  />
<polygon points="407,35 412,30 415,30 415,40 412,40 407,35 " style="fill:white; stroke-width:1; stroke:black; " description="&lt;b&gt;HS041_36615&lt;/b&gt;&lt;br&gt;methyltransferase&lt;br&gt;Location: 436266 - 437283" locus_tag="HS041_36615" class="clusterblast-orf" id="dummy-3_q17_0_all"  />
<polygon points="415,35 420,30 447,30 447,40 420,40 415,35 " style="fill:white; stroke-width:1; stroke:black; " description="&lt;b&gt;HS041_36620&lt;/b&gt;&lt;br&gt;amino acid adenylation domain-containing protein&lt;br&gt;Location: 437279 - 441701" locus_tag="HS041_36620" class="clusterblast-orf" id="dummy-3_q18_0_all"  />
<polygon points="447,35 452,30 469,30 469,40 452,40 447,35 " style="fill:#15d8d8; stroke-width:1; stroke:black; " description="&lt;b&gt;HS041_36625&lt;/b&gt;&lt;br&gt;acyltransferase domain-containing protein&lt;br&gt;Location: 441697 - 444619" locus_tag="HS041_36625" class="clusterblast-orf" id="dummy-3_q19_0_all"  />
<polygon points="469,35 474,30 505,30 505,40 474,40 469,35 " style="fill:white; stroke-width:1; stroke:black; " description="&lt;b&gt;HS041_36630&lt;/b&gt;&lt;br&gt;AMP-binding protein&lt;br&gt;Location: 444624 - 449361" locus_tag="HS041_36630" class="clusterblast-orf" id="dummy-3_q20_0_all"  />
</g>
<g label="BGC0000459" description="BGC0000459_c1: griseoviridin/fijimycin A (5% of genes show similarity), NRP:Cyclic depsipeptide+Polyketide:Trans-AT type I polyketide" class="clusterblast-cluster"  >
<text x="5" y="70" class="clusterblast-acc"  >
<a xlink:href="https://mibig.secondarymetabolites.org/go/BGC0000459/1" target="_blank">BGC0000459</a>: griseoviridin/fijimycin A                                                        (5% of genes show similarity), NRP:Cyclic depsipeptide+Polyketide:Trans-AT type I polyketide</text>
<line x1="10" y1="85" x2="778.0" y2="85" style="stroke-width:1; stroke:grey; "  />
</g>
<g id="a3_000"  >
<polygon points="0,90 3,90 8,85 3,80 0,80 0,90 " style="fill:white; stroke-width:1; stroke:black; " description="&lt;b&gt;AGN74872.1&lt;/b&gt;&lt;br&gt;SARP-type regulator&lt;br&gt;Location: 1 - 1167" locus_tag="AGN74872.1" class="clusterblast-orf" id="dummy-3_h3_6_0"  />
</g>
<g id="a3_001"  >
<polygon points="9,85 14,80 21,80 21,90 14,90 9,85 " style="fill:white; stroke-width:1; stroke:black; " description="&lt;b&gt;AGN74873.1&lt;/b&gt;&lt;br&gt;major facilitator transporter&lt;br&gt;Location: 1287 - 2879" locus_tag="AGN74873.1" class="clusterblast-orf" id="dummy-3_h3_6_1"  />
</g>
<g id="a3_002"  >
<polygon points="23,85 28,80 32,80 32,90 28,90 23,85 " style="fill:white; stroke-width:1; stroke:black; " description="&lt;b&gt;AGN74874.1&lt;/b&gt;&lt;br&gt;branched-chain amino acid aminotransferase&lt;br&gt;Location: 3197 - 4318" locus_tag="AGN74874.1" class="clusterblast-orf" id="dummy-3_h3_6_2"  />
</g>
<g id="a3_003"  >
<polygon points="32,85 37,80 40,80 40,90 37,90 32,85 " style="fill:white; stroke-width:1; stroke:black; " description="&lt;b&gt;AGN74875.1&lt;/b&gt;&lt;br&gt;methyltransferase&lt;br&gt;Location: 4387 - 5406" locus_tag="AGN74875.1" class="clusterblast-orf" id="dummy-3_h3_6_3"  />
</g>
<g id="a3_004"  >
<polygon points="41,85 46,80 100,80 100,90 46,90 41,85 " style="fill:white; stroke-width:1; stroke:black; " description="&lt;b&gt;AGN74876.1&lt;/b&gt;&lt;br&gt;nonribosomal peptide synthetase&lt;br&gt;Location: 5544 - 13460" locus_tag="AGN74876.1" class="clusterblast-orf" id="dummy-3_h3_6_4"  />
</g>
<g id="a3_005"  >
<polygon points="102,90 103,90 108,85 103,80 102,80 102,90 " style="fill:white; stroke-width:1; stroke:black; " description="&lt;b&gt;AGN74877.1&lt;/b&gt;&lt;br&gt;type ii thioestrerase&lt;br&gt;Location: 13782 - 14528" locus_tag="AGN74877.1" class="clusterblast-orf" id="dummy-3_h3_6_5"  />
</g>
<g id="a3_006"  >
<polygon points="108,85 113,80 116,80 116,90 113,90 108,85 " style="fill:white; stroke-width:1; stroke:black; " description="&lt;b&gt;AGN74878.1&lt;/b&gt;&lt;br&gt;flavin-dependent oxidoreductase&lt;br&gt;Location: 14523 - 15605" locus_tag="AGN74878.1" class="clusterblast-orf" id="dummy-3_h3_6_6"  />
</g>
<g id="a3_007"  >
<polygon points="118,85 119,80 119,90 118,85 " style="fill:white; stroke-width:1; stroke:black; " description="&lt;b&gt;AGN74879.1&lt;/b&gt;&lt;br&gt;hypothetical protein&lt;br&gt;Location: 15839 - 16084" locus_tag="AGN74879.1" class="clusterblast-orf" id="dummy-3_h3_6_7"  />
</g>
<g id="a3_008"  >
<polygon points="121,90 128,90 133,85 128,80 121,80 121,90 " style="fill:white; stroke-width:1; stroke:black; " description="&lt;b&gt;AGN74880.1&lt;/b&gt;&lt;br&gt;3-hydroxypicolinic acid:AMP ligase&lt;br&gt;Location: 16253 - 17875" locus_tag="AGN74880.1" class="clusterblast-orf" id="dummy-3_h3_6_8"  />
</g>
<g id="a3_009"  >
<polygon points="133,90 137,90 142,85 137,80 133,80 133,90 " style="fill:white; stroke-width:1; stroke:black; " description="&lt;b&gt;AGN74881.1&lt;/b&gt;&lt;br&gt;L-lysine 2-aminotransferase&lt;br&gt;Location: 17879 - 19180" locus_tag="AGN74881.1" class="clusterblast-orf" id="dummy-3_h3_6_9"  />
</g>
<g id="a3_0010"  >
<polygon points="143,90 144,85 143,80 143,90 " style="fill:white; stroke-width:1; stroke:black; " description="&lt;b&gt;AGN74882.1&lt;/b&gt;&lt;br&gt;4-oxalocrotonate tautomerase&lt;br&gt;Location: 19234 - 19422" locus_tag="AGN74882.1" class="clusterblast-orf" id="dummy-3_h3_6_10"  />
</g>
<g id="a3_0011"  >
<polygon points="145,85 150,80 155,80 155,90 150,90 145,85 " style="fill:white; stroke-width:1; stroke:black; " description="&lt;b&gt;AGN74883.1&lt;/b&gt;&lt;br&gt;phenylacetyl-CoA dioxygenase&lt;br&gt;Location: 19507 - 20814" locus_tag="AGN74883.1" class="clusterblast-orf" id="dummy-3_h3_6_11"  />
</g>
<g id="a3_0012"  >
<polygon points="155,85 157,80 157,90 155,85 " style="fill:#d8d815; stroke-width:1; stroke:black; " description="&lt;b&gt;AGN74884.1&lt;/b&gt;&lt;br&gt;MbtH domain-containing protein&lt;br&gt;Location: 20829 - 21080&lt;br&gt;&lt;br&gt;&lt;b&gt;BlastP hit with HS041_36595&lt;/b&gt;&lt;br&gt;Percentage identity: 52&lt;br&gt;Percentage coverage: 67&lt;br&gt;BLAST bit score: 63&lt;br&gt;E-value: 9.34e-15" locus_tag="AGN74884.1" class="clusterblast-orf" id="dummy-3_h3_6_12"  />
</g>
<g id="a3_0013"  >
<polygon points="157,85 162,80 285,80 285,90 162,90 157,85 " style="fill:white; stroke-width:1; stroke:black; " description="&lt;b&gt;AGN74885.1&lt;/b&gt;&lt;br&gt;nonribosomal peptide synthetase&lt;br&gt;Location: 21154 - 38325" locus_tag="AGN74885.1" class="clusterblast-orf" id="dummy-3_h3_6_13"  />
</g>
<g id="a3_0014"  >
<polygon points="285,85 290,80 320,80 320,90 290,90 285,85 " style="fill:white; stroke-width:1; stroke:black; " description="&lt;b&gt;AGN74886.1&lt;/b&gt;&lt;br&gt;nonribosomal peptide synthetase&lt;br&gt;Location: 38322 - 43025" locus_tag="AGN74886.1" class="clusterblast-orf" id="dummy-3_h3_6_14"  />
</g>
<g id="a3_0015"  >
<polygon points="324,90 328,90 333,85 328,80 324,80 324,90 " style="fill:white; stroke-width:1; stroke:black; " description="&lt;b&gt;AGN74887.1&lt;/b&gt;&lt;br&gt;branched-chain alpha-keto acid dehydrogenase E1 subunit alpha&lt;br&gt;Location: 43579 - 44736" locus_tag="AGN74887.1" class="clusterblast-orf" id="dummy-3_h3_6_15"  />
</g>
<g id="a3_0016"  >
<polygon points="333,90 336,90 341,85 336,80 333,80 333,90 " style="fill:white; stroke-width:1; stroke:black; " description="&lt;b&gt;AGN74888.1&lt;/b&gt;&lt;br&gt;branched-chain alpha-keto acid dehydrogenase E1 subnuit beta&lt;br&gt;Location: 44733 - 45788" locus_tag="AGN74888.1" class="clusterblast-orf" id="dummy-3_h3_6_16"  />
</g>
<g id="a3_0017"  >
<polygon points="341,90 346,90 351,85 346,80 341,80 341,90 " style="fill:white; stroke-width:1; stroke:black; " description="&lt;b&gt;AGN74889.1&lt;/b&gt;&lt;br&gt;branched-chain alpha-keto acid dehydrogenase E2&lt;br&gt;Location: 45794 - 47191" locus_tag="AGN74889.1" class="clusterblast-orf" id="dummy-3_h3_6_17"  />
</g>
<g id="a3_0018"  >
<polygon points="353,90 360,90 365,85 360,80 353,80 353,90 " style="fill:white; stroke-width:1; stroke:black; " description="&lt;b&gt;AGN74890.1&lt;/b&gt;&lt;br&gt;ABC transporter&lt;br&gt;Location: 47430 - 49085" locus_tag="AGN74890.1" class="clusterblast-orf" id="dummy-3_h3_6_18"  />
</g>
<g id="a3_0019"  >
<polygon points="366,85 371,80 375,80 375,90 371,90 366,85 " style="fill:white; stroke-width:1; stroke:black; " description="&lt;b&gt;AGN74891.1&lt;/b&gt;&lt;br&gt;P450-like monooxygenase&lt;br&gt;Location: 49244 - 50434" locus_tag="AGN74891.1" class="clusterblast-orf" id="dummy-3_h3_6_19"  />
</g>
<g id="a3_0020"  >
<polygon points="377,90 474,90 479,85 474,80 377,80 377,90 " style="fill:white; stroke-width:1; stroke:black; " description="&lt;b&gt;AGN74892.1&lt;/b&gt;&lt;br&gt;nonribosomal peptide synthetase/polyketide synthase hybrid protein&lt;br&gt;Location: 50629 - 64296" locus_tag="AGN74892.1" class="clusterblast-orf" id="dummy-3_h3_6_20"  />
</g>
<g id="a3_0021"  >
<polygon points="479,90 524,90 529,85 524,80 479,80 479,90 " style="fill:#15d8d8; stroke-width:1; stroke:black; " description="&lt;b&gt;AGN74893.1&lt;/b&gt;&lt;br&gt;nonribosomal peptide synthetase/polyketide synthase hybrid protein&lt;br&gt;Location: 64299 - 71039&lt;br&gt;&lt;br&gt;&lt;b&gt;BlastP hit with HS041_36625&lt;/b&gt;&lt;br&gt;Percentage identity: 46&lt;br&gt;Percentage coverage: 52&lt;br&gt;BLAST bit score: 350&lt;br&gt;E-value: 2.13e-101" locus_tag="AGN74893.1" class="clusterblast-orf" id="dummy-3_h3_6_21"  />
</g>
<g id="a3_0022"  >
<polygon points="530,90 574,90 579,85 574,80 530,80 530,90 " style="fill:white; stroke-width:1; stroke:black; " description="&lt;b&gt;AGN74894.1&lt;/b&gt;&lt;br&gt;nonribosomal peptide synthetase/polyketide synthase hybrid protein&lt;br&gt;Location: 71211 - 77717" locus_tag="AGN74894.1" class="clusterblast-orf" id="dummy-3_h3_6_22"  />
</g>
<g id="a3_0023"  >
<polygon points="579,90 632,90 637,85 632,80 579,80 579,90 " style="fill:white; stroke-width:1; stroke:black; " description="&lt;b&gt;AGN74895.1&lt;/b&gt;&lt;br&gt;nonribosomal peptide synthetase/polyketide synthase hybrid protein&lt;br&gt;Location: 77728 - 85563" locus_tag="AGN74895.1" class="clusterblast-orf" id="dummy-3_h3_6_23"  />
</g>
<g id="a3_0024"  >
<polygon points="637,90 676,90 681,85 676,80 637,80 637,90 " style="fill:white; stroke-width:1; stroke:black; " description="&lt;b&gt;AGN74896.1&lt;/b&gt;&lt;br&gt;nonribosomal peptide synthetase/polyketide synthase hybrid protein&lt;br&gt;Location: 85560 - 91424" locus_tag="AGN74896.1" class="clusterblast-orf" id="dummy-3_h3_6_24"  />
</g>
<g id="a3_0025"  >
<polygon points="681,90 683,90 688,85 683,80 681,80 681,90 " style="fill:white; stroke-width:1; stroke:black; " description="&lt;b&gt;AGN74897.1&lt;/b&gt;&lt;br&gt;acyltransferase&lt;br&gt;Location: 91421 - 92371" locus_tag="AGN74897.1" class="clusterblast-orf" id="dummy-3_h3_6_25"  />
</g>
<g id="a3_0026"  >
<polygon points="688,90 701,90 706,85 701,80 688,80 688,90 " style="fill:white; stroke-width:1; stroke:black; " description="&lt;b&gt;AGN74898.1&lt;/b&gt;&lt;br&gt;nonribosomal peptide synthetase&lt;br&gt;Location: 92365 - 94791" locus_tag="AGN74898.1" class="clusterblast-orf" id="dummy-3_h3_6_26"  />
</g>
<g id="a3_0027"  >
<polygon points="708,90 713,90 718,85 713,80 708,80 708,90 " style="fill:white; stroke-width:1; stroke:black; " description="&lt;b&gt;AGN74899.1&lt;/b&gt;&lt;br&gt;major facilitator transporter&lt;br&gt;Location: 95041 - 96435" locus_tag="AGN74899.1" class="clusterblast-orf" id="dummy-3_h3_6_27"  />
</g>
<g id="a3_0028"  >
<polygon points="718,85 723,80 725,80 725,90 723,90 718,85 " style="fill:white; stroke-width:1; stroke:black; " description="&lt;b&gt;AGN74900.1&lt;/b&gt;&lt;br&gt;streptogramin B lyase&lt;br&gt;Location: 96467 - 97360" locus_tag="AGN74900.1" class="clusterblast-orf" id="dummy-3_h3_6_28"  />
</g>
<g id="a3_0029"  >
<polygon points="727,85 732,80 735,80 735,90 732,90 727,85 " style="fill:white; stroke-width:1; stroke:black; " description="&lt;b&gt;AGN74901.1&lt;/b&gt;&lt;br&gt;sarcosine oxidase&lt;br&gt;Location: 97608 - 98756" locus_tag="AGN74901.1" class="clusterblast-orf" id="dummy-3_h3_6_29"  />
</g>
<g id="a3_0030"  >
<polygon points="736,85 741,80 743,80 743,90 741,90 736,85 " style="fill:white; stroke-width:1; stroke:black; " description="&lt;b&gt;AGN74902.1&lt;/b&gt;&lt;br&gt;SARP-type regulator&lt;br&gt;Location: 98866 - 99708" locus_tag="AGN74902.1" class="clusterblast-orf" id="dummy-3_h3_6_30"  />
</g>
<g id="a3_0031"  >
<polygon points="745,85 750,80 750,80 750,90 750,90 745,85 " style="fill:white; stroke-width:1; stroke:black; " description="&lt;b&gt;AGN74903.1&lt;/b&gt;&lt;br&gt;TetR-type regulator&lt;br&gt;Location: 100098 - 100745" locus_tag="AGN74903.1" class="clusterblast-orf" id="dummy-3_h3_6_31"  />
</g>
<g id="a3_0032"  >
<polygon points="754,90 755,90 760,85 755,80 754,80 754,90 " style="fill:white; stroke-width:1; stroke:black; " description="&lt;b&gt;AGN74904.1&lt;/b&gt;&lt;br&gt;ketoreductase&lt;br&gt;Location: 101227 - 101991" locus_tag="AGN74904.1" class="clusterblast-orf" id="dummy-3_h3_6_32"  />
</g>
<g id="a3_0033"  >
<polygon points="761,90 763,90 768,85 763,80 761,80 761,90 " style="fill:white; stroke-width:1; stroke:black; " description="&lt;b&gt;AGN74905.1&lt;/b&gt;&lt;br&gt;AfsA-like gamma-butyrolactone biosynthetic protein&lt;br&gt;Location: 102181 - 103149" locus_tag="AGN74905.1" class="clusterblast-orf" id="dummy-3_h3_6_33"  />
</g>
<g id="a3_0034"  >
<polygon points="768,85 773,80 773,80 773,90 773,90 768,85 " style="fill:white; stroke-width:1; stroke:black; " description="&lt;b&gt;AGN74906.1&lt;/b&gt;&lt;br&gt;gamma-butyrolactone receptor&lt;br&gt;Location: 103174 - 103857" locus_tag="AGN74906.1" class="clusterblast-orf" id="dummy-3_h3_6_34"  />
</g>
<g id="a3_0035"  >
<polygon points="774,85 779,80 780,80 780,90 779,90 774,85 " style="fill:white; stroke-width:1; stroke:black; " description="&lt;b&gt;AGN74907.1&lt;/b&gt;&lt;br&gt;phosphatase&lt;br&gt;Location: 103982 - 104671" locus_tag="AGN74907.1" class="clusterblast-orf" id="dummy-3_h3_6_35"  />
</g>
</svg>
