<svg xmlns="http://www.w3.org/2000/svg" xmlns:xlink="http://www.w3.org/1999/xlink" version="1.1" x="0" y="0" height="230" width="800" viewBox="0 0 800 230" preserveAspectRatio="none"  >
<g label="Query sequence" class="clusterblast-cluster"  >
<text x="5" y="20" class="clusterblast-acc"  >
Query sequence</text>
<line x1="10" y1="35" x2="778.0" y2="35" style="stroke-width:1; stroke:grey; "  />
<polygon points="0,35 5,30 6,30 6,40 5,40 0,35 " style="fill:white; stroke-width:1; stroke:black; " description="&lt;b&gt;HS041_14845&lt;/b&gt;&lt;br&gt;hypothetical protein&lt;br&gt;Location: 480361 - 481108" locus_tag="HS041_14845" class="clusterblast-orf" id="dummy-3_q0_0_all"  />
<polygon points="7,35 12,30 12,30 12,40 12,40 7,35 " style="fill:white; stroke-width:1; stroke:black; " description="&lt;b&gt;HS041_14850&lt;/b&gt;&lt;br&gt;disulfide bond formation protein DsbA&lt;br&gt;Location: 481209 - 481833" locus_tag="HS041_14850" class="clusterblast-orf" id="dummy-3_q1_0_all"  />
<polygon points="13,35 17,30 17,40 13,35 " style="fill:white; stroke-width:1; stroke:black; " description="&lt;b&gt;HS041_14855&lt;/b&gt;&lt;br&gt;O-acetyl-ADP-ribose deacetylase&lt;br&gt;Location: 481940 - 482462" locus_tag="HS041_14855" class="clusterblast-orf" id="dummy-3_q2_0_all"  />
<polygon points="18,35 23,30 30,30 30,40 23,40 18,35 " style="fill:white; stroke-width:1; stroke:black; " description="&lt;b&gt;HS041_14860&lt;/b&gt;&lt;br&gt;aminopeptidase&lt;br&gt;Location: 482615 - 484037" locus_tag="HS041_14860" class="clusterblast-orf" id="dummy-3_q3_0_all"  />
<polygon points="33,35 38,30 59,30 59,40 38,40 33,35 " style="fill:white; stroke-width:1; stroke:black; " description="&lt;b&gt;HS041_14865&lt;/b&gt;&lt;br&gt;tetratricopeptide repeat protein&lt;br&gt;Location: 484325 - 487460" locus_tag="HS041_14865" class="clusterblast-orf" id="dummy-3_q4_0_all"  />
<polygon points="63,35 64,30 64,40 63,35 " style="fill:white; stroke-width:1; stroke:black; " description="&lt;b&gt;HS041_14870&lt;/b&gt;&lt;br&gt;hypothetical protein&lt;br&gt;Location: 487890 - 488073" locus_tag="HS041_14870" class="clusterblast-orf" id="dummy-3_q5_0_all"  />
<polygon points="67,40 70,35 67,30 67,40 " style="fill:white; stroke-width:1; stroke:black; " description="&lt;b&gt;HS041_14875&lt;/b&gt;&lt;br&gt;hydroxyisourate hydrolase&lt;br&gt;Location: 488456 - 488795" locus_tag="HS041_14875" class="clusterblast-orf" id="dummy-3_q6_0_all"  />
<polygon points="71,40 80,40 85,35 80,30 71,30 71,40 " style="fill:white; stroke-width:1; stroke:black; " description="&lt;b&gt;HS041_14880&lt;/b&gt;&lt;br&gt;2-isopropylmalate synthase&lt;br&gt;Location: 488826 - 490563" locus_tag="HS041_14880" class="clusterblast-orf" id="dummy-3_q7_0_all"  />
<polygon points="87,40 105,40 110,35 105,30 87,30 87,40 " style="fill:white; stroke-width:1; stroke:black; " description="&lt;b&gt;HS041_14885&lt;/b&gt;&lt;br&gt;AAA family ATPase&lt;br&gt;Location: 490739 - 493505" locus_tag="HS041_14885" class="clusterblast-orf" id="dummy-3_q8_0_all"  />
<polygon points="112,40 115,40 120,35 115,30 112,30 112,40 " style="fill:#d81515; stroke-width:1; stroke:black; " description="&lt;b&gt;HS041_14890&lt;/b&gt;&lt;br&gt;hypothetical protein&lt;br&gt;Location: 493822 - 494686" locus_tag="HS041_14890" class="clusterblast-orf" id="dummy-3_q9_0_all"  />
<polygon points="120,40 124,40 129,35 124,30 120,30 120,40 " style="fill:#6cd815; stroke-width:1; stroke:black; " description="&lt;b&gt;HS041_14895&lt;/b&gt;&lt;br&gt;DUF1702 family protein&lt;br&gt;Location: 494767 - 495763" locus_tag="HS041_14895" class="clusterblast-orf" id="dummy-3_q10_0_all"  />
<polygon points="130,40 133,40 138,35 133,30 130,30 130,40 " style="fill:#15c3d8; stroke-width:1; stroke:black; " description="&lt;b&gt;HS041_14900&lt;/b&gt;&lt;br&gt;DUF1702 family protein&lt;br&gt;Location: 495938 - 496919" locus_tag="HS041_14900" class="clusterblast-orf" id="dummy-3_q11_0_all"  />
<polygon points="138,40 150,40 155,35 150,30 138,30 138,40 " style="fill:#9715d8; stroke-width:1; stroke:black; " description="&lt;b&gt;HS041_14905&lt;/b&gt;&lt;br&gt;CRTAC1 family protein&lt;br&gt;Location: 496915 - 498892" locus_tag="HS041_14905" class="clusterblast-orf" id="dummy-3_q12_0_all"  />
<polygon points="155,40 158,40 163,35 158,30 155,30 155,40 " style="fill:#d84115; stroke-width:1; stroke:black; " description="&lt;b&gt;HS041_14910&lt;/b&gt;&lt;br&gt;enediyne biosynthesis protein&lt;br&gt;Location: 498896 - 499868" locus_tag="HS041_14910" class="clusterblast-orf" id="dummy-3_q13_0_all"  />
<polygon points="163,40 207,40 212,35 207,30 163,30 163,40 " style="fill:#41d815; stroke-width:1; stroke:black; " description="&lt;b&gt;HS041_14915&lt;/b&gt;&lt;br&gt;SDR family NAD(P)-dependent oxidoreductase&lt;br&gt;Location: 499864 - 505648" locus_tag="HS041_14915" class="clusterblast-orf" id="dummy-3_q14_0_all"  />
<polygon points="212,40 215,35 212,30 212,40 " style="fill:#1597d8; stroke-width:1; stroke:black; " description="&lt;b&gt;HS041_14920&lt;/b&gt;&lt;br&gt;acyl-CoA thioesterase&lt;br&gt;Location: 505651 - 506080" locus_tag="HS041_14920" class="clusterblast-orf" id="dummy-3_q15_0_all"  />
<polygon points="215,40 215,40 220,35 215,30 215,30 215,40 " style="fill:#c315d8; stroke-width:1; stroke:black; " description="&lt;b&gt;HS041_14925&lt;/b&gt;&lt;br&gt;flavin reductase family protein&lt;br&gt;Location: 506101 - 506641" locus_tag="HS041_14925" class="clusterblast-orf" id="dummy-3_q16_0_all"  />
<polygon points="221,40 227,40 232,35 227,30 221,30 221,40 " style="fill:#d86c15; stroke-width:1; stroke:black; " description="&lt;b&gt;HS041_14930&lt;/b&gt;&lt;br&gt;cytochrome P450&lt;br&gt;Location: 506703 - 508032" locus_tag="HS041_14930" class="clusterblast-orf" id="dummy-3_q17_0_all"  />
<polygon points="232,35 237,30 239,30 239,40 237,40 232,35 " style="fill:#15d815; stroke-width:1; stroke:black; " description="&lt;b&gt;HS041_14935&lt;/b&gt;&lt;br&gt;helix-turn-helix transcriptional regulator&lt;br&gt;Location: 508116 - 508884" locus_tag="HS041_14935" class="clusterblast-orf" id="dummy-3_q18_0_all"  />
<polygon points="241,35 246,30 248,30 248,40 246,40 241,35 " style="fill:white; stroke-width:1; stroke:black; " description="&lt;b&gt;HS041_14940&lt;/b&gt;&lt;br&gt;metallophosphoesterase&lt;br&gt;Location: 509157 - 509979" locus_tag="HS041_14940" class="clusterblast-orf" id="dummy-3_q19_0_all"  />
<polygon points="250,40 250,40 255,35 250,30 250,30 250,40 " style="fill:white; stroke-width:1; stroke:black; " description="&lt;b&gt;HS041_14945&lt;/b&gt;&lt;br&gt;SigE family RNA polymerase sigma factor&lt;br&gt;Location: 510239 - 510818" locus_tag="HS041_14945" class="clusterblast-orf" id="dummy-3_q20_0_all"  />
<polygon points="255,40 255,40 260,35 255,30 255,30 255,40 " style="fill:#156cd8; stroke-width:1; stroke:black; " description="&lt;b&gt;HS041_14950&lt;/b&gt;&lt;br&gt;regulator&lt;br&gt;Location: 510817 - 511384" locus_tag="HS041_14950" class="clusterblast-orf" id="dummy-3_q21_0_all"  />
<polygon points="260,40 269,40 274,35 269,30 260,30 260,40 " style="fill:#d815c3; stroke-width:1; stroke:black; " description="&lt;b&gt;HS041_14955&lt;/b&gt;&lt;br&gt;GMC family oxidoreductase&lt;br&gt;Location: 511380 - 513030" locus_tag="HS041_14955" class="clusterblast-orf" id="dummy-3_q22_0_all"  />
<polygon points="274,40 278,40 283,35 278,30 274,30 274,40 " style="fill:#d89715; stroke-width:1; stroke:black; " description="&lt;b&gt;HS041_14960&lt;/b&gt;&lt;br&gt;carboxymuconolactone decarboxylase family protein&lt;br&gt;Location: 513056 - 514106" locus_tag="HS041_14960" class="clusterblast-orf" id="dummy-3_q23_0_all"  />
<polygon points="283,40 285,40 290,35 285,30 283,30 283,40 " style="fill:#15d841; stroke-width:1; stroke:black; " description="&lt;b&gt;HS041_14965&lt;/b&gt;&lt;br&gt;TIGR03084 family protein&lt;br&gt;Location: 514159 - 514963" locus_tag="HS041_14965" class="clusterblast-orf" id="dummy-3_q24_0_all"  />
<polygon points="292,40 295,40 300,35 295,30 292,30 292,40 " style="fill:white; stroke-width:1; stroke:black; " description="&lt;b&gt;HS041_14970&lt;/b&gt;&lt;br&gt;hypothetical protein&lt;br&gt;Location: 515180 - 516203" locus_tag="HS041_14970" class="clusterblast-orf" id="dummy-3_q25_0_all"  />
<polygon points="302,40 305,40 310,35 305,30 302,30 302,40 " style="fill:white; stroke-width:1; stroke:black; " description="&lt;b&gt;HS041_14975&lt;/b&gt;&lt;br&gt;helix-turn-helix transcriptional regulator&lt;br&gt;Location: 516462 - 517362" locus_tag="HS041_14975" class="clusterblast-orf" id="dummy-3_q26_0_all"  />
<polygon points="315,35 317,30 317,40 315,35 " style="fill:white; stroke-width:1; stroke:black; " description="&lt;b&gt;HS041_14980&lt;/b&gt;&lt;br&gt;hypothetical protein&lt;br&gt;Location: 517936 - 518215" locus_tag="HS041_14980" class="clusterblast-orf" id="dummy-3_q27_0_all"  />
<polygon points="320,40 329,40 334,35 329,30 320,30 320,40 " style="fill:#1541d8; stroke-width:1; stroke:black; " description="&lt;b&gt;HS041_14985&lt;/b&gt;&lt;br&gt;acyl-CoA carboxylase subunit beta&lt;br&gt;Location: 518597 - 520223" locus_tag="HS041_14985" class="clusterblast-orf" id="dummy-3_q28_0_all"  />
<polygon points="337,40 339,35 337,30 337,40 " style="fill:white; stroke-width:1; stroke:black; " description="&lt;b&gt;HS041_14990&lt;/b&gt;&lt;br&gt;hypothetical protein&lt;br&gt;Location: 520566 - 520836" locus_tag="HS041_14990" class="clusterblast-orf" id="dummy-3_q29_0_all"  />
<polygon points="339,40 341,40 346,35 341,30 339,30 339,40 " style="fill:white; stroke-width:1; stroke:black; " description="&lt;b&gt;HS041_14995&lt;/b&gt;&lt;br&gt;4'-phosphopantetheinyl transferase superfamily protein&lt;br&gt;Location: 520860 - 521619" locus_tag="HS041_14995" class="clusterblast-orf" id="dummy-3_q30_0_all"  />
<polygon points="346,40 348,40 353,35 348,30 346,30 346,40 " style="fill:white; stroke-width:1; stroke:black; " description="&lt;b&gt;HS041_15000&lt;/b&gt;&lt;br&gt;alpha/beta hydrolase&lt;br&gt;Location: 521715 - 522441" locus_tag="HS041_15000" class="clusterblast-orf" id="dummy-3_q31_0_all"  />
<polygon points="353,35 357,30 357,40 353,35 " style="fill:white; stroke-width:1; stroke:black; " description="&lt;b&gt;HS041_15005&lt;/b&gt;&lt;br&gt;hypothetical protein&lt;br&gt;Location: 522501 - 523002" locus_tag="HS041_15005" class="clusterblast-orf" id="dummy-3_q32_0_all"  />
<polygon points="357,35 362,30 362,30 362,40 362,40 357,35 " style="fill:#d81597; stroke-width:1; stroke:black; " description="&lt;b&gt;HS041_15010&lt;/b&gt;&lt;br&gt;hypothetical protein&lt;br&gt;Location: 522995 - 523562" locus_tag="HS041_15010" class="clusterblast-orf" id="dummy-3_q33_0_all"  />
<polygon points="364,40 368,40 373,35 368,30 364,30 364,40 " style="fill:white; stroke-width:1; stroke:black; " description="&lt;b&gt;HS041_15015&lt;/b&gt;&lt;br&gt;alpha/beta hydrolase&lt;br&gt;Location: 523859 - 524906" locus_tag="HS041_15015" class="clusterblast-orf" id="dummy-3_q34_0_all"  />
<polygon points="375,40 381,40 386,35 381,30 375,30 375,40 " style="fill:white; stroke-width:1; stroke:black; " description="&lt;b&gt;HS041_15020&lt;/b&gt;&lt;br&gt;FAD-binding oxidoreductase&lt;br&gt;Location: 525072 - 526437" locus_tag="HS041_15020" class="clusterblast-orf" id="dummy-3_q35_0_all"  />
<polygon points="387,35 392,30 403,30 403,40 392,40 387,35 " style="fill:white; stroke-width:1; stroke:black; " description="&lt;b&gt;HS041_15025&lt;/b&gt;&lt;br&gt;asparagine synthase (glutamine-hydrolyzing)&lt;br&gt;Location: 526572 - 528420" locus_tag="HS041_15025" class="clusterblast-orf" id="dummy-3_q36_0_all"  />
<polygon points="403,35 408,30 413,30 413,40 408,40 403,35 " style="fill:white; stroke-width:1; stroke:black; " description="&lt;b&gt;HS041_15030&lt;/b&gt;&lt;br&gt;3-hydroxybenzoate 6-monooxygenase&lt;br&gt;Location: 528426 - 529641" locus_tag="HS041_15030" class="clusterblast-orf" id="dummy-3_q37_0_all"  />
<polygon points="413,35 418,30 429,30 429,40 418,40 413,35 " style="fill:white; stroke-width:1; stroke:black; " description="&lt;b&gt;HS041_15035&lt;/b&gt;&lt;br&gt;phenazine-specific anthranilate synthase&lt;br&gt;Location: 529637 - 531536" locus_tag="HS041_15035" class="clusterblast-orf" id="dummy-3_q38_0_all"  />
<polygon points="429,35 434,30 434,30 434,40 434,40 429,35 " style="fill:white; stroke-width:1; stroke:black; " description="&lt;b&gt;HS041_15040&lt;/b&gt;&lt;br&gt;isochorismatase family protein&lt;br&gt;Location: 531532 - 532186" locus_tag="HS041_15040" class="clusterblast-orf" id="dummy-3_q39_0_all"  />
<polygon points="435,35 440,30 441,30 441,40 440,40 435,35 " style="fill:white; stroke-width:1; stroke:black; " description="&lt;b&gt;HS041_15045&lt;/b&gt;&lt;br&gt;2,3-dihydro-2,3-dihydroxybenzoate dehydrogenase&lt;br&gt;Location: 532219 - 532984" locus_tag="HS041_15045" class="clusterblast-orf" id="dummy-3_q40_0_all"  />
<polygon points="443,40 465,40 470,35 465,30 443,30 443,40 " style="fill:white; stroke-width:1; stroke:black; " description="&lt;b&gt;HS041_15050&lt;/b&gt;&lt;br&gt;AMP-binding protein&lt;br&gt;Location: 533205 - 536418" locus_tag="HS041_15050" class="clusterblast-orf" id="dummy-3_q41_0_all"  />
<polygon points="470,40 479,40 484,35 479,30 470,30 470,40 " style="fill:#d8c315; stroke-width:1; stroke:black; " description="&lt;b&gt;HS041_15055&lt;/b&gt;&lt;br&gt;tyrosine 2,3-aminomutase&lt;br&gt;Location: 536419 - 538087" locus_tag="HS041_15055" class="clusterblast-orf" id="dummy-3_q42_0_all"  />
<polygon points="485,35 487,30 487,40 485,35 " style="fill:white; stroke-width:1; stroke:black; " description="&lt;b&gt;HS041_15060&lt;/b&gt;&lt;br&gt;helix-turn-helix domain-containing protein&lt;br&gt;Location: 538280 - 538469" locus_tag="HS041_15060" class="clusterblast-orf" id="dummy-3_q43_0_all"  />
<polygon points="488,35 493,30 501,30 501,40 493,40 488,35 " style="fill:#15d86c; stroke-width:1; stroke:black; " description="&lt;b&gt;HS041_15065&lt;/b&gt;&lt;br&gt;Pyoverdin chromophore biosynthetic protein pvcC&lt;br&gt;Location: 538617 - 540195" locus_tag="HS041_15065" class="clusterblast-orf" id="dummy-3_q44_0_all"  />
<polygon points="502,35 507,30 512,30 512,40 507,40 502,35 " style="fill:#1515d8; stroke-width:1; stroke:black; " description="&lt;b&gt;HS041_15070&lt;/b&gt;&lt;br&gt;acyl-CoA dehydrogenase family protein&lt;br&gt;Location: 540205 - 541426" locus_tag="HS041_15070" class="clusterblast-orf" id="dummy-3_q45_0_all"  />
<polygon points="514,40 516,40 521,35 516,30 514,30 514,40 " style="fill:#d8156c; stroke-width:1; stroke:black; " description="&lt;b&gt;HS041_15075&lt;/b&gt;&lt;br&gt;class I SAM-dependent methyltransferase&lt;br&gt;Location: 541748 - 542555" locus_tag="HS041_15075" class="clusterblast-orf" id="dummy-3_q46_0_all"  />
<polygon points="521,40 526,40 531,35 526,30 521,30 521,40 " style="fill:#c3d815; stroke-width:1; stroke:black; " description="&lt;b&gt;HS041_15080&lt;/b&gt;&lt;br&gt;DegT/DnrJ/EryC1/StrS family aminotransferase&lt;br&gt;Location: 542551 - 543661" locus_tag="HS041_15080" class="clusterblast-orf" id="dummy-3_q47_0_all"  />
<polygon points="531,35 536,30 549,30 549,40 536,40 531,35 " style="fill:white; stroke-width:1; stroke:black; " description="&lt;b&gt;HS041_15085&lt;/b&gt;&lt;br&gt;molybdopterin-dependent oxidoreductase&lt;br&gt;Location: 543715 - 545851" locus_tag="HS041_15085" class="clusterblast-orf" id="dummy-3_q48_0_all"  />
<polygon points="549,35 554,30 558,30 558,40 554,40 549,35 " style="fill:white; stroke-width:1; stroke:black; " description="&lt;b&gt;HS041_15090&lt;/b&gt;&lt;br&gt;2Fe-2S iron-sulfur cluster binding domain-containing protein&lt;br&gt;Location: 545872 - 546955" locus_tag="HS041_15090" class="clusterblast-orf" id="dummy-3_q49_0_all"  />
<polygon points="558,35 562,30 562,40 558,35 " style="fill:white; stroke-width:1; stroke:black; " description="&lt;b&gt;HS041_15095&lt;/b&gt;&lt;br&gt;phenylacetate-CoA oxygenase subunit PaaJ&lt;br&gt;Location: 546954 - 547419" locus_tag="HS041_15095" class="clusterblast-orf" id="dummy-3_q50_0_all"  />
<polygon points="562,35 567,30 568,30 568,40 567,40 562,35 " style="fill:white; stroke-width:1; stroke:black; " description="&lt;b&gt;HS041_15100&lt;/b&gt;&lt;br&gt;phenylacetate-CoA oxygenase subunit PaaC&lt;br&gt;Location: 547412 - 548144" locus_tag="HS041_15100" class="clusterblast-orf" id="dummy-3_q51_0_all"  />
<polygon points="568,35 573,30 579,30 579,40 573,40 568,35 " style="fill:white; stroke-width:1; stroke:black; " description="&lt;b&gt;HS041_15105&lt;/b&gt;&lt;br&gt;1,2-phenylacetyl-CoA epoxidase subunit A&lt;br&gt;Location: 548140 - 549433" locus_tag="HS041_15105" class="clusterblast-orf" id="dummy-3_q52_0_all"  />
<polygon points="579,40 587,40 592,35 587,30 579,30 579,40 " style="fill:white; stroke-width:1; stroke:black; " description="&lt;b&gt;HS041_15110&lt;/b&gt;&lt;br&gt;benzoate-CoA ligase family protein&lt;br&gt;Location: 549494 - 551021" locus_tag="HS041_15110" class="clusterblast-orf" id="dummy-3_q53_0_all"  />
<polygon points="592,35 597,30 599,30 599,40 597,40 592,35 " style="fill:white; stroke-width:1; stroke:black; " description="&lt;b&gt;HS041_15115&lt;/b&gt;&lt;br&gt;arylamine N-acetyltransferase&lt;br&gt;Location: 551021 - 551813" locus_tag="HS041_15115" class="clusterblast-orf" id="dummy-3_q54_0_all"  />
<polygon points="601,40 610,40 615,35 610,30 601,30 601,40 " style="fill:white; stroke-width:1; stroke:black; " description="&lt;b&gt;HS041_15120&lt;/b&gt;&lt;br&gt;non-ribosomal peptide synthetase&lt;br&gt;Location: 552036 - 553731" locus_tag="HS041_15120" class="clusterblast-orf" id="dummy-3_q55_0_all"  />
<polygon points="615,40 626,40 631,35 626,30 615,30 615,40 " style="fill:white; stroke-width:1; stroke:black; " description="&lt;b&gt;HS041_15125&lt;/b&gt;&lt;br&gt;B12-binding domain-containing radical SAM protein&lt;br&gt;Location: 553727 - 555632" locus_tag="HS041_15125" class="clusterblast-orf" id="dummy-3_q56_0_all"  />
<polygon points="631,40 635,40 640,35 635,30 631,30 631,40 " style="fill:white; stroke-width:1; stroke:black; " description="&lt;b&gt;HS041_15130&lt;/b&gt;&lt;br&gt;acyl-CoA dehydrogenase family protein&lt;br&gt;Location: 555621 - 556746" locus_tag="HS041_15130" class="clusterblast-orf" id="dummy-3_q57_0_all"  />
<polygon points="640,40 642,40 647,35 642,30 640,30 640,40 " style="fill:white; stroke-width:1; stroke:black; " description="&lt;b&gt;HS041_15135&lt;/b&gt;&lt;br&gt;thioesterase&lt;br&gt;Location: 556742 - 557534" locus_tag="HS041_15135" class="clusterblast-orf" id="dummy-3_q58_0_all"  />
<polygon points="647,40 652,40 657,35 652,30 647,30 647,40 " style="fill:white; stroke-width:1; stroke:black; " description="&lt;b&gt;HS041_15140&lt;/b&gt;&lt;br&gt;acyltransferase&lt;br&gt;Location: 557530 - 558760" locus_tag="HS041_15140" class="clusterblast-orf" id="dummy-3_q59_0_all"  />
<polygon points="658,40 660,40 665,35 660,30 658,30 658,40 " style="fill:white; stroke-width:1; stroke:black; " description="&lt;b&gt;HS041_15145&lt;/b&gt;&lt;br&gt;phytanoyl-CoA dioxygenase family protein&lt;br&gt;Location: 558856 - 559738" locus_tag="HS041_15145" class="clusterblast-orf" id="dummy-3_q60_0_all"  />
<polygon points="666,40 670,35 666,30 666,40 " style="fill:white; stroke-width:1; stroke:black; " description="&lt;b&gt;HS041_15150&lt;/b&gt;&lt;br&gt;SRPBCC domain-containing protein&lt;br&gt;Location: 559828 - 560284" locus_tag="HS041_15150" class="clusterblast-orf" id="dummy-3_q61_0_all"  />
<polygon points="676,35 681,30 686,30 686,40 681,40 676,35 " style="fill:#15d897; stroke-width:1; stroke:black; " description="&lt;b&gt;HS041_15155&lt;/b&gt;&lt;br&gt;class I SAM-dependent methyltransferase&lt;br&gt;Location: 560986 - 562198" locus_tag="HS041_15155" class="clusterblast-orf" id="dummy-3_q62_0_all"  />
<polygon points="687,35 692,30 698,30 698,40 692,40 687,35 " style="fill:white; stroke-width:1; stroke:black; " description="&lt;b&gt;HS041_15160&lt;/b&gt;&lt;br&gt;FAD-dependent oxidoreductase&lt;br&gt;Location: 562305 - 563664" locus_tag="HS041_15160" class="clusterblast-orf" id="dummy-3_q63_0_all"  />
<polygon points="698,35 703,30 711,30 711,40 703,40 698,35 " style="fill:white; stroke-width:1; stroke:black; " description="&lt;b&gt;HS041_15165&lt;/b&gt;&lt;br&gt;methyltransferase domain-containing protein&lt;br&gt;Location: 563664 - 565209" locus_tag="HS041_15165" class="clusterblast-orf" id="dummy-3_q64_0_all"  />
<polygon points="712,40 719,40 724,35 719,30 712,30 712,40 " style="fill:#4115d8; stroke-width:1; stroke:black; " description="&lt;b&gt;HS041_15170&lt;/b&gt;&lt;br&gt;extracellular solute-binding protein&lt;br&gt;Location: 565343 - 566771" locus_tag="HS041_15170" class="clusterblast-orf" id="dummy-3_q65_0_all"  />
<polygon points="725,35 730,30 736,30 736,40 730,40 725,35 " style="fill:#d81541; stroke-width:1; stroke:black; " description="&lt;b&gt;HS041_15175&lt;/b&gt;&lt;br&gt;DUF1205 domain-containing protein&lt;br&gt;Location: 566828 - 568124" locus_tag="HS041_15175" class="clusterblast-orf" id="dummy-3_q66_0_all"  />
<polygon points="738,40 741,40 746,35 741,30 738,30 738,40 " style="fill:#97d815; stroke-width:1; stroke:black; " description="&lt;b&gt;HS041_15180&lt;/b&gt;&lt;br&gt;NAD-dependent epimerase/dehydratase family protein&lt;br&gt;Location: 568354 - 569335" locus_tag="HS041_15180" class="clusterblast-orf" id="dummy-3_q67_0_all"  />
<polygon points="746,35 751,30 757,30 757,40 751,40 746,35 " style="fill:#15d8c3; stroke-width:1; stroke:black; " description="&lt;b&gt;HS041_15185&lt;/b&gt;&lt;br&gt;cytochrome P450&lt;br&gt;Location: 569385 - 570627" locus_tag="HS041_15185" class="clusterblast-orf" id="dummy-3_q68_0_all"  />
<polygon points="757,35 762,30 770,30 770,40 762,40 757,35 " style="fill:#6c15d8; stroke-width:1; stroke:black; " description="&lt;b&gt;HS041_15190&lt;/b&gt;&lt;br&gt;MFS transporter&lt;br&gt;Location: 570663 - 572235" locus_tag="HS041_15190" class="clusterblast-orf" id="dummy-3_q69_0_all"  />
<polygon points="770,35 775,30 780,30 780,40 775,40 770,35 " style="fill:white; stroke-width:1; stroke:black; " description="&lt;b&gt;HS041_15195&lt;/b&gt;&lt;br&gt;acyltransferase&lt;br&gt;Location: 572248 - 573352" locus_tag="HS041_15195" class="clusterblast-orf" id="dummy-3_q70_0_all"  />
</g>
<g label="BGC0000033" description="BGC0000033_c1: calicheamicin (13% of genes show similarity), Polyketide" class="clusterblast-cluster"  >
<text x="5" y="70" class="clusterblast-acc"  >
<a xlink:href="https://mibig.secondarymetabolites.org/go/BGC0000033/1" target="_blank">BGC0000033</a>: calicheamicin                                                                    (13% of genes show similarity), Polyketide</text>
<line x1="10" y1="85" x2="778.0" y2="85" style="stroke-width:1; stroke:grey; "  />
</g>
<g id="a3_000"  >
<polygon points="11,90 16,90 21,85 16,80 11,80 11,90 " style="fill:white; stroke-width:1; stroke:black; " description="&lt;b&gt;AAM70365.1&lt;/b&gt;&lt;br&gt;CalG4&lt;br&gt;Location: 90348 - 89143" locus_tag="AAM70365.1" class="clusterblast-orf" id="dummy-3_h3_9_0"  />
</g>
<g id="a3_001"  >
<polygon points="23,90 31,90 36,85 31,80 23,80 23,90 " style="fill:white; stroke-width:1; stroke:black; " description="&lt;b&gt;AAM94801.1&lt;/b&gt;&lt;br&gt;CalU22&lt;br&gt;Location: 88853 - 87351" locus_tag="AAM94801.1" class="clusterblast-orf" id="dummy-3_h3_9_1"  />
</g>
<g id="a3_002"  >
<polygon points="36,90 36,90 41,85 36,80 36,80 36,90 " style="fill:#d81597; stroke-width:1; stroke:black; " description="&lt;b&gt;AAM70363.1&lt;/b&gt;&lt;br&gt;CalU21&lt;br&gt;Location: 87271 - 86678&lt;br&gt;&lt;br&gt;&lt;b&gt;BlastP hit with HS041_15010&lt;/b&gt;&lt;br&gt;Percentage identity: 63&lt;br&gt;Percentage coverage: 94&lt;br&gt;BLAST bit score: 239&lt;br&gt;E-value: 5.6e-81" locus_tag="AAM70363.1" class="clusterblast-orf" id="dummy-3_h3_9_2"  />
</g>
<g id="a3_003"  >
<polygon points="41,90 41,90 46,85 41,80 41,80 41,90 " style="fill:white; stroke-width:1; stroke:black; " description="&lt;b&gt;AAM70362.1&lt;/b&gt;&lt;br&gt;CalU20&lt;br&gt;Location: 86669 - 86118" locus_tag="AAM70362.1" class="clusterblast-orf" id="dummy-3_h3_9_3"  />
</g>
<g id="a3_004"  >
<polygon points="47,90 48,90 53,85 48,80 47,80 47,90 " style="fill:white; stroke-width:1; stroke:black; " description="&lt;b&gt;AAM70361.1&lt;/b&gt;&lt;br&gt;CalU19&lt;br&gt;Location: 85998 - 85300" locus_tag="AAM70361.1" class="clusterblast-orf" id="dummy-3_h3_9_4"  />
</g>
<g id="a3_005"  >
<polygon points="54,85 59,80 63,80 63,90 59,90 54,85 " style="fill:white; stroke-width:1; stroke:black; " description="&lt;b&gt;AAM94800.1&lt;/b&gt;&lt;br&gt;CalE10&lt;br&gt;Location: 85229 - 84045" locus_tag="AAM94800.1" class="clusterblast-orf" id="dummy-3_h3_9_5"  />
</g>
<g id="a3_006"  >
<polygon points="65,85 70,80 77,80 77,90 70,90 65,85 " style="fill:white; stroke-width:1; stroke:black; " description="&lt;b&gt;AAM70359.1&lt;/b&gt;&lt;br&gt;CalS14&lt;br&gt;Location: 83886 - 82456" locus_tag="AAM70359.1" class="clusterblast-orf" id="dummy-3_h3_9_6"  />
</g>
<g id="a3_007"  >
<polygon points="77,85 80,80 80,90 77,85 " style="fill:white; stroke-width:1; stroke:black; " description="&lt;b&gt;AAM70358.1&lt;/b&gt;&lt;br&gt;CalU18&lt;br&gt;Location: 82371 - 82105" locus_tag="AAM70358.1" class="clusterblast-orf" id="dummy-3_h3_9_7"  />
</g>
<g id="a3_008"  >
<polygon points="80,85 85,80 88,80 88,90 85,90 80,85 " style="fill:white; stroke-width:1; stroke:black; " description="&lt;b&gt;AAM70357.1&lt;/b&gt;&lt;br&gt;CalU17&lt;br&gt;Location: 82102 - 81152" locus_tag="AAM70357.1" class="clusterblast-orf" id="dummy-3_h3_9_8"  />
</g>
<g id="a3_009"  >
<polygon points="88,85 93,80 97,80 97,90 93,90 88,85 " style="fill:white; stroke-width:1; stroke:black; " description="&lt;b&gt;AAM70356.1&lt;/b&gt;&lt;br&gt;CalO6&lt;br&gt;Location: 81147 - 80077" locus_tag="AAM70356.1" class="clusterblast-orf" id="dummy-3_h3_9_9"  />
</g>
<g id="a3_0010"  >
<polygon points="97,85 102,80 129,80 129,90 102,90 97,85 " style="fill:white; stroke-width:1; stroke:black; " description="&lt;b&gt;AAM70355.1&lt;/b&gt;&lt;br&gt;CalO5&lt;br&gt;Location: 80046 - 76231" locus_tag="AAM70355.1" class="clusterblast-orf" id="dummy-3_h3_9_10"  />
</g>
<g id="a3_0011"  >
<polygon points="129,85 134,80 138,80 138,90 134,90 129,85 " style="fill:white; stroke-width:1; stroke:black; " description="&lt;b&gt;AAM70354.1&lt;/b&gt;&lt;br&gt;CalO4&lt;br&gt;Location: 76186 - 75152" locus_tag="AAM70354.1" class="clusterblast-orf" id="dummy-3_h3_9_11"  />
</g>
<g id="a3_0012"  >
<polygon points="138,85 143,80 149,80 149,90 143,90 138,85 " style="fill:white; stroke-width:1; stroke:black; " description="&lt;b&gt;AAM70353.1&lt;/b&gt;&lt;br&gt;CalO3&lt;br&gt;Location: 75102 - 73840" locus_tag="AAM70353.1" class="clusterblast-orf" id="dummy-3_h3_9_12"  />
</g>
<g id="a3_0013"  >
<polygon points="149,85 154,80 159,80 159,90 154,90 149,85 " style="fill:white; stroke-width:1; stroke:black; " description="&lt;b&gt;AAM94799.1&lt;/b&gt;&lt;br&gt;CalO2&lt;br&gt;Location: 73799 - 72606" locus_tag="AAM94799.1" class="clusterblast-orf" id="dummy-3_h3_9_13"  />
</g>
<g id="a3_0014"  >
<polygon points="160,85 165,80 170,80 170,90 165,90 160,85 " style="fill:white; stroke-width:1; stroke:black; " description="&lt;b&gt;AAM94798.1&lt;/b&gt;&lt;br&gt;CalG3&lt;br&gt;Location: 72522 - 71392" locus_tag="AAM94798.1" class="clusterblast-orf" id="dummy-3_h3_9_14"  />
</g>
<g id="a3_0015"  >
<polygon points="170,85 175,80 179,80 179,90 175,90 170,85 " style="fill:#c3d815; stroke-width:1; stroke:black; " description="&lt;b&gt;AAM94797.1&lt;/b&gt;&lt;br&gt;CalS13&lt;br&gt;Location: 71351 - 70221&lt;br&gt;&lt;br&gt;&lt;b&gt;BlastP hit with HS041_15080&lt;/b&gt;&lt;br&gt;Percentage identity: 59&lt;br&gt;Percentage coverage: 102&lt;br&gt;BLAST bit score: 451&lt;br&gt;E-value: 4.85e-159" locus_tag="AAM94797.1" class="clusterblast-orf" id="dummy-3_h3_9_15"  />
</g>
<g id="a3_0016"  >
<polygon points="181,90 184,90 189,85 184,80 181,80 181,90 " style="fill:white; stroke-width:1; stroke:black; " description="&lt;b&gt;AAM70349.1&lt;/b&gt;&lt;br&gt;CalS12&lt;br&gt;Location: 70024 - 69032" locus_tag="AAM70349.1" class="clusterblast-orf" id="dummy-3_h3_9_16"  />
</g>
<g id="a3_0017"  >
<polygon points="190,90 195,90 200,85 195,80 190,80 190,90 " style="fill:white; stroke-width:1; stroke:black; " description="&lt;b&gt;AAM70348.1&lt;/b&gt;&lt;br&gt;CalG2&lt;br&gt;Location: 68981 - 67788" locus_tag="AAM70348.1" class="clusterblast-orf" id="dummy-3_h3_9_17"  />
</g>
<g id="a3_0018"  >
<polygon points="201,85 206,80 211,80 211,90 206,90 201,85 " style="fill:white; stroke-width:1; stroke:black; " description="&lt;b&gt;AAM70347.1&lt;/b&gt;&lt;br&gt;CalR9&lt;br&gt;Location: 67705 - 66458" locus_tag="AAM70347.1" class="clusterblast-orf" id="dummy-3_h3_9_18"  />
</g>
<g id="a3_0019"  >
<polygon points="211,85 216,80 225,80 225,90 216,90 211,85 " style="fill:white; stroke-width:1; stroke:black; " description="&lt;b&gt;AAM70346.1&lt;/b&gt;&lt;br&gt;CalT7&lt;br&gt;Location: 66461 - 64779" locus_tag="AAM70346.1" class="clusterblast-orf" id="dummy-3_h3_9_19"  />
</g>
<g id="a3_0020"  >
<polygon points="226,90 231,90 236,85 231,80 226,80 226,90 " style="fill:white; stroke-width:1; stroke:black; " description="&lt;b&gt;AAM70345.1&lt;/b&gt;&lt;br&gt;IS&lt;br&gt;Location: 64685 - 63477" locus_tag="AAM70345.1" class="clusterblast-orf" id="dummy-3_h3_9_20"  />
</g>
<g id="a3_0021"  >
<polygon points="236,85 241,80 247,80 247,90 241,90 236,85 " style="fill:white; stroke-width:1; stroke:black; " description="&lt;b&gt;AAM94796.1&lt;/b&gt;&lt;br&gt;CalE9&lt;br&gt;Location: 63463 - 62177" locus_tag="AAM94796.1" class="clusterblast-orf" id="dummy-3_h3_9_21"  />
</g>
<g id="a3_0022"  >
<polygon points="249,90 252,90 257,85 252,80 249,80 249,90 " style="fill:white; stroke-width:1; stroke:black; " description="&lt;b&gt;AAM70343.1&lt;/b&gt;&lt;br&gt;CalO1&lt;br&gt;Location: 61975 - 60938" locus_tag="AAM70343.1" class="clusterblast-orf" id="dummy-3_h3_9_22"  />
</g>
<g id="a3_0023"  >
<polygon points="257,90 267,90 272,85 267,80 257,80 257,90 " style="fill:white; stroke-width:1; stroke:black; " description="&lt;b&gt;AAM70342.1&lt;/b&gt;&lt;br&gt;CalT6&lt;br&gt;Location: 60914 - 59208" locus_tag="AAM70342.1" class="clusterblast-orf" id="dummy-3_h3_9_23"  />
</g>
<g id="a3_0024"  >
<polygon points="273,90 276,90 281,85 276,80 273,80 273,90 " style="fill:white; stroke-width:1; stroke:black; " description="&lt;b&gt;AAM70341.1&lt;/b&gt;&lt;br&gt;CalT5&lt;br&gt;Location: 59091 - 58105" locus_tag="AAM70341.1" class="clusterblast-orf" id="dummy-3_h3_9_24"  />
</g>
<g id="a3_0025"  >
<polygon points="281,90 283,90 288,85 283,80 281,80 281,90 " style="fill:white; stroke-width:1; stroke:black; " description="&lt;b&gt;AAM70340.1&lt;/b&gt;&lt;br&gt;CalT4&lt;br&gt;Location: 58108 - 57266" locus_tag="AAM70340.1" class="clusterblast-orf" id="dummy-3_h3_9_25"  />
</g>
<g id="a3_0026"  >
<polygon points="291,85 295,80 295,90 291,85 " style="fill:white; stroke-width:1; stroke:black; " description="&lt;b&gt;AAM70339.1&lt;/b&gt;&lt;br&gt;CalU16&lt;br&gt;Location: 56959 - 56411" locus_tag="AAM70339.1" class="clusterblast-orf" id="dummy-3_h3_9_26"  />
</g>
<g id="a3_0027"  >
<polygon points="295,85 300,80 300,80 300,90 300,90 295,85 " style="fill:white; stroke-width:1; stroke:black; " description="&lt;b&gt;AAM70338.1&lt;/b&gt;&lt;br&gt;CalC&lt;br&gt;Location: 56402 - 55857" locus_tag="AAM70338.1" class="clusterblast-orf" id="dummy-3_h3_9_27"  />
</g>
<g id="a3_0028"  >
<polygon points="301,85 306,80 308,80 308,90 306,90 301,85 " style="fill:white; stroke-width:1; stroke:black; " description="&lt;b&gt;AAM70337.1&lt;/b&gt;&lt;br&gt;CalS11&lt;br&gt;Location: 55677 - 54904" locus_tag="AAM70337.1" class="clusterblast-orf" id="dummy-3_h3_9_28"  />
</g>
<g id="a3_0029"  >
<polygon points="310,90 315,90 320,85 315,80 310,80 310,90 " style="fill:white; stroke-width:1; stroke:black; " description="&lt;b&gt;AAM70336.1&lt;/b&gt;&lt;br&gt;CalG1&lt;br&gt;Location: 54689 - 53511" locus_tag="AAM70336.1" class="clusterblast-orf" id="dummy-3_h3_9_29"  />
</g>
<g id="a3_0030"  >
<polygon points="320,85 323,80 323,90 320,85 " style="fill:white; stroke-width:1; stroke:black; " description="&lt;b&gt;AAM70335.1&lt;/b&gt;&lt;br&gt;CalR8&lt;br&gt;Location: 53453 - 53061" locus_tag="AAM70335.1" class="clusterblast-orf" id="dummy-3_h3_9_30"  />
</g>
<g id="a3_0031"  >
<polygon points="324,90 325,90 330,85 325,80 324,80 324,90 " style="fill:#d8156c; stroke-width:1; stroke:black; " description="&lt;b&gt;AAM70334.1&lt;/b&gt;&lt;br&gt;CalS10&lt;br&gt;Location: 52950 - 52213&lt;br&gt;&lt;br&gt;&lt;b&gt;BlastP hit with HS041_15075&lt;/b&gt;&lt;br&gt;Percentage identity: 47&lt;br&gt;Percentage coverage: 91&lt;br&gt;BLAST bit score: 221&lt;br&gt;E-value: 4.81e-72" locus_tag="AAM70334.1" class="clusterblast-orf" id="dummy-3_h3_9_31"  />
</g>
<g id="a3_0032"  >
<polygon points="332,85 337,80 341,80 341,90 337,90 332,85 " style="fill:#97d815; stroke-width:1; stroke:black; " description="&lt;b&gt;AAM70333.1&lt;/b&gt;&lt;br&gt;CalS9&lt;br&gt;Location: 51993 - 51004&lt;br&gt;&lt;br&gt;&lt;b&gt;BlastP hit with HS041_15180&lt;/b&gt;&lt;br&gt;Percentage identity: 53&lt;br&gt;Percentage coverage: 100&lt;br&gt;BLAST bit score: 331&lt;br&gt;E-value: 4.29e-113" locus_tag="AAM70333.1" class="clusterblast-orf" id="dummy-3_h3_9_32"  />
</g>
<g id="a3_0033"  >
<polygon points="341,85 346,80 352,80 352,90 346,90 341,85 " style="fill:white; stroke-width:1; stroke:black; " description="&lt;b&gt;AAM70332.1&lt;/b&gt;&lt;br&gt;CalS8&lt;br&gt;Location: 50997 - 49636" locus_tag="AAM70332.1" class="clusterblast-orf" id="dummy-3_h3_9_33"  />
</g>
<g id="a3_0034"  >
<polygon points="353,85 358,80 360,80 360,90 358,90 353,85 " style="fill:white; stroke-width:1; stroke:black; " description="&lt;b&gt;AAM70331.1&lt;/b&gt;&lt;br&gt;CalR7&lt;br&gt;Location: 49559 - 48717" locus_tag="AAM70331.1" class="clusterblast-orf" id="dummy-3_h3_9_34"  />
</g>
<g id="a3_0035"  >
<polygon points="362,90 365,90 370,85 365,80 362,80 362,90 " style="fill:#15c3d8; stroke-width:1; stroke:black; " description="&lt;b&gt;AAM70330.1&lt;/b&gt;&lt;br&gt;CalU15&lt;br&gt;Location: 48416 - 47448&lt;br&gt;&lt;br&gt;&lt;b&gt;BlastP hit with HS041_14900&lt;/b&gt;&lt;br&gt;Percentage identity: 50&lt;br&gt;Percentage coverage: 99&lt;br&gt;BLAST bit score: 313&lt;br&gt;E-value: 4.47e-106" locus_tag="AAM70330.1" class="clusterblast-orf" id="dummy-3_h3_9_35"  />
</g>
<g id="a3_0036"  >
<polygon points="371,90 382,90 387,85 382,80 371,80 371,90 " style="fill:#9715d8; stroke-width:1; stroke:black; " description="&lt;b&gt;AAM70329.1&lt;/b&gt;&lt;br&gt;CalU14&lt;br&gt;Location: 47426 - 45471&lt;br&gt;&lt;br&gt;&lt;b&gt;BlastP hit with HS041_14905&lt;/b&gt;&lt;br&gt;Percentage identity: 61&lt;br&gt;Percentage coverage: 99&lt;br&gt;BLAST bit score: 789&lt;br&gt;E-value: 3.04e-283" locus_tag="AAM70329.1" class="clusterblast-orf" id="dummy-3_h3_9_36"  />
</g>
<g id="a3_0037"  >
<polygon points="387,90 390,90 395,85 390,80 387,80 387,90 " style="fill:#d84115; stroke-width:1; stroke:black; " description="&lt;b&gt;AAM94795.1&lt;/b&gt;&lt;br&gt;CalT3&lt;br&gt;Location: 45474 - 44509&lt;br&gt;&lt;br&gt;&lt;b&gt;BlastP hit with HS041_14910&lt;/b&gt;&lt;br&gt;Percentage identity: 67&lt;br&gt;Percentage coverage: 100&lt;br&gt;BLAST bit score: 432&lt;br&gt;E-value: 6.81e-153" locus_tag="AAM94795.1" class="clusterblast-orf" id="dummy-3_h3_9_37"  />
</g>
<g id="a3_0038"  >
<polygon points="395,90 438,90 443,85 438,80 395,80 395,90 " style="fill:#41d815; stroke-width:1; stroke:black; " description="&lt;b&gt;AAM94794.1&lt;/b&gt;&lt;br&gt;CalE8&lt;br&gt;Location: 44512 - 38753&lt;br&gt;&lt;br&gt;&lt;b&gt;BlastP hit with HS041_14915&lt;/b&gt;&lt;br&gt;Percentage identity: 58&lt;br&gt;Percentage coverage: 101&lt;br&gt;BLAST bit score: 2041&lt;br&gt;E-value: 0.0" locus_tag="AAM94794.1" class="clusterblast-orf" id="dummy-3_h3_9_38"  />
</g>
<g id="a3_0039"  >
<polygon points="443,90 447,85 443,80 443,90 " style="fill:#1597d8; stroke-width:1; stroke:black; " description="&lt;b&gt;AAM94793.1&lt;/b&gt;&lt;br&gt;CalE7&lt;br&gt;Location: 38756 - 38310&lt;br&gt;&lt;br&gt;&lt;b&gt;BlastP hit with HS041_14920&lt;/b&gt;&lt;br&gt;Percentage identity: 70&lt;br&gt;Percentage coverage: 100&lt;br&gt;BLAST bit score: 210&lt;br&gt;E-value: 6.71e-71" locus_tag="AAM94793.1" class="clusterblast-orf" id="dummy-3_h3_9_39"  />
</g>
<g id="a3_0040"  >
<polygon points="447,90 452,90 457,85 452,80 447,80 447,90 " style="fill:white; stroke-width:1; stroke:black; " description="&lt;b&gt;AAM94792.1&lt;/b&gt;&lt;br&gt;CalE6&lt;br&gt;Location: 38313 - 37168" locus_tag="AAM94792.1" class="clusterblast-orf" id="dummy-3_h3_9_40"  />
</g>
<g id="a3_0041"  >
<polygon points="457,90 458,90 463,85 458,80 457,80 457,90 " style="fill:white; stroke-width:1; stroke:black; " description="&lt;b&gt;AAM94791.1&lt;/b&gt;&lt;br&gt;CalU13&lt;br&gt;Location: 37111 - 36452" locus_tag="AAM94791.1" class="clusterblast-orf" id="dummy-3_h3_9_41"  />
</g>
<g id="a3_0042"  >
<polygon points="463,85 468,80 469,80 469,90 468,90 463,85 " style="fill:white; stroke-width:1; stroke:black; " description="&lt;b&gt;AAM94790.1&lt;/b&gt;&lt;br&gt;CalU12&lt;br&gt;Location: 36411 - 35749" locus_tag="AAM94790.1" class="clusterblast-orf" id="dummy-3_h3_9_42"  />
</g>
<g id="a3_0043"  >
<polygon points="470,90 472,90 477,85 472,80 470,80 470,90 " style="fill:white; stroke-width:1; stroke:black; " description="&lt;b&gt;AAM94789.1&lt;/b&gt;&lt;br&gt;CalS7&lt;br&gt;Location: 35580 - 34687" locus_tag="AAM94789.1" class="clusterblast-orf" id="dummy-3_h3_9_43"  />
</g>
<g id="a3_0044"  >
<polygon points="479,90 481,90 486,85 481,80 479,80 479,90 " style="fill:white; stroke-width:1; stroke:black; " description="&lt;b&gt;AAM94788.1&lt;/b&gt;&lt;br&gt;CalE5&lt;br&gt;Location: 34553 - 33669" locus_tag="AAM94788.1" class="clusterblast-orf" id="dummy-3_h3_9_44"  />
</g>
<g id="a3_0045"  >
<polygon points="486,90 488,90 493,85 488,80 486,80 486,90 " style="fill:white; stroke-width:1; stroke:black; " description="&lt;b&gt;AAM94787.1&lt;/b&gt;&lt;br&gt;CalU11&lt;br&gt;Location: 33672 - 32854" locus_tag="AAM94787.1" class="clusterblast-orf" id="dummy-3_h3_9_45"  />
</g>
<g id="a3_0046"  >
<polygon points="493,90 498,90 503,85 498,80 493,80 493,90 " style="fill:white; stroke-width:1; stroke:black; " description="&lt;b&gt;AAM94786.1&lt;/b&gt;&lt;br&gt;CalE4&lt;br&gt;Location: 32797 - 31589" locus_tag="AAM94786.1" class="clusterblast-orf" id="dummy-3_h3_9_46"  />
</g>
<g id="a3_0047"  >
<polygon points="503,90 511,90 516,85 511,80 503,80 503,90 " style="fill:white; stroke-width:1; stroke:black; " description="&lt;b&gt;AAM94785.1&lt;/b&gt;&lt;br&gt;CalR6&lt;br&gt;Location: 31592 - 30069" locus_tag="AAM94785.1" class="clusterblast-orf" id="dummy-3_h3_9_47"  />
</g>
<g id="a3_0048"  >
<polygon points="516,90 523,90 528,85 523,80 516,80 516,90 " style="fill:white; stroke-width:1; stroke:black; " description="&lt;b&gt;AAM94784.1&lt;/b&gt;&lt;br&gt;CalR5&lt;br&gt;Location: 30072 - 28696" locus_tag="AAM94784.1" class="clusterblast-orf" id="dummy-3_h3_9_48"  />
</g>
<g id="a3_0049"  >
<polygon points="531,90 536,90 541,85 536,80 531,80 531,90 " style="fill:white; stroke-width:1; stroke:black; " description="&lt;b&gt;AAM94783.1&lt;/b&gt;&lt;br&gt;CalU10&lt;br&gt;Location: 28304 - 27102" locus_tag="AAM94783.1" class="clusterblast-orf" id="dummy-3_h3_9_49"  />
</g>
<g id="a3_0050"  >
<polygon points="543,90 558,90 563,85 558,80 543,80 543,90 " style="fill:white; stroke-width:1; stroke:black; " description="&lt;b&gt;AAM94782.1&lt;/b&gt;&lt;br&gt;CalR4&lt;br&gt;Location: 26896 - 24503" locus_tag="AAM94782.1" class="clusterblast-orf" id="dummy-3_h3_9_50"  />
</g>
<g id="a3_0051"  >
<polygon points="563,90 571,90 576,85 571,80 563,80 563,90 " style="fill:white; stroke-width:1; stroke:black; " description="&lt;b&gt;AAM94781.1&lt;/b&gt;&lt;br&gt;CalT2&lt;br&gt;Location: 24506 - 22968" locus_tag="AAM94781.1" class="clusterblast-orf" id="dummy-3_h3_9_51"  />
</g>
<g id="a3_0052"  >
<polygon points="577,85 582,80 589,80 589,90 582,90 577,85 " style="fill:white; stroke-width:1; stroke:black; " description="&lt;b&gt;AAM94780.1&lt;/b&gt;&lt;br&gt;CalR3&lt;br&gt;Location: 22826 - 21423" locus_tag="AAM94780.1" class="clusterblast-orf" id="dummy-3_h3_9_52"  />
</g>
<g id="a3_0053"  >
<polygon points="589,85 594,80 594,80 594,90 594,90 589,85 " style="fill:white; stroke-width:1; stroke:black; " description="&lt;b&gt;AAM94779.1&lt;/b&gt;&lt;br&gt;CalU9&lt;br&gt;Location: 21426 - 20791" locus_tag="AAM94779.1" class="clusterblast-orf" id="dummy-3_h3_9_53"  />
</g>
<g id="a3_0054"  >
<polygon points="594,85 599,80 601,80 601,90 599,90 594,85 " style="fill:white; stroke-width:1; stroke:black; " description="&lt;b&gt;AAM94778.1&lt;/b&gt;&lt;br&gt;CalE3&lt;br&gt;Location: 20794 - 19901" locus_tag="AAM94778.1" class="clusterblast-orf" id="dummy-3_h3_9_54"  />
</g>
<g id="a3_0055"  >
<polygon points="602,85 607,80 618,80 618,90 607,90 602,85 " style="fill:white; stroke-width:1; stroke:black; " description="&lt;b&gt;AAM94777.1&lt;/b&gt;&lt;br&gt;CalR2&lt;br&gt;Location: 19825 - 17960" locus_tag="AAM94777.1" class="clusterblast-orf" id="dummy-3_h3_9_55"  />
</g>
<g id="a3_0056"  >
<polygon points="620,90 622,90 627,85 622,80 620,80 620,90 " style="fill:white; stroke-width:1; stroke:black; " description="&lt;b&gt;AAM94776.1&lt;/b&gt;&lt;br&gt;CalS6&lt;br&gt;Location: 17672 - 16890" locus_tag="AAM94776.1" class="clusterblast-orf" id="dummy-3_h3_9_56"  />
</g>
<g id="a3_0057"  >
<polygon points="626,85 631,80 632,80 632,90 631,90 626,85 " style="fill:white; stroke-width:1; stroke:black; " description="&lt;b&gt;AAM94775.1&lt;/b&gt;&lt;br&gt;CalU8&lt;br&gt;Location: 16962 - 16249" locus_tag="AAM94775.1" class="clusterblast-orf" id="dummy-3_h3_9_57"  />
</g>
<g id="a3_0058"  >
<polygon points="633,90 637,90 642,85 637,80 633,80 633,90 " style="fill:white; stroke-width:1; stroke:black; " description="&lt;b&gt;AAM94774.1&lt;/b&gt;&lt;br&gt;CalS5&lt;br&gt;Location: 16092 - 15028" locus_tag="AAM94774.1" class="clusterblast-orf" id="dummy-3_h3_9_58"  />
</g>
<g id="a3_0059"  >
<polygon points="642,85 647,80 650,80 650,90 647,90 642,85 " style="fill:white; stroke-width:1; stroke:black; " description="&lt;b&gt;AAM94773.1&lt;/b&gt;&lt;br&gt;CalE2&lt;br&gt;Location: 15017 - 14103" locus_tag="AAM94773.1" class="clusterblast-orf" id="dummy-3_h3_9_59"  />
</g>
<g id="a3_0060"  >
<polygon points="652,85 657,80 661,80 661,90 657,90 652,85 " style="fill:white; stroke-width:1; stroke:black; " description="&lt;b&gt;AAM94772.1&lt;/b&gt;&lt;br&gt;CalS4&lt;br&gt;Location: 13918 - 12764" locus_tag="AAM94772.1" class="clusterblast-orf" id="dummy-3_h3_9_60"  />
</g>
<g id="a3_0061"  >
<polygon points="664,90 666,85 664,80 664,90 " style="fill:white; stroke-width:1; stroke:black; " description="&lt;b&gt;AAM94771.1&lt;/b&gt;&lt;br&gt;CalU7&lt;br&gt;Location: 12490 - 12161" locus_tag="AAM94771.1" class="clusterblast-orf" id="dummy-3_h3_9_61"  />
</g>
<g id="a3_0062"  >
<polygon points="667,85 672,80 675,80 675,90 672,90 667,85 " style="fill:white; stroke-width:1; stroke:black; " description="&lt;b&gt;AAM94770.1&lt;/b&gt;&lt;br&gt;CalS3&lt;br&gt;Location: 12109 - 11078" locus_tag="AAM94770.1" class="clusterblast-orf" id="dummy-3_h3_9_62"  />
</g>
<g id="a3_0063"  >
<polygon points="675,85 680,80 683,80 683,90 680,90 675,85 " style="fill:white; stroke-width:1; stroke:black; " description="&lt;b&gt;AAM94769.1&lt;/b&gt;&lt;br&gt;CalS2&lt;br&gt;Location: 11081 - 10158" locus_tag="AAM94769.1" class="clusterblast-orf" id="dummy-3_h3_9_63"  />
</g>
<g id="a3_0064"  >
<polygon points="685,90 689,85 685,80 685,90 " style="fill:white; stroke-width:1; stroke:black; " description="&lt;b&gt;AAM94768.1&lt;/b&gt;&lt;br&gt;CalS1&lt;br&gt;Location: 9987 - 9415" locus_tag="AAM94768.1" class="clusterblast-orf" id="dummy-3_h3_9_64"  />
</g>
<g id="a3_0065"  >
<polygon points="690,85 695,80 698,80 698,90 695,90 690,85 " style="fill:#d81515; stroke-width:1; stroke:black; " description="&lt;b&gt;AAM94767.1&lt;/b&gt;&lt;br&gt;CalU6&lt;br&gt;Location: 9382 - 8447&lt;br&gt;&lt;br&gt;&lt;b&gt;BlastP hit with HS041_14890&lt;/b&gt;&lt;br&gt;Percentage identity: 52&lt;br&gt;Percentage coverage: 101&lt;br&gt;BLAST bit score: 267&lt;br&gt;E-value: 1.11e-88" locus_tag="AAM94767.1" class="clusterblast-orf" id="dummy-3_h3_9_65"  />
</g>
<g id="a3_0066"  >
<polygon points="699,90 699,90 704,85 699,80 699,80 699,90 " style="fill:white; stroke-width:1; stroke:black; " description="&lt;b&gt;AAM94766.1&lt;/b&gt;&lt;br&gt;CalR1&lt;br&gt;Location: 8285 - 7665" locus_tag="AAM94766.1" class="clusterblast-orf" id="dummy-3_h3_9_66"  />
</g>
<g id="a3_0067"  >
<polygon points="705,90 713,90 718,85 713,80 705,80 705,90 " style="fill:white; stroke-width:1; stroke:black; " description="&lt;b&gt;AAM94765.1&lt;/b&gt;&lt;br&gt;CalT1&lt;br&gt;Location: 7595 - 6006" locus_tag="AAM94765.1" class="clusterblast-orf" id="dummy-3_h3_9_67"  />
</g>
<g id="a3_0068"  >
<polygon points="719,85 724,80 726,80 726,90 724,90 719,85 " style="fill:white; stroke-width:1; stroke:black; " description="&lt;b&gt;AAM94764.1&lt;/b&gt;&lt;br&gt;CalU5&lt;br&gt;Location: 5941 - 5045" locus_tag="AAM94764.1" class="clusterblast-orf" id="dummy-3_h3_9_68"  />
</g>
<g id="a3_0069"  >
<polygon points="726,85 731,80 737,80 737,90 731,90 726,85 " style="fill:white; stroke-width:1; stroke:black; " description="&lt;b&gt;AAM94763.1&lt;/b&gt;&lt;br&gt;CalE1&lt;br&gt;Location: 5048 - 3723" locus_tag="AAM94763.1" class="clusterblast-orf" id="dummy-3_h3_9_69"  />
</g>
<g id="a3_0070"  >
<polygon points="737,85 742,80 744,80 744,90 742,90 737,85 " style="fill:white; stroke-width:1; stroke:black; " description="&lt;b&gt;AAM94762.1&lt;/b&gt;&lt;br&gt;CalU4&lt;br&gt;Location: 3726 - 2932" locus_tag="AAM94762.1" class="clusterblast-orf" id="dummy-3_h3_9_70"  />
</g>
<g id="a3_0071"  >
<polygon points="744,85 749,80 753,80 753,90 749,90 744,85 " style="fill:white; stroke-width:1; stroke:black; " description="&lt;b&gt;AAM94761.1&lt;/b&gt;&lt;br&gt;CalU3&lt;br&gt;Location: 2935 - 1874" locus_tag="AAM94761.1" class="clusterblast-orf" id="dummy-3_h3_9_71"  />
</g>
<g id="a3_0072"  >
<polygon points="753,85 758,80 761,80 761,90 758,90 753,85 " style="fill:white; stroke-width:1; stroke:black; " description="&lt;b&gt;AAM94760.1&lt;/b&gt;&lt;br&gt;CalU2&lt;br&gt;Location: 1827 - 880" locus_tag="AAM94760.1" class="clusterblast-orf" id="dummy-3_h3_9_72"  />
</g>
<g id="a3_0073"  >
<polygon points="761,85 766,80 768,80 768,90 766,90 761,85 " style="fill:white; stroke-width:1; stroke:black; " description="&lt;b&gt;AAM94759.1&lt;/b&gt;&lt;br&gt;CalU1&lt;br&gt;Location: 873 - 1" locus_tag="AAM94759.1" class="clusterblast-orf" id="dummy-3_h3_9_73"  />
</g>
</svg>
