<svg xmlns="http://www.w3.org/2000/svg" xmlns:xlink="http://www.w3.org/1999/xlink" version="1.1" x="0" y="0" height="230" width="800" viewBox="0 0 800 230" preserveAspectRatio="none"  >
<g label="Query sequence" class="clusterblast-cluster"  >
<text x="5" y="20" class="clusterblast-acc"  >
Query sequence</text>
<line x1="10" y1="35" x2="778.0" y2="35" style="stroke-width:1; stroke:grey; "  />
<polygon points="0,35 5,30 6,30 6,40 5,40 0,35 " style="fill:white; stroke-width:1; stroke:black; " description="&lt;b&gt;HS041_14845&lt;/b&gt;&lt;br&gt;hypothetical protein&lt;br&gt;Location: 480361 - 481108" locus_tag="HS041_14845" class="clusterblast-orf" id="dummy-3_q0_0_all"  />
<polygon points="7,35 12,30 12,30 12,40 12,40 7,35 " style="fill:white; stroke-width:1; stroke:black; " description="&lt;b&gt;HS041_14850&lt;/b&gt;&lt;br&gt;disulfide bond formation protein DsbA&lt;br&gt;Location: 481209 - 481833" locus_tag="HS041_14850" class="clusterblast-orf" id="dummy-3_q1_0_all"  />
<polygon points="13,35 17,30 17,40 13,35 " style="fill:white; stroke-width:1; stroke:black; " description="&lt;b&gt;HS041_14855&lt;/b&gt;&lt;br&gt;O-acetyl-ADP-ribose deacetylase&lt;br&gt;Location: 481940 - 482462" locus_tag="HS041_14855" class="clusterblast-orf" id="dummy-3_q2_0_all"  />
<polygon points="18,35 23,30 30,30 30,40 23,40 18,35 " style="fill:white; stroke-width:1; stroke:black; " description="&lt;b&gt;HS041_14860&lt;/b&gt;&lt;br&gt;aminopeptidase&lt;br&gt;Location: 482615 - 484037" locus_tag="HS041_14860" class="clusterblast-orf" id="dummy-3_q3_0_all"  />
<polygon points="33,35 38,30 59,30 59,40 38,40 33,35 " style="fill:white; stroke-width:1; stroke:black; " description="&lt;b&gt;HS041_14865&lt;/b&gt;&lt;br&gt;tetratricopeptide repeat protein&lt;br&gt;Location: 484325 - 487460" locus_tag="HS041_14865" class="clusterblast-orf" id="dummy-3_q4_0_all"  />
<polygon points="63,35 64,30 64,40 63,35 " style="fill:white; stroke-width:1; stroke:black; " description="&lt;b&gt;HS041_14870&lt;/b&gt;&lt;br&gt;hypothetical protein&lt;br&gt;Location: 487890 - 488073" locus_tag="HS041_14870" class="clusterblast-orf" id="dummy-3_q5_0_all"  />
<polygon points="67,40 70,35 67,30 67,40 " style="fill:white; stroke-width:1; stroke:black; " description="&lt;b&gt;HS041_14875&lt;/b&gt;&lt;br&gt;hydroxyisourate hydrolase&lt;br&gt;Location: 488456 - 488795" locus_tag="HS041_14875" class="clusterblast-orf" id="dummy-3_q6_0_all"  />
<polygon points="71,40 80,40 85,35 80,30 71,30 71,40 " style="fill:white; stroke-width:1; stroke:black; " description="&lt;b&gt;HS041_14880&lt;/b&gt;&lt;br&gt;2-isopropylmalate synthase&lt;br&gt;Location: 488826 - 490563" locus_tag="HS041_14880" class="clusterblast-orf" id="dummy-3_q7_0_all"  />
<polygon points="87,40 105,40 110,35 105,30 87,30 87,40 " style="fill:white; stroke-width:1; stroke:black; " description="&lt;b&gt;HS041_14885&lt;/b&gt;&lt;br&gt;AAA family ATPase&lt;br&gt;Location: 490739 - 493505" locus_tag="HS041_14885" class="clusterblast-orf" id="dummy-3_q8_0_all"  />
<polygon points="112,40 115,40 120,35 115,30 112,30 112,40 " style="fill:#d81515; stroke-width:1; stroke:black; " description="&lt;b&gt;HS041_14890&lt;/b&gt;&lt;br&gt;hypothetical protein&lt;br&gt;Location: 493822 - 494686" locus_tag="HS041_14890" class="clusterblast-orf" id="dummy-3_q9_0_all"  />
<polygon points="120,40 124,40 129,35 124,30 120,30 120,40 " style="fill:#6cd815; stroke-width:1; stroke:black; " description="&lt;b&gt;HS041_14895&lt;/b&gt;&lt;br&gt;DUF1702 family protein&lt;br&gt;Location: 494767 - 495763" locus_tag="HS041_14895" class="clusterblast-orf" id="dummy-3_q10_0_all"  />
<polygon points="130,40 133,40 138,35 133,30 130,30 130,40 " style="fill:#15c3d8; stroke-width:1; stroke:black; " description="&lt;b&gt;HS041_14900&lt;/b&gt;&lt;br&gt;DUF1702 family protein&lt;br&gt;Location: 495938 - 496919" locus_tag="HS041_14900" class="clusterblast-orf" id="dummy-3_q11_0_all"  />
<polygon points="138,40 150,40 155,35 150,30 138,30 138,40 " style="fill:#9715d8; stroke-width:1; stroke:black; " description="&lt;b&gt;HS041_14905&lt;/b&gt;&lt;br&gt;CRTAC1 family protein&lt;br&gt;Location: 496915 - 498892" locus_tag="HS041_14905" class="clusterblast-orf" id="dummy-3_q12_0_all"  />
<polygon points="155,40 158,40 163,35 158,30 155,30 155,40 " style="fill:#d84115; stroke-width:1; stroke:black; " description="&lt;b&gt;HS041_14910&lt;/b&gt;&lt;br&gt;enediyne biosynthesis protein&lt;br&gt;Location: 498896 - 499868" locus_tag="HS041_14910" class="clusterblast-orf" id="dummy-3_q13_0_all"  />
<polygon points="163,40 207,40 212,35 207,30 163,30 163,40 " style="fill:#41d815; stroke-width:1; stroke:black; " description="&lt;b&gt;HS041_14915&lt;/b&gt;&lt;br&gt;SDR family NAD(P)-dependent oxidoreductase&lt;br&gt;Location: 499864 - 505648" locus_tag="HS041_14915" class="clusterblast-orf" id="dummy-3_q14_0_all"  />
<polygon points="212,40 215,35 212,30 212,40 " style="fill:#1597d8; stroke-width:1; stroke:black; " description="&lt;b&gt;HS041_14920&lt;/b&gt;&lt;br&gt;acyl-CoA thioesterase&lt;br&gt;Location: 505651 - 506080" locus_tag="HS041_14920" class="clusterblast-orf" id="dummy-3_q15_0_all"  />
<polygon points="215,40 215,40 220,35 215,30 215,30 215,40 " style="fill:#c315d8; stroke-width:1; stroke:black; " description="&lt;b&gt;HS041_14925&lt;/b&gt;&lt;br&gt;flavin reductase family protein&lt;br&gt;Location: 506101 - 506641" locus_tag="HS041_14925" class="clusterblast-orf" id="dummy-3_q16_0_all"  />
<polygon points="221,40 227,40 232,35 227,30 221,30 221,40 " style="fill:#d86c15; stroke-width:1; stroke:black; " description="&lt;b&gt;HS041_14930&lt;/b&gt;&lt;br&gt;cytochrome P450&lt;br&gt;Location: 506703 - 508032" locus_tag="HS041_14930" class="clusterblast-orf" id="dummy-3_q17_0_all"  />
<polygon points="232,35 237,30 239,30 239,40 237,40 232,35 " style="fill:#15d815; stroke-width:1; stroke:black; " description="&lt;b&gt;HS041_14935&lt;/b&gt;&lt;br&gt;helix-turn-helix transcriptional regulator&lt;br&gt;Location: 508116 - 508884" locus_tag="HS041_14935" class="clusterblast-orf" id="dummy-3_q18_0_all"  />
<polygon points="241,35 246,30 248,30 248,40 246,40 241,35 " style="fill:white; stroke-width:1; stroke:black; " description="&lt;b&gt;HS041_14940&lt;/b&gt;&lt;br&gt;metallophosphoesterase&lt;br&gt;Location: 509157 - 509979" locus_tag="HS041_14940" class="clusterblast-orf" id="dummy-3_q19_0_all"  />
<polygon points="250,40 250,40 255,35 250,30 250,30 250,40 " style="fill:white; stroke-width:1; stroke:black; " description="&lt;b&gt;HS041_14945&lt;/b&gt;&lt;br&gt;SigE family RNA polymerase sigma factor&lt;br&gt;Location: 510239 - 510818" locus_tag="HS041_14945" class="clusterblast-orf" id="dummy-3_q20_0_all"  />
<polygon points="255,40 255,40 260,35 255,30 255,30 255,40 " style="fill:#156cd8; stroke-width:1; stroke:black; " description="&lt;b&gt;HS041_14950&lt;/b&gt;&lt;br&gt;regulator&lt;br&gt;Location: 510817 - 511384" locus_tag="HS041_14950" class="clusterblast-orf" id="dummy-3_q21_0_all"  />
<polygon points="260,40 269,40 274,35 269,30 260,30 260,40 " style="fill:#d815c3; stroke-width:1; stroke:black; " description="&lt;b&gt;HS041_14955&lt;/b&gt;&lt;br&gt;GMC family oxidoreductase&lt;br&gt;Location: 511380 - 513030" locus_tag="HS041_14955" class="clusterblast-orf" id="dummy-3_q22_0_all"  />
<polygon points="274,40 278,40 283,35 278,30 274,30 274,40 " style="fill:#d89715; stroke-width:1; stroke:black; " description="&lt;b&gt;HS041_14960&lt;/b&gt;&lt;br&gt;carboxymuconolactone decarboxylase family protein&lt;br&gt;Location: 513056 - 514106" locus_tag="HS041_14960" class="clusterblast-orf" id="dummy-3_q23_0_all"  />
<polygon points="283,40 285,40 290,35 285,30 283,30 283,40 " style="fill:#15d841; stroke-width:1; stroke:black; " description="&lt;b&gt;HS041_14965&lt;/b&gt;&lt;br&gt;TIGR03084 family protein&lt;br&gt;Location: 514159 - 514963" locus_tag="HS041_14965" class="clusterblast-orf" id="dummy-3_q24_0_all"  />
<polygon points="292,40 295,40 300,35 295,30 292,30 292,40 " style="fill:white; stroke-width:1; stroke:black; " description="&lt;b&gt;HS041_14970&lt;/b&gt;&lt;br&gt;hypothetical protein&lt;br&gt;Location: 515180 - 516203" locus_tag="HS041_14970" class="clusterblast-orf" id="dummy-3_q25_0_all"  />
<polygon points="302,40 305,40 310,35 305,30 302,30 302,40 " style="fill:white; stroke-width:1; stroke:black; " description="&lt;b&gt;HS041_14975&lt;/b&gt;&lt;br&gt;helix-turn-helix transcriptional regulator&lt;br&gt;Location: 516462 - 517362" locus_tag="HS041_14975" class="clusterblast-orf" id="dummy-3_q26_0_all"  />
<polygon points="315,35 317,30 317,40 315,35 " style="fill:white; stroke-width:1; stroke:black; " description="&lt;b&gt;HS041_14980&lt;/b&gt;&lt;br&gt;hypothetical protein&lt;br&gt;Location: 517936 - 518215" locus_tag="HS041_14980" class="clusterblast-orf" id="dummy-3_q27_0_all"  />
<polygon points="320,40 329,40 334,35 329,30 320,30 320,40 " style="fill:#1541d8; stroke-width:1; stroke:black; " description="&lt;b&gt;HS041_14985&lt;/b&gt;&lt;br&gt;acyl-CoA carboxylase subunit beta&lt;br&gt;Location: 518597 - 520223" locus_tag="HS041_14985" class="clusterblast-orf" id="dummy-3_q28_0_all"  />
<polygon points="337,40 339,35 337,30 337,40 " style="fill:white; stroke-width:1; stroke:black; " description="&lt;b&gt;HS041_14990&lt;/b&gt;&lt;br&gt;hypothetical protein&lt;br&gt;Location: 520566 - 520836" locus_tag="HS041_14990" class="clusterblast-orf" id="dummy-3_q29_0_all"  />
<polygon points="339,40 341,40 346,35 341,30 339,30 339,40 " style="fill:white; stroke-width:1; stroke:black; " description="&lt;b&gt;HS041_14995&lt;/b&gt;&lt;br&gt;4'-phosphopantetheinyl transferase superfamily protein&lt;br&gt;Location: 520860 - 521619" locus_tag="HS041_14995" class="clusterblast-orf" id="dummy-3_q30_0_all"  />
<polygon points="346,40 348,40 353,35 348,30 346,30 346,40 " style="fill:white; stroke-width:1; stroke:black; " description="&lt;b&gt;HS041_15000&lt;/b&gt;&lt;br&gt;alpha/beta hydrolase&lt;br&gt;Location: 521715 - 522441" locus_tag="HS041_15000" class="clusterblast-orf" id="dummy-3_q31_0_all"  />
<polygon points="353,35 357,30 357,40 353,35 " style="fill:white; stroke-width:1; stroke:black; " description="&lt;b&gt;HS041_15005&lt;/b&gt;&lt;br&gt;hypothetical protein&lt;br&gt;Location: 522501 - 523002" locus_tag="HS041_15005" class="clusterblast-orf" id="dummy-3_q32_0_all"  />
<polygon points="357,35 362,30 362,30 362,40 362,40 357,35 " style="fill:#d81597; stroke-width:1; stroke:black; " description="&lt;b&gt;HS041_15010&lt;/b&gt;&lt;br&gt;hypothetical protein&lt;br&gt;Location: 522995 - 523562" locus_tag="HS041_15010" class="clusterblast-orf" id="dummy-3_q33_0_all"  />
<polygon points="364,40 368,40 373,35 368,30 364,30 364,40 " style="fill:white; stroke-width:1; stroke:black; " description="&lt;b&gt;HS041_15015&lt;/b&gt;&lt;br&gt;alpha/beta hydrolase&lt;br&gt;Location: 523859 - 524906" locus_tag="HS041_15015" class="clusterblast-orf" id="dummy-3_q34_0_all"  />
<polygon points="375,40 381,40 386,35 381,30 375,30 375,40 " style="fill:white; stroke-width:1; stroke:black; " description="&lt;b&gt;HS041_15020&lt;/b&gt;&lt;br&gt;FAD-binding oxidoreductase&lt;br&gt;Location: 525072 - 526437" locus_tag="HS041_15020" class="clusterblast-orf" id="dummy-3_q35_0_all"  />
<polygon points="387,35 392,30 403,30 403,40 392,40 387,35 " style="fill:white; stroke-width:1; stroke:black; " description="&lt;b&gt;HS041_15025&lt;/b&gt;&lt;br&gt;asparagine synthase (glutamine-hydrolyzing)&lt;br&gt;Location: 526572 - 528420" locus_tag="HS041_15025" class="clusterblast-orf" id="dummy-3_q36_0_all"  />
<polygon points="403,35 408,30 413,30 413,40 408,40 403,35 " style="fill:white; stroke-width:1; stroke:black; " description="&lt;b&gt;HS041_15030&lt;/b&gt;&lt;br&gt;3-hydroxybenzoate 6-monooxygenase&lt;br&gt;Location: 528426 - 529641" locus_tag="HS041_15030" class="clusterblast-orf" id="dummy-3_q37_0_all"  />
<polygon points="413,35 418,30 429,30 429,40 418,40 413,35 " style="fill:white; stroke-width:1; stroke:black; " description="&lt;b&gt;HS041_15035&lt;/b&gt;&lt;br&gt;phenazine-specific anthranilate synthase&lt;br&gt;Location: 529637 - 531536" locus_tag="HS041_15035" class="clusterblast-orf" id="dummy-3_q38_0_all"  />
<polygon points="429,35 434,30 434,30 434,40 434,40 429,35 " style="fill:white; stroke-width:1; stroke:black; " description="&lt;b&gt;HS041_15040&lt;/b&gt;&lt;br&gt;isochorismatase family protein&lt;br&gt;Location: 531532 - 532186" locus_tag="HS041_15040" class="clusterblast-orf" id="dummy-3_q39_0_all"  />
<polygon points="435,35 440,30 441,30 441,40 440,40 435,35 " style="fill:white; stroke-width:1; stroke:black; " description="&lt;b&gt;HS041_15045&lt;/b&gt;&lt;br&gt;2,3-dihydro-2,3-dihydroxybenzoate dehydrogenase&lt;br&gt;Location: 532219 - 532984" locus_tag="HS041_15045" class="clusterblast-orf" id="dummy-3_q40_0_all"  />
<polygon points="443,40 465,40 470,35 465,30 443,30 443,40 " style="fill:white; stroke-width:1; stroke:black; " description="&lt;b&gt;HS041_15050&lt;/b&gt;&lt;br&gt;AMP-binding protein&lt;br&gt;Location: 533205 - 536418" locus_tag="HS041_15050" class="clusterblast-orf" id="dummy-3_q41_0_all"  />
<polygon points="470,40 479,40 484,35 479,30 470,30 470,40 " style="fill:#d8c315; stroke-width:1; stroke:black; " description="&lt;b&gt;HS041_15055&lt;/b&gt;&lt;br&gt;tyrosine 2,3-aminomutase&lt;br&gt;Location: 536419 - 538087" locus_tag="HS041_15055" class="clusterblast-orf" id="dummy-3_q42_0_all"  />
<polygon points="485,35 487,30 487,40 485,35 " style="fill:white; stroke-width:1; stroke:black; " description="&lt;b&gt;HS041_15060&lt;/b&gt;&lt;br&gt;helix-turn-helix domain-containing protein&lt;br&gt;Location: 538280 - 538469" locus_tag="HS041_15060" class="clusterblast-orf" id="dummy-3_q43_0_all"  />
<polygon points="488,35 493,30 501,30 501,40 493,40 488,35 " style="fill:#15d86c; stroke-width:1; stroke:black; " description="&lt;b&gt;HS041_15065&lt;/b&gt;&lt;br&gt;Pyoverdin chromophore biosynthetic protein pvcC&lt;br&gt;Location: 538617 - 540195" locus_tag="HS041_15065" class="clusterblast-orf" id="dummy-3_q44_0_all"  />
<polygon points="502,35 507,30 512,30 512,40 507,40 502,35 " style="fill:#1515d8; stroke-width:1; stroke:black; " description="&lt;b&gt;HS041_15070&lt;/b&gt;&lt;br&gt;acyl-CoA dehydrogenase family protein&lt;br&gt;Location: 540205 - 541426" locus_tag="HS041_15070" class="clusterblast-orf" id="dummy-3_q45_0_all"  />
<polygon points="514,40 516,40 521,35 516,30 514,30 514,40 " style="fill:#d8156c; stroke-width:1; stroke:black; " description="&lt;b&gt;HS041_15075&lt;/b&gt;&lt;br&gt;class I SAM-dependent methyltransferase&lt;br&gt;Location: 541748 - 542555" locus_tag="HS041_15075" class="clusterblast-orf" id="dummy-3_q46_0_all"  />
<polygon points="521,40 526,40 531,35 526,30 521,30 521,40 " style="fill:#c3d815; stroke-width:1; stroke:black; " description="&lt;b&gt;HS041_15080&lt;/b&gt;&lt;br&gt;DegT/DnrJ/EryC1/StrS family aminotransferase&lt;br&gt;Location: 542551 - 543661" locus_tag="HS041_15080" class="clusterblast-orf" id="dummy-3_q47_0_all"  />
<polygon points="531,35 536,30 549,30 549,40 536,40 531,35 " style="fill:white; stroke-width:1; stroke:black; " description="&lt;b&gt;HS041_15085&lt;/b&gt;&lt;br&gt;molybdopterin-dependent oxidoreductase&lt;br&gt;Location: 543715 - 545851" locus_tag="HS041_15085" class="clusterblast-orf" id="dummy-3_q48_0_all"  />
<polygon points="549,35 554,30 558,30 558,40 554,40 549,35 " style="fill:white; stroke-width:1; stroke:black; " description="&lt;b&gt;HS041_15090&lt;/b&gt;&lt;br&gt;2Fe-2S iron-sulfur cluster binding domain-containing protein&lt;br&gt;Location: 545872 - 546955" locus_tag="HS041_15090" class="clusterblast-orf" id="dummy-3_q49_0_all"  />
<polygon points="558,35 562,30 562,40 558,35 " style="fill:white; stroke-width:1; stroke:black; " description="&lt;b&gt;HS041_15095&lt;/b&gt;&lt;br&gt;phenylacetate-CoA oxygenase subunit PaaJ&lt;br&gt;Location: 546954 - 547419" locus_tag="HS041_15095" class="clusterblast-orf" id="dummy-3_q50_0_all"  />
<polygon points="562,35 567,30 568,30 568,40 567,40 562,35 " style="fill:white; stroke-width:1; stroke:black; " description="&lt;b&gt;HS041_15100&lt;/b&gt;&lt;br&gt;phenylacetate-CoA oxygenase subunit PaaC&lt;br&gt;Location: 547412 - 548144" locus_tag="HS041_15100" class="clusterblast-orf" id="dummy-3_q51_0_all"  />
<polygon points="568,35 573,30 579,30 579,40 573,40 568,35 " style="fill:white; stroke-width:1; stroke:black; " description="&lt;b&gt;HS041_15105&lt;/b&gt;&lt;br&gt;1,2-phenylacetyl-CoA epoxidase subunit A&lt;br&gt;Location: 548140 - 549433" locus_tag="HS041_15105" class="clusterblast-orf" id="dummy-3_q52_0_all"  />
<polygon points="579,40 587,40 592,35 587,30 579,30 579,40 " style="fill:white; stroke-width:1; stroke:black; " description="&lt;b&gt;HS041_15110&lt;/b&gt;&lt;br&gt;benzoate-CoA ligase family protein&lt;br&gt;Location: 549494 - 551021" locus_tag="HS041_15110" class="clusterblast-orf" id="dummy-3_q53_0_all"  />
<polygon points="592,35 597,30 599,30 599,40 597,40 592,35 " style="fill:white; stroke-width:1; stroke:black; " description="&lt;b&gt;HS041_15115&lt;/b&gt;&lt;br&gt;arylamine N-acetyltransferase&lt;br&gt;Location: 551021 - 551813" locus_tag="HS041_15115" class="clusterblast-orf" id="dummy-3_q54_0_all"  />
<polygon points="601,40 610,40 615,35 610,30 601,30 601,40 " style="fill:white; stroke-width:1; stroke:black; " description="&lt;b&gt;HS041_15120&lt;/b&gt;&lt;br&gt;non-ribosomal peptide synthetase&lt;br&gt;Location: 552036 - 553731" locus_tag="HS041_15120" class="clusterblast-orf" id="dummy-3_q55_0_all"  />
<polygon points="615,40 626,40 631,35 626,30 615,30 615,40 " style="fill:white; stroke-width:1; stroke:black; " description="&lt;b&gt;HS041_15125&lt;/b&gt;&lt;br&gt;B12-binding domain-containing radical SAM protein&lt;br&gt;Location: 553727 - 555632" locus_tag="HS041_15125" class="clusterblast-orf" id="dummy-3_q56_0_all"  />
<polygon points="631,40 635,40 640,35 635,30 631,30 631,40 " style="fill:white; stroke-width:1; stroke:black; " description="&lt;b&gt;HS041_15130&lt;/b&gt;&lt;br&gt;acyl-CoA dehydrogenase family protein&lt;br&gt;Location: 555621 - 556746" locus_tag="HS041_15130" class="clusterblast-orf" id="dummy-3_q57_0_all"  />
<polygon points="640,40 642,40 647,35 642,30 640,30 640,40 " style="fill:white; stroke-width:1; stroke:black; " description="&lt;b&gt;HS041_15135&lt;/b&gt;&lt;br&gt;thioesterase&lt;br&gt;Location: 556742 - 557534" locus_tag="HS041_15135" class="clusterblast-orf" id="dummy-3_q58_0_all"  />
<polygon points="647,40 652,40 657,35 652,30 647,30 647,40 " style="fill:white; stroke-width:1; stroke:black; " description="&lt;b&gt;HS041_15140&lt;/b&gt;&lt;br&gt;acyltransferase&lt;br&gt;Location: 557530 - 558760" locus_tag="HS041_15140" class="clusterblast-orf" id="dummy-3_q59_0_all"  />
<polygon points="658,40 660,40 665,35 660,30 658,30 658,40 " style="fill:white; stroke-width:1; stroke:black; " description="&lt;b&gt;HS041_15145&lt;/b&gt;&lt;br&gt;phytanoyl-CoA dioxygenase family protein&lt;br&gt;Location: 558856 - 559738" locus_tag="HS041_15145" class="clusterblast-orf" id="dummy-3_q60_0_all"  />
<polygon points="666,40 670,35 666,30 666,40 " style="fill:white; stroke-width:1; stroke:black; " description="&lt;b&gt;HS041_15150&lt;/b&gt;&lt;br&gt;SRPBCC domain-containing protein&lt;br&gt;Location: 559828 - 560284" locus_tag="HS041_15150" class="clusterblast-orf" id="dummy-3_q61_0_all"  />
<polygon points="676,35 681,30 686,30 686,40 681,40 676,35 " style="fill:#15d897; stroke-width:1; stroke:black; " description="&lt;b&gt;HS041_15155&lt;/b&gt;&lt;br&gt;class I SAM-dependent methyltransferase&lt;br&gt;Location: 560986 - 562198" locus_tag="HS041_15155" class="clusterblast-orf" id="dummy-3_q62_0_all"  />
<polygon points="687,35 692,30 698,30 698,40 692,40 687,35 " style="fill:white; stroke-width:1; stroke:black; " description="&lt;b&gt;HS041_15160&lt;/b&gt;&lt;br&gt;FAD-dependent oxidoreductase&lt;br&gt;Location: 562305 - 563664" locus_tag="HS041_15160" class="clusterblast-orf" id="dummy-3_q63_0_all"  />
<polygon points="698,35 703,30 711,30 711,40 703,40 698,35 " style="fill:white; stroke-width:1; stroke:black; " description="&lt;b&gt;HS041_15165&lt;/b&gt;&lt;br&gt;methyltransferase domain-containing protein&lt;br&gt;Location: 563664 - 565209" locus_tag="HS041_15165" class="clusterblast-orf" id="dummy-3_q64_0_all"  />
<polygon points="712,40 719,40 724,35 719,30 712,30 712,40 " style="fill:#4115d8; stroke-width:1; stroke:black; " description="&lt;b&gt;HS041_15170&lt;/b&gt;&lt;br&gt;extracellular solute-binding protein&lt;br&gt;Location: 565343 - 566771" locus_tag="HS041_15170" class="clusterblast-orf" id="dummy-3_q65_0_all"  />
<polygon points="725,35 730,30 736,30 736,40 730,40 725,35 " style="fill:#d81541; stroke-width:1; stroke:black; " description="&lt;b&gt;HS041_15175&lt;/b&gt;&lt;br&gt;DUF1205 domain-containing protein&lt;br&gt;Location: 566828 - 568124" locus_tag="HS041_15175" class="clusterblast-orf" id="dummy-3_q66_0_all"  />
<polygon points="738,40 741,40 746,35 741,30 738,30 738,40 " style="fill:#97d815; stroke-width:1; stroke:black; " description="&lt;b&gt;HS041_15180&lt;/b&gt;&lt;br&gt;NAD-dependent epimerase/dehydratase family protein&lt;br&gt;Location: 568354 - 569335" locus_tag="HS041_15180" class="clusterblast-orf" id="dummy-3_q67_0_all"  />
<polygon points="746,35 751,30 757,30 757,40 751,40 746,35 " style="fill:#15d8c3; stroke-width:1; stroke:black; " description="&lt;b&gt;HS041_15185&lt;/b&gt;&lt;br&gt;cytochrome P450&lt;br&gt;Location: 569385 - 570627" locus_tag="HS041_15185" class="clusterblast-orf" id="dummy-3_q68_0_all"  />
<polygon points="757,35 762,30 770,30 770,40 762,40 757,35 " style="fill:#6c15d8; stroke-width:1; stroke:black; " description="&lt;b&gt;HS041_15190&lt;/b&gt;&lt;br&gt;MFS transporter&lt;br&gt;Location: 570663 - 572235" locus_tag="HS041_15190" class="clusterblast-orf" id="dummy-3_q69_0_all"  />
<polygon points="770,35 775,30 780,30 780,40 775,40 770,35 " style="fill:white; stroke-width:1; stroke:black; " description="&lt;b&gt;HS041_15195&lt;/b&gt;&lt;br&gt;acyltransferase&lt;br&gt;Location: 572248 - 573352" locus_tag="HS041_15195" class="clusterblast-orf" id="dummy-3_q70_0_all"  />
</g>
<g label="BGC0000150" description="BGC0000150_c1: sporolide A/sporolide B (40% of genes show similarity), NRP+Polyketide:Enediyne type I polyketide" class="clusterblast-cluster"  >
<text x="5" y="70" class="clusterblast-acc"  >
<a xlink:href="https://mibig.secondarymetabolites.org/go/BGC0000150/1" target="_blank">BGC0000150</a>: sporolide A/sporolide B                                                          (40% of genes show similarity), NRP+Polyketide:Enediyne type I polyketide</text>
<line x1="10" y1="85" x2="778.0" y2="85" style="stroke-width:1; stroke:grey; "  />
</g>
<g id="a3_000"  >
<polygon points="139,85 144,80 167,80 167,90 144,90 139,85 " style="fill:white; stroke-width:1; stroke:black; " description="&lt;b&gt;Strop_2737&lt;/b&gt;&lt;br&gt;transcriptional activator domain&lt;br&gt;Location: 59694 - 56386" locus_tag="Strop_2737" class="clusterblast-orf" id="dummy-3_h3_2_0"  />
</g>
<g id="a3_001"  >
<polygon points="168,90 169,90 174,85 169,80 168,80 168,90 " style="fill:white; stroke-width:1; stroke:black; " description="&lt;b&gt;Strop_2736&lt;/b&gt;&lt;br&gt;protein of unknown function DUF899, thioredoxin family protein&lt;br&gt;Location: 56248 - 55580" locus_tag="Strop_2736" class="clusterblast-orf" id="dummy-3_h3_2_1"  />
</g>
<g id="a3_002"  >
<polygon points="174,90 181,90 186,85 181,80 174,80 174,90 " style="fill:#6c15d8; stroke-width:1; stroke:black; " description="&lt;b&gt;Strop_2735&lt;/b&gt;&lt;br&gt;major facilitator superfamily MFS 1&lt;br&gt;Location: 55542 - 54097&lt;br&gt;&lt;br&gt;&lt;b&gt;BlastP hit with HS041_15190&lt;/b&gt;&lt;br&gt;Percentage identity: 53&lt;br&gt;Percentage coverage: 92&lt;br&gt;BLAST bit score: 450&lt;br&gt;E-value: 1.34e-154" locus_tag="Strop_2735" class="clusterblast-orf" id="dummy-3_h3_2_2"  />
</g>
<g id="a3_003"  >
<polygon points="187,85 189,80 189,90 187,85 " style="fill:white; stroke-width:1; stroke:black; " description="&lt;b&gt;Strop_2734&lt;/b&gt;&lt;br&gt;hypothetical protein&lt;br&gt;Location: 53970 - 53713" locus_tag="Strop_2734" class="clusterblast-orf" id="dummy-3_h3_2_3"  />
</g>
<g id="a3_004"  >
<polygon points="190,85 195,80 203,80 203,90 195,90 190,85 " style="fill:white; stroke-width:1; stroke:black; " description="&lt;b&gt;Strop_2733&lt;/b&gt;&lt;br&gt;Methyltransferase type 11&lt;br&gt;Location: 53640 - 52120" locus_tag="Strop_2733" class="clusterblast-orf" id="dummy-3_h3_2_4"  />
</g>
<g id="a3_005"  >
<polygon points="203,85 208,80 212,80 212,90 208,90 203,85 " style="fill:white; stroke-width:1; stroke:black; " description="&lt;b&gt;Strop_2732&lt;/b&gt;&lt;br&gt;hypothetical protein&lt;br&gt;Location: 52107 - 51037" locus_tag="Strop_2732" class="clusterblast-orf" id="dummy-3_h3_2_5"  />
</g>
<g id="a3_006"  >
<polygon points="212,90 219,90 224,85 219,80 212,80 212,90 " style="fill:white; stroke-width:1; stroke:black; " description="&lt;b&gt;Strop_2731&lt;/b&gt;&lt;br&gt;FAD linked oxidase domain protein&lt;br&gt;Location: 50957 - 49539" locus_tag="Strop_2731" class="clusterblast-orf" id="dummy-3_h3_2_6"  />
</g>
<g id="a3_007"  >
<polygon points="228,85 233,80 233,80 233,90 233,90 228,85 " style="fill:white; stroke-width:1; stroke:black; " description="&lt;b&gt;Strop_2730&lt;/b&gt;&lt;br&gt;hypothetical protein&lt;br&gt;Location: 49083 - 48526" locus_tag="Strop_2730" class="clusterblast-orf" id="dummy-3_h3_2_7"  />
</g>
<g id="a3_008"  >
<polygon points="233,85 236,80 236,90 233,85 " style="fill:white; stroke-width:1; stroke:black; " description="&lt;b&gt;Strop_2729&lt;/b&gt;&lt;br&gt;hypothetical protein&lt;br&gt;Location: 48488 - 48192" locus_tag="Strop_2729" class="clusterblast-orf" id="dummy-3_h3_2_8"  />
</g>
<g id="a3_009"  >
<polygon points="238,85 243,80 246,80 246,90 243,90 238,85 " style="fill:white; stroke-width:1; stroke:black; " description="&lt;b&gt;Strop_2728&lt;/b&gt;&lt;br&gt;hypothetical protein&lt;br&gt;Location: 47859 - 46957" locus_tag="Strop_2728" class="clusterblast-orf" id="dummy-3_h3_2_9"  />
</g>
<g id="a3_0010"  >
<polygon points="246,85 251,80 255,80 255,90 251,90 246,85 " style="fill:white; stroke-width:1; stroke:black; " description="&lt;b&gt;Strop_2727&lt;/b&gt;&lt;br&gt;4-hydroxyphenylpyruvate dioxygenase&lt;br&gt;Location: 46960 - 45884" locus_tag="Strop_2727" class="clusterblast-orf" id="dummy-3_h3_2_10"  />
</g>
<g id="a3_0011"  >
<polygon points="255,85 257,80 257,90 255,85 " style="fill:white; stroke-width:1; stroke:black; " description="&lt;b&gt;Strop_2726&lt;/b&gt;&lt;br&gt;MbtH domain protein&lt;br&gt;Location: 45856 - 45647" locus_tag="Strop_2726" class="clusterblast-orf" id="dummy-3_h3_2_11"  />
</g>
<g id="a3_0012"  >
<polygon points="257,85 262,80 272,80 272,90 262,90 257,85 " style="fill:white; stroke-width:1; stroke:black; " description="&lt;b&gt;Strop_2725&lt;/b&gt;&lt;br&gt;amino acid adenylation domain&lt;br&gt;Location: 45650 - 43884" locus_tag="Strop_2725" class="clusterblast-orf" id="dummy-3_h3_2_12"  />
</g>
<g id="a3_0013"  >
<polygon points="275,90 281,90 286,85 281,80 275,80 275,90 " style="fill:#15d8c3; stroke-width:1; stroke:black; " description="&lt;b&gt;Strop_2724&lt;/b&gt;&lt;br&gt;cytochrome P450&lt;br&gt;Location: 43474 - 42245&lt;br&gt;&lt;br&gt;&lt;b&gt;BlastP hit with HS041_15185&lt;/b&gt;&lt;br&gt;Percentage identity: 51&lt;br&gt;Percentage coverage: 98&lt;br&gt;BLAST bit score: 422&lt;br&gt;E-value: 1.86e-146" locus_tag="Strop_2724" class="clusterblast-orf" id="dummy-3_h3_2_13"  />
</g>
<g id="a3_0014"  >
<polygon points="285,90 289,90 294,85 289,80 285,80 285,90 " style="fill:white; stroke-width:1; stroke:black; " description="&lt;b&gt;Strop_2723&lt;/b&gt;&lt;br&gt;Alcohol dehydrogenase GroES domain protein&lt;br&gt;Location: 42248 - 41232" locus_tag="Strop_2723" class="clusterblast-orf" id="dummy-3_h3_2_14"  />
</g>
<g id="a3_0015"  >
<polygon points="294,90 300,90 305,85 300,80 294,80 294,90 " style="fill:#4115d8; stroke-width:1; stroke:black; " description="&lt;b&gt;Strop_2722&lt;/b&gt;&lt;br&gt;hypothetical protein&lt;br&gt;Location: 41219 - 39879&lt;br&gt;&lt;br&gt;&lt;b&gt;BlastP hit with HS041_15170&lt;/b&gt;&lt;br&gt;Percentage identity: 46&lt;br&gt;Percentage coverage: 90&lt;br&gt;BLAST bit score: 386&lt;br&gt;E-value: 1.32e-130" locus_tag="Strop_2722" class="clusterblast-orf" id="dummy-3_h3_2_15"  />
</g>
<g id="a3_0016"  >
<polygon points="306,85 311,80 317,80 317,90 311,90 306,85 " style="fill:white; stroke-width:1; stroke:black; " description="&lt;b&gt;Strop_2721&lt;/b&gt;&lt;br&gt;condensation domain protein&lt;br&gt;Location: 39774 - 38443" locus_tag="Strop_2721" class="clusterblast-orf" id="dummy-3_h3_2_16"  />
</g>
<g id="a3_0017"  >
<polygon points="319,90 324,90 329,85 324,80 319,80 319,90 " style="fill:#1515d8; stroke-width:1; stroke:black; " description="&lt;b&gt;Strop_2720&lt;/b&gt;&lt;br&gt;Acyl-CoA dehydrogenase, type 2, C-terminal domain&lt;br&gt;Location: 38255 - 37011&lt;br&gt;&lt;br&gt;&lt;b&gt;BlastP hit with HS041_15070&lt;/b&gt;&lt;br&gt;Percentage identity: 66&lt;br&gt;Percentage coverage: 98&lt;br&gt;BLAST bit score: 529&lt;br&gt;E-value: 2.19e-188" locus_tag="Strop_2720" class="clusterblast-orf" id="dummy-3_h3_2_17"  />
</g>
<g id="a3_0018"  >
<polygon points="331,85 334,80 334,90 331,85 " style="fill:white; stroke-width:1; stroke:black; " description="&lt;b&gt;Strop_2719&lt;/b&gt;&lt;br&gt;DGPFAETKE family protein&lt;br&gt;Location: 36831 - 36472" locus_tag="Strop_2719" class="clusterblast-orf" id="dummy-3_h3_2_18"  />
</g>
<g id="a3_0019"  >
<polygon points="338,90 346,90 351,85 346,80 338,80 338,90 " style="fill:#6c15d8; stroke-width:1; stroke:black; " description="&lt;b&gt;Strop_2718&lt;/b&gt;&lt;br&gt;major facilitator superfamily MFS 1&lt;br&gt;Location: 36024 - 34438&lt;br&gt;&lt;br&gt;&lt;b&gt;BlastP hit with HS041_15190&lt;/b&gt;&lt;br&gt;Percentage identity: 52&lt;br&gt;Percentage coverage: 97&lt;br&gt;BLAST bit score: 452&lt;br&gt;E-value: 7.88e-155" locus_tag="Strop_2718" class="clusterblast-orf" id="dummy-3_h3_2_19"  />
</g>
<g id="a3_0020"  >
<polygon points="355,85 360,80 363,80 363,90 360,90 355,85 " style="fill:white; stroke-width:1; stroke:black; " description="&lt;b&gt;Strop_2717&lt;/b&gt;&lt;br&gt;hypothetical protein&lt;br&gt;Location: 33963 - 33040" locus_tag="Strop_2717" class="clusterblast-orf" id="dummy-3_h3_2_20"  />
</g>
<g id="a3_0021"  >
<polygon points="363,85 365,80 365,90 363,85 " style="fill:white; stroke-width:1; stroke:black; " description="&lt;b&gt;Strop_2716&lt;/b&gt;&lt;br&gt;hypothetical protein&lt;br&gt;Location: 33039 - 32749" locus_tag="Strop_2716" class="clusterblast-orf" id="dummy-3_h3_2_21"  />
</g>
<g id="a3_0022"  >
<polygon points="371,90 375,85 371,80 371,90 " style="fill:white; stroke-width:1; stroke:black; " description="&lt;b&gt;Strop_2715&lt;/b&gt;&lt;br&gt;DGPFAETKE family protein&lt;br&gt;Location: 31994 - 31614" locus_tag="Strop_2715" class="clusterblast-orf" id="dummy-3_h3_2_22"  />
</g>
<g id="a3_0023"  >
<polygon points="375,90 381,90 386,85 381,80 375,80 375,90 " style="fill:white; stroke-width:1; stroke:black; " description="&lt;b&gt;Strop_2714&lt;/b&gt;&lt;br&gt;Sigma-70, region 4 type 2&lt;br&gt;Location: 31617 - 30307" locus_tag="Strop_2714" class="clusterblast-orf" id="dummy-3_h3_2_23"  />
</g>
<g id="a3_0024"  >
<polygon points="387,85 392,80 400,80 400,90 392,90 387,85 " style="fill:#15d86c; stroke-width:1; stroke:black; " description="&lt;b&gt;Strop_2713&lt;/b&gt;&lt;br&gt;4-hydroxyphenylacetate 3-hydroxylase&lt;br&gt;Location: 30190 - 28640&lt;br&gt;&lt;br&gt;&lt;b&gt;BlastP hit with HS041_15065&lt;/b&gt;&lt;br&gt;Percentage identity: 81&lt;br&gt;Percentage coverage: 97&lt;br&gt;BLAST bit score: 887&lt;br&gt;E-value: 0.0" locus_tag="Strop_2713" class="clusterblast-orf" id="dummy-3_h3_2_24"  />
</g>
<g id="a3_0025"  >
<polygon points="400,85 405,80 410,80 410,90 405,90 400,85 " style="fill:white; stroke-width:1; stroke:black; " description="&lt;b&gt;Strop_2712&lt;/b&gt;&lt;br&gt;luciferase family protein&lt;br&gt;Location: 28560 - 27394" locus_tag="Strop_2712" class="clusterblast-orf" id="dummy-3_h3_2_25"  />
</g>
<g id="a3_0026"  >
<polygon points="412,85 417,80 421,80 421,90 417,90 412,85 " style="fill:white; stroke-width:1; stroke:black; " description="&lt;b&gt;Strop_2711&lt;/b&gt;&lt;br&gt;Epoxide hydrolase domain protein&lt;br&gt;Location: 27193 - 26036" locus_tag="Strop_2711" class="clusterblast-orf" id="dummy-3_h3_2_26"  />
</g>
<g id="a3_0027"  >
<polygon points="422,85 427,80 433,80 433,90 427,90 422,85 " style="fill:white; stroke-width:1; stroke:black; " description="&lt;b&gt;Strop_2710&lt;/b&gt;&lt;br&gt;monooxygenase, FAD-binding&lt;br&gt;Location: 26021 - 24642" locus_tag="Strop_2710" class="clusterblast-orf" id="dummy-3_h3_2_27"  />
</g>
<g id="a3_0028"  >
<polygon points="433,85 437,80 437,90 433,85 " style="fill:white; stroke-width:1; stroke:black; " description="&lt;b&gt;Strop_2709&lt;/b&gt;&lt;br&gt;hypothetical protein&lt;br&gt;Location: 24612 - 24193" locus_tag="Strop_2709" class="clusterblast-orf" id="dummy-3_h3_2_28"  />
</g>
<g id="a3_0029"  >
<polygon points="438,85 443,80 448,80 448,90 443,90 438,85 " style="fill:white; stroke-width:1; stroke:black; " description="&lt;b&gt;Strop_2708&lt;/b&gt;&lt;br&gt;Acyl-CoA dehydrogenase, type 2, C-terminal domain&lt;br&gt;Location: 24034 - 22862" locus_tag="Strop_2708" class="clusterblast-orf" id="dummy-3_h3_2_29"  />
</g>
<g id="a3_0030"  >
<polygon points="451,85 456,80 456,80 456,90 456,90 451,85 " style="fill:white; stroke-width:1; stroke:black; " description="&lt;b&gt;Strop_2707&lt;/b&gt;&lt;br&gt;hypothetical protein&lt;br&gt;Location: 22525 - 21914" locus_tag="Strop_2707" class="clusterblast-orf" id="dummy-3_h3_2_30"  />
</g>
<g id="a3_0031"  >
<polygon points="457,85 462,80 465,80 465,90 462,90 457,85 " style="fill:#15d841; stroke-width:1; stroke:black; " description="&lt;b&gt;Strop_2706&lt;/b&gt;&lt;br&gt;Wyosine base formation&lt;br&gt;Location: 21765 - 20845&lt;br&gt;&lt;br&gt;&lt;b&gt;BlastP hit with HS041_14965&lt;/b&gt;&lt;br&gt;Percentage identity: 64&lt;br&gt;Percentage coverage: 98&lt;br&gt;BLAST bit score: 330&lt;br&gt;E-value: 4.4e-114" locus_tag="Strop_2706" class="clusterblast-orf" id="dummy-3_h3_2_31"  />
</g>
<g id="a3_0032"  >
<polygon points="469,90 473,85 469,80 469,90 " style="fill:#156cd8; stroke-width:1; stroke:black; " description="&lt;b&gt;Strop_2705&lt;/b&gt;&lt;br&gt;hypothetical protein&lt;br&gt;Location: 20419 - 19856&lt;br&gt;&lt;br&gt;&lt;b&gt;BlastP hit with HS041_14950&lt;/b&gt;&lt;br&gt;Percentage identity: 64&lt;br&gt;Percentage coverage: 96&lt;br&gt;BLAST bit score: 227&lt;br&gt;E-value: 2.08e-76" locus_tag="Strop_2705" class="clusterblast-orf" id="dummy-3_h3_2_32"  />
</g>
<g id="a3_0033"  >
<polygon points="473,90 482,90 487,85 482,80 473,80 473,90 " style="fill:#d815c3; stroke-width:1; stroke:black; " description="&lt;b&gt;Strop_2704&lt;/b&gt;&lt;br&gt;glucose-methanol-choline oxidoreductase&lt;br&gt;Location: 19859 - 18207&lt;br&gt;&lt;br&gt;&lt;b&gt;BlastP hit with HS041_14955&lt;/b&gt;&lt;br&gt;Percentage identity: 78&lt;br&gt;Percentage coverage: 98&lt;br&gt;BLAST bit score: 867&lt;br&gt;E-value: 2.22e-317" locus_tag="Strop_2704" class="clusterblast-orf" id="dummy-3_h3_2_33"  />
</g>
<g id="a3_0034"  >
<polygon points="488,90 492,90 497,85 492,80 488,80 488,90 " style="fill:#d89715; stroke-width:1; stroke:black; " description="&lt;b&gt;Strop_2703&lt;/b&gt;&lt;br&gt;alkylhydroperoxidase like protein, AhpD family&lt;br&gt;Location: 18124 - 17042&lt;br&gt;&lt;br&gt;&lt;b&gt;BlastP hit with HS041_14960&lt;/b&gt;&lt;br&gt;Percentage identity: 52&lt;br&gt;Percentage coverage: 100&lt;br&gt;BLAST bit score: 306&lt;br&gt;E-value: 1.3e-102" locus_tag="Strop_2703" class="clusterblast-orf" id="dummy-3_h3_2_34"  />
</g>
<g id="a3_0035"  >
<polygon points="496,85 501,80 505,80 505,90 501,90 496,85 " style="fill:white; stroke-width:1; stroke:black; " description="&lt;b&gt;Strop_2702&lt;/b&gt;&lt;br&gt;NAD-dependent epimerase/dehydratase&lt;br&gt;Location: 17118 - 16054" locus_tag="Strop_2702" class="clusterblast-orf" id="dummy-3_h3_2_35"  />
</g>
<g id="a3_0036"  >
<polygon points="508,90 511,90 516,85 511,80 508,80 508,90 " style="fill:#6cd815; stroke-width:1; stroke:black; " description="&lt;b&gt;Strop_2701&lt;/b&gt;&lt;br&gt;protein of unknown function DUF1702&lt;br&gt;Location: 15765 - 14788&lt;br&gt;&lt;br&gt;&lt;b&gt;BlastP hit with HS041_14895&lt;/b&gt;&lt;br&gt;Percentage identity: 67&lt;br&gt;Percentage coverage: 99&lt;br&gt;BLAST bit score: 438&lt;br&gt;E-value: 3.94e-155" locus_tag="Strop_2701" class="clusterblast-orf" id="dummy-3_h3_2_36"  />
</g>
<g id="a3_0037"  >
<polygon points="517,90 521,90 526,85 521,80 517,80 517,90 " style="fill:#15c3d8; stroke-width:1; stroke:black; " description="&lt;b&gt;Strop_2700&lt;/b&gt;&lt;br&gt;protein of unknown function DUF1702&lt;br&gt;Location: 14605 - 13607&lt;br&gt;&lt;br&gt;&lt;b&gt;BlastP hit with HS041_14900&lt;/b&gt;&lt;br&gt;Percentage identity: 60&lt;br&gt;Percentage coverage: 98&lt;br&gt;BLAST bit score: 370&lt;br&gt;E-value: 3.24e-128" locus_tag="Strop_2700" class="clusterblast-orf" id="dummy-3_h3_2_37"  />
</g>
<g id="a3_0038"  >
<polygon points="526,90 537,90 542,85 537,80 526,80 526,90 " style="fill:#9715d8; stroke-width:1; stroke:black; " description="&lt;b&gt;Strop_2699&lt;/b&gt;&lt;br&gt;ASPIC/UnbV domain protein&lt;br&gt;Location: 13603 - 11636&lt;br&gt;&lt;br&gt;&lt;b&gt;BlastP hit with HS041_14905&lt;/b&gt;&lt;br&gt;Percentage identity: 66&lt;br&gt;Percentage coverage: 100&lt;br&gt;BLAST bit score: 878&lt;br&gt;E-value: 4.04e-318" locus_tag="Strop_2699" class="clusterblast-orf" id="dummy-3_h3_2_38"  />
</g>
<g id="a3_0039"  >
<polygon points="542,90 546,90 551,85 546,80 542,80 542,90 " style="fill:#d84115; stroke-width:1; stroke:black; " description="&lt;b&gt;Strop_2698&lt;/b&gt;&lt;br&gt;hypothetical protein&lt;br&gt;Location: 11630 - 10644&lt;br&gt;&lt;br&gt;&lt;b&gt;BlastP hit with HS041_14910&lt;/b&gt;&lt;br&gt;Percentage identity: 67&lt;br&gt;Percentage coverage: 99&lt;br&gt;BLAST bit score: 438&lt;br&gt;E-value: 2.27e-155" locus_tag="Strop_2698" class="clusterblast-orf" id="dummy-3_h3_2_39"  />
</g>
<g id="a3_0040"  >
<polygon points="551,90 594,90 599,85 594,80 551,80 551,90 " style="fill:#41d815; stroke-width:1; stroke:black; " description="&lt;b&gt;Strop_2697&lt;/b&gt;&lt;br&gt;beta-ketoacyl synthase&lt;br&gt;Location: 10647 - 4876&lt;br&gt;&lt;br&gt;&lt;b&gt;BlastP hit with HS041_14915&lt;/b&gt;&lt;br&gt;Percentage identity: 67&lt;br&gt;Percentage coverage: 100&lt;br&gt;BLAST bit score: 2449&lt;br&gt;E-value: 0.0" locus_tag="Strop_2697" class="clusterblast-orf" id="dummy-3_h3_2_40"  />
</g>
<g id="a3_0041"  >
<polygon points="599,90 603,85 599,80 599,90 " style="fill:#1597d8; stroke-width:1; stroke:black; " description="&lt;b&gt;Strop_2696&lt;/b&gt;&lt;br&gt;hypothetical protein&lt;br&gt;Location: 4870 - 4406&lt;br&gt;&lt;br&gt;&lt;b&gt;BlastP hit with HS041_14920&lt;/b&gt;&lt;br&gt;Percentage identity: 82&lt;br&gt;Percentage coverage: 99&lt;br&gt;BLAST bit score: 238&lt;br&gt;E-value: 4.35e-82" locus_tag="Strop_2696" class="clusterblast-orf" id="dummy-3_h3_2_41"  />
</g>
<g id="a3_0042"  >
<polygon points="603,90 607,85 603,80 603,90 " style="fill:#c315d8; stroke-width:1; stroke:black; " description="&lt;b&gt;Strop_2695&lt;/b&gt;&lt;br&gt;flavin reductase domain protein, FMN-binding&lt;br&gt;Location: 4406 - 3870&lt;br&gt;&lt;br&gt;&lt;b&gt;BlastP hit with HS041_14925&lt;/b&gt;&lt;br&gt;Percentage identity: 62&lt;br&gt;Percentage coverage: 92&lt;br&gt;BLAST bit score: 212&lt;br&gt;E-value: 9.31e-71" locus_tag="Strop_2695" class="clusterblast-orf" id="dummy-3_h3_2_42"  />
</g>
<g id="a3_0043"  >
<polygon points="607,90 614,90 619,85 614,80 607,80 607,90 " style="fill:#d86c15; stroke-width:1; stroke:black; " description="&lt;b&gt;Strop_2694&lt;/b&gt;&lt;br&gt;cytochrome P450&lt;br&gt;Location: 3873 - 2515&lt;br&gt;&lt;br&gt;&lt;b&gt;BlastP hit with HS041_14930&lt;/b&gt;&lt;br&gt;Percentage identity: 66&lt;br&gt;Percentage coverage: 96&lt;br&gt;BLAST bit score: 541&lt;br&gt;E-value: 4.55e-192" locus_tag="Strop_2694" class="clusterblast-orf" id="dummy-3_h3_2_43"  />
</g>
<g id="a3_0044"  >
<polygon points="620,85 625,80 627,80 627,90 625,90 620,85 " style="fill:#15d815; stroke-width:1; stroke:black; " description="&lt;b&gt;Strop_2693&lt;/b&gt;&lt;br&gt;transcriptional regulator, AraC family&lt;br&gt;Location: 2343 - 1558&lt;br&gt;&lt;br&gt;&lt;b&gt;BlastP hit with HS041_14935&lt;/b&gt;&lt;br&gt;Percentage identity: 51&lt;br&gt;Percentage coverage: 98&lt;br&gt;BLAST bit score: 224&lt;br&gt;E-value: 3.12e-73" locus_tag="Strop_2693" class="clusterblast-orf" id="dummy-3_h3_2_44"  />
</g>
<g id="a3_0045"  >
<polygon points="631,90 631,90 636,85 631,80 631,80 631,90 " style="fill:white; stroke-width:1; stroke:black; " description="&lt;b&gt;Strop_2692&lt;/b&gt;&lt;br&gt;transcriptional regulator&lt;br&gt;Location: 1066 - 434" locus_tag="Strop_2692" class="clusterblast-orf" id="dummy-3_h3_2_45"  />
</g>
<g id="a3_0046"  >
<polygon points="637,90 640,85 637,80 637,90 " style="fill:white; stroke-width:1; stroke:black; " description="&lt;b&gt;Strop_2691&lt;/b&gt;&lt;br&gt;hypothetical protein&lt;br&gt;Location: 330 - 1" locus_tag="Strop_2691" class="clusterblast-orf" id="dummy-3_h3_2_46"  />
</g>
</svg>
