<svg xmlns="http://www.w3.org/2000/svg" xmlns:xlink="http://www.w3.org/1999/xlink" version="1.1" x="0" y="0" height="230" width="800" viewBox="0 0 800 230" preserveAspectRatio="none"  >
<g label="Query sequence" class="clusterblast-cluster"  >
<text x="5" y="20" class="clusterblast-acc"  >
Query sequence</text>
<line x1="10" y1="35" x2="778.0" y2="35" style="stroke-width:1; stroke:grey; "  />
<polygon points="278,35 282,30 282,40 278,35 " style="fill:white; stroke-width:1; stroke:black; " description="&lt;b&gt;HS041_27805&lt;/b&gt;&lt;br&gt;response regulator&lt;br&gt;Location: 245383 - 246052" locus_tag="HS041_27805" class="clusterblast-orf" id="dummy-2_q0_0_all"  />
<polygon points="282,35 287,30 297,30 297,40 287,40 282,35 " style="fill:white; stroke-width:1; stroke:black; " description="&lt;b&gt;HS041_27810&lt;/b&gt;&lt;br&gt;sensor histidine kinase KdpD&lt;br&gt;Location: 246048 - 248610" locus_tag="HS041_27810" class="clusterblast-orf" id="dummy-2_q1_0_all"  />
<polygon points="299,35 304,30 304,30 304,40 304,40 299,35 " style="fill:white; stroke-width:1; stroke:black; " description="&lt;b&gt;HS041_27815&lt;/b&gt;&lt;br&gt;DUF4259 domain-containing protein&lt;br&gt;Location: 249100 - 249919" locus_tag="HS041_27815" class="clusterblast-orf" id="dummy-2_q2_0_all"  />
<polygon points="305,40 309,35 305,30 305,40 " style="fill:white; stroke-width:1; stroke:black; " description="&lt;b&gt;HS041_27820&lt;/b&gt;&lt;br&gt;recombinase family protein&lt;br&gt;Location: 250121 - 250718" locus_tag="HS041_27820" class="clusterblast-orf" id="dummy-2_q3_0_all"  />
<polygon points="309,40 309,40 314,35 309,30 309,30 309,40 " style="fill:white; stroke-width:1; stroke:black; " description="&lt;b&gt;HS041_27825&lt;/b&gt;&lt;br&gt;hypothetical protein&lt;br&gt;Location: 250714 - 251635" locus_tag="HS041_27825" class="clusterblast-orf" id="dummy-2_q4_0_all"  />
<polygon points="314,40 315,35 314,30 314,40 " style="fill:white; stroke-width:1; stroke:black; " description="&lt;b&gt;HS041_27830&lt;/b&gt;&lt;br&gt;hypothetical protein&lt;br&gt;Location: 251627 - 251816" locus_tag="HS041_27830" class="clusterblast-orf" id="dummy-2_q5_0_all"  />
<polygon points="315,35 317,30 317,40 315,35 " style="fill:white; stroke-width:1; stroke:black; " description="&lt;b&gt;HS041_27835&lt;/b&gt;&lt;br&gt;hypothetical protein&lt;br&gt;Location: 251911 - 252229" locus_tag="HS041_27835" class="clusterblast-orf" id="dummy-2_q6_0_all"  />
<polygon points="318,40 320,40 325,35 320,30 318,30 318,40 " style="fill:white; stroke-width:1; stroke:black; " description="&lt;b&gt;HS041_27840&lt;/b&gt;&lt;br&gt;IS30 family transposase&lt;br&gt;Location: 252389 - 253569" locus_tag="HS041_27840" class="clusterblast-orf" id="dummy-2_q7_0_all"  />
<polygon points="325,35 327,30 327,40 325,35 " style="fill:white; stroke-width:1; stroke:black; " description="&lt;b&gt;HS041_27845&lt;/b&gt;&lt;br&gt;hypothetical protein&lt;br&gt;Location: 253580 - 254021" locus_tag="HS041_27845" class="clusterblast-orf" id="dummy-2_q8_0_all"  />
<polygon points="330,40 333,35 330,30 330,40 " style="fill:white; stroke-width:1; stroke:black; " description="&lt;b&gt;HS041_27850&lt;/b&gt;&lt;br&gt;recombinase family protein&lt;br&gt;Location: 254489 - 255065" locus_tag="HS041_27850" class="clusterblast-orf" id="dummy-2_q9_0_all"  />
<polygon points="334,40 336,35 334,30 334,40 " style="fill:white; stroke-width:1; stroke:black; " description="&lt;b&gt;HS041_27855&lt;/b&gt;&lt;br&gt;hypothetical protein&lt;br&gt;Location: 255168 - 255576" locus_tag="HS041_27855" class="clusterblast-orf" id="dummy-2_q10_0_all"  />
<polygon points="336,40 337,40 342,35 337,30 336,30 336,40 " style="fill:white; stroke-width:1; stroke:black; " description="&lt;b&gt;HS041_27860&lt;/b&gt;&lt;br&gt;IS3 family transposase&lt;br&gt;Location: 255590 - 256628" locus_tag="HS041_27860" class="clusterblast-orf" id="dummy-2_q11_0_all"  />
<polygon points="342,35 344,30 344,40 342,35 " style="fill:white; stroke-width:1; stroke:black; " description="&lt;b&gt;HS041_27865&lt;/b&gt;&lt;br&gt;MerR family transcriptional regulator&lt;br&gt;Location: 256664 - 257045" locus_tag="HS041_27865" class="clusterblast-orf" id="dummy-2_q12_0_all"  />
<polygon points="345,40 348,35 345,30 345,40 " style="fill:white; stroke-width:1; stroke:black; " description="&lt;b&gt;HS041_27870&lt;/b&gt;&lt;br&gt;hypothetical protein&lt;br&gt;Location: 257199 - 257730" locus_tag="HS041_27870" class="clusterblast-orf" id="dummy-2_q13_0_all"  />
<polygon points="349,40 350,40 355,35 350,30 349,30 349,40 " style="fill:white; stroke-width:1; stroke:black; " description="&lt;b&gt;HS041_27875&lt;/b&gt;&lt;br&gt;hypothetical protein&lt;br&gt;Location: 257781 - 258864" locus_tag="HS041_27875" class="clusterblast-orf" id="dummy-2_q14_0_all"  />
<polygon points="355,40 355,40 360,35 355,30 355,30 355,40 " style="fill:white; stroke-width:1; stroke:black; " description="&lt;b&gt;HS041_27880&lt;/b&gt;&lt;br&gt;aminoglycoside phosphotransferase family protein&lt;br&gt;Location: 258877 - 259858" locus_tag="HS041_27880" class="clusterblast-orf" id="dummy-2_q15_0_all"  />
<polygon points="360,40 360,40 365,35 360,30 360,30 360,40 " style="fill:white; stroke-width:1; stroke:black; " description="&lt;b&gt;HS041_27885&lt;/b&gt;&lt;br&gt;SDR family oxidoreductase&lt;br&gt;Location: 259854 - 260604" locus_tag="HS041_27885" class="clusterblast-orf" id="dummy-2_q16_0_all"  />
<polygon points="365,40 365,40 370,35 365,30 365,30 365,40 " style="fill:white; stroke-width:1; stroke:black; " description="&lt;b&gt;HS041_27890&lt;/b&gt;&lt;br&gt;aminotransferase class III-fold pyridoxal phosphate-dependent enzyme&lt;br&gt;Location: 260622 - 261627" locus_tag="HS041_27890" class="clusterblast-orf" id="dummy-2_q17_0_all"  />
<polygon points="370,40 372,35 370,30 370,40 " style="fill:white; stroke-width:1; stroke:black; " description="&lt;b&gt;HS041_27895&lt;/b&gt;&lt;br&gt;hypothetical protein&lt;br&gt;Location: 261542 - 261935" locus_tag="HS041_27895" class="clusterblast-orf" id="dummy-2_q18_0_all"  />
<polygon points="372,35 374,30 374,40 372,35 " style="fill:white; stroke-width:1; stroke:black; " description="&lt;b&gt;HS041_27900&lt;/b&gt;&lt;br&gt;NUDIX hydrolase&lt;br&gt;Location: 261946 - 262237" locus_tag="HS041_27900" class="clusterblast-orf" id="dummy-2_q19_0_all"  />
<polygon points="374,35 379,30 380,30 380,40 379,40 374,35 " style="fill:white; stroke-width:1; stroke:black; " description="&lt;b&gt;HS041_27905&lt;/b&gt;&lt;br&gt;LLM class flavin-dependent oxidoreductase&lt;br&gt;Location: 262273 - 263350" locus_tag="HS041_27905" class="clusterblast-orf" id="dummy-2_q20_0_all"  />
<polygon points="381,35 382,30 382,40 381,35 " style="fill:white; stroke-width:1; stroke:black; " description="&lt;b&gt;HS041_27910&lt;/b&gt;&lt;br&gt;DUF2277 domain-containing protein&lt;br&gt;Location: 263456 - 263687" locus_tag="HS041_27910" class="clusterblast-orf" id="dummy-2_q21_0_all"  />
<polygon points="383,40 384,35 383,30 383,40 " style="fill:white; stroke-width:1; stroke:black; " description="&lt;b&gt;HS041_27915&lt;/b&gt;&lt;br&gt;hypothetical protein&lt;br&gt;Location: 263779 - 264034" locus_tag="HS041_27915" class="clusterblast-orf" id="dummy-2_q22_0_all"  />
<polygon points="384,35 389,30 390,30 390,40 389,40 384,35 " style="fill:white; stroke-width:1; stroke:black; " description="&lt;b&gt;HS041_27920&lt;/b&gt;&lt;br&gt;hypothetical protein&lt;br&gt;Location: 264099 - 265164" locus_tag="HS041_27920" class="clusterblast-orf" id="dummy-2_q23_0_all"  />
<polygon points="393,40 393,40 398,35 393,30 393,30 393,40 " style="fill:white; stroke-width:1; stroke:black; " description="&lt;b&gt;HS041_27925&lt;/b&gt;&lt;br&gt;hypothetical protein&lt;br&gt;Location: 265590 - 266523" locus_tag="HS041_27925" class="clusterblast-orf" id="dummy-2_q24_0_all"  />
<polygon points="398,40 402,35 398,30 398,40 " style="fill:white; stroke-width:1; stroke:black; " description="&lt;b&gt;HS041_27930&lt;/b&gt;&lt;br&gt;isoprenylcysteine carboxylmethyltransferase family protein&lt;br&gt;Location: 266519 - 267173" locus_tag="HS041_27930" class="clusterblast-orf" id="dummy-2_q25_0_all"  />
<polygon points="402,40 412,40 417,35 412,30 402,30 402,40 " style="fill:white; stroke-width:1; stroke:black; " description="&lt;b&gt;HS041_27935&lt;/b&gt;&lt;br&gt;phosphoenolpyruvate synthase&lt;br&gt;Location: 267172 - 269875" locus_tag="HS041_27935" class="clusterblast-orf" id="dummy-2_q26_0_all"  />
<polygon points="417,40 417,40 422,35 417,30 417,30 417,40 " style="fill:white; stroke-width:1; stroke:black; " description="&lt;b&gt;HS041_27940&lt;/b&gt;&lt;br&gt;hypothetical protein&lt;br&gt;Location: 269919 - 270783" locus_tag="HS041_27940" class="clusterblast-orf" id="dummy-2_q27_0_all"  />
<polygon points="422,40 424,40 429,35 424,30 422,30 422,40 " style="fill:white; stroke-width:1; stroke:black; " description="&lt;b&gt;HS041_27945&lt;/b&gt;&lt;br&gt;cytochrome P450&lt;br&gt;Location: 270779 - 271979" locus_tag="HS041_27945" class="clusterblast-orf" id="dummy-2_q28_0_all"  />
<polygon points="429,40 433,35 429,30 429,40 " style="fill:white; stroke-width:1; stroke:black; " description="&lt;b&gt;HS041_27950&lt;/b&gt;&lt;br&gt;nitroreductase family protein&lt;br&gt;Location: 272001 - 272703" locus_tag="HS041_27950" class="clusterblast-orf" id="dummy-2_q29_0_all"  />
<polygon points="437,35 438,30 438,40 437,35 " style="fill:white; stroke-width:1; stroke:black; " description="&lt;b&gt;HS041_27955&lt;/b&gt;&lt;br&gt;hypothetical protein&lt;br&gt;Location: 273323 - 273629" locus_tag="HS041_27955" class="clusterblast-orf" id="dummy-2_q30_0_all"  />
<polygon points="438,35 442,30 442,40 438,35 " style="fill:#d81515; stroke-width:1; stroke:black; " description="&lt;b&gt;HS041_27960&lt;/b&gt;&lt;br&gt;3'-5' exonuclease&lt;br&gt;Location: 273622 - 274234" locus_tag="HS041_27960" class="clusterblast-orf" id="dummy-2_q31_0_all"  />
<polygon points="442,35 443,30 443,40 442,35 " style="fill:#15d815; stroke-width:1; stroke:black; " description="&lt;b&gt;HS041_27965&lt;/b&gt;&lt;br&gt;radical SAM protein&lt;br&gt;Location: 274244 - 274418" locus_tag="HS041_27965" class="clusterblast-orf" id="dummy-2_q32_0_all"  />
<polygon points="445,35 450,30 450,30 450,40 450,40 445,35 " style="fill:#1515d8; stroke-width:1; stroke:black; " description="&lt;b&gt;HS041_27970&lt;/b&gt;&lt;br&gt;helix-turn-helix domain-containing protein&lt;br&gt;Location: 274776 - 275628" locus_tag="HS041_27970" class="clusterblast-orf" id="dummy-2_q33_0_all"  />
<polygon points="450,35 453,30 453,40 450,35 " style="fill:#d815d8; stroke-width:1; stroke:black; " description="&lt;b&gt;HS041_27975&lt;/b&gt;&lt;br&gt;hypothetical protein&lt;br&gt;Location: 275641 - 276157" locus_tag="HS041_27975" class="clusterblast-orf" id="dummy-2_q34_0_all"  />
<polygon points="453,35 454,30 454,40 453,35 " style="fill:white; stroke-width:1; stroke:black; " description="&lt;b&gt;HS041_27980&lt;/b&gt;&lt;br&gt;hypothetical protein&lt;br&gt;Location: 276137 - 276365" locus_tag="HS041_27980" class="clusterblast-orf" id="dummy-2_q35_0_all"  />
<polygon points="455,40 455,40 460,35 455,30 455,30 455,40 " style="fill:white; stroke-width:1; stroke:black; " description="&lt;b&gt;HS041_27985&lt;/b&gt;&lt;br&gt;SAM-dependent methyltransferase&lt;br&gt;Location: 276597 - 277350" locus_tag="HS041_27985" class="clusterblast-orf" id="dummy-2_q36_0_all"  />
<polygon points="459,40 462,35 459,30 459,40 " style="fill:white; stroke-width:1; stroke:black; " description="&lt;b&gt;HS041_27990&lt;/b&gt;&lt;br&gt;hypothetical protein&lt;br&gt;Location: 277346 - 277712" locus_tag="HS041_27990" class="clusterblast-orf" id="dummy-2_q37_0_all"  />
<polygon points="462,40 465,35 462,30 462,40 " style="fill:white; stroke-width:1; stroke:black; " description="&lt;b&gt;HS041_27995&lt;/b&gt;&lt;br&gt;hypothetical protein&lt;br&gt;Location: 277708 - 278359" locus_tag="HS041_27995" class="clusterblast-orf" id="dummy-2_q38_0_all"  />
<polygon points="467,40 468,35 467,30 467,40 " style="fill:white; stroke-width:1; stroke:black; " description="&lt;b&gt;HS041_28000&lt;/b&gt;&lt;br&gt;hypothetical protein&lt;br&gt;Location: 278684 - 278897" locus_tag="HS041_28000" class="clusterblast-orf" id="dummy-2_q39_0_all"  />
<polygon points="470,35 473,30 473,40 470,35 " style="fill:#d8d815; stroke-width:1; stroke:black; " description="&lt;b&gt;HS041_28005&lt;/b&gt;&lt;br&gt;dihydrofolate reductase family protein&lt;br&gt;Location: 279139 - 279721" locus_tag="HS041_28005" class="clusterblast-orf" id="dummy-2_q40_0_all"  />
<polygon points="473,35 478,30 478,30 478,40 478,40 473,35 " style="fill:#15d8d8; stroke-width:1; stroke:black; " description="&lt;b&gt;HS041_28010&lt;/b&gt;&lt;br&gt;AraC family transcriptional regulator&lt;br&gt;Location: 279808 - 280630" locus_tag="HS041_28010" class="clusterblast-orf" id="dummy-2_q41_0_all"  />
<polygon points="478,40 481,35 478,30 478,40 " style="fill:white; stroke-width:1; stroke:black; " description="&lt;b&gt;HS041_28015&lt;/b&gt;&lt;br&gt;hypothetical protein&lt;br&gt;Location: 280677 - 281186" locus_tag="HS041_28015" class="clusterblast-orf" id="dummy-2_q42_0_all"  />
<polygon points="481,40 483,35 481,30 481,40 " style="fill:white; stroke-width:1; stroke:black; " description="&lt;b&gt;HS041_28020&lt;/b&gt;&lt;br&gt;hypothetical protein&lt;br&gt;Location: 281229 - 281448" locus_tag="HS041_28020" class="clusterblast-orf" id="dummy-2_q43_0_all"  />
<polygon points="484,40 490,40 495,35 490,30 484,30 484,40 " style="fill:white; stroke-width:1; stroke:black; " description="&lt;b&gt;HS041_28025&lt;/b&gt;&lt;br&gt;hypothetical protein&lt;br&gt;Location: 281691 - 283671" locus_tag="HS041_28025" class="clusterblast-orf" id="dummy-2_q44_0_all"  />
<polygon points="497,35 501,30 501,40 497,35 " style="fill:white; stroke-width:1; stroke:black; " description="&lt;b&gt;HS041_28030&lt;/b&gt;&lt;br&gt;DUF4328 domain-containing protein&lt;br&gt;Location: 283897 - 284620" locus_tag="HS041_28030" class="clusterblast-orf" id="dummy-2_q45_0_all"  />
</g>
<g label="BGC0000078" description="BGC0000078_c1: incednine (2% of genes show similarity), Polyketide" class="clusterblast-cluster"  >
<text x="5" y="70" class="clusterblast-acc"  >
<a xlink:href="https://mibig.secondarymetabolites.org/go/BGC0000078/1" target="_blank">BGC0000078</a>: incednine                                                                        (2% of genes show similarity), Polyketide</text>
<line x1="10" y1="85" x2="778.0" y2="85" style="stroke-width:1; stroke:grey; "  />
</g>
<g id="a2_000"  >
<polygon points="0,90 3,85 0,80 0,90 " style="fill:white; stroke-width:1; stroke:black; " description="&lt;b&gt;BAP34773.1&lt;/b&gt;&lt;br&gt;hypothetical protein&lt;br&gt;Location: 137706 - 137122" locus_tag="BAP34773.1" class="clusterblast-orf" id="dummy-2_h2_3_0"  />
</g>
<g id="a2_001"  >
<polygon points="3,90 5,85 3,80 3,90 " style="fill:white; stroke-width:1; stroke:black; " description="&lt;b&gt;BAP34772.1&lt;/b&gt;&lt;br&gt;hypothetical protein&lt;br&gt;Location: 137125 - 136709" locus_tag="BAP34772.1" class="clusterblast-orf" id="dummy-2_h2_3_1"  />
</g>
<g id="a2_002"  >
<polygon points="5,90 8,85 5,80 5,90 " style="fill:white; stroke-width:1; stroke:black; " description="&lt;b&gt;BAP34771.1&lt;/b&gt;&lt;br&gt;hypothetical protein&lt;br&gt;Location: 136650 - 136213" locus_tag="BAP34771.1" class="clusterblast-orf" id="dummy-2_h2_3_2"  />
</g>
<g id="a2_003"  >
<polygon points="8,90 12,90 17,85 12,80 8,80 8,90 " style="fill:white; stroke-width:1; stroke:black; " description="&lt;b&gt;BAP34770.1&lt;/b&gt;&lt;br&gt;spermidine synthase&lt;br&gt;Location: 136205 - 134598" locus_tag="BAP34770.1" class="clusterblast-orf" id="dummy-2_h2_3_3"  />
</g>
<g id="a2_004"  >
<polygon points="18,85 20,80 20,90 18,85 " style="fill:white; stroke-width:1; stroke:black; " description="&lt;b&gt;BAP34769.1&lt;/b&gt;&lt;br&gt;hypothetical protein&lt;br&gt;Location: 134511 - 134104" locus_tag="BAP34769.1" class="clusterblast-orf" id="dummy-2_h2_3_4"  />
</g>
<g id="a2_005"  >
<polygon points="22,90 25,85 22,80 22,90 " style="fill:white; stroke-width:1; stroke:black; " description="&lt;b&gt;BAP34768.1&lt;/b&gt;&lt;br&gt;O-methyltransferase&lt;br&gt;Location: 133809 - 133147" locus_tag="BAP34768.1" class="clusterblast-orf" id="dummy-2_h2_3_5"  />
</g>
<g id="a2_006"  >
<polygon points="27,85 32,80 33,80 33,90 32,90 27,85 " style="fill:white; stroke-width:1; stroke:black; " description="&lt;b&gt;BAP34767.1&lt;/b&gt;&lt;br&gt;FkbH-like protein&lt;br&gt;Location: 132865 - 131744" locus_tag="BAP34767.1" class="clusterblast-orf" id="dummy-2_h2_3_6"  />
</g>
<g id="a2_007"  >
<polygon points="33,85 38,80 40,80 40,90 38,90 33,85 " style="fill:white; stroke-width:1; stroke:black; " description="&lt;b&gt;BAP34766.1&lt;/b&gt;&lt;br&gt;acyl-CoA dehydrogenase&lt;br&gt;Location: 131727 - 130495" locus_tag="BAP34766.1" class="clusterblast-orf" id="dummy-2_h2_3_7"  />
</g>
<g id="a2_008"  >
<polygon points="40,85 42,80 42,90 40,85 " style="fill:white; stroke-width:1; stroke:black; " description="&lt;b&gt;BAP34765.1&lt;/b&gt;&lt;br&gt;acyl carrier protein&lt;br&gt;Location: 130502 - 130206" locus_tag="BAP34765.1" class="clusterblast-orf" id="dummy-2_h2_3_8"  />
</g>
<g id="a2_009"  >
<polygon points="42,85 47,80 47,80 47,90 47,90 42,85 " style="fill:white; stroke-width:1; stroke:black; " description="&lt;b&gt;BAP34764.1&lt;/b&gt;&lt;br&gt;glyceryl-ACP oxidoreductase&lt;br&gt;Location: 130209 - 129343" locus_tag="BAP34764.1" class="clusterblast-orf" id="dummy-2_h2_3_9"  />
</g>
<g id="a2_0010"  >
<polygon points="52,90 113,90 118,85 113,80 52,80 52,90 " style="fill:white; stroke-width:1; stroke:black; " description="&lt;b&gt;BAP34763.1&lt;/b&gt;&lt;br&gt;type I polyketide synthase&lt;br&gt;Location: 128485 - 116795" locus_tag="BAP34763.1" class="clusterblast-orf" id="dummy-2_h2_3_10"  />
</g>
<g id="a2_0011"  >
<polygon points="119,90 122,85 119,80 119,90 " style="fill:white; stroke-width:1; stroke:black; " description="&lt;b&gt;BAP34762.1&lt;/b&gt;&lt;br&gt;secreted protein&lt;br&gt;Location: 116555 - 116103" locus_tag="BAP34762.1" class="clusterblast-orf" id="dummy-2_h2_3_11"  />
</g>
<g id="a2_0012"  >
<polygon points="125,85 130,80 132,80 132,90 130,90 125,85 " style="fill:white; stroke-width:1; stroke:black; " description="&lt;b&gt;BAP34761.1&lt;/b&gt;&lt;br&gt;O-methyltransferase&lt;br&gt;Location: 115568 - 114372" locus_tag="BAP34761.1" class="clusterblast-orf" id="dummy-2_h2_3_12"  />
</g>
<g id="a2_0013"  >
<polygon points="132,85 137,80 137,80 137,90 137,90 132,85 " style="fill:white; stroke-width:1; stroke:black; " description="&lt;b&gt;BAP34760.1&lt;/b&gt;&lt;br&gt;hypothetical protein&lt;br&gt;Location: 114375 - 113419" locus_tag="BAP34760.1" class="clusterblast-orf" id="dummy-2_h2_3_13"  />
</g>
<g id="a2_0014"  >
<polygon points="137,85 139,80 139,90 137,85 " style="fill:white; stroke-width:1; stroke:black; " description="&lt;b&gt;BAP34759.1&lt;/b&gt;&lt;br&gt;hypothetical protein&lt;br&gt;Location: 113415 - 113029" locus_tag="BAP34759.1" class="clusterblast-orf" id="dummy-2_h2_3_14"  />
</g>
<g id="a2_0015"  >
<polygon points="140,85 143,80 143,90 140,85 " style="fill:white; stroke-width:1; stroke:black; " description="&lt;b&gt;BAP34758.1&lt;/b&gt;&lt;br&gt;hypothetical protein&lt;br&gt;Location: 112819 - 112454" locus_tag="BAP34758.1" class="clusterblast-orf" id="dummy-2_h2_3_15"  />
</g>
<g id="a2_0016"  >
<polygon points="142,90 144,85 142,80 142,90 " style="fill:white; stroke-width:1; stroke:black; " description="&lt;b&gt;BAP34757.1&lt;/b&gt;&lt;br&gt;hypothetical protein&lt;br&gt;Location: 112504 - 112262" locus_tag="BAP34757.1" class="clusterblast-orf" id="dummy-2_h2_3_16"  />
</g>
<g id="a2_0017"  >
<polygon points="156,90 157,85 156,80 156,90 " style="fill:white; stroke-width:1; stroke:black; " description="&lt;b&gt;BAP34756.1&lt;/b&gt;&lt;br&gt;hypothetical protein&lt;br&gt;Location: 110147 - 109890" locus_tag="BAP34756.1" class="clusterblast-orf" id="dummy-2_h2_3_17"  />
</g>
<g id="a2_0018"  >
<polygon points="158,85 162,80 162,90 158,85 " style="fill:white; stroke-width:1; stroke:black; " description="&lt;b&gt;BAP34755.1&lt;/b&gt;&lt;br&gt;hypothetical protein&lt;br&gt;Location: 109738 - 109004" locus_tag="BAP34755.1" class="clusterblast-orf" id="dummy-2_h2_3_18"  />
</g>
<g id="a2_0019"  >
<polygon points="162,90 166,90 171,85 166,80 162,80 162,90 " style="fill:white; stroke-width:1; stroke:black; " description="&lt;b&gt;BAP34754.1&lt;/b&gt;&lt;br&gt;hypothetical protein&lt;br&gt;Location: 108973 - 107471" locus_tag="BAP34754.1" class="clusterblast-orf" id="dummy-2_h2_3_19"  />
</g>
<g id="a2_0020"  >
<polygon points="170,90 172,90 177,85 172,80 170,80 170,90 " style="fill:white; stroke-width:1; stroke:black; " description="&lt;b&gt;BAP34753.1&lt;/b&gt;&lt;br&gt;hypothetical protein&lt;br&gt;Location: 107517 - 106414" locus_tag="BAP34753.1" class="clusterblast-orf" id="dummy-2_h2_3_20"  />
</g>
<g id="a2_0021"  >
<polygon points="189,90 193,85 189,80 189,90 " style="fill:white; stroke-width:1; stroke:black; " description="&lt;b&gt;BAP34752.1&lt;/b&gt;&lt;br&gt;phytanoyl-CoA dioxygenase&lt;br&gt;Location: 104269 - 103460" locus_tag="BAP34752.1" class="clusterblast-orf" id="dummy-2_h2_3_21"  />
</g>
<g id="a2_0022"  >
<polygon points="193,90 197,85 193,80 193,90 " style="fill:white; stroke-width:1; stroke:black; " description="&lt;b&gt;BAP34751.1&lt;/b&gt;&lt;br&gt;hypothetical protein&lt;br&gt;Location: 103463 - 102813" locus_tag="BAP34751.1" class="clusterblast-orf" id="dummy-2_h2_3_22"  />
</g>
<g id="a2_0023"  >
<polygon points="196,85 201,80 201,80 201,90 201,90 196,85 " style="fill:white; stroke-width:1; stroke:black; " description="&lt;b&gt;BAP34750.1&lt;/b&gt;&lt;br&gt;dehydrogenase&lt;br&gt;Location: 102950 - 102204" locus_tag="BAP34750.1" class="clusterblast-orf" id="dummy-2_h2_3_23"  />
</g>
<g id="a2_0024"  >
<polygon points="201,90 204,90 209,85 204,80 201,80 201,90 " style="fill:white; stroke-width:1; stroke:black; " description="&lt;b&gt;BAP34749.1&lt;/b&gt;&lt;br&gt;glutamate-1-semialdehyde aminotransferase&lt;br&gt;Location: 102102 - 100768" locus_tag="BAP34749.1" class="clusterblast-orf" id="dummy-2_h2_3_24"  />
</g>
<g id="a2_0025"  >
<polygon points="222,90 222,90 227,85 222,80 222,80 222,90 " style="fill:white; stroke-width:1; stroke:black; " description="&lt;b&gt;BAP34748.1&lt;/b&gt;&lt;br&gt;glycosyltransferase&lt;br&gt;Location: 98396 - 97467" locus_tag="BAP34748.1" class="clusterblast-orf" id="dummy-2_h2_3_25"  />
</g>
<g id="a2_0026"  >
<polygon points="227,90 230,90 235,85 230,80 227,80 227,90 " style="fill:white; stroke-width:1; stroke:black; " description="&lt;b&gt;BAP34747.1&lt;/b&gt;&lt;br&gt;cytochrome P450&lt;br&gt;Location: 97470 - 96199" locus_tag="BAP34747.1" class="clusterblast-orf" id="dummy-2_h2_3_26"  />
</g>
<g id="a2_0027"  >
<polygon points="235,90 237,90 242,85 237,80 235,80 235,90 " style="fill:white; stroke-width:1; stroke:black; " description="&lt;b&gt;BAP34746.1&lt;/b&gt;&lt;br&gt;glycosyltransferase&lt;br&gt;Location: 96184 - 94907" locus_tag="BAP34746.1" class="clusterblast-orf" id="dummy-2_h2_3_27"  />
</g>
<g id="a2_0028"  >
<polygon points="242,85 247,80 250,80 250,90 247,90 242,85 " style="fill:white; stroke-width:1; stroke:black; " description="&lt;b&gt;BAP34745.1&lt;/b&gt;&lt;br&gt;aminotransferase&lt;br&gt;Location: 94852 - 93557" locus_tag="BAP34745.1" class="clusterblast-orf" id="dummy-2_h2_3_28"  />
</g>
<g id="a2_0029"  >
<polygon points="250,85 255,80 257,80 257,90 255,90 250,85 " style="fill:white; stroke-width:1; stroke:black; " description="&lt;b&gt;BAP34744.1&lt;/b&gt;&lt;br&gt;NDP-hexose-3,4-dehydratase&lt;br&gt;Location: 93567 - 92233" locus_tag="BAP34744.1" class="clusterblast-orf" id="dummy-2_h2_3_29"  />
</g>
<g id="a2_0030"  >
<polygon points="257,85 262,80 263,80 263,90 262,90 257,85 " style="fill:white; stroke-width:1; stroke:black; " description="&lt;b&gt;BAP34743.1&lt;/b&gt;&lt;br&gt;NDP-hexose-3-ketoreductase&lt;br&gt;Location: 92230 - 91214" locus_tag="BAP34743.1" class="clusterblast-orf" id="dummy-2_h2_3_30"  />
</g>
<g id="a2_0031"  >
<polygon points="263,85 268,80 271,80 271,90 268,90 263,85 " style="fill:white; stroke-width:1; stroke:black; " description="&lt;b&gt;BAP34742.1&lt;/b&gt;&lt;br&gt;NDP-hexose 2,3-dehydratase&lt;br&gt;Location: 91136 - 89781" locus_tag="BAP34742.1" class="clusterblast-orf" id="dummy-2_h2_3_31"  />
</g>
<g id="a2_0032"  >
<polygon points="274,90 276,90 281,85 276,80 274,80 274,90 " style="fill:white; stroke-width:1; stroke:black; " description="&lt;b&gt;BAP34741.1&lt;/b&gt;&lt;br&gt;glycosyltransferase&lt;br&gt;Location: 89280 - 88093" locus_tag="BAP34741.1" class="clusterblast-orf" id="dummy-2_h2_3_32"  />
</g>
<g id="a2_0033"  >
<polygon points="284,90 309,90 314,85 309,80 284,80 284,90 " style="fill:white; stroke-width:1; stroke:black; " description="&lt;b&gt;BAP34740.1&lt;/b&gt;&lt;br&gt;type I polyketide synthase&lt;br&gt;Location: 87412 - 82241" locus_tag="BAP34740.1" class="clusterblast-orf" id="dummy-2_h2_3_33"  />
</g>
<g id="a2_0034"  >
<polygon points="314,90 375,90 380,85 375,80 314,80 314,90 " style="fill:white; stroke-width:1; stroke:black; " description="&lt;b&gt;BAP34739.1&lt;/b&gt;&lt;br&gt;type I polyketide synthase&lt;br&gt;Location: 82201 - 70616" locus_tag="BAP34739.1" class="clusterblast-orf" id="dummy-2_h2_3_34"  />
</g>
<g id="a2_0035"  >
<polygon points="382,85 387,80 387,80 387,90 387,90 382,85 " style="fill:white; stroke-width:1; stroke:black; " description="&lt;b&gt;BAP34738.1&lt;/b&gt;&lt;br&gt;regulatory protein TetR&lt;br&gt;Location: 70158 - 69310" locus_tag="BAP34738.1" class="clusterblast-orf" id="dummy-2_h2_3_35"  />
</g>
<g id="a2_0036"  >
<polygon points="388,90 388,90 393,85 388,80 388,80 388,90 " style="fill:white; stroke-width:1; stroke:black; " description="&lt;b&gt;BAP34737.1&lt;/b&gt;&lt;br&gt;ABC-type multidrug transport system&lt;br&gt;Location: 69200 - 68244" locus_tag="BAP34737.1" class="clusterblast-orf" id="dummy-2_h2_3_36"  />
</g>
<g id="a2_0037"  >
<polygon points="393,90 397,85 393,80 393,90 " style="fill:white; stroke-width:1; stroke:black; " description="&lt;b&gt;BAP34736.1&lt;/b&gt;&lt;br&gt;ABC-type multidrug transport system&lt;br&gt;Location: 68247 - 67450" locus_tag="BAP34736.1" class="clusterblast-orf" id="dummy-2_h2_3_37"  />
</g>
<g id="a2_0038"  >
<polygon points="399,85 404,80 404,80 404,90 404,90 399,85 " style="fill:white; stroke-width:1; stroke:black; " description="&lt;b&gt;BAP34735.1&lt;/b&gt;&lt;br&gt;thioesterase involved in non-ribosomal peptide biosynthesis&lt;br&gt;Location: 67210 - 66380" locus_tag="BAP34735.1" class="clusterblast-orf" id="dummy-2_h2_3_38"  />
</g>
<g id="a2_0039"  >
<polygon points="405,90 491,90 496,85 491,80 405,80 405,90 " style="fill:white; stroke-width:1; stroke:black; " description="&lt;b&gt;BAP34734.1&lt;/b&gt;&lt;br&gt;type I polyketide synthase&lt;br&gt;Location: 66139 - 50108" locus_tag="BAP34734.1" class="clusterblast-orf" id="dummy-2_h2_3_39"  />
</g>
<g id="a2_0040"  >
<polygon points="496,90 553,90 558,85 553,80 496,80 496,90 " style="fill:white; stroke-width:1; stroke:black; " description="&lt;b&gt;BAP34733.1&lt;/b&gt;&lt;br&gt;type I polyketide synthase&lt;br&gt;Location: 50023 - 39077" locus_tag="BAP34733.1" class="clusterblast-orf" id="dummy-2_h2_3_40"  />
</g>
<g id="a2_0041"  >
<polygon points="560,85 563,80 563,90 560,85 " style="fill:white; stroke-width:1; stroke:black; " description="&lt;b&gt;BAP34732.1&lt;/b&gt;&lt;br&gt;hypothetical protein&lt;br&gt;Location: 38669 - 38154" locus_tag="BAP34732.1" class="clusterblast-orf" id="dummy-2_h2_3_41"  />
</g>
<g id="a2_0042"  >
<polygon points="564,85 568,80 568,90 564,85 " style="fill:white; stroke-width:1; stroke:black; " description="&lt;b&gt;BAP34731.1&lt;/b&gt;&lt;br&gt;oxidoreductase&lt;br&gt;Location: 38023 - 37373" locus_tag="BAP34731.1" class="clusterblast-orf" id="dummy-2_h2_3_42"  />
</g>
<g id="a2_0043"  >
<polygon points="568,85 571,80 571,90 568,85 " style="fill:white; stroke-width:1; stroke:black; " description="&lt;b&gt;BAP34730.1&lt;/b&gt;&lt;br&gt;hypothetical protein&lt;br&gt;Location: 37376 - 36768" locus_tag="BAP34730.1" class="clusterblast-orf" id="dummy-2_h2_3_43"  />
</g>
<g id="a2_0044"  >
<polygon points="571,85 575,80 575,90 571,85 " style="fill:#d81515; stroke-width:1; stroke:black; " description="&lt;b&gt;BAP34729.1&lt;/b&gt;&lt;br&gt;DNA polymerase III&lt;br&gt;Location: 36774 - 36172&lt;br&gt;&lt;br&gt;&lt;b&gt;BlastP hit with HS041_27960&lt;/b&gt;&lt;br&gt;Percentage identity: 53&lt;br&gt;Percentage coverage: 100&lt;br&gt;BLAST bit score: 225&lt;br&gt;E-value: 3.25e-75" locus_tag="BAP34729.1" class="clusterblast-orf" id="dummy-2_h2_3_44"  />
</g>
<g id="a2_0045"  >
<polygon points="575,85 580,80 581,80 581,90 580,90 575,85 " style="fill:#15d815; stroke-width:1; stroke:black; " description="&lt;b&gt;BAP34728.1&lt;/b&gt;&lt;br&gt;hypothetical protein&lt;br&gt;Location: 36175 - 34997&lt;br&gt;&lt;br&gt;&lt;b&gt;BlastP hit with HS041_27965&lt;/b&gt;&lt;br&gt;Percentage identity: 73&lt;br&gt;Percentage coverage: 91&lt;br&gt;BLAST bit score: 86&lt;br&gt;E-value: 1.52e-21" locus_tag="BAP34728.1" class="clusterblast-orf" id="dummy-2_h2_3_45"  />
</g>
<g id="a2_0046"  >
<polygon points="581,85 586,80 587,80 587,90 586,90 581,85 " style="fill:white; stroke-width:1; stroke:black; " description="&lt;b&gt;BAP34727.1&lt;/b&gt;&lt;br&gt;nucleoside diphosphate kinase&lt;br&gt;Location: 35007 - 33979" locus_tag="BAP34727.1" class="clusterblast-orf" id="dummy-2_h2_3_46"  />
</g>
<g id="a2_0047"  >
<polygon points="587,85 592,80 593,80 593,90 592,90 587,85 " style="fill:white; stroke-width:1; stroke:black; " description="&lt;b&gt;BAP34726.1&lt;/b&gt;&lt;br&gt;thymidylate synthase&lt;br&gt;Location: 33982 - 32960" locus_tag="BAP34726.1" class="clusterblast-orf" id="dummy-2_h2_3_47"  />
</g>
<g id="a2_0048"  >
<polygon points="593,85 595,80 595,90 593,85 " style="fill:white; stroke-width:1; stroke:black; " description="&lt;b&gt;BAP34725.1&lt;/b&gt;&lt;br&gt;hypothetical protein&lt;br&gt;Location: 32952 - 32596" locus_tag="BAP34725.1" class="clusterblast-orf" id="dummy-2_h2_3_48"  />
</g>
<g id="a2_0049"  >
<polygon points="595,85 597,80 597,90 595,85 " style="fill:white; stroke-width:1; stroke:black; " description="&lt;b&gt;BAP34724.1&lt;/b&gt;&lt;br&gt;Putative hydrolase&lt;br&gt;Location: 32599 - 32138" locus_tag="BAP34724.1" class="clusterblast-orf" id="dummy-2_h2_3_49"  />
</g>
<g id="a2_0050"  >
<polygon points="598,85 600,80 600,90 598,85 " style="fill:white; stroke-width:1; stroke:black; " description="&lt;b&gt;BAP34723.1&lt;/b&gt;&lt;br&gt;hypothetical protein&lt;br&gt;Location: 32032 - 31628" locus_tag="BAP34723.1" class="clusterblast-orf" id="dummy-2_h2_3_50"  />
</g>
<g id="a2_0051"  >
<polygon points="601,85 606,80 609,80 609,90 606,90 601,85 " style="fill:white; stroke-width:1; stroke:black; " description="&lt;b&gt;BAP34722.1&lt;/b&gt;&lt;br&gt;hypothetical protein&lt;br&gt;Location: 31583 - 30120" locus_tag="BAP34722.1" class="clusterblast-orf" id="dummy-2_h2_3_51"  />
</g>
<g id="a2_0052"  >
<polygon points="609,85 611,80 611,90 609,85 " style="fill:white; stroke-width:1; stroke:black; " description="&lt;b&gt;BAP34721.1&lt;/b&gt;&lt;br&gt;hypothetical protein&lt;br&gt;Location: 30123 - 29779" locus_tag="BAP34721.1" class="clusterblast-orf" id="dummy-2_h2_3_52"  />
</g>
<g id="a2_0053"  >
<polygon points="613,85 617,80 617,90 613,85 " style="fill:white; stroke-width:1; stroke:black; " description="&lt;b&gt;BAP34720.1&lt;/b&gt;&lt;br&gt;transcriptional regulator&lt;br&gt;Location: 29308 - 28673" locus_tag="BAP34720.1" class="clusterblast-orf" id="dummy-2_h2_3_53"  />
</g>
<g id="a2_0054"  >
<polygon points="622,85 627,80 628,80 628,90 627,90 622,85 " style="fill:white; stroke-width:1; stroke:black; " description="&lt;b&gt;BAP34719.1&lt;/b&gt;&lt;br&gt;cytochrome P450&lt;br&gt;Location: 27882 - 26677" locus_tag="BAP34719.1" class="clusterblast-orf" id="dummy-2_h2_3_54"  />
</g>
<g id="a2_0055"  >
<polygon points="629,85 634,80 638,80 638,90 634,90 629,85 " style="fill:white; stroke-width:1; stroke:black; " description="&lt;b&gt;BAP34718.1&lt;/b&gt;&lt;br&gt;AMP-dependent synthetase and ligase&lt;br&gt;Location: 26522 - 24954" locus_tag="BAP34718.1" class="clusterblast-orf" id="dummy-2_h2_3_55"  />
</g>
<g id="a2_0056"  >
<polygon points="639,90 640,85 639,80 639,90 " style="fill:white; stroke-width:1; stroke:black; " description="&lt;b&gt;BAP34717.1&lt;/b&gt;&lt;br&gt;acyl carrier protein&lt;br&gt;Location: 24816 - 24577" locus_tag="BAP34717.1" class="clusterblast-orf" id="dummy-2_h2_3_56"  />
</g>
<g id="a2_0057"  >
<polygon points="643,90 647,85 643,80 643,90 " style="fill:white; stroke-width:1; stroke:black; " description="&lt;b&gt;BAP34716.1&lt;/b&gt;&lt;br&gt;N-methyltransferase&lt;br&gt;Location: 24132 - 23395" locus_tag="BAP34716.1" class="clusterblast-orf" id="dummy-2_h2_3_57"  />
</g>
<g id="a2_0058"  >
<polygon points="647,90 648,90 653,85 648,80 647,80 647,90 " style="fill:white; stroke-width:1; stroke:black; " description="&lt;b&gt;BAP34715.1&lt;/b&gt;&lt;br&gt;glucose-1-phosphate thymidylyltransferase&lt;br&gt;Location: 23325 - 22258" locus_tag="BAP34715.1" class="clusterblast-orf" id="dummy-2_h2_3_58"  />
</g>
<g id="a2_0059"  >
<polygon points="653,90 654,90 659,85 654,80 653,80 653,90 " style="fill:white; stroke-width:1; stroke:black; " description="&lt;b&gt;BAP34714.1&lt;/b&gt;&lt;br&gt;dTDP-glucose 4,6-dehydratase&lt;br&gt;Location: 22261 - 21287" locus_tag="BAP34714.1" class="clusterblast-orf" id="dummy-2_h2_3_59"  />
</g>
<g id="a2_0060"  >
<polygon points="660,90 662,90 667,85 662,80 660,80 660,90 " style="fill:white; stroke-width:1; stroke:black; " description="&lt;b&gt;BAP34713.1&lt;/b&gt;&lt;br&gt;methyltransferase&lt;br&gt;Location: 21036 - 19828" locus_tag="BAP34713.1" class="clusterblast-orf" id="dummy-2_h2_3_60"  />
</g>
<g id="a2_0061"  >
<polygon points="668,85 673,80 676,80 676,90 673,90 668,85 " style="fill:white; stroke-width:1; stroke:black; " description="&lt;b&gt;BAP34712.1&lt;/b&gt;&lt;br&gt;glycosyltransferase&lt;br&gt;Location: 19644 - 18316" locus_tag="BAP34712.1" class="clusterblast-orf" id="dummy-2_h2_3_61"  />
</g>
<g id="a2_0062"  >
<polygon points="678,90 678,90 683,85 678,80 678,80 678,90 " style="fill:white; stroke-width:1; stroke:black; " description="&lt;b&gt;BAP34711.1&lt;/b&gt;&lt;br&gt;proline iminopeptidase&lt;br&gt;Location: 17929 - 17000" locus_tag="BAP34711.1" class="clusterblast-orf" id="dummy-2_h2_3_62"  />
</g>
<g id="a2_0063"  >
<polygon points="684,90 687,90 692,85 687,80 684,80 684,90 " style="fill:white; stroke-width:1; stroke:black; " description="&lt;b&gt;BAP34710.1&lt;/b&gt;&lt;br&gt;radical-SAM L-lysine 2,3-aminomutase&lt;br&gt;Location: 16878 - 15517" locus_tag="BAP34710.1" class="clusterblast-orf" id="dummy-2_h2_3_63"  />
</g>
<g id="a2_0064"  >
<polygon points="692,90 694,90 699,85 694,80 692,80 692,90 " style="fill:white; stroke-width:1; stroke:black; " description="&lt;b&gt;BAP34709.1&lt;/b&gt;&lt;br&gt;(PLP)-dependent aspartate aminotransferase superfamily&lt;br&gt;Location: 15483 - 14197" locus_tag="BAP34709.1" class="clusterblast-orf" id="dummy-2_h2_3_64"  />
</g>
<g id="a2_0065"  >
<polygon points="699,90 700,90 705,85 700,80 699,80 699,90 " style="fill:white; stroke-width:1; stroke:black; " description="&lt;b&gt;BAP34708.1&lt;/b&gt;&lt;br&gt;malonyl-CoA-ACP transacylase&lt;br&gt;Location: 14182 - 13073" locus_tag="BAP34708.1" class="clusterblast-orf" id="dummy-2_h2_3_65"  />
</g>
<g id="a2_0066"  >
<polygon points="706,85 711,80 715,80 715,90 711,90 706,85 " style="fill:white; stroke-width:1; stroke:black; " description="&lt;b&gt;BAP34707.1&lt;/b&gt;&lt;br&gt;AMP-dependent synthetase and ligase&lt;br&gt;Location: 12905 - 11307" locus_tag="BAP34707.1" class="clusterblast-orf" id="dummy-2_h2_3_66"  />
</g>
<g id="a2_0067"  >
<polygon points="717,85 722,80 734,80 734,90 722,90 717,85 " style="fill:white; stroke-width:1; stroke:black; " description="&lt;b&gt;BAP34706.1&lt;/b&gt;&lt;br&gt;LuxR-family transcriptional regulator&lt;br&gt;Location: 10994 - 8085" locus_tag="BAP34706.1" class="clusterblast-orf" id="dummy-2_h2_3_67"  />
</g>
<g id="a2_0068"  >
<polygon points="735,85 740,80 741,80 741,90 740,90 735,85 " style="fill:white; stroke-width:1; stroke:black; " description="&lt;b&gt;BAP34705.1&lt;/b&gt;&lt;br&gt;NAD-dependent epimerase/dehydratase&lt;br&gt;Location: 7841 - 6885" locus_tag="BAP34705.1" class="clusterblast-orf" id="dummy-2_h2_3_68"  />
</g>
<g id="a2_0069"  >
<polygon points="741,85 746,80 749,80 749,90 746,90 741,85 " style="fill:white; stroke-width:1; stroke:black; " description="&lt;b&gt;BAP34704.1&lt;/b&gt;&lt;br&gt;UDP-glucose/GDP-mannose dehydrogenase&lt;br&gt;Location: 6820 - 5408" locus_tag="BAP34704.1" class="clusterblast-orf" id="dummy-2_h2_3_69"  />
</g>
<g id="a2_0070"  >
<polygon points="750,85 754,80 754,90 750,85 " style="fill:white; stroke-width:1; stroke:black; " description="&lt;b&gt;BAP34703.1&lt;/b&gt;&lt;br&gt;LmbE family protein&lt;br&gt;Location: 5216 - 4554" locus_tag="BAP34703.1" class="clusterblast-orf" id="dummy-2_h2_3_70"  />
</g>
<g id="a2_0071"  >
<polygon points="759,90 760,85 759,80 759,90 " style="fill:white; stroke-width:1; stroke:black; " description="&lt;b&gt;BAP34702.1&lt;/b&gt;&lt;br&gt;MbtH-like protein&lt;br&gt;Location: 3583 - 3362" locus_tag="BAP34702.1" class="clusterblast-orf" id="dummy-2_h2_3_71"  />
</g>
<g id="a2_0072"  >
<polygon points="762,90 765,85 762,80 762,90 " style="fill:white; stroke-width:1; stroke:black; " description="&lt;b&gt;BAP34701.1&lt;/b&gt;&lt;br&gt;hypothetical protein&lt;br&gt;Location: 3135 - 2644" locus_tag="BAP34701.1" class="clusterblast-orf" id="dummy-2_h2_3_72"  />
</g>
<g id="a2_0073"  >
<polygon points="765,90 767,85 765,80 765,90 " style="fill:white; stroke-width:1; stroke:black; " description="&lt;b&gt;BAP34700.1&lt;/b&gt;&lt;br&gt;hypothetical protein&lt;br&gt;Location: 2521 - 2126" locus_tag="BAP34700.1" class="clusterblast-orf" id="dummy-2_h2_3_73"  />
</g>
<g id="a2_0074"  >
<polygon points="768,85 773,80 780,80 780,90 773,90 768,85 " style="fill:white; stroke-width:1; stroke:black; " description="&lt;b&gt;BAP34699.1&lt;/b&gt;&lt;br&gt;superfamily I DNA and RNA helicase-like protein&lt;br&gt;Location: 2069 - 1" locus_tag="BAP34699.1" class="clusterblast-orf" id="dummy-2_h2_3_74"  />
</g>
</svg>
