<svg xmlns="http://www.w3.org/2000/svg" xmlns:xlink="http://www.w3.org/1999/xlink" version="1.1" x="0" y="0" height="230" width="800" viewBox="0 0 800 230" preserveAspectRatio="none"  >
<g label="Query sequence" class="clusterblast-cluster"  >
<text x="5" y="20" class="clusterblast-acc"  >
Query sequence</text>
<line x1="10" y1="35" x2="778.0" y2="35" style="stroke-width:1; stroke:grey; "  />
<polygon points="62,40 67,40 72,35 67,30 62,30 62,40 " style="fill:white; stroke-width:1; stroke:black; " description="&lt;b&gt;HS041_33900&lt;/b&gt;&lt;br&gt;ABC transporter ATP-binding protein&lt;br&gt;Location: 706760 - 707567" locus_tag="HS041_33900" class="clusterblast-orf" id="dummy-3_q0_0_all"  />
<polygon points="73,40 89,40 94,35 89,30 73,30 73,40 " style="fill:white; stroke-width:1; stroke:black; " description="&lt;b&gt;HS041_33905&lt;/b&gt;&lt;br&gt;CocE/NonD family hydrolase&lt;br&gt;Location: 707603 - 709274" locus_tag="HS041_33905" class="clusterblast-orf" id="dummy-3_q1_0_all"  />
<polygon points="97,40 98,40 103,35 98,30 97,30 97,40 " style="fill:white; stroke-width:1; stroke:black; " description="&lt;b&gt;HS041_33910&lt;/b&gt;&lt;br&gt;DUF3237 domain-containing protein&lt;br&gt;Location: 709435 - 709912" locus_tag="HS041_33910" class="clusterblast-orf" id="dummy-3_q2_0_all"  />
<polygon points="105,40 108,40 113,35 108,30 105,30 105,40 " style="fill:white; stroke-width:1; stroke:black; " description="&lt;b&gt;HS041_33915&lt;/b&gt;&lt;br&gt;DUF2238 domain-containing protein&lt;br&gt;Location: 710106 - 710724" locus_tag="HS041_33915" class="clusterblast-orf" id="dummy-3_q3_0_all"  />
<polygon points="116,40 126,40 131,35 126,30 116,30 116,40 " style="fill:#d81515; stroke-width:1; stroke:black; " description="&lt;b&gt;HS041_33920&lt;/b&gt;&lt;br&gt;GTP-binding protein&lt;br&gt;Location: 710941 - 712084" locus_tag="HS041_33920" class="clusterblast-orf" id="dummy-3_q4_0_all"  />
<polygon points="131,40 134,35 131,30 131,40 " style="fill:#5cd815; stroke-width:1; stroke:black; " description="&lt;b&gt;HS041_33925&lt;/b&gt;&lt;br&gt;30S ribosomal protein S18&lt;br&gt;Location: 712080 - 712308" locus_tag="HS041_33925" class="clusterblast-orf" id="dummy-3_q5_0_all"  />
<polygon points="136,40 138,35 136,30 136,40 " style="fill:#15a3d8; stroke-width:1; stroke:black; " description="&lt;b&gt;HS041_33930&lt;/b&gt;&lt;br&gt;50S ribosomal protein L33&lt;br&gt;Location: 712433 - 712598" locus_tag="HS041_33930" class="clusterblast-orf" id="dummy-3_q6_0_all"  />
<polygon points="138,40 141,35 138,30 138,40 " style="fill:#c715d8; stroke-width:1; stroke:black; " description="&lt;b&gt;HS041_33935&lt;/b&gt;&lt;br&gt;type B 50S ribosomal protein L31&lt;br&gt;Location: 712602 - 712848" locus_tag="HS041_33935" class="clusterblast-orf" id="dummy-3_q7_0_all"  />
<polygon points="141,40 144,35 141,30 141,40 " style="fill:#d88015; stroke-width:1; stroke:black; " description="&lt;b&gt;HS041_33940&lt;/b&gt;&lt;br&gt;50S ribosomal protein L28&lt;br&gt;Location: 712847 - 713084" locus_tag="HS041_33940" class="clusterblast-orf" id="dummy-3_q8_0_all"  />
<polygon points="144,40 148,35 144,30 144,40 " style="fill:#15d839; stroke-width:1; stroke:black; " description="&lt;b&gt;HS041_33945&lt;/b&gt;&lt;br&gt;30S ribosomal protein S14&lt;br&gt;Location: 713083 - 713383" locus_tag="HS041_33945" class="clusterblast-orf" id="dummy-3_q9_0_all"  />
<polygon points="148,40 150,35 148,30 148,40 " style="fill:white; stroke-width:1; stroke:black; " description="&lt;b&gt;HS041_33950&lt;/b&gt;&lt;br&gt;50S ribosomal protein L32&lt;br&gt;Location: 713386 - 713554" locus_tag="HS041_33950" class="clusterblast-orf" id="dummy-3_q10_0_all"  />
<polygon points="152,40 157,40 162,35 157,30 152,30 152,40 " style="fill:white; stroke-width:1; stroke:black; " description="&lt;b&gt;HS041_33955&lt;/b&gt;&lt;br&gt;class I SAM-dependent methyltransferase&lt;br&gt;Location: 713649 - 714447" locus_tag="HS041_33955" class="clusterblast-orf" id="dummy-3_q11_0_all"  />
<polygon points="164,35 169,30 177,30 177,40 169,40 164,35 " style="fill:white; stroke-width:1; stroke:black; " description="&lt;b&gt;HS041_33960&lt;/b&gt;&lt;br&gt;LacI family DNA-binding transcriptional regulator&lt;br&gt;Location: 714561 - 715590" locus_tag="HS041_33960" class="clusterblast-orf" id="dummy-3_q12_0_all"  />
<polygon points="178,35 183,30 209,30 209,40 183,40 178,35 " style="fill:#1539d8; stroke-width:1; stroke:black; " description="&lt;b&gt;HS041_33965&lt;/b&gt;&lt;br&gt;ATP-binding cassette domain-containing protein&lt;br&gt;Location: 715665 - 718005" locus_tag="HS041_33965" class="clusterblast-orf" id="dummy-3_q13_0_all"  />
<polygon points="210,40 217,40 222,35 217,30 210,30 210,40 " style="fill:white; stroke-width:1; stroke:black; " description="&lt;b&gt;HS041_33970&lt;/b&gt;&lt;br&gt;YafY family transcriptional regulator&lt;br&gt;Location: 718114 - 719071" locus_tag="HS041_33970" class="clusterblast-orf" id="dummy-3_q14_0_all"  />
<polygon points="224,35 229,30 236,30 236,40 229,40 224,35 " style="fill:white; stroke-width:1; stroke:black; " description="&lt;b&gt;HS041_33975&lt;/b&gt;&lt;br&gt;hypothetical protein&lt;br&gt;Location: 719203 - 720076" locus_tag="HS041_33975" class="clusterblast-orf" id="dummy-3_q15_0_all"  />
<polygon points="237,40 240,40 245,35 240,30 237,30 237,40 " style="fill:white; stroke-width:1; stroke:black; " description="&lt;b&gt;HS041_33980&lt;/b&gt;&lt;br&gt;winged helix-turn-helix transcriptional regulator&lt;br&gt;Location: 720196 - 720811" locus_tag="HS041_33980" class="clusterblast-orf" id="dummy-3_q16_0_all"  />
<polygon points="247,40 259,40 264,35 259,30 247,30 247,40 " style="fill:#d81580; stroke-width:1; stroke:black; " description="&lt;b&gt;HS041_33985&lt;/b&gt;&lt;br&gt;tryptophan 7-halogenase&lt;br&gt;Location: 720962 - 722273" locus_tag="HS041_33985" class="clusterblast-orf" id="dummy-3_q17_0_all"  />
<polygon points="265,35 270,30 279,30 279,40 270,40 265,35 " style="fill:white; stroke-width:1; stroke:black; " description="&lt;b&gt;HS041_33990&lt;/b&gt;&lt;br&gt;saccharopine dehydrogenase NADP-binding domain-containing protein&lt;br&gt;Location: 722306 - 723383" locus_tag="HS041_33990" class="clusterblast-orf" id="dummy-3_q18_0_all"  />
<polygon points="279,35 284,30 304,30 304,40 284,40 279,35 " style="fill:white; stroke-width:1; stroke:black; " description="&lt;b&gt;HS041_33995&lt;/b&gt;&lt;br&gt;condensation protein&lt;br&gt;Location: 723379 - 725344" locus_tag="HS041_33995" class="clusterblast-orf" id="dummy-3_q19_0_all"  />
<polygon points="304,35 309,30 319,30 319,40 309,40 304,35 " style="fill:white; stroke-width:1; stroke:black; " description="&lt;b&gt;HS041_34000&lt;/b&gt;&lt;br&gt;class I SAM-dependent methyltransferase&lt;br&gt;Location: 725340 - 726483" locus_tag="HS041_34000" class="clusterblast-orf" id="dummy-3_q20_0_all"  />
<polygon points="321,40 370,40 375,35 370,30 321,30 321,40 " style="fill:white; stroke-width:1; stroke:black; " description="&lt;b&gt;HS041_34005&lt;/b&gt;&lt;br&gt;amino acid adenylation domain-containing protein&lt;br&gt;Location: 726574 - 730708" locus_tag="HS041_34005" class="clusterblast-orf" id="dummy-3_q21_0_all"  />
<polygon points="375,40 454,40 459,35 454,30 375,30 375,40 " style="fill:white; stroke-width:1; stroke:black; " description="&lt;b&gt;HS041_34010&lt;/b&gt;&lt;br&gt;SDR family NAD(P)-dependent oxidoreductase&lt;br&gt;Location: 730722 - 737169" locus_tag="HS041_34010" class="clusterblast-orf" id="dummy-3_q22_0_all"  />
<polygon points="459,40 474,40 479,35 474,30 459,30 459,40 " style="fill:white; stroke-width:1; stroke:black; " description="&lt;b&gt;HS041_34015&lt;/b&gt;&lt;br&gt;ABC transporter substrate-binding protein&lt;br&gt;Location: 737180 - 738722" locus_tag="HS041_34015" class="clusterblast-orf" id="dummy-3_q23_0_all"  />
<polygon points="480,40 487,40 492,35 487,30 480,30 480,40 " style="fill:white; stroke-width:1; stroke:black; " description="&lt;b&gt;HS041_34020&lt;/b&gt;&lt;br&gt;ABC transporter permease&lt;br&gt;Location: 738750 - 739674" locus_tag="HS041_34020" class="clusterblast-orf" id="dummy-3_q24_0_all"  />
<polygon points="492,40 497,40 502,35 497,30 492,30 492,40 " style="fill:white; stroke-width:1; stroke:black; " description="&lt;b&gt;HS041_34025&lt;/b&gt;&lt;br&gt;ABC transporter permease subunit&lt;br&gt;Location: 739670 - 740453" locus_tag="HS041_34025" class="clusterblast-orf" id="dummy-3_q25_0_all"  />
<polygon points="502,40 515,40 520,35 515,30 502,30 502,40 " style="fill:white; stroke-width:1; stroke:black; " description="&lt;b&gt;HS041_34030&lt;/b&gt;&lt;br&gt;ABC transporter ATP-binding protein&lt;br&gt;Location: 740449 - 741841" locus_tag="HS041_34030" class="clusterblast-orf" id="dummy-3_q26_0_all"  />
<polygon points="520,40 547,40 552,35 547,30 520,30 520,40 " style="fill:white; stroke-width:1; stroke:black; " description="&lt;b&gt;HS041_34035&lt;/b&gt;&lt;br&gt;class I SAM-dependent methyltransferase&lt;br&gt;Location: 741848 - 744314" locus_tag="HS041_34035" class="clusterblast-orf" id="dummy-3_q27_0_all"  />
<polygon points="553,35 558,30 565,30 565,40 558,40 553,35 " style="fill:white; stroke-width:1; stroke:black; " description="&lt;b&gt;HS041_34040&lt;/b&gt;&lt;br&gt;NAD(P)/FAD-dependent oxidoreductase&lt;br&gt;Location: 744366 - 745296" locus_tag="HS041_34040" class="clusterblast-orf" id="dummy-3_q28_0_all"  />
<polygon points="565,35 570,30 574,30 574,40 570,40 565,35 " style="fill:white; stroke-width:1; stroke:black; " description="&lt;b&gt;HS041_34045&lt;/b&gt;&lt;br&gt;class I SAM-dependent methyltransferase&lt;br&gt;Location: 745288 - 746008" locus_tag="HS041_34045" class="clusterblast-orf" id="dummy-3_q29_0_all"  />
<polygon points="588,40 590,40 595,35 590,30 588,30 588,40 " style="fill:white; stroke-width:1; stroke:black; " description="&lt;b&gt;HS041_34050&lt;/b&gt;&lt;br&gt;hypothetical protein&lt;br&gt;Location: 747065 - 747557" locus_tag="HS041_34050" class="clusterblast-orf" id="dummy-3_q30_0_all"  />
<polygon points="596,40 600,35 596,30 596,40 " style="fill:white; stroke-width:1; stroke:black; " description="&lt;b&gt;HS041_34055&lt;/b&gt;&lt;br&gt;STAS domain-containing protein&lt;br&gt;Location: 747675 - 747999" locus_tag="HS041_34055" class="clusterblast-orf" id="dummy-3_q31_0_all"  />
<polygon points="602,35 607,30 622,30 622,40 607,40 602,35 " style="fill:white; stroke-width:1; stroke:black; " description="&lt;b&gt;HS041_34060&lt;/b&gt;&lt;br&gt;pentapeptide repeat-containing protein&lt;br&gt;Location: 748144 - 749671" locus_tag="HS041_34060" class="clusterblast-orf" id="dummy-3_q32_0_all"  />
<polygon points="631,35 636,30 636,30 636,40 636,40 631,35 " style="fill:white; stroke-width:1; stroke:black; " description="&lt;b&gt;HS041_34065&lt;/b&gt;&lt;br&gt;hypothetical protein&lt;br&gt;Location: 750360 - 750696" locus_tag="HS041_34065" class="clusterblast-orf" id="dummy-3_q33_0_all"  />
<polygon points="637,35 642,30 651,30 651,40 642,40 637,35 " style="fill:#c7d815; stroke-width:1; stroke:black; " description="&lt;b&gt;HS041_34070&lt;/b&gt;&lt;br&gt;YafY family transcriptional regulator&lt;br&gt;Location: 750831 - 751833" locus_tag="HS041_34070" class="clusterblast-orf" id="dummy-3_q34_0_all"  />
<polygon points="651,40 662,40 667,35 662,30 651,30 651,40 " style="fill:#15d8a3; stroke-width:1; stroke:black; " description="&lt;b&gt;HS041_34075&lt;/b&gt;&lt;br&gt;alpha/beta fold hydrolase&lt;br&gt;Location: 751875 - 753066" locus_tag="HS041_34075" class="clusterblast-orf" id="dummy-3_q35_0_all"  />
<polygon points="667,40 677,40 682,35 677,30 667,30 667,40 " style="fill:#5c15d8; stroke-width:1; stroke:black; " description="&lt;b&gt;HS041_34080&lt;/b&gt;&lt;br&gt;winged helix DNA-binding domain-containing protein&lt;br&gt;Location: 753091 - 754246" locus_tag="HS041_34080" class="clusterblast-orf" id="dummy-3_q36_0_all"  />
<polygon points="682,35 687,30 707,30 707,40 687,40 682,35 " style="fill:white; stroke-width:1; stroke:black; " description="&lt;b&gt;HS041_34085&lt;/b&gt;&lt;br&gt;acyltransferase&lt;br&gt;Location: 754268 - 756140" locus_tag="HS041_34085" class="clusterblast-orf" id="dummy-3_q37_0_all"  />
<polygon points="713,40 713,40 718,35 713,30 713,30 713,40 " style="fill:white; stroke-width:1; stroke:black; " description="&lt;b&gt;HS041_34090&lt;/b&gt;&lt;br&gt;hypothetical protein&lt;br&gt;Location: 756583 - 756964" locus_tag="HS041_34090" class="clusterblast-orf" id="dummy-3_q38_0_all"  />
</g>
<g label="BGC0000150" description="BGC0000150_c1: sporolide A/sporolide B (4% of genes show similarity), NRP+Polyketide:Enediyne type I polyketide" class="clusterblast-cluster"  >
<text x="5" y="70" class="clusterblast-acc"  >
<a xlink:href="https://mibig.secondarymetabolites.org/go/BGC0000150/1" target="_blank">BGC0000150</a>: sporolide A/sporolide B                                                          (4% of genes show similarity), NRP+Polyketide:Enediyne type I polyketide</text>
<line x1="10" y1="85" x2="778.0" y2="85" style="stroke-width:1; stroke:grey; "  />
</g>
<g id="a3_000"  >
<polygon points="0,85 4,80 4,90 0,85 " style="fill:white; stroke-width:1; stroke:black; " description="&lt;b&gt;Strop_2691&lt;/b&gt;&lt;br&gt;hypothetical protein&lt;br&gt;Location: 1 - 330" locus_tag="Strop_2691" class="clusterblast-orf" id="dummy-3_h3_7_0"  />
</g>
<g id="a3_001"  >
<polygon points="5,85 10,80 13,80 13,90 10,90 5,85 " style="fill:white; stroke-width:1; stroke:black; " description="&lt;b&gt;Strop_2692&lt;/b&gt;&lt;br&gt;transcriptional regulator&lt;br&gt;Location: 434 - 1066" locus_tag="Strop_2692" class="clusterblast-orf" id="dummy-3_h3_7_1"  />
</g>
<g id="a3_002"  >
<polygon points="20,90 25,90 30,85 25,80 20,80 20,90 " style="fill:white; stroke-width:1; stroke:black; " description="&lt;b&gt;Strop_2693&lt;/b&gt;&lt;br&gt;transcriptional regulator, AraC family&lt;br&gt;Location: 1558 - 2343" locus_tag="Strop_2693" class="clusterblast-orf" id="dummy-3_h3_7_2"  />
</g>
<g id="a3_003"  >
<polygon points="32,85 37,80 50,80 50,90 37,90 32,85 " style="fill:white; stroke-width:1; stroke:black; " description="&lt;b&gt;Strop_2694&lt;/b&gt;&lt;br&gt;cytochrome P450&lt;br&gt;Location: 2515 - 3873" locus_tag="Strop_2694" class="clusterblast-orf" id="dummy-3_h3_7_3"  />
</g>
<g id="a3_004"  >
<polygon points="50,85 55,80 57,80 57,90 55,90 50,85 " style="fill:white; stroke-width:1; stroke:black; " description="&lt;b&gt;Strop_2695&lt;/b&gt;&lt;br&gt;flavin reductase domain protein, FMN-binding&lt;br&gt;Location: 3870 - 4406" locus_tag="Strop_2695" class="clusterblast-orf" id="dummy-3_h3_7_4"  />
</g>
<g id="a3_005"  >
<polygon points="57,85 62,80 63,80 63,90 62,90 57,85 " style="fill:white; stroke-width:1; stroke:black; " description="&lt;b&gt;Strop_2696&lt;/b&gt;&lt;br&gt;hypothetical protein&lt;br&gt;Location: 4406 - 4870" locus_tag="Strop_2696" class="clusterblast-orf" id="dummy-3_h3_7_5"  />
</g>
<g id="a3_006"  >
<polygon points="63,85 68,80 139,80 139,90 68,90 63,85 " style="fill:white; stroke-width:1; stroke:black; " description="&lt;b&gt;Strop_2697&lt;/b&gt;&lt;br&gt;beta-ketoacyl synthase&lt;br&gt;Location: 4876 - 10647" locus_tag="Strop_2697" class="clusterblast-orf" id="dummy-3_h3_7_6"  />
</g>
<g id="a3_007"  >
<polygon points="139,85 144,80 151,80 151,90 144,90 139,85 " style="fill:white; stroke-width:1; stroke:black; " description="&lt;b&gt;Strop_2698&lt;/b&gt;&lt;br&gt;hypothetical protein&lt;br&gt;Location: 10644 - 11630" locus_tag="Strop_2698" class="clusterblast-orf" id="dummy-3_h3_7_7"  />
</g>
<g id="a3_008"  >
<polygon points="152,85 157,80 177,80 177,90 157,90 152,85 " style="fill:white; stroke-width:1; stroke:black; " description="&lt;b&gt;Strop_2699&lt;/b&gt;&lt;br&gt;ASPIC/UnbV domain protein&lt;br&gt;Location: 11636 - 13603" locus_tag="Strop_2699" class="clusterblast-orf" id="dummy-3_h3_7_8"  />
</g>
<g id="a3_009"  >
<polygon points="177,85 182,80 190,80 190,90 182,90 177,85 " style="fill:white; stroke-width:1; stroke:black; " description="&lt;b&gt;Strop_2700&lt;/b&gt;&lt;br&gt;protein of unknown function DUF1702&lt;br&gt;Location: 13607 - 14605" locus_tag="Strop_2700" class="clusterblast-orf" id="dummy-3_h3_7_9"  />
</g>
<g id="a3_0010"  >
<polygon points="193,85 198,80 205,80 205,90 198,90 193,85 " style="fill:white; stroke-width:1; stroke:black; " description="&lt;b&gt;Strop_2701&lt;/b&gt;&lt;br&gt;protein of unknown function DUF1702&lt;br&gt;Location: 14788 - 15765" locus_tag="Strop_2701" class="clusterblast-orf" id="dummy-3_h3_7_10"  />
</g>
<g id="a3_0011"  >
<polygon points="209,90 218,90 223,85 218,80 209,80 209,90 " style="fill:white; stroke-width:1; stroke:black; " description="&lt;b&gt;Strop_2702&lt;/b&gt;&lt;br&gt;NAD-dependent epimerase/dehydratase&lt;br&gt;Location: 16054 - 17118" locus_tag="Strop_2702" class="clusterblast-orf" id="dummy-3_h3_7_11"  />
</g>
<g id="a3_0012"  >
<polygon points="222,85 227,80 236,80 236,90 227,90 222,85 " style="fill:white; stroke-width:1; stroke:black; " description="&lt;b&gt;Strop_2703&lt;/b&gt;&lt;br&gt;alkylhydroperoxidase like protein, AhpD family&lt;br&gt;Location: 17042 - 18124" locus_tag="Strop_2703" class="clusterblast-orf" id="dummy-3_h3_7_12"  />
</g>
<g id="a3_0013"  >
<polygon points="237,85 242,80 259,80 259,90 242,90 237,85 " style="fill:white; stroke-width:1; stroke:black; " description="&lt;b&gt;Strop_2704&lt;/b&gt;&lt;br&gt;glucose-methanol-choline oxidoreductase&lt;br&gt;Location: 18207 - 19859" locus_tag="Strop_2704" class="clusterblast-orf" id="dummy-3_h3_7_13"  />
</g>
<g id="a3_0014"  >
<polygon points="259,85 264,80 266,80 266,90 264,90 259,85 " style="fill:white; stroke-width:1; stroke:black; " description="&lt;b&gt;Strop_2705&lt;/b&gt;&lt;br&gt;hypothetical protein&lt;br&gt;Location: 19856 - 20419" locus_tag="Strop_2705" class="clusterblast-orf" id="dummy-3_h3_7_14"  />
</g>
<g id="a3_0015"  >
<polygon points="272,90 279,90 284,85 279,80 272,80 272,90 " style="fill:white; stroke-width:1; stroke:black; " description="&lt;b&gt;Strop_2706&lt;/b&gt;&lt;br&gt;Wyosine base formation&lt;br&gt;Location: 20845 - 21765" locus_tag="Strop_2706" class="clusterblast-orf" id="dummy-3_h3_7_15"  />
</g>
<g id="a3_0016"  >
<polygon points="286,90 289,90 294,85 289,80 286,80 286,90 " style="fill:white; stroke-width:1; stroke:black; " description="&lt;b&gt;Strop_2707&lt;/b&gt;&lt;br&gt;hypothetical protein&lt;br&gt;Location: 21914 - 22525" locus_tag="Strop_2707" class="clusterblast-orf" id="dummy-3_h3_7_16"  />
</g>
<g id="a3_0017"  >
<polygon points="298,90 309,90 314,85 309,80 298,80 298,90 " style="fill:white; stroke-width:1; stroke:black; " description="&lt;b&gt;Strop_2708&lt;/b&gt;&lt;br&gt;Acyl-CoA dehydrogenase, type 2, C-terminal domain&lt;br&gt;Location: 22862 - 24034" locus_tag="Strop_2708" class="clusterblast-orf" id="dummy-3_h3_7_17"  />
</g>
<g id="a3_0018"  >
<polygon points="316,90 316,90 321,85 316,80 316,80 316,90 " style="fill:white; stroke-width:1; stroke:black; " description="&lt;b&gt;Strop_2709&lt;/b&gt;&lt;br&gt;hypothetical protein&lt;br&gt;Location: 24193 - 24612" locus_tag="Strop_2709" class="clusterblast-orf" id="dummy-3_h3_7_18"  />
</g>
<g id="a3_0019"  >
<polygon points="321,90 334,90 339,85 334,80 321,80 321,90 " style="fill:#d81580; stroke-width:1; stroke:black; " description="&lt;b&gt;Strop_2710&lt;/b&gt;&lt;br&gt;monooxygenase, FAD-binding&lt;br&gt;Location: 24642 - 26021&lt;br&gt;&lt;br&gt;&lt;b&gt;BlastP hit with HS041_33985&lt;/b&gt;&lt;br&gt;Percentage identity: 48&lt;br&gt;Percentage coverage: 100&lt;br&gt;BLAST bit score: 375&lt;br&gt;E-value: 8.79e-127" locus_tag="Strop_2710" class="clusterblast-orf" id="dummy-3_h3_7_19"  />
</g>
<g id="a3_0020"  >
<polygon points="340,90 350,90 355,85 350,80 340,80 340,90 " style="fill:#15d8a3; stroke-width:1; stroke:black; " description="&lt;b&gt;Strop_2711&lt;/b&gt;&lt;br&gt;Epoxide hydrolase domain protein&lt;br&gt;Location: 26036 - 27193&lt;br&gt;&lt;br&gt;&lt;b&gt;BlastP hit with HS041_34075&lt;/b&gt;&lt;br&gt;Percentage identity: 51&lt;br&gt;Percentage coverage: 97&lt;br&gt;BLAST bit score: 375&lt;br&gt;E-value: 1.9e-128" locus_tag="Strop_2711" class="clusterblast-orf" id="dummy-3_h3_7_20"  />
</g>
<g id="a3_0021"  >
<polygon points="357,90 368,90 373,85 368,80 357,80 357,90 " style="fill:white; stroke-width:1; stroke:black; " description="&lt;b&gt;Strop_2712&lt;/b&gt;&lt;br&gt;luciferase family protein&lt;br&gt;Location: 27394 - 28560" locus_tag="Strop_2712" class="clusterblast-orf" id="dummy-3_h3_7_21"  />
</g>
<g id="a3_0022"  >
<polygon points="374,90 389,90 394,85 389,80 374,80 374,90 " style="fill:white; stroke-width:1; stroke:black; " description="&lt;b&gt;Strop_2713&lt;/b&gt;&lt;br&gt;4-hydroxyphenylacetate 3-hydroxylase&lt;br&gt;Location: 28640 - 30190" locus_tag="Strop_2713" class="clusterblast-orf" id="dummy-3_h3_7_22"  />
</g>
<g id="a3_0023"  >
<polygon points="396,85 401,80 413,80 413,90 401,90 396,85 " style="fill:white; stroke-width:1; stroke:black; " description="&lt;b&gt;Strop_2714&lt;/b&gt;&lt;br&gt;Sigma-70, region 4 type 2&lt;br&gt;Location: 30307 - 31617" locus_tag="Strop_2714" class="clusterblast-orf" id="dummy-3_h3_7_23"  />
</g>
<g id="a3_0024"  >
<polygon points="413,85 418,80 418,80 418,90 418,90 413,85 " style="fill:white; stroke-width:1; stroke:black; " description="&lt;b&gt;Strop_2715&lt;/b&gt;&lt;br&gt;DGPFAETKE family protein&lt;br&gt;Location: 31614 - 31994" locus_tag="Strop_2715" class="clusterblast-orf" id="dummy-3_h3_7_24"  />
</g>
<g id="a3_0025"  >
<polygon points="427,90 431,85 427,80 427,90 " style="fill:white; stroke-width:1; stroke:black; " description="&lt;b&gt;Strop_2716&lt;/b&gt;&lt;br&gt;hypothetical protein&lt;br&gt;Location: 32749 - 33039" locus_tag="Strop_2716" class="clusterblast-orf" id="dummy-3_h3_7_25"  />
</g>
<g id="a3_0026"  >
<polygon points="431,90 438,90 443,85 438,80 431,80 431,90 " style="fill:white; stroke-width:1; stroke:black; " description="&lt;b&gt;Strop_2717&lt;/b&gt;&lt;br&gt;hypothetical protein&lt;br&gt;Location: 33040 - 33963" locus_tag="Strop_2717" class="clusterblast-orf" id="dummy-3_h3_7_26"  />
</g>
<g id="a3_0027"  >
<polygon points="449,85 454,80 470,80 470,90 454,90 449,85 " style="fill:white; stroke-width:1; stroke:black; " description="&lt;b&gt;Strop_2718&lt;/b&gt;&lt;br&gt;major facilitator superfamily MFS 1&lt;br&gt;Location: 34438 - 36024" locus_tag="Strop_2718" class="clusterblast-orf" id="dummy-3_h3_7_27"  />
</g>
<g id="a3_0028"  >
<polygon points="476,90 476,90 481,85 476,80 476,80 476,90 " style="fill:white; stroke-width:1; stroke:black; " description="&lt;b&gt;Strop_2719&lt;/b&gt;&lt;br&gt;DGPFAETKE family protein&lt;br&gt;Location: 36472 - 36831" locus_tag="Strop_2719" class="clusterblast-orf" id="dummy-3_h3_7_28"  />
</g>
<g id="a3_0029"  >
<polygon points="483,85 488,80 499,80 499,90 488,90 483,85 " style="fill:white; stroke-width:1; stroke:black; " description="&lt;b&gt;Strop_2720&lt;/b&gt;&lt;br&gt;Acyl-CoA dehydrogenase, type 2, C-terminal domain&lt;br&gt;Location: 37011 - 38255" locus_tag="Strop_2720" class="clusterblast-orf" id="dummy-3_h3_7_29"  />
</g>
<g id="a3_0030"  >
<polygon points="502,90 514,90 519,85 514,80 502,80 502,90 " style="fill:white; stroke-width:1; stroke:black; " description="&lt;b&gt;Strop_2721&lt;/b&gt;&lt;br&gt;condensation domain protein&lt;br&gt;Location: 38443 - 39774" locus_tag="Strop_2721" class="clusterblast-orf" id="dummy-3_h3_7_30"  />
</g>
<g id="a3_0031"  >
<polygon points="521,85 526,80 538,80 538,90 526,90 521,85 " style="fill:white; stroke-width:1; stroke:black; " description="&lt;b&gt;Strop_2722&lt;/b&gt;&lt;br&gt;hypothetical protein&lt;br&gt;Location: 39879 - 41219" locus_tag="Strop_2722" class="clusterblast-orf" id="dummy-3_h3_7_31"  />
</g>
<g id="a3_0032"  >
<polygon points="538,85 543,80 552,80 552,90 543,90 538,85 " style="fill:white; stroke-width:1; stroke:black; " description="&lt;b&gt;Strop_2723&lt;/b&gt;&lt;br&gt;Alcohol dehydrogenase GroES domain protein&lt;br&gt;Location: 41232 - 42248" locus_tag="Strop_2723" class="clusterblast-orf" id="dummy-3_h3_7_32"  />
</g>
<g id="a3_0033"  >
<polygon points="551,85 556,80 568,80 568,90 556,90 551,85 " style="fill:white; stroke-width:1; stroke:black; " description="&lt;b&gt;Strop_2724&lt;/b&gt;&lt;br&gt;cytochrome P450&lt;br&gt;Location: 42245 - 43474" locus_tag="Strop_2724" class="clusterblast-orf" id="dummy-3_h3_7_33"  />
</g>
<g id="a3_0034"  >
<polygon points="573,90 591,90 596,85 591,80 573,80 573,90 " style="fill:white; stroke-width:1; stroke:black; " description="&lt;b&gt;Strop_2725&lt;/b&gt;&lt;br&gt;amino acid adenylation domain&lt;br&gt;Location: 43884 - 45650" locus_tag="Strop_2725" class="clusterblast-orf" id="dummy-3_h3_7_34"  />
</g>
<g id="a3_0035"  >
<polygon points="596,90 599,85 596,80 596,90 " style="fill:white; stroke-width:1; stroke:black; " description="&lt;b&gt;Strop_2726&lt;/b&gt;&lt;br&gt;MbtH domain protein&lt;br&gt;Location: 45647 - 45856" locus_tag="Strop_2726" class="clusterblast-orf" id="dummy-3_h3_7_35"  />
</g>
<g id="a3_0036"  >
<polygon points="599,90 608,90 613,85 608,80 599,80 599,90 " style="fill:white; stroke-width:1; stroke:black; " description="&lt;b&gt;Strop_2727&lt;/b&gt;&lt;br&gt;4-hydroxyphenylpyruvate dioxygenase&lt;br&gt;Location: 45884 - 46960" locus_tag="Strop_2727" class="clusterblast-orf" id="dummy-3_h3_7_36"  />
</g>
<g id="a3_0037"  >
<polygon points="613,90 620,90 625,85 620,80 613,80 613,90 " style="fill:white; stroke-width:1; stroke:black; " description="&lt;b&gt;Strop_2728&lt;/b&gt;&lt;br&gt;hypothetical protein&lt;br&gt;Location: 46957 - 47859" locus_tag="Strop_2728" class="clusterblast-orf" id="dummy-3_h3_7_37"  />
</g>
<g id="a3_0038"  >
<polygon points="629,90 633,85 629,80 629,90 " style="fill:white; stroke-width:1; stroke:black; " description="&lt;b&gt;Strop_2729&lt;/b&gt;&lt;br&gt;hypothetical protein&lt;br&gt;Location: 48192 - 48488" locus_tag="Strop_2729" class="clusterblast-orf" id="dummy-3_h3_7_38"  />
</g>
<g id="a3_0039"  >
<polygon points="634,90 636,90 641,85 636,80 634,80 634,90 " style="fill:white; stroke-width:1; stroke:black; " description="&lt;b&gt;Strop_2730&lt;/b&gt;&lt;br&gt;hypothetical protein&lt;br&gt;Location: 48526 - 49083" locus_tag="Strop_2730" class="clusterblast-orf" id="dummy-3_h3_7_39"  />
</g>
<g id="a3_0040"  >
<polygon points="647,85 652,80 665,80 665,90 652,90 647,85 " style="fill:white; stroke-width:1; stroke:black; " description="&lt;b&gt;Strop_2731&lt;/b&gt;&lt;br&gt;FAD linked oxidase domain protein&lt;br&gt;Location: 49539 - 50957" locus_tag="Strop_2731" class="clusterblast-orf" id="dummy-3_h3_7_40"  />
</g>
<g id="a3_0041"  >
<polygon points="666,90 675,90 680,85 675,80 666,80 666,90 " style="fill:white; stroke-width:1; stroke:black; " description="&lt;b&gt;Strop_2732&lt;/b&gt;&lt;br&gt;hypothetical protein&lt;br&gt;Location: 51037 - 52107" locus_tag="Strop_2732" class="clusterblast-orf" id="dummy-3_h3_7_41"  />
</g>
<g id="a3_0042"  >
<polygon points="681,90 695,90 700,85 695,80 681,80 681,90 " style="fill:white; stroke-width:1; stroke:black; " description="&lt;b&gt;Strop_2733&lt;/b&gt;&lt;br&gt;Methyltransferase type 11&lt;br&gt;Location: 52120 - 53640" locus_tag="Strop_2733" class="clusterblast-orf" id="dummy-3_h3_7_42"  />
</g>
<g id="a3_0043"  >
<polygon points="701,90 705,85 701,80 701,90 " style="fill:white; stroke-width:1; stroke:black; " description="&lt;b&gt;Strop_2734&lt;/b&gt;&lt;br&gt;hypothetical protein&lt;br&gt;Location: 53713 - 53970" locus_tag="Strop_2734" class="clusterblast-orf" id="dummy-3_h3_7_43"  />
</g>
<g id="a3_0044"  >
<polygon points="706,85 711,80 725,80 725,90 711,90 706,85 " style="fill:white; stroke-width:1; stroke:black; " description="&lt;b&gt;Strop_2735&lt;/b&gt;&lt;br&gt;major facilitator superfamily MFS 1&lt;br&gt;Location: 54097 - 55542" locus_tag="Strop_2735" class="clusterblast-orf" id="dummy-3_h3_7_44"  />
</g>
<g id="a3_0045"  >
<polygon points="726,85 731,80 734,80 734,90 731,90 726,85 " style="fill:white; stroke-width:1; stroke:black; " description="&lt;b&gt;Strop_2736&lt;/b&gt;&lt;br&gt;protein of unknown function DUF899, thioredoxin family protein&lt;br&gt;Location: 55580 - 56248" locus_tag="Strop_2736" class="clusterblast-orf" id="dummy-3_h3_7_45"  />
</g>
<g id="a3_0046"  >
<polygon points="736,90 775,90 780,85 775,80 736,80 736,90 " style="fill:white; stroke-width:1; stroke:black; " description="&lt;b&gt;Strop_2737&lt;/b&gt;&lt;br&gt;transcriptional activator domain&lt;br&gt;Location: 56386 - 59694" locus_tag="Strop_2737" class="clusterblast-orf" id="dummy-3_h3_7_46"  />
</g>
</svg>
