<svg xmlns="http://www.w3.org/2000/svg" xmlns:xlink="http://www.w3.org/1999/xlink" version="1.1" x="0" y="0" height="150" width="800" viewBox="0 0 800 150" preserveAspectRatio="none"  >
<g label="Query sequence" class="clusterblast-cluster"  >
<text x="5" y="20" class="clusterblast-acc"  >
Query sequence</text>
<line x1="10" y1="35" x2="778.0" y2="35" style="stroke-width:1; stroke:grey; "  />
<polygon points="6,35 10,30 10,40 6,35 " style="fill:white; stroke-width:1; stroke:black; " description="&lt;b&gt;HS041_01125&lt;/b&gt;&lt;br&gt;hypothetical protein&lt;br&gt;Location: 242134 - 242359" locus_tag="HS041_01125" class="clusterblast-orf" id="knownclusterblast-2_q0_0_all"  />
<polygon points="17,40 20,35 17,30 17,40 " style="fill:white; stroke-width:1; stroke:black; " description="&lt;b&gt;HS041_01130&lt;/b&gt;&lt;br&gt;hypothetical protein&lt;br&gt;Location: 242750 - 242945" locus_tag="HS041_01130" class="clusterblast-orf" id="knownclusterblast-2_q1_0_all"  />
<polygon points="20,35 22,30 22,40 20,35 " style="fill:white; stroke-width:1; stroke:black; " description="&lt;b&gt;HS041_01135&lt;/b&gt;&lt;br&gt;hypothetical protein&lt;br&gt;Location: 242923 - 243070" locus_tag="HS041_01135" class="clusterblast-orf" id="knownclusterblast-2_q2_0_all"  />
<polygon points="22,40 27,40 32,35 27,30 22,30 22,40 " style="fill:white; stroke-width:1; stroke:black; " description="&lt;b&gt;HS041_01140&lt;/b&gt;&lt;br&gt;dihydrofolate reductase&lt;br&gt;Location: 243047 - 243638" locus_tag="HS041_01140" class="clusterblast-orf" id="knownclusterblast-2_q3_0_all"  />
<polygon points="37,40 38,40 43,35 38,30 37,30 37,40 " style="fill:white; stroke-width:1; stroke:black; " description="&lt;b&gt;HS041_01145&lt;/b&gt;&lt;br&gt;hypothetical protein&lt;br&gt;Location: 243911 - 244262" locus_tag="HS041_01145" class="clusterblast-orf" id="knownclusterblast-2_q4_0_all"  />
<polygon points="43,40 67,40 72,35 67,30 43,30 43,40 " style="fill:white; stroke-width:1; stroke:black; " description="&lt;b&gt;HS041_01150&lt;/b&gt;&lt;br&gt;caspase family protein&lt;br&gt;Location: 244258 - 245917" locus_tag="HS041_01150" class="clusterblast-orf" id="knownclusterblast-2_q5_0_all"  />
<polygon points="79,40 81,40 86,35 81,30 79,30 79,40 " style="fill:white; stroke-width:1; stroke:black; " description="&lt;b&gt;HS041_01155&lt;/b&gt;&lt;br&gt;DNA mismatch endonuclease Vsr&lt;br&gt;Location: 246306 - 246683" locus_tag="HS041_01155" class="clusterblast-orf" id="knownclusterblast-2_q6_0_all"  />
<polygon points="87,35 91,30 91,40 87,35 " style="fill:white; stroke-width:1; stroke:black; " description="&lt;b&gt;HS041_01160&lt;/b&gt;&lt;br&gt;DUF397 domain-containing protein&lt;br&gt;Location: 246752 - 246971" locus_tag="HS041_01160" class="clusterblast-orf" id="knownclusterblast-2_q7_0_all"  />
<polygon points="91,35 96,30 97,30 97,40 96,40 91,35 " style="fill:white; stroke-width:1; stroke:black; " description="&lt;b&gt;HS041_01165&lt;/b&gt;&lt;br&gt;hypothetical protein&lt;br&gt;Location: 246963 - 247290" locus_tag="HS041_01165" class="clusterblast-orf" id="knownclusterblast-2_q8_0_all"  />
<polygon points="100,40 102,40 107,35 102,30 100,30 100,40 " style="fill:white; stroke-width:1; stroke:black; " description="&lt;b&gt;HS041_01170&lt;/b&gt;&lt;br&gt;hypothetical protein&lt;br&gt;Location: 247484 - 247883" locus_tag="HS041_01170" class="clusterblast-orf" id="knownclusterblast-2_q9_0_all"  />
<polygon points="107,35 112,30 125,30 125,40 112,40 107,35 " style="fill:#d81515; stroke-width:1; stroke:black; " description="&lt;b&gt;HS041_01175&lt;/b&gt;&lt;br&gt;AraC family transcriptional regulator&lt;br&gt;Location: 247905 - 248874" locus_tag="HS041_01175" class="clusterblast-orf" id="knownclusterblast-2_q10_0_all"  />
<polygon points="127,40 136,40 141,35 136,30 127,30 127,40 " style="fill:#15d8d8; stroke-width:1; stroke:black; " description="&lt;b&gt;HS041_01180&lt;/b&gt;&lt;br&gt;NAD(P)H-binding protein&lt;br&gt;Location: 248999 - 249833" locus_tag="HS041_01180" class="clusterblast-orf" id="knownclusterblast-2_q11_0_all"  />
<polygon points="143,40 147,40 152,35 147,30 143,30 143,40 " style="fill:white; stroke-width:1; stroke:black; " description="&lt;b&gt;HS041_01185&lt;/b&gt;&lt;br&gt;DUF4262 domain-containing protein&lt;br&gt;Location: 249910 - 250450" locus_tag="HS041_01185" class="clusterblast-orf" id="knownclusterblast-2_q12_0_all"  />
<polygon points="153,35 158,30 168,30 168,40 158,40 153,35 " style="fill:white; stroke-width:1; stroke:black; " description="&lt;b&gt;HS041_01190&lt;/b&gt;&lt;br&gt;CPBP family intramembrane metalloprotease&lt;br&gt;Location: 250490 - 251351" locus_tag="HS041_01190" class="clusterblast-orf" id="knownclusterblast-2_q13_0_all"  />
<polygon points="171,40 175,40 180,35 175,30 171,30 171,40 " style="fill:white; stroke-width:1; stroke:black; " description="&lt;b&gt;HS041_01195&lt;/b&gt;&lt;br&gt;sigma-70 family RNA polymerase sigma factor&lt;br&gt;Location: 251539 - 252010" locus_tag="HS041_01195" class="clusterblast-orf" id="knownclusterblast-2_q14_0_all"  />
<polygon points="188,35 193,30 198,30 198,40 193,40 188,35 " style="fill:white; stroke-width:1; stroke:black; " description="&lt;b&gt;HS041_01200&lt;/b&gt;&lt;br&gt;TetR/AcrR family transcriptional regulator&lt;br&gt;Location: 252508 - 253075" locus_tag="HS041_01200" class="clusterblast-orf" id="knownclusterblast-2_q15_0_all"  />
<polygon points="198,35 203,30 207,30 207,40 203,40 198,35 " style="fill:white; stroke-width:1; stroke:black; " description="&lt;b&gt;HS041_01205&lt;/b&gt;&lt;br&gt;SRPBCC domain-containing protein&lt;br&gt;Location: 253074 - 253581" locus_tag="HS041_01205" class="clusterblast-orf" id="knownclusterblast-2_q16_0_all"  />
<polygon points="209,35 214,30 238,30 238,40 214,40 209,35 " style="fill:white; stroke-width:1; stroke:black; " description="&lt;b&gt;HS041_01210&lt;/b&gt;&lt;br&gt;alpha-glucosidase C-terminal domain-containing protein&lt;br&gt;Location: 253663 - 255322" locus_tag="HS041_01210" class="clusterblast-orf" id="knownclusterblast-2_q17_0_all"  />
<polygon points="240,40 242,40 247,35 242,30 240,30 240,40 " style="fill:white; stroke-width:1; stroke:black; " description="&lt;b&gt;HS041_01215&lt;/b&gt;&lt;br&gt;hypothetical protein&lt;br&gt;Location: 255433 - 255835" locus_tag="HS041_01215" class="clusterblast-orf" id="knownclusterblast-2_q18_0_all"  />
<polygon points="248,40 285,40 290,35 285,30 248,30 248,40 " style="fill:white; stroke-width:1; stroke:black; " description="&lt;b&gt;HS041_01220&lt;/b&gt;&lt;br&gt;protein translocase subunit SecD&lt;br&gt;Location: 255903 - 258297" locus_tag="HS041_01220" class="clusterblast-orf" id="knownclusterblast-2_q19_0_all"  />
<polygon points="294,40 298,35 294,30 294,40 " style="fill:white; stroke-width:1; stroke:black; " description="&lt;b&gt;HS041_01225&lt;/b&gt;&lt;br&gt;EF-hand domain-containing protein&lt;br&gt;Location: 258496 - 258742" locus_tag="HS041_01225" class="clusterblast-orf" id="knownclusterblast-2_q20_0_all"  />
<polygon points="300,40 317,40 322,35 317,30 300,30 300,40 " style="fill:white; stroke-width:1; stroke:black; " description="&lt;b&gt;HS041_01230&lt;/b&gt;&lt;br&gt;helix-turn-helix domain-containing protein&lt;br&gt;Location: 258860 - 260114" locus_tag="HS041_01230" class="clusterblast-orf" id="knownclusterblast-2_q21_0_all"  />
<polygon points="324,35 329,30 347,30 347,40 329,40 324,35 " style="fill:white; stroke-width:1; stroke:black; " description="&lt;b&gt;HS041_01235&lt;/b&gt;&lt;br&gt;crotonyl-CoA carboxylase/reductase&lt;br&gt;Location: 260210 - 261521" locus_tag="HS041_01235" class="clusterblast-orf" id="knownclusterblast-2_q22_0_all"  />
<polygon points="347,35 352,30 458,30 458,40 352,40 347,35 " style="fill:white; stroke-width:1; stroke:black; " description="&lt;b&gt;HS041_01240&lt;/b&gt;&lt;br&gt;SDR family NAD(P)-dependent oxidoreductase&lt;br&gt;Location: 261517 - 267829" locus_tag="HS041_01240" class="clusterblast-orf" id="knownclusterblast-2_q23_0_all"  />
<polygon points="463,40 477,40 482,35 477,30 463,30 463,40 " style="fill:white; stroke-width:1; stroke:black; " description="&lt;b&gt;HS041_01245&lt;/b&gt;&lt;br&gt;prolyl oligopeptidase family serine peptidase&lt;br&gt;Location: 268088 - 269207" locus_tag="HS041_01245" class="clusterblast-orf" id="knownclusterblast-2_q24_0_all"  />
<polygon points="483,35 488,30 507,30 507,40 488,40 483,35 " style="fill:white; stroke-width:1; stroke:black; " description="&lt;b&gt;HS041_01250&lt;/b&gt;&lt;br&gt;hypothetical protein&lt;br&gt;Location: 269260 - 270604" locus_tag="HS041_01250" class="clusterblast-orf" id="knownclusterblast-2_q25_0_all"  />
<polygon points="509,35 514,30 532,30 532,40 514,40 509,35 " style="fill:white; stroke-width:1; stroke:black; " description="&lt;b&gt;HS041_01255&lt;/b&gt;&lt;br&gt;glycosyltransferase family 1 protein&lt;br&gt;Location: 270719 - 272042" locus_tag="HS041_01255" class="clusterblast-orf" id="knownclusterblast-2_q26_0_all"  />
<polygon points="532,35 537,30 556,30 556,40 537,40 532,35 " style="fill:white; stroke-width:1; stroke:black; " description="&lt;b&gt;HS041_01260&lt;/b&gt;&lt;br&gt;MFS transporter&lt;br&gt;Location: 272038 - 273406" locus_tag="HS041_01260" class="clusterblast-orf" id="knownclusterblast-2_q27_0_all"  />
<polygon points="556,35 561,30 625,30 625,40 561,40 556,35 " style="fill:white; stroke-width:1; stroke:black; " description="&lt;b&gt;HS041_01265&lt;/b&gt;&lt;br&gt;MMPL family transporter&lt;br&gt;Location: 273426 - 277311" locus_tag="HS041_01265" class="clusterblast-orf" id="knownclusterblast-2_q28_0_all"  />
<polygon points="625,35 630,30 656,30 656,40 630,40 625,35 " style="fill:white; stroke-width:1; stroke:black; " description="&lt;b&gt;HS041_01270&lt;/b&gt;&lt;br&gt;fatty acyl-AMP ligase&lt;br&gt;Location: 277310 - 279092" locus_tag="HS041_01270" class="clusterblast-orf" id="knownclusterblast-2_q29_0_all"  />
<polygon points="660,40 666,40 671,35 666,30 660,30 660,40 " style="fill:white; stroke-width:1; stroke:black; " description="&lt;b&gt;HS041_01275&lt;/b&gt;&lt;br&gt;helix-turn-helix domain-containing protein&lt;br&gt;Location: 279287 - 279920" locus_tag="HS041_01275" class="clusterblast-orf" id="knownclusterblast-2_q30_0_all"  />
<polygon points="675,40 692,40 697,35 692,30 675,30 675,40 " style="fill:white; stroke-width:1; stroke:black; " description="&lt;b&gt;HS041_01280&lt;/b&gt;&lt;br&gt;ATP-binding protein&lt;br&gt;Location: 280160 - 281408" locus_tag="HS041_01280" class="clusterblast-orf" id="knownclusterblast-2_q31_0_all"  />
<polygon points="703,35 708,30 717,30 717,40 708,40 703,35 " style="fill:white; stroke-width:1; stroke:black; " description="&lt;b&gt;HS041_01285&lt;/b&gt;&lt;br&gt;ErmE/ErmH/ErmO/ErmR family 23S rRNA (adenine(2058)-N(6))-methyltransferase&lt;br&gt;Location: 281739 - 282567" locus_tag="HS041_01285" class="clusterblast-orf" id="knownclusterblast-2_q32_0_all"  />
<polygon points="726,35 731,30 755,30 755,40 731,40 726,35 " style="fill:white; stroke-width:1; stroke:black; " description="&lt;b&gt;HS041_01290&lt;/b&gt;&lt;br&gt;putative DNA binding domain-containing protein&lt;br&gt;Location: 283045 - 284731" locus_tag="HS041_01290" class="clusterblast-orf" id="knownclusterblast-2_q33_0_all"  />
<polygon points="758,40 768,40 773,35 768,30 758,30 758,40 " style="fill:white; stroke-width:1; stroke:black; " description="&lt;b&gt;HS041_01295&lt;/b&gt;&lt;br&gt;alpha/beta hydrolase&lt;br&gt;Location: 284898 - 285762" locus_tag="HS041_01295" class="clusterblast-orf" id="knownclusterblast-2_q34_0_all"  />
</g>
<g label="BGC0000813" description="BGC0000813_c1: K-252a (14% of genes show similarity), Alkaloid" class="clusterblast-cluster"  >
<text x="5" y="70" class="clusterblast-acc"  >
<a xlink:href="https://mibig.secondarymetabolites.org/go/BGC0000813/1" target="_blank">BGC0000813</a>: K-252a                                                                           (14% of genes show similarity), Alkaloid</text>
<line x1="10" y1="85" x2="778.0" y2="85" style="stroke-width:1; stroke:grey; "  />
</g>
<g id="a2_000"  >
<polygon points="211,85 216,80 225,80 225,90 216,90 211,85 " style="fill:white; stroke-width:1; stroke:black; " description="&lt;b&gt;ABD59216.1&lt;/b&gt;&lt;br&gt;InkU&lt;br&gt;Location: 20300 - 19482" locus_tag="ABD59216.1" class="clusterblast-orf" id="knownclusterblast-2_all_2_1_0"  />
</g>
<g id="a2_001"  >
<polygon points="259,85 264,80 268,80 268,90 264,90 259,85 " style="fill:white; stroke-width:1; stroke:black; " description="&lt;b&gt;ABD59215.1&lt;/b&gt;&lt;br&gt;InkP&lt;br&gt;Location: 17590 - 17063" locus_tag="ABD59215.1" class="clusterblast-orf" id="knownclusterblast-2_all_2_1_1"  />
</g>
<g id="a2_002"  >
<polygon points="268,85 273,80 296,80 296,90 273,90 268,85 " style="fill:white; stroke-width:1; stroke:black; " description="&lt;b&gt;ABD59214.1&lt;/b&gt;&lt;br&gt;InkE&lt;br&gt;Location: 17063 - 15486" locus_tag="ABD59214.1" class="clusterblast-orf" id="knownclusterblast-2_all_2_1_2"  />
</g>
<g id="a2_003"  >
<polygon points="296,85 301,80 350,80 350,90 301,90 296,85 " style="fill:white; stroke-width:1; stroke:black; " description="&lt;b&gt;ABD59213.1&lt;/b&gt;&lt;br&gt;InkD&lt;br&gt;Location: 15489 - 12394" locus_tag="ABD59213.1" class="clusterblast-orf" id="knownclusterblast-2_all_2_1_3"  />
</g>
<g id="a2_004"  >
<polygon points="350,85 355,80 376,80 376,90 355,90 350,85 " style="fill:white; stroke-width:1; stroke:black; " description="&lt;b&gt;ABD59212.1&lt;/b&gt;&lt;br&gt;InkO&lt;br&gt;Location: 12397 - 10937" locus_tag="ABD59212.1" class="clusterblast-orf" id="knownclusterblast-2_all_2_1_4"  />
</g>
<g id="a2_005"  >
<polygon points="383,90 398,90 403,85 398,80 383,80 383,90 " style="fill:white; stroke-width:1; stroke:black; " description="&lt;b&gt;ABD59211.1&lt;/b&gt;&lt;br&gt;InkG&lt;br&gt;Location: 10515 - 9364" locus_tag="ABD59211.1" class="clusterblast-orf" id="knownclusterblast-2_all_2_1_5"  />
</g>
<g id="a2_006"  >
<polygon points="416,90 420,90 425,85 420,80 416,80 416,90 " style="fill:white; stroke-width:1; stroke:black; " description="&lt;b&gt;ABD59210.1&lt;/b&gt;&lt;br&gt;InkY&lt;br&gt;Location: 8652 - 8137" locus_tag="ABD59210.1" class="clusterblast-orf" id="knownclusterblast-2_all_2_1_6"  />
</g>
<g id="a2_007"  >
<polygon points="425,90 440,90 445,85 440,80 425,80 425,90 " style="fill:white; stroke-width:1; stroke:black; " description="&lt;b&gt;ABD59209.1&lt;/b&gt;&lt;br&gt;InkM&lt;br&gt;Location: 8140 - 7007" locus_tag="ABD59209.1" class="clusterblast-orf" id="knownclusterblast-2_all_2_1_7"  />
</g>
<g id="a2_008"  >
<polygon points="445,90 460,90 465,85 460,80 445,80 445,90 " style="fill:white; stroke-width:1; stroke:black; " description="&lt;b&gt;ABD59208.1&lt;/b&gt;&lt;br&gt;InkA&lt;br&gt;Location: 6993 - 5884" locus_tag="ABD59208.1" class="clusterblast-orf" id="knownclusterblast-2_all_2_1_8"  />
</g>
<g id="a2_009"  >
<polygon points="465,90 476,90 481,85 476,80 465,80 465,90 " style="fill:white; stroke-width:1; stroke:black; " description="&lt;b&gt;ABD59207.1&lt;/b&gt;&lt;br&gt;InkB&lt;br&gt;Location: 5872 - 4958" locus_tag="ABD59207.1" class="clusterblast-orf" id="knownclusterblast-2_all_2_1_9"  />
</g>
<g id="a2_0010"  >
<polygon points="481,90 491,90 496,85 491,80 481,80 481,90 " style="fill:white; stroke-width:1; stroke:black; " description="&lt;b&gt;ABD59206.1&lt;/b&gt;&lt;br&gt;InkL&lt;br&gt;Location: 4961 - 4113" locus_tag="ABD59206.1" class="clusterblast-orf" id="knownclusterblast-2_all_2_1_10"  />
</g>
<g id="a2_0011"  >
<polygon points="521,85 526,80 537,80 537,90 526,90 521,85 " style="fill:#d81515; stroke-width:1; stroke:black; " description="&lt;b&gt;ABD59205.1&lt;/b&gt;&lt;br&gt;InkR&lt;br&gt;Location: 2692 - 1790&lt;br&gt;&lt;br&gt;&lt;b&gt;BlastP hit with HS041_01175&lt;/b&gt;&lt;br&gt;Percentage identity: 47&lt;br&gt;Percentage coverage: 101&lt;br&gt;BLAST bit score: 255&lt;br&gt;E-value: 9.08e-84" locus_tag="ABD59205.1" class="clusterblast-orf" id="knownclusterblast-2_all_2_1_11"  />
</g>
<g id="a2_0012"  >
<polygon points="538,90 547,90 552,85 547,80 538,80 538,90 " style="fill:#15d8d8; stroke-width:1; stroke:black; " description="&lt;b&gt;ABD59204.1&lt;/b&gt;&lt;br&gt;InkH&lt;br&gt;Location: 1714 - 908&lt;br&gt;&lt;br&gt;&lt;b&gt;BlastP hit with HS041_01180&lt;/b&gt;&lt;br&gt;Percentage identity: 46&lt;br&gt;Percentage coverage: 98&lt;br&gt;BLAST bit score: 203&lt;br&gt;E-value: 1.65e-64" locus_tag="ABD59204.1" class="clusterblast-orf" id="knownclusterblast-2_all_2_1_12"  />
</g>
<g id="a2_0013"  >
<polygon points="552,90 563,90 568,85 563,80 552,80 552,90 " style="fill:white; stroke-width:1; stroke:black; " description="&lt;b&gt;ABD59203.1&lt;/b&gt;&lt;br&gt;InkT&lt;br&gt;Location: 885 - 1" locus_tag="ABD59203.1" class="clusterblast-orf" id="knownclusterblast-2_all_2_1_13"  />
</g>
<g label="BGC0000814" description="BGC0000814_c1: K-252a (5% of genes show similarity), Alkaloid" class="clusterblast-cluster"  >
<text x="5" y="120" class="clusterblast-acc"  >
<a xlink:href="https://mibig.secondarymetabolites.org/go/BGC0000814/1" target="_blank">BGC0000814</a>: K-252a                                                                           (5% of genes show similarity), Alkaloid</text>
<line x1="10" y1="135" x2="778.0" y2="135" style="stroke-width:1; stroke:grey; "  />
</g>
<g id="a2_000"  >
<polygon points="0,135 5,130 17,130 17,140 5,140 0,135 " style="fill:white; stroke-width:1; stroke:black; " description="&lt;b&gt;ACN29733.1&lt;/b&gt;&lt;br&gt;putative peptide transport ATP-binding protein&lt;br&gt;Location: 44341 - 43349" locus_tag="ACN29733.1" class="clusterblast-orf" id="knownclusterblast-2_all_2_2_0"  />
</g>
<g id="a2_001"  >
<polygon points="17,135 22,130 34,130 34,140 22,140 17,135 " style="fill:white; stroke-width:1; stroke:black; " description="&lt;b&gt;ACN29732.1&lt;/b&gt;&lt;br&gt;putative ABC transporter ATP-binding protein&lt;br&gt;Location: 43352 - 42378" locus_tag="ACN29732.1" class="clusterblast-orf" id="knownclusterblast-2_all_2_2_1"  />
</g>
<g id="a2_002"  >
<polygon points="34,135 39,130 51,130 51,140 39,140 34,135 " style="fill:white; stroke-width:1; stroke:black; " description="&lt;b&gt;ACN29731.1&lt;/b&gt;&lt;br&gt;putative peptide transport permease&lt;br&gt;Location: 42381 - 41434" locus_tag="ACN29731.1" class="clusterblast-orf" id="knownclusterblast-2_all_2_2_2"  />
</g>
<g id="a2_003"  >
<polygon points="49,135 54,130 68,130 68,140 54,140 49,135 " style="fill:white; stroke-width:1; stroke:black; " description="&lt;b&gt;ACN29730.1&lt;/b&gt;&lt;br&gt;putative peptide transport system permease&lt;br&gt;Location: 41512 - 40466" locus_tag="ACN29730.1" class="clusterblast-orf" id="knownclusterblast-2_all_2_2_3"  />
</g>
<g id="a2_004"  >
<polygon points="68,135 73,130 99,130 99,140 73,140 68,135 " style="fill:white; stroke-width:1; stroke:black; " description="&lt;b&gt;ACN29729.1&lt;/b&gt;&lt;br&gt;putative peptide transport system secreted peptide binding protein&lt;br&gt;Location: 40469 - 38664" locus_tag="ACN29729.1" class="clusterblast-orf" id="knownclusterblast-2_all_2_2_4"  />
</g>
<g id="a2_005"  >
<polygon points="101,135 106,130 130,130 130,140 106,140 101,135 " style="fill:white; stroke-width:1; stroke:black; " description="&lt;b&gt;ACN29728.1&lt;/b&gt;&lt;br&gt;putative ABC transporter&lt;br&gt;Location: 38553 - 36919" locus_tag="ACN29728.1" class="clusterblast-orf" id="knownclusterblast-2_all_2_2_5"  />
</g>
<g id="a2_006"  >
<polygon points="131,140 132,140 137,135 132,130 131,130 131,140 " style="fill:white; stroke-width:1; stroke:black; " description="&lt;b&gt;ACN29727.1&lt;/b&gt;&lt;br&gt;putative integral membrane protein&lt;br&gt;Location: 36838 - 36530" locus_tag="ACN29727.1" class="clusterblast-orf" id="knownclusterblast-2_all_2_2_6"  />
</g>
<g id="a2_007"  >
<polygon points="138,140 160,140 165,135 160,130 138,130 138,140 " style="fill:white; stroke-width:1; stroke:black; " description="&lt;b&gt;ACN29726.1&lt;/b&gt;&lt;br&gt;amino acid/metabolite permease&lt;br&gt;Location: 36464 - 34932" locus_tag="ACN29726.1" class="clusterblast-orf" id="knownclusterblast-2_all_2_2_7"  />
</g>
<g id="a2_008"  >
<polygon points="166,140 167,140 172,135 167,130 166,130 166,140 " style="fill:white; stroke-width:1; stroke:black; " description="&lt;b&gt;ACN29725.1&lt;/b&gt;&lt;br&gt;two-component system response regulator&lt;br&gt;Location: 34890 - 34546" locus_tag="ACN29725.1" class="clusterblast-orf" id="knownclusterblast-2_all_2_2_8"  />
</g>
<g id="a2_009"  >
<polygon points="184,140 206,140 211,135 206,130 184,130 184,140 " style="fill:white; stroke-width:1; stroke:black; " description="&lt;b&gt;ACN29724.1&lt;/b&gt;&lt;br&gt;two-component system sensor kinase&lt;br&gt;Location: 33846 - 32335" locus_tag="ACN29724.1" class="clusterblast-orf" id="knownclusterblast-2_all_2_2_9"  />
</g>
<g id="a2_0010"  >
<polygon points="217,140 263,140 268,135 263,130 217,130 217,140 " style="fill:white; stroke-width:1; stroke:black; " description="&lt;b&gt;ACN29723.1&lt;/b&gt;&lt;br&gt;ATP-dependent transcriptional regulator&lt;br&gt;Location: 31992 - 29104" locus_tag="ACN29723.1" class="clusterblast-orf" id="knownclusterblast-2_all_2_2_10"  />
</g>
<g id="a2_0011"  >
<polygon points="267,135 272,130 288,130 288,140 272,140 267,135 " style="fill:white; stroke-width:1; stroke:black; " description="&lt;b&gt;ACN29722.1&lt;/b&gt;&lt;br&gt;cytochrome P450&lt;br&gt;Location: 29150 - 27921" locus_tag="ACN29722.1" class="clusterblast-orf" id="knownclusterblast-2_all_2_2_11"  />
</g>
<g id="a2_0012"  >
<polygon points="288,135 293,130 316,130 316,140 293,140 288,135 " style="fill:white; stroke-width:1; stroke:black; " description="&lt;b&gt;ACN29721.1&lt;/b&gt;&lt;br&gt;monooxygenase&lt;br&gt;Location: 27921 - 26344" locus_tag="ACN29721.1" class="clusterblast-orf" id="knownclusterblast-2_all_2_2_12"  />
</g>
<g id="a2_0013"  >
<polygon points="316,135 321,130 370,130 370,140 321,140 316,135 " style="fill:white; stroke-width:1; stroke:black; " description="&lt;b&gt;ACN29720.1&lt;/b&gt;&lt;br&gt;chromopyrrolic acid synthase&lt;br&gt;Location: 26347 - 23252" locus_tag="ACN29720.1" class="clusterblast-orf" id="knownclusterblast-2_all_2_2_13"  />
</g>
<g id="a2_0014"  >
<polygon points="370,135 375,130 396,130 396,140 375,140 370,135 " style="fill:white; stroke-width:1; stroke:black; " description="&lt;b&gt;ACN29719.1&lt;/b&gt;&lt;br&gt;L-amino acid oxidase&lt;br&gt;Location: 23255 - 21795" locus_tag="ACN29719.1" class="clusterblast-orf" id="knownclusterblast-2_all_2_2_14"  />
</g>
<g id="a2_0015"  >
<polygon points="401,140 419,140 424,135 419,130 401,130 401,140 " style="fill:white; stroke-width:1; stroke:black; " description="&lt;b&gt;ACN29718.1&lt;/b&gt;&lt;br&gt;N-glycosyltransferase&lt;br&gt;Location: 21532 - 20222" locus_tag="ACN29718.1" class="clusterblast-orf" id="knownclusterblast-2_all_2_2_15"  />
</g>
<g id="a2_0016"  >
<polygon points="424,140 440,140 445,135 440,130 424,130 424,140 " style="fill:white; stroke-width:1; stroke:black; " description="&lt;b&gt;ACN29717.1&lt;/b&gt;&lt;br&gt;cytochrome P450 monooxygenase&lt;br&gt;Location: 20192 - 18996" locus_tag="ACN29717.1" class="clusterblast-orf" id="knownclusterblast-2_all_2_2_16"  />
</g>
<g id="a2_0017"  >
<polygon points="445,140 460,140 465,135 460,130 445,130 445,140 " style="fill:white; stroke-width:1; stroke:black; " description="&lt;b&gt;ACN29716.1&lt;/b&gt;&lt;br&gt;probable sugar O-methyltransferase&lt;br&gt;Location: 18999 - 17866" locus_tag="ACN29716.1" class="clusterblast-orf" id="knownclusterblast-2_all_2_2_17"  />
</g>
<g id="a2_0018"  >
<polygon points="465,140 482,140 487,135 482,130 465,130 465,140 " style="fill:white; stroke-width:1; stroke:black; " description="&lt;b&gt;ACN29715.1&lt;/b&gt;&lt;br&gt;cytochrome P450 hydroxylase&lt;br&gt;Location: 17852 - 16656" locus_tag="ACN29715.1" class="clusterblast-orf" id="knownclusterblast-2_all_2_2_18"  />
</g>
<g id="a2_0019"  >
<polygon points="487,140 497,140 502,135 497,130 487,130 487,140 " style="fill:white; stroke-width:1; stroke:black; " description="&lt;b&gt;ACN29714.1&lt;/b&gt;&lt;br&gt;carboxylate O-methyltransferase&lt;br&gt;Location: 16620 - 15763" locus_tag="ACN29714.1" class="clusterblast-orf" id="knownclusterblast-2_all_2_2_19"  />
</g>
<g id="a2_0020"  >
<polygon points="502,140 516,140 521,135 516,130 502,130 502,140 " style="fill:white; stroke-width:1; stroke:black; " description="&lt;b&gt;ACN29713.1&lt;/b&gt;&lt;br&gt;glucose-1-phosphate thymidylyltransferase&lt;br&gt;Location: 15758 - 14694" locus_tag="ACN29713.1" class="clusterblast-orf" id="knownclusterblast-2_all_2_2_20"  />
</g>
<g id="a2_0021"  >
<polygon points="521,140 532,140 537,135 532,130 521,130 521,140 " style="fill:white; stroke-width:1; stroke:black; " description="&lt;b&gt;ACN29712.1&lt;/b&gt;&lt;br&gt;dTDP-glucose 4,6-dehydratase&lt;br&gt;Location: 14697 - 13768" locus_tag="ACN29712.1" class="clusterblast-orf" id="knownclusterblast-2_all_2_2_21"  />
</g>
<g id="a2_0022"  >
<polygon points="537,140 547,140 552,135 547,130 537,130 537,140 " style="fill:white; stroke-width:1; stroke:black; " description="&lt;b&gt;ACN29711.1&lt;/b&gt;&lt;br&gt;dTDP-dihydrostreptose synthase&lt;br&gt;Location: 13771 - 12923" locus_tag="ACN29711.1" class="clusterblast-orf" id="knownclusterblast-2_all_2_2_22"  />
</g>
<g id="a2_0023"  >
<polygon points="552,135 557,130 564,130 564,140 557,140 552,135 " style="fill:white; stroke-width:1; stroke:black; " description="&lt;b&gt;ACN29710.1&lt;/b&gt;&lt;br&gt;lipoate-protein ligase B&lt;br&gt;Location: 12920 - 12273" locus_tag="ACN29710.1" class="clusterblast-orf" id="knownclusterblast-2_all_2_2_23"  />
</g>
<g id="a2_0024"  >
<polygon points="568,135 573,130 577,130 577,140 573,140 568,135 " style="fill:white; stroke-width:1; stroke:black; " description="&lt;b&gt;ACN29709.1&lt;/b&gt;&lt;br&gt;secreted protein&lt;br&gt;Location: 12017 - 11499" locus_tag="ACN29709.1" class="clusterblast-orf" id="knownclusterblast-2_all_2_2_24"  />
</g>
<g id="a2_0025"  >
<polygon points="577,135 582,130 593,130 593,140 582,140 577,135 " style="fill:#d81515; stroke-width:1; stroke:black; " description="&lt;b&gt;ACN29708.1&lt;/b&gt;&lt;br&gt;putative transcriptional regulator&lt;br&gt;Location: 11502 - 10600&lt;br&gt;&lt;br&gt;&lt;b&gt;BlastP hit with HS041_01175&lt;/b&gt;&lt;br&gt;Percentage identity: 47&lt;br&gt;Percentage coverage: 101&lt;br&gt;BLAST bit score: 255&lt;br&gt;E-value: 9.08e-84" locus_tag="ACN29708.1" class="clusterblast-orf" id="knownclusterblast-2_all_2_2_25"  />
</g>
<g id="a2_0026"  >
<polygon points="594,140 604,140 609,135 604,130 594,130 594,140 " style="fill:#15d8d8; stroke-width:1; stroke:black; " description="&lt;b&gt;ACN29707.1&lt;/b&gt;&lt;br&gt;putative nucleoside-diphosphate-sugar epimerase&lt;br&gt;Location: 10524 - 9718&lt;br&gt;&lt;br&gt;&lt;b&gt;BlastP hit with HS041_01180&lt;/b&gt;&lt;br&gt;Percentage identity: 46&lt;br&gt;Percentage coverage: 98&lt;br&gt;BLAST bit score: 203&lt;br&gt;E-value: 1.65e-64" locus_tag="ACN29707.1" class="clusterblast-orf" id="knownclusterblast-2_all_2_2_26"  />
</g>
<g id="a2_0027"  >
<polygon points="610,140 620,140 625,135 620,130 610,130 610,140 " style="fill:white; stroke-width:1; stroke:black; " description="&lt;b&gt;ACN29706.1&lt;/b&gt;&lt;br&gt;putative integral membrane lipid kinase&lt;br&gt;Location: 9644 - 8811" locus_tag="ACN29706.1" class="clusterblast-orf" id="knownclusterblast-2_all_2_2_27"  />
</g>
<g id="a2_0028"  >
<polygon points="624,135 629,130 644,130 644,140 629,140 624,135 " style="fill:white; stroke-width:1; stroke:black; " description="&lt;b&gt;ACN29705.1&lt;/b&gt;&lt;br&gt;putative transmembrane efflux protein&lt;br&gt;Location: 8857 - 7694" locus_tag="ACN29705.1" class="clusterblast-orf" id="knownclusterblast-2_all_2_2_28"  />
</g>
<g id="a2_0029"  >
<polygon points="645,140 646,140 651,135 646,130 645,130 645,140 " style="fill:white; stroke-width:1; stroke:black; " description="&lt;b&gt;ACN29704.1&lt;/b&gt;&lt;br&gt;putative ArsR family transcriptional regulator&lt;br&gt;Location: 7627 - 7310" locus_tag="ACN29704.1" class="clusterblast-orf" id="knownclusterblast-2_all_2_2_29"  />
</g>
<g id="a2_0030"  >
<polygon points="651,140 688,140 693,135 688,130 651,130 651,140 " style="fill:white; stroke-width:1; stroke:black; " description="&lt;b&gt;ACN29703.1&lt;/b&gt;&lt;br&gt;ATP-dependent RNA helicase&lt;br&gt;Location: 7313 - 4914" locus_tag="ACN29703.1" class="clusterblast-orf" id="knownclusterblast-2_all_2_2_30"  />
</g>
<g id="a2_0031"  >
<polygon points="696,135 701,130 713,130 713,140 701,140 696,135 " style="fill:white; stroke-width:1; stroke:black; " description="&lt;b&gt;ACN29702.1&lt;/b&gt;&lt;br&gt;putative threonine synthase&lt;br&gt;Location: 4727 - 3807" locus_tag="ACN29702.1" class="clusterblast-orf" id="knownclusterblast-2_all_2_2_31"  />
</g>
<g id="a2_0032"  >
<polygon points="718,140 728,140 733,135 728,130 718,130 718,140 " style="fill:white; stroke-width:1; stroke:black; " description="&lt;b&gt;ACN29701.1&lt;/b&gt;&lt;br&gt;integral membrane protein&lt;br&gt;Location: 3483 - 2635" locus_tag="ACN29701.1" class="clusterblast-orf" id="knownclusterblast-2_all_2_2_32"  />
</g>
<g id="a2_0033"  >
<polygon points="736,140 758,140 763,135 758,130 736,130 736,140 " style="fill:white; stroke-width:1; stroke:black; " description="&lt;b&gt;ACN29700.1&lt;/b&gt;&lt;br&gt;putative amidase&lt;br&gt;Location: 2461 - 947" locus_tag="ACN29700.1" class="clusterblast-orf" id="knownclusterblast-2_all_2_2_33"  />
</g>
<g id="a2_0034"  >
<polygon points="774,135 779,130 780,130 780,140 779,140 774,135 " style="fill:white; stroke-width:1; stroke:black; " description="&lt;b&gt;ACN29699.1&lt;/b&gt;&lt;br&gt;putative transcriptional regulator&lt;br&gt;Location: 314 - 1" locus_tag="ACN29699.1" class="clusterblast-orf" id="knownclusterblast-2_all_2_2_34"  />
</g>
</svg>
