<svg xmlns="http://www.w3.org/2000/svg" xmlns:xlink="http://www.w3.org/1999/xlink" version="1.1" x="0" y="0" height="230" width="800" viewBox="0 0 800 230" preserveAspectRatio="none"  >
<g label="Query sequence" class="clusterblast-cluster"  >
<text x="5" y="20" class="clusterblast-acc"  >
Query sequence</text>
<line x1="10" y1="35" x2="778.0" y2="35" style="stroke-width:1; stroke:grey; "  />
<polygon points="139,40 149,40 154,35 149,30 139,30 139,40 " style="fill:white; stroke-width:1; stroke:black; " description="&lt;b&gt;HS041_13055&lt;/b&gt;&lt;br&gt;EAL domain-containing protein&lt;br&gt;Location: 68739 - 70212" locus_tag="HS041_13055" class="clusterblast-orf" id="dummy-1_q0_0_all"  />
<polygon points="154,35 159,30 169,30 169,40 159,40 154,35 " style="fill:white; stroke-width:1; stroke:black; " description="&lt;b&gt;HS041_13060&lt;/b&gt;&lt;br&gt;AMP-binding protein&lt;br&gt;Location: 70222 - 71707" locus_tag="HS041_13060" class="clusterblast-orf" id="dummy-1_q1_0_all"  />
<polygon points="169,35 174,30 180,30 180,40 174,40 169,35 " style="fill:white; stroke-width:1; stroke:black; " description="&lt;b&gt;HS041_13065&lt;/b&gt;&lt;br&gt;LLM class flavin-dependent oxidoreductase&lt;br&gt;Location: 71729 - 72788" locus_tag="HS041_13065" class="clusterblast-orf" id="dummy-1_q2_0_all"  />
<polygon points="182,40 190,40 195,35 190,30 182,30 182,40 " style="fill:white; stroke-width:1; stroke:black; " description="&lt;b&gt;HS041_13070&lt;/b&gt;&lt;br&gt;alpha/beta fold hydrolase&lt;br&gt;Location: 72971 - 74225" locus_tag="HS041_13070" class="clusterblast-orf" id="dummy-1_q3_0_all"  />
<polygon points="195,35 200,30 202,30 202,40 200,40 195,35 " style="fill:white; stroke-width:1; stroke:black; " description="&lt;b&gt;HS041_13075&lt;/b&gt;&lt;br&gt;M15 family metallopeptidase&lt;br&gt;Location: 74277 - 74961" locus_tag="HS041_13075" class="clusterblast-orf" id="dummy-1_q4_0_all"  />
<polygon points="204,35 209,30 235,30 235,40 209,40 204,35 " style="fill:white; stroke-width:1; stroke:black; " description="&lt;b&gt;HS041_13080&lt;/b&gt;&lt;br&gt;winged helix-turn-helix domain-containing protein&lt;br&gt;Location: 75116 - 78197" locus_tag="HS041_13080" class="clusterblast-orf" id="dummy-1_q5_0_all"  />
<polygon points="238,40 247,40 252,35 247,30 238,30 238,40 " style="fill:white; stroke-width:1; stroke:black; " description="&lt;b&gt;HS041_13085&lt;/b&gt;&lt;br&gt;CHAP domain-containing protein&lt;br&gt;Location: 78476 - 79865" locus_tag="HS041_13085" class="clusterblast-orf" id="dummy-1_q6_0_all"  />
<polygon points="254,40 264,40 269,35 264,30 254,30 254,40 " style="fill:white; stroke-width:1; stroke:black; " description="&lt;b&gt;HS041_13090&lt;/b&gt;&lt;br&gt;VCBS repeat-containing protein&lt;br&gt;Location: 80011 - 81466" locus_tag="HS041_13090" class="clusterblast-orf" id="dummy-1_q7_0_all"  />
<polygon points="270,35 273,30 273,40 270,35 " style="fill:white; stroke-width:1; stroke:black; " description="&lt;b&gt;HS041_13095&lt;/b&gt;&lt;br&gt;SCO4226 family nickel-binding protein&lt;br&gt;Location: 81600 - 81849" locus_tag="HS041_13095" class="clusterblast-orf" id="dummy-1_q8_0_all"  />
<polygon points="274,35 279,30 289,30 289,40 279,40 274,35 " style="fill:white; stroke-width:1; stroke:black; " description="&lt;b&gt;HS041_13100&lt;/b&gt;&lt;br&gt;cyclic nucleotide-binding domain-containing protein&lt;br&gt;Location: 81979 - 83398" locus_tag="HS041_13100" class="clusterblast-orf" id="dummy-1_q9_0_all"  />
<polygon points="289,35 294,30 306,30 306,40 294,40 289,35 " style="fill:white; stroke-width:1; stroke:black; " description="&lt;b&gt;HS041_13105&lt;/b&gt;&lt;br&gt;FAD-dependent oxidoreductase&lt;br&gt;Location: 83394 - 85059" locus_tag="HS041_13105" class="clusterblast-orf" id="dummy-1_q10_0_all"  />
<polygon points="307,35 312,30 317,30 317,40 312,40 307,35 " style="fill:white; stroke-width:1; stroke:black; " description="&lt;b&gt;HS041_13110&lt;/b&gt;&lt;br&gt;glutamine synthetase beta-grasp domain-containing protein&lt;br&gt;Location: 85189 - 86209" locus_tag="HS041_13110" class="clusterblast-orf" id="dummy-1_q11_0_all"  />
<polygon points="320,40 322,40 327,35 322,30 320,30 320,40 " style="fill:white; stroke-width:1; stroke:black; " description="&lt;b&gt;HS041_13115&lt;/b&gt;&lt;br&gt;ThuA domain-containing protein&lt;br&gt;Location: 86438 - 87113" locus_tag="HS041_13115" class="clusterblast-orf" id="dummy-1_q12_0_all"  />
<polygon points="330,35 335,30 336,30 336,40 335,40 330,35 " style="fill:white; stroke-width:1; stroke:black; " description="&lt;b&gt;HS041_13120&lt;/b&gt;&lt;br&gt;MerR family transcriptional regulator&lt;br&gt;Location: 87416 - 88067" locus_tag="HS041_13120" class="clusterblast-orf" id="dummy-1_q13_0_all"  />
<polygon points="337,35 342,30 355,30 355,40 342,40 337,35 " style="fill:white; stroke-width:1; stroke:black; " description="&lt;b&gt;HS041_13125&lt;/b&gt;&lt;br&gt;non-ribosomal peptide synthetase&lt;br&gt;Location: 88149 - 89928" locus_tag="HS041_13125" class="clusterblast-orf" id="dummy-1_q14_0_all"  />
<polygon points="355,35 360,30 409,30 409,40 360,40 355,35 " style="fill:#d81515; stroke-width:1; stroke:black; " description="&lt;b&gt;HS041_13130&lt;/b&gt;&lt;br&gt;SDR family NAD(P)-dependent oxidoreductase&lt;br&gt;Location: 89932 - 95128" locus_tag="HS041_13130" class="clusterblast-orf" id="dummy-1_q15_0_all"  />
<polygon points="409,35 414,30 444,30 444,40 414,40 409,35 " style="fill:white; stroke-width:1; stroke:black; " description="&lt;b&gt;HS041_13135&lt;/b&gt;&lt;br&gt;amino acid adenylation domain-containing protein&lt;br&gt;Location: 95175 - 98622" locus_tag="HS041_13135" class="clusterblast-orf" id="dummy-1_q16_0_all"  />
<polygon points="444,35 449,30 468,30 468,40 449,40 444,35 " style="fill:white; stroke-width:1; stroke:black; " description="&lt;b&gt;HS041_13140&lt;/b&gt;&lt;br&gt;lantibiotic dehydratase&lt;br&gt;Location: 98618 - 100949" locus_tag="HS041_13140" class="clusterblast-orf" id="dummy-1_q17_0_all"  />
<polygon points="469,35 474,30 477,30 477,40 474,40 469,35 " style="fill:white; stroke-width:1; stroke:black; " description="&lt;b&gt;HS041_13145&lt;/b&gt;&lt;br&gt;thioesterase&lt;br&gt;Location: 101025 - 101805" locus_tag="HS041_13145" class="clusterblast-orf" id="dummy-1_q18_0_all"  />
<polygon points="477,35 482,30 494,30 494,40 482,40 477,35 " style="fill:#d81515; stroke-width:1; stroke:black; " description="&lt;b&gt;HS041_13150&lt;/b&gt;&lt;br&gt;hypothetical protein&lt;br&gt;Location: 101807 - 103448" locus_tag="HS041_13150" class="clusterblast-orf" id="dummy-1_q19_0_all"  />
<polygon points="494,35 499,30 507,30 507,40 499,40 494,35 " style="fill:white; stroke-width:1; stroke:black; " description="&lt;b&gt;HS041_13155&lt;/b&gt;&lt;br&gt;hypothetical protein&lt;br&gt;Location: 103447 - 104782" locus_tag="HS041_13155" class="clusterblast-orf" id="dummy-1_q20_0_all"  />
<polygon points="508,35 513,30 518,30 518,40 513,40 508,35 " style="fill:white; stroke-width:1; stroke:black; " description="&lt;b&gt;HS041_13160&lt;/b&gt;&lt;br&gt;potassium transporter TrkA&lt;br&gt;Location: 104798 - 105848" locus_tag="HS041_13160" class="clusterblast-orf" id="dummy-1_q21_0_all"  />
<polygon points="524,40 526,35 524,30 524,40 " style="fill:#15d8d8; stroke-width:1; stroke:black; " description="&lt;b&gt;HS041_13165&lt;/b&gt;&lt;br&gt;MbtH family NRPS accessory protein&lt;br&gt;Location: 106390 - 106594" locus_tag="HS041_13165" class="clusterblast-orf" id="dummy-1_q22_0_all"  />
<polygon points="527,40 531,35 527,30 527,40 " style="fill:white; stroke-width:1; stroke:black; " description="&lt;b&gt;HS041_13170&lt;/b&gt;&lt;br&gt;hypothetical protein&lt;br&gt;Location: 106744 - 107074" locus_tag="HS041_13170" class="clusterblast-orf" id="dummy-1_q23_0_all"  />
<polygon points="530,35 535,30 539,30 539,40 535,40 530,35 " style="fill:white; stroke-width:1; stroke:black; " description="&lt;b&gt;HS041_13175&lt;/b&gt;&lt;br&gt;SAM-dependent methyltransferase&lt;br&gt;Location: 107045 - 107855" locus_tag="HS041_13175" class="clusterblast-orf" id="dummy-1_q24_0_all"  />
<polygon points="540,35 545,30 546,30 546,40 545,40 540,35 " style="fill:white; stroke-width:1; stroke:black; " description="&lt;b&gt;HS041_13180&lt;/b&gt;&lt;br&gt;CGNR zinc finger domain-containing protein&lt;br&gt;Location: 108005 - 108545" locus_tag="HS041_13180" class="clusterblast-orf" id="dummy-1_q25_0_all"  />
<polygon points="548,40 551,40 556,35 551,30 548,30 548,40 " style="fill:white; stroke-width:1; stroke:black; " description="&lt;b&gt;HS041_13185&lt;/b&gt;&lt;br&gt;SDR family NAD(P)-dependent oxidoreductase&lt;br&gt;Location: 108724 - 109567" locus_tag="HS041_13185" class="clusterblast-orf" id="dummy-1_q26_0_all"  />
<polygon points="558,40 565,40 570,35 565,30 558,30 558,40 " style="fill:white; stroke-width:1; stroke:black; " description="&lt;b&gt;HS041_13190&lt;/b&gt;&lt;br&gt;acetyl-CoA acetyltransferase&lt;br&gt;Location: 109781 - 110864" locus_tag="HS041_13190" class="clusterblast-orf" id="dummy-1_q27_0_all"  />
<polygon points="570,40 574,40 579,35 574,30 570,30 570,40 " style="fill:white; stroke-width:1; stroke:black; " description="&lt;b&gt;HS041_13195&lt;/b&gt;&lt;br&gt;MurR/RpiR family transcriptional regulator&lt;br&gt;Location: 110952 - 111822" locus_tag="HS041_13195" class="clusterblast-orf" id="dummy-1_q28_0_all"  />
<polygon points="579,40 582,40 587,35 582,30 579,30 579,40 " style="fill:white; stroke-width:1; stroke:black; " description="&lt;b&gt;HS041_13200&lt;/b&gt;&lt;br&gt;SIS domain-containing protein&lt;br&gt;Location: 111826 - 112585" locus_tag="HS041_13200" class="clusterblast-orf" id="dummy-1_q29_0_all"  />
<polygon points="587,40 597,40 602,35 597,30 587,30 587,40 " style="fill:white; stroke-width:1; stroke:black; " description="&lt;b&gt;HS041_13205&lt;/b&gt;&lt;br&gt;carbohydrate ABC transporter, N-acetylglucosamine/diacetylchitobiose-binding protein&lt;br&gt;Location: 112590 - 114021" locus_tag="HS041_13205" class="clusterblast-orf" id="dummy-1_q30_0_all"  />
<polygon points="604,40 608,40 613,35 608,30 604,30 604,40 " style="fill:white; stroke-width:1; stroke:black; " description="&lt;b&gt;HS041_13210&lt;/b&gt;&lt;br&gt;sugar ABC transporter permease&lt;br&gt;Location: 114210 - 115113" locus_tag="HS041_13210" class="clusterblast-orf" id="dummy-1_q31_0_all"  />
<polygon points="613,40 617,40 622,35 617,30 613,30 613,40 " style="fill:white; stroke-width:1; stroke:black; " description="&lt;b&gt;HS041_13215&lt;/b&gt;&lt;br&gt;carbohydrate ABC transporter permease&lt;br&gt;Location: 115112 - 116024" locus_tag="HS041_13215" class="clusterblast-orf" id="dummy-1_q32_0_all"  />
<polygon points="624,40 628,40 633,35 628,30 624,30 624,40 " style="fill:white; stroke-width:1; stroke:black; " description="&lt;b&gt;HS041_13220&lt;/b&gt;&lt;br&gt;chitosanase&lt;br&gt;Location: 116201 - 117092" locus_tag="HS041_13220" class="clusterblast-orf" id="dummy-1_q33_0_all"  />
<polygon points="634,35 639,30 641,30 641,40 639,40 634,35 " style="fill:white; stroke-width:1; stroke:black; " description="&lt;b&gt;HS041_13225&lt;/b&gt;&lt;br&gt;DNA alkylation repair protein&lt;br&gt;Location: 117189 - 117801" locus_tag="HS041_13225" class="clusterblast-orf" id="dummy-1_q34_0_all"  />
</g>
<g label="BGC0000963" description="BGC0000963_c1: bleomycin (6% of genes show similarity), NRP:Glycopeptide+Polyketide:Modular type I polyketide+Saccharide:Hybrid/tailoring saccharide" class="clusterblast-cluster"  >
<text x="5" y="70" class="clusterblast-acc"  >
<a xlink:href="https://mibig.secondarymetabolites.org/go/BGC0000963/1" target="_blank">BGC0000963</a>: bleomycin                                                                        (6% of genes show similarity), NRP:Glycopeptide+Polyketide:Modular type I polyketide+Saccharide:Hybrid/tailoring saccharide</text>
<line x1="10" y1="85" x2="778.0" y2="85" style="stroke-width:1; stroke:grey; "  />
</g>
<g id="a1_000"  >
<polygon points="0,85 5,80 10,80 10,90 5,90 0,85 " style="fill:white; stroke-width:1; stroke:black; " description="&lt;b&gt;AAG02342.1&lt;/b&gt;&lt;br&gt;SyrP-like protein&lt;br&gt;Location: 1199 - 2185" locus_tag="AAG02342.1" class="clusterblast-orf" id="dummy-1_h1_3_0"  />
</g>
<g id="a1_001"  >
<polygon points="10,85 15,80 27,80 27,90 15,90 10,85 " style="fill:white; stroke-width:1; stroke:black; " description="&lt;b&gt;AAG02343.1&lt;/b&gt;&lt;br&gt;peptide synthetase NRPS12&lt;br&gt;Location: 2182 - 3918" locus_tag="AAG02343.1" class="clusterblast-orf" id="dummy-1_h1_3_1"  />
</g>
<g id="a1_002"  >
<polygon points="27,85 32,80 36,80 36,90 32,90 27,85 " style="fill:white; stroke-width:1; stroke:black; " description="&lt;b&gt;AAG02344.1&lt;/b&gt;&lt;br&gt;hypothetical protein&lt;br&gt;Location: 3915 - 4733" locus_tag="AAG02344.1" class="clusterblast-orf" id="dummy-1_h1_3_2"  />
</g>
<g id="a1_003"  >
<polygon points="36,85 41,80 49,80 49,90 41,90 36,85 " style="fill:white; stroke-width:1; stroke:black; " description="&lt;b&gt;AAG02345.1&lt;/b&gt;&lt;br&gt;putative transporter&lt;br&gt;Location: 4741 - 6024" locus_tag="AAG02345.1" class="clusterblast-orf" id="dummy-1_h1_3_3"  />
</g>
<g id="a1_004"  >
<polygon points="49,85 54,80 57,80 57,90 54,90 49,85 " style="fill:white; stroke-width:1; stroke:black; " description="&lt;b&gt;AAG02346.1&lt;/b&gt;&lt;br&gt;thioesterase&lt;br&gt;Location: 6021 - 6773" locus_tag="AAG02346.1" class="clusterblast-orf" id="dummy-1_h1_3_4"  />
</g>
<g id="a1_005"  >
<polygon points="57,85 62,80 67,80 67,90 62,90 57,85 " style="fill:white; stroke-width:1; stroke:black; " description="&lt;b&gt;AAG02347.1&lt;/b&gt;&lt;br&gt;clavaminic acid synthase-like protein&lt;br&gt;Location: 6784 - 7797" locus_tag="AAG02347.1" class="clusterblast-orf" id="dummy-1_h1_3_5"  />
</g>
<g id="a1_006"  >
<polygon points="68,85 73,80 81,80 81,90 73,90 68,85 " style="fill:white; stroke-width:1; stroke:black; " description="&lt;b&gt;AAG02348.1&lt;/b&gt;&lt;br&gt;putative transporter&lt;br&gt;Location: 7859 - 9214" locus_tag="AAG02348.1" class="clusterblast-orf" id="dummy-1_h1_3_6"  />
</g>
<g id="a1_007"  >
<polygon points="81,85 86,80 169,80 169,90 86,90 81,85 " style="fill:white; stroke-width:1; stroke:black; " description="&lt;b&gt;AAG02349.1&lt;/b&gt;&lt;br&gt;peptide synthetase NRPS11-10&lt;br&gt;Location: 9211 - 17736" locus_tag="AAG02349.1" class="clusterblast-orf" id="dummy-1_h1_3_7"  />
</g>
<g id="a1_008"  >
<polygon points="174,85 178,80 178,90 174,85 " style="fill:white; stroke-width:1; stroke:black; " description="&lt;b&gt;AAG02350.1&lt;/b&gt;&lt;br&gt;PHNA-like protein&lt;br&gt;Location: 18307 - 18660" locus_tag="AAG02350.1" class="clusterblast-orf" id="dummy-1_h1_3_8"  />
</g>
<g id="a1_009"  >
<polygon points="180,90 183,85 180,80 180,90 " style="fill:white; stroke-width:1; stroke:black; " description="&lt;b&gt;AAG02351.1&lt;/b&gt;&lt;br&gt;metal-dependent regulatory protein&lt;br&gt;Location: 18823 - 19164" locus_tag="AAG02351.1" class="clusterblast-orf" id="dummy-1_h1_3_9"  />
</g>
<g id="a1_0010"  >
<polygon points="183,90 196,90 201,85 196,80 183,80 183,90 " style="fill:white; stroke-width:1; stroke:black; " description="&lt;b&gt;AAG02352.1&lt;/b&gt;&lt;br&gt;putative transporter&lt;br&gt;Location: 19161 - 20909" locus_tag="AAG02352.1" class="clusterblast-orf" id="dummy-1_h1_3_10"  />
</g>
<g id="a1_0011"  >
<polygon points="206,90 208,90 213,85 208,80 206,80 206,90 " style="fill:white; stroke-width:1; stroke:black; " description="&lt;b&gt;AAG02353.1&lt;/b&gt;&lt;br&gt;phosphatidylserine decarboxylase&lt;br&gt;Location: 21367 - 22086" locus_tag="AAG02353.1" class="clusterblast-orf" id="dummy-1_h1_3_11"  />
</g>
<g id="a1_0012"  >
<polygon points="214,90 230,90 235,85 230,80 214,80 214,90 " style="fill:white; stroke-width:1; stroke:black; " description="&lt;b&gt;AAG02354.1&lt;/b&gt;&lt;br&gt;peptide synthetase NRPS&lt;br&gt;Location: 22127 - 24193" locus_tag="AAG02354.1" class="clusterblast-orf" id="dummy-1_h1_3_12"  />
</g>
<g id="a1_0013"  >
<polygon points="237,90 298,90 303,85 298,80 237,80 237,90 " style="fill:white; stroke-width:1; stroke:black; " description="&lt;b&gt;AAG02355.1&lt;/b&gt;&lt;br&gt;peptide synthetase NRPS9-8&lt;br&gt;Location: 24406 - 30894" locus_tag="AAG02355.1" class="clusterblast-orf" id="dummy-1_h1_3_13"  />
</g>
<g id="a1_0014"  >
<polygon points="303,90 331,90 336,85 331,80 303,80 303,90 " style="fill:white; stroke-width:1; stroke:black; " description="&lt;b&gt;AAG02356.1&lt;/b&gt;&lt;br&gt;peptide synthetase NRPS7&lt;br&gt;Location: 30891 - 34091" locus_tag="AAG02356.1" class="clusterblast-orf" id="dummy-1_h1_3_14"  />
</g>
<g id="a1_0015"  >
<polygon points="336,90 387,90 392,85 387,80 336,80 336,90 " style="fill:#d81515; stroke-width:1; stroke:black; " description="&lt;b&gt;AAG02357.1&lt;/b&gt;&lt;br&gt;polyketide synthase&lt;br&gt;Location: 34088 - 39613&lt;br&gt;&lt;br&gt;&lt;b&gt;BlastP hit with HS041_13130&lt;/b&gt;&lt;br&gt;Percentage identity: 46&lt;br&gt;Percentage coverage: 50&lt;br&gt;BLAST bit score: 660&lt;br&gt;E-value: 2.79e-205&lt;br&gt;&lt;br&gt;&lt;b&gt;BlastP hit with HS041_13150&lt;/b&gt;&lt;br&gt;Percentage identity: 51&lt;br&gt;Percentage coverage: 93&lt;br&gt;BLAST bit score: 424&lt;br&gt;E-value: 2.14e-132" locus_tag="AAG02357.1" class="clusterblast-orf" id="dummy-1_h1_3_15"  />
</g>
<g id="a1_0016"  >
<polygon points="392,90 425,90 430,85 425,80 392,80 392,90 " style="fill:white; stroke-width:1; stroke:black; " description="&lt;b&gt;AAG02358.1&lt;/b&gt;&lt;br&gt;peptide synthetase NRPS6&lt;br&gt;Location: 39610 - 43266" locus_tag="AAG02358.1" class="clusterblast-orf" id="dummy-1_h1_3_16"  />
</g>
<g id="a1_0017"  >
<polygon points="430,90 507,90 512,85 507,80 430,80 430,90 " style="fill:white; stroke-width:1; stroke:black; " description="&lt;b&gt;AAG02359.1&lt;/b&gt;&lt;br&gt;peptide synthetase NRPS5-4-3&lt;br&gt;Location: 43263 - 51290" locus_tag="AAG02359.1" class="clusterblast-orf" id="dummy-1_h1_3_17"  />
</g>
<g id="a1_0018"  >
<polygon points="514,90 529,90 534,85 529,80 514,80 514,90 " style="fill:white; stroke-width:1; stroke:black; " description="&lt;b&gt;AAG02360.1&lt;/b&gt;&lt;br&gt;peptide synthetase NRPS3CT&lt;br&gt;Location: 51493 - 53430" locus_tag="AAG02360.1" class="clusterblast-orf" id="dummy-1_h1_3_18"  />
</g>
<g id="a1_0019"  >
<polygon points="534,90 539,90 544,85 539,80 534,80 534,90 " style="fill:white; stroke-width:1; stroke:black; " description="&lt;b&gt;AAG02361.1&lt;/b&gt;&lt;br&gt;sugar epimerase BlmG&lt;br&gt;Location: 53427 - 54404" locus_tag="AAG02361.1" class="clusterblast-orf" id="dummy-1_h1_3_19"  />
</g>
<g id="a1_0020"  >
<polygon points="544,90 554,90 559,85 554,80 544,80 544,90 " style="fill:white; stroke-width:1; stroke:black; " description="&lt;b&gt;AAG02362.1&lt;/b&gt;&lt;br&gt;hydroxylase BlmF&lt;br&gt;Location: 54418 - 55902" locus_tag="AAG02362.1" class="clusterblast-orf" id="dummy-1_h1_3_20"  />
</g>
<g id="a1_0021"  >
<polygon points="559,90 574,90 579,85 574,80 559,80 559,90 " style="fill:white; stroke-width:1; stroke:black; " description="&lt;b&gt;AAG02363.1&lt;/b&gt;&lt;br&gt;asparagine synthetase&lt;br&gt;Location: 55899 - 57815" locus_tag="AAG02363.1" class="clusterblast-orf" id="dummy-1_h1_3_21"  />
</g>
<g id="a1_0022"  >
<polygon points="579,90 655,90 660,85 655,80 579,80 579,90 " style="fill:white; stroke-width:1; stroke:black; " description="&lt;b&gt;AAG02364.1&lt;/b&gt;&lt;br&gt;peptide synthetase NRPS2-1&lt;br&gt;Location: 57901 - 65781" locus_tag="AAG02364.1" class="clusterblast-orf" id="dummy-1_h1_3_22"  />
</g>
<g id="a1_0023"  >
<polygon points="660,90 684,90 689,85 684,80 660,80 660,90 " style="fill:white; stroke-width:1; stroke:black; " description="&lt;b&gt;AAG02365.1&lt;/b&gt;&lt;br&gt;peptide synthetase NRPS0&lt;br&gt;Location: 65778 - 68585" locus_tag="AAG02365.1" class="clusterblast-orf" id="dummy-1_h1_3_23"  />
</g>
<g id="a1_0024"  >
<polygon points="689,90 694,90 699,85 694,80 689,80 689,90 " style="fill:white; stroke-width:1; stroke:black; " description="&lt;b&gt;AAG02366.1&lt;/b&gt;&lt;br&gt;SyrP-like protein&lt;br&gt;Location: 68582 - 69601" locus_tag="AAG02366.1" class="clusterblast-orf" id="dummy-1_h1_3_24"  />
</g>
<g id="a1_0025"  >
<polygon points="699,90 708,90 713,85 708,80 699,80 699,90 " style="fill:white; stroke-width:1; stroke:black; " description="&lt;b&gt;AAG02367.1&lt;/b&gt;&lt;br&gt;peptide synthetase NRPS&lt;br&gt;Location: 69598 - 70986" locus_tag="AAG02367.1" class="clusterblast-orf" id="dummy-1_h1_3_25"  />
</g>
<g id="a1_0026"  >
<polygon points="713,90 714,90 719,85 714,80 713,80 713,90 " style="fill:#15d8d8; stroke-width:1; stroke:black; " description="&lt;b&gt;AAG02368.1&lt;/b&gt;&lt;br&gt;MbtH-like protein&lt;br&gt;Location: 70983 - 71546&lt;br&gt;&lt;br&gt;&lt;b&gt;BlastP hit with HS041_13165&lt;/b&gt;&lt;br&gt;Percentage identity: 61&lt;br&gt;Percentage coverage: 93&lt;br&gt;BLAST bit score: 87&lt;br&gt;E-value: 3.6e-23" locus_tag="AAG02368.1" class="clusterblast-orf" id="dummy-1_h1_3_26"  />
</g>
<g id="a1_0027"  >
<polygon points="720,90 727,90 732,85 727,80 720,80 720,90 " style="fill:white; stroke-width:1; stroke:black; " description="&lt;b&gt;AAG02369.1&lt;/b&gt;&lt;br&gt;sugar transferase BlmE&lt;br&gt;Location: 71618 - 72790" locus_tag="AAG02369.1" class="clusterblast-orf" id="dummy-1_h1_3_27"  />
</g>
<g id="a1_0028"  >
<polygon points="732,90 743,90 748,85 743,80 732,80 732,90 " style="fill:white; stroke-width:1; stroke:black; " description="&lt;b&gt;AAG02370.1&lt;/b&gt;&lt;br&gt;carbamyltransferase BlmD&lt;br&gt;Location: 72787 - 74424" locus_tag="AAG02370.1" class="clusterblast-orf" id="dummy-1_h1_3_28"  />
</g>
<g id="a1_0029"  >
<polygon points="748,90 751,85 748,80 748,90 " style="fill:white; stroke-width:1; stroke:black; " description="&lt;b&gt;AAD42077.1&lt;/b&gt;&lt;br&gt;peptide synthetase NRPS type II-PCP&lt;br&gt;Location: 74421 - 74693" locus_tag="AAD42077.1" class="clusterblast-orf" id="dummy-1_h1_3_29"  />
</g>
<g id="a1_0030"  >
<polygon points="751,90 761,90 766,85 761,80 751,80 751,90 " style="fill:white; stroke-width:1; stroke:black; " description="&lt;b&gt;AAG02371.1&lt;/b&gt;&lt;br&gt;sugar synthase BlmC&lt;br&gt;Location: 74690 - 76186" locus_tag="AAG02371.1" class="clusterblast-orf" id="dummy-1_h1_3_30"  />
</g>
<g id="a1_0031"  >
<polygon points="766,90 775,90 780,85 775,80 766,80 766,90 " style="fill:white; stroke-width:1; stroke:black; " description="&lt;b&gt;AAG02372.1&lt;/b&gt;&lt;br&gt;coproporphyrinogen III oxidase-like protein&lt;br&gt;Location: 76183 - 77457" locus_tag="AAG02372.1" class="clusterblast-orf" id="dummy-1_h1_3_31"  />
</g>
</svg>
