<svg xmlns="http://www.w3.org/2000/svg" xmlns:xlink="http://www.w3.org/1999/xlink" version="1.1" x="0" y="0" height="230" width="800" viewBox="0 0 800 230" preserveAspectRatio="none"  >
<g label="Query sequence" class="clusterblast-cluster"  >
<text x="5" y="20" class="clusterblast-acc"  >
Query sequence</text>
<line x1="10" y1="35" x2="778.0" y2="35" style="stroke-width:1; stroke:grey; "  />
<polygon points="183,40 186,35 183,30 183,40 " style="fill:white; stroke-width:1; stroke:black; " description="&lt;b&gt;HS041_18440&lt;/b&gt;&lt;br&gt;hypothetical protein&lt;br&gt;Location: 1287086 - 1287521" locus_tag="HS041_18440" class="clusterblast-orf" id="dummy-4_q0_0_all"  />
<polygon points="187,35 192,30 205,30 205,40 192,40 187,35 " style="fill:white; stroke-width:1; stroke:black; " description="&lt;b&gt;HS041_18445&lt;/b&gt;&lt;br&gt;family 78 glycoside hydrolase catalytic domain&lt;br&gt;Location: 1287717 - 1290357" locus_tag="HS041_18445" class="clusterblast-orf" id="dummy-4_q1_0_all"  />
<polygon points="205,35 210,30 211,30 211,40 210,40 205,35 " style="fill:white; stroke-width:1; stroke:black; " description="&lt;b&gt;HS041_18450&lt;/b&gt;&lt;br&gt;carbohydrate ABC transporter permease&lt;br&gt;Location: 1290386 - 1291214" locus_tag="HS041_18450" class="clusterblast-orf" id="dummy-4_q2_0_all"  />
<polygon points="211,35 216,30 216,30 216,40 216,40 211,35 " style="fill:white; stroke-width:1; stroke:black; " description="&lt;b&gt;HS041_18455&lt;/b&gt;&lt;br&gt;sugar ABC transporter permease&lt;br&gt;Location: 1291210 - 1291987" locus_tag="HS041_18455" class="clusterblast-orf" id="dummy-4_q3_0_all"  />
<polygon points="218,35 223,30 227,30 227,40 223,40 218,35 " style="fill:white; stroke-width:1; stroke:black; " description="&lt;b&gt;HS041_18460&lt;/b&gt;&lt;br&gt;carbohydrate ABC transporter substrate-binding protein&lt;br&gt;Location: 1292163 - 1293573" locus_tag="HS041_18460" class="clusterblast-orf" id="dummy-4_q4_0_all"  />
<polygon points="229,40 230,40 235,35 230,30 229,30 229,40 " style="fill:white; stroke-width:1; stroke:black; " description="&lt;b&gt;HS041_18465&lt;/b&gt;&lt;br&gt;AraC family transcriptional regulator&lt;br&gt;Location: 1293771 - 1294686" locus_tag="HS041_18465" class="clusterblast-orf" id="dummy-4_q5_0_all"  />
<polygon points="237,40 240,40 245,35 240,30 237,30 237,40 " style="fill:white; stroke-width:1; stroke:black; " description="&lt;b&gt;HS041_18470&lt;/b&gt;&lt;br&gt;AraC family transcriptional regulator&lt;br&gt;Location: 1294989 - 1296129" locus_tag="HS041_18470" class="clusterblast-orf" id="dummy-4_q6_0_all"  />
<polygon points="246,40 248,35 246,30 246,40 " style="fill:white; stroke-width:1; stroke:black; " description="&lt;b&gt;HS041_18475&lt;/b&gt;&lt;br&gt;multidrug efflux SMR transporter&lt;br&gt;Location: 1296271 - 1296595" locus_tag="HS041_18475" class="clusterblast-orf" id="dummy-4_q7_0_all"  />
<polygon points="249,40 250,40 255,35 250,30 249,30 249,40 " style="fill:white; stroke-width:1; stroke:black; " description="&lt;b&gt;HS041_18480&lt;/b&gt;&lt;br&gt;haloalkane dehalogenase&lt;br&gt;Location: 1296668 - 1297556" locus_tag="HS041_18480" class="clusterblast-orf" id="dummy-4_q8_0_all"  />
<polygon points="255,40 258,35 255,30 255,40 " style="fill:white; stroke-width:1; stroke:black; " description="&lt;b&gt;HS041_18485&lt;/b&gt;&lt;br&gt;hypothetical protein&lt;br&gt;Location: 1297665 - 1298070" locus_tag="HS041_18485" class="clusterblast-orf" id="dummy-4_q9_0_all"  />
<polygon points="258,35 263,30 265,30 265,40 263,40 258,35 " style="fill:white; stroke-width:1; stroke:black; " description="&lt;b&gt;HS041_18490&lt;/b&gt;&lt;br&gt;LysR family transcriptional regulator&lt;br&gt;Location: 1298119 - 1299028" locus_tag="HS041_18490" class="clusterblast-orf" id="dummy-4_q10_0_all"  />
<polygon points="265,40 269,40 274,35 269,30 265,30 265,40 " style="fill:white; stroke-width:1; stroke:black; " description="&lt;b&gt;HS041_18495&lt;/b&gt;&lt;br&gt;MFS transporter&lt;br&gt;Location: 1299116 - 1300337" locus_tag="HS041_18495" class="clusterblast-orf" id="dummy-4_q11_0_all"  />
<polygon points="274,40 275,40 280,35 275,30 274,30 274,40 " style="fill:white; stroke-width:1; stroke:black; " description="&lt;b&gt;HS041_18500&lt;/b&gt;&lt;br&gt;NAD(P)H-binding protein&lt;br&gt;Location: 1300339 - 1301224" locus_tag="HS041_18500" class="clusterblast-orf" id="dummy-4_q12_0_all"  />
<polygon points="281,35 286,30 291,30 291,40 286,40 281,35 " style="fill:white; stroke-width:1; stroke:black; " description="&lt;b&gt;HS041_18505&lt;/b&gt;&lt;br&gt;pectate lyase&lt;br&gt;Location: 1301331 - 1302921" locus_tag="HS041_18505" class="clusterblast-orf" id="dummy-4_q13_0_all"  />
<polygon points="297,40 299,40 304,35 299,30 297,30 297,40 " style="fill:white; stroke-width:1; stroke:black; " description="&lt;b&gt;HS041_18510&lt;/b&gt;&lt;br&gt;right-handed parallel beta-helix repeat-containing protein&lt;br&gt;Location: 1303720 - 1304767" locus_tag="HS041_18510" class="clusterblast-orf" id="dummy-4_q14_0_all"  />
<polygon points="305,35 308,30 308,40 305,35 " style="fill:white; stroke-width:1; stroke:black; " description="&lt;b&gt;HS041_18515&lt;/b&gt;&lt;br&gt;hypothetical protein&lt;br&gt;Location: 1304968 - 1305343" locus_tag="HS041_18515" class="clusterblast-orf" id="dummy-4_q15_0_all"  />
<polygon points="309,40 311,35 309,30 309,40 " style="fill:white; stroke-width:1; stroke:black; " description="&lt;b&gt;HS041_18520&lt;/b&gt;&lt;br&gt;nuclear transport factor 2 family protein&lt;br&gt;Location: 1305419 - 1305761" locus_tag="HS041_18520" class="clusterblast-orf" id="dummy-4_q16_0_all"  />
<polygon points="312,35 317,30 333,30 333,40 317,40 312,35 " style="fill:white; stroke-width:1; stroke:black; " description="&lt;b&gt;HS041_18525&lt;/b&gt;&lt;br&gt;amino acid adenylation domain-containing protein&lt;br&gt;Location: 1305855 - 1309041" locus_tag="HS041_18525" class="clusterblast-orf" id="dummy-4_q17_0_all"  />
<polygon points="333,35 338,30 347,30 347,40 338,40 333,35 " style="fill:white; stroke-width:1; stroke:black; " description="&lt;b&gt;HS041_18530&lt;/b&gt;&lt;br&gt;non-ribosomal peptide synthetase&lt;br&gt;Location: 1309037 - 1310954" locus_tag="HS041_18530" class="clusterblast-orf" id="dummy-4_q18_0_all"  />
<polygon points="347,35 352,30 357,30 357,40 352,40 347,35 " style="fill:white; stroke-width:1; stroke:black; " description="&lt;b&gt;HS041_18535&lt;/b&gt;&lt;br&gt;hypothetical protein&lt;br&gt;Location: 1310958 - 1312443" locus_tag="HS041_18535" class="clusterblast-orf" id="dummy-4_q19_0_all"  />
<polygon points="357,35 358,30 358,40 357,35 " style="fill:#d81515; stroke-width:1; stroke:black; " description="&lt;b&gt;HS041_18540&lt;/b&gt;&lt;br&gt;MbtH family NRPS accessory protein&lt;br&gt;Location: 1312439 - 1312628" locus_tag="HS041_18540" class="clusterblast-orf" id="dummy-4_q20_0_all"  />
<polygon points="358,35 363,30 368,30 368,40 363,40 358,35 " style="fill:white; stroke-width:1; stroke:black; " description="&lt;b&gt;HS041_18545&lt;/b&gt;&lt;br&gt;hypothetical protein&lt;br&gt;Location: 1312624 - 1314019" locus_tag="HS041_18545" class="clusterblast-orf" id="dummy-4_q21_0_all"  />
<polygon points="368,35 369,30 369,40 368,35 " style="fill:white; stroke-width:1; stroke:black; " description="&lt;b&gt;HS041_18550&lt;/b&gt;&lt;br&gt;acyl carrier protein&lt;br&gt;Location: 1314015 - 1314255" locus_tag="HS041_18550" class="clusterblast-orf" id="dummy-4_q22_0_all"  />
<polygon points="369,35 374,30 380,30 380,40 374,40 369,35 " style="fill:white; stroke-width:1; stroke:black; " description="&lt;b&gt;HS041_18555&lt;/b&gt;&lt;br&gt;hypothetical protein&lt;br&gt;Location: 1314248 - 1315862" locus_tag="HS041_18555" class="clusterblast-orf" id="dummy-4_q23_0_all"  />
<polygon points="380,35 385,30 391,30 391,40 385,40 380,35 " style="fill:white; stroke-width:1; stroke:black; " description="&lt;b&gt;HS041_18560&lt;/b&gt;&lt;br&gt;AMP-binding protein&lt;br&gt;Location: 1315866 - 1317378" locus_tag="HS041_18560" class="clusterblast-orf" id="dummy-4_q24_0_all"  />
<polygon points="391,35 396,30 429,30 429,40 396,40 391,35 " style="fill:white; stroke-width:1; stroke:black; " description="&lt;b&gt;HS041_18565&lt;/b&gt;&lt;br&gt;amino acid adenylation domain-containing protein&lt;br&gt;Location: 1317374 - 1323035" locus_tag="HS041_18565" class="clusterblast-orf" id="dummy-4_q25_0_all"  />
<polygon points="433,35 437,30 437,40 433,35 " style="fill:white; stroke-width:1; stroke:black; " description="&lt;b&gt;HS041_18570&lt;/b&gt;&lt;br&gt;TetR/AcrR family transcriptional regulator&lt;br&gt;Location: 1323521 - 1324121" locus_tag="HS041_18570" class="clusterblast-orf" id="dummy-4_q26_0_all"  />
<polygon points="439,40 440,40 445,35 440,30 439,30 439,40 " style="fill:white; stroke-width:1; stroke:black; " description="&lt;b&gt;HS041_18575&lt;/b&gt;&lt;br&gt;SDR family oxidoreductase&lt;br&gt;Location: 1324440 - 1325268" locus_tag="HS041_18575" class="clusterblast-orf" id="dummy-4_q27_0_all"  />
<polygon points="445,40 451,40 456,35 451,30 445,30 445,40 " style="fill:white; stroke-width:1; stroke:black; " description="&lt;b&gt;HS041_18580&lt;/b&gt;&lt;br&gt;acyl-CoA synthetase&lt;br&gt;Location: 1325272 - 1326862" locus_tag="HS041_18580" class="clusterblast-orf" id="dummy-4_q28_0_all"  />
<polygon points="457,35 460,30 460,40 457,35 " style="fill:white; stroke-width:1; stroke:black; " description="&lt;b&gt;HS041_18585&lt;/b&gt;&lt;br&gt;hypothetical protein&lt;br&gt;Location: 1327020 - 1327503" locus_tag="HS041_18585" class="clusterblast-orf" id="dummy-4_q29_0_all"  />
<polygon points="460,35 465,30 476,30 476,40 465,40 460,35 " style="fill:white; stroke-width:1; stroke:black; " description="&lt;b&gt;HS041_18590&lt;/b&gt;&lt;br&gt;WD40 repeat domain-containing protein&lt;br&gt;Location: 1327499 - 1329803" locus_tag="HS041_18590" class="clusterblast-orf" id="dummy-4_q30_0_all"  />
<polygon points="477,40 478,40 483,35 478,30 477,30 477,40 " style="fill:white; stroke-width:1; stroke:black; " description="&lt;b&gt;HS041_18595&lt;/b&gt;&lt;br&gt;endonuclease/exonuclease/phosphatase family protein&lt;br&gt;Location: 1330013 - 1330895" locus_tag="HS041_18595" class="clusterblast-orf" id="dummy-4_q31_0_all"  />
<polygon points="484,35 489,30 492,30 492,40 489,40 484,35 " style="fill:white; stroke-width:1; stroke:black; " description="&lt;b&gt;HS041_18600&lt;/b&gt;&lt;br&gt;ABC transporter substrate-binding protein&lt;br&gt;Location: 1331031 - 1332075" locus_tag="HS041_18600" class="clusterblast-orf" id="dummy-4_q32_0_all"  />
<polygon points="492,35 497,30 499,30 499,40 497,40 492,35 " style="fill:#15d863; stroke-width:1; stroke:black; " description="&lt;b&gt;HS041_18605&lt;/b&gt;&lt;br&gt;iron chelate uptake ABC transporter family permease subunit&lt;br&gt;Location: 1332150 - 1333215" locus_tag="HS041_18605" class="clusterblast-orf" id="dummy-4_q33_0_all"  />
<polygon points="499,35 504,30 507,30 507,40 504,40 499,35 " style="fill:#1563d8; stroke-width:1; stroke:black; " description="&lt;b&gt;HS041_18610&lt;/b&gt;&lt;br&gt;iron ABC transporter permease&lt;br&gt;Location: 1333214 - 1334261" locus_tag="HS041_18610" class="clusterblast-orf" id="dummy-4_q34_0_all"  />
<polygon points="506,35 511,30 512,30 512,40 511,40 506,35 " style="fill:white; stroke-width:1; stroke:black; " description="&lt;b&gt;HS041_18615&lt;/b&gt;&lt;br&gt;iron-sulfur protein&lt;br&gt;Location: 1334257 - 1335064" locus_tag="HS041_18615" class="clusterblast-orf" id="dummy-4_q35_0_all"  />
<polygon points="515,35 520,30 520,30 520,40 520,40 515,35 " style="fill:white; stroke-width:1; stroke:black; " description="&lt;b&gt;HS041_18620&lt;/b&gt;&lt;br&gt;SagB/ThcOx family dehydrogenase&lt;br&gt;Location: 1335429 - 1336218" locus_tag="HS041_18620" class="clusterblast-orf" id="dummy-4_q36_0_all"  />
<polygon points="520,35 525,30 529,30 529,40 525,40 520,35 " style="fill:white; stroke-width:1; stroke:black; " description="&lt;b&gt;HS041_18625&lt;/b&gt;&lt;br&gt;YcaO-like family protein&lt;br&gt;Location: 1336242 - 1337562" locus_tag="HS041_18625" class="clusterblast-orf" id="dummy-4_q37_0_all"  />
<polygon points="529,35 534,30 537,30 537,40 534,40 529,35 " style="fill:white; stroke-width:1; stroke:black; " description="&lt;b&gt;HS041_18630&lt;/b&gt;&lt;br&gt;TOMM precursor leader peptide-binding protein&lt;br&gt;Location: 1337545 - 1338637" locus_tag="HS041_18630" class="clusterblast-orf" id="dummy-4_q38_0_all"  />
<polygon points="537,35 541,30 541,40 537,35 " style="fill:white; stroke-width:1; stroke:black; " description="&lt;b&gt;HS041_18635&lt;/b&gt;&lt;br&gt;hypothetical protein&lt;br&gt;Location: 1338636 - 1339338" locus_tag="HS041_18635" class="clusterblast-orf" id="dummy-4_q39_0_all"  />
<polygon points="543,35 548,30 548,30 548,40 548,40 543,35 " style="fill:white; stroke-width:1; stroke:black; " description="&lt;b&gt;HS041_18640&lt;/b&gt;&lt;br&gt;methyltransferase domain-containing protein&lt;br&gt;Location: 1339588 - 1340359" locus_tag="HS041_18640" class="clusterblast-orf" id="dummy-4_q40_0_all"  />
<polygon points="548,35 553,30 555,30 555,40 553,40 548,35 " style="fill:white; stroke-width:1; stroke:black; " description="&lt;b&gt;HS041_18645&lt;/b&gt;&lt;br&gt;aminoglycoside phosphotransferase family protein&lt;br&gt;Location: 1340355 - 1341345" locus_tag="HS041_18645" class="clusterblast-orf" id="dummy-4_q41_0_all"  />
<polygon points="555,35 560,30 572,30 572,40 560,40 555,35 " style="fill:white; stroke-width:1; stroke:black; " description="&lt;b&gt;HS041_18650&lt;/b&gt;&lt;br&gt;ATP-binding protein&lt;br&gt;Location: 1341347 - 1343774" locus_tag="HS041_18650" class="clusterblast-orf" id="dummy-4_q42_0_all"  />
<polygon points="573,40 576,35 573,30 573,40 " style="fill:white; stroke-width:1; stroke:black; " description="&lt;b&gt;HS041_18655&lt;/b&gt;&lt;br&gt;hypothetical protein&lt;br&gt;Location: 1343996 - 1344413" locus_tag="HS041_18655" class="clusterblast-orf" id="dummy-4_q43_0_all"  />
<polygon points="577,35 582,30 586,30 586,40 582,40 577,35 " style="fill:#b115d8; stroke-width:1; stroke:black; " description="&lt;b&gt;HS041_18660&lt;/b&gt;&lt;br&gt;sugar ABC transporter permease&lt;br&gt;Location: 1344557 - 1345826" locus_tag="HS041_18660" class="clusterblast-orf" id="dummy-4_q44_0_all"  />
<polygon points="586,35 591,30 596,30 596,40 591,40 586,35 " style="fill:#b1d815; stroke-width:1; stroke:black; " description="&lt;b&gt;HS041_18665&lt;/b&gt;&lt;br&gt;ATP-binding cassette domain-containing protein&lt;br&gt;Location: 1345825 - 1347355" locus_tag="HS041_18665" class="clusterblast-orf" id="dummy-4_q45_0_all"  />
</g>
<g label="BGC0002686" description="BGC0002686_c1: madurastatin D1/madurastatin D2/(-)-Madurastatin C1 (2% of genes show similarity), NRP" class="clusterblast-cluster"  >
<text x="5" y="70" class="clusterblast-acc"  >
<a xlink:href="https://mibig.secondarymetabolites.org/go/BGC0002686/1" target="_blank">BGC0002686</a>: madurastatin D1/madurastatin D2/(-)-Madurastatin C1                              (2% of genes show similarity), NRP</text>
<line x1="10" y1="85" x2="778.0" y2="85" style="stroke-width:1; stroke:grey; "  />
</g>
<g id="a4_000"  >
<polygon points="0,90 3,90 8,85 3,80 0,80 0,90 " style="fill:white; stroke-width:1; stroke:black; " description="&lt;b&gt;FKD65_RS04195&lt;/b&gt;&lt;br&gt;acyl-CoA dehydrogenase family protein&lt;br&gt;Location: 1 - 1179" locus_tag="FKD65_RS04195" class="clusterblast-orf" id="dummy-4_h4_8_0"  />
</g>
<g id="a4_001"  >
<polygon points="9,90 10,85 9,80 9,90 " style="fill:white; stroke-width:1; stroke:black; " description="&lt;b&gt;FKD65_RS04200&lt;/b&gt;&lt;br&gt;hypothetical protein&lt;br&gt;Location: 1314 - 1523" locus_tag="FKD65_RS04200" class="clusterblast-orf" id="dummy-4_h4_8_1"  />
</g>
<g id="a4_002"  >
<polygon points="10,90 11,85 10,80 10,90 " style="fill:white; stroke-width:1; stroke:black; " description="&lt;b&gt;FKD65_RS04205&lt;/b&gt;&lt;br&gt;hypothetical protein&lt;br&gt;Location: 1526 - 1708" locus_tag="FKD65_RS04205" class="clusterblast-orf" id="dummy-4_h4_8_2"  />
</g>
<g id="a4_003"  >
<polygon points="14,90 16,90 21,85 16,80 14,80 14,90 " style="fill:white; stroke-width:1; stroke:black; " description="&lt;b&gt;FKD65_RS04210&lt;/b&gt;&lt;br&gt;glutamate--cysteine ligase&lt;br&gt;Location: 2074 - 3189" locus_tag="FKD65_RS04210" class="clusterblast-orf" id="dummy-4_h4_8_3"  />
</g>
<g id="a4_004"  >
<polygon points="23,90 24,90 29,85 24,80 23,80 23,90 " style="fill:white; stroke-width:1; stroke:black; " description="&lt;b&gt;FKD65_RS04215&lt;/b&gt;&lt;br&gt;sensor histidine kinase&lt;br&gt;Location: 3379 - 4326" locus_tag="FKD65_RS04215" class="clusterblast-orf" id="dummy-4_h4_8_4"  />
</g>
<g id="a4_005"  >
<polygon points="29,85 34,80 36,80 36,90 34,90 29,85 " style="fill:white; stroke-width:1; stroke:black; " description="&lt;b&gt;FKD65_RS04220&lt;/b&gt;&lt;br&gt;phosphotransferase&lt;br&gt;Location: 4336 - 5253" locus_tag="FKD65_RS04220" class="clusterblast-orf" id="dummy-4_h4_8_5"  />
</g>
<g id="a4_006"  >
<polygon points="37,85 38,80 38,90 37,85 " style="fill:white; stroke-width:1; stroke:black; " description="&lt;b&gt;FKD65_RS04225&lt;/b&gt;&lt;br&gt;hypothetical protein&lt;br&gt;Location: 5424 - 5660" locus_tag="FKD65_RS04225" class="clusterblast-orf" id="dummy-4_h4_8_6"  />
</g>
<g id="a4_007"  >
<polygon points="40,90 43,85 40,80 40,90 " style="fill:white; stroke-width:1; stroke:black; " description="&lt;b&gt;FKD65_RS04230&lt;/b&gt;&lt;br&gt;DoxX family membrane protein&lt;br&gt;Location: 5908 - 6351" locus_tag="FKD65_RS04230" class="clusterblast-orf" id="dummy-4_h4_8_7"  />
</g>
<g id="a4_008"  >
<polygon points="44,90 48,85 44,80 44,90 " style="fill:white; stroke-width:1; stroke:black; " description="&lt;b&gt;FKD65_RS04235&lt;/b&gt;&lt;br&gt;GNAT family N-acetyltransferase&lt;br&gt;Location: 6414 - 7046" locus_tag="FKD65_RS04235" class="clusterblast-orf" id="dummy-4_h4_8_8"  />
</g>
<g id="a4_009"  >
<polygon points="50,90 50,90 55,85 50,80 50,80 50,90 " style="fill:white; stroke-width:1; stroke:black; " description="&lt;b&gt;FKD65_RS04240&lt;/b&gt;&lt;br&gt;SAM-dependent methyltransferase&lt;br&gt;Location: 7333 - 8118" locus_tag="FKD65_RS04240" class="clusterblast-orf" id="dummy-4_h4_8_9"  />
</g>
<g id="a4_0010"  >
<polygon points="57,90 60,90 65,85 60,80 57,80 57,90 " style="fill:white; stroke-width:1; stroke:black; " description="&lt;b&gt;FKD65_RS04245&lt;/b&gt;&lt;br&gt;acyltransferase&lt;br&gt;Location: 8317 - 9615" locus_tag="FKD65_RS04245" class="clusterblast-orf" id="dummy-4_h4_8_10"  />
</g>
<g id="a4_0011"  >
<polygon points="66,90 69,90 74,85 69,80 66,80 66,90 " style="fill:white; stroke-width:1; stroke:black; " description="&lt;b&gt;FKD65_RS04250&lt;/b&gt;&lt;br&gt;helix-turn-helix domain-containing protein&lt;br&gt;Location: 9730 - 10908" locus_tag="FKD65_RS04250" class="clusterblast-orf" id="dummy-4_h4_8_11"  />
</g>
<g id="a4_0012"  >
<polygon points="74,85 79,80 81,80 81,90 79,90 74,85 " style="fill:white; stroke-width:1; stroke:black; " description="&lt;b&gt;FKD65_RS04255&lt;/b&gt;&lt;br&gt;alpha/beta hydrolase-fold protein&lt;br&gt;Location: 10915 - 11814" locus_tag="FKD65_RS04255" class="clusterblast-orf" id="dummy-4_h4_8_12"  />
</g>
<g id="a4_0013"  >
<polygon points="81,85 86,80 87,80 87,90 86,90 81,85 " style="fill:white; stroke-width:1; stroke:black; " description="&lt;b&gt;FKD65_RS04260&lt;/b&gt;&lt;br&gt;DMT family transporter&lt;br&gt;Location: 11811 - 12710" locus_tag="FKD65_RS04260" class="clusterblast-orf" id="dummy-4_h4_8_13"  />
</g>
<g id="a4_0014"  >
<polygon points="88,90 89,85 88,80 88,90 " style="fill:white; stroke-width:1; stroke:black; " description="&lt;b&gt;FKD65_RS44005&lt;/b&gt;&lt;br&gt;hypothetical protein&lt;br&gt;Location: 12901 - 13101" locus_tag="FKD65_RS44005" class="clusterblast-orf" id="dummy-4_h4_8_14"  />
</g>
<g id="a4_0015"  >
<polygon points="91,90 93,85 91,80 91,90 " style="fill:white; stroke-width:1; stroke:black; " description="&lt;b&gt;FKD65_RS44010&lt;/b&gt;&lt;br&gt;D-beta-D-heptose 1-phosphate adenosyltransferase&lt;br&gt;Location: 13387 - 13677" locus_tag="FKD65_RS44010" class="clusterblast-orf" id="dummy-4_h4_8_15"  />
</g>
<g id="a4_0016"  >
<polygon points="94,85 99,80 103,80 103,90 99,90 94,85 " style="fill:white; stroke-width:1; stroke:black; " description="&lt;b&gt;FKD65_RS04270&lt;/b&gt;&lt;br&gt;ABC transporter substrate-binding protein&lt;br&gt;Location: 13723 - 15033" locus_tag="FKD65_RS04270" class="clusterblast-orf" id="dummy-4_h4_8_16"  />
</g>
<g id="a4_0017"  >
<polygon points="102,85 107,80 110,80 110,90 107,90 102,85 " style="fill:white; stroke-width:1; stroke:black; " description="&lt;b&gt;FKD65_RS04275&lt;/b&gt;&lt;br&gt;branched-chain amino acid ABC transporter permease&lt;br&gt;Location: 14951 - 16153" locus_tag="FKD65_RS04275" class="clusterblast-orf" id="dummy-4_h4_8_17"  />
</g>
<g id="a4_0018"  >
<polygon points="110,85 115,80 116,80 116,90 115,90 110,85 " style="fill:white; stroke-width:1; stroke:black; " description="&lt;b&gt;FKD65_RS04280&lt;/b&gt;&lt;br&gt;branched-chain amino acid ABC transporter permease&lt;br&gt;Location: 16158 - 17036" locus_tag="FKD65_RS04280" class="clusterblast-orf" id="dummy-4_h4_8_18"  />
</g>
<g id="a4_0019"  >
<polygon points="116,85 121,80 121,80 121,90 121,90 116,85 " style="fill:white; stroke-width:1; stroke:black; " description="&lt;b&gt;FKD65_RS04285&lt;/b&gt;&lt;br&gt;ABC transporter ATP-binding protein&lt;br&gt;Location: 17036 - 17743" locus_tag="FKD65_RS04285" class="clusterblast-orf" id="dummy-4_h4_8_19"  />
</g>
<g id="a4_0020"  >
<polygon points="121,85 126,80 127,80 127,90 126,90 121,85 " style="fill:white; stroke-width:1; stroke:black; " description="&lt;b&gt;FKD65_RS04290&lt;/b&gt;&lt;br&gt;ABC transporter ATP-binding protein&lt;br&gt;Location: 17736 - 18515" locus_tag="FKD65_RS04290" class="clusterblast-orf" id="dummy-4_h4_8_20"  />
</g>
<g id="a4_0021"  >
<polygon points="128,90 132,85 128,80 128,90 " style="fill:white; stroke-width:1; stroke:black; " description="&lt;b&gt;FKD65_RS04295&lt;/b&gt;&lt;br&gt;TetR/AcrR family transcriptional regulator&lt;br&gt;Location: 18749 - 19351" locus_tag="FKD65_RS04295" class="clusterblast-orf" id="dummy-4_h4_8_21"  />
</g>
<g id="a4_0022"  >
<polygon points="133,85 138,80 144,80 144,90 138,90 133,85 " style="fill:white; stroke-width:1; stroke:black; " description="&lt;b&gt;FKD65_RS04300&lt;/b&gt;&lt;br&gt;long-chain fatty acid--CoA ligase&lt;br&gt;Location: 19386 - 21017" locus_tag="FKD65_RS04300" class="clusterblast-orf" id="dummy-4_h4_8_22"  />
</g>
<g id="a4_0023"  >
<polygon points="145,90 148,85 145,80 145,90 " style="fill:white; stroke-width:1; stroke:black; " description="&lt;b&gt;FKD65_RS44745&lt;/b&gt;&lt;br&gt;hypothetical protein&lt;br&gt;Location: 21201 - 21596" locus_tag="FKD65_RS44745" class="clusterblast-orf" id="dummy-4_h4_8_23"  />
</g>
<g id="a4_0024"  >
<polygon points="148,90 149,90 154,85 149,80 148,80 148,90 " style="fill:white; stroke-width:1; stroke:black; " description="&lt;b&gt;FKD65_RS04310&lt;/b&gt;&lt;br&gt;hypothetical protein&lt;br&gt;Location: 21629 - 22492" locus_tag="FKD65_RS04310" class="clusterblast-orf" id="dummy-4_h4_8_24"  />
</g>
<g id="a4_0025"  >
<polygon points="154,85 156,80 156,90 154,85 " style="fill:white; stroke-width:1; stroke:black; " description="&lt;b&gt;FKD65_RS04315&lt;/b&gt;&lt;br&gt;MbtH family protein&lt;br&gt;Location: 22554 - 22760" locus_tag="FKD65_RS04315" class="clusterblast-orf" id="dummy-4_h4_8_25"  />
</g>
<g id="a4_0026"  >
<polygon points="156,85 161,80 165,80 165,90 161,90 156,85 " style="fill:white; stroke-width:1; stroke:black; " description="&lt;b&gt;FKD65_RS04320&lt;/b&gt;&lt;br&gt;lysine N(6)-hydroxylase/L-ornithine N(5)-oxygenase family protein&lt;br&gt;Location: 22844 - 24139" locus_tag="FKD65_RS04320" class="clusterblast-orf" id="dummy-4_h4_8_26"  />
</g>
<g id="a4_0027"  >
<polygon points="165,85 170,80 172,80 172,90 170,90 165,85 " style="fill:white; stroke-width:1; stroke:black; " description="&lt;b&gt;FKD65_RS04325&lt;/b&gt;&lt;br&gt;iron-siderophore ABC transporter substrate-binding protein&lt;br&gt;Location: 24139 - 25158" locus_tag="FKD65_RS04325" class="clusterblast-orf" id="dummy-4_h4_8_27"  />
</g>
<g id="a4_0028"  >
<polygon points="173,85 178,80 255,80 255,90 178,90 173,85 " style="fill:white; stroke-width:1; stroke:black; " description="&lt;b&gt;FKD65_RS04330&lt;/b&gt;&lt;br&gt;non-ribosomal peptide synthetase&lt;br&gt;Location: 25262 - 37303" locus_tag="FKD65_RS04330" class="clusterblast-orf" id="dummy-4_h4_8_28"  />
</g>
<g id="a4_0029"  >
<polygon points="256,90 260,90 265,85 260,80 256,80 256,90 " style="fill:white; stroke-width:1; stroke:black; " description="&lt;b&gt;FKD65_RS04335&lt;/b&gt;&lt;br&gt;salicylate synthase&lt;br&gt;Location: 37392 - 38702" locus_tag="FKD65_RS04335" class="clusterblast-orf" id="dummy-4_h4_8_29"  />
</g>
<g id="a4_0030"  >
<polygon points="267,90 271,85 267,80 267,90 " style="fill:white; stroke-width:1; stroke:black; " description="&lt;b&gt;FKD65_RS45345&lt;/b&gt;&lt;br&gt;hypothetical protein&lt;br&gt;Location: 39047 - 39508" locus_tag="FKD65_RS45345" class="clusterblast-orf" id="dummy-4_h4_8_30"  />
</g>
<g id="a4_0031"  >
<polygon points="272,90 277,90 282,85 277,80 272,80 272,90 " style="fill:white; stroke-width:1; stroke:black; " description="&lt;b&gt;FKD65_RS04345&lt;/b&gt;&lt;br&gt;toxin glutamine deamidase domain-containing protein&lt;br&gt;Location: 39727 - 41169" locus_tag="FKD65_RS04345" class="clusterblast-orf" id="dummy-4_h4_8_31"  />
</g>
<g id="a4_0032"  >
<polygon points="282,90 284,85 282,80 282,90 " style="fill:white; stroke-width:1; stroke:black; " description="&lt;b&gt;FKD65_RS04350&lt;/b&gt;&lt;br&gt;hypothetical protein&lt;br&gt;Location: 41196 - 41495" locus_tag="FKD65_RS04350" class="clusterblast-orf" id="dummy-4_h4_8_32"  />
</g>
<g id="a4_0033"  >
<polygon points="285,90 289,85 285,80 285,90 " style="fill:white; stroke-width:1; stroke:black; " description="&lt;b&gt;FKD65_RS04355&lt;/b&gt;&lt;br&gt;exonuclease&lt;br&gt;Location: 41538 - 42155" locus_tag="FKD65_RS04355" class="clusterblast-orf" id="dummy-4_h4_8_33"  />
</g>
<g id="a4_0034"  >
<polygon points="289,90 291,85 289,80 289,90 " style="fill:white; stroke-width:1; stroke:black; " description="&lt;b&gt;FKD65_RS04360&lt;/b&gt;&lt;br&gt;isochorismatase family protein&lt;br&gt;Location: 42231 - 42431" locus_tag="FKD65_RS04360" class="clusterblast-orf" id="dummy-4_h4_8_34"  />
</g>
<g id="a4_0035"  >
<polygon points="294,90 298,85 294,80 294,90 " style="fill:white; stroke-width:1; stroke:black; " description="&lt;b&gt;FKD65_RS04365&lt;/b&gt;&lt;br&gt;hypothetical protein&lt;br&gt;Location: 42901 - 43479" locus_tag="FKD65_RS04365" class="clusterblast-orf" id="dummy-4_h4_8_35"  />
</g>
<g id="a4_0036"  >
<polygon points="298,85 302,80 302,90 298,85 " style="fill:white; stroke-width:1; stroke:black; " description="&lt;b&gt;FKD65_RS04370&lt;/b&gt;&lt;br&gt;alpha-ketoglutarate-dependent dioxygenase AlkB&lt;br&gt;Location: 43522 - 44067" locus_tag="FKD65_RS04370" class="clusterblast-orf" id="dummy-4_h4_8_36"  />
</g>
<g id="a4_0037"  >
<polygon points="309,90 316,90 321,85 316,80 309,80 309,90 " style="fill:white; stroke-width:1; stroke:black; " description="&lt;b&gt;FKD65_RS04375&lt;/b&gt;&lt;br&gt;TROVE domain-containing protein&lt;br&gt;Location: 45118 - 46779" locus_tag="FKD65_RS04375" class="clusterblast-orf" id="dummy-4_h4_8_37"  />
</g>
<g id="a4_0038"  >
<polygon points="321,85 325,80 325,90 321,85 " style="fill:white; stroke-width:1; stroke:black; " description="&lt;b&gt;FKD65_RS04380&lt;/b&gt;&lt;br&gt;GyrI-like domain-containing protein&lt;br&gt;Location: 46817 - 47434" locus_tag="FKD65_RS04380" class="clusterblast-orf" id="dummy-4_h4_8_38"  />
</g>
<g id="a4_0039"  >
<polygon points="325,85 329,80 329,90 325,85 " style="fill:white; stroke-width:1; stroke:black; " description="&lt;b&gt;FKD65_RS04385&lt;/b&gt;&lt;br&gt;PadR family transcriptional regulator&lt;br&gt;Location: 47421 - 48014" locus_tag="FKD65_RS04385" class="clusterblast-orf" id="dummy-4_h4_8_39"  />
</g>
<g id="a4_0040"  >
<polygon points="333,90 333,90 338,85 333,80 333,80 333,90 " style="fill:white; stroke-width:1; stroke:black; " description="&lt;b&gt;FKD65_RS04390&lt;/b&gt;&lt;br&gt;hypothetical protein&lt;br&gt;Location: 48589 - 49356" locus_tag="FKD65_RS04390" class="clusterblast-orf" id="dummy-4_h4_8_40"  />
</g>
<g id="a4_0041"  >
<polygon points="339,85 344,80 357,80 357,90 344,90 339,85 " style="fill:white; stroke-width:1; stroke:black; " description="&lt;b&gt;FKD65_RS04395&lt;/b&gt;&lt;br&gt;hypothetical protein&lt;br&gt;Location: 49487 - 52090" locus_tag="FKD65_RS04395" class="clusterblast-orf" id="dummy-4_h4_8_41"  />
</g>
<g id="a4_0042"  >
<polygon points="357,85 362,80 371,80 371,90 362,90 357,85 " style="fill:white; stroke-width:1; stroke:black; " description="&lt;b&gt;FKD65_RS04400&lt;/b&gt;&lt;br&gt;DEAD/DEAH box helicase&lt;br&gt;Location: 52095 - 54182" locus_tag="FKD65_RS04400" class="clusterblast-orf" id="dummy-4_h4_8_42"  />
</g>
<g id="a4_0043"  >
<polygon points="371,85 376,80 381,80 381,90 376,90 371,85 " style="fill:white; stroke-width:1; stroke:black; " description="&lt;b&gt;FKD65_RS04405&lt;/b&gt;&lt;br&gt;BREX system ATP-binding protein BrxD&lt;br&gt;Location: 54182 - 55531" locus_tag="FKD65_RS04405" class="clusterblast-orf" id="dummy-4_h4_8_43"  />
</g>
<g id="a4_0044"  >
<polygon points="381,85 386,80 399,80 399,90 386,90 381,85 " style="fill:white; stroke-width:1; stroke:black; " description="&lt;b&gt;FKD65_RS04410&lt;/b&gt;&lt;br&gt;BREX-2 system phosphatase PglZ&lt;br&gt;Location: 55531 - 58170" locus_tag="FKD65_RS04410" class="clusterblast-orf" id="dummy-4_h4_8_44"  />
</g>
<g id="a4_0045"  >
<polygon points="399,85 404,80 424,80 424,90 404,90 399,85 " style="fill:white; stroke-width:1; stroke:black; " description="&lt;b&gt;FKD65_RS04415&lt;/b&gt;&lt;br&gt;phage resistance protein&lt;br&gt;Location: 58167 - 61799" locus_tag="FKD65_RS04415" class="clusterblast-orf" id="dummy-4_h4_8_45"  />
</g>
<g id="a4_0046"  >
<polygon points="424,85 429,80 448,80 448,90 429,90 424,85 " style="fill:white; stroke-width:1; stroke:black; " description="&lt;b&gt;FKD65_RS04420&lt;/b&gt;&lt;br&gt;BREX-2 system adenine-specific DNA-methyltransferase PglX&lt;br&gt;Location: 61842 - 65387" locus_tag="FKD65_RS04420" class="clusterblast-orf" id="dummy-4_h4_8_46"  />
</g>
<g id="a4_0047"  >
<polygon points="450,90 450,90 455,85 450,80 450,80 450,90 " style="fill:white; stroke-width:1; stroke:black; " description="&lt;b&gt;FKD65_RS04425&lt;/b&gt;&lt;br&gt;hypothetical protein&lt;br&gt;Location: 65661 - 66308" locus_tag="FKD65_RS04425" class="clusterblast-orf" id="dummy-4_h4_8_47"  />
</g>
<g id="a4_0048"  >
<polygon points="455,85 459,80 459,90 455,85 " style="fill:white; stroke-width:1; stroke:black; " description="&lt;b&gt;FKD65_RS04430&lt;/b&gt;&lt;br&gt;hypothetical protein&lt;br&gt;Location: 66330 - 66896" locus_tag="FKD65_RS04430" class="clusterblast-orf" id="dummy-4_h4_8_48"  />
</g>
<g id="a4_0049"  >
<polygon points="464,85 469,80 470,80 470,90 469,90 464,85 " style="fill:white; stroke-width:1; stroke:black; " description="&lt;b&gt;FKD65_RS04440&lt;/b&gt;&lt;br&gt;hypothetical protein&lt;br&gt;Location: 67649 - 68635" locus_tag="FKD65_RS04440" class="clusterblast-orf" id="dummy-4_h4_8_49"  />
</g>
<g id="a4_0050"  >
<polygon points="473,85 476,80 476,90 473,85 " style="fill:white; stroke-width:1; stroke:black; " description="&lt;b&gt;FKD65_RS04445&lt;/b&gt;&lt;br&gt;hypothetical protein&lt;br&gt;Location: 68938 - 69372" locus_tag="FKD65_RS04445" class="clusterblast-orf" id="dummy-4_h4_8_50"  />
</g>
<g id="a4_0051"  >
<polygon points="476,85 481,80 482,80 482,90 481,90 476,85 " style="fill:white; stroke-width:1; stroke:black; " description="&lt;b&gt;FKD65_RS04450&lt;/b&gt;&lt;br&gt;hypothetical protein&lt;br&gt;Location: 69365 - 70351" locus_tag="FKD65_RS04450" class="clusterblast-orf" id="dummy-4_h4_8_51"  />
</g>
<g id="a4_0052"  >
<polygon points="486,85 491,80 491,80 491,90 491,90 486,85 " style="fill:white; stroke-width:1; stroke:black; " description="&lt;b&gt;FKD65_RS44015&lt;/b&gt;&lt;br&gt;TIGR04222 domain-containing membrane protein&lt;br&gt;Location: 70837 - 71592" locus_tag="FKD65_RS44015" class="clusterblast-orf" id="dummy-4_h4_8_52"  />
</g>
<g id="a4_0053"  >
<polygon points="493,90 498,90 503,85 498,80 493,80 493,90 " style="fill:white; stroke-width:1; stroke:black; " description="&lt;b&gt;FKD65_RS44020&lt;/b&gt;&lt;br&gt;hypothetical protein&lt;br&gt;Location: 71862 - 73391" locus_tag="FKD65_RS44020" class="clusterblast-orf" id="dummy-4_h4_8_53"  />
</g>
<g id="a4_0054"  >
<polygon points="503,90 506,85 503,80 503,90 " style="fill:white; stroke-width:1; stroke:black; " description="&lt;b&gt;FKD65_RS04460&lt;/b&gt;&lt;br&gt;hypothetical protein&lt;br&gt;Location: 73378 - 73827" locus_tag="FKD65_RS04460" class="clusterblast-orf" id="dummy-4_h4_8_54"  />
</g>
<g id="a4_0055"  >
<polygon points="506,90 510,85 506,80 506,90 " style="fill:white; stroke-width:1; stroke:black; " description="&lt;b&gt;FKD65_RS04465&lt;/b&gt;&lt;br&gt;hypothetical protein&lt;br&gt;Location: 73876 - 74361" locus_tag="FKD65_RS04465" class="clusterblast-orf" id="dummy-4_h4_8_55"  />
</g>
<g id="a4_0056"  >
<polygon points="516,90 517,90 522,85 517,80 516,80 516,90 " style="fill:white; stroke-width:1; stroke:black; " description="&lt;b&gt;FKD65_RS04470&lt;/b&gt;&lt;br&gt;helix-turn-helix domain-containing protein&lt;br&gt;Location: 75287 - 76108" locus_tag="FKD65_RS04470" class="clusterblast-orf" id="dummy-4_h4_8_56"  />
</g>
<g id="a4_0057"  >
<polygon points="522,90 523,85 522,80 522,90 " style="fill:white; stroke-width:1; stroke:black; " description="&lt;b&gt;FKD65_RS04475&lt;/b&gt;&lt;br&gt;DUF397 domain-containing protein&lt;br&gt;Location: 76105 - 76296" locus_tag="FKD65_RS04475" class="clusterblast-orf" id="dummy-4_h4_8_57"  />
</g>
<g id="a4_0058"  >
<polygon points="524,85 529,80 549,80 549,90 529,90 524,85 " style="fill:white; stroke-width:1; stroke:black; " description="&lt;b&gt;FKD65_RS04480&lt;/b&gt;&lt;br&gt;BREX-2 system adenine-specific DNA-methyltransferase PglX&lt;br&gt;Location: 76429 - 80031" locus_tag="FKD65_RS04480" class="clusterblast-orf" id="dummy-4_h4_8_58"  />
</g>
<g id="a4_0059"  >
<polygon points="549,85 554,80 578,80 578,90 554,90 549,85 " style="fill:white; stroke-width:1; stroke:black; " description="&lt;b&gt;FKD65_RS04485&lt;/b&gt;&lt;br&gt;BREX system serine/threonine kinase PglW&lt;br&gt;Location: 80028 - 84332" locus_tag="FKD65_RS04485" class="clusterblast-orf" id="dummy-4_h4_8_59"  />
</g>
<g id="a4_0060"  >
<polygon points="580,90 587,90 592,85 587,80 580,80 580,90 " style="fill:white; stroke-width:1; stroke:black; " description="&lt;b&gt;FKD65_RS04490&lt;/b&gt;&lt;br&gt;DUF262 domain-containing protein&lt;br&gt;Location: 84591 - 86315" locus_tag="FKD65_RS04490" class="clusterblast-orf" id="dummy-4_h4_8_60"  />
</g>
<g id="a4_0061"  >
<polygon points="592,90 593,90 598,85 593,80 592,80 592,90 " style="fill:white; stroke-width:1; stroke:black; " description="&lt;b&gt;FKD65_RS04495&lt;/b&gt;&lt;br&gt;hypothetical protein&lt;br&gt;Location: 86312 - 87280" locus_tag="FKD65_RS04495" class="clusterblast-orf" id="dummy-4_h4_8_61"  />
</g>
<g id="a4_0062"  >
<polygon points="599,85 604,80 610,80 610,90 604,90 599,85 " style="fill:white; stroke-width:1; stroke:black; " description="&lt;b&gt;FKD65_RS04500&lt;/b&gt;&lt;br&gt;AMP-binding protein&lt;br&gt;Location: 87356 - 88924" locus_tag="FKD65_RS04500" class="clusterblast-orf" id="dummy-4_h4_8_62"  />
</g>
<g id="a4_0063"  >
<polygon points="610,85 613,80 613,90 610,85 " style="fill:white; stroke-width:1; stroke:black; " description="&lt;b&gt;FKD65_RS04505&lt;/b&gt;&lt;br&gt;aspartate 1-decarboxylase&lt;br&gt;Location: 88927 - 89328" locus_tag="FKD65_RS04505" class="clusterblast-orf" id="dummy-4_h4_8_63"  />
</g>
<g id="a4_0064"  >
<polygon points="613,90 617,90 622,85 617,80 613,80 613,90 " style="fill:white; stroke-width:1; stroke:black; " description="&lt;b&gt;FKD65_RS04510&lt;/b&gt;&lt;br&gt;enterobactin transporter EntS&lt;br&gt;Location: 89401 - 90645" locus_tag="FKD65_RS04510" class="clusterblast-orf" id="dummy-4_h4_8_64"  />
</g>
<g id="a4_0065"  >
<polygon points="622,85 627,80 645,80 645,90 627,90 622,85 " style="fill:white; stroke-width:1; stroke:black; " description="&lt;b&gt;FKD65_RS04515&lt;/b&gt;&lt;br&gt;non-ribosomal peptide synthetase&lt;br&gt;Location: 90654 - 94016" locus_tag="FKD65_RS04515" class="clusterblast-orf" id="dummy-4_h4_8_65"  />
</g>
<g id="a4_0066"  >
<polygon points="645,85 650,80 652,80 652,90 650,90 645,85 " style="fill:#15d863; stroke-width:1; stroke:black; " description="&lt;b&gt;FKD65_RS04520&lt;/b&gt;&lt;br&gt;iron chelate uptake ABC transporter family permease subunit&lt;br&gt;Location: 94069 - 95085&lt;br&gt;&lt;br&gt;&lt;b&gt;BlastP hit with HS041_18605&lt;/b&gt;&lt;br&gt;Percentage identity: 47&lt;br&gt;Percentage coverage: 95&lt;br&gt;BLAST bit score: 238&lt;br&gt;E-value: 5.02e-76" locus_tag="FKD65_RS04520" class="clusterblast-orf" id="dummy-4_h4_8_66"  />
</g>
<g id="a4_0067"  >
<polygon points="652,85 657,80 659,80 659,90 657,90 652,85 " style="fill:#1563d8; stroke-width:1; stroke:black; " description="&lt;b&gt;FKD65_RS04525&lt;/b&gt;&lt;br&gt;iron chelate uptake ABC transporter family permease subunit&lt;br&gt;Location: 95082 - 96131&lt;br&gt;&lt;br&gt;&lt;b&gt;BlastP hit with HS041_18610&lt;/b&gt;&lt;br&gt;Percentage identity: 50&lt;br&gt;Percentage coverage: 99&lt;br&gt;BLAST bit score: 286&lt;br&gt;E-value: 6.28e-95" locus_tag="FKD65_RS04525" class="clusterblast-orf" id="dummy-4_h4_8_67"  />
</g>
<g id="a4_0068"  >
<polygon points="661,90 661,85 661,80 661,90 " style="fill:white; stroke-width:1; stroke:black; " description="&lt;b&gt;FKD65_RS45350&lt;/b&gt;&lt;br&gt;TetR/AcrR family transcriptional regulator&lt;br&gt;Location: 96345 - 96449" locus_tag="FKD65_RS45350" class="clusterblast-orf" id="dummy-4_h4_8_68"  />
</g>
<g id="a4_0069"  >
<polygon points="663,90 665,85 663,80 663,90 " style="fill:white; stroke-width:1; stroke:black; " description="&lt;b&gt;FKD65_RS45355&lt;/b&gt;&lt;br&gt;hypothetical protein&lt;br&gt;Location: 96621 - 96935" locus_tag="FKD65_RS45355" class="clusterblast-orf" id="dummy-4_h4_8_69"  />
</g>
<g id="a4_0070"  >
<polygon points="665,90 666,90 671,85 666,80 665,80 665,90 " style="fill:white; stroke-width:1; stroke:black; " description="&lt;b&gt;FKD65_RS04535&lt;/b&gt;&lt;br&gt;ABC transporter ATP-binding protein&lt;br&gt;Location: 96928 - 97830" locus_tag="FKD65_RS04535" class="clusterblast-orf" id="dummy-4_h4_8_70"  />
</g>
<g id="a4_0071"  >
<polygon points="671,90 677,90 682,85 677,80 671,80 671,90 " style="fill:white; stroke-width:1; stroke:black; " description="&lt;b&gt;FKD65_RS04540&lt;/b&gt;&lt;br&gt;ABC transporter permease&lt;br&gt;Location: 97827 - 99464" locus_tag="FKD65_RS04540" class="clusterblast-orf" id="dummy-4_h4_8_71"  />
</g>
<g id="a4_0072"  >
<polygon points="683,90 685,85 683,80 683,90 " style="fill:white; stroke-width:1; stroke:black; " description="&lt;b&gt;FKD65_RS04545&lt;/b&gt;&lt;br&gt;STAS domain-containing protein&lt;br&gt;Location: 99569 - 99964" locus_tag="FKD65_RS04545" class="clusterblast-orf" id="dummy-4_h4_8_72"  />
</g>
<g id="a4_0073"  >
<polygon points="686,85 691,80 698,80 698,90 691,90 686,85 " style="fill:white; stroke-width:1; stroke:black; " description="&lt;b&gt;FKD65_RS44025&lt;/b&gt;&lt;br&gt;sensor histidine kinase&lt;br&gt;Location: 100008 - 101774" locus_tag="FKD65_RS44025" class="clusterblast-orf" id="dummy-4_h4_8_73"  />
</g>
<g id="a4_0074"  >
<polygon points="700,85 705,80 705,80 705,90 705,90 700,85 " style="fill:white; stroke-width:1; stroke:black; " description="&lt;b&gt;FKD65_RS04555&lt;/b&gt;&lt;br&gt;response regulator transcription factor&lt;br&gt;Location: 102075 - 102749" locus_tag="FKD65_RS04555" class="clusterblast-orf" id="dummy-4_h4_8_74"  />
</g>
<g id="a4_0075"  >
<polygon points="705,85 710,80 717,80 717,90 710,90 705,85 " style="fill:white; stroke-width:1; stroke:black; " description="&lt;b&gt;FKD65_RS04560&lt;/b&gt;&lt;br&gt;histidine kinase&lt;br&gt;Location: 102740 - 104554" locus_tag="FKD65_RS04560" class="clusterblast-orf" id="dummy-4_h4_8_75"  />
</g>
<g id="a4_0076"  >
<polygon points="718,85 723,80 726,80 726,90 723,90 718,85 " style="fill:white; stroke-width:1; stroke:black; " description="&lt;b&gt;FKD65_RS04565&lt;/b&gt;&lt;br&gt;DNA polymerase IV&lt;br&gt;Location: 104721 - 105896" locus_tag="FKD65_RS04565" class="clusterblast-orf" id="dummy-4_h4_8_76"  />
</g>
<g id="a4_0077"  >
<polygon points="727,85 732,80 747,80 747,90 732,90 727,85 " style="fill:white; stroke-width:1; stroke:black; " description="&lt;b&gt;FKD65_RS04570&lt;/b&gt;&lt;br&gt;cellulose binding domain-containing protein&lt;br&gt;Location: 106038 - 108962" locus_tag="FKD65_RS04570" class="clusterblast-orf" id="dummy-4_h4_8_77"  />
</g>
<g id="a4_0078"  >
<polygon points="748,85 753,80 755,80 755,90 753,90 748,85 " style="fill:white; stroke-width:1; stroke:black; " description="&lt;b&gt;FKD65_RS04575&lt;/b&gt;&lt;br&gt;LacI family transcriptional regulator&lt;br&gt;Location: 109072 - 110109" locus_tag="FKD65_RS04575" class="clusterblast-orf" id="dummy-4_h4_8_78"  />
</g>
<g id="a4_0079"  >
<polygon points="757,90 762,90 767,85 762,80 757,80 757,90 " style="fill:white; stroke-width:1; stroke:black; " description="&lt;b&gt;FKD65_RS04580&lt;/b&gt;&lt;br&gt;cellulase family glycosylhydrolase&lt;br&gt;Location: 110403 - 111893" locus_tag="FKD65_RS04580" class="clusterblast-orf" id="dummy-4_h4_8_79"  />
</g>
<g id="a4_0080"  >
<polygon points="768,90 775,90 780,85 775,80 768,80 768,90 " style="fill:white; stroke-width:1; stroke:black; " description="&lt;b&gt;FKD65_RS04585&lt;/b&gt;&lt;br&gt;glycoside hydrolase family 6 protein&lt;br&gt;Location: 111937 - 113663" locus_tag="FKD65_RS04585" class="clusterblast-orf" id="dummy-4_h4_8_80"  />
</g>
</svg>
