<svg xmlns="http://www.w3.org/2000/svg" xmlns:xlink="http://www.w3.org/1999/xlink" version="1.1" x="0" y="0" height="230" width="800" viewBox="0 0 800 230" preserveAspectRatio="none"  >
<g label="Query sequence" class="clusterblast-cluster"  >
<text x="5" y="20" class="clusterblast-acc"  >
Query sequence</text>
<line x1="10" y1="35" x2="778.0" y2="35" style="stroke-width:1; stroke:grey; "  />
<polygon points="0,35 5,30 24,30 24,40 5,40 0,35 " style="fill:white; stroke-width:1; stroke:black; " description="&lt;b&gt;HS041_24960&lt;/b&gt;&lt;br&gt;hypothetical protein&lt;br&gt;Location: 753374 - 753986" locus_tag="HS041_24960" class="clusterblast-orf" id="dummy-3_q0_0_all"  />
<polygon points="51,35 56,30 99,30 99,40 56,40 51,35 " style="fill:white; stroke-width:1; stroke:black; " description="&lt;b&gt;HS041_24965&lt;/b&gt;&lt;br&gt;hypothetical protein&lt;br&gt;Location: 754683 - 755901" locus_tag="HS041_24965" class="clusterblast-orf" id="dummy-3_q1_0_all"  />
<polygon points="107,40 128,40 133,35 128,30 107,30 107,40 " style="fill:white; stroke-width:1; stroke:black; " description="&lt;b&gt;HS041_24970&lt;/b&gt;&lt;br&gt;response regulator transcription factor&lt;br&gt;Location: 756095 - 756752" locus_tag="HS041_24970" class="clusterblast-orf" id="dummy-3_q2_0_all"  />
<polygon points="132,35 137,30 200,30 200,40 137,40 132,35 " style="fill:#d81515; stroke-width:1; stroke:black; " description="&lt;b&gt;HS041_24975&lt;/b&gt;&lt;br&gt;ABC transporter ATP-binding protein&lt;br&gt;Location: 756733 - 758476" locus_tag="HS041_24975" class="clusterblast-orf" id="dummy-3_q3_0_all"  />
<polygon points="200,35 205,30 268,30 268,40 205,40 200,35 " style="fill:#4dd815; stroke-width:1; stroke:black; " description="&lt;b&gt;HS041_24980&lt;/b&gt;&lt;br&gt;ABC transporter ATP-binding protein&lt;br&gt;Location: 758472 - 760203" locus_tag="HS041_24980" class="clusterblast-orf" id="dummy-3_q4_0_all"  />
<polygon points="272,35 276,30 276,40 272,35 " style="fill:white; stroke-width:1; stroke:black; " description="&lt;b&gt;HS041_24985&lt;/b&gt;&lt;br&gt;SapB/AmfS family lantipeptide&lt;br&gt;Location: 760296 - 760410" locus_tag="HS041_24985" class="clusterblast-orf" id="dummy-3_q5_0_all"  />
<polygon points="279,35 284,30 388,30 388,40 284,40 279,35 " style="fill:#1585d8; stroke-width:1; stroke:black; " description="&lt;b&gt;HS041_24990&lt;/b&gt;&lt;br&gt;protein kinase/lanthionine synthetase C family protein&lt;br&gt;Location: 760480 - 763255" locus_tag="HS041_24990" class="clusterblast-orf" id="dummy-3_q6_0_all"  />
<polygon points="394,35 399,30 423,30 423,40 399,40 394,35 " style="fill:white; stroke-width:1; stroke:black; " description="&lt;b&gt;HS041_24995&lt;/b&gt;&lt;br&gt;hypothetical protein&lt;br&gt;Location: 763401 - 764133" locus_tag="HS041_24995" class="clusterblast-orf" id="dummy-3_q7_0_all"  />
<polygon points="429,35 434,30 457,30 457,40 434,40 429,35 " style="fill:white; stroke-width:1; stroke:black; " description="&lt;b&gt;HS041_25000&lt;/b&gt;&lt;br&gt;M50 family metallopeptidase&lt;br&gt;Location: 764287 - 765001" locus_tag="HS041_25000" class="clusterblast-orf" id="dummy-3_q8_0_all"  />
<polygon points="463,35 468,30 550,30 550,40 468,40 463,35 " style="fill:white; stroke-width:1; stroke:black; " description="&lt;b&gt;HS041_25005&lt;/b&gt;&lt;br&gt;MFS transporter&lt;br&gt;Location: 765160 - 767371" locus_tag="HS041_25005" class="clusterblast-orf" id="dummy-3_q9_0_all"  />
<polygon points="558,40 597,40 602,35 597,30 558,30 558,40 " style="fill:white; stroke-width:1; stroke:black; " description="&lt;b&gt;HS041_25010&lt;/b&gt;&lt;br&gt;hypothetical protein&lt;br&gt;Location: 767581 - 768694" locus_tag="HS041_25010" class="clusterblast-orf" id="dummy-3_q10_0_all"  />
<polygon points="605,35 610,30 639,30 639,40 610,40 605,35 " style="fill:#d815bc; stroke-width:1; stroke:black; " description="&lt;b&gt;HS041_25015&lt;/b&gt;&lt;br&gt;ABC transporter permease&lt;br&gt;Location: 768787 - 769642" locus_tag="HS041_25015" class="clusterblast-orf" id="dummy-3_q11_0_all"  />
<polygon points="642,35 647,30 681,30 681,40 647,40 642,35 " style="fill:#d8bc15; stroke-width:1; stroke:black; " description="&lt;b&gt;HS041_25020&lt;/b&gt;&lt;br&gt;ATP-binding cassette domain-containing protein&lt;br&gt;Location: 769729 - 770704" locus_tag="HS041_25020" class="clusterblast-orf" id="dummy-3_q12_0_all"  />
<polygon points="691,35 696,30 715,30 715,40 696,40 691,35 " style="fill:#15d885; stroke-width:1; stroke:black; " description="&lt;b&gt;HS041_25025&lt;/b&gt;&lt;br&gt;TetR/AcrR family transcriptional regulator&lt;br&gt;Location: 770968 - 771568" locus_tag="HS041_25025" class="clusterblast-orf" id="dummy-3_q13_0_all"  />
<polygon points="718,40 775,40 780,35 775,30 718,30 718,40 " style="fill:#4d15d8; stroke-width:1; stroke:black; " description="&lt;b&gt;HS041_25030&lt;/b&gt;&lt;br&gt;methylcrotonoyl-CoA carboxylase&lt;br&gt;Location: 771657 - 773226" locus_tag="HS041_25030" class="clusterblast-orf" id="dummy-3_q14_0_all"  />
</g>
<g label="BGC0002284" description="BGC0002284_c1: corynecin III/corynecin I/corynecin II (13% of genes show similarity), Other" class="clusterblast-cluster"  >
<text x="5" y="70" class="clusterblast-acc"  >
<a xlink:href="https://mibig.secondarymetabolites.org/go/BGC0002284/1" target="_blank">BGC0002284</a>: corynecin III/corynecin I/corynecin II                                           (13% of genes show similarity), Other</text>
<line x1="10" y1="85" x2="778.0" y2="85" style="stroke-width:1; stroke:grey; "  />
</g>
<g id="a3_000"  >
<polygon points="38,85 43,80 95,80 95,90 43,90 38,85 " style="fill:white; stroke-width:1; stroke:black; " description="&lt;b&gt;CPI83_20065&lt;/b&gt;&lt;br&gt;hypothetical protein&lt;br&gt;Location: 17900 - 16452" locus_tag="CPI83_20065" class="clusterblast-orf" id="dummy-3_h3_5_0"  />
</g>
<g id="a3_001"  >
<polygon points="104,90 187,90 192,85 187,80 104,80 104,90 " style="fill:white; stroke-width:1; stroke:black; " description="&lt;b&gt;CPI83_20060&lt;/b&gt;&lt;br&gt;MMPL family transporter&lt;br&gt;Location: 16227 - 13981" locus_tag="CPI83_20060" class="clusterblast-orf" id="dummy-3_h3_5_1"  />
</g>
<g id="a3_002"  >
<polygon points="199,90 251,90 256,85 251,80 199,80 199,90 " style="fill:white; stroke-width:1; stroke:black; " description="&lt;b&gt;CPI83_20055&lt;/b&gt;&lt;br&gt;hypothetical protein&lt;br&gt;Location: 13797 - 12358" locus_tag="CPI83_20055" class="clusterblast-orf" id="dummy-3_h3_5_2"  />
</g>
<g id="a3_003"  >
<polygon points="255,90 304,90 309,85 304,80 255,80 255,90 " style="fill:white; stroke-width:1; stroke:black; " description="&lt;b&gt;CPI83_20050&lt;/b&gt;&lt;br&gt;hypothetical protein&lt;br&gt;Location: 12361 - 10997" locus_tag="CPI83_20050" class="clusterblast-orf" id="dummy-3_h3_5_3"  />
</g>
<g id="a3_004"  >
<polygon points="308,85 313,80 363,80 363,90 313,90 308,85 " style="fill:white; stroke-width:1; stroke:black; " description="&lt;b&gt;CPI83_20045&lt;/b&gt;&lt;br&gt;C4-dicarboxylate transporter DctA&lt;br&gt;Location: 11019 - 9613" locus_tag="CPI83_20045" class="clusterblast-orf" id="dummy-3_h3_5_4"  />
</g>
<g id="a3_005"  >
<polygon points="371,90 376,90 381,85 376,80 371,80 371,90 " style="fill:white; stroke-width:1; stroke:black; " description="&lt;b&gt;CPI83_20040&lt;/b&gt;&lt;br&gt;GlsB/YeaQ/YmgE family stress response membrane protein&lt;br&gt;Location: 9424 - 9164" locus_tag="CPI83_20040" class="clusterblast-orf" id="dummy-3_h3_5_5"  />
</g>
<g id="a3_006"  >
<polygon points="387,85 392,80 417,80 417,90 392,90 387,85 " style="fill:white; stroke-width:1; stroke:black; " description="&lt;b&gt;CPI83_20035&lt;/b&gt;&lt;br&gt;GTP pyrophosphokinase&lt;br&gt;Location: 9006 - 8260" locus_tag="CPI83_20035" class="clusterblast-orf" id="dummy-3_h3_5_6"  />
</g>
<g id="a3_007"  >
<polygon points="419,85 424,80 442,80 442,90 424,90 419,85 " style="fill:#15d885; stroke-width:1; stroke:black; " description="&lt;b&gt;CPI83_20030&lt;/b&gt;&lt;br&gt;TetR/AcrR family transcriptional regulator&lt;br&gt;Location: 8211 - 7612&lt;br&gt;&lt;br&gt;&lt;b&gt;BlastP hit with HS041_25025&lt;/b&gt;&lt;br&gt;Percentage identity: 50&lt;br&gt;Percentage coverage: 94&lt;br&gt;BLAST bit score: 166&lt;br&gt;E-value: 8.5e-52" locus_tag="CPI83_20030" class="clusterblast-orf" id="dummy-3_h3_5_7"  />
</g>
<g id="a3_008"  >
<polygon points="446,90 503,90 508,85 503,80 446,80 446,90 " style="fill:#4d15d8; stroke-width:1; stroke:black; " description="&lt;b&gt;CPI83_20025&lt;/b&gt;&lt;br&gt;methylcrotonoyl-CoA carboxylase&lt;br&gt;Location: 7513 - 5924&lt;br&gt;&lt;br&gt;&lt;b&gt;BlastP hit with HS041_25030&lt;/b&gt;&lt;br&gt;Percentage identity: 78&lt;br&gt;Percentage coverage: 98&lt;br&gt;BLAST bit score: 805&lt;br&gt;E-value: 1.13e-293" locus_tag="CPI83_20025" class="clusterblast-orf" id="dummy-3_h3_5_8"  />
</g>
<g id="a3_009"  >
<polygon points="509,90 584,90 589,85 584,80 509,80 509,90 " style="fill:white; stroke-width:1; stroke:black; " description="&lt;b&gt;CPI83_20020&lt;/b&gt;&lt;br&gt;acetyl/propionyl/methylcrotonyl-CoA carboxylase subunit alpha&lt;br&gt;Location: 5918 - 3879" locus_tag="CPI83_20020" class="clusterblast-orf" id="dummy-3_h3_5_9"  />
</g>
<g id="a3_0010"  >
<polygon points="589,90 629,90 634,85 629,80 589,80 589,90 " style="fill:white; stroke-width:1; stroke:black; " description="&lt;b&gt;CPI83_20015&lt;/b&gt;&lt;br&gt;acyl-CoA dehydrogenase&lt;br&gt;Location: 3879 - 2716" locus_tag="CPI83_20015" class="clusterblast-orf" id="dummy-3_h3_5_10"  />
</g>
<g id="a3_0011"  >
<polygon points="634,90 648,90 653,85 648,80 634,80 634,90 " style="fill:white; stroke-width:1; stroke:black; " description="&lt;b&gt;CPI83_20010&lt;/b&gt;&lt;br&gt;dehydratase&lt;br&gt;Location: 2719 - 2231" locus_tag="CPI83_20010" class="clusterblast-orf" id="dummy-3_h3_5_11"  />
</g>
<g id="a3_0012"  >
<polygon points="653,90 681,90 686,85 681,80 653,80 653,90 " style="fill:white; stroke-width:1; stroke:black; " description="&lt;b&gt;CPI83_20005&lt;/b&gt;&lt;br&gt;CoA ester lyase&lt;br&gt;Location: 2234 - 1407" locus_tag="CPI83_20005" class="clusterblast-orf" id="dummy-3_h3_5_12"  />
</g>
<g id="a3_0013"  >
<polygon points="686,90 711,90 716,85 711,80 686,80 686,90 " style="fill:white; stroke-width:1; stroke:black; " description="&lt;b&gt;CPI83_20000&lt;/b&gt;&lt;br&gt;CoA transferase subunit A&lt;br&gt;Location: 1403 - 648" locus_tag="CPI83_20000" class="clusterblast-orf" id="dummy-3_h3_5_13"  />
</g>
<g id="a3_0014"  >
<polygon points="717,90 736,90 741,85 736,80 717,80 717,90 " style="fill:white; stroke-width:1; stroke:black; " description="&lt;b&gt;CPI83_19995&lt;/b&gt;&lt;br&gt;succinyl-CoA--3-ketoacid-CoA transferase&lt;br&gt;Location: 627 - 1" locus_tag="CPI83_19995" class="clusterblast-orf" id="dummy-3_h3_5_14"  />
</g>
</svg>
