<svg xmlns="http://www.w3.org/2000/svg" xmlns:xlink="http://www.w3.org/1999/xlink" version="1.1" x="0" y="0" height="230" width="800" viewBox="0 0 800 230" preserveAspectRatio="none"  >
<g label="Query sequence" class="clusterblast-cluster"  >
<text x="5" y="20" class="clusterblast-acc"  >
Query sequence</text>
<line x1="10" y1="35" x2="778.0" y2="35" style="stroke-width:1; stroke:grey; "  />
<polygon points="0,40 0,40 5,35 0,30 0,30 0,40 " style="fill:white; stroke-width:1; stroke:black; " description="&lt;b&gt;HS041_18440&lt;/b&gt;&lt;br&gt;hypothetical protein&lt;br&gt;Location: 1287086 - 1287521" locus_tag="HS041_18440" class="clusterblast-orf" id="dummy-4_q0_0_all"  />
<polygon points="8,35 13,30 42,30 42,40 13,40 8,35 " style="fill:white; stroke-width:1; stroke:black; " description="&lt;b&gt;HS041_18445&lt;/b&gt;&lt;br&gt;family 78 glycoside hydrolase catalytic domain&lt;br&gt;Location: 1287717 - 1290357" locus_tag="HS041_18445" class="clusterblast-orf" id="dummy-4_q1_0_all"  />
<polygon points="42,35 47,30 53,30 53,40 47,40 42,35 " style="fill:white; stroke-width:1; stroke:black; " description="&lt;b&gt;HS041_18450&lt;/b&gt;&lt;br&gt;carbohydrate ABC transporter permease&lt;br&gt;Location: 1290386 - 1291214" locus_tag="HS041_18450" class="clusterblast-orf" id="dummy-4_q2_0_all"  />
<polygon points="53,35 58,30 63,30 63,40 58,40 53,35 " style="fill:white; stroke-width:1; stroke:black; " description="&lt;b&gt;HS041_18455&lt;/b&gt;&lt;br&gt;sugar ABC transporter permease&lt;br&gt;Location: 1291210 - 1291987" locus_tag="HS041_18455" class="clusterblast-orf" id="dummy-4_q3_0_all"  />
<polygon points="65,35 70,30 84,30 84,40 70,40 65,35 " style="fill:white; stroke-width:1; stroke:black; " description="&lt;b&gt;HS041_18460&lt;/b&gt;&lt;br&gt;carbohydrate ABC transporter substrate-binding protein&lt;br&gt;Location: 1292163 - 1293573" locus_tag="HS041_18460" class="clusterblast-orf" id="dummy-4_q4_0_all"  />
<polygon points="86,40 93,40 98,35 93,30 86,30 86,40 " style="fill:white; stroke-width:1; stroke:black; " description="&lt;b&gt;HS041_18465&lt;/b&gt;&lt;br&gt;AraC family transcriptional regulator&lt;br&gt;Location: 1293771 - 1294686" locus_tag="HS041_18465" class="clusterblast-orf" id="dummy-4_q5_0_all"  />
<polygon points="102,40 112,40 117,35 112,30 102,30 102,40 " style="fill:white; stroke-width:1; stroke:black; " description="&lt;b&gt;HS041_18470&lt;/b&gt;&lt;br&gt;AraC family transcriptional regulator&lt;br&gt;Location: 1294989 - 1296129" locus_tag="HS041_18470" class="clusterblast-orf" id="dummy-4_q6_0_all"  />
<polygon points="119,40 123,35 119,30 119,40 " style="fill:white; stroke-width:1; stroke:black; " description="&lt;b&gt;HS041_18475&lt;/b&gt;&lt;br&gt;multidrug efflux SMR transporter&lt;br&gt;Location: 1296271 - 1296595" locus_tag="HS041_18475" class="clusterblast-orf" id="dummy-4_q7_0_all"  />
<polygon points="124,40 130,40 135,35 130,30 124,30 124,40 " style="fill:white; stroke-width:1; stroke:black; " description="&lt;b&gt;HS041_18480&lt;/b&gt;&lt;br&gt;haloalkane dehalogenase&lt;br&gt;Location: 1296668 - 1297556" locus_tag="HS041_18480" class="clusterblast-orf" id="dummy-4_q8_0_all"  />
<polygon points="137,40 137,40 142,35 137,30 137,30 137,40 " style="fill:white; stroke-width:1; stroke:black; " description="&lt;b&gt;HS041_18485&lt;/b&gt;&lt;br&gt;hypothetical protein&lt;br&gt;Location: 1297665 - 1298070" locus_tag="HS041_18485" class="clusterblast-orf" id="dummy-4_q9_0_all"  />
<polygon points="142,35 147,30 154,30 154,40 147,40 142,35 " style="fill:white; stroke-width:1; stroke:black; " description="&lt;b&gt;HS041_18490&lt;/b&gt;&lt;br&gt;LysR family transcriptional regulator&lt;br&gt;Location: 1298119 - 1299028" locus_tag="HS041_18490" class="clusterblast-orf" id="dummy-4_q10_0_all"  />
<polygon points="155,40 166,40 171,35 166,30 155,30 155,40 " style="fill:white; stroke-width:1; stroke:black; " description="&lt;b&gt;HS041_18495&lt;/b&gt;&lt;br&gt;MFS transporter&lt;br&gt;Location: 1299116 - 1300337" locus_tag="HS041_18495" class="clusterblast-orf" id="dummy-4_q11_0_all"  />
<polygon points="171,40 178,40 183,35 178,30 171,30 171,40 " style="fill:white; stroke-width:1; stroke:black; " description="&lt;b&gt;HS041_18500&lt;/b&gt;&lt;br&gt;NAD(P)H-binding protein&lt;br&gt;Location: 1300339 - 1301224" locus_tag="HS041_18500" class="clusterblast-orf" id="dummy-4_q12_0_all"  />
<polygon points="184,35 189,30 205,30 205,40 189,40 184,35 " style="fill:white; stroke-width:1; stroke:black; " description="&lt;b&gt;HS041_18505&lt;/b&gt;&lt;br&gt;pectate lyase&lt;br&gt;Location: 1301331 - 1302921" locus_tag="HS041_18505" class="clusterblast-orf" id="dummy-4_q13_0_all"  />
<polygon points="215,40 223,40 228,35 223,30 215,30 215,40 " style="fill:white; stroke-width:1; stroke:black; " description="&lt;b&gt;HS041_18510&lt;/b&gt;&lt;br&gt;right-handed parallel beta-helix repeat-containing protein&lt;br&gt;Location: 1303720 - 1304767" locus_tag="HS041_18510" class="clusterblast-orf" id="dummy-4_q14_0_all"  />
<polygon points="231,35 236,30 236,30 236,40 236,40 231,35 " style="fill:white; stroke-width:1; stroke:black; " description="&lt;b&gt;HS041_18515&lt;/b&gt;&lt;br&gt;hypothetical protein&lt;br&gt;Location: 1304968 - 1305343" locus_tag="HS041_18515" class="clusterblast-orf" id="dummy-4_q15_0_all"  />
<polygon points="237,40 241,35 237,30 237,40 " style="fill:white; stroke-width:1; stroke:black; " description="&lt;b&gt;HS041_18520&lt;/b&gt;&lt;br&gt;nuclear transport factor 2 family protein&lt;br&gt;Location: 1305419 - 1305761" locus_tag="HS041_18520" class="clusterblast-orf" id="dummy-4_q16_0_all"  />
<polygon points="243,35 248,30 284,30 284,40 248,40 243,35 " style="fill:white; stroke-width:1; stroke:black; " description="&lt;b&gt;HS041_18525&lt;/b&gt;&lt;br&gt;amino acid adenylation domain-containing protein&lt;br&gt;Location: 1305855 - 1309041" locus_tag="HS041_18525" class="clusterblast-orf" id="dummy-4_q17_0_all"  />
<polygon points="284,35 289,30 309,30 309,40 289,40 284,35 " style="fill:white; stroke-width:1; stroke:black; " description="&lt;b&gt;HS041_18530&lt;/b&gt;&lt;br&gt;non-ribosomal peptide synthetase&lt;br&gt;Location: 1309037 - 1310954" locus_tag="HS041_18530" class="clusterblast-orf" id="dummy-4_q18_0_all"  />
<polygon points="309,35 314,30 328,30 328,40 314,40 309,35 " style="fill:white; stroke-width:1; stroke:black; " description="&lt;b&gt;HS041_18535&lt;/b&gt;&lt;br&gt;hypothetical protein&lt;br&gt;Location: 1310958 - 1312443" locus_tag="HS041_18535" class="clusterblast-orf" id="dummy-4_q19_0_all"  />
<polygon points="328,35 330,30 330,40 328,35 " style="fill:#d81515; stroke-width:1; stroke:black; " description="&lt;b&gt;HS041_18540&lt;/b&gt;&lt;br&gt;MbtH family NRPS accessory protein&lt;br&gt;Location: 1312439 - 1312628" locus_tag="HS041_18540" class="clusterblast-orf" id="dummy-4_q20_0_all"  />
<polygon points="330,35 335,30 348,30 348,40 335,40 330,35 " style="fill:white; stroke-width:1; stroke:black; " description="&lt;b&gt;HS041_18545&lt;/b&gt;&lt;br&gt;hypothetical protein&lt;br&gt;Location: 1312624 - 1314019" locus_tag="HS041_18545" class="clusterblast-orf" id="dummy-4_q21_0_all"  />
<polygon points="348,35 351,30 351,40 348,35 " style="fill:white; stroke-width:1; stroke:black; " description="&lt;b&gt;HS041_18550&lt;/b&gt;&lt;br&gt;acyl carrier protein&lt;br&gt;Location: 1314015 - 1314255" locus_tag="HS041_18550" class="clusterblast-orf" id="dummy-4_q22_0_all"  />
<polygon points="351,35 356,30 372,30 372,40 356,40 351,35 " style="fill:white; stroke-width:1; stroke:black; " description="&lt;b&gt;HS041_18555&lt;/b&gt;&lt;br&gt;hypothetical protein&lt;br&gt;Location: 1314248 - 1315862" locus_tag="HS041_18555" class="clusterblast-orf" id="dummy-4_q23_0_all"  />
<polygon points="372,35 377,30 392,30 392,40 377,40 372,35 " style="fill:white; stroke-width:1; stroke:black; " description="&lt;b&gt;HS041_18560&lt;/b&gt;&lt;br&gt;AMP-binding protein&lt;br&gt;Location: 1315866 - 1317378" locus_tag="HS041_18560" class="clusterblast-orf" id="dummy-4_q24_0_all"  />
<polygon points="392,35 397,30 465,30 465,40 397,40 392,35 " style="fill:white; stroke-width:1; stroke:black; " description="&lt;b&gt;HS041_18565&lt;/b&gt;&lt;br&gt;amino acid adenylation domain-containing protein&lt;br&gt;Location: 1317374 - 1323035" locus_tag="HS041_18565" class="clusterblast-orf" id="dummy-4_q25_0_all"  />
<polygon points="471,35 476,30 479,30 479,40 476,40 471,35 " style="fill:white; stroke-width:1; stroke:black; " description="&lt;b&gt;HS041_18570&lt;/b&gt;&lt;br&gt;TetR/AcrR family transcriptional regulator&lt;br&gt;Location: 1323521 - 1324121" locus_tag="HS041_18570" class="clusterblast-orf" id="dummy-4_q26_0_all"  />
<polygon points="483,40 489,40 494,35 489,30 483,30 483,40 " style="fill:white; stroke-width:1; stroke:black; " description="&lt;b&gt;HS041_18575&lt;/b&gt;&lt;br&gt;SDR family oxidoreductase&lt;br&gt;Location: 1324440 - 1325268" locus_tag="HS041_18575" class="clusterblast-orf" id="dummy-4_q27_0_all"  />
<polygon points="494,40 509,40 514,35 509,30 494,30 494,40 " style="fill:white; stroke-width:1; stroke:black; " description="&lt;b&gt;HS041_18580&lt;/b&gt;&lt;br&gt;acyl-CoA synthetase&lt;br&gt;Location: 1325272 - 1326862" locus_tag="HS041_18580" class="clusterblast-orf" id="dummy-4_q28_0_all"  />
<polygon points="516,35 521,30 523,30 523,40 521,40 516,35 " style="fill:white; stroke-width:1; stroke:black; " description="&lt;b&gt;HS041_18585&lt;/b&gt;&lt;br&gt;hypothetical protein&lt;br&gt;Location: 1327020 - 1327503" locus_tag="HS041_18585" class="clusterblast-orf" id="dummy-4_q29_0_all"  />
<polygon points="523,35 528,30 552,30 552,40 528,40 523,35 " style="fill:white; stroke-width:1; stroke:black; " description="&lt;b&gt;HS041_18590&lt;/b&gt;&lt;br&gt;WD40 repeat domain-containing protein&lt;br&gt;Location: 1327499 - 1329803" locus_tag="HS041_18590" class="clusterblast-orf" id="dummy-4_q30_0_all"  />
<polygon points="555,40 562,40 567,35 562,30 555,30 555,40 " style="fill:white; stroke-width:1; stroke:black; " description="&lt;b&gt;HS041_18595&lt;/b&gt;&lt;br&gt;endonuclease/exonuclease/phosphatase family protein&lt;br&gt;Location: 1330013 - 1330895" locus_tag="HS041_18595" class="clusterblast-orf" id="dummy-4_q31_0_all"  />
<polygon points="568,35 573,30 582,30 582,40 573,40 568,35 " style="fill:white; stroke-width:1; stroke:black; " description="&lt;b&gt;HS041_18600&lt;/b&gt;&lt;br&gt;ABC transporter substrate-binding protein&lt;br&gt;Location: 1331031 - 1332075" locus_tag="HS041_18600" class="clusterblast-orf" id="dummy-4_q32_0_all"  />
<polygon points="583,35 588,30 597,30 597,40 588,40 583,35 " style="fill:#15d863; stroke-width:1; stroke:black; " description="&lt;b&gt;HS041_18605&lt;/b&gt;&lt;br&gt;iron chelate uptake ABC transporter family permease subunit&lt;br&gt;Location: 1332150 - 1333215" locus_tag="HS041_18605" class="clusterblast-orf" id="dummy-4_q33_0_all"  />
<polygon points="597,35 602,30 610,30 610,40 602,40 597,35 " style="fill:#1563d8; stroke-width:1; stroke:black; " description="&lt;b&gt;HS041_18610&lt;/b&gt;&lt;br&gt;iron ABC transporter permease&lt;br&gt;Location: 1333214 - 1334261" locus_tag="HS041_18610" class="clusterblast-orf" id="dummy-4_q34_0_all"  />
<polygon points="610,35 615,30 621,30 621,40 615,40 610,35 " style="fill:white; stroke-width:1; stroke:black; " description="&lt;b&gt;HS041_18615&lt;/b&gt;&lt;br&gt;iron-sulfur protein&lt;br&gt;Location: 1334257 - 1335064" locus_tag="HS041_18615" class="clusterblast-orf" id="dummy-4_q35_0_all"  />
<polygon points="625,35 630,30 635,30 635,40 630,40 625,35 " style="fill:white; stroke-width:1; stroke:black; " description="&lt;b&gt;HS041_18620&lt;/b&gt;&lt;br&gt;SagB/ThcOx family dehydrogenase&lt;br&gt;Location: 1335429 - 1336218" locus_tag="HS041_18620" class="clusterblast-orf" id="dummy-4_q36_0_all"  />
<polygon points="636,35 641,30 653,30 653,40 641,40 636,35 " style="fill:white; stroke-width:1; stroke:black; " description="&lt;b&gt;HS041_18625&lt;/b&gt;&lt;br&gt;YcaO-like family protein&lt;br&gt;Location: 1336242 - 1337562" locus_tag="HS041_18625" class="clusterblast-orf" id="dummy-4_q37_0_all"  />
<polygon points="653,35 658,30 667,30 667,40 658,40 653,35 " style="fill:white; stroke-width:1; stroke:black; " description="&lt;b&gt;HS041_18630&lt;/b&gt;&lt;br&gt;TOMM precursor leader peptide-binding protein&lt;br&gt;Location: 1337545 - 1338637" locus_tag="HS041_18630" class="clusterblast-orf" id="dummy-4_q38_0_all"  />
<polygon points="667,35 672,30 676,30 676,40 672,40 667,35 " style="fill:white; stroke-width:1; stroke:black; " description="&lt;b&gt;HS041_18635&lt;/b&gt;&lt;br&gt;hypothetical protein&lt;br&gt;Location: 1338636 - 1339338" locus_tag="HS041_18635" class="clusterblast-orf" id="dummy-4_q39_0_all"  />
<polygon points="679,35 684,30 689,30 689,40 684,40 679,35 " style="fill:white; stroke-width:1; stroke:black; " description="&lt;b&gt;HS041_18640&lt;/b&gt;&lt;br&gt;methyltransferase domain-containing protein&lt;br&gt;Location: 1339588 - 1340359" locus_tag="HS041_18640" class="clusterblast-orf" id="dummy-4_q40_0_all"  />
<polygon points="689,35 694,30 702,30 702,40 694,40 689,35 " style="fill:white; stroke-width:1; stroke:black; " description="&lt;b&gt;HS041_18645&lt;/b&gt;&lt;br&gt;aminoglycoside phosphotransferase family protein&lt;br&gt;Location: 1340355 - 1341345" locus_tag="HS041_18645" class="clusterblast-orf" id="dummy-4_q41_0_all"  />
<polygon points="702,35 707,30 733,30 733,40 707,40 702,35 " style="fill:white; stroke-width:1; stroke:black; " description="&lt;b&gt;HS041_18650&lt;/b&gt;&lt;br&gt;ATP-binding protein&lt;br&gt;Location: 1341347 - 1343774" locus_tag="HS041_18650" class="clusterblast-orf" id="dummy-4_q42_0_all"  />
<polygon points="736,40 737,40 742,35 737,30 736,30 736,40 " style="fill:white; stroke-width:1; stroke:black; " description="&lt;b&gt;HS041_18655&lt;/b&gt;&lt;br&gt;hypothetical protein&lt;br&gt;Location: 1343996 - 1344413" locus_tag="HS041_18655" class="clusterblast-orf" id="dummy-4_q43_0_all"  />
<polygon points="743,35 748,30 760,30 760,40 748,40 743,35 " style="fill:#b115d8; stroke-width:1; stroke:black; " description="&lt;b&gt;HS041_18660&lt;/b&gt;&lt;br&gt;sugar ABC transporter permease&lt;br&gt;Location: 1344557 - 1345826" locus_tag="HS041_18660" class="clusterblast-orf" id="dummy-4_q44_0_all"  />
<polygon points="760,35 765,30 780,30 780,40 765,40 760,35 " style="fill:#b1d815; stroke-width:1; stroke:black; " description="&lt;b&gt;HS041_18665&lt;/b&gt;&lt;br&gt;ATP-binding cassette domain-containing protein&lt;br&gt;Location: 1345825 - 1347355" locus_tag="HS041_18665" class="clusterblast-orf" id="dummy-4_q45_0_all"  />
</g>
<g label="BGC0000705" description="BGC0000705_c1: kanamycin (5% of genes show similarity), Saccharide" class="clusterblast-cluster"  >
<text x="5" y="70" class="clusterblast-acc"  >
<a xlink:href="https://mibig.secondarymetabolites.org/go/BGC0000705/1" target="_blank">BGC0000705</a>: kanamycin                                                                        (5% of genes show similarity), Saccharide</text>
<line x1="10" y1="85" x2="778.0" y2="85" style="stroke-width:1; stroke:grey; "  />
</g>
<g id="a4_000"  >
<polygon points="120,85 125,80 131,80 131,90 125,90 120,85 " style="fill:white; stroke-width:1; stroke:black; " description="&lt;b&gt;CAI96521.1&lt;/b&gt;&lt;br&gt;putative crotony-CoA reductase&lt;br&gt;Location: 41573 - 40758" locus_tag="CAI96521.1" class="clusterblast-orf" id="dummy-4_h4_5_0"  />
</g>
<g id="a4_001"  >
<polygon points="136,85 141,80 147,80 147,90 141,90 136,85 " style="fill:white; stroke-width:1; stroke:black; " description="&lt;b&gt;CAF31602.1&lt;/b&gt;&lt;br&gt;putative regulatory protein&lt;br&gt;Location: 40356 - 39547" locus_tag="CAF31602.1" class="clusterblast-orf" id="dummy-4_h4_5_1"  />
</g>
<g id="a4_002"  >
<polygon points="148,85 153,80 171,80 171,90 153,90 148,85 " style="fill:white; stroke-width:1; stroke:black; " description="&lt;b&gt;CAF31601.1&lt;/b&gt;&lt;br&gt;putative dehydrogenase&lt;br&gt;Location: 39434 - 37653" locus_tag="CAF31601.1" class="clusterblast-orf" id="dummy-4_h4_5_2"  />
</g>
<g id="a4_003"  >
<polygon points="174,90 178,90 183,85 178,80 174,80 174,90 " style="fill:white; stroke-width:1; stroke:black; " description="&lt;b&gt;CAF31600.1&lt;/b&gt;&lt;br&gt;putative kanamycin biosynthetic protein&lt;br&gt;Location: 37400 - 36729" locus_tag="CAF31600.1" class="clusterblast-orf" id="dummy-4_h4_5_3"  />
</g>
<g id="a4_004"  >
<polygon points="183,85 188,80 189,80 189,90 188,90 183,85 " style="fill:white; stroke-width:1; stroke:black; " description="&lt;b&gt;CAF31599.1&lt;/b&gt;&lt;br&gt;putative kanamycin biosynthetic protein&lt;br&gt;Location: 36705 - 36307" locus_tag="CAF31599.1" class="clusterblast-orf" id="dummy-4_h4_5_4"  />
</g>
<g id="a4_005"  >
<polygon points="189,85 194,80 202,80 202,90 194,90 189,85 " style="fill:white; stroke-width:1; stroke:black; " description="&lt;b&gt;CAF31598.1&lt;/b&gt;&lt;br&gt;putative kanamycin biosynthetic protein&lt;br&gt;Location: 36272 - 35265" locus_tag="CAF31598.1" class="clusterblast-orf" id="dummy-4_h4_5_5"  />
</g>
<g id="a4_006"  >
<polygon points="203,85 208,80 219,80 219,90 208,90 203,85 " style="fill:white; stroke-width:1; stroke:black; " description="&lt;b&gt;CAF31597.1&lt;/b&gt;&lt;br&gt;putative 2-deoxystreptamine 4-(N-acetyl-)glucosaminyltransferase&lt;br&gt;Location: 35206 - 33962" locus_tag="CAF31597.1" class="clusterblast-orf" id="dummy-4_h4_5_6"  />
</g>
<g id="a4_007"  >
<polygon points="220,85 225,80 231,80 231,90 225,90 220,85 " style="fill:white; stroke-width:1; stroke:black; " description="&lt;b&gt;CAF31596.1&lt;/b&gt;&lt;br&gt;16S rRNA methyltransferasease&lt;br&gt;Location: 33879 - 33046" locus_tag="CAF31596.1" class="clusterblast-orf" id="dummy-4_h4_5_7"  />
</g>
<g id="a4_008"  >
<polygon points="232,85 237,80 245,80 245,90 237,90 232,85 " style="fill:white; stroke-width:1; stroke:black; " description="&lt;b&gt;CAF31595.1&lt;/b&gt;&lt;br&gt;putative (NDP-)sugar oxidoreductase&lt;br&gt;Location: 32920 - 31970" locus_tag="CAF31595.1" class="clusterblast-orf" id="dummy-4_h4_5_8"  />
</g>
<g id="a4_009"  >
<polygon points="246,85 251,80 258,80 258,90 251,90 246,85 " style="fill:white; stroke-width:1; stroke:black; " description="&lt;b&gt;CAF31594.2&lt;/b&gt;&lt;br&gt;putative kanamycin biosynthetic protein&lt;br&gt;Location: 31836 - 30979" locus_tag="CAF31594.2" class="clusterblast-orf" id="dummy-4_h4_5_9"  />
</g>
<g id="a4_0010"  >
<polygon points="260,85 265,80 276,80 276,90 265,90 260,85 " style="fill:white; stroke-width:1; stroke:black; " description="&lt;b&gt;CAF31593.1&lt;/b&gt;&lt;br&gt;putative pyridoxalphosphate-dependent aminotransferase class IV&lt;br&gt;Location: 30820 - 29561" locus_tag="CAF31593.1" class="clusterblast-orf" id="dummy-4_h4_5_10"  />
</g>
<g id="a4_0011"  >
<polygon points="276,85 281,80 286,80 286,90 281,90 276,85 " style="fill:white; stroke-width:1; stroke:black; " description="&lt;b&gt;CAF31592.1&lt;/b&gt;&lt;br&gt;KanN&lt;br&gt;Location: 29564 - 28815" locus_tag="CAF31592.1" class="clusterblast-orf" id="dummy-4_h4_5_11"  />
</g>
<g id="a4_0012"  >
<polygon points="286,85 291,80 301,80 301,90 291,90 286,85 " style="fill:white; stroke-width:1; stroke:black; " description="&lt;b&gt;CAF31591.1&lt;/b&gt;&lt;br&gt;putative paromamine 6-glucosyltransferase&lt;br&gt;Location: 28818 - 27652" locus_tag="CAF31591.1" class="clusterblast-orf" id="dummy-4_h4_5_12"  />
</g>
<g id="a4_0013"  >
<polygon points="304,85 309,80 318,80 318,90 309,90 304,85 " style="fill:white; stroke-width:1; stroke:black; " description="&lt;b&gt;CAF31590.1&lt;/b&gt;&lt;br&gt;oxidoreductase&lt;br&gt;Location: 27413 - 26304" locus_tag="CAF31590.1" class="clusterblast-orf" id="dummy-4_h4_5_13"  />
</g>
<g id="a4_0014"  >
<polygon points="318,85 323,80 333,80 333,90 323,90 318,85 " style="fill:white; stroke-width:1; stroke:black; " description="&lt;b&gt;CAF31589.1&lt;/b&gt;&lt;br&gt;2-deoxy scyllo-inosose synthase&lt;br&gt;Location: 26295 - 25123" locus_tag="CAF31589.1" class="clusterblast-orf" id="dummy-4_h4_5_14"  />
</g>
<g id="a4_0015"  >
<polygon points="334,85 339,80 351,80 351,90 339,90 334,85 " style="fill:white; stroke-width:1; stroke:black; " description="&lt;b&gt;CAF31588.1&lt;/b&gt;&lt;br&gt;L-glutamine:2-deoxy-ketocyclitol aminotransferase&lt;br&gt;Location: 25081 - 23798" locus_tag="CAF31588.1" class="clusterblast-orf" id="dummy-4_h4_5_15"  />
</g>
<g id="a4_0016"  >
<polygon points="352,85 357,80 372,80 372,90 357,90 352,85 " style="fill:white; stroke-width:1; stroke:black; " description="&lt;b&gt;CAF31587.1&lt;/b&gt;&lt;br&gt;oxidoreductase; putative kanamycin 6'-dehydrogenase&lt;br&gt;Location: 23679 - 22153" locus_tag="CAF31587.1" class="clusterblast-orf" id="dummy-4_h4_5_16"  />
</g>
<g id="a4_0017"  >
<polygon points="372,85 377,80 387,80 387,90 377,90 372,85 " style="fill:white; stroke-width:1; stroke:black; " description="&lt;b&gt;CAF31586.1&lt;/b&gt;&lt;br&gt;pyridoxalphosphate-dependent aminotransferase class III&lt;br&gt;Location: 22145 - 20967" locus_tag="CAF31586.1" class="clusterblast-orf" id="dummy-4_h4_5_17"  />
</g>
<g id="a4_0018"  >
<polygon points="387,85 392,80 403,80 403,90 392,90 387,85 " style="fill:white; stroke-width:1; stroke:black; " description="&lt;b&gt;CAF31585.1&lt;/b&gt;&lt;br&gt;putative kanamycin export protein&lt;br&gt;Location: 20961 - 19720" locus_tag="CAF31585.1" class="clusterblast-orf" id="dummy-4_h4_5_18"  />
</g>
<g id="a4_0019"  >
<polygon points="405,85 410,80 418,80 418,90 410,90 405,85 " style="fill:white; stroke-width:1; stroke:black; " description="&lt;b&gt;CAF31584.1&lt;/b&gt;&lt;br&gt;3-amino-2,3-dideoxy-scyllo-inositol 1-dehydrogenase&lt;br&gt;Location: 19621 - 18590" locus_tag="CAF31584.1" class="clusterblast-orf" id="dummy-4_h4_5_19"  />
</g>
<g id="a4_0020"  >
<polygon points="419,85 424,80 434,80 434,90 424,90 419,85 " style="fill:white; stroke-width:1; stroke:black; " description="&lt;b&gt;CAF31583.1&lt;/b&gt;&lt;br&gt;putative regulator of gene expression&lt;br&gt;Location: 18495 - 17386" locus_tag="CAF31583.1" class="clusterblast-orf" id="dummy-4_h4_5_20"  />
</g>
<g id="a4_0021"  >
<polygon points="439,90 440,90 445,85 440,80 439,80 439,90 " style="fill:white; stroke-width:1; stroke:black; " description="&lt;b&gt;CAF31582.1&lt;/b&gt;&lt;br&gt;KanI&lt;br&gt;Location: 16958 - 16476" locus_tag="CAF31582.1" class="clusterblast-orf" id="dummy-4_h4_5_21"  />
</g>
<g id="a4_0022"  >
<polygon points="446,90 449,90 454,85 449,80 446,80 446,90 " style="fill:white; stroke-width:1; stroke:black; " description="&lt;b&gt;CAF31581.1&lt;/b&gt;&lt;br&gt;KanH&lt;br&gt;Location: 16418 - 15831" locus_tag="CAF31581.1" class="clusterblast-orf" id="dummy-4_h4_5_22"  />
</g>
<g id="a4_0023"  >
<polygon points="454,90 464,90 469,85 464,80 454,80 454,90 " style="fill:white; stroke-width:1; stroke:black; " description="&lt;b&gt;CAF31580.1&lt;/b&gt;&lt;br&gt;KanG&lt;br&gt;Location: 15784 - 14663" locus_tag="CAF31580.1" class="clusterblast-orf" id="dummy-4_h4_5_23"  />
</g>
<g id="a4_0024"  >
<polygon points="470,85 475,80 476,80 476,90 475,90 470,85 " style="fill:white; stroke-width:1; stroke:black; " description="&lt;b&gt;CAF31579.1&lt;/b&gt;&lt;br&gt;kanamycin 6'-acetyltransferase&lt;br&gt;Location: 14597 - 14067" locus_tag="CAF31579.1" class="clusterblast-orf" id="dummy-4_h4_5_24"  />
</g>
<g id="a4_0025"  >
<polygon points="477,90 479,85 477,80 477,90 " style="fill:white; stroke-width:1; stroke:black; " description="&lt;b&gt;CAF31578.1&lt;/b&gt;&lt;br&gt;possible kanamycin biosynthetic protein&lt;br&gt;Location: 14031 - 13837" locus_tag="CAF31578.1" class="clusterblast-orf" id="dummy-4_h4_5_25"  />
</g>
<g id="a4_0026"  >
<polygon points="480,90 491,90 496,85 491,80 480,80 480,90 " style="fill:white; stroke-width:1; stroke:black; " description="&lt;b&gt;CAF31577.1&lt;/b&gt;&lt;br&gt;putative integral membrane kanamycin efflux protein&lt;br&gt;Location: 13786 - 12524" locus_tag="CAF31577.1" class="clusterblast-orf" id="dummy-4_h4_5_26"  />
</g>
<g id="a4_0027"  >
<polygon points="498,90 499,90 504,85 499,80 498,80 498,90 " style="fill:white; stroke-width:1; stroke:black; " description="&lt;b&gt;CAF31576.1&lt;/b&gt;&lt;br&gt;KanY&lt;br&gt;Location: 12402 - 11959" locus_tag="CAF31576.1" class="clusterblast-orf" id="dummy-4_h4_5_27"  />
</g>
<g id="a4_0028"  >
<polygon points="506,90 533,90 538,85 533,80 506,80 506,90 " style="fill:white; stroke-width:1; stroke:black; " description="&lt;b&gt;CAF31575.1&lt;/b&gt;&lt;br&gt;putative kanamycin efflux protein&lt;br&gt;Location: 11755 - 9320" locus_tag="CAF31575.1" class="clusterblast-orf" id="dummy-4_h4_5_28"  />
</g>
<g id="a4_0029"  >
<polygon points="540,90 567,90 572,85 567,80 540,80 540,90 " style="fill:white; stroke-width:1; stroke:black; " description="&lt;b&gt;CAF31574.1&lt;/b&gt;&lt;br&gt;possible kanamycin regulatory protein&lt;br&gt;Location: 9178 - 6680" locus_tag="CAF31574.1" class="clusterblast-orf" id="dummy-4_h4_5_29"  />
</g>
<g id="a4_0030"  >
<polygon points="575,90 579,90 584,85 579,80 575,80 575,90 " style="fill:white; stroke-width:1; stroke:black; " description="&lt;b&gt;CAF31573.1&lt;/b&gt;&lt;br&gt;hypothetical protein&lt;br&gt;Location: 6485 - 5763" locus_tag="CAF31573.1" class="clusterblast-orf" id="dummy-4_h4_5_30"  />
</g>
<g id="a4_0031"  >
<polygon points="585,90 586,90 591,85 586,80 585,80 585,90 " style="fill:white; stroke-width:1; stroke:black; " description="&lt;b&gt;CAF31572.1&lt;/b&gt;&lt;br&gt;hypothetical protein&lt;br&gt;Location: 5655 - 5227" locus_tag="CAF31572.1" class="clusterblast-orf" id="dummy-4_h4_5_31"  />
</g>
<g id="a4_0032"  >
<polygon points="592,85 597,80 603,80 603,90 597,90 592,85 " style="fill:white; stroke-width:1; stroke:black; " description="&lt;b&gt;CAF31571.1&lt;/b&gt;&lt;br&gt;putative NH3-dependent NAD(+) synthase&lt;br&gt;Location: 5161 - 4325" locus_tag="CAF31571.1" class="clusterblast-orf" id="dummy-4_h4_5_32"  />
</g>
<g id="a4_0033"  >
<polygon points="607,90 614,90 619,85 614,80 607,80 607,90 " style="fill:white; stroke-width:1; stroke:black; " description="&lt;b&gt;CAF31570.1&lt;/b&gt;&lt;br&gt;putative O-methyltransferase&lt;br&gt;Location: 3999 - 3025" locus_tag="CAF31570.1" class="clusterblast-orf" id="dummy-4_h4_5_33"  />
</g>
<g id="a4_0034"  >
<polygon points="622,85 627,80 638,80 638,90 627,90 622,85 " style="fill:#b115d8; stroke-width:1; stroke:black; " description="&lt;b&gt;CAF31569.1&lt;/b&gt;&lt;br&gt;putative sugar ABC transporter&lt;br&gt;Location: 2805 - 1564&lt;br&gt;&lt;br&gt;&lt;b&gt;BlastP hit with HS041_18660&lt;/b&gt;&lt;br&gt;Percentage identity: 50&lt;br&gt;Percentage coverage: 101&lt;br&gt;BLAST bit score: 348&lt;br&gt;E-value: 3.18e-117" locus_tag="CAF31569.1" class="clusterblast-orf" id="dummy-4_h4_5_34"  />
</g>
<g id="a4_0035"  >
<polygon points="638,85 643,80 659,80 659,90 643,90 638,85 " style="fill:#b1d815; stroke-width:1; stroke:black; " description="&lt;b&gt;CAF31568.1&lt;/b&gt;&lt;br&gt;putative sugar ABC transporter&lt;br&gt;Location: 1555 - 1&lt;br&gt;&lt;br&gt;&lt;b&gt;BlastP hit with HS041_18665&lt;/b&gt;&lt;br&gt;Percentage identity: 68&lt;br&gt;Percentage coverage: 100&lt;br&gt;BLAST bit score: 670&lt;br&gt;E-value: 1.07e-240" locus_tag="CAF31568.1" class="clusterblast-orf" id="dummy-4_h4_5_35"  />
</g>
</svg>
