<svg xmlns="http://www.w3.org/2000/svg" xmlns:xlink="http://www.w3.org/1999/xlink" version="1.1" x="0" y="0" height="230" width="800" viewBox="0 0 800 230" preserveAspectRatio="none"  >
<g label="Query sequence" class="clusterblast-cluster"  >
<text x="5" y="20" class="clusterblast-acc"  >
Query sequence</text>
<line x1="10" y1="35" x2="778.0" y2="35" style="stroke-width:1; stroke:grey; "  />
<polygon points="0,40 0,40 5,35 0,30 0,30 0,40 " style="fill:white; stroke-width:1; stroke:black; " description="&lt;b&gt;HS041_18440&lt;/b&gt;&lt;br&gt;hypothetical protein&lt;br&gt;Location: 1287086 - 1287521" locus_tag="HS041_18440" class="clusterblast-orf" id="dummy-4_q0_0_all"  />
<polygon points="8,35 13,30 42,30 42,40 13,40 8,35 " style="fill:white; stroke-width:1; stroke:black; " description="&lt;b&gt;HS041_18445&lt;/b&gt;&lt;br&gt;family 78 glycoside hydrolase catalytic domain&lt;br&gt;Location: 1287717 - 1290357" locus_tag="HS041_18445" class="clusterblast-orf" id="dummy-4_q1_0_all"  />
<polygon points="42,35 47,30 53,30 53,40 47,40 42,35 " style="fill:white; stroke-width:1; stroke:black; " description="&lt;b&gt;HS041_18450&lt;/b&gt;&lt;br&gt;carbohydrate ABC transporter permease&lt;br&gt;Location: 1290386 - 1291214" locus_tag="HS041_18450" class="clusterblast-orf" id="dummy-4_q2_0_all"  />
<polygon points="53,35 58,30 63,30 63,40 58,40 53,35 " style="fill:white; stroke-width:1; stroke:black; " description="&lt;b&gt;HS041_18455&lt;/b&gt;&lt;br&gt;sugar ABC transporter permease&lt;br&gt;Location: 1291210 - 1291987" locus_tag="HS041_18455" class="clusterblast-orf" id="dummy-4_q3_0_all"  />
<polygon points="65,35 70,30 84,30 84,40 70,40 65,35 " style="fill:white; stroke-width:1; stroke:black; " description="&lt;b&gt;HS041_18460&lt;/b&gt;&lt;br&gt;carbohydrate ABC transporter substrate-binding protein&lt;br&gt;Location: 1292163 - 1293573" locus_tag="HS041_18460" class="clusterblast-orf" id="dummy-4_q4_0_all"  />
<polygon points="86,40 93,40 98,35 93,30 86,30 86,40 " style="fill:white; stroke-width:1; stroke:black; " description="&lt;b&gt;HS041_18465&lt;/b&gt;&lt;br&gt;AraC family transcriptional regulator&lt;br&gt;Location: 1293771 - 1294686" locus_tag="HS041_18465" class="clusterblast-orf" id="dummy-4_q5_0_all"  />
<polygon points="102,40 112,40 117,35 112,30 102,30 102,40 " style="fill:white; stroke-width:1; stroke:black; " description="&lt;b&gt;HS041_18470&lt;/b&gt;&lt;br&gt;AraC family transcriptional regulator&lt;br&gt;Location: 1294989 - 1296129" locus_tag="HS041_18470" class="clusterblast-orf" id="dummy-4_q6_0_all"  />
<polygon points="119,40 123,35 119,30 119,40 " style="fill:white; stroke-width:1; stroke:black; " description="&lt;b&gt;HS041_18475&lt;/b&gt;&lt;br&gt;multidrug efflux SMR transporter&lt;br&gt;Location: 1296271 - 1296595" locus_tag="HS041_18475" class="clusterblast-orf" id="dummy-4_q7_0_all"  />
<polygon points="124,40 130,40 135,35 130,30 124,30 124,40 " style="fill:white; stroke-width:1; stroke:black; " description="&lt;b&gt;HS041_18480&lt;/b&gt;&lt;br&gt;haloalkane dehalogenase&lt;br&gt;Location: 1296668 - 1297556" locus_tag="HS041_18480" class="clusterblast-orf" id="dummy-4_q8_0_all"  />
<polygon points="137,40 137,40 142,35 137,30 137,30 137,40 " style="fill:white; stroke-width:1; stroke:black; " description="&lt;b&gt;HS041_18485&lt;/b&gt;&lt;br&gt;hypothetical protein&lt;br&gt;Location: 1297665 - 1298070" locus_tag="HS041_18485" class="clusterblast-orf" id="dummy-4_q9_0_all"  />
<polygon points="142,35 147,30 154,30 154,40 147,40 142,35 " style="fill:white; stroke-width:1; stroke:black; " description="&lt;b&gt;HS041_18490&lt;/b&gt;&lt;br&gt;LysR family transcriptional regulator&lt;br&gt;Location: 1298119 - 1299028" locus_tag="HS041_18490" class="clusterblast-orf" id="dummy-4_q10_0_all"  />
<polygon points="155,40 166,40 171,35 166,30 155,30 155,40 " style="fill:white; stroke-width:1; stroke:black; " description="&lt;b&gt;HS041_18495&lt;/b&gt;&lt;br&gt;MFS transporter&lt;br&gt;Location: 1299116 - 1300337" locus_tag="HS041_18495" class="clusterblast-orf" id="dummy-4_q11_0_all"  />
<polygon points="171,40 178,40 183,35 178,30 171,30 171,40 " style="fill:white; stroke-width:1; stroke:black; " description="&lt;b&gt;HS041_18500&lt;/b&gt;&lt;br&gt;NAD(P)H-binding protein&lt;br&gt;Location: 1300339 - 1301224" locus_tag="HS041_18500" class="clusterblast-orf" id="dummy-4_q12_0_all"  />
<polygon points="184,35 189,30 205,30 205,40 189,40 184,35 " style="fill:white; stroke-width:1; stroke:black; " description="&lt;b&gt;HS041_18505&lt;/b&gt;&lt;br&gt;pectate lyase&lt;br&gt;Location: 1301331 - 1302921" locus_tag="HS041_18505" class="clusterblast-orf" id="dummy-4_q13_0_all"  />
<polygon points="215,40 223,40 228,35 223,30 215,30 215,40 " style="fill:white; stroke-width:1; stroke:black; " description="&lt;b&gt;HS041_18510&lt;/b&gt;&lt;br&gt;right-handed parallel beta-helix repeat-containing protein&lt;br&gt;Location: 1303720 - 1304767" locus_tag="HS041_18510" class="clusterblast-orf" id="dummy-4_q14_0_all"  />
<polygon points="231,35 236,30 236,30 236,40 236,40 231,35 " style="fill:white; stroke-width:1; stroke:black; " description="&lt;b&gt;HS041_18515&lt;/b&gt;&lt;br&gt;hypothetical protein&lt;br&gt;Location: 1304968 - 1305343" locus_tag="HS041_18515" class="clusterblast-orf" id="dummy-4_q15_0_all"  />
<polygon points="237,40 241,35 237,30 237,40 " style="fill:white; stroke-width:1; stroke:black; " description="&lt;b&gt;HS041_18520&lt;/b&gt;&lt;br&gt;nuclear transport factor 2 family protein&lt;br&gt;Location: 1305419 - 1305761" locus_tag="HS041_18520" class="clusterblast-orf" id="dummy-4_q16_0_all"  />
<polygon points="243,35 248,30 284,30 284,40 248,40 243,35 " style="fill:white; stroke-width:1; stroke:black; " description="&lt;b&gt;HS041_18525&lt;/b&gt;&lt;br&gt;amino acid adenylation domain-containing protein&lt;br&gt;Location: 1305855 - 1309041" locus_tag="HS041_18525" class="clusterblast-orf" id="dummy-4_q17_0_all"  />
<polygon points="284,35 289,30 309,30 309,40 289,40 284,35 " style="fill:white; stroke-width:1; stroke:black; " description="&lt;b&gt;HS041_18530&lt;/b&gt;&lt;br&gt;non-ribosomal peptide synthetase&lt;br&gt;Location: 1309037 - 1310954" locus_tag="HS041_18530" class="clusterblast-orf" id="dummy-4_q18_0_all"  />
<polygon points="309,35 314,30 328,30 328,40 314,40 309,35 " style="fill:white; stroke-width:1; stroke:black; " description="&lt;b&gt;HS041_18535&lt;/b&gt;&lt;br&gt;hypothetical protein&lt;br&gt;Location: 1310958 - 1312443" locus_tag="HS041_18535" class="clusterblast-orf" id="dummy-4_q19_0_all"  />
<polygon points="328,35 330,30 330,40 328,35 " style="fill:#d81515; stroke-width:1; stroke:black; " description="&lt;b&gt;HS041_18540&lt;/b&gt;&lt;br&gt;MbtH family NRPS accessory protein&lt;br&gt;Location: 1312439 - 1312628" locus_tag="HS041_18540" class="clusterblast-orf" id="dummy-4_q20_0_all"  />
<polygon points="330,35 335,30 348,30 348,40 335,40 330,35 " style="fill:white; stroke-width:1; stroke:black; " description="&lt;b&gt;HS041_18545&lt;/b&gt;&lt;br&gt;hypothetical protein&lt;br&gt;Location: 1312624 - 1314019" locus_tag="HS041_18545" class="clusterblast-orf" id="dummy-4_q21_0_all"  />
<polygon points="348,35 351,30 351,40 348,35 " style="fill:white; stroke-width:1; stroke:black; " description="&lt;b&gt;HS041_18550&lt;/b&gt;&lt;br&gt;acyl carrier protein&lt;br&gt;Location: 1314015 - 1314255" locus_tag="HS041_18550" class="clusterblast-orf" id="dummy-4_q22_0_all"  />
<polygon points="351,35 356,30 372,30 372,40 356,40 351,35 " style="fill:white; stroke-width:1; stroke:black; " description="&lt;b&gt;HS041_18555&lt;/b&gt;&lt;br&gt;hypothetical protein&lt;br&gt;Location: 1314248 - 1315862" locus_tag="HS041_18555" class="clusterblast-orf" id="dummy-4_q23_0_all"  />
<polygon points="372,35 377,30 392,30 392,40 377,40 372,35 " style="fill:white; stroke-width:1; stroke:black; " description="&lt;b&gt;HS041_18560&lt;/b&gt;&lt;br&gt;AMP-binding protein&lt;br&gt;Location: 1315866 - 1317378" locus_tag="HS041_18560" class="clusterblast-orf" id="dummy-4_q24_0_all"  />
<polygon points="392,35 397,30 465,30 465,40 397,40 392,35 " style="fill:white; stroke-width:1; stroke:black; " description="&lt;b&gt;HS041_18565&lt;/b&gt;&lt;br&gt;amino acid adenylation domain-containing protein&lt;br&gt;Location: 1317374 - 1323035" locus_tag="HS041_18565" class="clusterblast-orf" id="dummy-4_q25_0_all"  />
<polygon points="471,35 476,30 479,30 479,40 476,40 471,35 " style="fill:white; stroke-width:1; stroke:black; " description="&lt;b&gt;HS041_18570&lt;/b&gt;&lt;br&gt;TetR/AcrR family transcriptional regulator&lt;br&gt;Location: 1323521 - 1324121" locus_tag="HS041_18570" class="clusterblast-orf" id="dummy-4_q26_0_all"  />
<polygon points="483,40 489,40 494,35 489,30 483,30 483,40 " style="fill:white; stroke-width:1; stroke:black; " description="&lt;b&gt;HS041_18575&lt;/b&gt;&lt;br&gt;SDR family oxidoreductase&lt;br&gt;Location: 1324440 - 1325268" locus_tag="HS041_18575" class="clusterblast-orf" id="dummy-4_q27_0_all"  />
<polygon points="494,40 509,40 514,35 509,30 494,30 494,40 " style="fill:white; stroke-width:1; stroke:black; " description="&lt;b&gt;HS041_18580&lt;/b&gt;&lt;br&gt;acyl-CoA synthetase&lt;br&gt;Location: 1325272 - 1326862" locus_tag="HS041_18580" class="clusterblast-orf" id="dummy-4_q28_0_all"  />
<polygon points="516,35 521,30 523,30 523,40 521,40 516,35 " style="fill:white; stroke-width:1; stroke:black; " description="&lt;b&gt;HS041_18585&lt;/b&gt;&lt;br&gt;hypothetical protein&lt;br&gt;Location: 1327020 - 1327503" locus_tag="HS041_18585" class="clusterblast-orf" id="dummy-4_q29_0_all"  />
<polygon points="523,35 528,30 552,30 552,40 528,40 523,35 " style="fill:white; stroke-width:1; stroke:black; " description="&lt;b&gt;HS041_18590&lt;/b&gt;&lt;br&gt;WD40 repeat domain-containing protein&lt;br&gt;Location: 1327499 - 1329803" locus_tag="HS041_18590" class="clusterblast-orf" id="dummy-4_q30_0_all"  />
<polygon points="555,40 562,40 567,35 562,30 555,30 555,40 " style="fill:white; stroke-width:1; stroke:black; " description="&lt;b&gt;HS041_18595&lt;/b&gt;&lt;br&gt;endonuclease/exonuclease/phosphatase family protein&lt;br&gt;Location: 1330013 - 1330895" locus_tag="HS041_18595" class="clusterblast-orf" id="dummy-4_q31_0_all"  />
<polygon points="568,35 573,30 582,30 582,40 573,40 568,35 " style="fill:white; stroke-width:1; stroke:black; " description="&lt;b&gt;HS041_18600&lt;/b&gt;&lt;br&gt;ABC transporter substrate-binding protein&lt;br&gt;Location: 1331031 - 1332075" locus_tag="HS041_18600" class="clusterblast-orf" id="dummy-4_q32_0_all"  />
<polygon points="583,35 588,30 597,30 597,40 588,40 583,35 " style="fill:#15d863; stroke-width:1; stroke:black; " description="&lt;b&gt;HS041_18605&lt;/b&gt;&lt;br&gt;iron chelate uptake ABC transporter family permease subunit&lt;br&gt;Location: 1332150 - 1333215" locus_tag="HS041_18605" class="clusterblast-orf" id="dummy-4_q33_0_all"  />
<polygon points="597,35 602,30 610,30 610,40 602,40 597,35 " style="fill:#1563d8; stroke-width:1; stroke:black; " description="&lt;b&gt;HS041_18610&lt;/b&gt;&lt;br&gt;iron ABC transporter permease&lt;br&gt;Location: 1333214 - 1334261" locus_tag="HS041_18610" class="clusterblast-orf" id="dummy-4_q34_0_all"  />
<polygon points="610,35 615,30 621,30 621,40 615,40 610,35 " style="fill:white; stroke-width:1; stroke:black; " description="&lt;b&gt;HS041_18615&lt;/b&gt;&lt;br&gt;iron-sulfur protein&lt;br&gt;Location: 1334257 - 1335064" locus_tag="HS041_18615" class="clusterblast-orf" id="dummy-4_q35_0_all"  />
<polygon points="625,35 630,30 635,30 635,40 630,40 625,35 " style="fill:white; stroke-width:1; stroke:black; " description="&lt;b&gt;HS041_18620&lt;/b&gt;&lt;br&gt;SagB/ThcOx family dehydrogenase&lt;br&gt;Location: 1335429 - 1336218" locus_tag="HS041_18620" class="clusterblast-orf" id="dummy-4_q36_0_all"  />
<polygon points="636,35 641,30 653,30 653,40 641,40 636,35 " style="fill:white; stroke-width:1; stroke:black; " description="&lt;b&gt;HS041_18625&lt;/b&gt;&lt;br&gt;YcaO-like family protein&lt;br&gt;Location: 1336242 - 1337562" locus_tag="HS041_18625" class="clusterblast-orf" id="dummy-4_q37_0_all"  />
<polygon points="653,35 658,30 667,30 667,40 658,40 653,35 " style="fill:white; stroke-width:1; stroke:black; " description="&lt;b&gt;HS041_18630&lt;/b&gt;&lt;br&gt;TOMM precursor leader peptide-binding protein&lt;br&gt;Location: 1337545 - 1338637" locus_tag="HS041_18630" class="clusterblast-orf" id="dummy-4_q38_0_all"  />
<polygon points="667,35 672,30 676,30 676,40 672,40 667,35 " style="fill:white; stroke-width:1; stroke:black; " description="&lt;b&gt;HS041_18635&lt;/b&gt;&lt;br&gt;hypothetical protein&lt;br&gt;Location: 1338636 - 1339338" locus_tag="HS041_18635" class="clusterblast-orf" id="dummy-4_q39_0_all"  />
<polygon points="679,35 684,30 689,30 689,40 684,40 679,35 " style="fill:white; stroke-width:1; stroke:black; " description="&lt;b&gt;HS041_18640&lt;/b&gt;&lt;br&gt;methyltransferase domain-containing protein&lt;br&gt;Location: 1339588 - 1340359" locus_tag="HS041_18640" class="clusterblast-orf" id="dummy-4_q40_0_all"  />
<polygon points="689,35 694,30 702,30 702,40 694,40 689,35 " style="fill:white; stroke-width:1; stroke:black; " description="&lt;b&gt;HS041_18645&lt;/b&gt;&lt;br&gt;aminoglycoside phosphotransferase family protein&lt;br&gt;Location: 1340355 - 1341345" locus_tag="HS041_18645" class="clusterblast-orf" id="dummy-4_q41_0_all"  />
<polygon points="702,35 707,30 733,30 733,40 707,40 702,35 " style="fill:white; stroke-width:1; stroke:black; " description="&lt;b&gt;HS041_18650&lt;/b&gt;&lt;br&gt;ATP-binding protein&lt;br&gt;Location: 1341347 - 1343774" locus_tag="HS041_18650" class="clusterblast-orf" id="dummy-4_q42_0_all"  />
<polygon points="736,40 737,40 742,35 737,30 736,30 736,40 " style="fill:white; stroke-width:1; stroke:black; " description="&lt;b&gt;HS041_18655&lt;/b&gt;&lt;br&gt;hypothetical protein&lt;br&gt;Location: 1343996 - 1344413" locus_tag="HS041_18655" class="clusterblast-orf" id="dummy-4_q43_0_all"  />
<polygon points="743,35 748,30 760,30 760,40 748,40 743,35 " style="fill:#b115d8; stroke-width:1; stroke:black; " description="&lt;b&gt;HS041_18660&lt;/b&gt;&lt;br&gt;sugar ABC transporter permease&lt;br&gt;Location: 1344557 - 1345826" locus_tag="HS041_18660" class="clusterblast-orf" id="dummy-4_q44_0_all"  />
<polygon points="760,35 765,30 780,30 780,40 765,40 760,35 " style="fill:#b1d815; stroke-width:1; stroke:black; " description="&lt;b&gt;HS041_18665&lt;/b&gt;&lt;br&gt;ATP-binding cassette domain-containing protein&lt;br&gt;Location: 1345825 - 1347355" locus_tag="HS041_18665" class="clusterblast-orf" id="dummy-4_q45_0_all"  />
</g>
<g label="BGC0000366" description="BGC0000366_c1: gobichelin A/gobichelin B (11% of genes show similarity), NRP" class="clusterblast-cluster"  >
<text x="5" y="70" class="clusterblast-acc"  >
<a xlink:href="https://mibig.secondarymetabolites.org/go/BGC0000366/1" target="_blank">BGC0000366</a>: gobichelin A/gobichelin B                                                        (11% of genes show similarity), NRP</text>
<line x1="10" y1="85" x2="778.0" y2="85" style="stroke-width:1; stroke:grey; "  />
</g>
<g id="a4_000"  >
<polygon points="155,90 168,90 173,85 168,80 155,80 155,90 " style="fill:white; stroke-width:1; stroke:black; " description="&lt;b&gt;AGE11900.1&lt;/b&gt;&lt;br&gt;L-ornithine 5-monooxygenase&lt;br&gt;Location: 36463 - 35036" locus_tag="AGE11900.1" class="clusterblast-orf" id="dummy-4_h4_6_0"  />
</g>
<g id="a4_001"  >
<polygon points="174,85 179,80 265,80 265,90 179,90 174,85 " style="fill:white; stroke-width:1; stroke:black; " description="&lt;b&gt;AGE11899.1&lt;/b&gt;&lt;br&gt;nonribosomal peptide synthetase&lt;br&gt;Location: 34965 - 27919" locus_tag="AGE11899.1" class="clusterblast-orf" id="dummy-4_h4_6_1"  />
</g>
<g id="a4_002"  >
<polygon points="265,85 270,80 366,80 366,90 270,90 265,85 " style="fill:white; stroke-width:1; stroke:black; " description="&lt;b&gt;AGE11898.1&lt;/b&gt;&lt;br&gt;nonribosomal peptide synthetase&lt;br&gt;Location: 27922 - 20174" locus_tag="AGE11898.1" class="clusterblast-orf" id="dummy-4_h4_6_2"  />
</g>
<g id="a4_003"  >
<polygon points="389,85 394,80 402,80 402,90 394,90 389,85 " style="fill:#1563d8; stroke-width:1; stroke:black; " description="&lt;b&gt;AGE11897.1&lt;/b&gt;&lt;br&gt;iron siderophore transporter&lt;br&gt;Location: 18396 - 17335&lt;br&gt;&lt;br&gt;&lt;b&gt;BlastP hit with HS041_18610&lt;/b&gt;&lt;br&gt;Percentage identity: 53&lt;br&gt;Percentage coverage: 91&lt;br&gt;BLAST bit score: 301&lt;br&gt;E-value: 9.24e-101" locus_tag="AGE11897.1" class="clusterblast-orf" id="dummy-4_h4_6_3"  />
</g>
<g id="a4_004"  >
<polygon points="402,90 411,90 416,85 411,80 402,80 402,90 " style="fill:#15d863; stroke-width:1; stroke:black; " description="&lt;b&gt;AGE11896.1&lt;/b&gt;&lt;br&gt;ABC transporter&lt;br&gt;Location: 17331 - 16246&lt;br&gt;&lt;br&gt;&lt;b&gt;BlastP hit with HS041_18605&lt;/b&gt;&lt;br&gt;Percentage identity: 49&lt;br&gt;Percentage coverage: 98&lt;br&gt;BLAST bit score: 271&lt;br&gt;E-value: 8.46e-89" locus_tag="AGE11896.1" class="clusterblast-orf" id="dummy-4_h4_6_4"  />
</g>
<g id="a4_005"  >
<polygon points="416,90 422,90 427,85 422,80 416,80 416,90 " style="fill:white; stroke-width:1; stroke:black; " description="&lt;b&gt;AGE11895.1&lt;/b&gt;&lt;br&gt;ABC transporter&lt;br&gt;Location: 16243 - 15407" locus_tag="AGE11895.1" class="clusterblast-orf" id="dummy-4_h4_6_5"  />
</g>
<g id="a4_006"  >
<polygon points="428,90 437,90 442,85 437,80 428,80 428,90 " style="fill:white; stroke-width:1; stroke:black; " description="&lt;b&gt;AGE11894.1&lt;/b&gt;&lt;br&gt;iron siderophore uptake ABC system&lt;br&gt;Location: 15312 - 14251" locus_tag="AGE11894.1" class="clusterblast-orf" id="dummy-4_h4_6_6"  />
</g>
<g id="a4_007"  >
<polygon points="443,85 446,80 446,90 443,85 " style="fill:white; stroke-width:1; stroke:black; " description="&lt;b&gt;AGE11893.1&lt;/b&gt;&lt;br&gt;MbtH&lt;br&gt;Location: 14187 - 13945" locus_tag="AGE11893.1" class="clusterblast-orf" id="dummy-4_h4_6_7"  />
</g>
<g id="a4_008"  >
<polygon points="447,85 452,80 469,80 469,90 452,90 447,85 " style="fill:white; stroke-width:1; stroke:black; " description="&lt;b&gt;AGE11892.1&lt;/b&gt;&lt;br&gt;2,3-dihydroxybenzoate-AMP ligase&lt;br&gt;Location: 13917 - 12184" locus_tag="AGE11892.1" class="clusterblast-orf" id="dummy-4_h4_6_8"  />
</g>
<g id="a4_009"  >
<polygon points="469,90 512,90 517,85 512,80 469,80 469,90 " style="fill:white; stroke-width:1; stroke:black; " description="&lt;b&gt;AGE11891.1&lt;/b&gt;&lt;br&gt;nonribosomal peptide synthetase&lt;br&gt;Location: 12144 - 8437" locus_tag="AGE11891.1" class="clusterblast-orf" id="dummy-4_h4_6_9"  />
</g>
<g id="a4_0010"  >
<polygon points="532,90 546,90 551,85 546,80 532,80 532,90 " style="fill:white; stroke-width:1; stroke:black; " description="&lt;b&gt;AGE11890.1&lt;/b&gt;&lt;br&gt;salicylate synthase&lt;br&gt;Location: 7338 - 5869" locus_tag="AGE11890.1" class="clusterblast-orf" id="dummy-4_h4_6_10"  />
</g>
<g id="a4_0011"  >
<polygon points="553,85 558,80 560,80 560,90 558,90 553,85 " style="fill:white; stroke-width:1; stroke:black; " description="&lt;b&gt;AGE11889.1&lt;/b&gt;&lt;br&gt;amidinotransferase&lt;br&gt;Location: 5713 - 5111" locus_tag="AGE11889.1" class="clusterblast-orf" id="dummy-4_h4_6_11"  />
</g>
<g id="a4_0012"  >
<polygon points="565,85 569,80 569,90 565,85 " style="fill:white; stroke-width:1; stroke:black; " description="&lt;b&gt;AGE11888.1&lt;/b&gt;&lt;br&gt;hypothetical protein&lt;br&gt;Location: 4775 - 4479" locus_tag="AGE11888.1" class="clusterblast-orf" id="dummy-4_h4_6_12"  />
</g>
<g id="a4_0013"  >
<polygon points="569,85 574,80 577,80 577,90 574,90 569,85 " style="fill:white; stroke-width:1; stroke:black; " description="&lt;b&gt;AGE11887.1&lt;/b&gt;&lt;br&gt;isochorismatase&lt;br&gt;Location: 4459 - 3803" locus_tag="AGE11887.1" class="clusterblast-orf" id="dummy-4_h4_6_13"  />
</g>
<g id="a4_0014"  >
<polygon points="582,90 583,90 588,85 583,80 582,80 582,90 " style="fill:white; stroke-width:1; stroke:black; " description="&lt;b&gt;AGE11886.1&lt;/b&gt;&lt;br&gt;acetyltransferase&lt;br&gt;Location: 3457 - 2990" locus_tag="AGE11886.1" class="clusterblast-orf" id="dummy-4_h4_6_14"  />
</g>
<g id="a4_0015"  >
<polygon points="591,90 594,90 599,85 594,80 591,80 591,90 " style="fill:white; stroke-width:1; stroke:black; " description="&lt;b&gt;AGE11885.1&lt;/b&gt;&lt;br&gt;hypothetical protein&lt;br&gt;Location: 2756 - 2103" locus_tag="AGE11885.1" class="clusterblast-orf" id="dummy-4_h4_6_15"  />
</g>
<g id="a4_0016"  >
<polygon points="602,90 608,90 613,85 608,80 602,80 602,90 " style="fill:white; stroke-width:1; stroke:black; " description="&lt;b&gt;AGE11884.1&lt;/b&gt;&lt;br&gt;NH3 dependent NAD+ synthase&lt;br&gt;Location: 1874 - 1044" locus_tag="AGE11884.1" class="clusterblast-orf" id="dummy-4_h4_6_16"  />
</g>
<g id="a4_0017"  >
<polygon points="616,85 621,80 624,80 624,90 621,90 616,85 " style="fill:white; stroke-width:1; stroke:black; " description="&lt;b&gt;AGE11883.1&lt;/b&gt;&lt;br&gt;TetR transcriptional regulator&lt;br&gt;Location: 806 - 183" locus_tag="AGE11883.1" class="clusterblast-orf" id="dummy-4_h4_6_17"  />
</g>
</svg>
