<svg xmlns="http://www.w3.org/2000/svg" xmlns:xlink="http://www.w3.org/1999/xlink" version="1.1" x="0" y="0" height="230" width="800" viewBox="0 0 800 230" preserveAspectRatio="none"  >
<g label="Query sequence" class="clusterblast-cluster"  >
<text x="5" y="20" class="clusterblast-acc"  >
Query sequence</text>
<line x1="10" y1="35" x2="778.0" y2="35" style="stroke-width:1; stroke:grey; "  />
<polygon points="0,35 4,30 4,40 0,35 " style="fill:white; stroke-width:1; stroke:black; " description="&lt;b&gt;HS041_33545&lt;/b&gt;&lt;br&gt;hypothetical protein&lt;br&gt;Location: 590920 - 591445" locus_tag="HS041_33545" class="clusterblast-orf" id="dummy-2_q0_0_all"  />
<polygon points="4,35 9,30 12,30 12,40 9,40 4,35 " style="fill:white; stroke-width:1; stroke:black; " description="&lt;b&gt;HS041_33550&lt;/b&gt;&lt;br&gt;hypothetical protein&lt;br&gt;Location: 591467 - 592367" locus_tag="HS041_33550" class="clusterblast-orf" id="dummy-2_q1_0_all"  />
<polygon points="12,35 17,30 20,30 20,40 17,40 12,35 " style="fill:white; stroke-width:1; stroke:black; " description="&lt;b&gt;HS041_33555&lt;/b&gt;&lt;br&gt;acetoacetate decarboxylase family protein&lt;br&gt;Location: 592372 - 593287" locus_tag="HS041_33555" class="clusterblast-orf" id="dummy-2_q2_0_all"  />
<polygon points="20,35 25,30 29,30 29,40 25,40 20,35 " style="fill:white; stroke-width:1; stroke:black; " description="&lt;b&gt;HS041_33560&lt;/b&gt;&lt;br&gt;esterase&lt;br&gt;Location: 593283 - 594348" locus_tag="HS041_33560" class="clusterblast-orf" id="dummy-2_q3_0_all"  />
<polygon points="30,40 46,40 51,35 46,30 30,30 30,40 " style="fill:white; stroke-width:1; stroke:black; " description="&lt;b&gt;HS041_33565&lt;/b&gt;&lt;br&gt;GMC family oxidoreductase&lt;br&gt;Location: 594488 - 596936" locus_tag="HS041_33565" class="clusterblast-orf" id="dummy-2_q4_0_all"  />
<polygon points="55,40 59,40 64,35 59,30 55,30 55,40 " style="fill:white; stroke-width:1; stroke:black; " description="&lt;b&gt;HS041_33570&lt;/b&gt;&lt;br&gt;polyprenyl synthetase family protein&lt;br&gt;Location: 597345 - 598422" locus_tag="HS041_33570" class="clusterblast-orf" id="dummy-2_q5_0_all"  />
<polygon points="66,40 73,40 78,35 73,30 66,30 66,40 " style="fill:#d81515; stroke-width:1; stroke:black; " description="&lt;b&gt;HS041_33575&lt;/b&gt;&lt;br&gt;cyclic nucleotide-binding domain-containing protein&lt;br&gt;Location: 598635 - 600054" locus_tag="HS041_33575" class="clusterblast-orf" id="dummy-2_q6_0_all"  />
<polygon points="78,40 92,40 97,35 92,30 78,30 78,40 " style="fill:#77d815; stroke-width:1; stroke:black; " description="&lt;b&gt;HS041_33580&lt;/b&gt;&lt;br&gt;germacradienol/geosmin synthase&lt;br&gt;Location: 600053 - 602252" locus_tag="HS041_33580" class="clusterblast-orf" id="dummy-2_q7_0_all"  />
<polygon points="97,40 104,40 109,35 104,30 97,30 97,40 " style="fill:#d81515; stroke-width:1; stroke:black; " description="&lt;b&gt;HS041_33585&lt;/b&gt;&lt;br&gt;cyclic nucleotide-binding domain-containing protein&lt;br&gt;Location: 602248 - 603592" locus_tag="HS041_33585" class="clusterblast-orf" id="dummy-2_q8_0_all"  />
<polygon points="109,35 114,30 124,30 124,40 114,40 109,35 " style="fill:white; stroke-width:1; stroke:black; " description="&lt;b&gt;HS041_33590&lt;/b&gt;&lt;br&gt;GMC family oxidoreductase&lt;br&gt;Location: 603685 - 605326" locus_tag="HS041_33590" class="clusterblast-orf" id="dummy-2_q9_0_all"  />
<polygon points="125,35 129,30 129,40 125,35 " style="fill:white; stroke-width:1; stroke:black; " description="&lt;b&gt;HS041_33595&lt;/b&gt;&lt;br&gt;carboxymuconolactone decarboxylase family protein&lt;br&gt;Location: 605447 - 605960" locus_tag="HS041_33595" class="clusterblast-orf" id="dummy-2_q10_0_all"  />
<polygon points="129,35 134,30 138,30 138,40 134,40 129,35 " style="fill:#15d8d8; stroke-width:1; stroke:black; " description="&lt;b&gt;HS041_33600&lt;/b&gt;&lt;br&gt;dihydrodipicolinate reductase&lt;br&gt;Location: 605956 - 607036" locus_tag="HS041_33600" class="clusterblast-orf" id="dummy-2_q11_0_all"  />
<polygon points="139,35 144,30 145,30 145,40 144,40 139,35 " style="fill:white; stroke-width:1; stroke:black; " description="&lt;b&gt;HS041_33605&lt;/b&gt;&lt;br&gt;rhomboid family intramembrane serine protease&lt;br&gt;Location: 607095 - 607797" locus_tag="HS041_33605" class="clusterblast-orf" id="dummy-2_q12_0_all"  />
<polygon points="145,35 150,30 154,30 154,40 150,40 145,35 " style="fill:white; stroke-width:1; stroke:black; " description="&lt;b&gt;HS041_33610&lt;/b&gt;&lt;br&gt;ornithine cyclodeaminase&lt;br&gt;Location: 607839 - 608883" locus_tag="HS041_33610" class="clusterblast-orf" id="dummy-2_q13_0_all"  />
<polygon points="155,35 160,30 164,30 164,40 160,40 155,35 " style="fill:white; stroke-width:1; stroke:black; " description="&lt;b&gt;HS041_33615&lt;/b&gt;&lt;br&gt;pyridoxal-phosphate dependent enzyme&lt;br&gt;Location: 608953 - 609982" locus_tag="HS041_33615" class="clusterblast-orf" id="dummy-2_q14_0_all"  />
<polygon points="167,40 186,40 191,35 186,30 167,30 167,40 " style="fill:white; stroke-width:1; stroke:black; " description="&lt;b&gt;HS041_33620&lt;/b&gt;&lt;br&gt;tetratricopeptide repeat protein&lt;br&gt;Location: 610311 - 613167" locus_tag="HS041_33620" class="clusterblast-orf" id="dummy-2_q15_0_all"  />
<polygon points="193,40 195,35 193,30 193,40 " style="fill:white; stroke-width:1; stroke:black; " description="&lt;b&gt;HS041_33625&lt;/b&gt;&lt;br&gt;hypothetical protein&lt;br&gt;Location: 613340 - 613565" locus_tag="HS041_33625" class="clusterblast-orf" id="dummy-2_q16_0_all"  />
<polygon points="195,35 200,30 202,30 202,40 200,40 195,35 " style="fill:white; stroke-width:1; stroke:black; " description="&lt;b&gt;HS041_33630&lt;/b&gt;&lt;br&gt;alpha/beta fold hydrolase&lt;br&gt;Location: 613584 - 614394" locus_tag="HS041_33630" class="clusterblast-orf" id="dummy-2_q17_0_all"  />
<polygon points="202,35 207,30 213,30 213,40 207,40 202,35 " style="fill:white; stroke-width:1; stroke:black; " description="&lt;b&gt;HS041_33635&lt;/b&gt;&lt;br&gt;MFS transporter&lt;br&gt;Location: 614374 - 615661" locus_tag="HS041_33635" class="clusterblast-orf" id="dummy-2_q18_0_all"  />
<polygon points="214,40 256,40 261,35 256,30 214,30 214,40 " style="fill:#7715d8; stroke-width:1; stroke:black; " description="&lt;b&gt;HS041_33640&lt;/b&gt;&lt;br&gt;acyltransferase domain-containing protein&lt;br&gt;Location: 615870 - 621309" locus_tag="HS041_33640" class="clusterblast-orf" id="dummy-2_q19_0_all"  />
<polygon points="262,40 263,35 262,30 262,40 " style="fill:#d8a715; stroke-width:1; stroke:black; " description="&lt;b&gt;HS041_33645&lt;/b&gt;&lt;br&gt;MbtH family protein&lt;br&gt;Location: 621353 - 621557" locus_tag="HS041_33645" class="clusterblast-orf" id="dummy-2_q20_0_all"  />
<polygon points="264,40 267,40 272,35 267,30 264,30 264,40 " style="fill:white; stroke-width:1; stroke:black; " description="&lt;b&gt;HS041_33650&lt;/b&gt;&lt;br&gt;LLM class flavin-dependent oxidoreductase&lt;br&gt;Location: 621583 - 622522" locus_tag="HS041_33650" class="clusterblast-orf" id="dummy-2_q21_0_all"  />
<polygon points="272,40 310,40 315,35 310,30 272,30 272,40 " style="fill:white; stroke-width:1; stroke:black; " description="&lt;b&gt;HS041_33655&lt;/b&gt;&lt;br&gt;amino acid adenylation domain-containing protein&lt;br&gt;Location: 622518 - 627534" locus_tag="HS041_33655" class="clusterblast-orf" id="dummy-2_q22_0_all"  />
<polygon points="315,40 338,40 343,35 338,30 315,30 315,40 " style="fill:white; stroke-width:1; stroke:black; " description="&lt;b&gt;HS041_33660&lt;/b&gt;&lt;br&gt;amino acid adenylation domain-containing protein&lt;br&gt;Location: 627530 - 630773" locus_tag="HS041_33660" class="clusterblast-orf" id="dummy-2_q23_0_all"  />
<polygon points="343,40 365,40 370,35 365,30 343,30 343,40 " style="fill:white; stroke-width:1; stroke:black; " description="&lt;b&gt;HS041_33665&lt;/b&gt;&lt;br&gt;amino acid adenylation domain-containing protein&lt;br&gt;Location: 630765 - 633885" locus_tag="HS041_33665" class="clusterblast-orf" id="dummy-2_q24_0_all"  />
<polygon points="369,40 371,40 376,35 371,30 369,30 369,40 " style="fill:white; stroke-width:1; stroke:black; " description="&lt;b&gt;HS041_33670&lt;/b&gt;&lt;br&gt;thioesterase&lt;br&gt;Location: 633877 - 634678" locus_tag="HS041_33670" class="clusterblast-orf" id="dummy-2_q25_0_all"  />
<polygon points="376,40 426,40 431,35 426,30 376,30 376,40 " style="fill:white; stroke-width:1; stroke:black; " description="&lt;b&gt;HS041_33675&lt;/b&gt;&lt;br&gt;amino acid adenylation domain-containing protein&lt;br&gt;Location: 634674 - 641082" locus_tag="HS041_33675" class="clusterblast-orf" id="dummy-2_q26_0_all"  />
<polygon points="431,40 512,40 517,35 512,30 431,30 431,40 " style="fill:white; stroke-width:1; stroke:black; " description="&lt;b&gt;HS041_33680&lt;/b&gt;&lt;br&gt;amino acid adenylation domain-containing protein&lt;br&gt;Location: 641071 - 650989" locus_tag="HS041_33680" class="clusterblast-orf" id="dummy-2_q27_0_all"  />
<polygon points="517,40 540,40 545,35 540,30 517,30 517,40 " style="fill:white; stroke-width:1; stroke:black; " description="&lt;b&gt;HS041_33685&lt;/b&gt;&lt;br&gt;amino acid adenylation domain-containing protein&lt;br&gt;Location: 650985 - 654249" locus_tag="HS041_33685" class="clusterblast-orf" id="dummy-2_q28_0_all"  />
<polygon points="545,40 603,40 608,35 603,30 545,30 545,40 " style="fill:white; stroke-width:1; stroke:black; " description="&lt;b&gt;HS041_33690&lt;/b&gt;&lt;br&gt;amino acid adenylation domain-containing protein&lt;br&gt;Location: 654245 - 661562" locus_tag="HS041_33690" class="clusterblast-orf" id="dummy-2_q29_0_all"  />
<polygon points="608,40 611,40 616,35 611,30 608,30 608,40 " style="fill:#15d846; stroke-width:1; stroke:black; " description="&lt;b&gt;HS041_33695&lt;/b&gt;&lt;br&gt;ornithine carbamoyltransferase&lt;br&gt;Location: 661548 - 662541" locus_tag="HS041_33695" class="clusterblast-orf" id="dummy-2_q30_0_all"  />
<polygon points="617,40 622,40 627,35 622,30 617,30 617,40 " style="fill:white; stroke-width:1; stroke:black; " description="&lt;b&gt;HS041_33700&lt;/b&gt;&lt;br&gt;Zn-dependent hydrolase&lt;br&gt;Location: 662585 - 663764" locus_tag="HS041_33700" class="clusterblast-orf" id="dummy-2_q31_0_all"  />
<polygon points="627,40 629,40 634,35 629,30 627,30 627,40 " style="fill:#1546d8; stroke-width:1; stroke:black; " description="&lt;b&gt;HS041_33705&lt;/b&gt;&lt;br&gt;ABC transporter ATP-binding protein&lt;br&gt;Location: 663760 - 664600" locus_tag="HS041_33705" class="clusterblast-orf" id="dummy-2_q32_0_all"  />
<polygon points="634,40 636,40 641,35 636,30 634,30 634,40 " style="fill:#d815a7; stroke-width:1; stroke:black; " description="&lt;b&gt;HS041_33710&lt;/b&gt;&lt;br&gt;ABC transporter permease&lt;br&gt;Location: 664592 - 665471" locus_tag="HS041_33710" class="clusterblast-orf" id="dummy-2_q33_0_all"  />
<polygon points="642,35 645,30 645,40 642,35 " style="fill:white; stroke-width:1; stroke:black; " description="&lt;b&gt;HS041_33715&lt;/b&gt;&lt;br&gt;nuclear transport factor 2 family protein&lt;br&gt;Location: 665566 - 665929" locus_tag="HS041_33715" class="clusterblast-orf" id="dummy-2_q34_0_all"  />
<polygon points="647,35 652,30 656,30 656,40 652,40 647,35 " style="fill:white; stroke-width:1; stroke:black; " description="&lt;b&gt;HS041_33720&lt;/b&gt;&lt;br&gt;LacI family DNA-binding transcriptional regulator&lt;br&gt;Location: 666088 - 667186" locus_tag="HS041_33720" class="clusterblast-orf" id="dummy-2_q35_0_all"  />
<polygon points="656,35 661,30 664,30 664,40 661,40 656,35 " style="fill:white; stroke-width:1; stroke:black; " description="&lt;b&gt;HS041_33725&lt;/b&gt;&lt;br&gt;sugar kinase&lt;br&gt;Location: 667202 - 668114" locus_tag="HS041_33725" class="clusterblast-orf" id="dummy-2_q36_0_all"  />
<polygon points="666,35 671,30 674,30 674,40 671,40 666,35 " style="fill:white; stroke-width:1; stroke:black; " description="&lt;b&gt;HS041_33730&lt;/b&gt;&lt;br&gt;SIS domain-containing protein&lt;br&gt;Location: 668295 - 669297" locus_tag="HS041_33730" class="clusterblast-orf" id="dummy-2_q37_0_all"  />
<polygon points="677,40 684,40 689,35 684,30 677,30 677,40 " style="fill:white; stroke-width:1; stroke:black; " description="&lt;b&gt;HS041_33735&lt;/b&gt;&lt;br&gt;carbohydrate ABC transporter substrate-binding protein&lt;br&gt;Location: 669624 - 670947" locus_tag="HS041_33735" class="clusterblast-orf" id="dummy-2_q38_0_all"  />
<polygon points="689,40 691,40 696,35 691,30 689,30 689,40 " style="fill:white; stroke-width:1; stroke:black; " description="&lt;b&gt;HS041_33740&lt;/b&gt;&lt;br&gt;sugar ABC transporter permease&lt;br&gt;Location: 670968 - 671862" locus_tag="HS041_33740" class="clusterblast-orf" id="dummy-2_q39_0_all"  />
<polygon points="696,40 699,40 704,35 699,30 696,30 696,40 " style="fill:white; stroke-width:1; stroke:black; " description="&lt;b&gt;HS041_33745&lt;/b&gt;&lt;br&gt;carbohydrate ABC transporter permease&lt;br&gt;Location: 671855 - 672692" locus_tag="HS041_33745" class="clusterblast-orf" id="dummy-2_q40_0_all"  />
<polygon points="704,40 707,40 712,35 707,30 704,30 704,40 " style="fill:white; stroke-width:1; stroke:black; " description="&lt;b&gt;HS041_33750&lt;/b&gt;&lt;br&gt;TIM barrel protein&lt;br&gt;Location: 672777 - 673614" locus_tag="HS041_33750" class="clusterblast-orf" id="dummy-2_q41_0_all"  />
<polygon points="712,35 717,30 725,30 725,40 717,40 712,35 " style="fill:white; stroke-width:1; stroke:black; " description="&lt;b&gt;HS041_33755&lt;/b&gt;&lt;br&gt;hypothetical protein&lt;br&gt;Location: 673713 - 675186" locus_tag="HS041_33755" class="clusterblast-orf" id="dummy-2_q42_0_all"  />
<polygon points="727,35 732,30 735,30 735,40 732,40 727,35 " style="fill:white; stroke-width:1; stroke:black; " description="&lt;b&gt;HS041_33760&lt;/b&gt;&lt;br&gt;RNA polymerase sigma factor&lt;br&gt;Location: 675400 - 676372" locus_tag="HS041_33760" class="clusterblast-orf" id="dummy-2_q43_0_all"  />
<polygon points="737,35 742,30 746,30 746,40 742,40 737,35 " style="fill:white; stroke-width:1; stroke:black; " description="&lt;b&gt;HS041_33765&lt;/b&gt;&lt;br&gt;sigma-70 family RNA polymerase sigma factor&lt;br&gt;Location: 676557 - 677658" locus_tag="HS041_33765" class="clusterblast-orf" id="dummy-2_q44_0_all"  />
<polygon points="747,40 749,40 754,35 749,30 747,30 747,40 " style="fill:white; stroke-width:1; stroke:black; " description="&lt;b&gt;HS041_33770&lt;/b&gt;&lt;br&gt;alpha/beta hydrolase&lt;br&gt;Location: 677684 - 678542" locus_tag="HS041_33770" class="clusterblast-orf" id="dummy-2_q45_0_all"  />
<polygon points="755,35 760,30 780,30 780,40 760,40 755,35 " style="fill:white; stroke-width:1; stroke:black; " description="&lt;b&gt;HS041_33775&lt;/b&gt;&lt;br&gt;tetratricopeptide repeat protein&lt;br&gt;Location: 678705 - 681513" locus_tag="HS041_33775" class="clusterblast-orf" id="dummy-2_q46_0_all"  />
</g>
<g label="BGC0000963" description="BGC0000963_c1: bleomycin (6% of genes show similarity), NRP:Glycopeptide+Polyketide:Modular type I polyketide+Saccharide:Hybrid/tailoring saccharide" class="clusterblast-cluster"  >
<text x="5" y="70" class="clusterblast-acc"  >
<a xlink:href="https://mibig.secondarymetabolites.org/go/BGC0000963/1" target="_blank">BGC0000963</a>: bleomycin                                                                        (6% of genes show similarity), NRP:Glycopeptide+Polyketide:Modular type I polyketide+Saccharide:Hybrid/tailoring saccharide</text>
<line x1="10" y1="85" x2="778.0" y2="85" style="stroke-width:1; stroke:grey; "  />
</g>
<g id="a2_000"  >
<polygon points="61,85 66,80 70,80 70,90 66,90 61,85 " style="fill:white; stroke-width:1; stroke:black; " description="&lt;b&gt;AAG02342.1&lt;/b&gt;&lt;br&gt;SyrP-like protein&lt;br&gt;Location: 1199 - 2185" locus_tag="AAG02342.1" class="clusterblast-orf" id="dummy-2_h2_3_0"  />
</g>
<g id="a2_001"  >
<polygon points="70,85 75,80 85,80 85,90 75,90 70,85 " style="fill:white; stroke-width:1; stroke:black; " description="&lt;b&gt;AAG02343.1&lt;/b&gt;&lt;br&gt;peptide synthetase NRPS12&lt;br&gt;Location: 2182 - 3918" locus_tag="AAG02343.1" class="clusterblast-orf" id="dummy-2_h2_3_1"  />
</g>
<g id="a2_002"  >
<polygon points="85,85 90,80 92,80 92,90 90,90 85,85 " style="fill:white; stroke-width:1; stroke:black; " description="&lt;b&gt;AAG02344.1&lt;/b&gt;&lt;br&gt;hypothetical protein&lt;br&gt;Location: 3915 - 4733" locus_tag="AAG02344.1" class="clusterblast-orf" id="dummy-2_h2_3_2"  />
</g>
<g id="a2_003"  >
<polygon points="92,85 97,80 103,80 103,90 97,90 92,85 " style="fill:white; stroke-width:1; stroke:black; " description="&lt;b&gt;AAG02345.1&lt;/b&gt;&lt;br&gt;putative transporter&lt;br&gt;Location: 4741 - 6024" locus_tag="AAG02345.1" class="clusterblast-orf" id="dummy-2_h2_3_3"  />
</g>
<g id="a2_004"  >
<polygon points="103,85 108,80 109,80 109,90 108,90 103,85 " style="fill:white; stroke-width:1; stroke:black; " description="&lt;b&gt;AAG02346.1&lt;/b&gt;&lt;br&gt;thioesterase&lt;br&gt;Location: 6021 - 6773" locus_tag="AAG02346.1" class="clusterblast-orf" id="dummy-2_h2_3_4"  />
</g>
<g id="a2_005"  >
<polygon points="109,85 114,80 118,80 118,90 114,90 109,85 " style="fill:white; stroke-width:1; stroke:black; " description="&lt;b&gt;AAG02347.1&lt;/b&gt;&lt;br&gt;clavaminic acid synthase-like protein&lt;br&gt;Location: 6784 - 7797" locus_tag="AAG02347.1" class="clusterblast-orf" id="dummy-2_h2_3_5"  />
</g>
<g id="a2_006"  >
<polygon points="119,85 124,80 130,80 130,90 124,90 119,85 " style="fill:white; stroke-width:1; stroke:black; " description="&lt;b&gt;AAG02348.1&lt;/b&gt;&lt;br&gt;putative transporter&lt;br&gt;Location: 7859 - 9214" locus_tag="AAG02348.1" class="clusterblast-orf" id="dummy-2_h2_3_6"  />
</g>
<g id="a2_007"  >
<polygon points="130,85 135,80 204,80 204,90 135,90 130,85 " style="fill:white; stroke-width:1; stroke:black; " description="&lt;b&gt;AAG02349.1&lt;/b&gt;&lt;br&gt;peptide synthetase NRPS11-10&lt;br&gt;Location: 9211 - 17736" locus_tag="AAG02349.1" class="clusterblast-orf" id="dummy-2_h2_3_7"  />
</g>
<g id="a2_008"  >
<polygon points="209,85 212,80 212,90 209,85 " style="fill:white; stroke-width:1; stroke:black; " description="&lt;b&gt;AAG02350.1&lt;/b&gt;&lt;br&gt;PHNA-like protein&lt;br&gt;Location: 18307 - 18660" locus_tag="AAG02350.1" class="clusterblast-orf" id="dummy-2_h2_3_8"  />
</g>
<g id="a2_009"  >
<polygon points="213,90 216,85 213,80 213,90 " style="fill:white; stroke-width:1; stroke:black; " description="&lt;b&gt;AAG02351.1&lt;/b&gt;&lt;br&gt;metal-dependent regulatory protein&lt;br&gt;Location: 18823 - 19164" locus_tag="AAG02351.1" class="clusterblast-orf" id="dummy-2_h2_3_9"  />
</g>
<g id="a2_0010"  >
<polygon points="216,90 226,90 231,85 226,80 216,80 216,90 " style="fill:white; stroke-width:1; stroke:black; " description="&lt;b&gt;AAG02352.1&lt;/b&gt;&lt;br&gt;putative transporter&lt;br&gt;Location: 19161 - 20909" locus_tag="AAG02352.1" class="clusterblast-orf" id="dummy-2_h2_3_10"  />
</g>
<g id="a2_0011"  >
<polygon points="235,90 236,90 241,85 236,80 235,80 235,90 " style="fill:white; stroke-width:1; stroke:black; " description="&lt;b&gt;AAG02353.1&lt;/b&gt;&lt;br&gt;phosphatidylserine decarboxylase&lt;br&gt;Location: 21367 - 22086" locus_tag="AAG02353.1" class="clusterblast-orf" id="dummy-2_h2_3_11"  />
</g>
<g id="a2_0012"  >
<polygon points="241,90 254,90 259,85 254,80 241,80 241,90 " style="fill:white; stroke-width:1; stroke:black; " description="&lt;b&gt;AAG02354.1&lt;/b&gt;&lt;br&gt;peptide synthetase NRPS&lt;br&gt;Location: 22127 - 24193" locus_tag="AAG02354.1" class="clusterblast-orf" id="dummy-2_h2_3_12"  />
</g>
<g id="a2_0013"  >
<polygon points="261,90 312,90 317,85 312,80 261,80 261,90 " style="fill:white; stroke-width:1; stroke:black; " description="&lt;b&gt;AAG02355.1&lt;/b&gt;&lt;br&gt;peptide synthetase NRPS9-8&lt;br&gt;Location: 24406 - 30894" locus_tag="AAG02355.1" class="clusterblast-orf" id="dummy-2_h2_3_13"  />
</g>
<g id="a2_0014"  >
<polygon points="317,90 339,90 344,85 339,80 317,80 317,90 " style="fill:white; stroke-width:1; stroke:black; " description="&lt;b&gt;AAG02356.1&lt;/b&gt;&lt;br&gt;peptide synthetase NRPS7&lt;br&gt;Location: 30891 - 34091" locus_tag="AAG02356.1" class="clusterblast-orf" id="dummy-2_h2_3_14"  />
</g>
<g id="a2_0015"  >
<polygon points="344,90 387,90 392,85 387,80 344,80 344,90 " style="fill:#7715d8; stroke-width:1; stroke:black; " description="&lt;b&gt;AAG02357.1&lt;/b&gt;&lt;br&gt;polyketide synthase&lt;br&gt;Location: 34088 - 39613&lt;br&gt;&lt;br&gt;&lt;b&gt;BlastP hit with HS041_33640&lt;/b&gt;&lt;br&gt;Percentage identity: 47&lt;br&gt;Percentage coverage: 48&lt;br&gt;BLAST bit score: 671&lt;br&gt;E-value: 1.61e-208" locus_tag="AAG02357.1" class="clusterblast-orf" id="dummy-2_h2_3_15"  />
</g>
<g id="a2_0016"  >
<polygon points="392,90 418,90 423,85 418,80 392,80 392,90 " style="fill:white; stroke-width:1; stroke:black; " description="&lt;b&gt;AAG02358.1&lt;/b&gt;&lt;br&gt;peptide synthetase NRPS6&lt;br&gt;Location: 39610 - 43266" locus_tag="AAG02358.1" class="clusterblast-orf" id="dummy-2_h2_3_16"  />
</g>
<g id="a2_0017"  >
<polygon points="423,90 487,90 492,85 487,80 423,80 423,90 " style="fill:white; stroke-width:1; stroke:black; " description="&lt;b&gt;AAG02359.1&lt;/b&gt;&lt;br&gt;peptide synthetase NRPS5-4-3&lt;br&gt;Location: 43263 - 51290" locus_tag="AAG02359.1" class="clusterblast-orf" id="dummy-2_h2_3_17"  />
</g>
<g id="a2_0018"  >
<polygon points="494,90 506,90 511,85 506,80 494,80 494,90 " style="fill:white; stroke-width:1; stroke:black; " description="&lt;b&gt;AAG02360.1&lt;/b&gt;&lt;br&gt;peptide synthetase NRPS3CT&lt;br&gt;Location: 51493 - 53430" locus_tag="AAG02360.1" class="clusterblast-orf" id="dummy-2_h2_3_18"  />
</g>
<g id="a2_0019"  >
<polygon points="511,90 514,90 519,85 514,80 511,80 511,90 " style="fill:white; stroke-width:1; stroke:black; " description="&lt;b&gt;AAG02361.1&lt;/b&gt;&lt;br&gt;sugar epimerase BlmG&lt;br&gt;Location: 53427 - 54404" locus_tag="AAG02361.1" class="clusterblast-orf" id="dummy-2_h2_3_19"  />
</g>
<g id="a2_0020"  >
<polygon points="519,90 527,90 532,85 527,80 519,80 519,90 " style="fill:white; stroke-width:1; stroke:black; " description="&lt;b&gt;AAG02362.1&lt;/b&gt;&lt;br&gt;hydroxylase BlmF&lt;br&gt;Location: 54418 - 55902" locus_tag="AAG02362.1" class="clusterblast-orf" id="dummy-2_h2_3_20"  />
</g>
<g id="a2_0021"  >
<polygon points="532,90 544,90 549,85 544,80 532,80 532,90 " style="fill:white; stroke-width:1; stroke:black; " description="&lt;b&gt;AAG02363.1&lt;/b&gt;&lt;br&gt;asparagine synthetase&lt;br&gt;Location: 55899 - 57815" locus_tag="AAG02363.1" class="clusterblast-orf" id="dummy-2_h2_3_21"  />
</g>
<g id="a2_0022"  >
<polygon points="549,90 612,90 617,85 612,80 549,80 549,90 " style="fill:white; stroke-width:1; stroke:black; " description="&lt;b&gt;AAG02364.1&lt;/b&gt;&lt;br&gt;peptide synthetase NRPS2-1&lt;br&gt;Location: 57901 - 65781" locus_tag="AAG02364.1" class="clusterblast-orf" id="dummy-2_h2_3_22"  />
</g>
<g id="a2_0023"  >
<polygon points="617,90 636,90 641,85 636,80 617,80 617,90 " style="fill:white; stroke-width:1; stroke:black; " description="&lt;b&gt;AAG02365.1&lt;/b&gt;&lt;br&gt;peptide synthetase NRPS0&lt;br&gt;Location: 65778 - 68585" locus_tag="AAG02365.1" class="clusterblast-orf" id="dummy-2_h2_3_23"  />
</g>
<g id="a2_0024"  >
<polygon points="641,90 645,90 650,85 645,80 641,80 641,90 " style="fill:white; stroke-width:1; stroke:black; " description="&lt;b&gt;AAG02366.1&lt;/b&gt;&lt;br&gt;SyrP-like protein&lt;br&gt;Location: 68582 - 69601" locus_tag="AAG02366.1" class="clusterblast-orf" id="dummy-2_h2_3_24"  />
</g>
<g id="a2_0025"  >
<polygon points="650,90 657,90 662,85 657,80 650,80 650,90 " style="fill:white; stroke-width:1; stroke:black; " description="&lt;b&gt;AAG02367.1&lt;/b&gt;&lt;br&gt;peptide synthetase NRPS&lt;br&gt;Location: 69598 - 70986" locus_tag="AAG02367.1" class="clusterblast-orf" id="dummy-2_h2_3_25"  />
</g>
<g id="a2_0026"  >
<polygon points="662,90 662,90 667,85 662,80 662,80 662,90 " style="fill:#d8a715; stroke-width:1; stroke:black; " description="&lt;b&gt;AAG02368.1&lt;/b&gt;&lt;br&gt;MbtH-like protein&lt;br&gt;Location: 70983 - 71546&lt;br&gt;&lt;br&gt;&lt;b&gt;BlastP hit with HS041_33645&lt;/b&gt;&lt;br&gt;Percentage identity: 59&lt;br&gt;Percentage coverage: 84&lt;br&gt;BLAST bit score: 79&lt;br&gt;E-value: 7.07e-20" locus_tag="AAG02368.1" class="clusterblast-orf" id="dummy-2_h2_3_26"  />
</g>
<g id="a2_0027"  >
<polygon points="668,90 673,90 678,85 673,80 668,80 668,90 " style="fill:white; stroke-width:1; stroke:black; " description="&lt;b&gt;AAG02369.1&lt;/b&gt;&lt;br&gt;sugar transferase BlmE&lt;br&gt;Location: 71618 - 72790" locus_tag="AAG02369.1" class="clusterblast-orf" id="dummy-2_h2_3_27"  />
</g>
<g id="a2_0028"  >
<polygon points="678,90 687,90 692,85 687,80 678,80 678,90 " style="fill:white; stroke-width:1; stroke:black; " description="&lt;b&gt;AAG02370.1&lt;/b&gt;&lt;br&gt;carbamyltransferase BlmD&lt;br&gt;Location: 72787 - 74424" locus_tag="AAG02370.1" class="clusterblast-orf" id="dummy-2_h2_3_28"  />
</g>
<g id="a2_0029"  >
<polygon points="692,90 694,85 692,80 692,90 " style="fill:white; stroke-width:1; stroke:black; " description="&lt;b&gt;AAD42077.1&lt;/b&gt;&lt;br&gt;peptide synthetase NRPS type II-PCP&lt;br&gt;Location: 74421 - 74693" locus_tag="AAD42077.1" class="clusterblast-orf" id="dummy-2_h2_3_29"  />
</g>
<g id="a2_0030"  >
<polygon points="694,90 702,90 707,85 702,80 694,80 694,90 " style="fill:white; stroke-width:1; stroke:black; " description="&lt;b&gt;AAG02371.1&lt;/b&gt;&lt;br&gt;sugar synthase BlmC&lt;br&gt;Location: 74690 - 76186" locus_tag="AAG02371.1" class="clusterblast-orf" id="dummy-2_h2_3_30"  />
</g>
<g id="a2_0031"  >
<polygon points="707,90 713,90 718,85 713,80 707,80 707,90 " style="fill:white; stroke-width:1; stroke:black; " description="&lt;b&gt;AAG02372.1&lt;/b&gt;&lt;br&gt;coproporphyrinogen III oxidase-like protein&lt;br&gt;Location: 76183 - 77457" locus_tag="AAG02372.1" class="clusterblast-orf" id="dummy-2_h2_3_31"  />
</g>
</svg>
