<svg xmlns="http://www.w3.org/2000/svg" xmlns:xlink="http://www.w3.org/1999/xlink" version="1.1" x="0" y="0" height="230" width="800" viewBox="0 0 800 230" preserveAspectRatio="none"  >
<g label="Query sequence" class="clusterblast-cluster"  >
<text x="5" y="20" class="clusterblast-acc"  >
Query sequence</text>
<line x1="10" y1="35" x2="778.0" y2="35" style="stroke-width:1; stroke:grey; "  />
<polygon points="0,35 5,30 12,30 12,40 5,40 0,35 " style="fill:white; stroke-width:1; stroke:black; " description="&lt;b&gt;HS041_24500&lt;/b&gt;&lt;br&gt;DUF418 domain-containing protein&lt;br&gt;Location: 622987 - 623959" locus_tag="HS041_24500" class="clusterblast-orf" id="dummy-2_q0_0_all"  />
<polygon points="15,40 27,40 32,35 27,30 15,30 15,40 " style="fill:white; stroke-width:1; stroke:black; " description="&lt;b&gt;HS041_24505&lt;/b&gt;&lt;br&gt;beta-glucosidase&lt;br&gt;Location: 624265 - 625642" locus_tag="HS041_24505" class="clusterblast-orf" id="dummy-2_q1_0_all"  />
<polygon points="33,40 42,40 47,35 42,30 33,30 33,40 " style="fill:white; stroke-width:1; stroke:black; " description="&lt;b&gt;HS041_24510&lt;/b&gt;&lt;br&gt;pyridoxal phosphate-dependent aminotransferase&lt;br&gt;Location: 625713 - 626877" locus_tag="HS041_24510" class="clusterblast-orf" id="dummy-2_q2_0_all"  />
<polygon points="50,35 55,30 66,30 66,40 55,40 50,35 " style="fill:white; stroke-width:1; stroke:black; " description="&lt;b&gt;HS041_24515&lt;/b&gt;&lt;br&gt;extracellular solute-binding protein&lt;br&gt;Location: 627094 - 628411" locus_tag="HS041_24515" class="clusterblast-orf" id="dummy-2_q3_0_all"  />
<polygon points="66,35 71,30 88,30 88,40 71,40 66,35 " style="fill:white; stroke-width:1; stroke:black; " description="&lt;b&gt;HS041_24520&lt;/b&gt;&lt;br&gt;substrate-binding domain-containing protein&lt;br&gt;Location: 628407 - 630228" locus_tag="HS041_24520" class="clusterblast-orf" id="dummy-2_q4_0_all"  />
<polygon points="92,35 97,30 104,30 104,40 97,40 92,35 " style="fill:white; stroke-width:1; stroke:black; " description="&lt;b&gt;HS041_24525&lt;/b&gt;&lt;br&gt;LysR family transcriptional regulator&lt;br&gt;Location: 630533 - 631478" locus_tag="HS041_24525" class="clusterblast-orf" id="dummy-2_q5_0_all"  />
<polygon points="104,40 106,40 111,35 106,30 104,30 104,40 " style="fill:white; stroke-width:1; stroke:black; " description="&lt;b&gt;HS041_24530&lt;/b&gt;&lt;br&gt;peroxiredoxin&lt;br&gt;Location: 631522 - 632128" locus_tag="HS041_24530" class="clusterblast-orf" id="dummy-2_q6_0_all"  />
<polygon points="111,40 113,40 118,35 113,30 111,30 111,40 " style="fill:white; stroke-width:1; stroke:black; " description="&lt;b&gt;HS041_24535&lt;/b&gt;&lt;br&gt;carboxymuconolactone decarboxylase family protein&lt;br&gt;Location: 632127 - 632664" locus_tag="HS041_24535" class="clusterblast-orf" id="dummy-2_q7_0_all"  />
<polygon points="119,35 124,30 127,30 127,40 124,40 119,35 " style="fill:white; stroke-width:1; stroke:black; " description="&lt;b&gt;HS041_24540&lt;/b&gt;&lt;br&gt;DUF2306 domain-containing protein&lt;br&gt;Location: 632703 - 633429" locus_tag="HS041_24540" class="clusterblast-orf" id="dummy-2_q8_0_all"  />
<polygon points="130,35 135,30 154,30 154,40 135,40 130,35 " style="fill:white; stroke-width:1; stroke:black; " description="&lt;b&gt;HS041_24545&lt;/b&gt;&lt;br&gt;methyl-accepting chemotaxis protein&lt;br&gt;Location: 633630 - 635592" locus_tag="HS041_24545" class="clusterblast-orf" id="dummy-2_q9_0_all"  />
<polygon points="156,35 161,30 175,30 175,40 161,40 156,35 " style="fill:white; stroke-width:1; stroke:black; " description="&lt;b&gt;HS041_24550&lt;/b&gt;&lt;br&gt;MFS transporter&lt;br&gt;Location: 635751 - 637305" locus_tag="HS041_24550" class="clusterblast-orf" id="dummy-2_q10_0_all"  />
<polygon points="176,40 178,40 183,35 178,30 176,30 176,40 " style="fill:white; stroke-width:1; stroke:black; " description="&lt;b&gt;HS041_24555&lt;/b&gt;&lt;br&gt;TetR family transcriptional regulator&lt;br&gt;Location: 637386 - 637947" locus_tag="HS041_24555" class="clusterblast-orf" id="dummy-2_q11_0_all"  />
<polygon points="184,40 202,40 207,35 202,30 184,30 184,40 " style="fill:#d81515; stroke-width:1; stroke:black; " description="&lt;b&gt;HS041_24560&lt;/b&gt;&lt;br&gt;fatty acyl-AMP ligase&lt;br&gt;Location: 638084 - 639938" locus_tag="HS041_24560" class="clusterblast-orf" id="dummy-2_q12_0_all"  />
<polygon points="207,40 210,35 207,30 207,40 " style="fill:white; stroke-width:1; stroke:black; " description="&lt;b&gt;HS041_24565&lt;/b&gt;&lt;br&gt;acyl carrier protein&lt;br&gt;Location: 639940 - 640210" locus_tag="HS041_24565" class="clusterblast-orf" id="dummy-2_q13_0_all"  />
<polygon points="210,40 235,40 240,35 235,30 210,30 210,40 " style="fill:white; stroke-width:1; stroke:black; " description="&lt;b&gt;HS041_24570&lt;/b&gt;&lt;br&gt;MMPL family transporter&lt;br&gt;Location: 640209 - 642597" locus_tag="HS041_24570" class="clusterblast-orf" id="dummy-2_q14_0_all"  />
<polygon points="242,40 394,40 399,35 394,30 242,30 242,40 " style="fill:#77d815; stroke-width:1; stroke:black; " description="&lt;b&gt;HS041_24575&lt;/b&gt;&lt;br&gt;amino acid adenylation domain-containing protein&lt;br&gt;Location: 642778 - 655606" locus_tag="HS041_24575" class="clusterblast-orf" id="dummy-2_q15_0_all"  />
<polygon points="399,40 474,40 479,35 474,30 399,30 399,40 " style="fill:#77d815; stroke-width:1; stroke:black; " description="&lt;b&gt;HS041_24580&lt;/b&gt;&lt;br&gt;amino acid adenylation domain-containing protein&lt;br&gt;Location: 655602 - 662178" locus_tag="HS041_24580" class="clusterblast-orf" id="dummy-2_q16_0_all"  />
<polygon points="483,40 486,35 483,30 483,40 " style="fill:#77d815; stroke-width:1; stroke:black; " description="&lt;b&gt;HS041_24585&lt;/b&gt;&lt;br&gt;hypothetical protein&lt;br&gt;Location: 662472 - 662742" locus_tag="HS041_24585" class="clusterblast-orf" id="dummy-2_q17_0_all"  />
<polygon points="489,40 494,40 499,35 494,30 489,30 489,40 " style="fill:#77d815; stroke-width:1; stroke:black; " description="&lt;b&gt;HS041_24590&lt;/b&gt;&lt;br&gt;non-ribosomal peptide synthetase&lt;br&gt;Location: 662967 - 663780" locus_tag="HS041_24590" class="clusterblast-orf" id="dummy-2_q18_0_all"  />
<polygon points="499,40 543,40 548,35 543,30 499,30 499,40 " style="fill:#77d815; stroke-width:1; stroke:black; " description="&lt;b&gt;HS041_24595&lt;/b&gt;&lt;br&gt;amino acid adenylation domain-containing protein&lt;br&gt;Location: 663830 - 667796" locus_tag="HS041_24595" class="clusterblast-orf" id="dummy-2_q19_0_all"  />
<polygon points="548,40 550,35 548,30 548,40 " style="fill:#15d8d8; stroke-width:1; stroke:black; " description="&lt;b&gt;HS041_24600&lt;/b&gt;&lt;br&gt;MbtH family protein&lt;br&gt;Location: 667792 - 668002" locus_tag="HS041_24600" class="clusterblast-orf" id="dummy-2_q20_0_all"  />
<polygon points="551,40 555,40 560,35 555,30 551,30 551,40 " style="fill:#7715d8; stroke-width:1; stroke:black; " description="&lt;b&gt;HS041_24605&lt;/b&gt;&lt;br&gt;thioesterase&lt;br&gt;Location: 668060 - 668804" locus_tag="HS041_24605" class="clusterblast-orf" id="dummy-2_q21_0_all"  />
<polygon points="560,35 565,30 571,30 571,40 565,40 560,35 " style="fill:white; stroke-width:1; stroke:black; " description="&lt;b&gt;HS041_24610&lt;/b&gt;&lt;br&gt;alpha/beta fold hydrolase&lt;br&gt;Location: 668770 - 669661" locus_tag="HS041_24610" class="clusterblast-orf" id="dummy-2_q22_0_all"  />
<polygon points="574,40 580,40 585,35 580,30 574,30 574,40 " style="fill:white; stroke-width:1; stroke:black; " description="&lt;b&gt;HS041_24615&lt;/b&gt;&lt;br&gt;carbamate kinase&lt;br&gt;Location: 669904 - 670849" locus_tag="HS041_24615" class="clusterblast-orf" id="dummy-2_q23_0_all"  />
<polygon points="586,40 594,40 599,35 594,30 586,30 586,40 " style="fill:white; stroke-width:1; stroke:black; " description="&lt;b&gt;HS041_24620&lt;/b&gt;&lt;br&gt;ring-opening amidohydrolase&lt;br&gt;Location: 670875 - 671976" locus_tag="HS041_24620" class="clusterblast-orf" id="dummy-2_q24_0_all"  />
<polygon points="600,40 602,40 607,35 602,30 600,30 600,40 " style="fill:white; stroke-width:1; stroke:black; " description="&lt;b&gt;HS041_24625&lt;/b&gt;&lt;br&gt;SseB family protein&lt;br&gt;Location: 672076 - 672640" locus_tag="HS041_24625" class="clusterblast-orf" id="dummy-2_q25_0_all"  />
<polygon points="606,35 610,30 610,40 606,35 " style="fill:white; stroke-width:1; stroke:black; " description="&lt;b&gt;HS041_24630&lt;/b&gt;&lt;br&gt;hypothetical protein&lt;br&gt;Location: 672560 - 672875" locus_tag="HS041_24630" class="clusterblast-orf" id="dummy-2_q26_0_all"  />
<polygon points="611,40 617,40 622,35 617,30 611,30 611,40 " style="fill:white; stroke-width:1; stroke:black; " description="&lt;b&gt;HS041_24635&lt;/b&gt;&lt;br&gt;prepilin peptidase&lt;br&gt;Location: 672979 - 673852" locus_tag="HS041_24635" class="clusterblast-orf" id="dummy-2_q27_0_all"  />
<polygon points="624,40 626,40 631,35 626,30 624,30 624,40 " style="fill:white; stroke-width:1; stroke:black; " description="&lt;b&gt;HS041_24640&lt;/b&gt;&lt;br&gt;SRPBCC domain-containing protein&lt;br&gt;Location: 674041 - 674542" locus_tag="HS041_24640" class="clusterblast-orf" id="dummy-2_q28_0_all"  />
<polygon points="634,40 644,40 649,35 644,30 634,30 634,40 " style="fill:white; stroke-width:1; stroke:black; " description="&lt;b&gt;HS041_24645&lt;/b&gt;&lt;br&gt;GAF domain-containing sensor histidine kinase&lt;br&gt;Location: 674791 - 676051" locus_tag="HS041_24645" class="clusterblast-orf" id="dummy-2_q29_0_all"  />
<polygon points="651,35 656,30 689,30 689,40 656,40 651,35 " style="fill:white; stroke-width:1; stroke:black; " description="&lt;b&gt;HS041_24650&lt;/b&gt;&lt;br&gt;winged helix-turn-helix domain-containing protein&lt;br&gt;Location: 676214 - 679352" locus_tag="HS041_24650" class="clusterblast-orf" id="dummy-2_q30_0_all"  />
<polygon points="694,35 699,30 701,30 701,40 699,40 694,35 " style="fill:white; stroke-width:1; stroke:black; " description="&lt;b&gt;HS041_24655&lt;/b&gt;&lt;br&gt;hypothetical protein&lt;br&gt;Location: 679751 - 680321" locus_tag="HS041_24655" class="clusterblast-orf" id="dummy-2_q31_0_all"  />
<polygon points="704,40 713,40 718,35 713,30 704,30 704,40 " style="fill:white; stroke-width:1; stroke:black; " description="&lt;b&gt;HS041_24660&lt;/b&gt;&lt;br&gt;chorismate synthase&lt;br&gt;Location: 680551 - 681727" locus_tag="HS041_24660" class="clusterblast-orf" id="dummy-2_q32_0_all"  />
<polygon points="718,40 720,40 725,35 720,30 718,30 718,40 " style="fill:white; stroke-width:1; stroke:black; " description="&lt;b&gt;HS041_24665&lt;/b&gt;&lt;br&gt;shikimate kinase&lt;br&gt;Location: 681723 - 682227" locus_tag="HS041_24665" class="clusterblast-orf" id="dummy-2_q33_0_all"  />
<polygon points="725,40 733,40 738,35 733,30 725,30 725,40 " style="fill:white; stroke-width:1; stroke:black; " description="&lt;b&gt;HS041_24670&lt;/b&gt;&lt;br&gt;3-dehydroquinate synthase&lt;br&gt;Location: 682273 - 683350" locus_tag="HS041_24670" class="clusterblast-orf" id="dummy-2_q34_0_all"  />
<polygon points="739,40 739,40 744,35 739,30 739,30 739,40 " style="fill:white; stroke-width:1; stroke:black; " description="&lt;b&gt;HS041_24675&lt;/b&gt;&lt;br&gt;type II 3-dehydroquinate dehydratase&lt;br&gt;Location: 683419 - 683851" locus_tag="HS041_24675" class="clusterblast-orf" id="dummy-2_q35_0_all"  />
<polygon points="746,40 750,40 755,35 750,30 746,30 746,40 " style="fill:white; stroke-width:1; stroke:black; " description="&lt;b&gt;HS041_24680&lt;/b&gt;&lt;br&gt;SGNH/GDSL hydrolase family protein&lt;br&gt;Location: 683949 - 684729" locus_tag="HS041_24680" class="clusterblast-orf" id="dummy-2_q36_0_all"  />
<polygon points="756,35 761,30 780,30 780,40 761,40 756,35 " style="fill:white; stroke-width:1; stroke:black; " description="&lt;b&gt;HS041_24685&lt;/b&gt;&lt;br&gt;ATP-dependent DNA helicase&lt;br&gt;Location: 684757 - 686725" locus_tag="HS041_24685" class="clusterblast-orf" id="dummy-2_q37_0_all"  />
</g>
<g label="BGC0000374" description="BGC0000374_c1: hormaomycin/hormaomycin A1/hormaomycin A2/hormaomycin A3/horma... (13% of genes show similarity), NRP:Cyclic depsipeptide" class="clusterblast-cluster"  >
<text x="5" y="70" class="clusterblast-acc"  >
<a xlink:href="https://mibig.secondarymetabolites.org/go/BGC0000374/1" target="_blank">BGC0000374</a>: hormaomycin/hormaomycin A1/hormaomycin A2/hormaomycin A3/hormaomycin A4/hormaomycin A5/hormaomycin A6 (13% of genes show similarity), NRP:Cyclic depsipeptide</text>
<line x1="10" y1="85" x2="778.0" y2="85" style="stroke-width:1; stroke:grey; "  />
</g>
<g id="a2_000"  >
<polygon points="93,85 98,80 105,80 105,90 98,90 93,85 " style="fill:white; stroke-width:1; stroke:black; " description="&lt;b&gt;AEH41781.1&lt;/b&gt;&lt;br&gt;HrmA&lt;br&gt;Location: 656 - 1624" locus_tag="AEH41781.1" class="clusterblast-orf" id="dummy-2_h2_9_0"  />
</g>
<g id="a2_001"  >
<polygon points="117,90 120,90 125,85 120,80 117,80 117,90 " style="fill:white; stroke-width:1; stroke:black; " description="&lt;b&gt;AEH41782.1&lt;/b&gt;&lt;br&gt;HrmB&lt;br&gt;Location: 2626 - 3219" locus_tag="AEH41782.1" class="clusterblast-orf" id="dummy-2_h2_9_1"  />
</g>
<g id="a2_002"  >
<polygon points="125,90 133,90 138,85 133,80 125,80 125,90 " style="fill:white; stroke-width:1; stroke:black; " description="&lt;b&gt;AEH41802.1&lt;/b&gt;&lt;br&gt;HrmC&lt;br&gt;Location: 3257 - 4333" locus_tag="AEH41802.1" class="clusterblast-orf" id="dummy-2_h2_9_2"  />
</g>
<g id="a2_003"  >
<polygon points="138,90 144,90 149,85 144,80 138,80 138,90 " style="fill:white; stroke-width:1; stroke:black; " description="&lt;b&gt;AEH41801.1&lt;/b&gt;&lt;br&gt;HrmD&lt;br&gt;Location: 4336 - 5232" locus_tag="AEH41801.1" class="clusterblast-orf" id="dummy-2_h2_9_3"  />
</g>
<g id="a2_004"  >
<polygon points="150,85 155,80 162,80 162,90 155,90 150,85 " style="fill:white; stroke-width:1; stroke:black; " description="&lt;b&gt;AEH41783.1&lt;/b&gt;&lt;br&gt;HrmE&lt;br&gt;Location: 5306 - 6286" locus_tag="AEH41783.1" class="clusterblast-orf" id="dummy-2_h2_9_4"  />
</g>
<g id="a2_005"  >
<polygon points="162,85 167,80 169,80 169,90 167,90 162,85 " style="fill:white; stroke-width:1; stroke:black; " description="&lt;b&gt;AEH41784.1&lt;/b&gt;&lt;br&gt;HrmF&lt;br&gt;Location: 6270 - 6824" locus_tag="AEH41784.1" class="clusterblast-orf" id="dummy-2_h2_9_5"  />
</g>
<g id="a2_006"  >
<polygon points="169,85 174,80 190,80 190,90 174,90 169,85 " style="fill:white; stroke-width:1; stroke:black; " description="&lt;b&gt;AEH41785.1&lt;/b&gt;&lt;br&gt;HrmG&lt;br&gt;Location: 6869 - 8590" locus_tag="AEH41785.1" class="clusterblast-orf" id="dummy-2_h2_9_6"  />
</g>
<g id="a2_007"  >
<polygon points="194,90 195,90 200,85 195,80 194,80 194,90 " style="fill:white; stroke-width:1; stroke:black; " description="&lt;b&gt;AEH41786.1&lt;/b&gt;&lt;br&gt;HrmH&lt;br&gt;Location: 8916 - 9338" locus_tag="AEH41786.1" class="clusterblast-orf" id="dummy-2_h2_9_7"  />
</g>
<g id="a2_008"  >
<polygon points="200,90 208,90 213,85 208,80 200,80 200,90 " style="fill:white; stroke-width:1; stroke:black; " description="&lt;b&gt;AEH41787.1&lt;/b&gt;&lt;br&gt;HrmI&lt;br&gt;Location: 9386 - 10435" locus_tag="AEH41787.1" class="clusterblast-orf" id="dummy-2_h2_9_8"  />
</g>
<g id="a2_009"  >
<polygon points="213,90 217,90 222,85 217,80 213,80 213,90 " style="fill:white; stroke-width:1; stroke:black; " description="&lt;b&gt;AEH41788.1&lt;/b&gt;&lt;br&gt;HrmJ&lt;br&gt;Location: 10449 - 11132" locus_tag="AEH41788.1" class="clusterblast-orf" id="dummy-2_h2_9_9"  />
</g>
<g id="a2_0010"  >
<polygon points="222,90 236,90 241,85 236,80 222,80 222,90 " style="fill:white; stroke-width:1; stroke:black; " description="&lt;b&gt;AEH41789.1&lt;/b&gt;&lt;br&gt;HrmK&lt;br&gt;Location: 11145 - 12728" locus_tag="AEH41789.1" class="clusterblast-orf" id="dummy-2_h2_9_10"  />
</g>
<g id="a2_0011"  >
<polygon points="241,90 244,85 241,80 241,90 " style="fill:white; stroke-width:1; stroke:black; " description="&lt;b&gt;AEH41790.1&lt;/b&gt;&lt;br&gt;HrmL&lt;br&gt;Location: 12725 - 13000" locus_tag="AEH41790.1" class="clusterblast-orf" id="dummy-2_h2_9_11"  />
</g>
<g id="a2_0012"  >
<polygon points="245,90 254,90 259,85 254,80 245,80 245,90 " style="fill:white; stroke-width:1; stroke:black; " description="&lt;b&gt;AEH41791.1&lt;/b&gt;&lt;br&gt;HrmM&lt;br&gt;Location: 13039 - 14205" locus_tag="AEH41791.1" class="clusterblast-orf" id="dummy-2_h2_9_12"  />
</g>
<g id="a2_0013"  >
<polygon points="259,90 269,90 274,85 269,80 259,80 259,90 " style="fill:white; stroke-width:1; stroke:black; " description="&lt;b&gt;AEH41792.1&lt;/b&gt;&lt;br&gt;HrmN&lt;br&gt;Location: 14230 - 15399" locus_tag="AEH41792.1" class="clusterblast-orf" id="dummy-2_h2_9_13"  />
</g>
<g id="a2_0014"  >
<polygon points="275,90 463,90 468,85 463,80 275,80 275,90 " style="fill:#77d815; stroke-width:1; stroke:black; " description="&lt;b&gt;AEH41793.1&lt;/b&gt;&lt;br&gt;HrmO&lt;br&gt;Location: 15504 - 31262&lt;br&gt;&lt;br&gt;&lt;b&gt;BlastP hit with HS041_24580&lt;/b&gt;&lt;br&gt;Percentage identity: 51&lt;br&gt;Percentage coverage: 102&lt;br&gt;BLAST bit score: 1935&lt;br&gt;E-value: 0.0&lt;br&gt;&lt;br&gt;&lt;b&gt;BlastP hit with HS041_24585&lt;/b&gt;&lt;br&gt;Percentage identity: 57&lt;br&gt;Percentage coverage: 96&lt;br&gt;BLAST bit score: 93&lt;br&gt;E-value: 1.83e-23&lt;br&gt;&lt;br&gt;&lt;b&gt;BlastP hit with HS041_24590&lt;/b&gt;&lt;br&gt;Percentage identity: 50&lt;br&gt;Percentage coverage: 103&lt;br&gt;BLAST bit score: 229&lt;br&gt;E-value: 2.96e-68&lt;br&gt;&lt;br&gt;&lt;b&gt;BlastP hit with HS041_24595&lt;/b&gt;&lt;br&gt;Percentage identity: 47&lt;br&gt;Percentage coverage: 83&lt;br&gt;BLAST bit score: 794&lt;br&gt;E-value: 1.18e-248" locus_tag="AEH41793.1" class="clusterblast-orf" id="dummy-2_h2_9_14"  />
</g>
<g id="a2_0015"  >
<polygon points="468,90 590,90 595,85 590,80 468,80 468,90 " style="fill:#77d815; stroke-width:1; stroke:black; " description="&lt;b&gt;AEH41794.1&lt;/b&gt;&lt;br&gt;HrmP&lt;br&gt;Location: 31259 - 41674&lt;br&gt;&lt;br&gt;&lt;b&gt;BlastP hit with HS041_24575&lt;/b&gt;&lt;br&gt;Percentage identity: 47&lt;br&gt;Percentage coverage: 54&lt;br&gt;BLAST bit score: 1752&lt;br&gt;E-value: 0.0&lt;br&gt;&lt;br&gt;&lt;b&gt;BlastP hit with HS041_24580&lt;/b&gt;&lt;br&gt;Percentage identity: 49&lt;br&gt;Percentage coverage: 103&lt;br&gt;BLAST bit score: 1843&lt;br&gt;E-value: 0.0&lt;br&gt;&lt;br&gt;&lt;b&gt;BlastP hit with HS041_24595&lt;/b&gt;&lt;br&gt;Percentage identity: 48&lt;br&gt;Percentage coverage: 80&lt;br&gt;BLAST bit score: 798&lt;br&gt;E-value: 2.45e-251" locus_tag="AEH41794.1" class="clusterblast-orf" id="dummy-2_h2_9_15"  />
</g>
<g id="a2_0016"  >
<polygon points="595,90 607,90 612,85 607,80 595,80 595,90 " style="fill:white; stroke-width:1; stroke:black; " description="&lt;b&gt;ACE80255.1&lt;/b&gt;&lt;br&gt;HrmQ&lt;br&gt;Location: 41671 - 43017" locus_tag="ACE80255.1" class="clusterblast-orf" id="dummy-2_h2_9_16"  />
</g>
<g id="a2_0017"  >
<polygon points="612,90 615,85 612,80 612,90 " style="fill:#15d8d8; stroke-width:1; stroke:black; " description="&lt;b&gt;AEH41800.1&lt;/b&gt;&lt;br&gt;HrmR&lt;br&gt;Location: 43074 - 43292&lt;br&gt;&lt;br&gt;&lt;b&gt;BlastP hit with HS041_24600&lt;/b&gt;&lt;br&gt;Percentage identity: 66&lt;br&gt;Percentage coverage: 97&lt;br&gt;BLAST bit score: 104&lt;br&gt;E-value: 1.95e-31" locus_tag="AEH41800.1" class="clusterblast-orf" id="dummy-2_h2_9_17"  />
</g>
<g id="a2_0018"  >
<polygon points="615,90 622,90 627,85 622,80 615,80 615,90 " style="fill:white; stroke-width:1; stroke:black; " description="&lt;b&gt;AEH41795.1&lt;/b&gt;&lt;br&gt;HrmS&lt;br&gt;Location: 43304 - 44293" locus_tag="AEH41795.1" class="clusterblast-orf" id="dummy-2_h2_9_18"  />
</g>
<g id="a2_0019"  >
<polygon points="629,90 635,90 640,85 635,80 629,80 629,90 " style="fill:white; stroke-width:1; stroke:black; " description="&lt;b&gt;AEH41796.1&lt;/b&gt;&lt;br&gt;HrmT&lt;br&gt;Location: 44408 - 45313" locus_tag="AEH41796.1" class="clusterblast-orf" id="dummy-2_h2_9_19"  />
</g>
<g id="a2_0020"  >
<polygon points="643,90 650,90 655,85 650,80 643,80 643,90 " style="fill:white; stroke-width:1; stroke:black; " description="&lt;b&gt;AEH41797.1&lt;/b&gt;&lt;br&gt;HrmU&lt;br&gt;Location: 45544 - 46593" locus_tag="AEH41797.1" class="clusterblast-orf" id="dummy-2_h2_9_20"  />
</g>
<g id="a2_0021"  >
<polygon points="659,90 660,90 665,85 660,80 659,80 659,90 " style="fill:white; stroke-width:1; stroke:black; " description="&lt;b&gt;AEH41798.1&lt;/b&gt;&lt;br&gt;HrmV&lt;br&gt;Location: 46906 - 47376" locus_tag="AEH41798.1" class="clusterblast-orf" id="dummy-2_h2_9_21"  />
</g>
<g id="a2_0022"  >
<polygon points="665,90 681,90 686,85 681,80 665,80 665,90 " style="fill:white; stroke-width:1; stroke:black; " description="&lt;b&gt;AEH41799.1&lt;/b&gt;&lt;br&gt;HrmW&lt;br&gt;Location: 47373 - 49064" locus_tag="AEH41799.1" class="clusterblast-orf" id="dummy-2_h2_9_22"  />
</g>
</svg>
