<svg xmlns="http://www.w3.org/2000/svg" xmlns:xlink="http://www.w3.org/1999/xlink" version="1.1" x="0" y="0" height="230" width="800" viewBox="0 0 800 230" preserveAspectRatio="none"  >
<g label="Query sequence" class="clusterblast-cluster"  >
<text x="5" y="20" class="clusterblast-acc"  >
Query sequence</text>
<line x1="10" y1="35" x2="778.0" y2="35" style="stroke-width:1; stroke:grey; "  />
<polygon points="292,35 297,30 308,30 308,40 297,40 292,35 " style="fill:white; stroke-width:1; stroke:black; " description="&lt;b&gt;HS041_18780&lt;/b&gt;&lt;br&gt;hypothetical protein&lt;br&gt;Location: 1372842 - 1374474" locus_tag="HS041_18780" class="clusterblast-orf" id="dummy-5_q0_0_all"  />
<polygon points="309,40 311,40 316,35 311,30 309,30 309,40 " style="fill:white; stroke-width:1; stroke:black; " description="&lt;b&gt;HS041_18785&lt;/b&gt;&lt;br&gt;TetR family transcriptional regulator&lt;br&gt;Location: 1374624 - 1375272" locus_tag="HS041_18785" class="clusterblast-orf" id="dummy-5_q1_0_all"  />
<polygon points="316,40 331,40 336,35 331,30 316,30 316,40 " style="fill:#d81515; stroke-width:1; stroke:black; " description="&lt;b&gt;HS041_18790&lt;/b&gt;&lt;br&gt;methylmalonyl-CoA mutase small subunit&lt;br&gt;Location: 1375358 - 1377350" locus_tag="HS041_18790" class="clusterblast-orf" id="dummy-5_q2_0_all"  />
<polygon points="336,40 353,40 358,35 353,30 336,30 336,40 " style="fill:#15d863; stroke-width:1; stroke:black; " description="&lt;b&gt;HS041_18795&lt;/b&gt;&lt;br&gt;methylmalonyl-CoA mutase&lt;br&gt;Location: 1377417 - 1379625" locus_tag="HS041_18795" class="clusterblast-orf" id="dummy-5_q3_0_all"  />
<polygon points="359,40 363,40 368,35 363,30 359,30 359,40 " style="fill:#1563d8; stroke-width:1; stroke:black; " description="&lt;b&gt;HS041_18800&lt;/b&gt;&lt;br&gt;methylmalonyl Co-A mutase-associated GTPase MeaB&lt;br&gt;Location: 1379674 - 1380646" locus_tag="HS041_18800" class="clusterblast-orf" id="dummy-5_q4_0_all"  />
<polygon points="372,40 381,40 386,35 381,30 372,30 372,40 " style="fill:white; stroke-width:1; stroke:black; " description="&lt;b&gt;HS041_18805&lt;/b&gt;&lt;br&gt;cytochrome P450&lt;br&gt;Location: 1381062 - 1382457" locus_tag="HS041_18805" class="clusterblast-orf" id="dummy-5_q5_0_all"  />
<polygon points="386,40 389,40 394,35 389,30 386,30 386,40 " style="fill:white; stroke-width:1; stroke:black; " description="&lt;b&gt;HS041_18810&lt;/b&gt;&lt;br&gt;hypothetical protein&lt;br&gt;Location: 1382492 - 1383338" locus_tag="HS041_18810" class="clusterblast-orf" id="dummy-5_q6_0_all"  />
<polygon points="394,40 406,40 411,35 406,30 394,30 394,40 " style="fill:white; stroke-width:1; stroke:black; " description="&lt;b&gt;HS041_18815&lt;/b&gt;&lt;br&gt;hypothetical protein&lt;br&gt;Location: 1383337 - 1385053" locus_tag="HS041_18815" class="clusterblast-orf" id="dummy-5_q7_0_all"  />
<polygon points="413,40 433,40 438,35 433,30 413,30 413,40 " style="fill:white; stroke-width:1; stroke:black; " description="&lt;b&gt;HS041_18820&lt;/b&gt;&lt;br&gt;nitrate- and nitrite sensing domain-containing protein&lt;br&gt;Location: 1385266 - 1387858" locus_tag="HS041_18820" class="clusterblast-orf" id="dummy-5_q8_0_all"  />
<polygon points="439,40 443,35 439,30 439,40 " style="fill:#b115d8; stroke-width:1; stroke:black; " description="&lt;b&gt;HS041_18825&lt;/b&gt;&lt;br&gt;roadblock/LC7 domain-containing protein&lt;br&gt;Location: 1387949 - 1388381" locus_tag="HS041_18825" class="clusterblast-orf" id="dummy-5_q9_0_all"  />
<polygon points="443,40 447,35 443,30 443,40 " style="fill:white; stroke-width:1; stroke:black; " description="&lt;b&gt;HS041_18830&lt;/b&gt;&lt;br&gt;DUF742 domain-containing protein&lt;br&gt;Location: 1388377 - 1388764" locus_tag="HS041_18830" class="clusterblast-orf" id="dummy-5_q10_0_all"  />
<polygon points="447,40 448,40 453,35 448,30 447,30 447,40 " style="fill:#b1d815; stroke-width:1; stroke:black; " description="&lt;b&gt;HS041_18835&lt;/b&gt;&lt;br&gt;ATP/GTP-binding protein&lt;br&gt;Location: 1388744 - 1389374" locus_tag="HS041_18835" class="clusterblast-orf" id="dummy-5_q11_0_all"  />
<polygon points="455,40 459,35 455,30 455,40 " style="fill:white; stroke-width:1; stroke:black; " description="&lt;b&gt;HS041_18840&lt;/b&gt;&lt;br&gt;protease inhibitor I42 family protein&lt;br&gt;Location: 1389585 - 1390020" locus_tag="HS041_18840" class="clusterblast-orf" id="dummy-5_q12_0_all"  />
<polygon points="460,40 463,40 468,35 463,30 460,30 460,40 " style="fill:white; stroke-width:1; stroke:black; " description="&lt;b&gt;HS041_18845&lt;/b&gt;&lt;br&gt;UDP-galactose-lipid carrier transferase&lt;br&gt;Location: 1390095 - 1390878" locus_tag="HS041_18845" class="clusterblast-orf" id="dummy-5_q13_0_all"  />
<polygon points="469,40 476,40 481,35 476,30 469,30 469,40 " style="fill:white; stroke-width:1; stroke:black; " description="&lt;b&gt;HS041_18850&lt;/b&gt;&lt;br&gt;hypothetical protein&lt;br&gt;Location: 1391039 - 1392242" locus_tag="HS041_18850" class="clusterblast-orf" id="dummy-5_q14_0_all"  />
<polygon points="482,35 487,30 487,30 487,40 487,40 482,35 " style="fill:white; stroke-width:1; stroke:black; " description="&lt;b&gt;HS041_18855&lt;/b&gt;&lt;br&gt;hemerythrin domain-containing protein&lt;br&gt;Location: 1392322 - 1392877" locus_tag="HS041_18855" class="clusterblast-orf" id="dummy-5_q15_0_all"  />
</g>
<g label="BGC0002671" description="BGC0002671_c1: kendomycin B (9% of genes show similarity), Polyketide" class="clusterblast-cluster"  >
<text x="5" y="70" class="clusterblast-acc"  >
<a xlink:href="https://mibig.secondarymetabolites.org/go/BGC0002671/1" target="_blank">BGC0002671</a>: kendomycin B                                                                     (9% of genes show similarity), Polyketide</text>
<line x1="10" y1="85" x2="778.0" y2="85" style="stroke-width:1; stroke:grey; "  />
</g>
<g id="a5_000"  >
<polygon points="0,90 17,90 22,85 17,80 0,80 0,90 " style="fill:white; stroke-width:1; stroke:black; " description="&lt;b&gt;UHY14116.1&lt;/b&gt;&lt;br&gt;DUF262 domain-containing protein&lt;br&gt;Location: 1 - 2337" locus_tag="UHY14116.1" class="clusterblast-orf" id="dummy-5_h5_1_0"  />
</g>
<g id="a5_001"  >
<polygon points="26,90 29,85 26,80 26,90 " style="fill:white; stroke-width:1; stroke:black; " description="&lt;b&gt;UHY14117.1&lt;/b&gt;&lt;br&gt;hypothetical protein&lt;br&gt;Location: 2725 - 3012" locus_tag="UHY14117.1" class="clusterblast-orf" id="dummy-5_h5_1_1"  />
</g>
<g id="a5_002"  >
<polygon points="32,85 35,80 35,90 32,85 " style="fill:white; stroke-width:1; stroke:black; " description="&lt;b&gt;UHY14139.1&lt;/b&gt;&lt;br&gt;transposase&lt;br&gt;Location: 3334 - 3597" locus_tag="UHY14139.1" class="clusterblast-orf" id="dummy-5_h5_1_2"  />
</g>
<g id="a5_003"  >
<polygon points="43,90 45,85 43,80 43,90 " style="fill:white; stroke-width:1; stroke:black; " description="&lt;b&gt;UHY14118.1&lt;/b&gt;&lt;br&gt;transposase&lt;br&gt;Location: 4409 - 4645" locus_tag="UHY14118.1" class="clusterblast-orf" id="dummy-5_h5_1_3"  />
</g>
<g id="a5_004"  >
<polygon points="44,90 50,90 55,85 50,80 44,80 44,90 " style="fill:white; stroke-width:1; stroke:black; " description="&lt;b&gt;UHY14119.1&lt;/b&gt;&lt;br&gt;transposase&lt;br&gt;Location: 4611 - 5738" locus_tag="UHY14119.1" class="clusterblast-orf" id="dummy-5_h5_1_4"  />
</g>
<g id="a5_005"  >
<polygon points="60,90 82,90 87,85 82,80 60,80 60,90 " style="fill:white; stroke-width:1; stroke:black; " description="&lt;b&gt;UHY14120.1&lt;/b&gt;&lt;br&gt;transcriptional regulator&lt;br&gt;Location: 6190 - 8955" locus_tag="UHY14120.1" class="clusterblast-orf" id="dummy-5_h5_1_5"  />
</g>
<g id="a5_006"  >
<polygon points="87,85 92,80 95,80 95,90 92,90 87,85 " style="fill:white; stroke-width:1; stroke:black; " description="&lt;b&gt;UHY14140.1&lt;/b&gt;&lt;br&gt;NAD(P)-dependent oxidoreductase&lt;br&gt;Location: 9015 - 9839" locus_tag="UHY14140.1" class="clusterblast-orf" id="dummy-5_h5_1_6"  />
</g>
<g id="a5_007"  >
<polygon points="96,90 97,90 102,85 97,80 96,80 96,90 " style="fill:white; stroke-width:1; stroke:black; " description="&lt;b&gt;UHY14121.1&lt;/b&gt;&lt;br&gt;transcriptional regulator&lt;br&gt;Location: 9931 - 10548" locus_tag="UHY14121.1" class="clusterblast-orf" id="dummy-5_h5_1_7"  />
</g>
<g id="a5_008"  >
<polygon points="104,90 106,85 104,80 104,90 " style="fill:white; stroke-width:1; stroke:black; " description="&lt;b&gt;UHY14122.1&lt;/b&gt;&lt;br&gt;hypothetical protein&lt;br&gt;Location: 10685 - 10909" locus_tag="UHY14122.1" class="clusterblast-orf" id="dummy-5_h5_1_8"  />
</g>
<g id="a5_009"  >
<polygon points="106,90 106,90 111,85 106,80 106,80 106,90 " style="fill:white; stroke-width:1; stroke:black; " description="&lt;b&gt;UHY14123.1&lt;/b&gt;&lt;br&gt;hypothetical protein&lt;br&gt;Location: 10964 - 11413" locus_tag="UHY14123.1" class="clusterblast-orf" id="dummy-5_h5_1_9"  />
</g>
<g id="a5_0010"  >
<polygon points="111,90 121,90 126,85 121,80 111,80 111,90 " style="fill:white; stroke-width:1; stroke:black; " description="&lt;b&gt;UHY14124.1&lt;/b&gt;&lt;br&gt;FAD-dependent oxidoreductase&lt;br&gt;Location: 11413 - 12966" locus_tag="UHY14124.1" class="clusterblast-orf" id="dummy-5_h5_1_10"  />
</g>
<g id="a5_0011"  >
<polygon points="127,90 235,90 240,85 235,80 127,80 127,90 " style="fill:white; stroke-width:1; stroke:black; " description="&lt;b&gt;UHY14125.1&lt;/b&gt;&lt;br&gt;PKS I&lt;br&gt;Location: 13067 - 24646" locus_tag="UHY14125.1" class="clusterblast-orf" id="dummy-5_h5_1_11"  />
</g>
<g id="a5_0012"  >
<polygon points="240,90 298,90 303,85 298,80 240,80 240,90 " style="fill:white; stroke-width:1; stroke:black; " description="&lt;b&gt;UHY14126.1&lt;/b&gt;&lt;br&gt;PKS I&lt;br&gt;Location: 24683 - 31114" locus_tag="UHY14126.1" class="clusterblast-orf" id="dummy-5_h5_1_12"  />
</g>
<g id="a5_0013"  >
<polygon points="303,90 396,90 401,85 396,80 303,80 303,90 " style="fill:white; stroke-width:1; stroke:black; " description="&lt;b&gt;UHY14127.1&lt;/b&gt;&lt;br&gt;PKS I&lt;br&gt;Location: 31139 - 41179" locus_tag="UHY14127.1" class="clusterblast-orf" id="dummy-5_h5_1_13"  />
</g>
<g id="a5_0014"  >
<polygon points="402,90 408,90 413,85 408,80 402,80 402,90 " style="fill:white; stroke-width:1; stroke:black; " description="&lt;b&gt;UHY14128.1&lt;/b&gt;&lt;br&gt;FAD-dependent monooxygenase&lt;br&gt;Location: 41208 - 42380" locus_tag="UHY14128.1" class="clusterblast-orf" id="dummy-5_h5_1_14"  />
</g>
<g id="a5_0015"  >
<polygon points="414,85 419,80 428,80 428,90 419,90 414,85 " style="fill:white; stroke-width:1; stroke:black; " description="&lt;b&gt;UHY14141.1&lt;/b&gt;&lt;br&gt;benzaldehyde dehydrogenase&lt;br&gt;Location: 42448 - 43908" locus_tag="UHY14141.1" class="clusterblast-orf" id="dummy-5_h5_1_15"  />
</g>
<g id="a5_0016"  >
<polygon points="428,85 433,80 444,80 444,90 433,90 428,85 " style="fill:white; stroke-width:1; stroke:black; " description="&lt;b&gt;UHY14142.1&lt;/b&gt;&lt;br&gt;benzoylformate decarboxylase&lt;br&gt;Location: 43929 - 45584" locus_tag="UHY14142.1" class="clusterblast-orf" id="dummy-5_h5_1_16"  />
</g>
<g id="a5_0017"  >
<polygon points="444,85 449,80 457,80 457,90 449,90 444,85 " style="fill:white; stroke-width:1; stroke:black; " description="&lt;b&gt;UHY14143.1&lt;/b&gt;&lt;br&gt;dioxygenase&lt;br&gt;Location: 45589 - 46923" locus_tag="UHY14143.1" class="clusterblast-orf" id="dummy-5_h5_1_17"  />
</g>
<g id="a5_0018"  >
<polygon points="457,85 462,80 464,80 464,90 462,90 457,85 " style="fill:white; stroke-width:1; stroke:black; " description="&lt;b&gt;UHY14144.1&lt;/b&gt;&lt;br&gt;enoyl-CoA hydratase/isomerase&lt;br&gt;Location: 46920 - 47603" locus_tag="UHY14144.1" class="clusterblast-orf" id="dummy-5_h5_1_18"  />
</g>
<g id="a5_0019"  >
<polygon points="464,85 469,80 475,80 475,90 469,90 464,85 " style="fill:white; stroke-width:1; stroke:black; " description="&lt;b&gt;UHY14145.1&lt;/b&gt;&lt;br&gt;PKS III&lt;br&gt;Location: 47655 - 48773" locus_tag="UHY14145.1" class="clusterblast-orf" id="dummy-5_h5_1_19"  />
</g>
<g id="a5_0020"  >
<polygon points="479,90 605,90 610,85 605,80 479,80 479,90 " style="fill:white; stroke-width:1; stroke:black; " description="&lt;b&gt;UHY14129.1&lt;/b&gt;&lt;br&gt;PKS I&lt;br&gt;Location: 49095 - 62579" locus_tag="UHY14129.1" class="clusterblast-orf" id="dummy-5_h5_1_20"  />
</g>
<g id="a5_0021"  >
<polygon points="610,90 653,90 658,85 653,80 610,80 610,90 " style="fill:white; stroke-width:1; stroke:black; " description="&lt;b&gt;UHY14130.1&lt;/b&gt;&lt;br&gt;PKS I&lt;br&gt;Location: 62585 - 67507" locus_tag="UHY14130.1" class="clusterblast-orf" id="dummy-5_h5_1_21"  />
</g>
<g id="a5_0022"  >
<polygon points="659,90 661,90 666,85 661,80 659,80 659,90 " style="fill:white; stroke-width:1; stroke:black; " description="&lt;b&gt;UHY14131.1&lt;/b&gt;&lt;br&gt;thioesterase&lt;br&gt;Location: 67539 - 68324" locus_tag="UHY14131.1" class="clusterblast-orf" id="dummy-5_h5_1_22"  />
</g>
<g id="a5_0023"  >
<polygon points="666,90 680,90 685,85 680,80 666,80 666,90 " style="fill:#d81515; stroke-width:1; stroke:black; " description="&lt;b&gt;UHY14132.1&lt;/b&gt;&lt;br&gt;methylmalonyl-CoA mutase&lt;br&gt;Location: 68324 - 70258&lt;br&gt;&lt;br&gt;&lt;b&gt;BlastP hit with HS041_18790&lt;/b&gt;&lt;br&gt;Percentage identity: 49&lt;br&gt;Percentage coverage: 101&lt;br&gt;BLAST bit score: 481&lt;br&gt;E-value: 1.86e-162" locus_tag="UHY14132.1" class="clusterblast-orf" id="dummy-5_h5_1_23"  />
</g>
<g id="a5_0024"  >
<polygon points="685,90 701,90 706,85 701,80 685,80 685,90 " style="fill:#15d863; stroke-width:1; stroke:black; " description="&lt;b&gt;UHY14133.1&lt;/b&gt;&lt;br&gt;methylmalonyl-CoA mutase&lt;br&gt;Location: 70255 - 72426&lt;br&gt;&lt;br&gt;&lt;b&gt;BlastP hit with HS041_18795&lt;/b&gt;&lt;br&gt;Percentage identity: 75&lt;br&gt;Percentage coverage: 100&lt;br&gt;BLAST bit score: 1046&lt;br&gt;E-value: 0.0" locus_tag="UHY14133.1" class="clusterblast-orf" id="dummy-5_h5_1_24"  />
</g>
<g id="a5_0025"  >
<polygon points="706,90 711,90 716,85 711,80 706,80 706,90 " style="fill:#1563d8; stroke-width:1; stroke:black; " description="&lt;b&gt;UHY14134.1&lt;/b&gt;&lt;br&gt;methylmalonyl-CoA mutase-associated GTPase&lt;br&gt;Location: 72429 - 73460&lt;br&gt;&lt;br&gt;&lt;b&gt;BlastP hit with HS041_18800&lt;/b&gt;&lt;br&gt;Percentage identity: 55&lt;br&gt;Percentage coverage: 98&lt;br&gt;BLAST bit score: 299&lt;br&gt;E-value: 2.23e-100" locus_tag="UHY14134.1" class="clusterblast-orf" id="dummy-5_h5_1_25"  />
</g>
<g id="a5_0026"  >
<polygon points="718,90 725,90 730,85 725,80 718,80 718,90 " style="fill:white; stroke-width:1; stroke:black; " description="&lt;b&gt;UHY14135.1&lt;/b&gt;&lt;br&gt;propionyl CoA carboxylase&lt;br&gt;Location: 73594 - 74895" locus_tag="UHY14135.1" class="clusterblast-orf" id="dummy-5_h5_1_26"  />
</g>
<g id="a5_0027"  >
<polygon points="731,85 736,80 747,80 747,90 736,90 731,85 " style="fill:white; stroke-width:1; stroke:black; " description="&lt;b&gt;UHY14146.1&lt;/b&gt;&lt;br&gt;PQQ-dependent enzyme&lt;br&gt;Location: 74974 - 76617" locus_tag="UHY14146.1" class="clusterblast-orf" id="dummy-5_h5_1_27"  />
</g>
<g id="a5_0028"  >
<polygon points="748,85 753,80 754,80 754,90 753,90 748,85 " style="fill:white; stroke-width:1; stroke:black; " description="&lt;b&gt;UHY14147.1&lt;/b&gt;&lt;br&gt;hypothetical protein&lt;br&gt;Location: 76757 - 77281" locus_tag="UHY14147.1" class="clusterblast-orf" id="dummy-5_h5_1_28"  />
</g>
<g id="a5_0029"  >
<polygon points="755,85 758,80 758,90 755,85 " style="fill:white; stroke-width:1; stroke:black; " description="&lt;b&gt;UHY14148.1&lt;/b&gt;&lt;br&gt;DoxX family protein&lt;br&gt;Location: 77401 - 77778" locus_tag="UHY14148.1" class="clusterblast-orf" id="dummy-5_h5_1_29"  />
</g>
<g id="a5_0030"  >
<polygon points="760,85 765,80 767,80 767,90 765,90 760,85 " style="fill:white; stroke-width:1; stroke:black; " description="&lt;b&gt;UHY14138.1&lt;/b&gt;&lt;br&gt;enoyl-CoA hydratase/isomerase&lt;br&gt;Location: 77898 - 78704" locus_tag="UHY14138.1" class="clusterblast-orf" id="dummy-5_h5_1_30"  />
</g>
<g id="a5_0031"  >
<polygon points="771,90 772,90 777,85 772,80 771,80 771,90 " style="fill:white; stroke-width:1; stroke:black; " description="&lt;b&gt;UHY14136.1&lt;/b&gt;&lt;br&gt;hypothetical protein&lt;br&gt;Location: 79095 - 79718" locus_tag="UHY14136.1" class="clusterblast-orf" id="dummy-5_h5_1_31"  />
</g>
<g id="a5_0032"  >
<polygon points="778,90 780,85 778,80 778,90 " style="fill:white; stroke-width:1; stroke:black; " description="&lt;b&gt;UHY14137.1&lt;/b&gt;&lt;br&gt;hypothetical protein&lt;br&gt;Location: 79734 - 79937" locus_tag="UHY14137.1" class="clusterblast-orf" id="dummy-5_h5_1_32"  />
</g>
</svg>
