<svg xmlns="http://www.w3.org/2000/svg" xmlns:xlink="http://www.w3.org/1999/xlink" version="1.1" x="0" y="0" height="230" width="800" viewBox="0 0 800 230" preserveAspectRatio="none"  >
<g label="Query sequence" class="clusterblast-cluster"  >
<text x="5" y="20" class="clusterblast-acc"  >
Query sequence</text>
<line x1="10" y1="35" x2="778.0" y2="35" style="stroke-width:1; stroke:grey; "  />
<polygon points="0,40 4,40 9,35 4,30 0,30 0,40 " style="fill:white; stroke-width:1; stroke:black; " description="&lt;b&gt;HS041_20395&lt;/b&gt;&lt;br&gt;TauD/TfdA family dioxygenase&lt;br&gt;Location: 1729688 - 1730642" locus_tag="HS041_20395" class="clusterblast-orf" id="dummy-6_q0_0_all"  />
<polygon points="9,40 12,40 17,35 12,30 9,30 9,40 " style="fill:white; stroke-width:1; stroke:black; " description="&lt;b&gt;HS041_20400&lt;/b&gt;&lt;br&gt;class I SAM-dependent methyltransferase&lt;br&gt;Location: 1730641 - 1731364" locus_tag="HS041_20400" class="clusterblast-orf" id="dummy-6_q1_0_all"  />
<polygon points="18,35 23,30 23,30 23,40 23,40 18,35 " style="fill:white; stroke-width:1; stroke:black; " description="&lt;b&gt;HS041_20405&lt;/b&gt;&lt;br&gt;VOC family protein&lt;br&gt;Location: 1731493 - 1731979" locus_tag="HS041_20405" class="clusterblast-orf" id="dummy-6_q2_0_all"  />
<polygon points="25,35 30,30 37,30 37,40 30,40 25,35 " style="fill:white; stroke-width:1; stroke:black; " description="&lt;b&gt;HS041_20410&lt;/b&gt;&lt;br&gt;DNA polymerase III subunit epsilon&lt;br&gt;Location: 1732159 - 1733377" locus_tag="HS041_20410" class="clusterblast-orf" id="dummy-6_q3_0_all"  />
<polygon points="39,35 44,30 44,30 44,40 44,40 39,35 " style="fill:white; stroke-width:1; stroke:black; " description="&lt;b&gt;HS041_20415&lt;/b&gt;&lt;br&gt;hypothetical protein&lt;br&gt;Location: 1733520 - 1733976" locus_tag="HS041_20415" class="clusterblast-orf" id="dummy-6_q4_0_all"  />
<polygon points="44,35 49,30 50,30 50,40 49,40 44,35 " style="fill:white; stroke-width:1; stroke:black; " description="&lt;b&gt;HS041_20420&lt;/b&gt;&lt;br&gt;DUF2867 domain-containing protein&lt;br&gt;Location: 1733972 - 1734590" locus_tag="HS041_20420" class="clusterblast-orf" id="dummy-6_q5_0_all"  />
<polygon points="50,35 55,30 70,30 70,40 55,40 50,35 " style="fill:white; stroke-width:1; stroke:black; " description="&lt;b&gt;HS041_20425&lt;/b&gt;&lt;br&gt;fumarylacetoacetate hydrolase family protein&lt;br&gt;Location: 1734586 - 1736518" locus_tag="HS041_20425" class="clusterblast-orf" id="dummy-6_q6_0_all"  />
<polygon points="71,40 71,40 76,35 71,30 71,30 71,40 " style="fill:white; stroke-width:1; stroke:black; " description="&lt;b&gt;HS041_20430&lt;/b&gt;&lt;br&gt;TetR/AcrR family transcriptional regulator&lt;br&gt;Location: 1736608 - 1737181" locus_tag="HS041_20430" class="clusterblast-orf" id="dummy-6_q7_0_all"  />
<polygon points="79,40 86,40 91,35 86,30 79,30 79,40 " style="fill:white; stroke-width:1; stroke:black; " description="&lt;b&gt;HS041_20435&lt;/b&gt;&lt;br&gt;hypothetical protein&lt;br&gt;Location: 1737401 - 1738622" locus_tag="HS041_20435" class="clusterblast-orf" id="dummy-6_q8_0_all"  />
<polygon points="91,35 96,30 97,30 97,40 96,40 91,35 " style="fill:white; stroke-width:1; stroke:black; " description="&lt;b&gt;HS041_20440&lt;/b&gt;&lt;br&gt;response regulator transcription factor&lt;br&gt;Location: 1738596 - 1739223" locus_tag="HS041_20440" class="clusterblast-orf" id="dummy-6_q9_0_all"  />
<polygon points="99,40 100,35 99,30 99,40 " style="fill:white; stroke-width:1; stroke:black; " description="&lt;b&gt;HS041_20445&lt;/b&gt;&lt;br&gt;hypothetical protein&lt;br&gt;Location: 1739331 - 1739520" locus_tag="HS041_20445" class="clusterblast-orf" id="dummy-6_q10_0_all"  />
<polygon points="101,40 125,40 130,35 125,30 101,30 101,40 " style="fill:white; stroke-width:1; stroke:black; " description="&lt;b&gt;HS041_20450&lt;/b&gt;&lt;br&gt;type 2 lantipeptide synthetase LanM&lt;br&gt;Location: 1739535 - 1742373" locus_tag="HS041_20450" class="clusterblast-orf" id="dummy-6_q11_0_all"  />
<polygon points="130,40 144,40 149,35 144,30 130,30 130,40 " style="fill:white; stroke-width:1; stroke:black; " description="&lt;b&gt;HS041_20455&lt;/b&gt;&lt;br&gt;ATP-binding cassette domain-containing protein&lt;br&gt;Location: 1742369 - 1744238" locus_tag="HS041_20455" class="clusterblast-orf" id="dummy-6_q12_0_all"  />
<polygon points="149,40 158,40 163,35 158,30 149,30 149,40 " style="fill:white; stroke-width:1; stroke:black; " description="&lt;b&gt;HS041_20460&lt;/b&gt;&lt;br&gt;FAD-binding oxidoreductase&lt;br&gt;Location: 1744234 - 1745578" locus_tag="HS041_20460" class="clusterblast-orf" id="dummy-6_q13_0_all"  />
<polygon points="163,35 168,30 188,30 188,40 168,40 163,35 " style="fill:white; stroke-width:1; stroke:black; " description="&lt;b&gt;HS041_20465&lt;/b&gt;&lt;br&gt;GGDEF domain-containing protein&lt;br&gt;Location: 1745651 - 1748024" locus_tag="HS041_20465" class="clusterblast-orf" id="dummy-6_q14_0_all"  />
<polygon points="190,35 195,30 197,30 197,40 195,40 190,35 " style="fill:white; stroke-width:1; stroke:black; " description="&lt;b&gt;HS041_20470&lt;/b&gt;&lt;br&gt;CoA pyrophosphatase&lt;br&gt;Location: 1748268 - 1748895" locus_tag="HS041_20470" class="clusterblast-orf" id="dummy-6_q15_0_all"  />
<polygon points="197,35 202,30 203,30 203,40 202,40 197,35 " style="fill:white; stroke-width:1; stroke:black; " description="&lt;b&gt;HS041_20475&lt;/b&gt;&lt;br&gt;STAS domain-containing protein&lt;br&gt;Location: 1748915 - 1749554" locus_tag="HS041_20475" class="clusterblast-orf" id="dummy-6_q16_0_all"  />
<polygon points="206,40 208,40 213,35 208,30 206,30 206,40 " style="fill:white; stroke-width:1; stroke:black; " description="&lt;b&gt;HS041_20480&lt;/b&gt;&lt;br&gt;NAD(P)H-dependent oxidoreductase&lt;br&gt;Location: 1749811 - 1750492" locus_tag="HS041_20480" class="clusterblast-orf" id="dummy-6_q17_0_all"  />
<polygon points="214,35 219,30 220,30 220,40 219,40 214,35 " style="fill:white; stroke-width:1; stroke:black; " description="&lt;b&gt;HS041_20485&lt;/b&gt;&lt;br&gt;phospholipase&lt;br&gt;Location: 1750556 - 1751165" locus_tag="HS041_20485" class="clusterblast-orf" id="dummy-6_q18_0_all"  />
<polygon points="224,40 229,40 234,35 229,30 224,30 224,40 " style="fill:white; stroke-width:1; stroke:black; " description="&lt;b&gt;HS041_20490&lt;/b&gt;&lt;br&gt;zinc-binding dehydrogenase&lt;br&gt;Location: 1751552 - 1752551" locus_tag="HS041_20490" class="clusterblast-orf" id="dummy-6_q19_0_all"  />
<polygon points="236,35 241,30 251,30 251,40 241,40 236,35 " style="fill:white; stroke-width:1; stroke:black; " description="&lt;b&gt;HS041_20495&lt;/b&gt;&lt;br&gt;AMP-binding protein&lt;br&gt;Location: 1752706 - 1754179" locus_tag="HS041_20495" class="clusterblast-orf" id="dummy-6_q20_0_all"  />
<polygon points="252,35 257,30 270,30 270,40 257,40 252,35 " style="fill:white; stroke-width:1; stroke:black; " description="&lt;b&gt;HS041_20500&lt;/b&gt;&lt;br&gt;carotenoid oxygenase family protein&lt;br&gt;Location: 1754328 - 1756005" locus_tag="HS041_20500" class="clusterblast-orf" id="dummy-6_q21_0_all"  />
<polygon points="271,35 276,30 279,30 279,40 276,40 271,35 " style="fill:white; stroke-width:1; stroke:black; " description="&lt;b&gt;HS041_20505&lt;/b&gt;&lt;br&gt;methyltransferase domain-containing protein&lt;br&gt;Location: 1756188 - 1756875" locus_tag="HS041_20505" class="clusterblast-orf" id="dummy-6_q22_0_all"  />
<polygon points="280,35 285,30 287,30 287,40 285,40 280,35 " style="fill:white; stroke-width:1; stroke:black; " description="&lt;b&gt;HS041_20510&lt;/b&gt;&lt;br&gt;DUF305 domain-containing protein&lt;br&gt;Location: 1757059 - 1757677" locus_tag="HS041_20510" class="clusterblast-orf" id="dummy-6_q23_0_all"  />
<polygon points="288,35 292,30 292,40 288,35 " style="fill:white; stroke-width:1; stroke:black; " description="&lt;b&gt;HS041_20515&lt;/b&gt;&lt;br&gt;hypothetical protein&lt;br&gt;Location: 1757767 - 1758202" locus_tag="HS041_20515" class="clusterblast-orf" id="dummy-6_q24_0_all"  />
<polygon points="293,35 298,30 306,30 306,40 298,40 293,35 " style="fill:white; stroke-width:1; stroke:black; " description="&lt;b&gt;HS041_20520&lt;/b&gt;&lt;br&gt;YibE/F family protein&lt;br&gt;Location: 1758292 - 1759558" locus_tag="HS041_20520" class="clusterblast-orf" id="dummy-6_q25_0_all"  />
<polygon points="314,40 324,40 329,35 324,30 314,30 314,40 " style="fill:white; stroke-width:1; stroke:black; " description="&lt;b&gt;HS041_20525&lt;/b&gt;&lt;br&gt;vanadium-dependent haloperoxidase&lt;br&gt;Location: 1760291 - 1761782" locus_tag="HS041_20525" class="clusterblast-orf" id="dummy-6_q26_0_all"  />
<polygon points="329,35 334,30 342,30 342,40 334,40 329,35 " style="fill:white; stroke-width:1; stroke:black; " description="&lt;b&gt;HS041_20530&lt;/b&gt;&lt;br&gt;YncE family protein&lt;br&gt;Location: 1761824 - 1763081" locus_tag="HS041_20530" class="clusterblast-orf" id="dummy-6_q27_0_all"  />
<polygon points="345,40 347,40 352,35 347,30 345,30 345,40 " style="fill:white; stroke-width:1; stroke:black; " description="&lt;b&gt;HS041_20535&lt;/b&gt;&lt;br&gt;TetR/AcrR family transcriptional regulator&lt;br&gt;Location: 1763361 - 1764054" locus_tag="HS041_20535" class="clusterblast-orf" id="dummy-6_q28_0_all"  />
<polygon points="354,35 359,30 364,30 364,40 359,40 354,35 " style="fill:#d81515; stroke-width:1; stroke:black; " description="&lt;b&gt;HS041_20540&lt;/b&gt;&lt;br&gt;methionyl-tRNA formyltransferase&lt;br&gt;Location: 1764235 - 1765183" locus_tag="HS041_20540" class="clusterblast-orf" id="dummy-6_q29_0_all"  />
<polygon points="365,40 374,40 379,35 374,30 365,30 365,40 " style="fill:#15d815; stroke-width:1; stroke:black; " description="&lt;b&gt;HS041_20545&lt;/b&gt;&lt;br&gt;lysine N(6)-hydroxylase/L-ornithine N(5)-oxygenase family protein&lt;br&gt;Location: 1765349 - 1766666" locus_tag="HS041_20545" class="clusterblast-orf" id="dummy-6_q30_0_all"  />
<polygon points="380,35 385,30 391,30 391,40 385,40 380,35 " style="fill:#1597d8; stroke-width:1; stroke:black; " description="&lt;b&gt;HS041_20550&lt;/b&gt;&lt;br&gt;iron chelate uptake ABC transporter family permease subunit&lt;br&gt;Location: 1766755 - 1767823" locus_tag="HS041_20550" class="clusterblast-orf" id="dummy-6_q31_0_all"  />
<polygon points="391,35 396,30 402,30 402,40 396,40 391,35 " style="fill:#9715d8; stroke-width:1; stroke:black; " description="&lt;b&gt;HS041_20555&lt;/b&gt;&lt;br&gt;iron ABC transporter permease&lt;br&gt;Location: 1767826 - 1768951" locus_tag="HS041_20555" class="clusterblast-orf" id="dummy-6_q32_0_all"  />
<polygon points="404,40 410,40 415,35 410,30 404,30 404,40 " style="fill:#d89715; stroke-width:1; stroke:black; " description="&lt;b&gt;HS041_20560&lt;/b&gt;&lt;br&gt;iron-siderophore ABC transporter substrate-binding protein&lt;br&gt;Location: 1769132 - 1770185" locus_tag="HS041_20560" class="clusterblast-orf" id="dummy-6_q33_0_all"  />
<polygon points="416,40 573,40 578,35 573,30 416,30 416,40 " style="fill:#15d897; stroke-width:1; stroke:black; " description="&lt;b&gt;HS041_20565&lt;/b&gt;&lt;br&gt;amino acid adenylation domain-containing protein&lt;br&gt;Location: 1770237 - 1786044" locus_tag="HS041_20565" class="clusterblast-orf" id="dummy-6_q34_0_all"  />
<polygon points="578,40 580,35 578,30 578,40 " style="fill:#1515d8; stroke-width:1; stroke:black; " description="&lt;b&gt;HS041_20570&lt;/b&gt;&lt;br&gt;MbtH family protein&lt;br&gt;Location: 1786040 - 1786262" locus_tag="HS041_20570" class="clusterblast-orf" id="dummy-6_q35_0_all"  />
<polygon points="581,35 586,30 600,30 600,40 586,40 581,35 " style="fill:#d81597; stroke-width:1; stroke:black; " description="&lt;b&gt;HS041_20575&lt;/b&gt;&lt;br&gt;ABC transporter ATP-binding protein&lt;br&gt;Location: 1786401 - 1788213" locus_tag="HS041_20575" class="clusterblast-orf" id="dummy-6_q36_0_all"  />
<polygon points="600,35 605,30 618,30 618,40 605,40 600,35 " style="fill:#97d815; stroke-width:1; stroke:black; " description="&lt;b&gt;HS041_20580&lt;/b&gt;&lt;br&gt;ABC transporter ATP-binding protein&lt;br&gt;Location: 1788252 - 1789947" locus_tag="HS041_20580" class="clusterblast-orf" id="dummy-6_q37_0_all"  />
<polygon points="618,35 623,30 626,30 626,40 623,40 618,35 " style="fill:white; stroke-width:1; stroke:black; " description="&lt;b&gt;HS041_20585&lt;/b&gt;&lt;br&gt;hypothetical protein&lt;br&gt;Location: 1789962 - 1790706" locus_tag="HS041_20585" class="clusterblast-orf" id="dummy-6_q38_0_all"  />
<polygon points="626,40 628,35 626,30 626,40 " style="fill:white; stroke-width:1; stroke:black; " description="&lt;b&gt;HS041_20590&lt;/b&gt;&lt;br&gt;heavy-metal-associated domain-containing protein&lt;br&gt;Location: 1790761 - 1790923" locus_tag="HS041_20590" class="clusterblast-orf" id="dummy-6_q39_0_all"  />
<polygon points="629,35 634,30 634,30 634,40 634,40 629,35 " style="fill:white; stroke-width:1; stroke:black; " description="&lt;b&gt;HS041_20595&lt;/b&gt;&lt;br&gt;MFS transporter&lt;br&gt;Location: 1791011 - 1791494" locus_tag="HS041_20595" class="clusterblast-orf" id="dummy-6_q40_0_all"  />
<polygon points="636,40 636,40 641,35 636,30 636,30 636,40 " style="fill:white; stroke-width:1; stroke:black; " description="&lt;b&gt;HS041_20600&lt;/b&gt;&lt;br&gt;hypothetical protein&lt;br&gt;Location: 1791686 - 1792226" locus_tag="HS041_20600" class="clusterblast-orf" id="dummy-6_q41_0_all"  />
<polygon points="643,40 648,40 653,35 648,30 643,30 643,40 " style="fill:white; stroke-width:1; stroke:black; " description="&lt;b&gt;HS041_20605&lt;/b&gt;&lt;br&gt;IS5 family transposase&lt;br&gt;Location: 1792405 - 1793418" locus_tag="HS041_20605" class="clusterblast-orf" id="dummy-6_q42_0_all"  />
<polygon points="654,40 655,40 660,35 655,30 654,30 654,40 " style="fill:white; stroke-width:1; stroke:black; " description="&lt;b&gt;HS041_20610&lt;/b&gt;&lt;br&gt;hypothetical protein&lt;br&gt;Location: 1793451 - 1794024" locus_tag="HS041_20610" class="clusterblast-orf" id="dummy-6_q43_0_all"  />
<polygon points="662,35 667,30 671,30 671,40 667,40 662,35 " style="fill:white; stroke-width:1; stroke:black; " description="&lt;b&gt;HS041_20615&lt;/b&gt;&lt;br&gt;LysR family transcriptional regulator&lt;br&gt;Location: 1794225 - 1795140" locus_tag="HS041_20615" class="clusterblast-orf" id="dummy-6_q44_0_all"  />
<polygon points="673,35 678,30 682,30 682,40 678,40 673,35 " style="fill:white; stroke-width:1; stroke:black; " description="&lt;b&gt;HS041_20620&lt;/b&gt;&lt;br&gt;fumarylacetoacetate hydrolase family protein&lt;br&gt;Location: 1795301 - 1796237" locus_tag="HS041_20620" class="clusterblast-orf" id="dummy-6_q45_0_all"  />
<polygon points="682,35 687,30 692,30 692,40 687,40 682,35 " style="fill:white; stroke-width:1; stroke:black; " description="&lt;b&gt;HS041_20625&lt;/b&gt;&lt;br&gt;VOC family protein&lt;br&gt;Location: 1796244 - 1797180" locus_tag="HS041_20625" class="clusterblast-orf" id="dummy-6_q46_0_all"  />
<polygon points="692,35 697,30 702,30 702,40 697,40 692,35 " style="fill:white; stroke-width:1; stroke:black; " description="&lt;b&gt;HS041_20630&lt;/b&gt;&lt;br&gt;amidohydrolase&lt;br&gt;Location: 1797181 - 1798189" locus_tag="HS041_20630" class="clusterblast-orf" id="dummy-6_q47_0_all"  />
<polygon points="702,35 707,30 714,30 714,40 707,40 702,35 " style="fill:white; stroke-width:1; stroke:black; " description="&lt;b&gt;HS041_20635&lt;/b&gt;&lt;br&gt;FAD-dependent oxidoreductase&lt;br&gt;Location: 1798185 - 1799313" locus_tag="HS041_20635" class="clusterblast-orf" id="dummy-6_q48_0_all"  />
<polygon points="714,35 719,30 724,30 724,40 719,40 714,35 " style="fill:white; stroke-width:1; stroke:black; " description="&lt;b&gt;HS041_20640&lt;/b&gt;&lt;br&gt;cyclase family protein&lt;br&gt;Location: 1799320 - 1800283" locus_tag="HS041_20640" class="clusterblast-orf" id="dummy-6_q49_0_all"  />
<polygon points="724,35 729,30 734,30 734,40 729,40 724,35 " style="fill:white; stroke-width:1; stroke:black; " description="&lt;b&gt;HS041_20645&lt;/b&gt;&lt;br&gt;fumarylacetoacetate hydrolase family protein&lt;br&gt;Location: 1800279 - 1801272" locus_tag="HS041_20645" class="clusterblast-orf" id="dummy-6_q50_0_all"  />
<polygon points="736,35 741,30 743,30 743,40 741,40 736,35 " style="fill:white; stroke-width:1; stroke:black; " description="&lt;b&gt;HS041_20650&lt;/b&gt;&lt;br&gt;HAD-IA family hydrolase&lt;br&gt;Location: 1801514 - 1802141" locus_tag="HS041_20650" class="clusterblast-orf" id="dummy-6_q51_0_all"  />
<polygon points="746,40 752,40 757,35 752,30 746,30 746,40 " style="fill:white; stroke-width:1; stroke:black; " description="&lt;b&gt;HS041_20655&lt;/b&gt;&lt;br&gt;FAD-dependent oxidoreductase&lt;br&gt;Location: 1802438 - 1803545" locus_tag="HS041_20655" class="clusterblast-orf" id="dummy-6_q52_0_all"  />
<polygon points="758,35 763,30 763,30 763,40 763,40 758,35 " style="fill:white; stroke-width:1; stroke:black; " description="&lt;b&gt;HS041_20660&lt;/b&gt;&lt;br&gt;MarR family transcriptional regulator&lt;br&gt;Location: 1803586 - 1804066" locus_tag="HS041_20660" class="clusterblast-orf" id="dummy-6_q53_0_all"  />
<polygon points="763,40 768,40 773,35 768,30 763,30 763,40 " style="fill:white; stroke-width:1; stroke:black; " description="&lt;b&gt;HS041_20665&lt;/b&gt;&lt;br&gt;LLM class flavin-dependent oxidoreductase&lt;br&gt;Location: 1804125 - 1805040" locus_tag="HS041_20665" class="clusterblast-orf" id="dummy-6_q54_0_all"  />
<polygon points="773,35 778,30 780,30 780,40 778,40 773,35 " style="fill:white; stroke-width:1; stroke:black; " description="&lt;b&gt;HS041_20670&lt;/b&gt;&lt;br&gt;hypothetical protein&lt;br&gt;Location: 1805114 - 1805717" locus_tag="HS041_20670" class="clusterblast-orf" id="dummy-6_q55_0_all"  />
</g>
<g label="BGC0000325" description="BGC0000325_c1: coelichelin (36% of genes show similarity), NRP" class="clusterblast-cluster"  >
<text x="5" y="70" class="clusterblast-acc"  >
<a xlink:href="https://mibig.secondarymetabolites.org/go/BGC0000325/1" target="_blank">BGC0000325</a>: coelichelin                                                                      (36% of genes show similarity), NRP</text>
<line x1="10" y1="85" x2="778.0" y2="85" style="stroke-width:1; stroke:grey; "  />
</g>
<g id="a6_000"  >
<polygon points="273,85 278,80 283,80 283,90 278,90 273,85 " style="fill:#d81515; stroke-width:1; stroke:black; " description="&lt;b&gt;CAB53329.1&lt;/b&gt;&lt;br&gt;putative formyltransferase&lt;br&gt;Location: 22626 - 21679&lt;br&gt;&lt;br&gt;&lt;b&gt;BlastP hit with HS041_20540&lt;/b&gt;&lt;br&gt;Percentage identity: 78&lt;br&gt;Percentage coverage: 99&lt;br&gt;BLAST bit score: 509&lt;br&gt;E-value: 1.03e-183" locus_tag="CAB53329.1" class="clusterblast-orf" id="dummy-6_h6_10_0"  />
</g>
<g id="a6_001"  >
<polygon points="285,90 294,90 299,85 294,80 285,80 285,90 " style="fill:#15d815; stroke-width:1; stroke:black; " description="&lt;b&gt;CAB53328.1&lt;/b&gt;&lt;br&gt;putative peptide monooxygenase&lt;br&gt;Location: 21503 - 20148&lt;br&gt;&lt;br&gt;&lt;b&gt;BlastP hit with HS041_20545&lt;/b&gt;&lt;br&gt;Percentage identity: 64&lt;br&gt;Percentage coverage: 96&lt;br&gt;BLAST bit score: 536&lt;br&gt;E-value: 3.56e-190" locus_tag="CAB53328.1" class="clusterblast-orf" id="dummy-6_h6_10_1"  />
</g>
<g id="a6_002"  >
<polygon points="299,90 305,90 310,85 305,80 299,80 299,90 " style="fill:#9715d8; stroke-width:1; stroke:black; " description="&lt;b&gt;CAB53327.1&lt;/b&gt;&lt;br&gt;putative iron-siderophore permease transmembrane protein&lt;br&gt;Location: 20148 - 19072&lt;br&gt;&lt;br&gt;&lt;b&gt;BlastP hit with HS041_20555&lt;/b&gt;&lt;br&gt;Percentage identity: 47&lt;br&gt;Percentage coverage: 90&lt;br&gt;BLAST bit score: 257&lt;br&gt;E-value: 7.72e-83" locus_tag="CAB53327.1" class="clusterblast-orf" id="dummy-6_h6_10_2"  />
</g>
<g id="a6_003"  >
<polygon points="310,90 316,90 321,85 316,80 310,80 310,90 " style="fill:white; stroke-width:1; stroke:black; " description="&lt;b&gt;CAB53326.1&lt;/b&gt;&lt;br&gt;putative iron-siderophore permease transmembrane protein&lt;br&gt;Location: 19075 - 17969" locus_tag="CAB53326.1" class="clusterblast-orf" id="dummy-6_h6_10_3"  />
</g>
<g id="a6_004"  >
<polygon points="322,90 325,90 330,85 325,80 322,80 322,90 " style="fill:white; stroke-width:1; stroke:black; " description="&lt;b&gt;CAB53325.1&lt;/b&gt;&lt;br&gt;putative iron-siderophore ABC-transporter ATP-binding protein&lt;br&gt;Location: 17930 - 17067" locus_tag="CAB53325.1" class="clusterblast-orf" id="dummy-6_h6_10_4"  />
</g>
<g id="a6_005"  >
<polygon points="331,90 337,90 342,85 337,80 331,80 331,90 " style="fill:white; stroke-width:1; stroke:black; " description="&lt;b&gt;CAB53324.1&lt;/b&gt;&lt;br&gt;putative iron-siderophore binding lipoprotein&lt;br&gt;Location: 17016 - 15964" locus_tag="CAB53324.1" class="clusterblast-orf" id="dummy-6_h6_10_5"  />
</g>
<g id="a6_006"  >
<polygon points="342,90 355,90 360,85 355,80 342,80 342,90 " style="fill:white; stroke-width:1; stroke:black; " description="&lt;b&gt;CAB53323.1&lt;/b&gt;&lt;br&gt;putative ABC-transporter transmembrane protein&lt;br&gt;Location: 15961 - 14156" locus_tag="CAB53323.1" class="clusterblast-orf" id="dummy-6_h6_10_6"  />
</g>
<g id="a6_007"  >
<polygon points="361,90 468,90 473,85 468,80 361,80 361,90 " style="fill:white; stroke-width:1; stroke:black; " description="&lt;b&gt;CAB53322.1&lt;/b&gt;&lt;br&gt;putative peptide synthetase&lt;br&gt;Location: 14098 - 3167" locus_tag="CAB53322.1" class="clusterblast-orf" id="dummy-6_h6_10_7"  />
</g>
<g id="a6_008"  >
<polygon points="474,90 485,90 490,85 485,80 474,80 474,90 " style="fill:white; stroke-width:1; stroke:black; " description="&lt;b&gt;CAB53321.1&lt;/b&gt;&lt;br&gt;putative ABC transporter transmembrane protein&lt;br&gt;Location: 3102 - 1480" locus_tag="CAB53321.1" class="clusterblast-orf" id="dummy-6_h6_10_8"  />
</g>
<g id="a6_009"  >
<polygon points="491,85 496,80 502,80 502,90 496,90 491,85 " style="fill:white; stroke-width:1; stroke:black; " description="&lt;b&gt;CAB53320.1&lt;/b&gt;&lt;br&gt;putative esterase&lt;br&gt;Location: 1393 - 302" locus_tag="CAB53320.1" class="clusterblast-orf" id="dummy-6_h6_10_9"  />
</g>
<g id="a6_0010"  >
<polygon points="503,90 506,85 503,80 503,90 " style="fill:#1515d8; stroke-width:1; stroke:black; " description="&lt;b&gt;CAB53319.1&lt;/b&gt;&lt;br&gt;conserved hypothetical protein&lt;br&gt;Location: 213 - 1&lt;br&gt;&lt;br&gt;&lt;b&gt;BlastP hit with HS041_20570&lt;/b&gt;&lt;br&gt;Percentage identity: 77&lt;br&gt;Percentage coverage: 89&lt;br&gt;BLAST bit score: 114&lt;br&gt;E-value: 4.75e-35" locus_tag="CAB53319.1" class="clusterblast-orf" id="dummy-6_h6_10_10"  />
</g>
</svg>
