<svg xmlns="http://www.w3.org/2000/svg" xmlns:xlink="http://www.w3.org/1999/xlink" version="1.1" x="0" y="0" height="230" width="800" viewBox="0 0 800 230" preserveAspectRatio="none"  >
<g label="Query sequence" class="clusterblast-cluster"  >
<text x="5" y="20" class="clusterblast-acc"  >
Query sequence</text>
<line x1="10" y1="35" x2="778.0" y2="35" style="stroke-width:1; stroke:grey; "  />
<polygon points="238,35 243,30 243,30 243,40 243,40 238,35 " style="fill:white; stroke-width:1; stroke:black; " description="&lt;b&gt;HS041_27805&lt;/b&gt;&lt;br&gt;response regulator&lt;br&gt;Location: 245383 - 246052" locus_tag="HS041_27805" class="clusterblast-orf" id="dummy-2_q0_0_all"  />
<polygon points="243,35 248,30 263,30 263,40 248,40 243,35 " style="fill:white; stroke-width:1; stroke:black; " description="&lt;b&gt;HS041_27810&lt;/b&gt;&lt;br&gt;sensor histidine kinase KdpD&lt;br&gt;Location: 246048 - 248610" locus_tag="HS041_27810" class="clusterblast-orf" id="dummy-2_q1_0_all"  />
<polygon points="267,35 272,30 273,30 273,40 272,40 267,35 " style="fill:white; stroke-width:1; stroke:black; " description="&lt;b&gt;HS041_27815&lt;/b&gt;&lt;br&gt;DUF4259 domain-containing protein&lt;br&gt;Location: 249100 - 249919" locus_tag="HS041_27815" class="clusterblast-orf" id="dummy-2_q2_0_all"  />
<polygon points="275,40 279,35 275,30 275,40 " style="fill:white; stroke-width:1; stroke:black; " description="&lt;b&gt;HS041_27820&lt;/b&gt;&lt;br&gt;recombinase family protein&lt;br&gt;Location: 250121 - 250718" locus_tag="HS041_27820" class="clusterblast-orf" id="dummy-2_q3_0_all"  />
<polygon points="279,40 281,40 286,35 281,30 279,30 279,40 " style="fill:white; stroke-width:1; stroke:black; " description="&lt;b&gt;HS041_27825&lt;/b&gt;&lt;br&gt;hypothetical protein&lt;br&gt;Location: 250714 - 251635" locus_tag="HS041_27825" class="clusterblast-orf" id="dummy-2_q4_0_all"  />
<polygon points="286,40 288,35 286,30 286,40 " style="fill:white; stroke-width:1; stroke:black; " description="&lt;b&gt;HS041_27830&lt;/b&gt;&lt;br&gt;hypothetical protein&lt;br&gt;Location: 251627 - 251816" locus_tag="HS041_27830" class="clusterblast-orf" id="dummy-2_q5_0_all"  />
<polygon points="289,35 291,30 291,40 289,35 " style="fill:white; stroke-width:1; stroke:black; " description="&lt;b&gt;HS041_27835&lt;/b&gt;&lt;br&gt;hypothetical protein&lt;br&gt;Location: 251911 - 252229" locus_tag="HS041_27835" class="clusterblast-orf" id="dummy-2_q6_0_all"  />
<polygon points="292,40 296,40 301,35 296,30 292,30 292,40 " style="fill:white; stroke-width:1; stroke:black; " description="&lt;b&gt;HS041_27840&lt;/b&gt;&lt;br&gt;IS30 family transposase&lt;br&gt;Location: 252389 - 253569" locus_tag="HS041_27840" class="clusterblast-orf" id="dummy-2_q7_0_all"  />
<polygon points="301,35 305,30 305,40 301,35 " style="fill:white; stroke-width:1; stroke:black; " description="&lt;b&gt;HS041_27845&lt;/b&gt;&lt;br&gt;hypothetical protein&lt;br&gt;Location: 253580 - 254021" locus_tag="HS041_27845" class="clusterblast-orf" id="dummy-2_q8_0_all"  />
<polygon points="308,40 308,40 313,35 308,30 308,30 308,40 " style="fill:white; stroke-width:1; stroke:black; " description="&lt;b&gt;HS041_27850&lt;/b&gt;&lt;br&gt;recombinase family protein&lt;br&gt;Location: 254489 - 255065" locus_tag="HS041_27850" class="clusterblast-orf" id="dummy-2_q9_0_all"  />
<polygon points="314,40 317,35 314,30 314,40 " style="fill:white; stroke-width:1; stroke:black; " description="&lt;b&gt;HS041_27855&lt;/b&gt;&lt;br&gt;hypothetical protein&lt;br&gt;Location: 255168 - 255576" locus_tag="HS041_27855" class="clusterblast-orf" id="dummy-2_q10_0_all"  />
<polygon points="317,40 320,40 325,35 320,30 317,30 317,40 " style="fill:white; stroke-width:1; stroke:black; " description="&lt;b&gt;HS041_27860&lt;/b&gt;&lt;br&gt;IS3 family transposase&lt;br&gt;Location: 255590 - 256628" locus_tag="HS041_27860" class="clusterblast-orf" id="dummy-2_q11_0_all"  />
<polygon points="325,35 328,30 328,40 325,35 " style="fill:white; stroke-width:1; stroke:black; " description="&lt;b&gt;HS041_27865&lt;/b&gt;&lt;br&gt;MerR family transcriptional regulator&lt;br&gt;Location: 256664 - 257045" locus_tag="HS041_27865" class="clusterblast-orf" id="dummy-2_q12_0_all"  />
<polygon points="329,40 333,35 329,30 329,40 " style="fill:white; stroke-width:1; stroke:black; " description="&lt;b&gt;HS041_27870&lt;/b&gt;&lt;br&gt;hypothetical protein&lt;br&gt;Location: 257199 - 257730" locus_tag="HS041_27870" class="clusterblast-orf" id="dummy-2_q13_0_all"  />
<polygon points="334,40 337,40 342,35 337,30 334,30 334,40 " style="fill:white; stroke-width:1; stroke:black; " description="&lt;b&gt;HS041_27875&lt;/b&gt;&lt;br&gt;hypothetical protein&lt;br&gt;Location: 257781 - 258864" locus_tag="HS041_27875" class="clusterblast-orf" id="dummy-2_q14_0_all"  />
<polygon points="342,40 345,40 350,35 345,30 342,30 342,40 " style="fill:white; stroke-width:1; stroke:black; " description="&lt;b&gt;HS041_27880&lt;/b&gt;&lt;br&gt;aminoglycoside phosphotransferase family protein&lt;br&gt;Location: 258877 - 259858" locus_tag="HS041_27880" class="clusterblast-orf" id="dummy-2_q15_0_all"  />
<polygon points="350,40 351,40 356,35 351,30 350,30 350,40 " style="fill:white; stroke-width:1; stroke:black; " description="&lt;b&gt;HS041_27885&lt;/b&gt;&lt;br&gt;SDR family oxidoreductase&lt;br&gt;Location: 259854 - 260604" locus_tag="HS041_27885" class="clusterblast-orf" id="dummy-2_q16_0_all"  />
<polygon points="356,40 359,40 364,35 359,30 356,30 356,40 " style="fill:white; stroke-width:1; stroke:black; " description="&lt;b&gt;HS041_27890&lt;/b&gt;&lt;br&gt;aminotransferase class III-fold pyridoxal phosphate-dependent enzyme&lt;br&gt;Location: 260622 - 261627" locus_tag="HS041_27890" class="clusterblast-orf" id="dummy-2_q17_0_all"  />
<polygon points="363,40 366,35 363,30 363,40 " style="fill:white; stroke-width:1; stroke:black; " description="&lt;b&gt;HS041_27895&lt;/b&gt;&lt;br&gt;hypothetical protein&lt;br&gt;Location: 261542 - 261935" locus_tag="HS041_27895" class="clusterblast-orf" id="dummy-2_q18_0_all"  />
<polygon points="366,35 368,30 368,40 366,35 " style="fill:white; stroke-width:1; stroke:black; " description="&lt;b&gt;HS041_27900&lt;/b&gt;&lt;br&gt;NUDIX hydrolase&lt;br&gt;Location: 261946 - 262237" locus_tag="HS041_27900" class="clusterblast-orf" id="dummy-2_q19_0_all"  />
<polygon points="369,35 374,30 377,30 377,40 374,40 369,35 " style="fill:white; stroke-width:1; stroke:black; " description="&lt;b&gt;HS041_27905&lt;/b&gt;&lt;br&gt;LLM class flavin-dependent oxidoreductase&lt;br&gt;Location: 262273 - 263350" locus_tag="HS041_27905" class="clusterblast-orf" id="dummy-2_q20_0_all"  />
<polygon points="378,35 379,30 379,40 378,35 " style="fill:white; stroke-width:1; stroke:black; " description="&lt;b&gt;HS041_27910&lt;/b&gt;&lt;br&gt;DUF2277 domain-containing protein&lt;br&gt;Location: 263456 - 263687" locus_tag="HS041_27910" class="clusterblast-orf" id="dummy-2_q21_0_all"  />
<polygon points="380,40 382,35 380,30 380,40 " style="fill:white; stroke-width:1; stroke:black; " description="&lt;b&gt;HS041_27915&lt;/b&gt;&lt;br&gt;hypothetical protein&lt;br&gt;Location: 263779 - 264034" locus_tag="HS041_27915" class="clusterblast-orf" id="dummy-2_q22_0_all"  />
<polygon points="383,35 388,30 391,30 391,40 388,40 383,35 " style="fill:white; stroke-width:1; stroke:black; " description="&lt;b&gt;HS041_27920&lt;/b&gt;&lt;br&gt;hypothetical protein&lt;br&gt;Location: 264099 - 265164" locus_tag="HS041_27920" class="clusterblast-orf" id="dummy-2_q23_0_all"  />
<polygon points="394,40 396,40 401,35 396,30 394,30 394,40 " style="fill:white; stroke-width:1; stroke:black; " description="&lt;b&gt;HS041_27925&lt;/b&gt;&lt;br&gt;hypothetical protein&lt;br&gt;Location: 265590 - 266523" locus_tag="HS041_27925" class="clusterblast-orf" id="dummy-2_q24_0_all"  />
<polygon points="401,40 401,40 406,35 401,30 401,30 401,40 " style="fill:white; stroke-width:1; stroke:black; " description="&lt;b&gt;HS041_27930&lt;/b&gt;&lt;br&gt;isoprenylcysteine carboxylmethyltransferase family protein&lt;br&gt;Location: 266519 - 267173" locus_tag="HS041_27930" class="clusterblast-orf" id="dummy-2_q25_0_all"  />
<polygon points="406,40 422,40 427,35 422,30 406,30 406,40 " style="fill:white; stroke-width:1; stroke:black; " description="&lt;b&gt;HS041_27935&lt;/b&gt;&lt;br&gt;phosphoenolpyruvate synthase&lt;br&gt;Location: 267172 - 269875" locus_tag="HS041_27935" class="clusterblast-orf" id="dummy-2_q26_0_all"  />
<polygon points="428,40 429,40 434,35 429,30 428,30 428,40 " style="fill:white; stroke-width:1; stroke:black; " description="&lt;b&gt;HS041_27940&lt;/b&gt;&lt;br&gt;hypothetical protein&lt;br&gt;Location: 269919 - 270783" locus_tag="HS041_27940" class="clusterblast-orf" id="dummy-2_q27_0_all"  />
<polygon points="434,40 438,40 443,35 438,30 434,30 434,40 " style="fill:white; stroke-width:1; stroke:black; " description="&lt;b&gt;HS041_27945&lt;/b&gt;&lt;br&gt;cytochrome P450&lt;br&gt;Location: 270779 - 271979" locus_tag="HS041_27945" class="clusterblast-orf" id="dummy-2_q28_0_all"  />
<polygon points="444,40 444,40 449,35 444,30 444,30 444,40 " style="fill:white; stroke-width:1; stroke:black; " description="&lt;b&gt;HS041_27950&lt;/b&gt;&lt;br&gt;nitroreductase family protein&lt;br&gt;Location: 272001 - 272703" locus_tag="HS041_27950" class="clusterblast-orf" id="dummy-2_q29_0_all"  />
<polygon points="454,35 456,30 456,40 454,35 " style="fill:white; stroke-width:1; stroke:black; " description="&lt;b&gt;HS041_27955&lt;/b&gt;&lt;br&gt;hypothetical protein&lt;br&gt;Location: 273323 - 273629" locus_tag="HS041_27955" class="clusterblast-orf" id="dummy-2_q30_0_all"  />
<polygon points="456,35 461,30 461,30 461,40 461,40 456,35 " style="fill:#d81515; stroke-width:1; stroke:black; " description="&lt;b&gt;HS041_27960&lt;/b&gt;&lt;br&gt;3'-5' exonuclease&lt;br&gt;Location: 273622 - 274234" locus_tag="HS041_27960" class="clusterblast-orf" id="dummy-2_q31_0_all"  />
<polygon points="461,35 462,30 462,40 461,35 " style="fill:#15d815; stroke-width:1; stroke:black; " description="&lt;b&gt;HS041_27965&lt;/b&gt;&lt;br&gt;radical SAM protein&lt;br&gt;Location: 274244 - 274418" locus_tag="HS041_27965" class="clusterblast-orf" id="dummy-2_q32_0_all"  />
<polygon points="465,35 470,30 472,30 472,40 470,40 465,35 " style="fill:#1515d8; stroke-width:1; stroke:black; " description="&lt;b&gt;HS041_27970&lt;/b&gt;&lt;br&gt;helix-turn-helix domain-containing protein&lt;br&gt;Location: 274776 - 275628" locus_tag="HS041_27970" class="clusterblast-orf" id="dummy-2_q33_0_all"  />
<polygon points="472,35 476,30 476,40 472,35 " style="fill:#d815d8; stroke-width:1; stroke:black; " description="&lt;b&gt;HS041_27975&lt;/b&gt;&lt;br&gt;hypothetical protein&lt;br&gt;Location: 275641 - 276157" locus_tag="HS041_27975" class="clusterblast-orf" id="dummy-2_q34_0_all"  />
<polygon points="476,35 477,30 477,40 476,35 " style="fill:white; stroke-width:1; stroke:black; " description="&lt;b&gt;HS041_27980&lt;/b&gt;&lt;br&gt;hypothetical protein&lt;br&gt;Location: 276137 - 276365" locus_tag="HS041_27980" class="clusterblast-orf" id="dummy-2_q35_0_all"  />
<polygon points="479,40 480,40 485,35 480,30 479,30 479,40 " style="fill:white; stroke-width:1; stroke:black; " description="&lt;b&gt;HS041_27985&lt;/b&gt;&lt;br&gt;SAM-dependent methyltransferase&lt;br&gt;Location: 276597 - 277350" locus_tag="HS041_27985" class="clusterblast-orf" id="dummy-2_q36_0_all"  />
<polygon points="485,40 488,35 485,30 485,40 " style="fill:white; stroke-width:1; stroke:black; " description="&lt;b&gt;HS041_27990&lt;/b&gt;&lt;br&gt;hypothetical protein&lt;br&gt;Location: 277346 - 277712" locus_tag="HS041_27990" class="clusterblast-orf" id="dummy-2_q37_0_all"  />
<polygon points="488,40 488,40 493,35 488,30 488,30 488,40 " style="fill:white; stroke-width:1; stroke:black; " description="&lt;b&gt;HS041_27995&lt;/b&gt;&lt;br&gt;hypothetical protein&lt;br&gt;Location: 277708 - 278359" locus_tag="HS041_27995" class="clusterblast-orf" id="dummy-2_q38_0_all"  />
<polygon points="495,40 497,35 495,30 495,40 " style="fill:white; stroke-width:1; stroke:black; " description="&lt;b&gt;HS041_28000&lt;/b&gt;&lt;br&gt;hypothetical protein&lt;br&gt;Location: 278684 - 278897" locus_tag="HS041_28000" class="clusterblast-orf" id="dummy-2_q39_0_all"  />
<polygon points="499,35 503,30 503,40 499,35 " style="fill:#d8d815; stroke-width:1; stroke:black; " description="&lt;b&gt;HS041_28005&lt;/b&gt;&lt;br&gt;dihydrofolate reductase family protein&lt;br&gt;Location: 279139 - 279721" locus_tag="HS041_28005" class="clusterblast-orf" id="dummy-2_q40_0_all"  />
<polygon points="504,35 509,30 510,30 510,40 509,40 504,35 " style="fill:#15d8d8; stroke-width:1; stroke:black; " description="&lt;b&gt;HS041_28010&lt;/b&gt;&lt;br&gt;AraC family transcriptional regulator&lt;br&gt;Location: 279808 - 280630" locus_tag="HS041_28010" class="clusterblast-orf" id="dummy-2_q41_0_all"  />
<polygon points="511,40 515,35 511,30 511,40 " style="fill:white; stroke-width:1; stroke:black; " description="&lt;b&gt;HS041_28015&lt;/b&gt;&lt;br&gt;hypothetical protein&lt;br&gt;Location: 280677 - 281186" locus_tag="HS041_28015" class="clusterblast-orf" id="dummy-2_q42_0_all"  />
<polygon points="515,40 517,35 515,30 515,40 " style="fill:white; stroke-width:1; stroke:black; " description="&lt;b&gt;HS041_28020&lt;/b&gt;&lt;br&gt;hypothetical protein&lt;br&gt;Location: 281229 - 281448" locus_tag="HS041_28020" class="clusterblast-orf" id="dummy-2_q43_0_all"  />
<polygon points="518,40 529,40 534,35 529,30 518,30 518,40 " style="fill:white; stroke-width:1; stroke:black; " description="&lt;b&gt;HS041_28025&lt;/b&gt;&lt;br&gt;hypothetical protein&lt;br&gt;Location: 281691 - 283671" locus_tag="HS041_28025" class="clusterblast-orf" id="dummy-2_q44_0_all"  />
<polygon points="535,35 540,30 541,30 541,40 540,40 535,35 " style="fill:white; stroke-width:1; stroke:black; " description="&lt;b&gt;HS041_28030&lt;/b&gt;&lt;br&gt;DUF4328 domain-containing protein&lt;br&gt;Location: 283897 - 284620" locus_tag="HS041_28030" class="clusterblast-orf" id="dummy-2_q45_0_all"  />
</g>
<g label="BGC0002098" description="BGC0002098_c1: ECO-0501 (4% of genes show similarity), Polyketide" class="clusterblast-cluster"  >
<text x="5" y="70" class="clusterblast-acc"  >
<a xlink:href="https://mibig.secondarymetabolites.org/go/BGC0002098/1" target="_blank">BGC0002098</a>: ECO-0501                                                                         (4% of genes show similarity), Polyketide</text>
<line x1="10" y1="85" x2="778.0" y2="85" style="stroke-width:1; stroke:grey; "  />
</g>
<g id="a2_000"  >
<polygon points="0,85 5,80 6,80 6,90 5,90 0,85 " style="fill:white; stroke-width:1; stroke:black; " description="&lt;b&gt;AORI_2931&lt;/b&gt;&lt;br&gt;putative multi-domain non-ribosomal peptide synthetase&lt;br&gt;Location: 4 - 819" locus_tag="AORI_2931" class="clusterblast-orf" id="dummy-2_h2_1_0"  />
</g>
<g id="a2_001"  >
<polygon points="7,90 8,90 13,85 8,80 7,80 7,90 " style="fill:white; stroke-width:1; stroke:black; " description="&lt;b&gt;AORI_2932&lt;/b&gt;&lt;br&gt;hypothetical protein&lt;br&gt;Location: 1003 - 1692" locus_tag="AORI_2932" class="clusterblast-orf" id="dummy-2_h2_1_1"  />
</g>
<g id="a2_002"  >
<polygon points="13,90 21,90 26,85 21,80 13,80 13,90 " style="fill:white; stroke-width:1; stroke:black; " description="&lt;b&gt;AORI_2933&lt;/b&gt;&lt;br&gt;tryptophan 2-monooxygenase&lt;br&gt;Location: 1801 - 3462" locus_tag="AORI_2933" class="clusterblast-orf" id="dummy-2_h2_1_2"  />
</g>
<g id="a2_003"  >
<polygon points="27,85 31,80 31,90 27,85 " style="fill:white; stroke-width:1; stroke:black; " description="&lt;b&gt;AORI_2934&lt;/b&gt;&lt;br&gt;integral membrane protein&lt;br&gt;Location: 3526 - 4065" locus_tag="AORI_2934" class="clusterblast-orf" id="dummy-2_h2_1_3"  />
</g>
<g id="a2_004"  >
<polygon points="32,90 32,90 37,85 32,80 32,80 32,90 " style="fill:white; stroke-width:1; stroke:black; " description="&lt;b&gt;AORI_2935&lt;/b&gt;&lt;br&gt;two-component system response regulator&lt;br&gt;Location: 4243 - 4911" locus_tag="AORI_2935" class="clusterblast-orf" id="dummy-2_h2_1_4"  />
</g>
<g id="a2_005"  >
<polygon points="39,85 44,80 48,80 48,90 44,90 39,85 " style="fill:white; stroke-width:1; stroke:black; " description="&lt;b&gt;AORI_2936&lt;/b&gt;&lt;br&gt;signal transduction histidine kinase&lt;br&gt;Location: 5104 - 6243" locus_tag="AORI_2936" class="clusterblast-orf" id="dummy-2_h2_1_5"  />
</g>
<g id="a2_006"  >
<polygon points="49,90 50,90 55,85 50,80 49,80 49,90 " style="fill:white; stroke-width:1; stroke:black; " description="&lt;b&gt;AORI_2937&lt;/b&gt;&lt;br&gt;thioesterase&lt;br&gt;Location: 6443 - 7198" locus_tag="AORI_2937" class="clusterblast-orf" id="dummy-2_h2_1_6"  />
</g>
<g id="a2_007"  >
<polygon points="56,85 60,80 60,90 56,85 " style="fill:white; stroke-width:1; stroke:black; " description="&lt;b&gt;AORI_2938&lt;/b&gt;&lt;br&gt;hypothetical protein&lt;br&gt;Location: 7296 - 7784" locus_tag="AORI_2938" class="clusterblast-orf" id="dummy-2_h2_1_7"  />
</g>
<g id="a2_008"  >
<polygon points="62,90 67,90 72,85 67,80 62,80 62,90 " style="fill:white; stroke-width:1; stroke:black; " description="&lt;b&gt;AORI_2939&lt;/b&gt;&lt;br&gt;UDPglucose 6-dehydrogenase&lt;br&gt;Location: 8089 - 9429" locus_tag="AORI_2939" class="clusterblast-orf" id="dummy-2_h2_1_8"  />
</g>
<g id="a2_009"  >
<polygon points="73,90 77,90 82,85 77,80 73,80 73,90 " style="fill:white; stroke-width:1; stroke:black; " description="&lt;b&gt;AORI_2940&lt;/b&gt;&lt;br&gt;hypothetical protein&lt;br&gt;Location: 9465 - 10688" locus_tag="AORI_2940" class="clusterblast-orf" id="dummy-2_h2_1_9"  />
</g>
<g id="a2_0010"  >
<polygon points="82,90 89,90 94,85 89,80 82,80 82,90 " style="fill:white; stroke-width:1; stroke:black; " description="&lt;b&gt;AORI_2941&lt;/b&gt;&lt;br&gt;AMP-dependent synthetase and ligase&lt;br&gt;Location: 10693 - 12258" locus_tag="AORI_2941" class="clusterblast-orf" id="dummy-2_h2_1_10"  />
</g>
<g id="a2_0011"  >
<polygon points="94,90 98,90 103,85 98,80 94,80 94,90 " style="fill:white; stroke-width:1; stroke:black; " description="&lt;b&gt;AORI_2942&lt;/b&gt;&lt;br&gt;5-aminolevulinate synthase&lt;br&gt;Location: 12255 - 13463" locus_tag="AORI_2942" class="clusterblast-orf" id="dummy-2_h2_1_11"  />
</g>
<g id="a2_0012"  >
<polygon points="105,90 112,90 117,85 112,80 105,80 105,90 " style="fill:white; stroke-width:1; stroke:black; " description="&lt;b&gt;AORI_2943&lt;/b&gt;&lt;br&gt;long-chain acyl-CoA synthetase&lt;br&gt;Location: 13653 - 15188" locus_tag="AORI_2943" class="clusterblast-orf" id="dummy-2_h2_1_12"  />
</g>
<g id="a2_0013"  >
<polygon points="118,85 120,80 120,90 118,85 " style="fill:white; stroke-width:1; stroke:black; " description="&lt;b&gt;AORI_2944&lt;/b&gt;&lt;br&gt;hypothetical protein&lt;br&gt;Location: 15290 - 15637" locus_tag="AORI_2944" class="clusterblast-orf" id="dummy-2_h2_1_13"  />
</g>
<g id="a2_0014"  >
<polygon points="120,90 204,90 209,85 204,80 120,80 120,90 " style="fill:white; stroke-width:1; stroke:black; " description="&lt;b&gt;AORI_2945&lt;/b&gt;&lt;br&gt;type I polyketide synthase&lt;br&gt;Location: 15668 - 27172" locus_tag="AORI_2945" class="clusterblast-orf" id="dummy-2_h2_1_14"  />
</g>
<g id="a2_0015"  >
<polygon points="209,90 337,90 342,85 337,80 209,80 209,90 " style="fill:white; stroke-width:1; stroke:black; " description="&lt;b&gt;AORI_2946&lt;/b&gt;&lt;br&gt;beta-ketoacyl synthase&lt;br&gt;Location: 27195 - 44345" locus_tag="AORI_2946" class="clusterblast-orf" id="dummy-2_h2_1_15"  />
</g>
<g id="a2_0016"  >
<polygon points="342,90 377,90 382,85 377,80 342,80 342,90 " style="fill:white; stroke-width:1; stroke:black; " description="&lt;b&gt;AORI_2947&lt;/b&gt;&lt;br&gt;type I polyketide synthase&lt;br&gt;Location: 44349 - 49556" locus_tag="AORI_2947" class="clusterblast-orf" id="dummy-2_h2_1_16"  />
</g>
<g id="a2_0017"  >
<polygon points="385,90 455,90 460,85 455,80 385,80 385,90 " style="fill:white; stroke-width:1; stroke:black; " description="&lt;b&gt;AORI_2948&lt;/b&gt;&lt;br&gt;modular polyketide synthase&lt;br&gt;Location: 49881 - 59675" locus_tag="AORI_2948" class="clusterblast-orf" id="dummy-2_h2_1_17"  />
</g>
<g id="a2_0018"  >
<polygon points="460,90 573,90 578,85 573,80 460,80 460,90 " style="fill:white; stroke-width:1; stroke:black; " description="&lt;b&gt;AORI_2949&lt;/b&gt;&lt;br&gt;modular polyketide synthase&lt;br&gt;Location: 59702 - 75001" locus_tag="AORI_2949" class="clusterblast-orf" id="dummy-2_h2_1_18"  />
</g>
<g id="a2_0019"  >
<polygon points="579,90 618,90 623,85 618,80 579,80 579,90 " style="fill:white; stroke-width:1; stroke:black; " description="&lt;b&gt;AORI_2950&lt;/b&gt;&lt;br&gt;type I polyketide synthase&lt;br&gt;Location: 75015 - 80780" locus_tag="AORI_2950" class="clusterblast-orf" id="dummy-2_h2_1_19"  />
</g>
<g id="a2_0020"  >
<polygon points="625,85 630,80 632,80 632,90 630,90 625,85 " style="fill:white; stroke-width:1; stroke:black; " description="&lt;b&gt;AORI_2951&lt;/b&gt;&lt;br&gt;(acyl-carrier-protein)S-malonyltransferase-like protein&lt;br&gt;Location: 81064 - 81987" locus_tag="AORI_2951" class="clusterblast-orf" id="dummy-2_h2_1_20"  />
</g>
<g id="a2_0021"  >
<polygon points="632,85 637,80 643,80 643,90 637,90 632,85 " style="fill:white; stroke-width:1; stroke:black; " description="&lt;b&gt;AORI_2952&lt;/b&gt;&lt;br&gt;hypothetical protein&lt;br&gt;Location: 81992 - 83422" locus_tag="AORI_2952" class="clusterblast-orf" id="dummy-2_h2_1_21"  />
</g>
<g id="a2_0022"  >
<polygon points="644,85 645,80 645,90 644,85 " style="fill:white; stroke-width:1; stroke:black; " description="&lt;b&gt;AORI_2953&lt;/b&gt;&lt;br&gt;hypothetical protein&lt;br&gt;Location: 83439 - 83648" locus_tag="AORI_2953" class="clusterblast-orf" id="dummy-2_h2_1_22"  />
</g>
<g id="a2_0023"  >
<polygon points="645,85 650,80 651,80 651,90 650,90 645,85 " style="fill:white; stroke-width:1; stroke:black; " description="&lt;b&gt;AORI_2954&lt;/b&gt;&lt;br&gt;thioesterase&lt;br&gt;Location: 83662 - 84426" locus_tag="AORI_2954" class="clusterblast-orf" id="dummy-2_h2_1_23"  />
</g>
<g id="a2_0024"  >
<polygon points="652,85 657,80 657,80 657,90 657,90 652,85 " style="fill:#d8d815; stroke-width:1; stroke:black; " description="&lt;b&gt;AORI_2955&lt;/b&gt;&lt;br&gt;hypothetical protein&lt;br&gt;Location: 84526 - 85122&lt;br&gt;&lt;br&gt;&lt;b&gt;BlastP hit with HS041_28005&lt;/b&gt;&lt;br&gt;Percentage identity: 83&lt;br&gt;Percentage coverage: 100&lt;br&gt;BLAST bit score: 347&lt;br&gt;E-value: 1.63e-123" locus_tag="AORI_2955" class="clusterblast-orf" id="dummy-2_h2_1_24"  />
</g>
<g id="a2_0025"  >
<polygon points="657,85 662,80 664,80 664,90 662,90 657,85 " style="fill:#15d8d8; stroke-width:1; stroke:black; " description="&lt;b&gt;AORI_2956&lt;/b&gt;&lt;br&gt;AraC family transcriptional regulator&lt;br&gt;Location: 85187 - 86026&lt;br&gt;&lt;br&gt;&lt;b&gt;BlastP hit with HS041_28010&lt;/b&gt;&lt;br&gt;Percentage identity: 82&lt;br&gt;Percentage coverage: 100&lt;br&gt;BLAST bit score: 470&lt;br&gt;E-value: 1.81e-169" locus_tag="AORI_2956" class="clusterblast-orf" id="dummy-2_h2_1_25"  />
</g>
<g id="a2_0026"  >
<polygon points="664,85 669,80 670,80 670,90 669,90 664,85 " style="fill:white; stroke-width:1; stroke:black; " description="&lt;b&gt;AORI_2957&lt;/b&gt;&lt;br&gt;hypothetical protein&lt;br&gt;Location: 86066 - 86884" locus_tag="AORI_2957" class="clusterblast-orf" id="dummy-2_h2_1_26"  />
</g>
<g id="a2_0027"  >
<polygon points="670,85 675,80 675,80 675,90 675,90 670,85 " style="fill:white; stroke-width:1; stroke:black; " description="&lt;b&gt;AORI_2958&lt;/b&gt;&lt;br&gt;lysine exporter protein LysE/YggA&lt;br&gt;Location: 86918 - 87559" locus_tag="AORI_2958" class="clusterblast-orf" id="dummy-2_h2_1_27"  />
</g>
<g id="a2_0028"  >
<polygon points="676,90 679,90 684,85 679,80 676,80 676,90 " style="fill:white; stroke-width:1; stroke:black; " description="&lt;b&gt;AORI_2959&lt;/b&gt;&lt;br&gt;coenzyme F420-dependent N5 N10-methylene tetrahydromethanopterin reductase-like protein&lt;br&gt;Location: 87629 - 88693" locus_tag="AORI_2959" class="clusterblast-orf" id="dummy-2_h2_1_28"  />
</g>
<g id="a2_0029"  >
<polygon points="684,85 689,80 690,80 690,90 689,90 684,85 " style="fill:white; stroke-width:1; stroke:black; " description="&lt;b&gt;AORI_2960&lt;/b&gt;&lt;br&gt;hypothetical protein&lt;br&gt;Location: 88662 - 89432" locus_tag="AORI_2960" class="clusterblast-orf" id="dummy-2_h2_1_29"  />
</g>
<g id="a2_0030"  >
<polygon points="691,85 696,80 697,80 697,90 696,90 691,85 " style="fill:white; stroke-width:1; stroke:black; " description="&lt;b&gt;AORI_2961&lt;/b&gt;&lt;br&gt;SAM-dependent methyltransferase&lt;br&gt;Location: 89537 - 90364" locus_tag="AORI_2961" class="clusterblast-orf" id="dummy-2_h2_1_30"  />
</g>
<g id="a2_0031"  >
<polygon points="698,90 701,85 698,80 698,90 " style="fill:white; stroke-width:1; stroke:black; " description="&lt;b&gt;AORI_2962&lt;/b&gt;&lt;br&gt;hypothetical protein&lt;br&gt;Location: 90429 - 90911" locus_tag="AORI_2962" class="clusterblast-orf" id="dummy-2_h2_1_31"  />
</g>
<g id="a2_0032"  >
<polygon points="702,90 706,85 702,80 702,90 " style="fill:white; stroke-width:1; stroke:black; " description="&lt;b&gt;AORI_2963&lt;/b&gt;&lt;br&gt;hypothetical protein&lt;br&gt;Location: 90951 - 91583" locus_tag="AORI_2963" class="clusterblast-orf" id="dummy-2_h2_1_32"  />
</g>
<g id="a2_0033"  >
<polygon points="707,85 712,80 714,80 714,90 712,90 707,85 " style="fill:white; stroke-width:1; stroke:black; " description="&lt;b&gt;AORI_2964&lt;/b&gt;&lt;br&gt;hypothetical protein&lt;br&gt;Location: 91595 - 92506" locus_tag="AORI_2964" class="clusterblast-orf" id="dummy-2_h2_1_33"  />
</g>
<g id="a2_0034"  >
<polygon points="714,90 717,90 722,85 717,80 714,80 714,90 " style="fill:white; stroke-width:1; stroke:black; " description="&lt;b&gt;AORI_2965&lt;/b&gt;&lt;br&gt;AraC family transcriptional regulator&lt;br&gt;Location: 92603 - 93574" locus_tag="AORI_2965" class="clusterblast-orf" id="dummy-2_h2_1_34"  />
</g>
<g id="a2_0035"  >
<polygon points="722,90 723,90 728,85 723,80 722,80 722,90 " style="fill:white; stroke-width:1; stroke:black; " description="&lt;b&gt;AORI_2966&lt;/b&gt;&lt;br&gt;hypothetical protein&lt;br&gt;Location: 93626 - 94336" locus_tag="AORI_2966" class="clusterblast-orf" id="dummy-2_h2_1_35"  />
</g>
<g id="a2_0036"  >
<polygon points="732,90 739,90 744,85 739,80 732,80 732,90 " style="fill:white; stroke-width:1; stroke:black; " description="&lt;b&gt;AORI_2967&lt;/b&gt;&lt;br&gt;hypothetical protein&lt;br&gt;Location: 94831 - 96462" locus_tag="AORI_2967" class="clusterblast-orf" id="dummy-2_h2_1_36"  />
</g>
<g id="a2_0037"  >
<polygon points="744,85 749,80 755,80 755,90 749,90 744,85 " style="fill:white; stroke-width:1; stroke:black; " description="&lt;b&gt;AORI_2968&lt;/b&gt;&lt;br&gt;ABC transporter ATP-binding protein&lt;br&gt;Location: 96471 - 97817" locus_tag="AORI_2968" class="clusterblast-orf" id="dummy-2_h2_1_37"  />
</g>
<g id="a2_0038"  >
<polygon points="755,85 760,80 761,80 761,90 760,90 755,85 " style="fill:white; stroke-width:1; stroke:black; " description="&lt;b&gt;AORI_2969&lt;/b&gt;&lt;br&gt;peptide/nickel transport system permease protein&lt;br&gt;Location: 97814 - 98599" locus_tag="AORI_2969" class="clusterblast-orf" id="dummy-2_h2_1_38"  />
</g>
<g id="a2_0039"  >
<polygon points="761,85 766,80 768,80 768,90 766,90 761,85 " style="fill:white; stroke-width:1; stroke:black; " description="&lt;b&gt;AORI_2970&lt;/b&gt;&lt;br&gt;peptide/nickel transport system permease protein&lt;br&gt;Location: 98593 - 99534" locus_tag="AORI_2970" class="clusterblast-orf" id="dummy-2_h2_1_39"  />
</g>
<g id="a2_0040"  >
<polygon points="768,85 773,80 780,80 780,90 773,90 768,85 " style="fill:white; stroke-width:1; stroke:black; " description="&lt;b&gt;AORI_2971&lt;/b&gt;&lt;br&gt;peptide/nickel transport system substrate-binding protein&lt;br&gt;Location: 99536 - 101044" locus_tag="AORI_2971" class="clusterblast-orf" id="dummy-2_h2_1_40"  />
</g>
</svg>
