<svg xmlns="http://www.w3.org/2000/svg" xmlns:xlink="http://www.w3.org/1999/xlink" version="1.1" x="0" y="0" height="50" width="800" viewBox="0 0 800 50" preserveAspectRatio="none"  >
<g label="Query sequence" class="clusterblast-cluster"  >
<text x="5" y="20" class="clusterblast-acc"  >
Query sequence</text>
<line x1="10" y1="35" x2="778.0" y2="35" style="stroke-width:1; stroke:grey; "  />
<polygon points="0,35 5,30 34,30 34,40 5,40 0,35 " style="fill:white; stroke-width:1; stroke:black; " description="&lt;b&gt;HS041_05390&lt;/b&gt;&lt;br&gt;EamA family transporter&lt;br&gt;Location: 1133454 - 1134411" locus_tag="HS041_05390" class="clusterblast-orf" id="knownclusterblast-3_q0_0_all"  />
<polygon points="37,35 42,30 83,30 83,40 42,40 37,35 " style="fill:white; stroke-width:1; stroke:black; " description="&lt;b&gt;HS041_05395&lt;/b&gt;&lt;br&gt;transcriptional regulator&lt;br&gt;Location: 1134510 - 1135800" locus_tag="HS041_05395" class="clusterblast-orf" id="knownclusterblast-3_q1_0_all"  />
<polygon points="91,35 96,30 136,30 136,40 96,40 91,35 " style="fill:white; stroke-width:1; stroke:black; " description="&lt;b&gt;HS041_05400&lt;/b&gt;&lt;br&gt;UDP-N-acetylglucosamine 1-carboxyvinyltransferase&lt;br&gt;Location: 1136024 - 1137293" locus_tag="HS041_05400" class="clusterblast-orf" id="knownclusterblast-3_q2_0_all"  />
<polygon points="140,35 145,30 217,30 217,40 145,40 140,35 " style="fill:white; stroke-width:1; stroke:black; " description="&lt;b&gt;HS041_05405&lt;/b&gt;&lt;br&gt;phosphoribosylamine--glycine ligase&lt;br&gt;Location: 1137407 - 1139591" locus_tag="HS041_05405" class="clusterblast-orf" id="knownclusterblast-3_q3_0_all"  />
<polygon points="231,40 265,40 270,35 265,30 231,30 231,40 " style="fill:white; stroke-width:1; stroke:black; " description="&lt;b&gt;HS041_05410&lt;/b&gt;&lt;br&gt;magnesium/cobalt transporter CorA&lt;br&gt;Location: 1139966 - 1141085" locus_tag="HS041_05410" class="clusterblast-orf" id="knownclusterblast-3_q4_0_all"  />
<polygon points="273,35 278,30 335,30 335,40 278,40 273,35 " style="fill:white; stroke-width:1; stroke:black; " description="&lt;b&gt;HS041_05415&lt;/b&gt;&lt;br&gt;ABC transporter ATP-binding protein&lt;br&gt;Location: 1141151 - 1142918" locus_tag="HS041_05415" class="clusterblast-orf" id="knownclusterblast-3_q5_0_all"  />
<polygon points="341,35 346,30 437,30 437,40 346,40 341,35 " style="fill:white; stroke-width:1; stroke:black; " description="&lt;b&gt;HS041_05420&lt;/b&gt;&lt;br&gt;protein kinase/lanthionine synthetase C family protein&lt;br&gt;Location: 1143084 - 1145793" locus_tag="HS041_05420" class="clusterblast-orf" id="knownclusterblast-3_q6_0_all"  />
<polygon points="449,35 454,30 482,30 482,40 454,40 449,35 " style="fill:white; stroke-width:1; stroke:black; " description="&lt;b&gt;HS041_05425&lt;/b&gt;&lt;br&gt;glycerophosphodiester phosphodiesterase&lt;br&gt;Location: 1146125 - 1147052" locus_tag="HS041_05425" class="clusterblast-orf" id="knownclusterblast-3_q7_0_all"  />
<polygon points="484,35 489,30 530,30 530,40 489,40 484,35 " style="fill:white; stroke-width:1; stroke:black; " description="&lt;b&gt;HS041_05430&lt;/b&gt;&lt;br&gt;adenylosuccinate synthase&lt;br&gt;Location: 1147128 - 1148412" locus_tag="HS041_05430" class="clusterblast-orf" id="knownclusterblast-3_q8_0_all"  />
<polygon points="534,35 539,30 549,30 549,40 539,40 534,35 " style="fill:white; stroke-width:1; stroke:black; " description="&lt;b&gt;HS041_05435&lt;/b&gt;&lt;br&gt;DUF3151 domain-containing protein&lt;br&gt;Location: 1148538 - 1148958" locus_tag="HS041_05435" class="clusterblast-orf" id="knownclusterblast-3_q9_0_all"  />
<polygon points="553,35 558,30 590,30 590,40 558,40 553,35 " style="fill:white; stroke-width:1; stroke:black; " description="&lt;b&gt;HS041_05440&lt;/b&gt;&lt;br&gt;class II fructose-bisphosphate aldolase&lt;br&gt;Location: 1149078 - 1150101" locus_tag="HS041_05440" class="clusterblast-orf" id="knownclusterblast-3_q10_0_all"  />
<polygon points="597,40 607,40 612,35 607,30 597,30 597,40 " style="fill:white; stroke-width:1; stroke:black; " description="&lt;b&gt;HS041_05445&lt;/b&gt;&lt;br&gt;hypothetical protein&lt;br&gt;Location: 1150306 - 1150726" locus_tag="HS041_05445" class="clusterblast-orf" id="knownclusterblast-3_q11_0_all"  />
<polygon points="613,35 618,30 632,30 632,40 618,40 613,35 " style="fill:white; stroke-width:1; stroke:black; " description="&lt;b&gt;HS041_05450&lt;/b&gt;&lt;br&gt;orotate phosphoribosyltransferase&lt;br&gt;Location: 1150762 - 1151299" locus_tag="HS041_05450" class="clusterblast-orf" id="knownclusterblast-3_q12_0_all"  />
<polygon points="639,40 719,40 724,35 719,30 639,30 639,40 " style="fill:white; stroke-width:1; stroke:black; " description="&lt;b&gt;HS041_05455&lt;/b&gt;&lt;br&gt;sigma-70 family RNA polymerase sigma factor&lt;br&gt;Location: 1151495 - 1153883" locus_tag="HS041_05455" class="clusterblast-orf" id="knownclusterblast-3_q13_0_all"  />
<polygon points="731,40 775,40 780,35 775,30 731,30 731,40 " style="fill:white; stroke-width:1; stroke:black; " description="&lt;b&gt;HS041_05460&lt;/b&gt;&lt;br&gt;NYN domain-containing protein&lt;br&gt;Location: 1154089 - 1155472" locus_tag="HS041_05460" class="clusterblast-orf" id="knownclusterblast-3_q14_0_all"  />
</g>
</svg>
