<svg xmlns="http://www.w3.org/2000/svg" xmlns:xlink="http://www.w3.org/1999/xlink" version="1.1" x="0" y="0" height="230" width="800" viewBox="0 0 800 230" preserveAspectRatio="none"  >
<g label="Query sequence" class="clusterblast-cluster"  >
<text x="5" y="20" class="clusterblast-acc"  >
Query sequence</text>
<line x1="10" y1="35" x2="778.0" y2="35" style="stroke-width:1; stroke:grey; "  />
<polygon points="177,35 179,30 179,40 177,35 " style="fill:white; stroke-width:1; stroke:black; " description="&lt;b&gt;HS041_33545&lt;/b&gt;&lt;br&gt;hypothetical protein&lt;br&gt;Location: 590920 - 591445" locus_tag="HS041_33545" class="clusterblast-orf" id="dummy-2_q0_0_all"  />
<polygon points="179,35 183,30 183,40 179,35 " style="fill:white; stroke-width:1; stroke:black; " description="&lt;b&gt;HS041_33550&lt;/b&gt;&lt;br&gt;hypothetical protein&lt;br&gt;Location: 591467 - 592367" locus_tag="HS041_33550" class="clusterblast-orf" id="dummy-2_q1_0_all"  />
<polygon points="183,35 188,30 188,30 188,40 188,40 183,35 " style="fill:white; stroke-width:1; stroke:black; " description="&lt;b&gt;HS041_33555&lt;/b&gt;&lt;br&gt;acetoacetate decarboxylase family protein&lt;br&gt;Location: 592372 - 593287" locus_tag="HS041_33555" class="clusterblast-orf" id="dummy-2_q2_0_all"  />
<polygon points="188,35 193,30 193,30 193,40 193,40 188,35 " style="fill:white; stroke-width:1; stroke:black; " description="&lt;b&gt;HS041_33560&lt;/b&gt;&lt;br&gt;esterase&lt;br&gt;Location: 593283 - 594348" locus_tag="HS041_33560" class="clusterblast-orf" id="dummy-2_q3_0_all"  />
<polygon points="193,40 200,40 205,35 200,30 193,30 193,40 " style="fill:white; stroke-width:1; stroke:black; " description="&lt;b&gt;HS041_33565&lt;/b&gt;&lt;br&gt;GMC family oxidoreductase&lt;br&gt;Location: 594488 - 596936" locus_tag="HS041_33565" class="clusterblast-orf" id="dummy-2_q4_0_all"  />
<polygon points="207,40 207,40 212,35 207,30 207,30 207,40 " style="fill:white; stroke-width:1; stroke:black; " description="&lt;b&gt;HS041_33570&lt;/b&gt;&lt;br&gt;polyprenyl synthetase family protein&lt;br&gt;Location: 597345 - 598422" locus_tag="HS041_33570" class="clusterblast-orf" id="dummy-2_q5_0_all"  />
<polygon points="213,40 215,40 220,35 215,30 213,30 213,40 " style="fill:#d81515; stroke-width:1; stroke:black; " description="&lt;b&gt;HS041_33575&lt;/b&gt;&lt;br&gt;cyclic nucleotide-binding domain-containing protein&lt;br&gt;Location: 598635 - 600054" locus_tag="HS041_33575" class="clusterblast-orf" id="dummy-2_q6_0_all"  />
<polygon points="220,40 225,40 230,35 225,30 220,30 220,40 " style="fill:#77d815; stroke-width:1; stroke:black; " description="&lt;b&gt;HS041_33580&lt;/b&gt;&lt;br&gt;germacradienol/geosmin synthase&lt;br&gt;Location: 600053 - 602252" locus_tag="HS041_33580" class="clusterblast-orf" id="dummy-2_q7_0_all"  />
<polygon points="230,40 231,40 236,35 231,30 230,30 230,40 " style="fill:#d81515; stroke-width:1; stroke:black; " description="&lt;b&gt;HS041_33585&lt;/b&gt;&lt;br&gt;cyclic nucleotide-binding domain-containing protein&lt;br&gt;Location: 602248 - 603592" locus_tag="HS041_33585" class="clusterblast-orf" id="dummy-2_q8_0_all"  />
<polygon points="237,35 242,30 244,30 244,40 242,40 237,35 " style="fill:white; stroke-width:1; stroke:black; " description="&lt;b&gt;HS041_33590&lt;/b&gt;&lt;br&gt;GMC family oxidoreductase&lt;br&gt;Location: 603685 - 605326" locus_tag="HS041_33590" class="clusterblast-orf" id="dummy-2_q9_0_all"  />
<polygon points="245,35 247,30 247,40 245,35 " style="fill:white; stroke-width:1; stroke:black; " description="&lt;b&gt;HS041_33595&lt;/b&gt;&lt;br&gt;carboxymuconolactone decarboxylase family protein&lt;br&gt;Location: 605447 - 605960" locus_tag="HS041_33595" class="clusterblast-orf" id="dummy-2_q10_0_all"  />
<polygon points="247,35 252,30 252,30 252,40 252,40 247,35 " style="fill:#15d8d8; stroke-width:1; stroke:black; " description="&lt;b&gt;HS041_33600&lt;/b&gt;&lt;br&gt;dihydrodipicolinate reductase&lt;br&gt;Location: 605956 - 607036" locus_tag="HS041_33600" class="clusterblast-orf" id="dummy-2_q11_0_all"  />
<polygon points="253,35 256,30 256,40 253,35 " style="fill:white; stroke-width:1; stroke:black; " description="&lt;b&gt;HS041_33605&lt;/b&gt;&lt;br&gt;rhomboid family intramembrane serine protease&lt;br&gt;Location: 607095 - 607797" locus_tag="HS041_33605" class="clusterblast-orf" id="dummy-2_q12_0_all"  />
<polygon points="256,35 261,30 261,30 261,40 261,40 256,35 " style="fill:white; stroke-width:1; stroke:black; " description="&lt;b&gt;HS041_33610&lt;/b&gt;&lt;br&gt;ornithine cyclodeaminase&lt;br&gt;Location: 607839 - 608883" locus_tag="HS041_33610" class="clusterblast-orf" id="dummy-2_q13_0_all"  />
<polygon points="261,35 266,30 266,30 266,40 266,40 261,35 " style="fill:white; stroke-width:1; stroke:black; " description="&lt;b&gt;HS041_33615&lt;/b&gt;&lt;br&gt;pyridoxal-phosphate dependent enzyme&lt;br&gt;Location: 608953 - 609982" locus_tag="HS041_33615" class="clusterblast-orf" id="dummy-2_q14_0_all"  />
<polygon points="268,40 276,40 281,35 276,30 268,30 268,40 " style="fill:white; stroke-width:1; stroke:black; " description="&lt;b&gt;HS041_33620&lt;/b&gt;&lt;br&gt;tetratricopeptide repeat protein&lt;br&gt;Location: 610311 - 613167" locus_tag="HS041_33620" class="clusterblast-orf" id="dummy-2_q15_0_all"  />
<polygon points="282,40 283,35 282,30 282,40 " style="fill:white; stroke-width:1; stroke:black; " description="&lt;b&gt;HS041_33625&lt;/b&gt;&lt;br&gt;hypothetical protein&lt;br&gt;Location: 613340 - 613565" locus_tag="HS041_33625" class="clusterblast-orf" id="dummy-2_q16_0_all"  />
<polygon points="283,35 287,30 287,40 283,35 " style="fill:white; stroke-width:1; stroke:black; " description="&lt;b&gt;HS041_33630&lt;/b&gt;&lt;br&gt;alpha/beta fold hydrolase&lt;br&gt;Location: 613584 - 614394" locus_tag="HS041_33630" class="clusterblast-orf" id="dummy-2_q17_0_all"  />
<polygon points="287,35 292,30 293,30 293,40 292,40 287,35 " style="fill:white; stroke-width:1; stroke:black; " description="&lt;b&gt;HS041_33635&lt;/b&gt;&lt;br&gt;MFS transporter&lt;br&gt;Location: 614374 - 615661" locus_tag="HS041_33635" class="clusterblast-orf" id="dummy-2_q18_0_all"  />
<polygon points="294,40 314,40 319,35 314,30 294,30 294,40 " style="fill:#7715d8; stroke-width:1; stroke:black; " description="&lt;b&gt;HS041_33640&lt;/b&gt;&lt;br&gt;acyltransferase domain-containing protein&lt;br&gt;Location: 615870 - 621309" locus_tag="HS041_33640" class="clusterblast-orf" id="dummy-2_q19_0_all"  />
<polygon points="320,40 321,35 320,30 320,40 " style="fill:#d8a715; stroke-width:1; stroke:black; " description="&lt;b&gt;HS041_33645&lt;/b&gt;&lt;br&gt;MbtH family protein&lt;br&gt;Location: 621353 - 621557" locus_tag="HS041_33645" class="clusterblast-orf" id="dummy-2_q20_0_all"  />
<polygon points="321,40 325,35 321,30 321,40 " style="fill:white; stroke-width:1; stroke:black; " description="&lt;b&gt;HS041_33650&lt;/b&gt;&lt;br&gt;LLM class flavin-dependent oxidoreductase&lt;br&gt;Location: 621583 - 622522" locus_tag="HS041_33650" class="clusterblast-orf" id="dummy-2_q21_0_all"  />
<polygon points="325,40 344,40 349,35 344,30 325,30 325,40 " style="fill:white; stroke-width:1; stroke:black; " description="&lt;b&gt;HS041_33655&lt;/b&gt;&lt;br&gt;amino acid adenylation domain-containing protein&lt;br&gt;Location: 622518 - 627534" locus_tag="HS041_33655" class="clusterblast-orf" id="dummy-2_q22_0_all"  />
<polygon points="349,40 359,40 364,35 359,30 349,30 349,40 " style="fill:white; stroke-width:1; stroke:black; " description="&lt;b&gt;HS041_33660&lt;/b&gt;&lt;br&gt;amino acid adenylation domain-containing protein&lt;br&gt;Location: 627530 - 630773" locus_tag="HS041_33660" class="clusterblast-orf" id="dummy-2_q23_0_all"  />
<polygon points="364,40 374,40 379,35 374,30 364,30 364,40 " style="fill:white; stroke-width:1; stroke:black; " description="&lt;b&gt;HS041_33665&lt;/b&gt;&lt;br&gt;amino acid adenylation domain-containing protein&lt;br&gt;Location: 630765 - 633885" locus_tag="HS041_33665" class="clusterblast-orf" id="dummy-2_q24_0_all"  />
<polygon points="379,40 382,35 379,30 379,40 " style="fill:white; stroke-width:1; stroke:black; " description="&lt;b&gt;HS041_33670&lt;/b&gt;&lt;br&gt;thioesterase&lt;br&gt;Location: 633877 - 634678" locus_tag="HS041_33670" class="clusterblast-orf" id="dummy-2_q25_0_all"  />
<polygon points="382,40 407,40 412,35 407,30 382,30 382,40 " style="fill:white; stroke-width:1; stroke:black; " description="&lt;b&gt;HS041_33675&lt;/b&gt;&lt;br&gt;amino acid adenylation domain-containing protein&lt;br&gt;Location: 634674 - 641082" locus_tag="HS041_33675" class="clusterblast-orf" id="dummy-2_q26_0_all"  />
<polygon points="412,40 454,40 459,35 454,30 412,30 412,40 " style="fill:white; stroke-width:1; stroke:black; " description="&lt;b&gt;HS041_33680&lt;/b&gt;&lt;br&gt;amino acid adenylation domain-containing protein&lt;br&gt;Location: 641071 - 650989" locus_tag="HS041_33680" class="clusterblast-orf" id="dummy-2_q27_0_all"  />
<polygon points="459,40 469,40 474,35 469,30 459,30 459,40 " style="fill:white; stroke-width:1; stroke:black; " description="&lt;b&gt;HS041_33685&lt;/b&gt;&lt;br&gt;amino acid adenylation domain-containing protein&lt;br&gt;Location: 650985 - 654249" locus_tag="HS041_33685" class="clusterblast-orf" id="dummy-2_q28_0_all"  />
<polygon points="474,40 504,40 509,35 504,30 474,30 474,40 " style="fill:white; stroke-width:1; stroke:black; " description="&lt;b&gt;HS041_33690&lt;/b&gt;&lt;br&gt;amino acid adenylation domain-containing protein&lt;br&gt;Location: 654245 - 661562" locus_tag="HS041_33690" class="clusterblast-orf" id="dummy-2_q29_0_all"  />
<polygon points="509,40 513,35 509,30 509,40 " style="fill:#15d846; stroke-width:1; stroke:black; " description="&lt;b&gt;HS041_33695&lt;/b&gt;&lt;br&gt;ornithine carbamoyltransferase&lt;br&gt;Location: 661548 - 662541" locus_tag="HS041_33695" class="clusterblast-orf" id="dummy-2_q30_0_all"  />
<polygon points="514,40 514,40 519,35 514,30 514,30 514,40 " style="fill:white; stroke-width:1; stroke:black; " description="&lt;b&gt;HS041_33700&lt;/b&gt;&lt;br&gt;Zn-dependent hydrolase&lt;br&gt;Location: 662585 - 663764" locus_tag="HS041_33700" class="clusterblast-orf" id="dummy-2_q31_0_all"  />
<polygon points="519,40 523,35 519,30 519,40 " style="fill:#1546d8; stroke-width:1; stroke:black; " description="&lt;b&gt;HS041_33705&lt;/b&gt;&lt;br&gt;ABC transporter ATP-binding protein&lt;br&gt;Location: 663760 - 664600" locus_tag="HS041_33705" class="clusterblast-orf" id="dummy-2_q32_0_all"  />
<polygon points="523,40 527,35 523,30 523,40 " style="fill:#d815a7; stroke-width:1; stroke:black; " description="&lt;b&gt;HS041_33710&lt;/b&gt;&lt;br&gt;ABC transporter permease&lt;br&gt;Location: 664592 - 665471" locus_tag="HS041_33710" class="clusterblast-orf" id="dummy-2_q33_0_all"  />
<polygon points="528,35 529,30 529,40 528,35 " style="fill:white; stroke-width:1; stroke:black; " description="&lt;b&gt;HS041_33715&lt;/b&gt;&lt;br&gt;nuclear transport factor 2 family protein&lt;br&gt;Location: 665566 - 665929" locus_tag="HS041_33715" class="clusterblast-orf" id="dummy-2_q34_0_all"  />
<polygon points="530,35 535,30 535,30 535,40 535,40 530,35 " style="fill:white; stroke-width:1; stroke:black; " description="&lt;b&gt;HS041_33720&lt;/b&gt;&lt;br&gt;LacI family DNA-binding transcriptional regulator&lt;br&gt;Location: 666088 - 667186" locus_tag="HS041_33720" class="clusterblast-orf" id="dummy-2_q35_0_all"  />
<polygon points="535,35 539,30 539,40 535,35 " style="fill:white; stroke-width:1; stroke:black; " description="&lt;b&gt;HS041_33725&lt;/b&gt;&lt;br&gt;sugar kinase&lt;br&gt;Location: 667202 - 668114" locus_tag="HS041_33725" class="clusterblast-orf" id="dummy-2_q36_0_all"  />
<polygon points="540,35 545,30 545,30 545,40 545,40 540,35 " style="fill:white; stroke-width:1; stroke:black; " description="&lt;b&gt;HS041_33730&lt;/b&gt;&lt;br&gt;SIS domain-containing protein&lt;br&gt;Location: 668295 - 669297" locus_tag="HS041_33730" class="clusterblast-orf" id="dummy-2_q37_0_all"  />
<polygon points="547,40 548,40 553,35 548,30 547,30 547,40 " style="fill:white; stroke-width:1; stroke:black; " description="&lt;b&gt;HS041_33735&lt;/b&gt;&lt;br&gt;carbohydrate ABC transporter substrate-binding protein&lt;br&gt;Location: 669624 - 670947" locus_tag="HS041_33735" class="clusterblast-orf" id="dummy-2_q38_0_all"  />
<polygon points="553,40 557,35 553,30 553,40 " style="fill:white; stroke-width:1; stroke:black; " description="&lt;b&gt;HS041_33740&lt;/b&gt;&lt;br&gt;sugar ABC transporter permease&lt;br&gt;Location: 670968 - 671862" locus_tag="HS041_33740" class="clusterblast-orf" id="dummy-2_q39_0_all"  />
<polygon points="557,40 561,35 557,30 557,40 " style="fill:white; stroke-width:1; stroke:black; " description="&lt;b&gt;HS041_33745&lt;/b&gt;&lt;br&gt;carbohydrate ABC transporter permease&lt;br&gt;Location: 671855 - 672692" locus_tag="HS041_33745" class="clusterblast-orf" id="dummy-2_q40_0_all"  />
<polygon points="561,40 565,35 561,30 561,40 " style="fill:white; stroke-width:1; stroke:black; " description="&lt;b&gt;HS041_33750&lt;/b&gt;&lt;br&gt;TIM barrel protein&lt;br&gt;Location: 672777 - 673614" locus_tag="HS041_33750" class="clusterblast-orf" id="dummy-2_q41_0_all"  />
<polygon points="566,35 571,30 573,30 573,40 571,40 566,35 " style="fill:white; stroke-width:1; stroke:black; " description="&lt;b&gt;HS041_33755&lt;/b&gt;&lt;br&gt;hypothetical protein&lt;br&gt;Location: 673713 - 675186" locus_tag="HS041_33755" class="clusterblast-orf" id="dummy-2_q42_0_all"  />
<polygon points="574,35 578,30 578,40 574,35 " style="fill:white; stroke-width:1; stroke:black; " description="&lt;b&gt;HS041_33760&lt;/b&gt;&lt;br&gt;RNA polymerase sigma factor&lt;br&gt;Location: 675400 - 676372" locus_tag="HS041_33760" class="clusterblast-orf" id="dummy-2_q43_0_all"  />
<polygon points="579,35 584,30 584,30 584,40 584,40 579,35 " style="fill:white; stroke-width:1; stroke:black; " description="&lt;b&gt;HS041_33765&lt;/b&gt;&lt;br&gt;sigma-70 family RNA polymerase sigma factor&lt;br&gt;Location: 676557 - 677658" locus_tag="HS041_33765" class="clusterblast-orf" id="dummy-2_q44_0_all"  />
<polygon points="584,40 584,40 589,35 584,30 584,30 584,40 " style="fill:white; stroke-width:1; stroke:black; " description="&lt;b&gt;HS041_33770&lt;/b&gt;&lt;br&gt;alpha/beta hydrolase&lt;br&gt;Location: 677684 - 678542" locus_tag="HS041_33770" class="clusterblast-orf" id="dummy-2_q45_0_all"  />
<polygon points="589,35 594,30 602,30 602,40 594,40 589,35 " style="fill:white; stroke-width:1; stroke:black; " description="&lt;b&gt;HS041_33775&lt;/b&gt;&lt;br&gt;tetratricopeptide repeat protein&lt;br&gt;Location: 678705 - 681513" locus_tag="HS041_33775" class="clusterblast-orf" id="dummy-2_q46_0_all"  />
</g>
<g label="BGC0001944" description="BGC0001944_c1: funisamine (5% of genes show similarity), Polyketide" class="clusterblast-cluster"  >
<text x="5" y="70" class="clusterblast-acc"  >
<a xlink:href="https://mibig.secondarymetabolites.org/go/BGC0001944/1" target="_blank">BGC0001944</a>: funisamine                                                                       (5% of genes show similarity), Polyketide</text>
<line x1="10" y1="85" x2="778.0" y2="85" style="stroke-width:1; stroke:grey; "  />
</g>
<g id="a2_000"  >
<polygon points="0,85 2,80 2,90 0,85 " style="fill:white; stroke-width:1; stroke:black; " description="&lt;b&gt;AXI91568.1&lt;/b&gt;&lt;br&gt;FunA15&lt;br&gt;Location: 165922 - 165347" locus_tag="AXI91568.1" class="clusterblast-orf" id="dummy-2_h2_6_0"  />
</g>
<g id="a2_001"  >
<polygon points="3,90 5,85 3,80 3,90 " style="fill:white; stroke-width:1; stroke:black; " description="&lt;b&gt;AXI91567.1&lt;/b&gt;&lt;br&gt;FunR8&lt;br&gt;Location: 165277 - 164663" locus_tag="AXI91567.1" class="clusterblast-orf" id="dummy-2_h2_6_1"  />
</g>
<g id="a2_002"  >
<polygon points="6,85 11,80 11,80 11,90 11,90 6,85 " style="fill:white; stroke-width:1; stroke:black; " description="&lt;b&gt;AXI91566.1&lt;/b&gt;&lt;br&gt;FunS3&lt;br&gt;Location: 164458 - 163532" locus_tag="AXI91566.1" class="clusterblast-orf" id="dummy-2_h2_6_2"  />
</g>
<g id="a2_003"  >
<polygon points="11,85 16,80 18,80 18,90 16,90 11,85 " style="fill:white; stroke-width:1; stroke:black; " description="&lt;b&gt;AXI91565.1&lt;/b&gt;&lt;br&gt;FunS2&lt;br&gt;Location: 163535 - 162093" locus_tag="AXI91565.1" class="clusterblast-orf" id="dummy-2_h2_6_3"  />
</g>
<g id="a2_004"  >
<polygon points="18,85 23,80 23,80 23,90 23,90 18,85 " style="fill:white; stroke-width:1; stroke:black; " description="&lt;b&gt;AXI91564.1&lt;/b&gt;&lt;br&gt;FunS1&lt;br&gt;Location: 162051 - 160933" locus_tag="AXI91564.1" class="clusterblast-orf" id="dummy-2_h2_6_4"  />
</g>
<g id="a2_005"  >
<polygon points="26,90 34,90 39,85 34,80 26,80 26,90 " style="fill:white; stroke-width:1; stroke:black; " description="&lt;b&gt;AXI91563.1&lt;/b&gt;&lt;br&gt;FunR7&lt;br&gt;Location: 160315 - 157562" locus_tag="AXI91563.1" class="clusterblast-orf" id="dummy-2_h2_6_5"  />
</g>
<g id="a2_006"  >
<polygon points="39,85 43,80 43,90 39,85 " style="fill:white; stroke-width:1; stroke:black; " description="&lt;b&gt;AXI91562.1&lt;/b&gt;&lt;br&gt;FunA14&lt;br&gt;Location: 157485 - 156658" locus_tag="AXI91562.1" class="clusterblast-orf" id="dummy-2_h2_6_6"  />
</g>
<g id="a2_007"  >
<polygon points="44,90 48,85 44,80 44,90 " style="fill:#1546d8; stroke-width:1; stroke:black; " description="&lt;b&gt;AXI91561.1&lt;/b&gt;&lt;br&gt;FunT3&lt;br&gt;Location: 156522 - 155677&lt;br&gt;&lt;br&gt;&lt;b&gt;BlastP hit with HS041_33705&lt;/b&gt;&lt;br&gt;Percentage identity: 58&lt;br&gt;Percentage coverage: 99&lt;br&gt;BLAST bit score: 310&lt;br&gt;E-value: 2.33e-106" locus_tag="AXI91561.1" class="clusterblast-orf" id="dummy-2_h2_6_7"  />
</g>
<g id="a2_008"  >
<polygon points="48,90 52,85 48,80 48,90 " style="fill:#d815a7; stroke-width:1; stroke:black; " description="&lt;b&gt;AXI91560.1&lt;/b&gt;&lt;br&gt;FunT2&lt;br&gt;Location: 155680 - 154811&lt;br&gt;&lt;br&gt;&lt;b&gt;BlastP hit with HS041_33710&lt;/b&gt;&lt;br&gt;Percentage identity: 49&lt;br&gt;Percentage coverage: 100&lt;br&gt;BLAST bit score: 256&lt;br&gt;E-value: 1.59e-84" locus_tag="AXI91560.1" class="clusterblast-orf" id="dummy-2_h2_6_8"  />
</g>
<g id="a2_009"  >
<polygon points="52,90 52,90 57,85 52,80 52,80 52,90 " style="fill:white; stroke-width:1; stroke:black; " description="&lt;b&gt;AXI91559.1&lt;/b&gt;&lt;br&gt;FunR6&lt;br&gt;Location: 154853 - 153642" locus_tag="AXI91559.1" class="clusterblast-orf" id="dummy-2_h2_6_9"  />
</g>
<g id="a2_0010"  >
<polygon points="57,90 60,85 57,80 57,90 " style="fill:white; stroke-width:1; stroke:black; " description="&lt;b&gt;AXI91558.1&lt;/b&gt;&lt;br&gt;FunR5&lt;br&gt;Location: 153645 - 153022" locus_tag="AXI91558.1" class="clusterblast-orf" id="dummy-2_h2_6_10"  />
</g>
<g id="a2_0011"  >
<polygon points="61,85 66,80 69,80 69,90 66,90 61,85 " style="fill:white; stroke-width:1; stroke:black; " description="&lt;b&gt;AXI91557.1&lt;/b&gt;&lt;br&gt;FunA13&lt;br&gt;Location: 152849 - 151167" locus_tag="AXI91557.1" class="clusterblast-orf" id="dummy-2_h2_6_11"  />
</g>
<g id="a2_0012"  >
<polygon points="70,90 72,85 70,80 70,90 " style="fill:white; stroke-width:1; stroke:black; " description="&lt;b&gt;AXI91556.1&lt;/b&gt;&lt;br&gt;FunO3&lt;br&gt;Location: 150972 - 150430" locus_tag="AXI91556.1" class="clusterblast-orf" id="dummy-2_h2_6_12"  />
</g>
<g id="a2_0013"  >
<polygon points="72,90 75,90 80,85 75,80 72,80 72,90 " style="fill:white; stroke-width:1; stroke:black; " description="&lt;b&gt;AXI91555.1&lt;/b&gt;&lt;br&gt;FunO2&lt;br&gt;Location: 150433 - 148886" locus_tag="AXI91555.1" class="clusterblast-orf" id="dummy-2_h2_6_13"  />
</g>
<g id="a2_0014"  >
<polygon points="81,90 83,85 81,80 81,90 " style="fill:white; stroke-width:1; stroke:black; " description="&lt;b&gt;AXI91554.1&lt;/b&gt;&lt;br&gt;FunR4&lt;br&gt;Location: 148649 - 148104" locus_tag="AXI91554.1" class="clusterblast-orf" id="dummy-2_h2_6_14"  />
</g>
<g id="a2_0015"  >
<polygon points="83,90 85,90 90,85 85,80 83,80 83,90 " style="fill:white; stroke-width:1; stroke:black; " description="&lt;b&gt;AXI91553.1&lt;/b&gt;&lt;br&gt;FunA12&lt;br&gt;Location: 148055 - 146733" locus_tag="AXI91553.1" class="clusterblast-orf" id="dummy-2_h2_6_15"  />
</g>
<g id="a2_0016"  >
<polygon points="92,90 285,90 290,85 285,80 92,80 92,90 " style="fill:white; stroke-width:1; stroke:black; " description="&lt;b&gt;AXI91552.1&lt;/b&gt;&lt;br&gt;FunP1&lt;br&gt;Location: 146298 - 104182" locus_tag="AXI91552.1" class="clusterblast-orf" id="dummy-2_h2_6_16"  />
</g>
<g id="a2_0017"  >
<polygon points="292,90 309,90 314,85 309,80 292,80 292,90 " style="fill:white; stroke-width:1; stroke:black; " description="&lt;b&gt;AXI91551.1&lt;/b&gt;&lt;br&gt;FunP2&lt;br&gt;Location: 103698 - 99100" locus_tag="AXI91551.1" class="clusterblast-orf" id="dummy-2_h2_6_17"  />
</g>
<g id="a2_0018"  >
<polygon points="315,90 353,90 358,85 353,80 315,80 315,90 " style="fill:white; stroke-width:1; stroke:black; " description="&lt;b&gt;AXI91550.1&lt;/b&gt;&lt;br&gt;FunP3&lt;br&gt;Location: 98812 - 89672" locus_tag="AXI91550.1" class="clusterblast-orf" id="dummy-2_h2_6_18"  />
</g>
<g id="a2_0019"  >
<polygon points="359,90 423,90 428,85 423,80 359,80 359,90 " style="fill:white; stroke-width:1; stroke:black; " description="&lt;b&gt;AXI91549.1&lt;/b&gt;&lt;br&gt;FunP4&lt;br&gt;Location: 89514 - 74860" locus_tag="AXI91549.1" class="clusterblast-orf" id="dummy-2_h2_6_19"  />
</g>
<g id="a2_0020"  >
<polygon points="428,90 520,90 525,85 520,80 428,80 428,90 " style="fill:white; stroke-width:1; stroke:black; " description="&lt;b&gt;AXI91548.1&lt;/b&gt;&lt;br&gt;FunP5&lt;br&gt;Location: 74830 - 54179" locus_tag="AXI91548.1" class="clusterblast-orf" id="dummy-2_h2_6_20"  />
</g>
<g id="a2_0021"  >
<polygon points="525,90 566,90 571,85 566,80 525,80 525,90 " style="fill:white; stroke-width:1; stroke:black; " description="&lt;b&gt;AXI91547.1&lt;/b&gt;&lt;br&gt;FunP6&lt;br&gt;Location: 54148 - 44378" locus_tag="AXI91547.1" class="clusterblast-orf" id="dummy-2_h2_6_21"  />
</g>
<g id="a2_0022"  >
<polygon points="571,90 667,90 672,85 667,80 571,80 571,90 " style="fill:white; stroke-width:1; stroke:black; " description="&lt;b&gt;AXI91546.1&lt;/b&gt;&lt;br&gt;FunP7&lt;br&gt;Location: 44352 - 22807" locus_tag="AXI91546.1" class="clusterblast-orf" id="dummy-2_h2_6_22"  />
</g>
<g id="a2_0023"  >
<polygon points="672,90 695,90 700,85 695,80 672,80 672,90 " style="fill:white; stroke-width:1; stroke:black; " description="&lt;b&gt;AXI91545.1&lt;/b&gt;&lt;br&gt;FunP8&lt;br&gt;Location: 22777 - 16844" locus_tag="AXI91545.1" class="clusterblast-orf" id="dummy-2_h2_6_23"  />
</g>
<g id="a2_0024"  >
<polygon points="700,90 704,85 700,80 700,90 " style="fill:white; stroke-width:1; stroke:black; " description="&lt;b&gt;AXI91544.1&lt;/b&gt;&lt;br&gt;FunA11&lt;br&gt;Location: 16847 - 16077" locus_tag="AXI91544.1" class="clusterblast-orf" id="dummy-2_h2_6_24"  />
</g>
<g id="a2_0025"  >
<polygon points="704,90 704,90 709,85 704,80 704,80 704,90 " style="fill:white; stroke-width:1; stroke:black; " description="&lt;b&gt;AXI91543.1&lt;/b&gt;&lt;br&gt;FunA10&lt;br&gt;Location: 16080 - 15031" locus_tag="AXI91543.1" class="clusterblast-orf" id="dummy-2_h2_6_25"  />
</g>
<g id="a2_0026"  >
<polygon points="709,90 712,85 709,80 709,90 " style="fill:white; stroke-width:1; stroke:black; " description="&lt;b&gt;AXI91542.1&lt;/b&gt;&lt;br&gt;FunA9&lt;br&gt;Location: 15031 - 14360" locus_tag="AXI91542.1" class="clusterblast-orf" id="dummy-2_h2_6_26"  />
</g>
<g id="a2_0027"  >
<polygon points="712,90 716,85 712,80 712,90 " style="fill:white; stroke-width:1; stroke:black; " description="&lt;b&gt;AXI91541.1&lt;/b&gt;&lt;br&gt;FunO1&lt;br&gt;Location: 14275 - 13481" locus_tag="AXI91541.1" class="clusterblast-orf" id="dummy-2_h2_6_27"  />
</g>
<g id="a2_0028"  >
<polygon points="716,90 718,90 723,85 718,80 716,80 716,90 " style="fill:white; stroke-width:1; stroke:black; " description="&lt;b&gt;AXI91540.1&lt;/b&gt;&lt;br&gt;FunA8&lt;br&gt;Location: 13448 - 12102" locus_tag="AXI91540.1" class="clusterblast-orf" id="dummy-2_h2_6_28"  />
</g>
<g id="a2_0029"  >
<polygon points="723,90 727,85 723,80 723,90 " style="fill:white; stroke-width:1; stroke:black; " description="&lt;b&gt;AXI91539.1&lt;/b&gt;&lt;br&gt;FunA7&lt;br&gt;Location: 12099 - 11110" locus_tag="AXI91539.1" class="clusterblast-orf" id="dummy-2_h2_6_29"  />
</g>
<g id="a2_0030"  >
<polygon points="727,90 727,90 732,85 727,80 727,80 727,90 " style="fill:white; stroke-width:1; stroke:black; " description="&lt;b&gt;AXI91538.1&lt;/b&gt;&lt;br&gt;FunA6&lt;br&gt;Location: 11113 - 10181" locus_tag="AXI91538.1" class="clusterblast-orf" id="dummy-2_h2_6_30"  />
</g>
<g id="a2_0031"  >
<polygon points="734,90 739,90 744,85 739,80 734,80 734,90 " style="fill:white; stroke-width:1; stroke:black; " description="&lt;b&gt;AXI91537.1&lt;/b&gt;&lt;br&gt;FunR3&lt;br&gt;Location: 9696 - 7603" locus_tag="AXI91537.1" class="clusterblast-orf" id="dummy-2_h2_6_31"  />
</g>
<g id="a2_0032"  >
<polygon points="745,85 750,80 750,80 750,90 750,90 745,85 " style="fill:white; stroke-width:1; stroke:black; " description="&lt;b&gt;AXI91536.1&lt;/b&gt;&lt;br&gt;FunR2&lt;br&gt;Location: 7237 - 6338" locus_tag="AXI91536.1" class="clusterblast-orf" id="dummy-2_h2_6_32"  />
</g>
<g id="a2_0033"  >
<polygon points="751,90 754,85 751,80 751,90 " style="fill:white; stroke-width:1; stroke:black; " description="&lt;b&gt;AXI91535.1&lt;/b&gt;&lt;br&gt;FunA5&lt;br&gt;Location: 6074 - 5340" locus_tag="AXI91535.1" class="clusterblast-orf" id="dummy-2_h2_6_33"  />
</g>
<g id="a2_0034"  >
<polygon points="755,90 758,85 755,80 755,90 " style="fill:white; stroke-width:1; stroke:black; " description="&lt;b&gt;AXI91534.1&lt;/b&gt;&lt;br&gt;FunA4&lt;br&gt;Location: 5122 - 4499" locus_tag="AXI91534.1" class="clusterblast-orf" id="dummy-2_h2_6_34"  />
</g>
<g id="a2_0035"  >
<polygon points="759,90 763,85 759,80 759,90 " style="fill:white; stroke-width:1; stroke:black; " description="&lt;b&gt;AXI91533.1&lt;/b&gt;&lt;br&gt;FunA3&lt;br&gt;Location: 4343 - 3408" locus_tag="AXI91533.1" class="clusterblast-orf" id="dummy-2_h2_6_35"  />
</g>
<g id="a2_0036"  >
<polygon points="764,90 766,85 764,80 764,90 " style="fill:white; stroke-width:1; stroke:black; " description="&lt;b&gt;AXI91532.1&lt;/b&gt;&lt;br&gt;FunA2&lt;br&gt;Location: 3223 - 2918" locus_tag="AXI91532.1" class="clusterblast-orf" id="dummy-2_h2_6_36"  />
</g>
<g id="a2_0037"  >
<polygon points="766,90 767,85 766,80 766,90 " style="fill:white; stroke-width:1; stroke:black; " description="&lt;b&gt;AXI91531.1&lt;/b&gt;&lt;br&gt;FunT1&lt;br&gt;Location: 2806 - 2621" locus_tag="AXI91531.1" class="clusterblast-orf" id="dummy-2_h2_6_37"  />
</g>
<g id="a2_0038"  >
<polygon points="768,90 772,90 777,85 772,80 768,80 768,90 " style="fill:white; stroke-width:1; stroke:black; " description="&lt;b&gt;AXI91530.1&lt;/b&gt;&lt;br&gt;FunA1&lt;br&gt;Location: 2531 - 546" locus_tag="AXI91530.1" class="clusterblast-orf" id="dummy-2_h2_6_38"  />
</g>
<g id="a2_0039"  >
<polygon points="777,85 780,80 780,90 777,85 " style="fill:white; stroke-width:1; stroke:black; " description="&lt;b&gt;AXI91529.1&lt;/b&gt;&lt;br&gt;FunR1&lt;br&gt;Location: 531 - 1" locus_tag="AXI91529.1" class="clusterblast-orf" id="dummy-2_h2_6_39"  />
</g>
</svg>
