<svg xmlns="http://www.w3.org/2000/svg" xmlns:xlink="http://www.w3.org/1999/xlink" version="1.1" x="0" y="0" height="230" width="800" viewBox="0 0 800 230" preserveAspectRatio="none"  >
<g label="Query sequence" class="clusterblast-cluster"  >
<text x="5" y="20" class="clusterblast-acc"  >
Query sequence</text>
<line x1="10" y1="35" x2="778.0" y2="35" style="stroke-width:1; stroke:grey; "  />
<polygon points="0,40 0,40 5,35 0,30 0,30 0,40 " style="fill:white; stroke-width:1; stroke:black; " description="&lt;b&gt;HS041_18440&lt;/b&gt;&lt;br&gt;hypothetical protein&lt;br&gt;Location: 1287086 - 1287521" locus_tag="HS041_18440" class="clusterblast-orf" id="dummy-4_q0_0_all"  />
<polygon points="8,35 13,30 42,30 42,40 13,40 8,35 " style="fill:white; stroke-width:1; stroke:black; " description="&lt;b&gt;HS041_18445&lt;/b&gt;&lt;br&gt;family 78 glycoside hydrolase catalytic domain&lt;br&gt;Location: 1287717 - 1290357" locus_tag="HS041_18445" class="clusterblast-orf" id="dummy-4_q1_0_all"  />
<polygon points="42,35 47,30 53,30 53,40 47,40 42,35 " style="fill:white; stroke-width:1; stroke:black; " description="&lt;b&gt;HS041_18450&lt;/b&gt;&lt;br&gt;carbohydrate ABC transporter permease&lt;br&gt;Location: 1290386 - 1291214" locus_tag="HS041_18450" class="clusterblast-orf" id="dummy-4_q2_0_all"  />
<polygon points="53,35 58,30 63,30 63,40 58,40 53,35 " style="fill:white; stroke-width:1; stroke:black; " description="&lt;b&gt;HS041_18455&lt;/b&gt;&lt;br&gt;sugar ABC transporter permease&lt;br&gt;Location: 1291210 - 1291987" locus_tag="HS041_18455" class="clusterblast-orf" id="dummy-4_q3_0_all"  />
<polygon points="65,35 70,30 84,30 84,40 70,40 65,35 " style="fill:white; stroke-width:1; stroke:black; " description="&lt;b&gt;HS041_18460&lt;/b&gt;&lt;br&gt;carbohydrate ABC transporter substrate-binding protein&lt;br&gt;Location: 1292163 - 1293573" locus_tag="HS041_18460" class="clusterblast-orf" id="dummy-4_q4_0_all"  />
<polygon points="86,40 93,40 98,35 93,30 86,30 86,40 " style="fill:white; stroke-width:1; stroke:black; " description="&lt;b&gt;HS041_18465&lt;/b&gt;&lt;br&gt;AraC family transcriptional regulator&lt;br&gt;Location: 1293771 - 1294686" locus_tag="HS041_18465" class="clusterblast-orf" id="dummy-4_q5_0_all"  />
<polygon points="102,40 112,40 117,35 112,30 102,30 102,40 " style="fill:white; stroke-width:1; stroke:black; " description="&lt;b&gt;HS041_18470&lt;/b&gt;&lt;br&gt;AraC family transcriptional regulator&lt;br&gt;Location: 1294989 - 1296129" locus_tag="HS041_18470" class="clusterblast-orf" id="dummy-4_q6_0_all"  />
<polygon points="119,40 123,35 119,30 119,40 " style="fill:white; stroke-width:1; stroke:black; " description="&lt;b&gt;HS041_18475&lt;/b&gt;&lt;br&gt;multidrug efflux SMR transporter&lt;br&gt;Location: 1296271 - 1296595" locus_tag="HS041_18475" class="clusterblast-orf" id="dummy-4_q7_0_all"  />
<polygon points="124,40 130,40 135,35 130,30 124,30 124,40 " style="fill:white; stroke-width:1; stroke:black; " description="&lt;b&gt;HS041_18480&lt;/b&gt;&lt;br&gt;haloalkane dehalogenase&lt;br&gt;Location: 1296668 - 1297556" locus_tag="HS041_18480" class="clusterblast-orf" id="dummy-4_q8_0_all"  />
<polygon points="137,40 137,40 142,35 137,30 137,30 137,40 " style="fill:white; stroke-width:1; stroke:black; " description="&lt;b&gt;HS041_18485&lt;/b&gt;&lt;br&gt;hypothetical protein&lt;br&gt;Location: 1297665 - 1298070" locus_tag="HS041_18485" class="clusterblast-orf" id="dummy-4_q9_0_all"  />
<polygon points="142,35 147,30 154,30 154,40 147,40 142,35 " style="fill:white; stroke-width:1; stroke:black; " description="&lt;b&gt;HS041_18490&lt;/b&gt;&lt;br&gt;LysR family transcriptional regulator&lt;br&gt;Location: 1298119 - 1299028" locus_tag="HS041_18490" class="clusterblast-orf" id="dummy-4_q10_0_all"  />
<polygon points="155,40 166,40 171,35 166,30 155,30 155,40 " style="fill:white; stroke-width:1; stroke:black; " description="&lt;b&gt;HS041_18495&lt;/b&gt;&lt;br&gt;MFS transporter&lt;br&gt;Location: 1299116 - 1300337" locus_tag="HS041_18495" class="clusterblast-orf" id="dummy-4_q11_0_all"  />
<polygon points="171,40 178,40 183,35 178,30 171,30 171,40 " style="fill:white; stroke-width:1; stroke:black; " description="&lt;b&gt;HS041_18500&lt;/b&gt;&lt;br&gt;NAD(P)H-binding protein&lt;br&gt;Location: 1300339 - 1301224" locus_tag="HS041_18500" class="clusterblast-orf" id="dummy-4_q12_0_all"  />
<polygon points="184,35 189,30 205,30 205,40 189,40 184,35 " style="fill:white; stroke-width:1; stroke:black; " description="&lt;b&gt;HS041_18505&lt;/b&gt;&lt;br&gt;pectate lyase&lt;br&gt;Location: 1301331 - 1302921" locus_tag="HS041_18505" class="clusterblast-orf" id="dummy-4_q13_0_all"  />
<polygon points="215,40 223,40 228,35 223,30 215,30 215,40 " style="fill:white; stroke-width:1; stroke:black; " description="&lt;b&gt;HS041_18510&lt;/b&gt;&lt;br&gt;right-handed parallel beta-helix repeat-containing protein&lt;br&gt;Location: 1303720 - 1304767" locus_tag="HS041_18510" class="clusterblast-orf" id="dummy-4_q14_0_all"  />
<polygon points="231,35 236,30 236,30 236,40 236,40 231,35 " style="fill:white; stroke-width:1; stroke:black; " description="&lt;b&gt;HS041_18515&lt;/b&gt;&lt;br&gt;hypothetical protein&lt;br&gt;Location: 1304968 - 1305343" locus_tag="HS041_18515" class="clusterblast-orf" id="dummy-4_q15_0_all"  />
<polygon points="237,40 241,35 237,30 237,40 " style="fill:white; stroke-width:1; stroke:black; " description="&lt;b&gt;HS041_18520&lt;/b&gt;&lt;br&gt;nuclear transport factor 2 family protein&lt;br&gt;Location: 1305419 - 1305761" locus_tag="HS041_18520" class="clusterblast-orf" id="dummy-4_q16_0_all"  />
<polygon points="243,35 248,30 284,30 284,40 248,40 243,35 " style="fill:white; stroke-width:1; stroke:black; " description="&lt;b&gt;HS041_18525&lt;/b&gt;&lt;br&gt;amino acid adenylation domain-containing protein&lt;br&gt;Location: 1305855 - 1309041" locus_tag="HS041_18525" class="clusterblast-orf" id="dummy-4_q17_0_all"  />
<polygon points="284,35 289,30 309,30 309,40 289,40 284,35 " style="fill:white; stroke-width:1; stroke:black; " description="&lt;b&gt;HS041_18530&lt;/b&gt;&lt;br&gt;non-ribosomal peptide synthetase&lt;br&gt;Location: 1309037 - 1310954" locus_tag="HS041_18530" class="clusterblast-orf" id="dummy-4_q18_0_all"  />
<polygon points="309,35 314,30 328,30 328,40 314,40 309,35 " style="fill:white; stroke-width:1; stroke:black; " description="&lt;b&gt;HS041_18535&lt;/b&gt;&lt;br&gt;hypothetical protein&lt;br&gt;Location: 1310958 - 1312443" locus_tag="HS041_18535" class="clusterblast-orf" id="dummy-4_q19_0_all"  />
<polygon points="328,35 330,30 330,40 328,35 " style="fill:#d81515; stroke-width:1; stroke:black; " description="&lt;b&gt;HS041_18540&lt;/b&gt;&lt;br&gt;MbtH family NRPS accessory protein&lt;br&gt;Location: 1312439 - 1312628" locus_tag="HS041_18540" class="clusterblast-orf" id="dummy-4_q20_0_all"  />
<polygon points="330,35 335,30 348,30 348,40 335,40 330,35 " style="fill:white; stroke-width:1; stroke:black; " description="&lt;b&gt;HS041_18545&lt;/b&gt;&lt;br&gt;hypothetical protein&lt;br&gt;Location: 1312624 - 1314019" locus_tag="HS041_18545" class="clusterblast-orf" id="dummy-4_q21_0_all"  />
<polygon points="348,35 351,30 351,40 348,35 " style="fill:white; stroke-width:1; stroke:black; " description="&lt;b&gt;HS041_18550&lt;/b&gt;&lt;br&gt;acyl carrier protein&lt;br&gt;Location: 1314015 - 1314255" locus_tag="HS041_18550" class="clusterblast-orf" id="dummy-4_q22_0_all"  />
<polygon points="351,35 356,30 372,30 372,40 356,40 351,35 " style="fill:white; stroke-width:1; stroke:black; " description="&lt;b&gt;HS041_18555&lt;/b&gt;&lt;br&gt;hypothetical protein&lt;br&gt;Location: 1314248 - 1315862" locus_tag="HS041_18555" class="clusterblast-orf" id="dummy-4_q23_0_all"  />
<polygon points="372,35 377,30 392,30 392,40 377,40 372,35 " style="fill:white; stroke-width:1; stroke:black; " description="&lt;b&gt;HS041_18560&lt;/b&gt;&lt;br&gt;AMP-binding protein&lt;br&gt;Location: 1315866 - 1317378" locus_tag="HS041_18560" class="clusterblast-orf" id="dummy-4_q24_0_all"  />
<polygon points="392,35 397,30 465,30 465,40 397,40 392,35 " style="fill:white; stroke-width:1; stroke:black; " description="&lt;b&gt;HS041_18565&lt;/b&gt;&lt;br&gt;amino acid adenylation domain-containing protein&lt;br&gt;Location: 1317374 - 1323035" locus_tag="HS041_18565" class="clusterblast-orf" id="dummy-4_q25_0_all"  />
<polygon points="471,35 476,30 479,30 479,40 476,40 471,35 " style="fill:white; stroke-width:1; stroke:black; " description="&lt;b&gt;HS041_18570&lt;/b&gt;&lt;br&gt;TetR/AcrR family transcriptional regulator&lt;br&gt;Location: 1323521 - 1324121" locus_tag="HS041_18570" class="clusterblast-orf" id="dummy-4_q26_0_all"  />
<polygon points="483,40 489,40 494,35 489,30 483,30 483,40 " style="fill:white; stroke-width:1; stroke:black; " description="&lt;b&gt;HS041_18575&lt;/b&gt;&lt;br&gt;SDR family oxidoreductase&lt;br&gt;Location: 1324440 - 1325268" locus_tag="HS041_18575" class="clusterblast-orf" id="dummy-4_q27_0_all"  />
<polygon points="494,40 509,40 514,35 509,30 494,30 494,40 " style="fill:white; stroke-width:1; stroke:black; " description="&lt;b&gt;HS041_18580&lt;/b&gt;&lt;br&gt;acyl-CoA synthetase&lt;br&gt;Location: 1325272 - 1326862" locus_tag="HS041_18580" class="clusterblast-orf" id="dummy-4_q28_0_all"  />
<polygon points="516,35 521,30 523,30 523,40 521,40 516,35 " style="fill:white; stroke-width:1; stroke:black; " description="&lt;b&gt;HS041_18585&lt;/b&gt;&lt;br&gt;hypothetical protein&lt;br&gt;Location: 1327020 - 1327503" locus_tag="HS041_18585" class="clusterblast-orf" id="dummy-4_q29_0_all"  />
<polygon points="523,35 528,30 552,30 552,40 528,40 523,35 " style="fill:white; stroke-width:1; stroke:black; " description="&lt;b&gt;HS041_18590&lt;/b&gt;&lt;br&gt;WD40 repeat domain-containing protein&lt;br&gt;Location: 1327499 - 1329803" locus_tag="HS041_18590" class="clusterblast-orf" id="dummy-4_q30_0_all"  />
<polygon points="555,40 562,40 567,35 562,30 555,30 555,40 " style="fill:white; stroke-width:1; stroke:black; " description="&lt;b&gt;HS041_18595&lt;/b&gt;&lt;br&gt;endonuclease/exonuclease/phosphatase family protein&lt;br&gt;Location: 1330013 - 1330895" locus_tag="HS041_18595" class="clusterblast-orf" id="dummy-4_q31_0_all"  />
<polygon points="568,35 573,30 582,30 582,40 573,40 568,35 " style="fill:white; stroke-width:1; stroke:black; " description="&lt;b&gt;HS041_18600&lt;/b&gt;&lt;br&gt;ABC transporter substrate-binding protein&lt;br&gt;Location: 1331031 - 1332075" locus_tag="HS041_18600" class="clusterblast-orf" id="dummy-4_q32_0_all"  />
<polygon points="583,35 588,30 597,30 597,40 588,40 583,35 " style="fill:#15d863; stroke-width:1; stroke:black; " description="&lt;b&gt;HS041_18605&lt;/b&gt;&lt;br&gt;iron chelate uptake ABC transporter family permease subunit&lt;br&gt;Location: 1332150 - 1333215" locus_tag="HS041_18605" class="clusterblast-orf" id="dummy-4_q33_0_all"  />
<polygon points="597,35 602,30 610,30 610,40 602,40 597,35 " style="fill:#1563d8; stroke-width:1; stroke:black; " description="&lt;b&gt;HS041_18610&lt;/b&gt;&lt;br&gt;iron ABC transporter permease&lt;br&gt;Location: 1333214 - 1334261" locus_tag="HS041_18610" class="clusterblast-orf" id="dummy-4_q34_0_all"  />
<polygon points="610,35 615,30 621,30 621,40 615,40 610,35 " style="fill:white; stroke-width:1; stroke:black; " description="&lt;b&gt;HS041_18615&lt;/b&gt;&lt;br&gt;iron-sulfur protein&lt;br&gt;Location: 1334257 - 1335064" locus_tag="HS041_18615" class="clusterblast-orf" id="dummy-4_q35_0_all"  />
<polygon points="625,35 630,30 635,30 635,40 630,40 625,35 " style="fill:white; stroke-width:1; stroke:black; " description="&lt;b&gt;HS041_18620&lt;/b&gt;&lt;br&gt;SagB/ThcOx family dehydrogenase&lt;br&gt;Location: 1335429 - 1336218" locus_tag="HS041_18620" class="clusterblast-orf" id="dummy-4_q36_0_all"  />
<polygon points="636,35 641,30 653,30 653,40 641,40 636,35 " style="fill:white; stroke-width:1; stroke:black; " description="&lt;b&gt;HS041_18625&lt;/b&gt;&lt;br&gt;YcaO-like family protein&lt;br&gt;Location: 1336242 - 1337562" locus_tag="HS041_18625" class="clusterblast-orf" id="dummy-4_q37_0_all"  />
<polygon points="653,35 658,30 667,30 667,40 658,40 653,35 " style="fill:white; stroke-width:1; stroke:black; " description="&lt;b&gt;HS041_18630&lt;/b&gt;&lt;br&gt;TOMM precursor leader peptide-binding protein&lt;br&gt;Location: 1337545 - 1338637" locus_tag="HS041_18630" class="clusterblast-orf" id="dummy-4_q38_0_all"  />
<polygon points="667,35 672,30 676,30 676,40 672,40 667,35 " style="fill:white; stroke-width:1; stroke:black; " description="&lt;b&gt;HS041_18635&lt;/b&gt;&lt;br&gt;hypothetical protein&lt;br&gt;Location: 1338636 - 1339338" locus_tag="HS041_18635" class="clusterblast-orf" id="dummy-4_q39_0_all"  />
<polygon points="679,35 684,30 689,30 689,40 684,40 679,35 " style="fill:white; stroke-width:1; stroke:black; " description="&lt;b&gt;HS041_18640&lt;/b&gt;&lt;br&gt;methyltransferase domain-containing protein&lt;br&gt;Location: 1339588 - 1340359" locus_tag="HS041_18640" class="clusterblast-orf" id="dummy-4_q40_0_all"  />
<polygon points="689,35 694,30 702,30 702,40 694,40 689,35 " style="fill:white; stroke-width:1; stroke:black; " description="&lt;b&gt;HS041_18645&lt;/b&gt;&lt;br&gt;aminoglycoside phosphotransferase family protein&lt;br&gt;Location: 1340355 - 1341345" locus_tag="HS041_18645" class="clusterblast-orf" id="dummy-4_q41_0_all"  />
<polygon points="702,35 707,30 733,30 733,40 707,40 702,35 " style="fill:white; stroke-width:1; stroke:black; " description="&lt;b&gt;HS041_18650&lt;/b&gt;&lt;br&gt;ATP-binding protein&lt;br&gt;Location: 1341347 - 1343774" locus_tag="HS041_18650" class="clusterblast-orf" id="dummy-4_q42_0_all"  />
<polygon points="736,40 737,40 742,35 737,30 736,30 736,40 " style="fill:white; stroke-width:1; stroke:black; " description="&lt;b&gt;HS041_18655&lt;/b&gt;&lt;br&gt;hypothetical protein&lt;br&gt;Location: 1343996 - 1344413" locus_tag="HS041_18655" class="clusterblast-orf" id="dummy-4_q43_0_all"  />
<polygon points="743,35 748,30 760,30 760,40 748,40 743,35 " style="fill:#b115d8; stroke-width:1; stroke:black; " description="&lt;b&gt;HS041_18660&lt;/b&gt;&lt;br&gt;sugar ABC transporter permease&lt;br&gt;Location: 1344557 - 1345826" locus_tag="HS041_18660" class="clusterblast-orf" id="dummy-4_q44_0_all"  />
<polygon points="760,35 765,30 780,30 780,40 765,40 760,35 " style="fill:#b1d815; stroke-width:1; stroke:black; " description="&lt;b&gt;HS041_18665&lt;/b&gt;&lt;br&gt;ATP-binding cassette domain-containing protein&lt;br&gt;Location: 1345825 - 1347355" locus_tag="HS041_18665" class="clusterblast-orf" id="dummy-4_q45_0_all"  />
</g>
<g label="BGC0000704" description="BGC0000704_c1: kanamycin (5% of genes show similarity), Saccharide" class="clusterblast-cluster"  >
<text x="5" y="70" class="clusterblast-acc"  >
<a xlink:href="https://mibig.secondarymetabolites.org/go/BGC0000704/1" target="_blank">BGC0000704</a>: kanamycin                                                                        (5% of genes show similarity), Saccharide</text>
<line x1="10" y1="85" x2="778.0" y2="85" style="stroke-width:1; stroke:grey; "  />
</g>
<g id="a4_000"  >
<polygon points="85,90 85,90 90,85 85,80 85,80 85,90 " style="fill:white; stroke-width:1; stroke:black; " description="&lt;b&gt;CAE46956.1&lt;/b&gt;&lt;br&gt;hypothetical protein&lt;br&gt;Location: 47050 - 46679" locus_tag="CAE46956.1" class="clusterblast-orf" id="dummy-4_h4_4_0"  />
</g>
<g id="a4_001"  >
<polygon points="93,90 94,90 99,85 94,80 93,80 93,90 " style="fill:white; stroke-width:1; stroke:black; " description="&lt;b&gt;CAE46955.1&lt;/b&gt;&lt;br&gt;hypothetical protein&lt;br&gt;Location: 46428 - 46006" locus_tag="CAE46955.1" class="clusterblast-orf" id="dummy-4_h4_4_1"  />
</g>
<g id="a4_002"  >
<polygon points="99,85 104,80 106,80 106,90 104,90 99,85 " style="fill:white; stroke-width:1; stroke:black; " description="&lt;b&gt;CAE46954.1&lt;/b&gt;&lt;br&gt;hypothetical protein&lt;br&gt;Location: 45983 - 45417" locus_tag="CAE46954.1" class="clusterblast-orf" id="dummy-4_h4_4_2"  />
</g>
<g id="a4_003"  >
<polygon points="106,85 111,80 127,80 127,90 111,90 106,85 " style="fill:white; stroke-width:1; stroke:black; " description="&lt;b&gt;CAE46953.1&lt;/b&gt;&lt;br&gt;putative crotonyl-CoA reductase&lt;br&gt;Location: 45410 - 43821" locus_tag="CAE46953.1" class="clusterblast-orf" id="dummy-4_h4_4_3"  />
</g>
<g id="a4_004"  >
<polygon points="128,85 133,80 139,80 139,90 133,90 128,85 " style="fill:white; stroke-width:1; stroke:black; " description="&lt;b&gt;CAE46952.2&lt;/b&gt;&lt;br&gt;putative regulatory protein&lt;br&gt;Location: 43702 - 42890" locus_tag="CAE46952.2" class="clusterblast-orf" id="dummy-4_h4_4_4"  />
</g>
<g id="a4_005"  >
<polygon points="140,85 145,80 163,80 163,90 145,90 140,85 " style="fill:white; stroke-width:1; stroke:black; " description="&lt;b&gt;CAE46951.1&lt;/b&gt;&lt;br&gt;putative oxidoreductase&lt;br&gt;Location: 42777 - 40996" locus_tag="CAE46951.1" class="clusterblast-orf" id="dummy-4_h4_4_5"  />
</g>
<g id="a4_006"  >
<polygon points="168,90 170,90 175,85 170,80 168,80 168,90 " style="fill:white; stroke-width:1; stroke:black; " description="&lt;b&gt;CAE46950.1&lt;/b&gt;&lt;br&gt;hypothetical protein&lt;br&gt;Location: 40641 - 40072" locus_tag="CAE46950.1" class="clusterblast-orf" id="dummy-4_h4_4_6"  />
</g>
<g id="a4_007"  >
<polygon points="176,85 181,80 181,80 181,90 181,90 176,85 " style="fill:white; stroke-width:1; stroke:black; " description="&lt;b&gt;CAE46949.1&lt;/b&gt;&lt;br&gt;hypothetical protein&lt;br&gt;Location: 40048 - 39650" locus_tag="CAE46949.1" class="clusterblast-orf" id="dummy-4_h4_4_7"  />
</g>
<g id="a4_008"  >
<polygon points="181,85 186,80 193,80 193,90 186,90 181,85 " style="fill:white; stroke-width:1; stroke:black; " description="&lt;b&gt;CAE46948.1&lt;/b&gt;&lt;br&gt;putative GTPase&lt;br&gt;Location: 39615 - 38722" locus_tag="CAE46948.1" class="clusterblast-orf" id="dummy-4_h4_4_8"  />
</g>
<g id="a4_009"  >
<polygon points="195,85 200,80 210,80 210,90 200,90 195,85 " style="fill:white; stroke-width:1; stroke:black; " description="&lt;b&gt;CAE46947.1&lt;/b&gt;&lt;br&gt;putative glycosyltransferase&lt;br&gt;Location: 38549 - 37386" locus_tag="CAE46947.1" class="clusterblast-orf" id="dummy-4_h4_4_9"  />
</g>
<g id="a4_0010"  >
<polygon points="212,85 217,80 223,80 223,90 217,90 212,85 " style="fill:white; stroke-width:1; stroke:black; " description="&lt;b&gt;CAE46946.1&lt;/b&gt;&lt;br&gt;16s ribosomal RNA methylase&lt;br&gt;Location: 37222 - 36389" locus_tag="CAE46946.1" class="clusterblast-orf" id="dummy-4_h4_4_10"  />
</g>
<g id="a4_0011"  >
<polygon points="225,85 230,80 232,80 232,90 230,90 225,85 " style="fill:white; stroke-width:1; stroke:black; " description="&lt;b&gt;CAE46945.1&lt;/b&gt;&lt;br&gt;hypothetical protein&lt;br&gt;Location: 36263 - 35667" locus_tag="CAE46945.1" class="clusterblast-orf" id="dummy-4_h4_4_11"  />
</g>
<g id="a4_0012"  >
<polygon points="239,85 244,80 250,80 250,90 244,90 239,85 " style="fill:white; stroke-width:1; stroke:black; " description="&lt;b&gt;CAE46944.1&lt;/b&gt;&lt;br&gt;hypothetical protein&lt;br&gt;Location: 35179 - 34322" locus_tag="CAE46944.1" class="clusterblast-orf" id="dummy-4_h4_4_12"  />
</g>
<g id="a4_0013"  >
<polygon points="252,85 257,80 268,80 268,90 257,90 252,85 " style="fill:white; stroke-width:1; stroke:black; " description="&lt;b&gt;CAE46943.1&lt;/b&gt;&lt;br&gt;putative glutamine--scyllo-inosose aminotransferase&lt;br&gt;Location: 34163 - 32904" locus_tag="CAE46943.1" class="clusterblast-orf" id="dummy-4_h4_4_13"  />
</g>
<g id="a4_0014"  >
<polygon points="268,85 273,80 278,80 278,90 273,90 268,85 " style="fill:white; stroke-width:1; stroke:black; " description="&lt;b&gt;CAE46942.1&lt;/b&gt;&lt;br&gt;hypothetical protein&lt;br&gt;Location: 32907 - 32158" locus_tag="CAE46942.1" class="clusterblast-orf" id="dummy-4_h4_4_14"  />
</g>
<g id="a4_0015"  >
<polygon points="278,85 283,80 293,80 293,90 283,90 278,85 " style="fill:white; stroke-width:1; stroke:black; " description="&lt;b&gt;CAE46941.1&lt;/b&gt;&lt;br&gt;putative glycosyl transferase kanE&lt;br&gt;Location: 32161 - 31001" locus_tag="CAE46941.1" class="clusterblast-orf" id="dummy-4_h4_4_15"  />
</g>
<g id="a4_0016"  >
<polygon points="296,85 301,80 310,80 310,90 301,90 296,85 " style="fill:white; stroke-width:1; stroke:black; " description="&lt;b&gt;CAE46940.1&lt;/b&gt;&lt;br&gt;putative dehydrogenase kanC&lt;br&gt;Location: 30753 - 29674" locus_tag="CAE46940.1" class="clusterblast-orf" id="dummy-4_h4_4_16"  />
</g>
<g id="a4_0017"  >
<polygon points="312,85 317,80 327,80 327,90 317,90 312,85 " style="fill:white; stroke-width:1; stroke:black; " description="&lt;b&gt;CAE46939.1&lt;/b&gt;&lt;br&gt;2-deoxy-scyllo-inosose synthase&lt;br&gt;Location: 29522 - 28350" locus_tag="CAE46939.1" class="clusterblast-orf" id="dummy-4_h4_4_17"  />
</g>
<g id="a4_0018"  >
<polygon points="328,85 333,80 344,80 344,90 333,90 328,85 " style="fill:white; stroke-width:1; stroke:black; " description="&lt;b&gt;CAE46938.1&lt;/b&gt;&lt;br&gt;putative glutamine--scyllo-inosose aminotransferase&lt;br&gt;Location: 28308 - 27025" locus_tag="CAE46938.1" class="clusterblast-orf" id="dummy-4_h4_4_18"  />
</g>
<g id="a4_0019"  >
<polygon points="346,85 351,80 365,80 365,90 351,90 346,85 " style="fill:white; stroke-width:1; stroke:black; " description="&lt;b&gt;CAF60534.1&lt;/b&gt;&lt;br&gt;GntX like protein&lt;br&gt;Location: 26906 - 25380" locus_tag="CAF60534.1" class="clusterblast-orf" id="dummy-4_h4_4_19"  />
</g>
<g id="a4_0020"  >
<polygon points="366,85 371,80 381,80 381,90 371,90 366,85 " style="fill:white; stroke-width:1; stroke:black; " description="&lt;b&gt;CAF60533.1&lt;/b&gt;&lt;br&gt;GntJ-like protein&lt;br&gt;Location: 25372 - 24194" locus_tag="CAF60533.1" class="clusterblast-orf" id="dummy-4_h4_4_20"  />
</g>
<g id="a4_0021"  >
<polygon points="381,85 386,80 397,80 397,90 386,90 381,85 " style="fill:white; stroke-width:1; stroke:black; " description="&lt;b&gt;CAF60532.1&lt;/b&gt;&lt;br&gt;putative transport protein&lt;br&gt;Location: 24188 - 22947" locus_tag="CAF60532.1" class="clusterblast-orf" id="dummy-4_h4_4_21"  />
</g>
<g id="a4_0022"  >
<polygon points="398,85 403,80 412,80 412,90 403,90 398,85 " style="fill:white; stroke-width:1; stroke:black; " description="&lt;b&gt;CAF60530.1&lt;/b&gt;&lt;br&gt;GntP-like protein&lt;br&gt;Location: 22848 - 21817" locus_tag="CAF60530.1" class="clusterblast-orf" id="dummy-4_h4_4_22"  />
</g>
<g id="a4_0023"  >
<polygon points="413,85 418,80 427,80 427,90 418,90 413,85 " style="fill:white; stroke-width:1; stroke:black; " description="&lt;b&gt;CAF60529.1&lt;/b&gt;&lt;br&gt;putative transcriptional regulatory protein&lt;br&gt;Location: 21722 - 20613" locus_tag="CAF60529.1" class="clusterblast-orf" id="dummy-4_h4_4_23"  />
</g>
<g id="a4_0024"  >
<polygon points="432,90 434,90 439,85 434,80 432,80 432,90 " style="fill:white; stroke-width:1; stroke:black; " description="&lt;b&gt;CAF60528.1&lt;/b&gt;&lt;br&gt;hypothetical protein&lt;br&gt;Location: 20275 - 19703" locus_tag="CAF60528.1" class="clusterblast-orf" id="dummy-4_h4_4_24"  />
</g>
<g id="a4_0025"  >
<polygon points="446,90 457,90 462,85 457,80 446,80 446,90 " style="fill:white; stroke-width:1; stroke:black; " description="&lt;b&gt;CAF60526.1&lt;/b&gt;&lt;br&gt;hypothetical protein&lt;br&gt;Location: 19131 - 17890" locus_tag="CAF60526.1" class="clusterblast-orf" id="dummy-4_h4_4_25"  />
</g>
<g id="a4_0026"  >
<polygon points="463,85 468,80 469,80 469,90 468,90 463,85 " style="fill:white; stroke-width:1; stroke:black; " description="&lt;b&gt;CAF60525.1&lt;/b&gt;&lt;br&gt;kanamycin 6-acetyl transferase&lt;br&gt;Location: 17824 - 17378" locus_tag="CAF60525.1" class="clusterblast-orf" id="dummy-4_h4_4_26"  />
</g>
<g id="a4_0027"  >
<polygon points="474,90 485,90 490,85 485,80 474,80 474,90 " style="fill:white; stroke-width:1; stroke:black; " description="&lt;b&gt;CAF60524.1&lt;/b&gt;&lt;br&gt;putative membrane efflux protein&lt;br&gt;Location: 17013 - 15751" locus_tag="CAF60524.1" class="clusterblast-orf" id="dummy-4_h4_4_27"  />
</g>
<g id="a4_0028"  >
<polygon points="492,90 492,90 497,85 492,80 492,80 492,90 " style="fill:white; stroke-width:1; stroke:black; " description="&lt;b&gt;CAF60522.1&lt;/b&gt;&lt;br&gt;conserved hypothetical protein&lt;br&gt;Location: 15629 - 15186" locus_tag="CAF60522.1" class="clusterblast-orf" id="dummy-4_h4_4_28"  />
</g>
<g id="a4_0029"  >
<polygon points="500,90 527,90 532,85 527,80 500,80 500,90 " style="fill:white; stroke-width:1; stroke:black; " description="&lt;b&gt;CAF60521.1&lt;/b&gt;&lt;br&gt;putative efflux protein&lt;br&gt;Location: 14982 - 12547" locus_tag="CAF60521.1" class="clusterblast-orf" id="dummy-4_h4_4_29"  />
</g>
<g id="a4_0030"  >
<polygon points="533,90 561,90 566,85 561,80 533,80 533,90 " style="fill:white; stroke-width:1; stroke:black; " description="&lt;b&gt;CAF60520.1&lt;/b&gt;&lt;br&gt;conserved hypothetical protein&lt;br&gt;Location: 12405 - 9907" locus_tag="CAF60520.1" class="clusterblast-orf" id="dummy-4_h4_4_30"  />
</g>
<g id="a4_0031"  >
<polygon points="568,90 573,90 578,85 573,80 568,80 568,90 " style="fill:white; stroke-width:1; stroke:black; " description="&lt;b&gt;CAF60519.1&lt;/b&gt;&lt;br&gt;hypothetical protein&lt;br&gt;Location: 9712 - 8990" locus_tag="CAF60519.1" class="clusterblast-orf" id="dummy-4_h4_4_31"  />
</g>
<g id="a4_0032"  >
<polygon points="579,90 580,90 585,85 580,80 579,80 579,90 " style="fill:white; stroke-width:1; stroke:black; " description="&lt;b&gt;CAF60518.1&lt;/b&gt;&lt;br&gt;hypothetical protein&lt;br&gt;Location: 8882 - 8454" locus_tag="CAF60518.1" class="clusterblast-orf" id="dummy-4_h4_4_32"  />
</g>
<g id="a4_0033"  >
<polygon points="585,85 590,80 596,80 596,90 590,90 585,85 " style="fill:white; stroke-width:1; stroke:black; " description="&lt;b&gt;CAF60516.1&lt;/b&gt;&lt;br&gt;putative NAD synthase&lt;br&gt;Location: 8388 - 7552" locus_tag="CAF60516.1" class="clusterblast-orf" id="dummy-4_h4_4_33"  />
</g>
<g id="a4_0034"  >
<polygon points="600,90 608,90 613,85 608,80 600,80 600,90 " style="fill:white; stroke-width:1; stroke:black; " description="&lt;b&gt;CAF60515.1&lt;/b&gt;&lt;br&gt;putative O-methyltransferase&lt;br&gt;Location: 7226 - 6252" locus_tag="CAF60515.1" class="clusterblast-orf" id="dummy-4_h4_4_34"  />
</g>
<g id="a4_0035"  >
<polygon points="616,85 621,80 632,80 632,90 621,90 616,85 " style="fill:#b115d8; stroke-width:1; stroke:black; " description="&lt;b&gt;CAF60514.1&lt;/b&gt;&lt;br&gt;putative sugar ABC-transproter transport permease&lt;br&gt;Location: 6032 - 4791&lt;br&gt;&lt;br&gt;&lt;b&gt;BlastP hit with HS041_18660&lt;/b&gt;&lt;br&gt;Percentage identity: 50&lt;br&gt;Percentage coverage: 101&lt;br&gt;BLAST bit score: 348&lt;br&gt;E-value: 3.18e-117" locus_tag="CAF60514.1" class="clusterblast-orf" id="dummy-4_h4_4_35"  />
</g>
<g id="a4_0036"  >
<polygon points="632,85 637,80 652,80 652,90 637,90 632,85 " style="fill:#b1d815; stroke-width:1; stroke:black; " description="&lt;b&gt;CAF60513.1&lt;/b&gt;&lt;br&gt;putative sugar ABC-transproter ATP-binding protein&lt;br&gt;Location: 4782 - 3217&lt;br&gt;&lt;br&gt;&lt;b&gt;BlastP hit with HS041_18665&lt;/b&gt;&lt;br&gt;Percentage identity: 68&lt;br&gt;Percentage coverage: 101&lt;br&gt;BLAST bit score: 671&lt;br&gt;E-value: 4.32e-241" locus_tag="CAF60513.1" class="clusterblast-orf" id="dummy-4_h4_4_36"  />
</g>
<g id="a4_0037"  >
<polygon points="652,85 657,80 667,80 667,90 657,90 652,85 " style="fill:white; stroke-width:1; stroke:black; " description="&lt;b&gt;CAF60512.1&lt;/b&gt;&lt;br&gt;putative ABC transporter sugar binding protein&lt;br&gt;Location: 3220 - 2111" locus_tag="CAF60512.1" class="clusterblast-orf" id="dummy-4_h4_4_37"  />
</g>
<g id="a4_0038"  >
<polygon points="667,85 672,80 679,80 679,90 672,90 667,85 " style="fill:white; stroke-width:1; stroke:black; " description="&lt;b&gt;CAF60511.1&lt;/b&gt;&lt;br&gt;conserved hypothetical protein&lt;br&gt;Location: 2106 - 1132" locus_tag="CAF60511.1" class="clusterblast-orf" id="dummy-4_h4_4_38"  />
</g>
<g id="a4_0039"  >
<polygon points="681,85 686,80 694,80 694,90 686,90 681,85 " style="fill:white; stroke-width:1; stroke:black; " description="&lt;b&gt;CAF60509.1&lt;/b&gt;&lt;br&gt;putative dehydrogenase&lt;br&gt;Location: 1014 - 1" locus_tag="CAF60509.1" class="clusterblast-orf" id="dummy-4_h4_4_39"  />
</g>
</svg>
