<svg xmlns="http://www.w3.org/2000/svg" xmlns:xlink="http://www.w3.org/1999/xlink" version="1.1" x="0" y="0" height="230" width="800" viewBox="0 0 800 230" preserveAspectRatio="none"  >
<g label="Query sequence" class="clusterblast-cluster"  >
<text x="5" y="20" class="clusterblast-acc"  >
Query sequence</text>
<line x1="10" y1="35" x2="778.0" y2="35" style="stroke-width:1; stroke:grey; "  />
<polygon points="0,35 5,30 29,30 29,40 5,40 0,35 " style="fill:white; stroke-width:1; stroke:black; " description="&lt;b&gt;HS041_32600&lt;/b&gt;&lt;br&gt;hypothetical protein&lt;br&gt;Location: 377985 - 379809" locus_tag="HS041_32600" class="clusterblast-orf" id="dummy-1_q0_0_all"  />
<polygon points="29,35 34,30 43,30 43,40 34,40 29,35 " style="fill:white; stroke-width:1; stroke:black; " description="&lt;b&gt;HS041_32605&lt;/b&gt;&lt;br&gt;ABC transporter ATP-binding protein&lt;br&gt;Location: 379793 - 380630" locus_tag="HS041_32605" class="clusterblast-orf" id="dummy-1_q1_0_all"  />
<polygon points="45,35 50,30 61,30 61,40 50,40 45,35 " style="fill:white; stroke-width:1; stroke:black; " description="&lt;b&gt;HS041_32610&lt;/b&gt;&lt;br&gt;aldo/keto reductase&lt;br&gt;Location: 380759 - 381737" locus_tag="HS041_32610" class="clusterblast-orf" id="dummy-1_q2_0_all"  />
<polygon points="64,35 69,30 72,30 72,40 69,40 64,35 " style="fill:white; stroke-width:1; stroke:black; " description="&lt;b&gt;HS041_32615&lt;/b&gt;&lt;br&gt;hypothetical protein&lt;br&gt;Location: 381914 - 382430" locus_tag="HS041_32615" class="clusterblast-orf" id="dummy-1_q3_0_all"  />
<polygon points="76,35 81,30 101,30 101,40 81,40 76,35 " style="fill:white; stroke-width:1; stroke:black; " description="&lt;b&gt;HS041_32620&lt;/b&gt;&lt;br&gt;N-acetylmuramoyl-L-alanine amidase&lt;br&gt;Location: 382653 - 384165" locus_tag="HS041_32620" class="clusterblast-orf" id="dummy-1_q4_0_all"  />
<polygon points="105,40 113,40 118,35 113,30 105,30 105,40 " style="fill:white; stroke-width:1; stroke:black; " description="&lt;b&gt;HS041_32625&lt;/b&gt;&lt;br&gt;hypothetical protein&lt;br&gt;Location: 384428 - 385226" locus_tag="HS041_32625" class="clusterblast-orf" id="dummy-1_q5_0_all"  />
<polygon points="127,40 127,40 132,35 127,30 127,30 127,40 " style="fill:#d81515; stroke-width:1; stroke:black; " description="&lt;b&gt;HS041_32630&lt;/b&gt;&lt;br&gt;VOC family protein&lt;br&gt;Location: 385745 - 386096" locus_tag="HS041_32630" class="clusterblast-orf" id="dummy-1_q6_0_all"  />
<polygon points="134,40 136,40 141,35 136,30 134,30 134,40 " style="fill:white; stroke-width:1; stroke:black; " description="&lt;b&gt;HS041_32635&lt;/b&gt;&lt;br&gt;VOC family protein&lt;br&gt;Location: 386220 - 386607" locus_tag="HS041_32635" class="clusterblast-orf" id="dummy-1_q7_0_all"  />
<polygon points="142,35 147,30 163,30 163,40 147,40 142,35 " style="fill:white; stroke-width:1; stroke:black; " description="&lt;b&gt;HS041_32640&lt;/b&gt;&lt;br&gt;alpha/beta fold hydrolase&lt;br&gt;Location: 386683 - 387973" locus_tag="HS041_32640" class="clusterblast-orf" id="dummy-1_q8_0_all"  />
<polygon points="164,40 168,40 173,35 168,30 164,30 164,40 " style="fill:white; stroke-width:1; stroke:black; " description="&lt;b&gt;HS041_32645&lt;/b&gt;&lt;br&gt;helix-turn-helix domain-containing protein&lt;br&gt;Location: 388049 - 388580" locus_tag="HS041_32645" class="clusterblast-orf" id="dummy-1_q9_0_all"  />
<polygon points="173,35 178,30 186,30 186,40 178,40 173,35 " style="fill:white; stroke-width:1; stroke:black; " description="&lt;b&gt;HS041_32650&lt;/b&gt;&lt;br&gt;helix-turn-helix transcriptional regulator&lt;br&gt;Location: 388576 - 389389" locus_tag="HS041_32650" class="clusterblast-orf" id="dummy-1_q10_0_all"  />
<polygon points="189,40 203,40 208,35 203,30 189,30 189,40 " style="fill:white; stroke-width:1; stroke:black; " description="&lt;b&gt;HS041_32655&lt;/b&gt;&lt;br&gt;aminoglycoside phosphotransferase family protein&lt;br&gt;Location: 389556 - 390755" locus_tag="HS041_32655" class="clusterblast-orf" id="dummy-1_q11_0_all"  />
<polygon points="209,35 214,30 246,30 246,40 214,40 209,35 " style="fill:white; stroke-width:1; stroke:black; " description="&lt;b&gt;HS041_32660&lt;/b&gt;&lt;br&gt;accessory Sec system translocase SecA2&lt;br&gt;Location: 390821 - 393044" locus_tag="HS041_32660" class="clusterblast-orf" id="dummy-1_q12_0_all"  />
<polygon points="248,35 253,30 266,30 266,40 253,40 248,35 " style="fill:white; stroke-width:1; stroke:black; " description="&lt;b&gt;HS041_32665&lt;/b&gt;&lt;br&gt;helix-turn-helix domain-containing protein&lt;br&gt;Location: 393147 - 394269" locus_tag="HS041_32665" class="clusterblast-orf" id="dummy-1_q13_0_all"  />
<polygon points="270,40 278,40 283,35 278,30 270,30 270,40 " style="fill:#15d863; stroke-width:1; stroke:black; " description="&lt;b&gt;HS041_32670&lt;/b&gt;&lt;br&gt;class II aldolase/adducin family protein&lt;br&gt;Location: 394498 - 395290" locus_tag="HS041_32670" class="clusterblast-orf" id="dummy-1_q14_0_all"  />
<polygon points="283,35 288,30 314,30 314,40 288,40 283,35 " style="fill:white; stroke-width:1; stroke:black; " description="&lt;b&gt;HS041_32675&lt;/b&gt;&lt;br&gt;winged helix-turn-helix domain-containing protein&lt;br&gt;Location: 395347 - 397192" locus_tag="HS041_32675" class="clusterblast-orf" id="dummy-1_q15_0_all"  />
<polygon points="320,40 368,40 373,35 368,30 320,30 320,40 " style="fill:#1563d8; stroke-width:1; stroke:black; " description="&lt;b&gt;HS041_32680&lt;/b&gt;&lt;br&gt;amino acid adenylation domain-containing protein&lt;br&gt;Location: 397572 - 400794" locus_tag="HS041_32680" class="clusterblast-orf" id="dummy-1_q16_0_all"  />
<polygon points="372,40 460,40 465,35 460,30 372,30 372,40 " style="fill:#b115d8; stroke-width:1; stroke:black; " description="&lt;b&gt;HS041_32685&lt;/b&gt;&lt;br&gt;amino acid adenylation domain-containing protein&lt;br&gt;Location: 400790 - 406460" locus_tag="HS041_32685" class="clusterblast-orf" id="dummy-1_q17_0_all"  />
<polygon points="465,40 476,40 481,35 476,30 465,30 465,40 " style="fill:#b1d815; stroke-width:1; stroke:black; " description="&lt;b&gt;HS041_32690&lt;/b&gt;&lt;br&gt;TauD/TfdA family dioxygenase&lt;br&gt;Location: 406456 - 407431" locus_tag="HS041_32690" class="clusterblast-orf" id="dummy-1_q18_0_all"  />
<polygon points="484,40 506,40 511,35 506,30 484,30 484,40 " style="fill:white; stroke-width:1; stroke:black; " description="&lt;b&gt;HS041_32695&lt;/b&gt;&lt;br&gt;CHASE3 domain-containing protein&lt;br&gt;Location: 407635 - 409249" locus_tag="HS041_32695" class="clusterblast-orf" id="dummy-1_q19_0_all"  />
<polygon points="511,40 512,40 517,35 512,30 511,30 511,40 " style="fill:white; stroke-width:1; stroke:black; " description="&lt;b&gt;HS041_32700&lt;/b&gt;&lt;br&gt;VOC family protein&lt;br&gt;Location: 409274 - 409634" locus_tag="HS041_32700" class="clusterblast-orf" id="dummy-1_q20_0_all"  />
<polygon points="518,35 523,30 537,30 537,40 523,40 518,35 " style="fill:white; stroke-width:1; stroke:black; " description="&lt;b&gt;HS041_32705&lt;/b&gt;&lt;br&gt;M20 family metallopeptidase&lt;br&gt;Location: 409668 - 410853" locus_tag="HS041_32705" class="clusterblast-orf" id="dummy-1_q21_0_all"  />
<polygon points="543,35 548,30 558,30 558,40 548,40 543,35 " style="fill:white; stroke-width:1; stroke:black; " description="&lt;b&gt;HS041_32710&lt;/b&gt;&lt;br&gt;EamA family transporter&lt;br&gt;Location: 411249 - 412152" locus_tag="HS041_32710" class="clusterblast-orf" id="dummy-1_q22_0_all"  />
<polygon points="565,40 574,40 579,35 574,30 565,30 565,40 " style="fill:white; stroke-width:1; stroke:black; " description="&lt;b&gt;HS041_32715&lt;/b&gt;&lt;br&gt;DMT family transporter&lt;br&gt;Location: 412573 - 413440" locus_tag="HS041_32715" class="clusterblast-orf" id="dummy-1_q23_0_all"  />
<polygon points="579,35 584,30 599,30 599,40 584,40 579,35 " style="fill:white; stroke-width:1; stroke:black; " description="&lt;b&gt;HS041_32720&lt;/b&gt;&lt;br&gt;FAD-dependent monooxygenase&lt;br&gt;Location: 413451 - 414669" locus_tag="HS041_32720" class="clusterblast-orf" id="dummy-1_q24_0_all"  />
<polygon points="600,40 606,40 611,35 606,30 600,30 600,40 " style="fill:white; stroke-width:1; stroke:black; " description="&lt;b&gt;HS041_32725&lt;/b&gt;&lt;br&gt;TetR/AcrR family transcriptional regulator&lt;br&gt;Location: 414741 - 415380" locus_tag="HS041_32725" class="clusterblast-orf" id="dummy-1_q25_0_all"  />
<polygon points="611,35 616,30 621,30 621,40 616,40 611,35 " style="fill:white; stroke-width:1; stroke:black; " description="&lt;b&gt;HS041_32730&lt;/b&gt;&lt;br&gt;GNAT family N-acetyltransferase&lt;br&gt;Location: 415410 - 416022" locus_tag="HS041_32730" class="clusterblast-orf" id="dummy-1_q26_0_all"  />
<polygon points="625,40 640,40 645,35 640,30 625,30 625,40 " style="fill:white; stroke-width:1; stroke:black; " description="&lt;b&gt;HS041_32735&lt;/b&gt;&lt;br&gt;acyl-CoA dehydrogenase family protein&lt;br&gt;Location: 416232 - 417447" locus_tag="HS041_32735" class="clusterblast-orf" id="dummy-1_q27_0_all"  />
<polygon points="645,40 659,40 664,35 659,30 645,30 645,40 " style="fill:white; stroke-width:1; stroke:black; " description="&lt;b&gt;HS041_32740&lt;/b&gt;&lt;br&gt;acyl-CoA dehydrogenase family protein&lt;br&gt;Location: 417443 - 418610" locus_tag="HS041_32740" class="clusterblast-orf" id="dummy-1_q28_0_all"  />
<polygon points="667,40 679,40 684,35 679,30 667,30 667,40 " style="fill:white; stroke-width:1; stroke:black; " description="&lt;b&gt;HS041_32745&lt;/b&gt;&lt;br&gt;acyl-CoA/acyl-ACP dehydrogenase&lt;br&gt;Location: 418784 - 419858" locus_tag="HS041_32745" class="clusterblast-orf" id="dummy-1_q29_0_all"  />
<polygon points="685,35 690,30 695,30 695,40 690,40 685,35 " style="fill:white; stroke-width:1; stroke:black; " description="&lt;b&gt;HS041_32750&lt;/b&gt;&lt;br&gt;helix-turn-helix transcriptional regulator&lt;br&gt;Location: 419935 - 420529" locus_tag="HS041_32750" class="clusterblast-orf" id="dummy-1_q30_0_all"  />
<polygon points="697,40 705,40 710,35 705,30 697,30 697,40 " style="fill:white; stroke-width:1; stroke:black; " description="&lt;b&gt;HS041_32755&lt;/b&gt;&lt;br&gt;SDR family oxidoreductase&lt;br&gt;Location: 420644 - 421451" locus_tag="HS041_32755" class="clusterblast-orf" id="dummy-1_q31_0_all"  />
<polygon points="710,35 715,30 719,30 719,40 715,40 710,35 " style="fill:white; stroke-width:1; stroke:black; " description="&lt;b&gt;HS041_32760&lt;/b&gt;&lt;br&gt;TetR/AcrR family transcriptional regulator&lt;br&gt;Location: 421419 - 422013" locus_tag="HS041_32760" class="clusterblast-orf" id="dummy-1_q32_0_all"  />
<polygon points="722,40 730,40 735,35 730,30 722,30 722,40 " style="fill:white; stroke-width:1; stroke:black; " description="&lt;b&gt;HS041_32765&lt;/b&gt;&lt;br&gt;NERD domain-containing protein&lt;br&gt;Location: 422196 - 422973" locus_tag="HS041_32765" class="clusterblast-orf" id="dummy-1_q33_0_all"  />
<polygon points="735,35 740,30 760,30 760,40 740,40 735,35 " style="fill:white; stroke-width:1; stroke:black; " description="&lt;b&gt;HS041_32770&lt;/b&gt;&lt;br&gt;VWA domain-containing protein&lt;br&gt;Location: 422993 - 424523" locus_tag="HS041_32770" class="clusterblast-orf" id="dummy-1_q34_0_all"  />
<polygon points="759,35 764,30 773,30 773,40 764,40 759,35 " style="fill:white; stroke-width:1; stroke:black; " description="&lt;b&gt;HS041_32775&lt;/b&gt;&lt;br&gt;MoxR family ATPase&lt;br&gt;Location: 424437 - 425289" locus_tag="HS041_32775" class="clusterblast-orf" id="dummy-1_q35_0_all"  />
<polygon points="775,35 780,30 780,30 780,40 780,40 775,35 " style="fill:white; stroke-width:1; stroke:black; " description="&lt;b&gt;HS041_32785&lt;/b&gt;&lt;br&gt;hypothetical protein&lt;br&gt;Location: 425429 - 425702" locus_tag="HS041_32785" class="clusterblast-orf" id="dummy-1_q36_0_all"  />
</g>
<g label="BGC0002565" description="BGC0002565_c1: plantaribactin (25% of genes show similarity), NRP" class="clusterblast-cluster"  >
<text x="5" y="70" class="clusterblast-acc"  >
<a xlink:href="https://mibig.secondarymetabolites.org/go/BGC0002565/1" target="_blank">BGC0002565</a>: plantaribactin                                                                   (25% of genes show similarity), NRP</text>
<line x1="10" y1="85" x2="778.0" y2="85" style="stroke-width:1; stroke:grey; "  />
</g>
<g id="a1_000"  >
<polygon points="20,90 28,90 33,85 28,80 20,80 20,90 " style="fill:white; stroke-width:1; stroke:black; " description="&lt;b&gt;BGL_2c17010&lt;/b&gt;&lt;br&gt;thioesterase type II, NRPS/PKS/S-FAS family&lt;br&gt;Location: 45225 - 44419" locus_tag="BGL_2c17010" class="clusterblast-orf" id="dummy-1_h1_3_0"  />
</g>
<g id="a1_001"  >
<polygon points="33,90 44,90 49,85 44,80 33,80 33,90 " style="fill:#b1d815; stroke-width:1; stroke:black; " description="&lt;b&gt;BGL_2c17000&lt;/b&gt;&lt;br&gt;taurine catabolism dioxygenase TauD/TfdA&lt;br&gt;Location: 44422 - 43439&lt;br&gt;&lt;br&gt;&lt;b&gt;BlastP hit with HS041_32690&lt;/b&gt;&lt;br&gt;Percentage identity: 47&lt;br&gt;Percentage coverage: 85&lt;br&gt;BLAST bit score: 245&lt;br&gt;E-value: 1.87e-79" locus_tag="BGL_2c17000" class="clusterblast-orf" id="dummy-1_h1_3_1"  />
</g>
<g id="a1_002"  >
<polygon points="51,90 229,90 234,85 229,80 51,80 51,90 " style="fill:white; stroke-width:1; stroke:black; " description="&lt;b&gt;BGL_2c16990&lt;/b&gt;&lt;br&gt;non-ribosomal peptide synthase&lt;br&gt;Location: 43319 - 32154" locus_tag="BGL_2c16990" class="clusterblast-orf" id="dummy-1_h1_3_2"  />
</g>
<g id="a1_003"  >
<polygon points="234,90 322,90 327,85 322,80 234,80 234,90 " style="fill:white; stroke-width:1; stroke:black; " description="&lt;b&gt;BGL_2c16980&lt;/b&gt;&lt;br&gt;non-ribosomal peptide synthase&lt;br&gt;Location: 32144 - 26418" locus_tag="BGL_2c16980" class="clusterblast-orf" id="dummy-1_h1_3_3"  />
</g>
<g id="a1_004"  >
<polygon points="329,90 337,90 342,85 337,80 329,80 329,90 " style="fill:white; stroke-width:1; stroke:black; " description="&lt;b&gt;BGL_2c16970&lt;/b&gt;&lt;br&gt;ABC transporter, ATP-binding protein&lt;br&gt;Location: 26339 - 25545" locus_tag="BGL_2c16970" class="clusterblast-orf" id="dummy-1_h1_3_4"  />
</g>
<g id="a1_005"  >
<polygon points="342,90 353,90 358,85 353,80 342,80 342,90 " style="fill:white; stroke-width:1; stroke:black; " description="&lt;b&gt;BGL_2c16960&lt;/b&gt;&lt;br&gt;ABC transporter, substrate binding protein&lt;br&gt;Location: 25548 - 24517" locus_tag="BGL_2c16960" class="clusterblast-orf" id="dummy-1_h1_3_5"  />
</g>
<g id="a1_006"  >
<polygon points="358,90 386,90 391,85 386,80 358,80 358,90 " style="fill:white; stroke-width:1; stroke:black; " description="&lt;b&gt;BGL_2c16950&lt;/b&gt;&lt;br&gt;ABC transporter, permease, FecCD family&lt;br&gt;Location: 24512 - 22500" locus_tag="BGL_2c16950" class="clusterblast-orf" id="dummy-1_h1_3_6"  />
</g>
<g id="a1_007"  >
<polygon points="401,90 432,90 437,85 432,80 401,80 401,90 " style="fill:white; stroke-width:1; stroke:black; " description="&lt;b&gt;BGL_2c16940&lt;/b&gt;&lt;br&gt;TonB-dependent siderophore receptor&lt;br&gt;Location: 21917 - 19737" locus_tag="BGL_2c16940" class="clusterblast-orf" id="dummy-1_h1_3_7"  />
</g>
<g id="a1_008"  >
<polygon points="445,90 464,90 469,85 464,80 445,80 445,90 " style="fill:white; stroke-width:1; stroke:black; " description="&lt;b&gt;BGL_2c16930&lt;/b&gt;&lt;br&gt;hypothetical protein&lt;br&gt;Location: 19209 - 17773" locus_tag="BGL_2c16930" class="clusterblast-orf" id="dummy-1_h1_3_8"  />
</g>
<g id="a1_009"  >
<polygon points="470,90 482,90 487,85 482,80 470,80 470,90 " style="fill:white; stroke-width:1; stroke:black; " description="&lt;b&gt;BGL_2c16920&lt;/b&gt;&lt;br&gt;hypothetical protein, YqcI and YcgG family&lt;br&gt;Location: 17678 - 16620" locus_tag="BGL_2c16920" class="clusterblast-orf" id="dummy-1_h1_3_9"  />
</g>
<g id="a1_0010"  >
<polygon points="489,90 623,90 628,85 623,80 489,80 489,90 " style="fill:#b115d8; stroke-width:1; stroke:black; " description="&lt;b&gt;BGL_2c16910&lt;/b&gt;&lt;br&gt;non-ribosomal peptide synthase&lt;br&gt;Location: 16532 - 8013&lt;br&gt;&lt;br&gt;&lt;b&gt;BlastP hit with HS041_32685&lt;/b&gt;&lt;br&gt;Percentage identity: 46&lt;br&gt;Percentage coverage: 58&lt;br&gt;BLAST bit score: 837&lt;br&gt;E-value: 1.95e-261" locus_tag="BGL_2c16910" class="clusterblast-orf" id="dummy-1_h1_3_10"  />
</g>
<g id="a1_0011"  >
<polygon points="628,90 754,90 759,85 754,80 628,80 628,90 " style="fill:#b115d8; stroke-width:1; stroke:black; " description="&lt;b&gt;BGL_2c16900&lt;/b&gt;&lt;br&gt;non-ribosomal peptide synthase&lt;br&gt;Location: 8004 - 1&lt;br&gt;&lt;br&gt;&lt;b&gt;BlastP hit with HS041_32685&lt;/b&gt;&lt;br&gt;Percentage identity: 47&lt;br&gt;Percentage coverage: 59&lt;br&gt;BLAST bit score: 852&lt;br&gt;E-value: 4.44e-268" locus_tag="BGL_2c16900" class="clusterblast-orf" id="dummy-1_h1_3_11"  />
</g>
</svg>
