<svg xmlns="http://www.w3.org/2000/svg" xmlns:xlink="http://www.w3.org/1999/xlink" version="1.1" x="0" y="0" height="230" width="800" viewBox="0 0 800 230" preserveAspectRatio="none"  >
<g label="Query sequence" class="clusterblast-cluster"  >
<text x="5" y="20" class="clusterblast-acc"  >
Query sequence</text>
<line x1="10" y1="35" x2="778.0" y2="35" style="stroke-width:1; stroke:grey; "  />
<polygon points="49,35 54,30 75,30 75,40 54,40 49,35 " style="fill:white; stroke-width:1; stroke:black; " description="&lt;b&gt;HS041_32600&lt;/b&gt;&lt;br&gt;hypothetical protein&lt;br&gt;Location: 377985 - 379809" locus_tag="HS041_32600" class="clusterblast-orf" id="dummy-1_q0_0_all"  />
<polygon points="75,35 80,30 87,30 87,40 80,40 75,35 " style="fill:white; stroke-width:1; stroke:black; " description="&lt;b&gt;HS041_32605&lt;/b&gt;&lt;br&gt;ABC transporter ATP-binding protein&lt;br&gt;Location: 379793 - 380630" locus_tag="HS041_32605" class="clusterblast-orf" id="dummy-1_q1_0_all"  />
<polygon points="89,35 94,30 103,30 103,40 94,40 89,35 " style="fill:white; stroke-width:1; stroke:black; " description="&lt;b&gt;HS041_32610&lt;/b&gt;&lt;br&gt;aldo/keto reductase&lt;br&gt;Location: 380759 - 381737" locus_tag="HS041_32610" class="clusterblast-orf" id="dummy-1_q2_0_all"  />
<polygon points="105,35 110,30 113,30 113,40 110,40 105,35 " style="fill:white; stroke-width:1; stroke:black; " description="&lt;b&gt;HS041_32615&lt;/b&gt;&lt;br&gt;hypothetical protein&lt;br&gt;Location: 381914 - 382430" locus_tag="HS041_32615" class="clusterblast-orf" id="dummy-1_q3_0_all"  />
<polygon points="116,35 121,30 137,30 137,40 121,40 116,35 " style="fill:white; stroke-width:1; stroke:black; " description="&lt;b&gt;HS041_32620&lt;/b&gt;&lt;br&gt;N-acetylmuramoyl-L-alanine amidase&lt;br&gt;Location: 382653 - 384165" locus_tag="HS041_32620" class="clusterblast-orf" id="dummy-1_q4_0_all"  />
<polygon points="141,40 148,40 153,35 148,30 141,30 141,40 " style="fill:white; stroke-width:1; stroke:black; " description="&lt;b&gt;HS041_32625&lt;/b&gt;&lt;br&gt;hypothetical protein&lt;br&gt;Location: 384428 - 385226" locus_tag="HS041_32625" class="clusterblast-orf" id="dummy-1_q5_0_all"  />
<polygon points="160,40 160,40 165,35 160,30 160,30 160,40 " style="fill:#d81515; stroke-width:1; stroke:black; " description="&lt;b&gt;HS041_32630&lt;/b&gt;&lt;br&gt;VOC family protein&lt;br&gt;Location: 385745 - 386096" locus_tag="HS041_32630" class="clusterblast-orf" id="dummy-1_q6_0_all"  />
<polygon points="167,40 167,40 172,35 167,30 167,30 167,40 " style="fill:white; stroke-width:1; stroke:black; " description="&lt;b&gt;HS041_32635&lt;/b&gt;&lt;br&gt;VOC family protein&lt;br&gt;Location: 386220 - 386607" locus_tag="HS041_32635" class="clusterblast-orf" id="dummy-1_q7_0_all"  />
<polygon points="173,35 178,30 192,30 192,40 178,40 173,35 " style="fill:white; stroke-width:1; stroke:black; " description="&lt;b&gt;HS041_32640&lt;/b&gt;&lt;br&gt;alpha/beta fold hydrolase&lt;br&gt;Location: 386683 - 387973" locus_tag="HS041_32640" class="clusterblast-orf" id="dummy-1_q8_0_all"  />
<polygon points="193,40 195,40 200,35 195,30 193,30 193,40 " style="fill:white; stroke-width:1; stroke:black; " description="&lt;b&gt;HS041_32645&lt;/b&gt;&lt;br&gt;helix-turn-helix domain-containing protein&lt;br&gt;Location: 388049 - 388580" locus_tag="HS041_32645" class="clusterblast-orf" id="dummy-1_q9_0_all"  />
<polygon points="200,35 205,30 212,30 212,40 205,40 200,35 " style="fill:white; stroke-width:1; stroke:black; " description="&lt;b&gt;HS041_32650&lt;/b&gt;&lt;br&gt;helix-turn-helix transcriptional regulator&lt;br&gt;Location: 388576 - 389389" locus_tag="HS041_32650" class="clusterblast-orf" id="dummy-1_q10_0_all"  />
<polygon points="214,40 226,40 231,35 226,30 214,30 214,40 " style="fill:white; stroke-width:1; stroke:black; " description="&lt;b&gt;HS041_32655&lt;/b&gt;&lt;br&gt;aminoglycoside phosphotransferase family protein&lt;br&gt;Location: 389556 - 390755" locus_tag="HS041_32655" class="clusterblast-orf" id="dummy-1_q11_0_all"  />
<polygon points="232,35 237,30 264,30 264,40 237,40 232,35 " style="fill:white; stroke-width:1; stroke:black; " description="&lt;b&gt;HS041_32660&lt;/b&gt;&lt;br&gt;accessory Sec system translocase SecA2&lt;br&gt;Location: 390821 - 393044" locus_tag="HS041_32660" class="clusterblast-orf" id="dummy-1_q12_0_all"  />
<polygon points="266,35 271,30 282,30 282,40 271,40 266,35 " style="fill:white; stroke-width:1; stroke:black; " description="&lt;b&gt;HS041_32665&lt;/b&gt;&lt;br&gt;helix-turn-helix domain-containing protein&lt;br&gt;Location: 393147 - 394269" locus_tag="HS041_32665" class="clusterblast-orf" id="dummy-1_q13_0_all"  />
<polygon points="285,40 291,40 296,35 291,30 285,30 285,40 " style="fill:#15d863; stroke-width:1; stroke:black; " description="&lt;b&gt;HS041_32670&lt;/b&gt;&lt;br&gt;class II aldolase/adducin family protein&lt;br&gt;Location: 394498 - 395290" locus_tag="HS041_32670" class="clusterblast-orf" id="dummy-1_q14_0_all"  />
<polygon points="297,35 302,30 323,30 323,40 302,40 297,35 " style="fill:white; stroke-width:1; stroke:black; " description="&lt;b&gt;HS041_32675&lt;/b&gt;&lt;br&gt;winged helix-turn-helix domain-containing protein&lt;br&gt;Location: 395347 - 397192" locus_tag="HS041_32675" class="clusterblast-orf" id="dummy-1_q15_0_all"  />
<polygon points="329,40 370,40 375,35 370,30 329,30 329,40 " style="fill:#1563d8; stroke-width:1; stroke:black; " description="&lt;b&gt;HS041_32680&lt;/b&gt;&lt;br&gt;amino acid adenylation domain-containing protein&lt;br&gt;Location: 397572 - 400794" locus_tag="HS041_32680" class="clusterblast-orf" id="dummy-1_q16_0_all"  />
<polygon points="375,40 451,40 456,35 451,30 375,30 375,40 " style="fill:#b115d8; stroke-width:1; stroke:black; " description="&lt;b&gt;HS041_32685&lt;/b&gt;&lt;br&gt;amino acid adenylation domain-containing protein&lt;br&gt;Location: 400790 - 406460" locus_tag="HS041_32685" class="clusterblast-orf" id="dummy-1_q17_0_all"  />
<polygon points="455,40 464,40 469,35 464,30 455,30 455,40 " style="fill:#b1d815; stroke-width:1; stroke:black; " description="&lt;b&gt;HS041_32690&lt;/b&gt;&lt;br&gt;TauD/TfdA family dioxygenase&lt;br&gt;Location: 406456 - 407431" locus_tag="HS041_32690" class="clusterblast-orf" id="dummy-1_q18_0_all"  />
<polygon points="472,40 490,40 495,35 490,30 472,30 472,40 " style="fill:white; stroke-width:1; stroke:black; " description="&lt;b&gt;HS041_32695&lt;/b&gt;&lt;br&gt;CHASE3 domain-containing protein&lt;br&gt;Location: 407635 - 409249" locus_tag="HS041_32695" class="clusterblast-orf" id="dummy-1_q19_0_all"  />
<polygon points="496,40 496,40 501,35 496,30 496,30 496,40 " style="fill:white; stroke-width:1; stroke:black; " description="&lt;b&gt;HS041_32700&lt;/b&gt;&lt;br&gt;VOC family protein&lt;br&gt;Location: 409274 - 409634" locus_tag="HS041_32700" class="clusterblast-orf" id="dummy-1_q20_0_all"  />
<polygon points="501,35 506,30 518,30 518,40 506,40 501,35 " style="fill:white; stroke-width:1; stroke:black; " description="&lt;b&gt;HS041_32705&lt;/b&gt;&lt;br&gt;M20 family metallopeptidase&lt;br&gt;Location: 409668 - 410853" locus_tag="HS041_32705" class="clusterblast-orf" id="dummy-1_q21_0_all"  />
<polygon points="524,35 529,30 537,30 537,40 529,40 524,35 " style="fill:white; stroke-width:1; stroke:black; " description="&lt;b&gt;HS041_32710&lt;/b&gt;&lt;br&gt;EamA family transporter&lt;br&gt;Location: 411249 - 412152" locus_tag="HS041_32710" class="clusterblast-orf" id="dummy-1_q22_0_all"  />
<polygon points="543,40 550,40 555,35 550,30 543,30 543,40 " style="fill:white; stroke-width:1; stroke:black; " description="&lt;b&gt;HS041_32715&lt;/b&gt;&lt;br&gt;DMT family transporter&lt;br&gt;Location: 412573 - 413440" locus_tag="HS041_32715" class="clusterblast-orf" id="dummy-1_q23_0_all"  />
<polygon points="555,35 560,30 573,30 573,40 560,40 555,35 " style="fill:white; stroke-width:1; stroke:black; " description="&lt;b&gt;HS041_32720&lt;/b&gt;&lt;br&gt;FAD-dependent monooxygenase&lt;br&gt;Location: 413451 - 414669" locus_tag="HS041_32720" class="clusterblast-orf" id="dummy-1_q24_0_all"  />
<polygon points="574,40 578,40 583,35 578,30 574,30 574,40 " style="fill:white; stroke-width:1; stroke:black; " description="&lt;b&gt;HS041_32725&lt;/b&gt;&lt;br&gt;TetR/AcrR family transcriptional regulator&lt;br&gt;Location: 414741 - 415380" locus_tag="HS041_32725" class="clusterblast-orf" id="dummy-1_q25_0_all"  />
<polygon points="583,35 588,30 592,30 592,40 588,40 583,35 " style="fill:white; stroke-width:1; stroke:black; " description="&lt;b&gt;HS041_32730&lt;/b&gt;&lt;br&gt;GNAT family N-acetyltransferase&lt;br&gt;Location: 415410 - 416022" locus_tag="HS041_32730" class="clusterblast-orf" id="dummy-1_q26_0_all"  />
<polygon points="595,40 607,40 612,35 607,30 595,30 595,40 " style="fill:white; stroke-width:1; stroke:black; " description="&lt;b&gt;HS041_32735&lt;/b&gt;&lt;br&gt;acyl-CoA dehydrogenase family protein&lt;br&gt;Location: 416232 - 417447" locus_tag="HS041_32735" class="clusterblast-orf" id="dummy-1_q27_0_all"  />
<polygon points="612,40 624,40 629,35 624,30 612,30 612,40 " style="fill:white; stroke-width:1; stroke:black; " description="&lt;b&gt;HS041_32740&lt;/b&gt;&lt;br&gt;acyl-CoA dehydrogenase family protein&lt;br&gt;Location: 417443 - 418610" locus_tag="HS041_32740" class="clusterblast-orf" id="dummy-1_q28_0_all"  />
<polygon points="631,40 642,40 647,35 642,30 631,30 631,40 " style="fill:white; stroke-width:1; stroke:black; " description="&lt;b&gt;HS041_32745&lt;/b&gt;&lt;br&gt;acyl-CoA/acyl-ACP dehydrogenase&lt;br&gt;Location: 418784 - 419858" locus_tag="HS041_32745" class="clusterblast-orf" id="dummy-1_q29_0_all"  />
<polygon points="648,35 653,30 656,30 656,40 653,40 648,35 " style="fill:white; stroke-width:1; stroke:black; " description="&lt;b&gt;HS041_32750&lt;/b&gt;&lt;br&gt;helix-turn-helix transcriptional regulator&lt;br&gt;Location: 419935 - 420529" locus_tag="HS041_32750" class="clusterblast-orf" id="dummy-1_q30_0_all"  />
<polygon points="658,40 664,40 669,35 664,30 658,30 658,40 " style="fill:white; stroke-width:1; stroke:black; " description="&lt;b&gt;HS041_32755&lt;/b&gt;&lt;br&gt;SDR family oxidoreductase&lt;br&gt;Location: 420644 - 421451" locus_tag="HS041_32755" class="clusterblast-orf" id="dummy-1_q31_0_all"  />
<polygon points="669,35 674,30 677,30 677,40 674,40 669,35 " style="fill:white; stroke-width:1; stroke:black; " description="&lt;b&gt;HS041_32760&lt;/b&gt;&lt;br&gt;TetR/AcrR family transcriptional regulator&lt;br&gt;Location: 421419 - 422013" locus_tag="HS041_32760" class="clusterblast-orf" id="dummy-1_q32_0_all"  />
<polygon points="680,40 686,40 691,35 686,30 680,30 680,40 " style="fill:white; stroke-width:1; stroke:black; " description="&lt;b&gt;HS041_32765&lt;/b&gt;&lt;br&gt;NERD domain-containing protein&lt;br&gt;Location: 422196 - 422973" locus_tag="HS041_32765" class="clusterblast-orf" id="dummy-1_q33_0_all"  />
<polygon points="691,35 696,30 713,30 713,40 696,40 691,35 " style="fill:white; stroke-width:1; stroke:black; " description="&lt;b&gt;HS041_32770&lt;/b&gt;&lt;br&gt;VWA domain-containing protein&lt;br&gt;Location: 422993 - 424523" locus_tag="HS041_32770" class="clusterblast-orf" id="dummy-1_q34_0_all"  />
<polygon points="712,35 717,30 724,30 724,40 717,40 712,35 " style="fill:white; stroke-width:1; stroke:black; " description="&lt;b&gt;HS041_32775&lt;/b&gt;&lt;br&gt;MoxR family ATPase&lt;br&gt;Location: 424437 - 425289" locus_tag="HS041_32775" class="clusterblast-orf" id="dummy-1_q35_0_all"  />
<polygon points="726,35 730,30 730,40 726,35 " style="fill:white; stroke-width:1; stroke:black; " description="&lt;b&gt;HS041_32785&lt;/b&gt;&lt;br&gt;hypothetical protein&lt;br&gt;Location: 425429 - 425702" locus_tag="HS041_32785" class="clusterblast-orf" id="dummy-1_q36_0_all"  />
</g>
<g label="BGC0001800" description="BGC0001800_c1: theonellamide (14% of genes show similarity), NRP+Polyketide" class="clusterblast-cluster"  >
<text x="5" y="70" class="clusterblast-acc"  >
<a xlink:href="https://mibig.secondarymetabolites.org/go/BGC0001800/1" target="_blank">BGC0001800</a>: theonellamide                                                                    (14% of genes show similarity), NRP+Polyketide</text>
<line x1="10" y1="85" x2="778.0" y2="85" style="stroke-width:1; stroke:grey; "  />
</g>
<g id="a1_000"  >
<polygon points="0,90 111,90 116,85 111,80 0,80 0,90 " style="fill:white; stroke-width:1; stroke:black; " description="&lt;b&gt;AVI26388.1&lt;/b&gt;&lt;br&gt;polyketide synthase&lt;br&gt;Location: 622 - 8811" locus_tag="AVI26388.1" class="clusterblast-orf" id="dummy-1_h1_2_0"  />
</g>
<g id="a1_001"  >
<polygon points="117,90 191,90 196,85 191,80 117,80 117,90 " style="fill:white; stroke-width:1; stroke:black; " description="&lt;b&gt;AVI26389.1&lt;/b&gt;&lt;br&gt;polyketide synthase&lt;br&gt;Location: 8825 - 14383" locus_tag="AVI26389.1" class="clusterblast-orf" id="dummy-1_h1_2_1"  />
</g>
<g id="a1_002"  >
<polygon points="196,90 398,90 403,85 398,80 196,80 196,90 " style="fill:#b115d8; stroke-width:1; stroke:black; " description="&lt;b&gt;AVI26390.1&lt;/b&gt;&lt;br&gt;polyketide synthase / nonribosomal peptide synthase hybrid&lt;br&gt;Location: 14419 - 28872&lt;br&gt;&lt;br&gt;&lt;b&gt;BlastP hit with HS041_32685&lt;/b&gt;&lt;br&gt;Percentage identity: 47&lt;br&gt;Percentage coverage: 59&lt;br&gt;BLAST bit score: 898&lt;br&gt;E-value: 1.88e-277" locus_tag="AVI26390.1" class="clusterblast-orf" id="dummy-1_h1_2_2"  />
</g>
<g id="a1_003"  >
<polygon points="403,90 413,90 418,85 413,80 403,80 403,90 " style="fill:#b1d815; stroke-width:1; stroke:black; " description="&lt;b&gt;AVI26391.1&lt;/b&gt;&lt;br&gt;putative dioxygenase&lt;br&gt;Location: 28877 - 29941&lt;br&gt;&lt;br&gt;&lt;b&gt;BlastP hit with HS041_32690&lt;/b&gt;&lt;br&gt;Percentage identity: 47&lt;br&gt;Percentage coverage: 90&lt;br&gt;BLAST bit score: 256&lt;br&gt;E-value: 2.59e-83" locus_tag="AVI26391.1" class="clusterblast-orf" id="dummy-1_h1_2_3"  />
</g>
<g id="a1_004"  >
<polygon points="418,90 490,90 495,85 490,80 418,80 418,90 " style="fill:white; stroke-width:1; stroke:black; " description="&lt;b&gt;AVI26392.1&lt;/b&gt;&lt;br&gt;putative nonribosomal peptide synthase&lt;br&gt;Location: 29947 - 35355" locus_tag="AVI26392.1" class="clusterblast-orf" id="dummy-1_h1_2_4"  />
</g>
<g id="a1_005"  >
<polygon points="495,90 662,90 667,85 662,80 495,80 495,90 " style="fill:white; stroke-width:1; stroke:black; " description="&lt;b&gt;AVI26393.1&lt;/b&gt;&lt;br&gt;nonribosomal peptide synthase&lt;br&gt;Location: 35352 - 47435" locus_tag="AVI26393.1" class="clusterblast-orf" id="dummy-1_h1_2_5"  />
</g>
<g id="a1_006"  >
<polygon points="667,90 677,90 682,85 677,80 667,80 667,90 " style="fill:white; stroke-width:1; stroke:black; " description="&lt;b&gt;AVI26394.1&lt;/b&gt;&lt;br&gt;putative monooxygenase&lt;br&gt;Location: 47425 - 48444" locus_tag="AVI26394.1" class="clusterblast-orf" id="dummy-1_h1_2_6"  />
</g>
<g id="a1_007"  >
<polygon points="682,90 713,90 718,85 713,80 682,80 682,90 " style="fill:white; stroke-width:1; stroke:black; " description="&lt;b&gt;AVI26395.1&lt;/b&gt;&lt;br&gt;nonribosomal peptide synthase-like protein&lt;br&gt;Location: 48492 - 50999" locus_tag="AVI26395.1" class="clusterblast-orf" id="dummy-1_h1_2_7"  />
</g>
<g id="a1_008"  >
<polygon points="720,90 734,90 739,85 734,80 720,80 720,90 " style="fill:white; stroke-width:1; stroke:black; " description="&lt;b&gt;AVI26396.1&lt;/b&gt;&lt;br&gt;glycosyltransferase&lt;br&gt;Location: 51115 - 52440" locus_tag="AVI26396.1" class="clusterblast-orf" id="dummy-1_h1_2_8"  />
</g>
<g id="a1_009"  >
<polygon points="741,85 746,80 750,80 750,90 746,90 741,85 " style="fill:white; stroke-width:1; stroke:black; " description="&lt;b&gt;AVI26397.1&lt;/b&gt;&lt;br&gt;DUF2063-containing hypothetical protein&lt;br&gt;Location: 52567 - 53190" locus_tag="AVI26397.1" class="clusterblast-orf" id="dummy-1_h1_2_9"  />
</g>
<g id="a1_0010"  >
<polygon points="751,85 753,80 753,90 751,85 " style="fill:white; stroke-width:1; stroke:black; " description="&lt;b&gt;AVI26398.1&lt;/b&gt;&lt;br&gt;hypothetical protein&lt;br&gt;Location: 53299 - 53436" locus_tag="AVI26398.1" class="clusterblast-orf" id="dummy-1_h1_2_10"  />
</g>
<g id="a1_0011"  >
<polygon points="756,90 756,90 761,85 756,80 756,80 756,90 " style="fill:white; stroke-width:1; stroke:black; " description="&lt;b&gt;AVI26399.1&lt;/b&gt;&lt;br&gt;putative dehydrogenase&lt;br&gt;Location: 53672 - 53992" locus_tag="AVI26399.1" class="clusterblast-orf" id="dummy-1_h1_2_11"  />
</g>
<g id="a1_0012"  >
<polygon points="765,85 770,80 773,80 773,90 770,90 765,85 " style="fill:white; stroke-width:1; stroke:black; " description="&lt;b&gt;AVI26400.1&lt;/b&gt;&lt;br&gt;transport protein&lt;br&gt;Location: 54264 - 54827" locus_tag="AVI26400.1" class="clusterblast-orf" id="dummy-1_h1_2_12"  />
</g>
<g id="a1_0013"  >
<polygon points="773,85 778,80 780,80 780,90 778,90 773,85 " style="fill:white; stroke-width:1; stroke:black; " description="&lt;b&gt;AVI26401.1&lt;/b&gt;&lt;br&gt;transport protein&lt;br&gt;Location: 54835 - 55291" locus_tag="AVI26401.1" class="clusterblast-orf" id="dummy-1_h1_2_13"  />
</g>
</svg>
