<svg xmlns="http://www.w3.org/2000/svg" xmlns:xlink="http://www.w3.org/1999/xlink" version="1.1" x="0" y="0" height="100" width="800" viewBox="0 0 800 100" preserveAspectRatio="none"  >
<g label="Query sequence" class="clusterblast-cluster"  >
<text x="5" y="20" class="clusterblast-acc"  >
Query sequence</text>
<line x1="10" y1="35" x2="778.0" y2="35" style="stroke-width:1; stroke:grey; "  />
<polygon points="74,40 124,40 129,35 124,30 74,30 74,40 " style="fill:white; stroke-width:1; stroke:black; " description="&lt;b&gt;HS041_34895&lt;/b&gt;&lt;br&gt;protoheme IX farnesyltransferase&lt;br&gt;Location: 68393 - 69347" locus_tag="HS041_34895" class="clusterblast-orf" id="knownclusterblast-1_q0_0_all"  />
<polygon points="134,40 195,40 200,35 195,30 134,30 134,40 " style="fill:white; stroke-width:1; stroke:black; " description="&lt;b&gt;HS041_34900&lt;/b&gt;&lt;br&gt;PrsW family intramembrane metalloprotease&lt;br&gt;Location: 69439 - 70588" locus_tag="HS041_34900" class="clusterblast-orf" id="knownclusterblast-1_q1_0_all"  />
<polygon points="199,35 204,30 244,30 244,40 204,40 199,35 " style="fill:white; stroke-width:1; stroke:black; " description="&lt;b&gt;HS041_34905&lt;/b&gt;&lt;br&gt;YdcF family protein&lt;br&gt;Location: 70572 - 71340" locus_tag="HS041_34905" class="clusterblast-orf" id="knownclusterblast-1_q2_0_all"  />
<polygon points="246,35 251,30 299,30 299,40 251,40 246,35 " style="fill:white; stroke-width:1; stroke:black; " description="&lt;b&gt;HS041_34910&lt;/b&gt;&lt;br&gt;heme A synthase&lt;br&gt;Location: 71388 - 72300" locus_tag="HS041_34910" class="clusterblast-orf" id="knownclusterblast-1_q3_0_all"  />
<polygon points="310,40 376,40 381,35 376,30 310,30 310,40 " style="fill:white; stroke-width:1; stroke:black; " description="&lt;b&gt;HS041_34915&lt;/b&gt;&lt;br&gt;FAD-binding oxidoreductase&lt;br&gt;Location: 72499 - 73717" locus_tag="HS041_34915" class="clusterblast-orf" id="knownclusterblast-1_q4_0_all"  />
<polygon points="383,40 400,40 405,35 400,30 383,30 383,40 " style="fill:white; stroke-width:1; stroke:black; " description="&lt;b&gt;HS041_34920&lt;/b&gt;&lt;br&gt;(2Fe-2S)-binding protein&lt;br&gt;Location: 73761 - 74139" locus_tag="HS041_34920" class="clusterblast-orf" id="knownclusterblast-1_q5_0_all"  />
<polygon points="405,40 488,40 493,35 488,30 405,30 405,40 " style="fill:white; stroke-width:1; stroke:black; " description="&lt;b&gt;HS041_34925&lt;/b&gt;&lt;br&gt;FAD-dependent oxidoreductase&lt;br&gt;Location: 74135 - 75656" locus_tag="HS041_34925" class="clusterblast-orf" id="knownclusterblast-1_q6_0_all"  />
<polygon points="492,40 539,40 544,35 539,30 492,30 492,40 " style="fill:#d81515; stroke-width:1; stroke:black; " description="&lt;b&gt;HS041_34930&lt;/b&gt;&lt;br&gt;dihydrodipicolinate synthase family protein&lt;br&gt;Location: 75655 - 76549" locus_tag="HS041_34930" class="clusterblast-orf" id="knownclusterblast-1_q7_0_all"  />
<polygon points="546,40 598,40 603,35 598,30 546,30 546,40 " style="fill:#15d815; stroke-width:1; stroke:black; " description="&lt;b&gt;HS041_34935&lt;/b&gt;&lt;br&gt;proline racemase family protein&lt;br&gt;Location: 76575 - 77577" locus_tag="HS041_34935" class="clusterblast-orf" id="knownclusterblast-1_q8_0_all"  />
<polygon points="608,40 642,40 647,35 642,30 608,30 608,40 " style="fill:#1515d8; stroke-width:1; stroke:black; " description="&lt;b&gt;HS041_34940&lt;/b&gt;&lt;br&gt;GntR family transcriptional regulator&lt;br&gt;Location: 77650 - 78337" locus_tag="HS041_34940" class="clusterblast-orf" id="knownclusterblast-1_q9_0_all"  />
<polygon points="654,35 659,30 706,30 706,40 659,40 654,35 " style="fill:white; stroke-width:1; stroke:black; " description="&lt;b&gt;HS041_34945&lt;/b&gt;&lt;br&gt;EamA family transporter&lt;br&gt;Location: 78449 - 79364" locus_tag="HS041_34945" class="clusterblast-orf" id="knownclusterblast-1_q10_0_all"  />
</g>
<g label="BGC0002285" description="BGC0002285_c1: aborycin (21% of genes show similarity), RiPP" class="clusterblast-cluster"  >
<text x="5" y="70" class="clusterblast-acc"  >
<a xlink:href="https://mibig.secondarymetabolites.org/go/BGC0002285/1" target="_blank">BGC0002285</a>: aborycin                                                                         (21% of genes show similarity), RiPP</text>
<line x1="10" y1="85" x2="778.0" y2="85" style="stroke-width:1; stroke:grey; "  />
</g>
<g id="a1_000"  >
<polygon points="0,90 46,90 51,85 46,80 0,80 0,90 " style="fill:#d81515; stroke-width:1; stroke:black; " description="&lt;b&gt;BIU87_04115&lt;/b&gt;&lt;br&gt;dihydrodipicolinate synthase family protein&lt;br&gt;Location: 919 - 1809&lt;br&gt;&lt;br&gt;&lt;b&gt;BlastP hit with HS041_34930&lt;/b&gt;&lt;br&gt;Percentage identity: 80&lt;br&gt;Percentage coverage: 98&lt;br&gt;BLAST bit score: 469&lt;br&gt;E-value: 2.48e-168" locus_tag="BIU87_04115" class="clusterblast-orf" id="knownclusterblast-1_all_1_1_0"  />
</g>
<g id="a1_001"  >
<polygon points="52,90 104,90 109,85 104,80 52,80 52,90 " style="fill:#15d815; stroke-width:1; stroke:black; " description="&lt;b&gt;BIU87_04120&lt;/b&gt;&lt;br&gt;proline racemase&lt;br&gt;Location: 1823 - 2824&lt;br&gt;&lt;br&gt;&lt;b&gt;BlastP hit with HS041_34935&lt;/b&gt;&lt;br&gt;Percentage identity: 76&lt;br&gt;Percentage coverage: 100&lt;br&gt;BLAST bit score: 511&lt;br&gt;E-value: 9.92e-184" locus_tag="BIU87_04120" class="clusterblast-orf" id="knownclusterblast-1_all_1_1_1"  />
</g>
<g id="a1_002"  >
<polygon points="109,90 143,90 148,85 143,80 109,80 109,90 " style="fill:#1515d8; stroke-width:1; stroke:black; " description="&lt;b&gt;BIU87_04125&lt;/b&gt;&lt;br&gt;GntR family transcriptional regulator&lt;br&gt;Location: 2821 - 3489&lt;br&gt;&lt;br&gt;&lt;b&gt;BlastP hit with HS041_34940&lt;/b&gt;&lt;br&gt;Percentage identity: 61&lt;br&gt;Percentage coverage: 93&lt;br&gt;BLAST bit score: 234&lt;br&gt;E-value: 3.86e-78" locus_tag="BIU87_04125" class="clusterblast-orf" id="knownclusterblast-1_all_1_1_2"  />
</g>
<g id="a1_003"  >
<polygon points="152,90 204,90 209,85 204,80 152,80 152,90 " style="fill:white; stroke-width:1; stroke:black; " description="&lt;b&gt;BIU87_04130&lt;/b&gt;&lt;br&gt;LacI family transcriptional regulator&lt;br&gt;Location: 3569 - 4546" locus_tag="BIU87_04130" class="clusterblast-orf" id="knownclusterblast-1_all_1_1_3"  />
</g>
<g id="a1_004"  >
<polygon points="217,90 289,90 294,85 289,80 217,80 217,90 " style="fill:white; stroke-width:1; stroke:black; " description="&lt;b&gt;BIU87_04135&lt;/b&gt;&lt;br&gt;sugar ABC transporter substrate-binding protein&lt;br&gt;Location: 4685 - 6028" locus_tag="BIU87_04135" class="clusterblast-orf" id="knownclusterblast-1_all_1_1_4"  />
</g>
<g id="a1_005"  >
<polygon points="294,90 344,90 349,85 344,80 294,80 294,90 " style="fill:white; stroke-width:1; stroke:black; " description="&lt;b&gt;BIU87_04140&lt;/b&gt;&lt;br&gt;ABC transporter permease&lt;br&gt;Location: 6031 - 6981" locus_tag="BIU87_04140" class="clusterblast-orf" id="knownclusterblast-1_all_1_1_5"  />
</g>
<g id="a1_006"  >
<polygon points="349,90 394,90 399,85 394,80 349,80 349,90 " style="fill:white; stroke-width:1; stroke:black; " description="&lt;b&gt;BIU87_04145&lt;/b&gt;&lt;br&gt;ABC transporter permease&lt;br&gt;Location: 6978 - 7844" locus_tag="BIU87_04145" class="clusterblast-orf" id="knownclusterblast-1_all_1_1_6"  />
</g>
<g id="a1_007"  >
<polygon points="401,90 487,90 492,85 487,80 401,80 401,90 " style="fill:white; stroke-width:1; stroke:black; " description="&lt;b&gt;BIU87_04150&lt;/b&gt;&lt;br&gt;alpha-glucosidase&lt;br&gt;Location: 7882 - 9459" locus_tag="BIU87_04150" class="clusterblast-orf" id="knownclusterblast-1_all_1_1_7"  />
</g>
<g id="a1_008"  >
<polygon points="509,85 514,80 562,80 562,90 514,90 509,85 " style="fill:white; stroke-width:1; stroke:black; " description="&lt;b&gt;BIU87_04155&lt;/b&gt;&lt;br&gt;sulfate ABC transporter permease&lt;br&gt;Location: 9752 - 10666" locus_tag="BIU87_04155" class="clusterblast-orf" id="knownclusterblast-1_all_1_1_8"  />
</g>
<g id="a1_009"  >
<polygon points="561,85 566,80 607,80 607,90 566,90 561,85 " style="fill:white; stroke-width:1; stroke:black; " description="&lt;b&gt;BIU87_04160&lt;/b&gt;&lt;br&gt;sulfate ABC transporter ATP-binding protein&lt;br&gt;Location: 10653 - 11450" locus_tag="BIU87_04160" class="clusterblast-orf" id="knownclusterblast-1_all_1_1_9"  />
</g>
<g id="a1_0010"  >
<polygon points="609,85 614,80 673,80 673,90 614,90 609,85 " style="fill:white; stroke-width:1; stroke:black; " description="&lt;b&gt;BIU87_04165&lt;/b&gt;&lt;br&gt;sulfate ABC transporter substrate-binding protein&lt;br&gt;Location: 11485 - 12591" locus_tag="BIU87_04165" class="clusterblast-orf" id="knownclusterblast-1_all_1_1_10"  />
</g>
<g id="a1_0011"  >
<polygon points="697,85 702,80 724,80 724,90 702,90 697,85 " style="fill:white; stroke-width:1; stroke:black; " description="&lt;b&gt;BIU87_04170&lt;/b&gt;&lt;br&gt;Rrf2 family transcriptional regulator&lt;br&gt;Location: 13017 - 13475" locus_tag="BIU87_04170" class="clusterblast-orf" id="knownclusterblast-1_all_1_1_11"  />
</g>
<g id="a1_0012"  >
<polygon points="728,85 733,80 745,80 745,90 733,90 728,85 " style="fill:white; stroke-width:1; stroke:black; " description="&lt;b&gt;BIU87_04175&lt;/b&gt;&lt;br&gt;hypothetical protein&lt;br&gt;Location: 13545 - 13850" locus_tag="BIU87_04175" class="clusterblast-orf" id="knownclusterblast-1_all_1_1_12"  />
</g>
<g id="a1_0013"  >
<polygon points="745,85 750,80 780,80 780,90 750,90 745,85 " style="fill:white; stroke-width:1; stroke:black; " description="&lt;b&gt;BIU87_04180&lt;/b&gt;&lt;br&gt;transcriptional regulator&lt;br&gt;Location: 13852 - 14445" locus_tag="BIU87_04180" class="clusterblast-orf" id="knownclusterblast-1_all_1_1_13"  />
</g>
</svg>
