<svg xmlns="http://www.w3.org/2000/svg" xmlns:xlink="http://www.w3.org/1999/xlink" version="1.1" x="0" y="0" height="230" width="800" viewBox="0 0 800 230" preserveAspectRatio="none"  >
<g label="Query sequence" class="clusterblast-cluster"  >
<text x="5" y="20" class="clusterblast-acc"  >
Query sequence</text>
<line x1="10" y1="35" x2="778.0" y2="35" style="stroke-width:1; stroke:grey; "  />
<polygon points="150,35 155,30 165,30 165,40 155,40 150,35 " style="fill:white; stroke-width:1; stroke:black; " description="&lt;b&gt;HS041_36530&lt;/b&gt;&lt;br&gt;LysR family transcriptional regulator&lt;br&gt;Location: 418494 - 419457" locus_tag="HS041_36530" class="clusterblast-orf" id="dummy-3_q0_0_all"  />
<polygon points="172,40 186,40 191,35 186,30 172,30 172,40 " style="fill:#d81515; stroke-width:1; stroke:black; " description="&lt;b&gt;HS041_36535&lt;/b&gt;&lt;br&gt;arginine deiminase&lt;br&gt;Location: 419904 - 421152" locus_tag="HS041_36535" class="clusterblast-orf" id="dummy-3_q1_0_all"  />
<polygon points="191,40 202,40 207,35 202,30 191,30 191,40 " style="fill:#15d815; stroke-width:1; stroke:black; " description="&lt;b&gt;HS041_36540&lt;/b&gt;&lt;br&gt;ornithine carbamoyltransferase&lt;br&gt;Location: 421178 - 422183" locus_tag="HS041_36540" class="clusterblast-orf" id="dummy-3_q2_0_all"  />
<polygon points="208,35 213,30 219,30 219,40 213,40 208,35 " style="fill:#1515d8; stroke-width:1; stroke:black; " description="&lt;b&gt;HS041_36545&lt;/b&gt;&lt;br&gt;thioesterase&lt;br&gt;Location: 422231 - 422939" locus_tag="HS041_36545" class="clusterblast-orf" id="dummy-3_q3_0_all"  />
<polygon points="219,35 224,30 242,30 242,40 224,40 219,35 " style="fill:white; stroke-width:1; stroke:black; " description="&lt;b&gt;HS041_36550&lt;/b&gt;&lt;br&gt;MFS transporter&lt;br&gt;Location: 422971 - 424405" locus_tag="HS041_36550" class="clusterblast-orf" id="dummy-3_q4_0_all"  />
<polygon points="243,35 248,30 256,30 256,40 248,40 243,35 " style="fill:#d815d8; stroke-width:1; stroke:black; " description="&lt;b&gt;HS041_36555&lt;/b&gt;&lt;br&gt;methyltransferase domain-containing protein&lt;br&gt;Location: 424476 - 425313" locus_tag="HS041_36555" class="clusterblast-orf" id="dummy-3_q5_0_all"  />
<polygon points="256,35 261,30 268,30 268,40 261,40 256,35 " style="fill:white; stroke-width:1; stroke:black; " description="&lt;b&gt;HS041_36560&lt;/b&gt;&lt;br&gt;class I SAM-dependent methyltransferase&lt;br&gt;Location: 425339 - 426083" locus_tag="HS041_36560" class="clusterblast-orf" id="dummy-3_q6_0_all"  />
<polygon points="268,35 273,30 281,30 281,40 273,40 268,35 " style="fill:white; stroke-width:1; stroke:black; " description="&lt;b&gt;HS041_36565&lt;/b&gt;&lt;br&gt;class I SAM-dependent methyltransferase&lt;br&gt;Location: 426079 - 426922" locus_tag="HS041_36565" class="clusterblast-orf" id="dummy-3_q7_0_all"  />
<polygon points="281,35 286,30 308,30 308,40 286,40 281,35 " style="fill:white; stroke-width:1; stroke:black; " description="&lt;b&gt;HS041_36570&lt;/b&gt;&lt;br&gt;hypothetical protein&lt;br&gt;Location: 426937 - 428644" locus_tag="HS041_36570" class="clusterblast-orf" id="dummy-3_q8_0_all"  />
<polygon points="307,35 312,30 314,30 314,40 312,40 307,35 " style="fill:white; stroke-width:1; stroke:black; " description="&lt;b&gt;HS041_36575&lt;/b&gt;&lt;br&gt;hypothetical protein&lt;br&gt;Location: 428640 - 429072" locus_tag="HS041_36575" class="clusterblast-orf" id="dummy-3_q9_0_all"  />
<polygon points="314,35 319,30 339,30 339,40 319,40 314,35 " style="fill:white; stroke-width:1; stroke:black; " description="&lt;b&gt;HS041_36580&lt;/b&gt;&lt;br&gt;hypothetical protein&lt;br&gt;Location: 429068 - 430640" locus_tag="HS041_36580" class="clusterblast-orf" id="dummy-3_q10_0_all"  />
<polygon points="341,40 348,40 353,35 348,30 341,30 341,40 " style="fill:white; stroke-width:1; stroke:black; " description="&lt;b&gt;HS041_36585&lt;/b&gt;&lt;br&gt;serine/threonine protein kinase&lt;br&gt;Location: 430794 - 431598" locus_tag="HS041_36585" class="clusterblast-orf" id="dummy-3_q11_0_all"  />
<polygon points="353,35 358,30 373,30 373,40 358,40 353,35 " style="fill:white; stroke-width:1; stroke:black; " description="&lt;b&gt;HS041_36590&lt;/b&gt;&lt;br&gt;MFS transporter&lt;br&gt;Location: 431587 - 432871" locus_tag="HS041_36590" class="clusterblast-orf" id="dummy-3_q12_0_all"  />
<polygon points="374,35 378,30 378,40 374,35 " style="fill:#d8d815; stroke-width:1; stroke:black; " description="&lt;b&gt;HS041_36595&lt;/b&gt;&lt;br&gt;MbtH family NRPS accessory protein&lt;br&gt;Location: 432924 - 433152" locus_tag="HS041_36595" class="clusterblast-orf" id="dummy-3_q13_0_all"  />
<polygon points="378,35 383,30 396,30 396,40 383,40 378,35 " style="fill:white; stroke-width:1; stroke:black; " description="&lt;b&gt;HS041_36600&lt;/b&gt;&lt;br&gt;VCBS repeat-containing protein&lt;br&gt;Location: 433179 - 434334" locus_tag="HS041_36600" class="clusterblast-orf" id="dummy-3_q14_0_all"  />
<polygon points="396,35 401,30 405,30 405,40 401,40 396,35 " style="fill:white; stroke-width:1; stroke:black; " description="&lt;b&gt;HS041_36605&lt;/b&gt;&lt;br&gt;hypothetical protein&lt;br&gt;Location: 434330 - 434945" locus_tag="HS041_36605" class="clusterblast-orf" id="dummy-3_q15_0_all"  />
<polygon points="406,35 411,30 426,30 426,40 411,40 406,35 " style="fill:white; stroke-width:1; stroke:black; " description="&lt;b&gt;HS041_36610&lt;/b&gt;&lt;br&gt;cytochrome P450&lt;br&gt;Location: 434956 - 436270" locus_tag="HS041_36610" class="clusterblast-orf" id="dummy-3_q16_0_all"  />
<polygon points="426,35 431,30 442,30 442,40 431,40 426,35 " style="fill:white; stroke-width:1; stroke:black; " description="&lt;b&gt;HS041_36615&lt;/b&gt;&lt;br&gt;methyltransferase&lt;br&gt;Location: 436266 - 437283" locus_tag="HS041_36615" class="clusterblast-orf" id="dummy-3_q17_0_all"  />
<polygon points="442,35 447,30 510,30 510,40 447,40 442,35 " style="fill:white; stroke-width:1; stroke:black; " description="&lt;b&gt;HS041_36620&lt;/b&gt;&lt;br&gt;amino acid adenylation domain-containing protein&lt;br&gt;Location: 437279 - 441701" locus_tag="HS041_36620" class="clusterblast-orf" id="dummy-3_q18_0_all"  />
<polygon points="510,35 515,30 556,30 556,40 515,40 510,35 " style="fill:#15d8d8; stroke-width:1; stroke:black; " description="&lt;b&gt;HS041_36625&lt;/b&gt;&lt;br&gt;acyltransferase domain-containing protein&lt;br&gt;Location: 441697 - 444619" locus_tag="HS041_36625" class="clusterblast-orf" id="dummy-3_q19_0_all"  />
<polygon points="556,35 561,30 630,30 630,40 561,40 556,35 " style="fill:white; stroke-width:1; stroke:black; " description="&lt;b&gt;HS041_36630&lt;/b&gt;&lt;br&gt;AMP-binding protein&lt;br&gt;Location: 444624 - 449361" locus_tag="HS041_36630" class="clusterblast-orf" id="dummy-3_q20_0_all"  />
</g>
<g label="BGC0002001" description="BGC0002001_c1: crochelin A (8% of genes show similarity), NRP+Polyketide" class="clusterblast-cluster"  >
<text x="5" y="70" class="clusterblast-acc"  >
<a xlink:href="https://mibig.secondarymetabolites.org/go/BGC0002001/1" target="_blank">BGC0002001</a>: crochelin A                                                                      (8% of genes show similarity), NRP+Polyketide</text>
<line x1="10" y1="85" x2="778.0" y2="85" style="stroke-width:1; stroke:grey; "  />
</g>
<g id="a3_000"  >
<polygon points="0,90 6,90 11,85 6,80 0,80 0,90 " style="fill:white; stroke-width:1; stroke:black; " description="&lt;b&gt;Achr_RS19525&lt;/b&gt;&lt;br&gt;ATP-binding cassette domain-containing protein&lt;br&gt;Location: 1 - 768" locus_tag="Achr_RS19525" class="clusterblast-orf" id="dummy-3_h3_2_0"  />
</g>
<g id="a3_001"  >
<polygon points="17,85 22,80 37,80 37,90 22,90 17,85 " style="fill:white; stroke-width:1; stroke:black; " description="&lt;b&gt;Achr_RS19530&lt;/b&gt;&lt;br&gt;PepSY domain-containing protein&lt;br&gt;Location: 1101 - 2444" locus_tag="Achr_RS19530" class="clusterblast-orf" id="dummy-3_h3_2_1"  />
</g>
<g id="a3_002"  >
<polygon points="37,85 42,80 63,80 63,90 42,90 37,85 " style="fill:white; stroke-width:1; stroke:black; " description="&lt;b&gt;Achr_RS19535&lt;/b&gt;&lt;br&gt;cyclic peptide export ABC transporter&lt;br&gt;Location: 2441 - 4102" locus_tag="Achr_RS19535" class="clusterblast-orf" id="dummy-3_h3_2_2"  />
</g>
<g id="a3_003"  >
<polygon points="65,85 70,80 104,80 104,90 70,90 65,85 " style="fill:white; stroke-width:1; stroke:black; " description="&lt;b&gt;Achr_RS19540&lt;/b&gt;&lt;br&gt;penicillin acylase family protein&lt;br&gt;Location: 4234 - 6720" locus_tag="Achr_RS19540" class="clusterblast-orf" id="dummy-3_h3_2_3"  />
</g>
<g id="a3_004"  >
<polygon points="106,85 111,80 122,80 122,90 111,90 106,85 " style="fill:white; stroke-width:1; stroke:black; " description="&lt;b&gt;Achr_RS19545&lt;/b&gt;&lt;br&gt;histone deacetylase family protein&lt;br&gt;Location: 6836 - 7879" locus_tag="Achr_RS19545" class="clusterblast-orf" id="dummy-3_h3_2_4"  />
</g>
<g id="a3_005"  >
<polygon points="122,85 127,80 135,80 135,90 127,90 122,85 " style="fill:white; stroke-width:1; stroke:black; " description="&lt;b&gt;Achr_RS19550&lt;/b&gt;&lt;br&gt;N(5)-hydroxyornithine transformylase PvdF&lt;br&gt;Location: 7892 - 8716" locus_tag="Achr_RS19550" class="clusterblast-orf" id="dummy-3_h3_2_5"  />
</g>
<g id="a3_006"  >
<polygon points="141,90 158,90 163,85 158,80 141,80 141,90 " style="fill:white; stroke-width:1; stroke:black; " description="&lt;b&gt;Achr_RS19555&lt;/b&gt;&lt;br&gt;diaminobutyrate--2-oxoglutarate transaminase&lt;br&gt;Location: 9082 - 10524" locus_tag="Achr_RS19555" class="clusterblast-orf" id="dummy-3_h3_2_6"  />
</g>
<g id="a3_007"  >
<polygon points="164,90 194,90 199,85 194,80 164,80 164,90 " style="fill:white; stroke-width:1; stroke:black; " description="&lt;b&gt;Achr_RS19560&lt;/b&gt;&lt;br&gt;TonB-dependent siderophore receptor&lt;br&gt;Location: 10590 - 12854" locus_tag="Achr_RS19560" class="clusterblast-orf" id="dummy-3_h3_2_7"  />
</g>
<g id="a3_008"  >
<polygon points="203,85 208,80 266,80 266,90 208,90 203,85 " style="fill:white; stroke-width:1; stroke:black; " description="&lt;b&gt;Achr_RS19570&lt;/b&gt;&lt;br&gt;non-ribosomal peptide synthetase&lt;br&gt;Location: 13069 - 17136" locus_tag="Achr_RS19570" class="clusterblast-orf" id="dummy-3_h3_2_8"  />
</g>
<g id="a3_009"  >
<polygon points="266,85 271,80 387,80 387,90 271,90 266,85 " style="fill:white; stroke-width:1; stroke:black; " description="&lt;b&gt;Achr_RS19575&lt;/b&gt;&lt;br&gt;non-ribosomal peptide synthetase&lt;br&gt;Location: 17133 - 24944" locus_tag="Achr_RS19575" class="clusterblast-orf" id="dummy-3_h3_2_9"  />
</g>
<g id="a3_0010"  >
<polygon points="387,85 392,80 439,80 439,90 392,90 387,85 " style="fill:white; stroke-width:1; stroke:black; " description="&lt;b&gt;Achr_RS19580&lt;/b&gt;&lt;br&gt;non-ribosomal peptide synthetase&lt;br&gt;Location: 24948 - 28274" locus_tag="Achr_RS19580" class="clusterblast-orf" id="dummy-3_h3_2_10"  />
</g>
<g id="a3_0011"  >
<polygon points="446,85 451,80 517,80 517,90 451,90 446,85 " style="fill:#15d8d8; stroke-width:1; stroke:black; " description="&lt;b&gt;Achr_RS19585&lt;/b&gt;&lt;br&gt;type I polyketide synthase&lt;br&gt;Location: 28716 - 33278&lt;br&gt;&lt;br&gt;&lt;b&gt;BlastP hit with HS041_36625&lt;/b&gt;&lt;br&gt;Percentage identity: 50&lt;br&gt;Percentage coverage: 91&lt;br&gt;BLAST bit score: 753&lt;br&gt;E-value: 2.39e-252" locus_tag="Achr_RS19585" class="clusterblast-orf" id="dummy-3_h3_2_11"  />
</g>
<g id="a3_0012"  >
<polygon points="517,85 522,80 599,80 599,90 522,90 517,85 " style="fill:white; stroke-width:1; stroke:black; " description="&lt;b&gt;Achr_RS19590&lt;/b&gt;&lt;br&gt;non-ribosomal peptide synthetase&lt;br&gt;Location: 33275 - 38572" locus_tag="Achr_RS19590" class="clusterblast-orf" id="dummy-3_h3_2_12"  />
</g>
<g id="a3_0013"  >
<polygon points="600,85 605,80 615,80 615,90 605,90 600,85 " style="fill:white; stroke-width:1; stroke:black; " description="&lt;b&gt;Achr_RS19595&lt;/b&gt;&lt;br&gt;TauD/TfdA family dioxygenase&lt;br&gt;Location: 38601 - 39578" locus_tag="Achr_RS19595" class="clusterblast-orf" id="dummy-3_h3_2_13"  />
</g>
<g id="a3_0014"  >
<polygon points="616,85 621,80 627,80 627,90 621,90 616,85 " style="fill:white; stroke-width:1; stroke:black; " description="&lt;b&gt;Achr_RS19600&lt;/b&gt;&lt;br&gt;alpha/beta fold hydrolase&lt;br&gt;Location: 39660 - 40397" locus_tag="Achr_RS19600" class="clusterblast-orf" id="dummy-3_h3_2_14"  />
</g>
<g id="a3_0015"  >
<polygon points="628,85 631,80 631,90 628,85 " style="fill:#d8d815; stroke-width:1; stroke:black; " description="&lt;b&gt;Achr_RS19605&lt;/b&gt;&lt;br&gt;MbtH family NRPS accessory protein&lt;br&gt;Location: 40408 - 40650&lt;br&gt;&lt;br&gt;&lt;b&gt;BlastP hit with HS041_36595&lt;/b&gt;&lt;br&gt;Percentage identity: 51&lt;br&gt;Percentage coverage: 79&lt;br&gt;BLAST bit score: 68&lt;br&gt;E-value: 1.3e-16" locus_tag="Achr_RS19605" class="clusterblast-orf" id="dummy-3_h3_2_15"  />
</g>
<g id="a3_0016"  >
<polygon points="636,90 637,90 642,85 637,80 636,80 636,90 " style="fill:white; stroke-width:1; stroke:black; " description="&lt;b&gt;Achr_RS19610&lt;/b&gt;&lt;br&gt;DUF4880 domain-containing protein&lt;br&gt;Location: 40938 - 41354" locus_tag="Achr_RS19610" class="clusterblast-orf" id="dummy-3_h3_2_16"  />
</g>
<g id="a3_0017"  >
<polygon points="645,90 658,90 663,85 658,80 645,80 645,90 " style="fill:white; stroke-width:1; stroke:black; " description="&lt;b&gt;Achr_RS19615&lt;/b&gt;&lt;br&gt;efflux RND transporter periplasmic adaptor subunit&lt;br&gt;Location: 41499 - 42650" locus_tag="Achr_RS19615" class="clusterblast-orf" id="dummy-3_h3_2_17"  />
</g>
<g id="a3_0018"  >
<polygon points="664,90 681,90 686,85 681,80 664,80 664,90 " style="fill:white; stroke-width:1; stroke:black; " description="&lt;b&gt;Achr_RS19620&lt;/b&gt;&lt;br&gt;efflux transporter outer membrane subunit&lt;br&gt;Location: 42738 - 44171" locus_tag="Achr_RS19620" class="clusterblast-orf" id="dummy-3_h3_2_18"  />
</g>
<g id="a3_0019"  >
<polygon points="690,90 693,90 698,85 693,80 690,80 690,90 " style="fill:white; stroke-width:1; stroke:black; " description="&lt;b&gt;Achr_RS19625&lt;/b&gt;&lt;br&gt;RNA polymerase factor sigma-70&lt;br&gt;Location: 44415 - 44960" locus_tag="Achr_RS19625" class="clusterblast-orf" id="dummy-3_h3_2_19"  />
</g>
<g id="a3_0020"  >
<polygon points="702,90 702,90 707,85 702,80 702,80 702,90 " style="fill:white; stroke-width:1; stroke:black; " description="&lt;b&gt;Achr_RS19630&lt;/b&gt;&lt;br&gt;hypothetical protein&lt;br&gt;Location: 45166 - 45540" locus_tag="Achr_RS19630" class="clusterblast-orf" id="dummy-3_h3_2_20"  />
</g>
<g id="a3_0021"  >
<polygon points="711,85 716,80 732,80 732,90 716,90 711,85 " style="fill:white; stroke-width:1; stroke:black; " description="&lt;b&gt;Achr_RS19635&lt;/b&gt;&lt;br&gt;lysine N(6)-hydroxylase/L-ornithine N(5)-oxygenase family protein&lt;br&gt;Location: 45792 - 47093" locus_tag="Achr_RS19635" class="clusterblast-orf" id="dummy-3_h3_2_21"  />
</g>
<g id="a3_0022"  >
<polygon points="734,85 739,80 742,80 742,90 739,90 734,85 " style="fill:white; stroke-width:1; stroke:black; " description="&lt;b&gt;Achr_RS19640&lt;/b&gt;&lt;br&gt;hypothetical protein&lt;br&gt;Location: 47222 - 47743" locus_tag="Achr_RS19640" class="clusterblast-orf" id="dummy-3_h3_2_22"  />
</g>
<g id="a3_0023"  >
<polygon points="742,85 747,80 775,80 775,90 747,90 742,85 " style="fill:white; stroke-width:1; stroke:black; " description="&lt;b&gt;Achr_RS24430&lt;/b&gt;&lt;br&gt;condensation domain-containing protein&lt;br&gt;Location: 47794 - 49899" locus_tag="Achr_RS24430" class="clusterblast-orf" id="dummy-3_h3_2_23"  />
</g>
<g id="a3_0024"  >
<polygon points="776,85 780,80 780,90 776,85 " style="fill:white; stroke-width:1; stroke:black; " description="&lt;b&gt;Achr_RS19650&lt;/b&gt;&lt;br&gt;MbtH family protein&lt;br&gt;Location: 49972 - 50175" locus_tag="Achr_RS19650" class="clusterblast-orf" id="dummy-3_h3_2_24"  />
</g>
</svg>
