<svg xmlns="http://www.w3.org/2000/svg" xmlns:xlink="http://www.w3.org/1999/xlink" version="1.1" x="0" y="0" height="230" width="800" viewBox="0 0 800 230" preserveAspectRatio="none"  >
<g label="Query sequence" class="clusterblast-cluster"  >
<text x="5" y="20" class="clusterblast-acc"  >
Query sequence</text>
<line x1="10" y1="35" x2="778.0" y2="35" style="stroke-width:1; stroke:grey; "  />
<polygon points="39,35 44,30 49,30 49,40 44,40 39,35 " style="fill:white; stroke-width:1; stroke:black; " description="&lt;b&gt;HS041_24500&lt;/b&gt;&lt;br&gt;DUF418 domain-containing protein&lt;br&gt;Location: 622987 - 623959" locus_tag="HS041_24500" class="clusterblast-orf" id="dummy-2_q0_0_all"  />
<polygon points="53,40 63,40 68,35 63,30 53,30 53,40 " style="fill:white; stroke-width:1; stroke:black; " description="&lt;b&gt;HS041_24505&lt;/b&gt;&lt;br&gt;beta-glucosidase&lt;br&gt;Location: 624265 - 625642" locus_tag="HS041_24505" class="clusterblast-orf" id="dummy-2_q1_0_all"  />
<polygon points="69,40 76,40 81,35 76,30 69,30 69,40 " style="fill:white; stroke-width:1; stroke:black; " description="&lt;b&gt;HS041_24510&lt;/b&gt;&lt;br&gt;pyridoxal phosphate-dependent aminotransferase&lt;br&gt;Location: 625713 - 626877" locus_tag="HS041_24510" class="clusterblast-orf" id="dummy-2_q2_0_all"  />
<polygon points="84,35 89,30 98,30 98,40 89,40 84,35 " style="fill:white; stroke-width:1; stroke:black; " description="&lt;b&gt;HS041_24515&lt;/b&gt;&lt;br&gt;extracellular solute-binding protein&lt;br&gt;Location: 627094 - 628411" locus_tag="HS041_24515" class="clusterblast-orf" id="dummy-2_q3_0_all"  />
<polygon points="98,35 103,30 118,30 118,40 103,40 98,35 " style="fill:white; stroke-width:1; stroke:black; " description="&lt;b&gt;HS041_24520&lt;/b&gt;&lt;br&gt;substrate-binding domain-containing protein&lt;br&gt;Location: 628407 - 630228" locus_tag="HS041_24520" class="clusterblast-orf" id="dummy-2_q4_0_all"  />
<polygon points="122,35 127,30 132,30 132,40 127,40 122,35 " style="fill:white; stroke-width:1; stroke:black; " description="&lt;b&gt;HS041_24525&lt;/b&gt;&lt;br&gt;LysR family transcriptional regulator&lt;br&gt;Location: 630533 - 631478" locus_tag="HS041_24525" class="clusterblast-orf" id="dummy-2_q5_0_all"  />
<polygon points="133,40 134,40 139,35 134,30 133,30 133,40 " style="fill:white; stroke-width:1; stroke:black; " description="&lt;b&gt;HS041_24530&lt;/b&gt;&lt;br&gt;peroxiredoxin&lt;br&gt;Location: 631522 - 632128" locus_tag="HS041_24530" class="clusterblast-orf" id="dummy-2_q6_0_all"  />
<polygon points="139,40 140,40 145,35 140,30 139,30 139,40 " style="fill:white; stroke-width:1; stroke:black; " description="&lt;b&gt;HS041_24535&lt;/b&gt;&lt;br&gt;carboxymuconolactone decarboxylase family protein&lt;br&gt;Location: 632127 - 632664" locus_tag="HS041_24535" class="clusterblast-orf" id="dummy-2_q7_0_all"  />
<polygon points="146,35 151,30 154,30 154,40 151,40 146,35 " style="fill:white; stroke-width:1; stroke:black; " description="&lt;b&gt;HS041_24540&lt;/b&gt;&lt;br&gt;DUF2306 domain-containing protein&lt;br&gt;Location: 632703 - 633429" locus_tag="HS041_24540" class="clusterblast-orf" id="dummy-2_q8_0_all"  />
<polygon points="156,35 161,30 177,30 177,40 161,40 156,35 " style="fill:white; stroke-width:1; stroke:black; " description="&lt;b&gt;HS041_24545&lt;/b&gt;&lt;br&gt;methyl-accepting chemotaxis protein&lt;br&gt;Location: 633630 - 635592" locus_tag="HS041_24545" class="clusterblast-orf" id="dummy-2_q9_0_all"  />
<polygon points="179,35 184,30 196,30 196,40 184,40 179,35 " style="fill:white; stroke-width:1; stroke:black; " description="&lt;b&gt;HS041_24550&lt;/b&gt;&lt;br&gt;MFS transporter&lt;br&gt;Location: 635751 - 637305" locus_tag="HS041_24550" class="clusterblast-orf" id="dummy-2_q10_0_all"  />
<polygon points="197,40 198,40 203,35 198,30 197,30 197,40 " style="fill:white; stroke-width:1; stroke:black; " description="&lt;b&gt;HS041_24555&lt;/b&gt;&lt;br&gt;TetR family transcriptional regulator&lt;br&gt;Location: 637386 - 637947" locus_tag="HS041_24555" class="clusterblast-orf" id="dummy-2_q11_0_all"  />
<polygon points="205,40 220,40 225,35 220,30 205,30 205,40 " style="fill:#d81515; stroke-width:1; stroke:black; " description="&lt;b&gt;HS041_24560&lt;/b&gt;&lt;br&gt;fatty acyl-AMP ligase&lt;br&gt;Location: 638084 - 639938" locus_tag="HS041_24560" class="clusterblast-orf" id="dummy-2_q12_0_all"  />
<polygon points="225,40 228,35 225,30 225,40 " style="fill:white; stroke-width:1; stroke:black; " description="&lt;b&gt;HS041_24565&lt;/b&gt;&lt;br&gt;acyl carrier protein&lt;br&gt;Location: 639940 - 640210" locus_tag="HS041_24565" class="clusterblast-orf" id="dummy-2_q13_0_all"  />
<polygon points="228,40 250,40 255,35 250,30 228,30 228,40 " style="fill:white; stroke-width:1; stroke:black; " description="&lt;b&gt;HS041_24570&lt;/b&gt;&lt;br&gt;MMPL family transporter&lt;br&gt;Location: 640209 - 642597" locus_tag="HS041_24570" class="clusterblast-orf" id="dummy-2_q14_0_all"  />
<polygon points="257,40 393,40 398,35 393,30 257,30 257,40 " style="fill:#77d815; stroke-width:1; stroke:black; " description="&lt;b&gt;HS041_24575&lt;/b&gt;&lt;br&gt;amino acid adenylation domain-containing protein&lt;br&gt;Location: 642778 - 655606" locus_tag="HS041_24575" class="clusterblast-orf" id="dummy-2_q15_0_all"  />
<polygon points="398,40 465,40 470,35 465,30 398,30 398,40 " style="fill:#77d815; stroke-width:1; stroke:black; " description="&lt;b&gt;HS041_24580&lt;/b&gt;&lt;br&gt;amino acid adenylation domain-containing protein&lt;br&gt;Location: 655602 - 662178" locus_tag="HS041_24580" class="clusterblast-orf" id="dummy-2_q16_0_all"  />
<polygon points="473,40 476,35 473,30 473,40 " style="fill:#77d815; stroke-width:1; stroke:black; " description="&lt;b&gt;HS041_24585&lt;/b&gt;&lt;br&gt;hypothetical protein&lt;br&gt;Location: 662472 - 662742" locus_tag="HS041_24585" class="clusterblast-orf" id="dummy-2_q17_0_all"  />
<polygon points="479,40 483,40 488,35 483,30 479,30 479,40 " style="fill:#77d815; stroke-width:1; stroke:black; " description="&lt;b&gt;HS041_24590&lt;/b&gt;&lt;br&gt;non-ribosomal peptide synthetase&lt;br&gt;Location: 662967 - 663780" locus_tag="HS041_24590" class="clusterblast-orf" id="dummy-2_q18_0_all"  />
<polygon points="488,40 527,40 532,35 527,30 488,30 488,40 " style="fill:#77d815; stroke-width:1; stroke:black; " description="&lt;b&gt;HS041_24595&lt;/b&gt;&lt;br&gt;amino acid adenylation domain-containing protein&lt;br&gt;Location: 663830 - 667796" locus_tag="HS041_24595" class="clusterblast-orf" id="dummy-2_q19_0_all"  />
<polygon points="532,40 534,35 532,30 532,40 " style="fill:#15d8d8; stroke-width:1; stroke:black; " description="&lt;b&gt;HS041_24600&lt;/b&gt;&lt;br&gt;MbtH family protein&lt;br&gt;Location: 667792 - 668002" locus_tag="HS041_24600" class="clusterblast-orf" id="dummy-2_q20_0_all"  />
<polygon points="535,40 538,40 543,35 538,30 535,30 535,40 " style="fill:#7715d8; stroke-width:1; stroke:black; " description="&lt;b&gt;HS041_24605&lt;/b&gt;&lt;br&gt;thioesterase&lt;br&gt;Location: 668060 - 668804" locus_tag="HS041_24605" class="clusterblast-orf" id="dummy-2_q21_0_all"  />
<polygon points="543,35 548,30 553,30 553,40 548,40 543,35 " style="fill:white; stroke-width:1; stroke:black; " description="&lt;b&gt;HS041_24610&lt;/b&gt;&lt;br&gt;alpha/beta fold hydrolase&lt;br&gt;Location: 668770 - 669661" locus_tag="HS041_24610" class="clusterblast-orf" id="dummy-2_q22_0_all"  />
<polygon points="555,40 561,40 566,35 561,30 555,30 555,40 " style="fill:white; stroke-width:1; stroke:black; " description="&lt;b&gt;HS041_24615&lt;/b&gt;&lt;br&gt;carbamate kinase&lt;br&gt;Location: 669904 - 670849" locus_tag="HS041_24615" class="clusterblast-orf" id="dummy-2_q23_0_all"  />
<polygon points="566,40 573,40 578,35 573,30 566,30 566,40 " style="fill:white; stroke-width:1; stroke:black; " description="&lt;b&gt;HS041_24620&lt;/b&gt;&lt;br&gt;ring-opening amidohydrolase&lt;br&gt;Location: 670875 - 671976" locus_tag="HS041_24620" class="clusterblast-orf" id="dummy-2_q24_0_all"  />
<polygon points="579,40 580,40 585,35 580,30 579,30 579,40 " style="fill:white; stroke-width:1; stroke:black; " description="&lt;b&gt;HS041_24625&lt;/b&gt;&lt;br&gt;SseB family protein&lt;br&gt;Location: 672076 - 672640" locus_tag="HS041_24625" class="clusterblast-orf" id="dummy-2_q25_0_all"  />
<polygon points="585,35 588,30 588,40 585,35 " style="fill:white; stroke-width:1; stroke:black; " description="&lt;b&gt;HS041_24630&lt;/b&gt;&lt;br&gt;hypothetical protein&lt;br&gt;Location: 672560 - 672875" locus_tag="HS041_24630" class="clusterblast-orf" id="dummy-2_q26_0_all"  />
<polygon points="589,40 594,40 599,35 594,30 589,30 589,40 " style="fill:white; stroke-width:1; stroke:black; " description="&lt;b&gt;HS041_24635&lt;/b&gt;&lt;br&gt;prepilin peptidase&lt;br&gt;Location: 672979 - 673852" locus_tag="HS041_24635" class="clusterblast-orf" id="dummy-2_q27_0_all"  />
<polygon points="601,40 601,40 606,35 601,30 601,30 601,40 " style="fill:white; stroke-width:1; stroke:black; " description="&lt;b&gt;HS041_24640&lt;/b&gt;&lt;br&gt;SRPBCC domain-containing protein&lt;br&gt;Location: 674041 - 674542" locus_tag="HS041_24640" class="clusterblast-orf" id="dummy-2_q28_0_all"  />
<polygon points="609,40 618,40 623,35 618,30 609,30 609,40 " style="fill:white; stroke-width:1; stroke:black; " description="&lt;b&gt;HS041_24645&lt;/b&gt;&lt;br&gt;GAF domain-containing sensor histidine kinase&lt;br&gt;Location: 674791 - 676051" locus_tag="HS041_24645" class="clusterblast-orf" id="dummy-2_q29_0_all"  />
<polygon points="625,35 630,30 659,30 659,40 630,40 625,35 " style="fill:white; stroke-width:1; stroke:black; " description="&lt;b&gt;HS041_24650&lt;/b&gt;&lt;br&gt;winged helix-turn-helix domain-containing protein&lt;br&gt;Location: 676214 - 679352" locus_tag="HS041_24650" class="clusterblast-orf" id="dummy-2_q30_0_all"  />
<polygon points="664,35 669,30 670,30 670,40 669,40 664,35 " style="fill:white; stroke-width:1; stroke:black; " description="&lt;b&gt;HS041_24655&lt;/b&gt;&lt;br&gt;hypothetical protein&lt;br&gt;Location: 679751 - 680321" locus_tag="HS041_24655" class="clusterblast-orf" id="dummy-2_q31_0_all"  />
<polygon points="673,40 681,40 686,35 681,30 673,30 673,40 " style="fill:white; stroke-width:1; stroke:black; " description="&lt;b&gt;HS041_24660&lt;/b&gt;&lt;br&gt;chorismate synthase&lt;br&gt;Location: 680551 - 681727" locus_tag="HS041_24660" class="clusterblast-orf" id="dummy-2_q32_0_all"  />
<polygon points="686,40 686,40 691,35 686,30 686,30 686,40 " style="fill:white; stroke-width:1; stroke:black; " description="&lt;b&gt;HS041_24665&lt;/b&gt;&lt;br&gt;shikimate kinase&lt;br&gt;Location: 681723 - 682227" locus_tag="HS041_24665" class="clusterblast-orf" id="dummy-2_q33_0_all"  />
<polygon points="692,40 698,40 703,35 698,30 692,30 692,40 " style="fill:white; stroke-width:1; stroke:black; " description="&lt;b&gt;HS041_24670&lt;/b&gt;&lt;br&gt;3-dehydroquinate synthase&lt;br&gt;Location: 682273 - 683350" locus_tag="HS041_24670" class="clusterblast-orf" id="dummy-2_q34_0_all"  />
<polygon points="704,40 704,40 709,35 704,30 704,30 704,40 " style="fill:white; stroke-width:1; stroke:black; " description="&lt;b&gt;HS041_24675&lt;/b&gt;&lt;br&gt;type II 3-dehydroquinate dehydratase&lt;br&gt;Location: 683419 - 683851" locus_tag="HS041_24675" class="clusterblast-orf" id="dummy-2_q35_0_all"  />
<polygon points="710,40 714,40 719,35 714,30 710,30 710,40 " style="fill:white; stroke-width:1; stroke:black; " description="&lt;b&gt;HS041_24680&lt;/b&gt;&lt;br&gt;SGNH/GDSL hydrolase family protein&lt;br&gt;Location: 683949 - 684729" locus_tag="HS041_24680" class="clusterblast-orf" id="dummy-2_q36_0_all"  />
<polygon points="719,35 724,30 741,30 741,40 724,40 719,35 " style="fill:white; stroke-width:1; stroke:black; " description="&lt;b&gt;HS041_24685&lt;/b&gt;&lt;br&gt;ATP-dependent DNA helicase&lt;br&gt;Location: 684757 - 686725" locus_tag="HS041_24685" class="clusterblast-orf" id="dummy-2_q37_0_all"  />
</g>
<g label="BGC0000354" description="BGC0000354_c1: friulimicin A/friulimicin B/friulimicin C/friulimicin D (15% of genes show similarity), NRP" class="clusterblast-cluster"  >
<text x="5" y="70" class="clusterblast-acc"  >
<a xlink:href="https://mibig.secondarymetabolites.org/go/BGC0000354/1" target="_blank">BGC0000354</a>: friulimicin A/friulimicin B/friulimicin C/friulimicin D                          (15% of genes show similarity), NRP</text>
<line x1="10" y1="85" x2="778.0" y2="85" style="stroke-width:1; stroke:grey; "  />
</g>
<g id="a2_000"  >
<polygon points="0,85 5,80 15,80 15,90 5,90 0,85 " style="fill:white; stroke-width:1; stroke:black; " description="&lt;b&gt;CAM56763.1&lt;/b&gt;&lt;br&gt;hypothetical protein&lt;br&gt;Location: 1 - 1411" locus_tag="CAM56763.1" class="clusterblast-orf" id="dummy-2_h2_1_0"  />
</g>
<g id="a2_001"  >
<polygon points="17,90 21,90 26,85 21,80 17,80 17,90 " style="fill:white; stroke-width:1; stroke:black; " description="&lt;b&gt;CAM56764.1&lt;/b&gt;&lt;br&gt;putative alkaline phosphatase&lt;br&gt;Location: 1614 - 2438" locus_tag="CAM56764.1" class="clusterblast-orf" id="dummy-2_h2_1_1"  />
</g>
<g id="a2_002"  >
<polygon points="33,90 36,90 41,85 36,80 33,80 33,90 " style="fill:white; stroke-width:1; stroke:black; " description="&lt;b&gt;CAM56765.1&lt;/b&gt;&lt;br&gt;regulatory protein A&lt;br&gt;Location: 3057 - 3785" locus_tag="CAM56765.1" class="clusterblast-orf" id="dummy-2_h2_1_2"  />
</g>
<g id="a2_003"  >
<polygon points="43,90 49,90 54,85 49,80 43,80 43,90 " style="fill:white; stroke-width:1; stroke:black; " description="&lt;b&gt;CAM56766.1&lt;/b&gt;&lt;br&gt;ExpB&lt;br&gt;Location: 3964 - 4917" locus_tag="CAM56766.1" class="clusterblast-orf" id="dummy-2_h2_1_3"  />
</g>
<g id="a2_004"  >
<polygon points="54,90 60,90 65,85 60,80 54,80 54,90 " style="fill:white; stroke-width:1; stroke:black; " description="&lt;b&gt;CAM56767.1&lt;/b&gt;&lt;br&gt;DabA&lt;br&gt;Location: 4914 - 5987" locus_tag="CAM56767.1" class="clusterblast-orf" id="dummy-2_h2_1_4"  />
</g>
<g id="a2_005"  >
<polygon points="65,90 76,90 81,85 76,80 65,80 65,90 " style="fill:white; stroke-width:1; stroke:black; " description="&lt;b&gt;CAM56768.1&lt;/b&gt;&lt;br&gt;DabB&lt;br&gt;Location: 5984 - 7426" locus_tag="CAM56768.1" class="clusterblast-orf" id="dummy-2_h2_1_5"  />
</g>
<g id="a2_006"  >
<polygon points="81,90 90,90 95,85 90,80 81,80 81,90 " style="fill:white; stroke-width:1; stroke:black; " description="&lt;b&gt;CAM56769.1&lt;/b&gt;&lt;br&gt;DabC&lt;br&gt;Location: 7423 - 8646" locus_tag="CAM56769.1" class="clusterblast-orf" id="dummy-2_h2_1_6"  />
</g>
<g id="a2_007"  >
<polygon points="95,90 125,90 130,85 125,80 95,80 95,90 " style="fill:white; stroke-width:1; stroke:black; " description="&lt;b&gt;CAD32904.2&lt;/b&gt;&lt;br&gt;non-ribosomal peptide synthetase A&lt;br&gt;Location: 8643 - 11831" locus_tag="CAD32904.2" class="clusterblast-orf" id="dummy-2_h2_1_7"  />
</g>
<g id="a2_008"  >
<polygon points="130,90 135,90 140,85 135,80 130,80 130,90 " style="fill:white; stroke-width:1; stroke:black; " description="&lt;b&gt;CAD32905.1&lt;/b&gt;&lt;br&gt;hypothetical protein&lt;br&gt;Location: 11828 - 12736" locus_tag="CAD32905.1" class="clusterblast-orf" id="dummy-2_h2_1_8"  />
</g>
<g id="a2_009"  >
<polygon points="140,85 145,80 150,80 150,90 145,90 140,85 " style="fill:white; stroke-width:1; stroke:black; " description="&lt;b&gt;CAD32906.1&lt;/b&gt;&lt;br&gt;regulatory protein B&lt;br&gt;Location: 12792 - 13697" locus_tag="CAD32906.1" class="clusterblast-orf" id="dummy-2_h2_1_9"  />
</g>
<g id="a2_0010"  >
<polygon points="151,85 156,80 160,80 160,90 156,90 151,85 " style="fill:white; stroke-width:1; stroke:black; " description="&lt;b&gt;CAD32907.1&lt;/b&gt;&lt;br&gt;ABC transporter protein&lt;br&gt;Location: 13714 - 14553" locus_tag="CAD32907.1" class="clusterblast-orf" id="dummy-2_h2_1_10"  />
</g>
<g id="a2_0011"  >
<polygon points="160,85 165,80 173,80 173,90 165,90 160,85 " style="fill:white; stroke-width:1; stroke:black; " description="&lt;b&gt;CAD32908.1&lt;/b&gt;&lt;br&gt;glutamate mutase subunit B&lt;br&gt;Location: 14550 - 15797" locus_tag="CAD32908.1" class="clusterblast-orf" id="dummy-2_h2_1_11"  />
</g>
<g id="a2_0012"  >
<polygon points="173,85 178,80 178,80 178,90 178,90 173,85 " style="fill:white; stroke-width:1; stroke:black; " description="&lt;b&gt;CAD32909.1&lt;/b&gt;&lt;br&gt;glutamate mutase subunit A&lt;br&gt;Location: 15794 - 16231" locus_tag="CAD32909.1" class="clusterblast-orf" id="dummy-2_h2_1_12"  />
</g>
<g id="a2_0013"  >
<polygon points="181,90 196,90 201,85 196,80 181,80 181,90 " style="fill:#d81515; stroke-width:1; stroke:black; " description="&lt;b&gt;CAD32910.2&lt;/b&gt;&lt;br&gt;acyl-CoA synthase&lt;br&gt;Location: 16501 - 18267&lt;br&gt;&lt;br&gt;&lt;b&gt;BlastP hit with HS041_24560&lt;/b&gt;&lt;br&gt;Percentage identity: 47&lt;br&gt;Percentage coverage: 89&lt;br&gt;BLAST bit score: 436&lt;br&gt;E-value: 5.31e-146" locus_tag="CAD32910.2" class="clusterblast-orf" id="dummy-2_h2_1_13"  />
</g>
<g id="a2_0014"  >
<polygon points="201,90 213,90 218,85 213,80 201,80 201,90 " style="fill:white; stroke-width:1; stroke:black; " description="&lt;b&gt;CAJ18234.2&lt;/b&gt;&lt;br&gt;acyl-CoA dehydrogenase&lt;br&gt;Location: 18264 - 19802" locus_tag="CAJ18234.2" class="clusterblast-orf" id="dummy-2_h2_1_14"  />
</g>
<g id="a2_0015"  >
<polygon points="218,90 220,90 225,85 220,80 218,80 218,90 " style="fill:white; stroke-width:1; stroke:black; " description="&lt;b&gt;CAJ18235.1&lt;/b&gt;&lt;br&gt;hypothetical protein&lt;br&gt;Location: 19799 - 20506" locus_tag="CAJ18235.1" class="clusterblast-orf" id="dummy-2_h2_1_15"  />
</g>
<g id="a2_0016"  >
<polygon points="226,90 228,85 226,80 226,90 " style="fill:white; stroke-width:1; stroke:black; " description="&lt;b&gt;CAJ18236.1&lt;/b&gt;&lt;br&gt;acyl carrier protein&lt;br&gt;Location: 20524 - 20790" locus_tag="CAJ18236.1" class="clusterblast-orf" id="dummy-2_h2_1_16"  />
</g>
<g id="a2_0017"  >
<polygon points="229,90 328,90 333,85 328,80 229,80 229,90 " style="fill:#77d815; stroke-width:1; stroke:black; " description="&lt;b&gt;CAJ18237.2&lt;/b&gt;&lt;br&gt;non-ribosomal peptide synthetase B&lt;br&gt;Location: 20826 - 30257&lt;br&gt;&lt;br&gt;&lt;b&gt;BlastP hit with HS041_24585&lt;/b&gt;&lt;br&gt;Percentage identity: 53&lt;br&gt;Percentage coverage: 94&lt;br&gt;BLAST bit score: 90&lt;br&gt;E-value: 2.2e-22&lt;br&gt;&lt;br&gt;&lt;b&gt;BlastP hit with HS041_24590&lt;/b&gt;&lt;br&gt;Percentage identity: 52&lt;br&gt;Percentage coverage: 104&lt;br&gt;BLAST bit score: 264&lt;br&gt;E-value: 2.45e-80" locus_tag="CAJ18237.2" class="clusterblast-orf" id="dummy-2_h2_1_17"  />
</g>
<g id="a2_0018"  >
<polygon points="333,90 548,90 553,85 548,80 333,80 333,90 " style="fill:#77d815; stroke-width:1; stroke:black; " description="&lt;b&gt;CAM56770.1&lt;/b&gt;&lt;br&gt;&lt;br&gt;Location: 30254 - 50239&lt;br&gt;&lt;br&gt;&lt;b&gt;BlastP hit with HS041_24575&lt;/b&gt;&lt;br&gt;Percentage identity: 46&lt;br&gt;Percentage coverage: 54&lt;br&gt;BLAST bit score: 1704&lt;br&gt;E-value: 0.0&lt;br&gt;&lt;br&gt;&lt;b&gt;BlastP hit with HS041_24580&lt;/b&gt;&lt;br&gt;Percentage identity: 47&lt;br&gt;Percentage coverage: 102&lt;br&gt;BLAST bit score: 1710&lt;br&gt;E-value: 0.0&lt;br&gt;&lt;br&gt;&lt;b&gt;BlastP hit with HS041_24585&lt;/b&gt;&lt;br&gt;Percentage identity: 55&lt;br&gt;Percentage coverage: 91&lt;br&gt;BLAST bit score: 96&lt;br&gt;E-value: 2.84e-24&lt;br&gt;&lt;br&gt;&lt;b&gt;BlastP hit with HS041_24590&lt;/b&gt;&lt;br&gt;Percentage identity: 51&lt;br&gt;Percentage coverage: 105&lt;br&gt;BLAST bit score: 255&lt;br&gt;E-value: 3.09e-77" locus_tag="CAM56770.1" class="clusterblast-orf" id="dummy-2_h2_1_18"  />
</g>
<g id="a2_0019"  >
<polygon points="553,90 626,90 631,85 626,80 553,80 553,90 " style="fill:#77d815; stroke-width:1; stroke:black; " description="&lt;b&gt;CAM56771.1&lt;/b&gt;&lt;br&gt;&lt;br&gt;Location: 50239 - 57351&lt;br&gt;&lt;br&gt;&lt;b&gt;BlastP hit with HS041_24575&lt;/b&gt;&lt;br&gt;Percentage identity: 46&lt;br&gt;Percentage coverage: 52&lt;br&gt;BLAST bit score: 1591&lt;br&gt;E-value: 0.0&lt;br&gt;&lt;br&gt;&lt;b&gt;BlastP hit with HS041_24580&lt;/b&gt;&lt;br&gt;Percentage identity: 48&lt;br&gt;Percentage coverage: 99&lt;br&gt;BLAST bit score: 1650&lt;br&gt;E-value: 0.0&lt;br&gt;&lt;br&gt;&lt;b&gt;BlastP hit with HS041_24595&lt;/b&gt;&lt;br&gt;Percentage identity: 50&lt;br&gt;Percentage coverage: 84&lt;br&gt;BLAST bit score: 917&lt;br&gt;E-value: 9.44e-302" locus_tag="CAM56771.1" class="clusterblast-orf" id="dummy-2_h2_1_19"  />
</g>
<g id="a2_0020"  >
<polygon points="631,90 634,85 631,80 631,90 " style="fill:#15d8d8; stroke-width:1; stroke:black; " description="&lt;b&gt;CAM56772.1&lt;/b&gt;&lt;br&gt;hypothetical protein&lt;br&gt;Location: 57381 - 57593&lt;br&gt;&lt;br&gt;&lt;b&gt;BlastP hit with HS041_24600&lt;/b&gt;&lt;br&gt;Percentage identity: 67&lt;br&gt;Percentage coverage: 96&lt;br&gt;BLAST bit score: 103&lt;br&gt;E-value: 3.73e-31" locus_tag="CAM56772.1" class="clusterblast-orf" id="dummy-2_h2_1_20"  />
</g>
<g id="a2_0021"  >
<polygon points="635,90 639,90 644,85 639,80 635,80 635,90 " style="fill:white; stroke-width:1; stroke:black; " description="&lt;b&gt;CAM56773.1&lt;/b&gt;&lt;br&gt;LipE&lt;br&gt;Location: 57669 - 58475" locus_tag="CAM56773.1" class="clusterblast-orf" id="dummy-2_h2_1_21"  />
</g>
<g id="a2_0022"  >
<polygon points="644,85 649,80 670,80 670,90 649,90 644,85 " style="fill:white; stroke-width:1; stroke:black; " description="&lt;b&gt;CAM56774.1&lt;/b&gt;&lt;br&gt;Mem&lt;br&gt;Location: 58561 - 60852" locus_tag="CAM56774.1" class="clusterblast-orf" id="dummy-2_h2_1_22"  />
</g>
<g id="a2_0023"  >
<polygon points="673,90 679,90 684,85 679,80 673,80 673,90 " style="fill:white; stroke-width:1; stroke:black; " description="&lt;b&gt;CAM56775.1&lt;/b&gt;&lt;br&gt;lysine cyclodeaminase&lt;br&gt;Location: 61160 - 62179" locus_tag="CAM56775.1" class="clusterblast-orf" id="dummy-2_h2_1_23"  />
</g>
<g id="a2_0024"  >
<polygon points="684,85 689,80 691,80 691,90 689,90 684,85 " style="fill:white; stroke-width:1; stroke:black; " description="&lt;b&gt;CAM56776.1&lt;/b&gt;&lt;br&gt;regulatory protein C&lt;br&gt;Location: 62183 - 62827" locus_tag="CAM56776.1" class="clusterblast-orf" id="dummy-2_h2_1_24"  />
</g>
<g id="a2_0025"  >
<polygon points="691,85 696,80 707,80 707,90 696,90 691,85 " style="fill:white; stroke-width:1; stroke:black; " description="&lt;b&gt;CAM56777.1&lt;/b&gt;&lt;br&gt;regulatory protein D&lt;br&gt;Location: 62818 - 64197" locus_tag="CAM56777.1" class="clusterblast-orf" id="dummy-2_h2_1_25"  />
</g>
<g id="a2_0026"  >
<polygon points="707,90 708,90 713,85 708,80 707,80 707,90 " style="fill:white; stroke-width:1; stroke:black; " description="&lt;b&gt;CAM56778.1&lt;/b&gt;&lt;br&gt;hypothetical protein&lt;br&gt;Location: 64196 - 64807" locus_tag="CAM56778.1" class="clusterblast-orf" id="dummy-2_h2_1_26"  />
</g>
<g id="a2_0027"  >
<polygon points="715,90 727,90 732,85 727,80 715,80 715,90 " style="fill:white; stroke-width:1; stroke:black; " description="&lt;b&gt;CAM56779.1&lt;/b&gt;&lt;br&gt;Mem2&lt;br&gt;Location: 64951 - 66540" locus_tag="CAM56779.1" class="clusterblast-orf" id="dummy-2_h2_1_27"  />
</g>
<g id="a2_0028"  >
<polygon points="733,90 735,90 740,85 735,80 733,80 733,90 " style="fill:white; stroke-width:1; stroke:black; " description="&lt;b&gt;CAM56780.1&lt;/b&gt;&lt;br&gt;regulatory protein E&lt;br&gt;Location: 66581 - 67204" locus_tag="CAM56780.1" class="clusterblast-orf" id="dummy-2_h2_1_28"  />
</g>
<g id="a2_0029"  >
<polygon points="740,90 745,90 750,85 745,80 740,80 740,90 " style="fill:white; stroke-width:1; stroke:black; " description="&lt;b&gt;CAM56781.1&lt;/b&gt;&lt;br&gt;hypothetical protein&lt;br&gt;Location: 67201 - 68169" locus_tag="CAM56781.1" class="clusterblast-orf" id="dummy-2_h2_1_29"  />
</g>
<g id="a2_0030"  >
<polygon points="751,90 756,90 761,85 756,80 751,80 751,90 " style="fill:white; stroke-width:1; stroke:black; " description="&lt;b&gt;CAM56782.1&lt;/b&gt;&lt;br&gt;hypothetical protein&lt;br&gt;Location: 68230 - 69102" locus_tag="CAM56782.1" class="clusterblast-orf" id="dummy-2_h2_1_30"  />
</g>
<g id="a2_0031"  >
<polygon points="763,90 771,90 776,85 771,80 763,80 763,90 " style="fill:white; stroke-width:1; stroke:black; " description="&lt;b&gt;CAM56783.1&lt;/b&gt;&lt;br&gt;hypothetical protein&lt;br&gt;Location: 69316 - 70509" locus_tag="CAM56783.1" class="clusterblast-orf" id="dummy-2_h2_1_31"  />
</g>
<g id="a2_0032"  >
<polygon points="777,90 780,85 777,80 777,90 " style="fill:white; stroke-width:1; stroke:black; " description="&lt;b&gt;CAM56784.1&lt;/b&gt;&lt;br&gt;hypothetical protein&lt;br&gt;Location: 70587 - 70820" locus_tag="CAM56784.1" class="clusterblast-orf" id="dummy-2_h2_1_32"  />
</g>
</svg>
