<svg xmlns="http://www.w3.org/2000/svg" xmlns:xlink="http://www.w3.org/1999/xlink" version="1.1" x="0" y="0" height="230" width="800" viewBox="0 0 800 230" preserveAspectRatio="none"  >
<g label="Query sequence" class="clusterblast-cluster"  >
<text x="5" y="20" class="clusterblast-acc"  >
Query sequence</text>
<line x1="10" y1="35" x2="778.0" y2="35" style="stroke-width:1; stroke:grey; "  />
<polygon points="0,40 7,40 12,35 7,30 0,30 0,40 " style="fill:white; stroke-width:1; stroke:black; " description="&lt;b&gt;HS041_13695&lt;/b&gt;&lt;br&gt;helix-turn-helix domain-containing protein&lt;br&gt;Location: 216230 - 217061" locus_tag="HS041_13695" class="clusterblast-orf" id="dummy-2_q0_0_all"  />
<polygon points="13,40 28,40 33,35 28,30 13,30 13,40 " style="fill:white; stroke-width:1; stroke:black; " description="&lt;b&gt;HS041_13700&lt;/b&gt;&lt;br&gt;30S ribosomal protein S12 methylthiotransferase RimO&lt;br&gt;Location: 217141 - 218551" locus_tag="HS041_13700" class="clusterblast-orf" id="dummy-2_q1_0_all"  />
<polygon points="33,40 37,40 42,35 37,30 33,30 33,40 " style="fill:white; stroke-width:1; stroke:black; " description="&lt;b&gt;HS041_13705&lt;/b&gt;&lt;br&gt;CDP-diacylglycerol--glycerol-3-phosphate 3-phosphatidyltransferase&lt;br&gt;Location: 218576 - 219185" locus_tag="HS041_13705" class="clusterblast-orf" id="dummy-2_q2_0_all"  />
<polygon points="42,40 44,40 49,35 44,30 42,30 42,40 " style="fill:white; stroke-width:1; stroke:black; " description="&lt;b&gt;HS041_13710&lt;/b&gt;&lt;br&gt;nicotinamide-nucleotide amidohydrolase family protein&lt;br&gt;Location: 219181 - 219703" locus_tag="HS041_13710" class="clusterblast-orf" id="dummy-2_q3_0_all"  />
<polygon points="52,40 53,40 58,35 53,30 52,30 52,40 " style="fill:white; stroke-width:1; stroke:black; " description="&lt;b&gt;HS041_13715&lt;/b&gt;&lt;br&gt;helix-turn-helix transcriptional regulator&lt;br&gt;Location: 219910 - 220306" locus_tag="HS041_13715" class="clusterblast-orf" id="dummy-2_q4_0_all"  />
<polygon points="59,35 64,30 70,30 70,40 64,40 59,35 " style="fill:white; stroke-width:1; stroke:black; " description="&lt;b&gt;HS041_13720&lt;/b&gt;&lt;br&gt;Fpg/Nei family DNA glycosylase&lt;br&gt;Location: 220355 - 221135" locus_tag="HS041_13720" class="clusterblast-orf" id="dummy-2_q5_0_all"  />
<polygon points="71,35 76,30 77,30 77,40 76,40 71,35 " style="fill:white; stroke-width:1; stroke:black; " description="&lt;b&gt;HS041_13725&lt;/b&gt;&lt;br&gt;Rrf2 family transcriptional regulator&lt;br&gt;Location: 221187 - 221637" locus_tag="HS041_13725" class="clusterblast-orf" id="dummy-2_q6_0_all"  />
<polygon points="80,40 92,40 97,35 92,30 80,30 80,40 " style="fill:white; stroke-width:1; stroke:black; " description="&lt;b&gt;HS041_13730&lt;/b&gt;&lt;br&gt;ROK family protein&lt;br&gt;Location: 221824 - 223003" locus_tag="HS041_13730" class="clusterblast-orf" id="dummy-2_q7_0_all"  />
<polygon points="97,35 102,30 122,30 122,40 102,40 97,35 " style="fill:white; stroke-width:1; stroke:black; " description="&lt;b&gt;HS041_13735&lt;/b&gt;&lt;br&gt;glycoside hydrolase family 3 protein&lt;br&gt;Location: 223008 - 224733" locus_tag="HS041_13735" class="clusterblast-orf" id="dummy-2_q8_0_all"  />
<polygon points="123,35 128,30 144,30 144,40 128,40 123,35 " style="fill:white; stroke-width:1; stroke:black; " description="&lt;b&gt;HS041_13740&lt;/b&gt;&lt;br&gt;glycoside hydrolase family 3 protein&lt;br&gt;Location: 224847 - 226302" locus_tag="HS041_13740" class="clusterblast-orf" id="dummy-2_q9_0_all"  />
<polygon points="146,35 151,30 159,30 159,40 151,40 146,35 " style="fill:white; stroke-width:1; stroke:black; " description="&lt;b&gt;HS041_13745&lt;/b&gt;&lt;br&gt;carbohydrate ABC transporter permease&lt;br&gt;Location: 226399 - 227305" locus_tag="HS041_13745" class="clusterblast-orf" id="dummy-2_q10_0_all"  />
<polygon points="159,35 164,30 173,30 173,40 164,40 159,35 " style="fill:white; stroke-width:1; stroke:black; " description="&lt;b&gt;HS041_13750&lt;/b&gt;&lt;br&gt;sugar ABC transporter permease&lt;br&gt;Location: 227301 - 228315" locus_tag="HS041_13750" class="clusterblast-orf" id="dummy-2_q11_0_all"  />
<polygon points="173,35 178,30 192,30 192,40 178,40 173,35 " style="fill:white; stroke-width:1; stroke:black; " description="&lt;b&gt;HS041_13755&lt;/b&gt;&lt;br&gt;extracellular solute-binding protein&lt;br&gt;Location: 228317 - 229652" locus_tag="HS041_13755" class="clusterblast-orf" id="dummy-2_q12_0_all"  />
<polygon points="195,40 207,40 212,35 207,30 195,30 195,40 " style="fill:white; stroke-width:1; stroke:black; " description="&lt;b&gt;HS041_13760&lt;/b&gt;&lt;br&gt;ROK family transcriptional regulator&lt;br&gt;Location: 229856 - 231017" locus_tag="HS041_13760" class="clusterblast-orf" id="dummy-2_q13_0_all"  />
<polygon points="212,40 216,40 221,35 216,30 212,30 212,40 " style="fill:white; stroke-width:1; stroke:black; " description="&lt;b&gt;HS041_13765&lt;/b&gt;&lt;br&gt;M15 family metallopeptidase&lt;br&gt;Location: 231028 - 231673" locus_tag="HS041_13765" class="clusterblast-orf" id="dummy-2_q14_0_all"  />
<polygon points="222,35 227,30 248,30 248,40 227,40 222,35 " style="fill:white; stroke-width:1; stroke:black; " description="&lt;b&gt;HS041_13770&lt;/b&gt;&lt;br&gt;hypothetical protein&lt;br&gt;Location: 231712 - 233524" locus_tag="HS041_13770" class="clusterblast-orf" id="dummy-2_q15_0_all"  />
<polygon points="249,35 254,30 268,30 268,40 254,40 249,35 " style="fill:white; stroke-width:1; stroke:black; " description="&lt;b&gt;HS041_13775&lt;/b&gt;&lt;br&gt;non-ribosomal peptide synthetase condensation domain protein&lt;br&gt;Location: 233573 - 234935" locus_tag="HS041_13775" class="clusterblast-orf" id="dummy-2_q16_0_all"  />
<polygon points="268,35 272,30 272,40 268,35 " style="fill:white; stroke-width:1; stroke:black; " description="&lt;b&gt;HS041_13780&lt;/b&gt;&lt;br&gt;acyl carrier protein&lt;br&gt;Location: 234934 - 235174" locus_tag="HS041_13780" class="clusterblast-orf" id="dummy-2_q17_0_all"  />
<polygon points="271,35 275,30 275,40 271,35 " style="fill:#d81515; stroke-width:1; stroke:black; " description="&lt;b&gt;HS041_13785&lt;/b&gt;&lt;br&gt;MbtH family protein&lt;br&gt;Location: 235166 - 235403" locus_tag="HS041_13785" class="clusterblast-orf" id="dummy-2_q18_0_all"  />
<polygon points="275,35 280,30 320,30 320,40 280,40 275,35 " style="fill:white; stroke-width:1; stroke:black; " description="&lt;b&gt;HS041_13790&lt;/b&gt;&lt;br&gt;amino acid adenylation domain-containing protein&lt;br&gt;Location: 235399 - 238519" locus_tag="HS041_13790" class="clusterblast-orf" id="dummy-2_q19_0_all"  />
<polygon points="325,40 341,40 346,35 341,30 325,30 325,40 " style="fill:white; stroke-width:1; stroke:black; " description="&lt;b&gt;HS041_13795&lt;/b&gt;&lt;br&gt;acyl--CoA ligase&lt;br&gt;Location: 238880 - 240347" locus_tag="HS041_13795" class="clusterblast-orf" id="dummy-2_q20_0_all"  />
<polygon points="346,40 360,40 365,35 360,30 346,30 346,40 " style="fill:white; stroke-width:1; stroke:black; " description="&lt;b&gt;HS041_13800&lt;/b&gt;&lt;br&gt;hypothetical protein&lt;br&gt;Location: 240343 - 241654" locus_tag="HS041_13800" class="clusterblast-orf" id="dummy-2_q21_0_all"  />
<polygon points="366,40 369,35 366,30 366,40 " style="fill:white; stroke-width:1; stroke:black; " description="&lt;b&gt;HS041_13805&lt;/b&gt;&lt;br&gt;hypothetical protein&lt;br&gt;Location: 241729 - 241960" locus_tag="HS041_13805" class="clusterblast-orf" id="dummy-2_q22_0_all"  />
<polygon points="369,40 377,40 382,35 377,30 369,30 369,40 " style="fill:#15d815; stroke-width:1; stroke:black; " description="&lt;b&gt;HS041_13810&lt;/b&gt;&lt;br&gt;thiamine pyrophosphate-dependent dehydrogenase E1 component subunit alpha&lt;br&gt;Location: 241952 - 242897" locus_tag="HS041_13810" class="clusterblast-orf" id="dummy-2_q23_0_all"  />
<polygon points="382,40 392,40 397,35 392,30 382,30 382,40 " style="fill:#1515d8; stroke-width:1; stroke:black; " description="&lt;b&gt;HS041_13815&lt;/b&gt;&lt;br&gt;alpha-ketoacid dehydrogenase subunit beta&lt;br&gt;Location: 242887 - 243877" locus_tag="HS041_13815" class="clusterblast-orf" id="dummy-2_q24_0_all"  />
<polygon points="396,40 408,40 413,35 408,30 396,30 396,40 " style="fill:white; stroke-width:1; stroke:black; " description="&lt;b&gt;HS041_13820&lt;/b&gt;&lt;br&gt;2-oxo acid dehydrogenase subunit E2&lt;br&gt;Location: 243869 - 245039" locus_tag="HS041_13820" class="clusterblast-orf" id="dummy-2_q25_0_all"  />
<polygon points="415,40 490,40 495,35 490,30 415,30 415,40 " style="fill:white; stroke-width:1; stroke:black; " description="&lt;b&gt;HS041_13825&lt;/b&gt;&lt;br&gt;amino acid adenylation domain-containing protein&lt;br&gt;Location: 245137 - 250759" locus_tag="HS041_13825" class="clusterblast-orf" id="dummy-2_q26_0_all"  />
<polygon points="496,35 501,30 568,30 568,40 501,40 496,35 " style="fill:white; stroke-width:1; stroke:black; " description="&lt;b&gt;HS041_13830&lt;/b&gt;&lt;br&gt;DEAD/DEAH box helicase&lt;br&gt;Location: 250834 - 255832" locus_tag="HS041_13830" class="clusterblast-orf" id="dummy-2_q27_0_all"  />
<polygon points="570,40 584,40 589,35 584,30 570,30 570,40 " style="fill:white; stroke-width:1; stroke:black; " description="&lt;b&gt;HS041_13835&lt;/b&gt;&lt;br&gt;aspartate aminotransferase family protein&lt;br&gt;Location: 255994 - 257287" locus_tag="HS041_13835" class="clusterblast-orf" id="dummy-2_q28_0_all"  />
<polygon points="590,40 592,40 597,35 592,30 590,30 590,40 " style="fill:white; stroke-width:1; stroke:black; " description="&lt;b&gt;HS041_13840&lt;/b&gt;&lt;br&gt;VOC family protein&lt;br&gt;Location: 257363 - 257852" locus_tag="HS041_13840" class="clusterblast-orf" id="dummy-2_q29_0_all"  />
<polygon points="598,35 601,30 601,40 598,35 " style="fill:white; stroke-width:1; stroke:black; " description="&lt;b&gt;HS041_13845&lt;/b&gt;&lt;br&gt;hypothetical protein&lt;br&gt;Location: 257935 - 258151" locus_tag="HS041_13845" class="clusterblast-orf" id="dummy-2_q30_0_all"  />
<polygon points="604,40 607,35 604,30 604,40 " style="fill:white; stroke-width:1; stroke:black; " description="&lt;b&gt;HS041_13850&lt;/b&gt;&lt;br&gt;DUF3046 domain-containing protein&lt;br&gt;Location: 258345 - 258540" locus_tag="HS041_13850" class="clusterblast-orf" id="dummy-2_q31_0_all"  />
<polygon points="609,35 613,30 613,40 609,35 " style="fill:white; stroke-width:1; stroke:black; " description="&lt;b&gt;HS041_13855&lt;/b&gt;&lt;br&gt;hypothetical protein&lt;br&gt;Location: 258663 - 258939" locus_tag="HS041_13855" class="clusterblast-orf" id="dummy-2_q32_0_all"  />
<polygon points="617,40 628,40 633,35 628,30 617,30 617,40 " style="fill:white; stroke-width:1; stroke:black; " description="&lt;b&gt;HS041_13860&lt;/b&gt;&lt;br&gt;recombinase RecA&lt;br&gt;Location: 259234 - 260344" locus_tag="HS041_13860" class="clusterblast-orf" id="dummy-2_q33_0_all"  />
<polygon points="638,40 643,40 648,35 643,30 638,30 638,40 " style="fill:white; stroke-width:1; stroke:black; " description="&lt;b&gt;HS041_13865&lt;/b&gt;&lt;br&gt;recombination regulator RecX&lt;br&gt;Location: 260719 - 261361" locus_tag="HS041_13865" class="clusterblast-orf" id="dummy-2_q34_0_all"  />
<polygon points="652,40 671,40 676,35 671,30 652,30 652,40 " style="fill:white; stroke-width:1; stroke:black; " description="&lt;b&gt;HS041_13870&lt;/b&gt;&lt;br&gt;ribonuclease Y&lt;br&gt;Location: 261653 - 263339" locus_tag="HS041_13870" class="clusterblast-orf" id="dummy-2_q35_0_all"  />
<polygon points="676,35 681,30 704,30 704,40 681,40 676,35 " style="fill:white; stroke-width:1; stroke:black; " description="&lt;b&gt;HS041_13875&lt;/b&gt;&lt;br&gt;S9 family peptidase&lt;br&gt;Location: 263345 - 265307" locus_tag="HS041_13875" class="clusterblast-orf" id="dummy-2_q36_0_all"  />
<polygon points="706,35 711,30 719,30 719,40 711,40 706,35 " style="fill:white; stroke-width:1; stroke:black; " description="&lt;b&gt;HS041_13880&lt;/b&gt;&lt;br&gt;amino acid ABC transporter permease&lt;br&gt;Location: 265427 - 266372" locus_tag="HS041_13880" class="clusterblast-orf" id="dummy-2_q37_0_all"  />
<polygon points="719,35 724,30 729,30 729,40 724,40 719,35 " style="fill:white; stroke-width:1; stroke:black; " description="&lt;b&gt;HS041_13885&lt;/b&gt;&lt;br&gt;amino acid ABC transporter permease&lt;br&gt;Location: 266368 - 267037" locus_tag="HS041_13885" class="clusterblast-orf" id="dummy-2_q38_0_all"  />
<polygon points="730,35 735,30 742,30 742,40 735,40 730,35 " style="fill:white; stroke-width:1; stroke:black; " description="&lt;b&gt;HS041_13890&lt;/b&gt;&lt;br&gt;glutamate ABC transporter substrate-binding protein&lt;br&gt;Location: 267098 - 267920" locus_tag="HS041_13890" class="clusterblast-orf" id="dummy-2_q39_0_all"  />
<polygon points="743,35 748,30 753,30 753,40 748,40 743,35 " style="fill:white; stroke-width:1; stroke:black; " description="&lt;b&gt;HS041_13895&lt;/b&gt;&lt;br&gt;amino acid ABC transporter ATP-binding protein&lt;br&gt;Location: 267986 - 268742" locus_tag="HS041_13895" class="clusterblast-orf" id="dummy-2_q40_0_all"  />
<polygon points="758,40 775,40 780,35 775,30 758,30 758,40 " style="fill:white; stroke-width:1; stroke:black; " description="&lt;b&gt;HS041_13900&lt;/b&gt;&lt;br&gt;tRNA (N6-isopentenyl adenosine(37)-C2)-methylthiotransferase MiaB&lt;br&gt;Location: 269057 - 270566" locus_tag="HS041_13900" class="clusterblast-orf" id="dummy-2_q41_0_all"  />
</g>
<g label="BGC0001771" description="BGC0001771_c1: scleric acid (11% of genes show similarity), NRP" class="clusterblast-cluster"  >
<text x="5" y="70" class="clusterblast-acc"  >
<a xlink:href="https://mibig.secondarymetabolites.org/go/BGC0001771/1" target="_blank">BGC0001771</a>: scleric acid                                                                     (11% of genes show similarity), NRP</text>
<line x1="10" y1="85" x2="778.0" y2="85" style="stroke-width:1; stroke:grey; "  />
</g>
<g id="a2_000"  >
<polygon points="257,85 262,80 276,80 276,90 262,90 257,85 " style="fill:white; stroke-width:1; stroke:black; " description="&lt;b&gt;IG96_RS0135550&lt;/b&gt;&lt;br&gt;peptide ligase PGM1-related protein&lt;br&gt;Location: 18478 - 17159" locus_tag="IG96_RS0135550" class="clusterblast-orf" id="dummy-2_h2_5_0"  />
</g>
<g id="a2_001"  >
<polygon points="276,85 281,80 285,80 285,90 281,90 276,85 " style="fill:white; stroke-width:1; stroke:black; " description="&lt;b&gt;IG96_RS0135545&lt;/b&gt;&lt;br&gt;isochorismatase family protein&lt;br&gt;Location: 17162 - 16500" locus_tag="IG96_RS0135545" class="clusterblast-orf" id="dummy-2_h2_5_1"  />
</g>
<g id="a2_002"  >
<polygon points="286,85 291,80 303,80 303,90 291,90 286,85 " style="fill:white; stroke-width:1; stroke:black; " description="&lt;b&gt;IG96_RS0135540&lt;/b&gt;&lt;br&gt;3-deoxy-7-phosphoheptulonate synthase&lt;br&gt;Location: 16478 - 15276" locus_tag="IG96_RS0135540" class="clusterblast-orf" id="dummy-2_h2_5_2"  />
</g>
<g id="a2_003"  >
<polygon points="303,85 308,80 331,80 331,90 308,90 303,85 " style="fill:white; stroke-width:1; stroke:black; " description="&lt;b&gt;IG96_RS0135535&lt;/b&gt;&lt;br&gt;phenazine-specific anthranilate synthase&lt;br&gt;Location: 15264 - 13294" locus_tag="IG96_RS0135535" class="clusterblast-orf" id="dummy-2_h2_5_3"  />
</g>
<g id="a2_004"  >
<polygon points="332,85 337,80 342,80 342,90 337,90 332,85 " style="fill:white; stroke-width:1; stroke:black; " description="&lt;b&gt;IG96_RS0135530&lt;/b&gt;&lt;br&gt;alpha/beta fold hydrolase&lt;br&gt;Location: 13249 - 12518" locus_tag="IG96_RS0135530" class="clusterblast-orf" id="dummy-2_h2_5_4"  />
</g>
<g id="a2_005"  >
<polygon points="342,85 347,80 387,80 387,90 347,90 342,85 " style="fill:white; stroke-width:1; stroke:black; " description="&lt;b&gt;IG96_RS37880&lt;/b&gt;&lt;br&gt;non-ribosomal peptide synthetase&lt;br&gt;Location: 12521 - 9381" locus_tag="IG96_RS37880" class="clusterblast-orf" id="dummy-2_h2_5_5"  />
</g>
<g id="a2_006"  >
<polygon points="391,85 396,80 408,80 408,90 396,90 391,85 " style="fill:white; stroke-width:1; stroke:black; " description="&lt;b&gt;IG96_RS0135520&lt;/b&gt;&lt;br&gt;hypothetical protein&lt;br&gt;Location: 9100 - 7964" locus_tag="IG96_RS0135520" class="clusterblast-orf" id="dummy-2_h2_5_6"  />
</g>
<g id="a2_007"  >
<polygon points="410,90 414,90 419,85 414,80 410,80 410,90 " style="fill:white; stroke-width:1; stroke:black; " description="&lt;b&gt;IG96_RS0135515&lt;/b&gt;&lt;br&gt;TetR/AcrR family transcriptional regulator&lt;br&gt;Location: 7789 - 7199" locus_tag="IG96_RS0135515" class="clusterblast-orf" id="dummy-2_h2_5_7"  />
</g>
<g id="a2_008"  >
<polygon points="419,85 424,80 429,80 429,90 424,90 419,85 " style="fill:white; stroke-width:1; stroke:black; " description="&lt;b&gt;IG96_RS0135510&lt;/b&gt;&lt;br&gt;HAD-IB family hydrolase&lt;br&gt;Location: 7177 - 6491" locus_tag="IG96_RS0135510" class="clusterblast-orf" id="dummy-2_h2_5_8"  />
</g>
<g id="a2_009"  >
<polygon points="430,85 434,80 434,90 430,85 " style="fill:white; stroke-width:1; stroke:black; " description="&lt;b&gt;IG96_RS0135505&lt;/b&gt;&lt;br&gt;LysR family transcriptional regulator&lt;br&gt;Location: 6437 - 6117" locus_tag="IG96_RS0135505" class="clusterblast-orf" id="dummy-2_h2_5_9"  />
</g>
<g id="a2_0010"  >
<polygon points="434,85 439,80 448,80 448,90 439,90 434,85 " style="fill:white; stroke-width:1; stroke:black; " description="&lt;b&gt;IG96_RS37875&lt;/b&gt;&lt;br&gt;gamma-butyrolactone biosynthesis protein&lt;br&gt;Location: 6153 - 5161" locus_tag="IG96_RS37875" class="clusterblast-orf" id="dummy-2_h2_5_10"  />
</g>
<g id="a2_0011"  >
<polygon points="453,90 457,90 462,85 457,80 453,80 453,90 " style="fill:white; stroke-width:1; stroke:black; " description="&lt;b&gt;IG96_RS0135495&lt;/b&gt;&lt;br&gt;TetR/AcrR family transcriptional regulator&lt;br&gt;Location: 4845 - 4213" locus_tag="IG96_RS0135495" class="clusterblast-orf" id="dummy-2_h2_5_11"  />
</g>
<g id="a2_0012"  >
<polygon points="464,90 468,85 464,80 464,90 " style="fill:white; stroke-width:1; stroke:black; " description="&lt;b&gt;IG96_RS0135490&lt;/b&gt;&lt;br&gt;acyl carrier protein&lt;br&gt;Location: 4023 - 3793" locus_tag="IG96_RS0135490" class="clusterblast-orf" id="dummy-2_h2_5_12"  />
</g>
<g id="a2_0013"  >
<polygon points="468,90 476,90 481,85 476,80 468,80 468,90 " style="fill:#15d815; stroke-width:1; stroke:black; " description="&lt;b&gt;IG96_RS0135485&lt;/b&gt;&lt;br&gt;thiamine pyrophosphate-dependent dehydrogenase E1 component subunit alpha&lt;br&gt;Location: 3796 - 2873&lt;br&gt;&lt;br&gt;&lt;b&gt;BlastP hit with HS041_13810&lt;/b&gt;&lt;br&gt;Percentage identity: 67&lt;br&gt;Percentage coverage: 94&lt;br&gt;BLAST bit score: 393&lt;br&gt;E-value: 6.68e-138" locus_tag="IG96_RS0135485" class="clusterblast-orf" id="dummy-2_h2_5_13"  />
</g>
<g id="a2_0014"  >
<polygon points="481,90 490,90 495,85 490,80 481,80 481,90 " style="fill:#1515d8; stroke-width:1; stroke:black; " description="&lt;b&gt;IG96_RS0135480&lt;/b&gt;&lt;br&gt;alpha-ketoacid dehydrogenase subunit beta&lt;br&gt;Location: 2876 - 1860&lt;br&gt;&lt;br&gt;&lt;b&gt;BlastP hit with HS041_13815&lt;/b&gt;&lt;br&gt;Percentage identity: 54&lt;br&gt;Percentage coverage: 102&lt;br&gt;BLAST bit score: 352&lt;br&gt;E-value: 5.99e-121" locus_tag="IG96_RS0135480" class="clusterblast-orf" id="dummy-2_h2_5_14"  />
</g>
<g id="a2_0015"  >
<polygon points="495,90 507,90 512,85 507,80 495,80 495,90 " style="fill:white; stroke-width:1; stroke:black; " description="&lt;b&gt;IG96_RS0135475&lt;/b&gt;&lt;br&gt;2-oxo acid dehydrogenase subunit E2&lt;br&gt;Location: 1863 - 703" locus_tag="IG96_RS0135475" class="clusterblast-orf" id="dummy-2_h2_5_15"  />
</g>
<g id="a2_0016"  >
<polygon points="513,90 517,90 522,85 517,80 513,80 513,90 " style="fill:white; stroke-width:1; stroke:black; " description="&lt;b&gt;IG96_RS0135470&lt;/b&gt;&lt;br&gt;4'-phosphopantetheinyl transferase superfamily protein&lt;br&gt;Location: 627 - 1" locus_tag="IG96_RS0135470" class="clusterblast-orf" id="dummy-2_h2_5_16"  />
</g>
</svg>
