<svg xmlns="http://www.w3.org/2000/svg" xmlns:xlink="http://www.w3.org/1999/xlink" version="1.1" x="0" y="0" height="50" width="800" viewBox="0 0 800 50" preserveAspectRatio="none"  >
<g label="Query sequence" class="clusterblast-cluster"  >
<text x="5" y="20" class="clusterblast-acc"  >
Query sequence</text>
<line x1="10" y1="35" x2="778.0" y2="35" style="stroke-width:1; stroke:grey; "  />
<polygon points="0,40 7,40 12,35 7,30 0,30 0,40 " style="fill:white; stroke-width:1; stroke:black; " description="&lt;b&gt;HS041_13695&lt;/b&gt;&lt;br&gt;helix-turn-helix domain-containing protein&lt;br&gt;Location: 216230 - 217061" locus_tag="HS041_13695" class="clusterblast-orf" id="subclusterblast-2_q0_0_all"  />
<polygon points="13,40 28,40 33,35 28,30 13,30 13,40 " style="fill:white; stroke-width:1; stroke:black; " description="&lt;b&gt;HS041_13700&lt;/b&gt;&lt;br&gt;30S ribosomal protein S12 methylthiotransferase RimO&lt;br&gt;Location: 217141 - 218551" locus_tag="HS041_13700" class="clusterblast-orf" id="subclusterblast-2_q1_0_all"  />
<polygon points="33,40 37,40 42,35 37,30 33,30 33,40 " style="fill:white; stroke-width:1; stroke:black; " description="&lt;b&gt;HS041_13705&lt;/b&gt;&lt;br&gt;CDP-diacylglycerol--glycerol-3-phosphate 3-phosphatidyltransferase&lt;br&gt;Location: 218576 - 219185" locus_tag="HS041_13705" class="clusterblast-orf" id="subclusterblast-2_q2_0_all"  />
<polygon points="42,40 44,40 49,35 44,30 42,30 42,40 " style="fill:white; stroke-width:1; stroke:black; " description="&lt;b&gt;HS041_13710&lt;/b&gt;&lt;br&gt;nicotinamide-nucleotide amidohydrolase family protein&lt;br&gt;Location: 219181 - 219703" locus_tag="HS041_13710" class="clusterblast-orf" id="subclusterblast-2_q3_0_all"  />
<polygon points="52,40 53,40 58,35 53,30 52,30 52,40 " style="fill:white; stroke-width:1; stroke:black; " description="&lt;b&gt;HS041_13715&lt;/b&gt;&lt;br&gt;helix-turn-helix transcriptional regulator&lt;br&gt;Location: 219910 - 220306" locus_tag="HS041_13715" class="clusterblast-orf" id="subclusterblast-2_q4_0_all"  />
<polygon points="59,35 64,30 70,30 70,40 64,40 59,35 " style="fill:white; stroke-width:1; stroke:black; " description="&lt;b&gt;HS041_13720&lt;/b&gt;&lt;br&gt;Fpg/Nei family DNA glycosylase&lt;br&gt;Location: 220355 - 221135" locus_tag="HS041_13720" class="clusterblast-orf" id="subclusterblast-2_q5_0_all"  />
<polygon points="71,35 76,30 77,30 77,40 76,40 71,35 " style="fill:white; stroke-width:1; stroke:black; " description="&lt;b&gt;HS041_13725&lt;/b&gt;&lt;br&gt;Rrf2 family transcriptional regulator&lt;br&gt;Location: 221187 - 221637" locus_tag="HS041_13725" class="clusterblast-orf" id="subclusterblast-2_q6_0_all"  />
<polygon points="80,40 92,40 97,35 92,30 80,30 80,40 " style="fill:white; stroke-width:1; stroke:black; " description="&lt;b&gt;HS041_13730&lt;/b&gt;&lt;br&gt;ROK family protein&lt;br&gt;Location: 221824 - 223003" locus_tag="HS041_13730" class="clusterblast-orf" id="subclusterblast-2_q7_0_all"  />
<polygon points="97,35 102,30 122,30 122,40 102,40 97,35 " style="fill:white; stroke-width:1; stroke:black; " description="&lt;b&gt;HS041_13735&lt;/b&gt;&lt;br&gt;glycoside hydrolase family 3 protein&lt;br&gt;Location: 223008 - 224733" locus_tag="HS041_13735" class="clusterblast-orf" id="subclusterblast-2_q8_0_all"  />
<polygon points="123,35 128,30 144,30 144,40 128,40 123,35 " style="fill:white; stroke-width:1; stroke:black; " description="&lt;b&gt;HS041_13740&lt;/b&gt;&lt;br&gt;glycoside hydrolase family 3 protein&lt;br&gt;Location: 224847 - 226302" locus_tag="HS041_13740" class="clusterblast-orf" id="subclusterblast-2_q9_0_all"  />
<polygon points="146,35 151,30 159,30 159,40 151,40 146,35 " style="fill:white; stroke-width:1; stroke:black; " description="&lt;b&gt;HS041_13745&lt;/b&gt;&lt;br&gt;carbohydrate ABC transporter permease&lt;br&gt;Location: 226399 - 227305" locus_tag="HS041_13745" class="clusterblast-orf" id="subclusterblast-2_q10_0_all"  />
<polygon points="159,35 164,30 173,30 173,40 164,40 159,35 " style="fill:white; stroke-width:1; stroke:black; " description="&lt;b&gt;HS041_13750&lt;/b&gt;&lt;br&gt;sugar ABC transporter permease&lt;br&gt;Location: 227301 - 228315" locus_tag="HS041_13750" class="clusterblast-orf" id="subclusterblast-2_q11_0_all"  />
<polygon points="173,35 178,30 192,30 192,40 178,40 173,35 " style="fill:white; stroke-width:1; stroke:black; " description="&lt;b&gt;HS041_13755&lt;/b&gt;&lt;br&gt;extracellular solute-binding protein&lt;br&gt;Location: 228317 - 229652" locus_tag="HS041_13755" class="clusterblast-orf" id="subclusterblast-2_q12_0_all"  />
<polygon points="195,40 207,40 212,35 207,30 195,30 195,40 " style="fill:white; stroke-width:1; stroke:black; " description="&lt;b&gt;HS041_13760&lt;/b&gt;&lt;br&gt;ROK family transcriptional regulator&lt;br&gt;Location: 229856 - 231017" locus_tag="HS041_13760" class="clusterblast-orf" id="subclusterblast-2_q13_0_all"  />
<polygon points="212,40 216,40 221,35 216,30 212,30 212,40 " style="fill:white; stroke-width:1; stroke:black; " description="&lt;b&gt;HS041_13765&lt;/b&gt;&lt;br&gt;M15 family metallopeptidase&lt;br&gt;Location: 231028 - 231673" locus_tag="HS041_13765" class="clusterblast-orf" id="subclusterblast-2_q14_0_all"  />
<polygon points="222,35 227,30 248,30 248,40 227,40 222,35 " style="fill:white; stroke-width:1; stroke:black; " description="&lt;b&gt;HS041_13770&lt;/b&gt;&lt;br&gt;hypothetical protein&lt;br&gt;Location: 231712 - 233524" locus_tag="HS041_13770" class="clusterblast-orf" id="subclusterblast-2_q15_0_all"  />
<polygon points="249,35 254,30 268,30 268,40 254,40 249,35 " style="fill:white; stroke-width:1; stroke:black; " description="&lt;b&gt;HS041_13775&lt;/b&gt;&lt;br&gt;non-ribosomal peptide synthetase condensation domain protein&lt;br&gt;Location: 233573 - 234935" locus_tag="HS041_13775" class="clusterblast-orf" id="subclusterblast-2_q16_0_all"  />
<polygon points="268,35 272,30 272,40 268,35 " style="fill:white; stroke-width:1; stroke:black; " description="&lt;b&gt;HS041_13780&lt;/b&gt;&lt;br&gt;acyl carrier protein&lt;br&gt;Location: 234934 - 235174" locus_tag="HS041_13780" class="clusterblast-orf" id="subclusterblast-2_q17_0_all"  />
<polygon points="271,35 275,30 275,40 271,35 " style="fill:white; stroke-width:1; stroke:black; " description="&lt;b&gt;HS041_13785&lt;/b&gt;&lt;br&gt;MbtH family protein&lt;br&gt;Location: 235166 - 235403" locus_tag="HS041_13785" class="clusterblast-orf" id="subclusterblast-2_q18_0_all"  />
<polygon points="275,35 280,30 320,30 320,40 280,40 275,35 " style="fill:white; stroke-width:1; stroke:black; " description="&lt;b&gt;HS041_13790&lt;/b&gt;&lt;br&gt;amino acid adenylation domain-containing protein&lt;br&gt;Location: 235399 - 238519" locus_tag="HS041_13790" class="clusterblast-orf" id="subclusterblast-2_q19_0_all"  />
<polygon points="325,40 341,40 346,35 341,30 325,30 325,40 " style="fill:white; stroke-width:1; stroke:black; " description="&lt;b&gt;HS041_13795&lt;/b&gt;&lt;br&gt;acyl--CoA ligase&lt;br&gt;Location: 238880 - 240347" locus_tag="HS041_13795" class="clusterblast-orf" id="subclusterblast-2_q20_0_all"  />
<polygon points="346,40 360,40 365,35 360,30 346,30 346,40 " style="fill:white; stroke-width:1; stroke:black; " description="&lt;b&gt;HS041_13800&lt;/b&gt;&lt;br&gt;hypothetical protein&lt;br&gt;Location: 240343 - 241654" locus_tag="HS041_13800" class="clusterblast-orf" id="subclusterblast-2_q21_0_all"  />
<polygon points="366,40 369,35 366,30 366,40 " style="fill:white; stroke-width:1; stroke:black; " description="&lt;b&gt;HS041_13805&lt;/b&gt;&lt;br&gt;hypothetical protein&lt;br&gt;Location: 241729 - 241960" locus_tag="HS041_13805" class="clusterblast-orf" id="subclusterblast-2_q22_0_all"  />
<polygon points="369,40 377,40 382,35 377,30 369,30 369,40 " style="fill:white; stroke-width:1; stroke:black; " description="&lt;b&gt;HS041_13810&lt;/b&gt;&lt;br&gt;thiamine pyrophosphate-dependent dehydrogenase E1 component subunit alpha&lt;br&gt;Location: 241952 - 242897" locus_tag="HS041_13810" class="clusterblast-orf" id="subclusterblast-2_q23_0_all"  />
<polygon points="382,40 392,40 397,35 392,30 382,30 382,40 " style="fill:white; stroke-width:1; stroke:black; " description="&lt;b&gt;HS041_13815&lt;/b&gt;&lt;br&gt;alpha-ketoacid dehydrogenase subunit beta&lt;br&gt;Location: 242887 - 243877" locus_tag="HS041_13815" class="clusterblast-orf" id="subclusterblast-2_q24_0_all"  />
<polygon points="396,40 408,40 413,35 408,30 396,30 396,40 " style="fill:white; stroke-width:1; stroke:black; " description="&lt;b&gt;HS041_13820&lt;/b&gt;&lt;br&gt;2-oxo acid dehydrogenase subunit E2&lt;br&gt;Location: 243869 - 245039" locus_tag="HS041_13820" class="clusterblast-orf" id="subclusterblast-2_q25_0_all"  />
<polygon points="415,40 490,40 495,35 490,30 415,30 415,40 " style="fill:white; stroke-width:1; stroke:black; " description="&lt;b&gt;HS041_13825&lt;/b&gt;&lt;br&gt;amino acid adenylation domain-containing protein&lt;br&gt;Location: 245137 - 250759" locus_tag="HS041_13825" class="clusterblast-orf" id="subclusterblast-2_q26_0_all"  />
<polygon points="496,35 501,30 568,30 568,40 501,40 496,35 " style="fill:white; stroke-width:1; stroke:black; " description="&lt;b&gt;HS041_13830&lt;/b&gt;&lt;br&gt;DEAD/DEAH box helicase&lt;br&gt;Location: 250834 - 255832" locus_tag="HS041_13830" class="clusterblast-orf" id="subclusterblast-2_q27_0_all"  />
<polygon points="570,40 584,40 589,35 584,30 570,30 570,40 " style="fill:white; stroke-width:1; stroke:black; " description="&lt;b&gt;HS041_13835&lt;/b&gt;&lt;br&gt;aspartate aminotransferase family protein&lt;br&gt;Location: 255994 - 257287" locus_tag="HS041_13835" class="clusterblast-orf" id="subclusterblast-2_q28_0_all"  />
<polygon points="590,40 592,40 597,35 592,30 590,30 590,40 " style="fill:white; stroke-width:1; stroke:black; " description="&lt;b&gt;HS041_13840&lt;/b&gt;&lt;br&gt;VOC family protein&lt;br&gt;Location: 257363 - 257852" locus_tag="HS041_13840" class="clusterblast-orf" id="subclusterblast-2_q29_0_all"  />
<polygon points="598,35 601,30 601,40 598,35 " style="fill:white; stroke-width:1; stroke:black; " description="&lt;b&gt;HS041_13845&lt;/b&gt;&lt;br&gt;hypothetical protein&lt;br&gt;Location: 257935 - 258151" locus_tag="HS041_13845" class="clusterblast-orf" id="subclusterblast-2_q30_0_all"  />
<polygon points="604,40 607,35 604,30 604,40 " style="fill:white; stroke-width:1; stroke:black; " description="&lt;b&gt;HS041_13850&lt;/b&gt;&lt;br&gt;DUF3046 domain-containing protein&lt;br&gt;Location: 258345 - 258540" locus_tag="HS041_13850" class="clusterblast-orf" id="subclusterblast-2_q31_0_all"  />
<polygon points="609,35 613,30 613,40 609,35 " style="fill:white; stroke-width:1; stroke:black; " description="&lt;b&gt;HS041_13855&lt;/b&gt;&lt;br&gt;hypothetical protein&lt;br&gt;Location: 258663 - 258939" locus_tag="HS041_13855" class="clusterblast-orf" id="subclusterblast-2_q32_0_all"  />
<polygon points="617,40 628,40 633,35 628,30 617,30 617,40 " style="fill:white; stroke-width:1; stroke:black; " description="&lt;b&gt;HS041_13860&lt;/b&gt;&lt;br&gt;recombinase RecA&lt;br&gt;Location: 259234 - 260344" locus_tag="HS041_13860" class="clusterblast-orf" id="subclusterblast-2_q33_0_all"  />
<polygon points="638,40 643,40 648,35 643,30 638,30 638,40 " style="fill:white; stroke-width:1; stroke:black; " description="&lt;b&gt;HS041_13865&lt;/b&gt;&lt;br&gt;recombination regulator RecX&lt;br&gt;Location: 260719 - 261361" locus_tag="HS041_13865" class="clusterblast-orf" id="subclusterblast-2_q34_0_all"  />
<polygon points="652,40 671,40 676,35 671,30 652,30 652,40 " style="fill:white; stroke-width:1; stroke:black; " description="&lt;b&gt;HS041_13870&lt;/b&gt;&lt;br&gt;ribonuclease Y&lt;br&gt;Location: 261653 - 263339" locus_tag="HS041_13870" class="clusterblast-orf" id="subclusterblast-2_q35_0_all"  />
<polygon points="676,35 681,30 704,30 704,40 681,40 676,35 " style="fill:white; stroke-width:1; stroke:black; " description="&lt;b&gt;HS041_13875&lt;/b&gt;&lt;br&gt;S9 family peptidase&lt;br&gt;Location: 263345 - 265307" locus_tag="HS041_13875" class="clusterblast-orf" id="subclusterblast-2_q36_0_all"  />
<polygon points="706,35 711,30 719,30 719,40 711,40 706,35 " style="fill:white; stroke-width:1; stroke:black; " description="&lt;b&gt;HS041_13880&lt;/b&gt;&lt;br&gt;amino acid ABC transporter permease&lt;br&gt;Location: 265427 - 266372" locus_tag="HS041_13880" class="clusterblast-orf" id="subclusterblast-2_q37_0_all"  />
<polygon points="719,35 724,30 729,30 729,40 724,40 719,35 " style="fill:white; stroke-width:1; stroke:black; " description="&lt;b&gt;HS041_13885&lt;/b&gt;&lt;br&gt;amino acid ABC transporter permease&lt;br&gt;Location: 266368 - 267037" locus_tag="HS041_13885" class="clusterblast-orf" id="subclusterblast-2_q38_0_all"  />
<polygon points="730,35 735,30 742,30 742,40 735,40 730,35 " style="fill:white; stroke-width:1; stroke:black; " description="&lt;b&gt;HS041_13890&lt;/b&gt;&lt;br&gt;glutamate ABC transporter substrate-binding protein&lt;br&gt;Location: 267098 - 267920" locus_tag="HS041_13890" class="clusterblast-orf" id="subclusterblast-2_q39_0_all"  />
<polygon points="743,35 748,30 753,30 753,40 748,40 743,35 " style="fill:white; stroke-width:1; stroke:black; " description="&lt;b&gt;HS041_13895&lt;/b&gt;&lt;br&gt;amino acid ABC transporter ATP-binding protein&lt;br&gt;Location: 267986 - 268742" locus_tag="HS041_13895" class="clusterblast-orf" id="subclusterblast-2_q40_0_all"  />
<polygon points="758,40 775,40 780,35 775,30 758,30 758,40 " style="fill:white; stroke-width:1; stroke:black; " description="&lt;b&gt;HS041_13900&lt;/b&gt;&lt;br&gt;tRNA (N6-isopentenyl adenosine(37)-C2)-methylthiotransferase MiaB&lt;br&gt;Location: 269057 - 270566" locus_tag="HS041_13900" class="clusterblast-orf" id="subclusterblast-2_q41_0_all"  />
</g>
</svg>
