<svg xmlns="http://www.w3.org/2000/svg" xmlns:xlink="http://www.w3.org/1999/xlink" version="1.1" x="0" y="0" height="50" width="800" viewBox="0 0 800 50" preserveAspectRatio="none"  >
<g label="Query sequence" class="clusterblast-cluster"  >
<text x="5" y="20" class="clusterblast-acc"  >
Query sequence</text>
<line x1="10" y1="35" x2="778.0" y2="35" style="stroke-width:1; stroke:grey; "  />
<polygon points="0,40 1,40 6,35 1,30 0,30 0,40 " style="fill:white; stroke-width:1; stroke:black; " description="&lt;b&gt;HS041_10625&lt;/b&gt;&lt;br&gt;type I-E CRISPR-associated endoribonuclease Cas2&lt;br&gt;Location: 2270927 - 2271266" locus_tag="HS041_10625" class="clusterblast-orf" id="subclusterblast-5_q0_0_all"  />
<polygon points="50,35 55,30 65,30 65,40 55,40 50,35 " style="fill:white; stroke-width:1; stroke:black; " description="&lt;b&gt;HS041_10630&lt;/b&gt;&lt;br&gt;ATP-binding protein&lt;br&gt;Location: 2273500 - 2274298" locus_tag="HS041_10630" class="clusterblast-orf" id="subclusterblast-5_q1_0_all"  />
<polygon points="65,35 70,30 89,30 89,40 70,40 65,35 " style="fill:white; stroke-width:1; stroke:black; " description="&lt;b&gt;HS041_10635&lt;/b&gt;&lt;br&gt;IS21 family transposase&lt;br&gt;Location: 2274297 - 2275521" locus_tag="HS041_10635" class="clusterblast-orf" id="subclusterblast-5_q2_0_all"  />
<polygon points="100,40 101,40 106,35 101,30 100,30 100,40 " style="fill:white; stroke-width:1; stroke:black; " description="&lt;b&gt;HS041_10640&lt;/b&gt;&lt;br&gt;hypothetical protein&lt;br&gt;Location: 2276107 - 2276407" locus_tag="HS041_10640" class="clusterblast-orf" id="subclusterblast-5_q3_0_all"  />
<polygon points="110,40 110,40 115,35 110,30 110,30 110,40 " style="fill:white; stroke-width:1; stroke:black; " description="&lt;b&gt;HS041_10645&lt;/b&gt;&lt;br&gt;type II toxin-antitoxin system Phd/YefM family antitoxin&lt;br&gt;Location: 2276581 - 2276839" locus_tag="HS041_10645" class="clusterblast-orf" id="subclusterblast-5_q4_0_all"  />
<polygon points="115,40 115,40 120,35 115,30 115,30 115,40 " style="fill:white; stroke-width:1; stroke:black; " description="&lt;b&gt;HS041_10650&lt;/b&gt;&lt;br&gt;type II toxin-antitoxin system RelE/ParE family toxin&lt;br&gt;Location: 2276844 - 2277123" locus_tag="HS041_10650" class="clusterblast-orf" id="subclusterblast-5_q5_0_all"  />
<polygon points="120,35 125,30 141,30 141,40 125,40 120,35 " style="fill:white; stroke-width:1; stroke:black; " description="&lt;b&gt;HS041_10655&lt;/b&gt;&lt;br&gt;IS3 family transposase&lt;br&gt;Location: 2277145 - 2278202" locus_tag="HS041_10655" class="clusterblast-orf" id="subclusterblast-5_q6_0_all"  />
<polygon points="148,35 153,30 171,30 171,40 153,40 148,35 " style="fill:white; stroke-width:1; stroke:black; " description="&lt;b&gt;HS041_10660&lt;/b&gt;&lt;br&gt;CU044 5270 family protein&lt;br&gt;Location: 2278538 - 2279756" locus_tag="HS041_10660" class="clusterblast-orf" id="subclusterblast-5_q7_0_all"  />
<polygon points="171,35 176,30 182,30 182,40 176,40 171,35 " style="fill:white; stroke-width:1; stroke:black; " description="&lt;b&gt;HS041_10665&lt;/b&gt;&lt;br&gt;RNA polymerase sigma factor&lt;br&gt;Location: 2279752 - 2280319" locus_tag="HS041_10665" class="clusterblast-orf" id="subclusterblast-5_q8_0_all"  />
<polygon points="188,40 188,40 193,35 188,30 188,30 188,40 " style="fill:white; stroke-width:1; stroke:black; " description="&lt;b&gt;HS041_10670&lt;/b&gt;&lt;br&gt;hypothetical protein&lt;br&gt;Location: 2280614 - 2280899" locus_tag="HS041_10670" class="clusterblast-orf" id="subclusterblast-5_q9_0_all"  />
<polygon points="198,35 203,30 212,30 212,40 203,40 198,35 " style="fill:white; stroke-width:1; stroke:black; " description="&lt;b&gt;HS041_10675&lt;/b&gt;&lt;br&gt;alpha/beta hydrolase&lt;br&gt;Location: 2281118 - 2281841" locus_tag="HS041_10675" class="clusterblast-orf" id="subclusterblast-5_q10_0_all"  />
<polygon points="214,40 216,35 214,30 214,40 " style="fill:white; stroke-width:1; stroke:black; " description="&lt;b&gt;HS041_10680&lt;/b&gt;&lt;br&gt;IS5/IS1182 family transposase&lt;br&gt;Location: 2281943 - 2282042" locus_tag="HS041_10680" class="clusterblast-orf" id="subclusterblast-5_q11_0_all"  />
<polygon points="218,40 228,40 233,35 228,30 218,30 218,40 " style="fill:white; stroke-width:1; stroke:black; " description="&lt;b&gt;HS041_10685&lt;/b&gt;&lt;br&gt;transposase family protein&lt;br&gt;Location: 2282166 - 2282949" locus_tag="HS041_10685" class="clusterblast-orf" id="subclusterblast-5_q12_0_all"  />
<polygon points="234,40 251,40 256,35 251,30 234,30 234,40 " style="fill:white; stroke-width:1; stroke:black; " description="&lt;b&gt;HS041_10690&lt;/b&gt;&lt;br&gt;hypothetical protein&lt;br&gt;Location: 2283012 - 2284110" locus_tag="HS041_10690" class="clusterblast-orf" id="subclusterblast-5_q13_0_all"  />
<polygon points="257,35 262,30 273,30 273,40 262,40 257,35 " style="fill:white; stroke-width:1; stroke:black; " description="&lt;b&gt;HS041_10695&lt;/b&gt;&lt;br&gt;transposase family protein&lt;br&gt;Location: 2284190 - 2284973" locus_tag="HS041_10695" class="clusterblast-orf" id="subclusterblast-5_q14_0_all"  />
<polygon points="287,35 292,30 303,30 303,40 292,40 287,35 " style="fill:white; stroke-width:1; stroke:black; " description="&lt;b&gt;HS041_10700&lt;/b&gt;&lt;br&gt;chromosome condensation regulator&lt;br&gt;Location: 2285701 - 2286553" locus_tag="HS041_10700" class="clusterblast-orf" id="subclusterblast-5_q15_0_all"  />
<polygon points="304,35 307,30 307,40 304,35 " style="fill:white; stroke-width:1; stroke:black; " description="&lt;b&gt;HS041_10705&lt;/b&gt;&lt;br&gt;hypothetical protein&lt;br&gt;Location: 2286615 - 2286753" locus_tag="HS041_10705" class="clusterblast-orf" id="subclusterblast-5_q16_0_all"  />
<polygon points="311,35 314,30 314,40 311,35 " style="fill:white; stroke-width:1; stroke:black; " description="&lt;b&gt;HS041_10710&lt;/b&gt;&lt;br&gt;hypothetical protein&lt;br&gt;Location: 2286938 - 2287088" locus_tag="HS041_10710" class="clusterblast-orf" id="subclusterblast-5_q17_0_all"  />
<polygon points="326,35 331,30 339,30 339,40 331,40 326,35 " style="fill:white; stroke-width:1; stroke:black; " description="&lt;b&gt;HS041_10715&lt;/b&gt;&lt;br&gt;TetR/AcrR family transcriptional regulator&lt;br&gt;Location: 2287742 - 2288378" locus_tag="HS041_10715" class="clusterblast-orf" id="subclusterblast-5_q18_0_all"  />
<polygon points="341,40 348,40 353,35 348,30 341,30 341,40 " style="fill:white; stroke-width:1; stroke:black; " description="&lt;b&gt;HS041_10720&lt;/b&gt;&lt;br&gt;dihydrofolate reductase&lt;br&gt;Location: 2288521 - 2289127" locus_tag="HS041_10720" class="clusterblast-orf" id="subclusterblast-5_q19_0_all"  />
<polygon points="357,40 357,40 362,35 357,30 357,30 357,40 " style="fill:white; stroke-width:1; stroke:black; " description="&lt;b&gt;HS041_10725&lt;/b&gt;&lt;br&gt;hypothetical protein&lt;br&gt;Location: 2289295 - 2289601" locus_tag="HS041_10725" class="clusterblast-orf" id="subclusterblast-5_q20_0_all"  />
<polygon points="370,35 375,30 377,30 377,40 375,40 370,35 " style="fill:white; stroke-width:1; stroke:black; " description="&lt;b&gt;HS041_10730&lt;/b&gt;&lt;br&gt;DUF1801 domain-containing protein&lt;br&gt;Location: 2289992 - 2290352" locus_tag="HS041_10730" class="clusterblast-orf" id="subclusterblast-5_q21_0_all"  />
<polygon points="384,40 387,40 392,35 387,30 384,30 384,40 " style="fill:white; stroke-width:1; stroke:black; " description="&lt;b&gt;HS041_10735&lt;/b&gt;&lt;br&gt;macromomycin&lt;br&gt;Location: 2290694 - 2291132" locus_tag="HS041_10735" class="clusterblast-orf" id="subclusterblast-5_q22_0_all"  />
<polygon points="409,35 414,30 426,30 426,40 414,40 409,35 " style="fill:white; stroke-width:1; stroke:black; " description="&lt;b&gt;HS041_10740&lt;/b&gt;&lt;br&gt;helix-turn-helix domain-containing protein&lt;br&gt;Location: 2292003 - 2292858" locus_tag="HS041_10740" class="clusterblast-orf" id="subclusterblast-5_q23_0_all"  />
<polygon points="428,40 438,40 443,35 438,30 428,30 428,40 " style="fill:white; stroke-width:1; stroke:black; " description="&lt;b&gt;HS041_10745&lt;/b&gt;&lt;br&gt;SDR family NAD(P)-dependent oxidoreductase&lt;br&gt;Location: 2292969 - 2293734" locus_tag="HS041_10745" class="clusterblast-orf" id="subclusterblast-5_q24_0_all"  />
<polygon points="451,40 470,40 475,35 470,30 451,30 451,40 " style="fill:white; stroke-width:1; stroke:black; " description="&lt;b&gt;HS041_10750&lt;/b&gt;&lt;br&gt;HAMP domain-containing histidine kinase&lt;br&gt;Location: 2294160 - 2295372" locus_tag="HS041_10750" class="clusterblast-orf" id="subclusterblast-5_q25_0_all"  />
<polygon points="478,40 480,40 485,35 480,30 478,30 478,40 " style="fill:white; stroke-width:1; stroke:black; " description="&lt;b&gt;HS041_10755&lt;/b&gt;&lt;br&gt;STAS domain-containing protein&lt;br&gt;Location: 2295538 - 2295931" locus_tag="HS041_10755" class="clusterblast-orf" id="subclusterblast-5_q26_0_all"  />
<polygon points="488,35 493,30 511,30 511,40 493,40 488,35 " style="fill:white; stroke-width:1; stroke:black; " description="&lt;b&gt;HS041_10760&lt;/b&gt;&lt;br&gt;GAF domain-containing sensor histidine kinase&lt;br&gt;Location: 2296043 - 2297261" locus_tag="HS041_10760" class="clusterblast-orf" id="subclusterblast-5_q27_0_all"  />
<polygon points="517,35 522,30 540,30 540,40 522,40 517,35 " style="fill:white; stroke-width:1; stroke:black; " description="&lt;b&gt;HS041_10765&lt;/b&gt;&lt;br&gt;ROK family protein&lt;br&gt;Location: 2297540 - 2298737" locus_tag="HS041_10765" class="clusterblast-orf" id="subclusterblast-5_q28_0_all"  />
<polygon points="541,40 549,40 554,35 549,30 541,30 541,40 " style="fill:white; stroke-width:1; stroke:black; " description="&lt;b&gt;HS041_10770&lt;/b&gt;&lt;br&gt;HAD-IA family hydrolase&lt;br&gt;Location: 2298799 - 2299453" locus_tag="HS041_10770" class="clusterblast-orf" id="subclusterblast-5_q29_0_all"  />
<polygon points="554,40 574,40 579,35 574,30 554,30 554,40 " style="fill:white; stroke-width:1; stroke:black; " description="&lt;b&gt;HS041_10775&lt;/b&gt;&lt;br&gt;MFS transporter&lt;br&gt;Location: 2299449 - 2300751" locus_tag="HS041_10775" class="clusterblast-orf" id="subclusterblast-5_q30_0_all"  />
<polygon points="583,40 599,40 604,35 599,30 583,30 583,40 " style="fill:white; stroke-width:1; stroke:black; " description="&lt;b&gt;HS041_10780&lt;/b&gt;&lt;br&gt;alpha/beta fold hydrolase&lt;br&gt;Location: 2300969 - 2302031" locus_tag="HS041_10780" class="clusterblast-orf" id="subclusterblast-5_q31_0_all"  />
<polygon points="608,35 613,30 613,30 613,40 613,40 608,35 " style="fill:white; stroke-width:1; stroke:black; " description="&lt;b&gt;HS041_10785&lt;/b&gt;&lt;br&gt;substrate-binding domain-containing protein&lt;br&gt;Location: 2302253 - 2302496" locus_tag="HS041_10785" class="clusterblast-orf" id="subclusterblast-5_q32_0_all"  />
<polygon points="613,40 617,35 613,30 613,40 " style="fill:white; stroke-width:1; stroke:black; " description="&lt;b&gt;HS041_10790&lt;/b&gt;&lt;br&gt;hypothetical protein&lt;br&gt;Location: 2302516 - 2302696" locus_tag="HS041_10790" class="clusterblast-orf" id="subclusterblast-5_q33_0_all"  />
<polygon points="618,35 623,30 638,30 638,40 623,40 618,35 " style="fill:white; stroke-width:1; stroke:black; " description="&lt;b&gt;HS041_10795&lt;/b&gt;&lt;br&gt;YihY/virulence factor BrkB family protein&lt;br&gt;Location: 2302746 - 2303805" locus_tag="HS041_10795" class="clusterblast-orf" id="subclusterblast-5_q34_0_all"  />
<polygon points="640,35 645,30 687,30 687,40 645,40 640,35 " style="fill:white; stroke-width:1; stroke:black; " description="&lt;b&gt;HS041_10800&lt;/b&gt;&lt;br&gt;DUF4132 domain-containing protein&lt;br&gt;Location: 2303865 - 2306298" locus_tag="HS041_10800" class="clusterblast-orf" id="subclusterblast-5_q35_0_all"  />
<polygon points="694,40 716,40 721,35 716,30 694,30 694,40 " style="fill:white; stroke-width:1; stroke:black; " description="&lt;b&gt;HS041_10805&lt;/b&gt;&lt;br&gt;DUF4331 domain-containing protein&lt;br&gt;Location: 2306676 - 2308059" locus_tag="HS041_10805" class="clusterblast-orf" id="subclusterblast-5_q36_0_all"  />
<polygon points="722,40 743,40 748,35 743,30 722,30 722,40 " style="fill:white; stroke-width:1; stroke:black; " description="&lt;b&gt;HS041_10810&lt;/b&gt;&lt;br&gt;hypothetical protein&lt;br&gt;Location: 2308125 - 2309424" locus_tag="HS041_10810" class="clusterblast-orf" id="subclusterblast-5_q37_0_all"  />
<polygon points="747,40 775,40 780,35 775,30 747,30 747,40 " style="fill:white; stroke-width:1; stroke:black; " description="&lt;b&gt;HS041_10815&lt;/b&gt;&lt;br&gt;High-affinity nickel-transporter&lt;br&gt;Location: 2309420 - 2311079" locus_tag="HS041_10815" class="clusterblast-orf" id="subclusterblast-5_q38_0_all"  />
</g>
</svg>
