<svg xmlns="http://www.w3.org/2000/svg" xmlns:xlink="http://www.w3.org/1999/xlink" version="1.1" x="0" y="0" height="50" width="800" viewBox="0 0 800 50" preserveAspectRatio="none"  >
<g label="Query sequence" class="clusterblast-cluster"  >
<text x="5" y="20" class="clusterblast-acc"  >
Query sequence</text>
<line x1="10" y1="35" x2="778.0" y2="35" style="stroke-width:1; stroke:grey; "  />
<polygon points="0,35 4,30 4,40 0,35 " style="fill:white; stroke-width:1; stroke:black; " description="&lt;b&gt;HS041_01125&lt;/b&gt;&lt;br&gt;hypothetical protein&lt;br&gt;Location: 242134 - 242359" locus_tag="HS041_01125" class="clusterblast-orf" id="subclusterblast-2_q0_0_all"  />
<polygon points="11,40 14,35 11,30 11,40 " style="fill:white; stroke-width:1; stroke:black; " description="&lt;b&gt;HS041_01130&lt;/b&gt;&lt;br&gt;hypothetical protein&lt;br&gt;Location: 242750 - 242945" locus_tag="HS041_01130" class="clusterblast-orf" id="subclusterblast-2_q1_0_all"  />
<polygon points="14,35 16,30 16,40 14,35 " style="fill:white; stroke-width:1; stroke:black; " description="&lt;b&gt;HS041_01135&lt;/b&gt;&lt;br&gt;hypothetical protein&lt;br&gt;Location: 242923 - 243070" locus_tag="HS041_01135" class="clusterblast-orf" id="subclusterblast-2_q2_0_all"  />
<polygon points="16,40 22,40 27,35 22,30 16,30 16,40 " style="fill:white; stroke-width:1; stroke:black; " description="&lt;b&gt;HS041_01140&lt;/b&gt;&lt;br&gt;dihydrofolate reductase&lt;br&gt;Location: 243047 - 243638" locus_tag="HS041_01140" class="clusterblast-orf" id="subclusterblast-2_q3_0_all"  />
<polygon points="31,40 33,40 38,35 33,30 31,30 31,40 " style="fill:white; stroke-width:1; stroke:black; " description="&lt;b&gt;HS041_01145&lt;/b&gt;&lt;br&gt;hypothetical protein&lt;br&gt;Location: 243911 - 244262" locus_tag="HS041_01145" class="clusterblast-orf" id="subclusterblast-2_q4_0_all"  />
<polygon points="38,40 62,40 67,35 62,30 38,30 38,40 " style="fill:white; stroke-width:1; stroke:black; " description="&lt;b&gt;HS041_01150&lt;/b&gt;&lt;br&gt;caspase family protein&lt;br&gt;Location: 244258 - 245917" locus_tag="HS041_01150" class="clusterblast-orf" id="subclusterblast-2_q5_0_all"  />
<polygon points="74,40 76,40 81,35 76,30 74,30 74,40 " style="fill:white; stroke-width:1; stroke:black; " description="&lt;b&gt;HS041_01155&lt;/b&gt;&lt;br&gt;DNA mismatch endonuclease Vsr&lt;br&gt;Location: 246306 - 246683" locus_tag="HS041_01155" class="clusterblast-orf" id="subclusterblast-2_q6_0_all"  />
<polygon points="82,35 86,30 86,40 82,35 " style="fill:white; stroke-width:1; stroke:black; " description="&lt;b&gt;HS041_01160&lt;/b&gt;&lt;br&gt;DUF397 domain-containing protein&lt;br&gt;Location: 246752 - 246971" locus_tag="HS041_01160" class="clusterblast-orf" id="subclusterblast-2_q7_0_all"  />
<polygon points="86,35 91,30 92,30 92,40 91,40 86,35 " style="fill:white; stroke-width:1; stroke:black; " description="&lt;b&gt;HS041_01165&lt;/b&gt;&lt;br&gt;hypothetical protein&lt;br&gt;Location: 246963 - 247290" locus_tag="HS041_01165" class="clusterblast-orf" id="subclusterblast-2_q8_0_all"  />
<polygon points="95,40 97,40 102,35 97,30 95,30 95,40 " style="fill:white; stroke-width:1; stroke:black; " description="&lt;b&gt;HS041_01170&lt;/b&gt;&lt;br&gt;hypothetical protein&lt;br&gt;Location: 247484 - 247883" locus_tag="HS041_01170" class="clusterblast-orf" id="subclusterblast-2_q9_0_all"  />
<polygon points="103,35 108,30 120,30 120,40 108,40 103,35 " style="fill:white; stroke-width:1; stroke:black; " description="&lt;b&gt;HS041_01175&lt;/b&gt;&lt;br&gt;AraC family transcriptional regulator&lt;br&gt;Location: 247905 - 248874" locus_tag="HS041_01175" class="clusterblast-orf" id="subclusterblast-2_q10_0_all"  />
<polygon points="122,40 132,40 137,35 132,30 122,30 122,40 " style="fill:white; stroke-width:1; stroke:black; " description="&lt;b&gt;HS041_01180&lt;/b&gt;&lt;br&gt;NAD(P)H-binding protein&lt;br&gt;Location: 248999 - 249833" locus_tag="HS041_01180" class="clusterblast-orf" id="subclusterblast-2_q11_0_all"  />
<polygon points="139,40 143,40 148,35 143,30 139,30 139,40 " style="fill:white; stroke-width:1; stroke:black; " description="&lt;b&gt;HS041_01185&lt;/b&gt;&lt;br&gt;DUF4262 domain-containing protein&lt;br&gt;Location: 249910 - 250450" locus_tag="HS041_01185" class="clusterblast-orf" id="subclusterblast-2_q12_0_all"  />
<polygon points="149,35 154,30 164,30 164,40 154,40 149,35 " style="fill:white; stroke-width:1; stroke:black; " description="&lt;b&gt;HS041_01190&lt;/b&gt;&lt;br&gt;CPBP family intramembrane metalloprotease&lt;br&gt;Location: 250490 - 251351" locus_tag="HS041_01190" class="clusterblast-orf" id="subclusterblast-2_q13_0_all"  />
<polygon points="168,40 171,40 176,35 171,30 168,30 168,40 " style="fill:white; stroke-width:1; stroke:black; " description="&lt;b&gt;HS041_01195&lt;/b&gt;&lt;br&gt;sigma-70 family RNA polymerase sigma factor&lt;br&gt;Location: 251539 - 252010" locus_tag="HS041_01195" class="clusterblast-orf" id="subclusterblast-2_q14_0_all"  />
<polygon points="185,35 190,30 195,30 195,40 190,40 185,35 " style="fill:white; stroke-width:1; stroke:black; " description="&lt;b&gt;HS041_01200&lt;/b&gt;&lt;br&gt;TetR/AcrR family transcriptional regulator&lt;br&gt;Location: 252508 - 253075" locus_tag="HS041_01200" class="clusterblast-orf" id="subclusterblast-2_q15_0_all"  />
<polygon points="195,35 200,30 204,30 204,40 200,40 195,35 " style="fill:white; stroke-width:1; stroke:black; " description="&lt;b&gt;HS041_01205&lt;/b&gt;&lt;br&gt;SRPBCC domain-containing protein&lt;br&gt;Location: 253074 - 253581" locus_tag="HS041_01205" class="clusterblast-orf" id="subclusterblast-2_q16_0_all"  />
<polygon points="206,35 211,30 235,30 235,40 211,40 206,35 " style="fill:white; stroke-width:1; stroke:black; " description="&lt;b&gt;HS041_01210&lt;/b&gt;&lt;br&gt;alpha-glucosidase C-terminal domain-containing protein&lt;br&gt;Location: 253663 - 255322" locus_tag="HS041_01210" class="clusterblast-orf" id="subclusterblast-2_q17_0_all"  />
<polygon points="237,40 240,40 245,35 240,30 237,30 237,40 " style="fill:white; stroke-width:1; stroke:black; " description="&lt;b&gt;HS041_01215&lt;/b&gt;&lt;br&gt;hypothetical protein&lt;br&gt;Location: 255433 - 255835" locus_tag="HS041_01215" class="clusterblast-orf" id="subclusterblast-2_q18_0_all"  />
<polygon points="246,40 284,40 289,35 284,30 246,30 246,40 " style="fill:white; stroke-width:1; stroke:black; " description="&lt;b&gt;HS041_01220&lt;/b&gt;&lt;br&gt;protein translocase subunit SecD&lt;br&gt;Location: 255903 - 258297" locus_tag="HS041_01220" class="clusterblast-orf" id="subclusterblast-2_q19_0_all"  />
<polygon points="292,40 292,40 297,35 292,30 292,30 292,40 " style="fill:white; stroke-width:1; stroke:black; " description="&lt;b&gt;HS041_01225&lt;/b&gt;&lt;br&gt;EF-hand domain-containing protein&lt;br&gt;Location: 258496 - 258742" locus_tag="HS041_01225" class="clusterblast-orf" id="subclusterblast-2_q20_0_all"  />
<polygon points="299,40 316,40 321,35 316,30 299,30 299,40 " style="fill:white; stroke-width:1; stroke:black; " description="&lt;b&gt;HS041_01230&lt;/b&gt;&lt;br&gt;helix-turn-helix domain-containing protein&lt;br&gt;Location: 258860 - 260114" locus_tag="HS041_01230" class="clusterblast-orf" id="subclusterblast-2_q21_0_all"  />
<polygon points="323,35 328,30 346,30 346,40 328,40 323,35 " style="fill:white; stroke-width:1; stroke:black; " description="&lt;b&gt;HS041_01235&lt;/b&gt;&lt;br&gt;crotonyl-CoA carboxylase/reductase&lt;br&gt;Location: 260210 - 261521" locus_tag="HS041_01235" class="clusterblast-orf" id="subclusterblast-2_q22_0_all"  />
<polygon points="346,35 351,30 459,30 459,40 351,40 346,35 " style="fill:white; stroke-width:1; stroke:black; " description="&lt;b&gt;HS041_01240&lt;/b&gt;&lt;br&gt;SDR family NAD(P)-dependent oxidoreductase&lt;br&gt;Location: 261517 - 267829" locus_tag="HS041_01240" class="clusterblast-orf" id="subclusterblast-2_q23_0_all"  />
<polygon points="464,40 479,40 484,35 479,30 464,30 464,40 " style="fill:white; stroke-width:1; stroke:black; " description="&lt;b&gt;HS041_01245&lt;/b&gt;&lt;br&gt;prolyl oligopeptidase family serine peptidase&lt;br&gt;Location: 268088 - 269207" locus_tag="HS041_01245" class="clusterblast-orf" id="subclusterblast-2_q24_0_all"  />
<polygon points="485,35 490,30 509,30 509,40 490,40 485,35 " style="fill:white; stroke-width:1; stroke:black; " description="&lt;b&gt;HS041_01250&lt;/b&gt;&lt;br&gt;hypothetical protein&lt;br&gt;Location: 269260 - 270604" locus_tag="HS041_01250" class="clusterblast-orf" id="subclusterblast-2_q25_0_all"  />
<polygon points="511,35 516,30 534,30 534,40 516,40 511,35 " style="fill:white; stroke-width:1; stroke:black; " description="&lt;b&gt;HS041_01255&lt;/b&gt;&lt;br&gt;glycosyltransferase family 1 protein&lt;br&gt;Location: 270719 - 272042" locus_tag="HS041_01255" class="clusterblast-orf" id="subclusterblast-2_q26_0_all"  />
<polygon points="534,35 539,30 559,30 559,40 539,40 534,35 " style="fill:white; stroke-width:1; stroke:black; " description="&lt;b&gt;HS041_01260&lt;/b&gt;&lt;br&gt;MFS transporter&lt;br&gt;Location: 272038 - 273406" locus_tag="HS041_01260" class="clusterblast-orf" id="subclusterblast-2_q27_0_all"  />
<polygon points="559,35 564,30 629,30 629,40 564,40 559,35 " style="fill:white; stroke-width:1; stroke:black; " description="&lt;b&gt;HS041_01265&lt;/b&gt;&lt;br&gt;MMPL family transporter&lt;br&gt;Location: 273426 - 277311" locus_tag="HS041_01265" class="clusterblast-orf" id="subclusterblast-2_q28_0_all"  />
<polygon points="629,35 634,30 660,30 660,40 634,40 629,35 " style="fill:white; stroke-width:1; stroke:black; " description="&lt;b&gt;HS041_01270&lt;/b&gt;&lt;br&gt;fatty acyl-AMP ligase&lt;br&gt;Location: 277310 - 279092" locus_tag="HS041_01270" class="clusterblast-orf" id="subclusterblast-2_q29_0_all"  />
<polygon points="664,40 670,40 675,35 670,30 664,30 664,40 " style="fill:white; stroke-width:1; stroke:black; " description="&lt;b&gt;HS041_01275&lt;/b&gt;&lt;br&gt;helix-turn-helix domain-containing protein&lt;br&gt;Location: 279287 - 279920" locus_tag="HS041_01275" class="clusterblast-orf" id="subclusterblast-2_q30_0_all"  />
<polygon points="680,40 697,40 702,35 697,30 680,30 680,40 " style="fill:white; stroke-width:1; stroke:black; " description="&lt;b&gt;HS041_01280&lt;/b&gt;&lt;br&gt;ATP-binding protein&lt;br&gt;Location: 280160 - 281408" locus_tag="HS041_01280" class="clusterblast-orf" id="subclusterblast-2_q31_0_all"  />
<polygon points="708,35 713,30 723,30 723,40 713,40 708,35 " style="fill:white; stroke-width:1; stroke:black; " description="&lt;b&gt;HS041_01285&lt;/b&gt;&lt;br&gt;ErmE/ErmH/ErmO/ErmR family 23S rRNA (adenine(2058)-N(6))-methyltransferase&lt;br&gt;Location: 281739 - 282567" locus_tag="HS041_01285" class="clusterblast-orf" id="subclusterblast-2_q32_0_all"  />
<polygon points="731,35 736,30 761,30 761,40 736,40 731,35 " style="fill:white; stroke-width:1; stroke:black; " description="&lt;b&gt;HS041_01290&lt;/b&gt;&lt;br&gt;putative DNA binding domain-containing protein&lt;br&gt;Location: 283045 - 284731" locus_tag="HS041_01290" class="clusterblast-orf" id="subclusterblast-2_q33_0_all"  />
<polygon points="764,40 775,40 780,35 775,30 764,30 764,40 " style="fill:white; stroke-width:1; stroke:black; " description="&lt;b&gt;HS041_01295&lt;/b&gt;&lt;br&gt;alpha/beta hydrolase&lt;br&gt;Location: 284898 - 285762" locus_tag="HS041_01295" class="clusterblast-orf" id="subclusterblast-2_q34_0_all"  />
</g>
</svg>
