<svg xmlns="http://www.w3.org/2000/svg" xmlns:xlink="http://www.w3.org/1999/xlink" version="1.1" x="0" y="0" height="50" width="800" viewBox="0 0 800 50" preserveAspectRatio="none"  >
<g label="Query sequence" class="clusterblast-cluster"  >
<text x="5" y="20" class="clusterblast-acc"  >
Query sequence</text>
<line x1="10" y1="35" x2="778.0" y2="35" style="stroke-width:1; stroke:grey; "  />
<polygon points="0,35 5,30 12,30 12,40 5,40 0,35 " style="fill:white; stroke-width:1; stroke:black; " description="&lt;b&gt;HS041_24500&lt;/b&gt;&lt;br&gt;DUF418 domain-containing protein&lt;br&gt;Location: 622987 - 623959" locus_tag="HS041_24500" class="clusterblast-orf" id="subclusterblast-2_q0_0_all"  />
<polygon points="15,40 27,40 32,35 27,30 15,30 15,40 " style="fill:white; stroke-width:1; stroke:black; " description="&lt;b&gt;HS041_24505&lt;/b&gt;&lt;br&gt;beta-glucosidase&lt;br&gt;Location: 624265 - 625642" locus_tag="HS041_24505" class="clusterblast-orf" id="subclusterblast-2_q1_0_all"  />
<polygon points="33,40 42,40 47,35 42,30 33,30 33,40 " style="fill:white; stroke-width:1; stroke:black; " description="&lt;b&gt;HS041_24510&lt;/b&gt;&lt;br&gt;pyridoxal phosphate-dependent aminotransferase&lt;br&gt;Location: 625713 - 626877" locus_tag="HS041_24510" class="clusterblast-orf" id="subclusterblast-2_q2_0_all"  />
<polygon points="50,35 55,30 66,30 66,40 55,40 50,35 " style="fill:white; stroke-width:1; stroke:black; " description="&lt;b&gt;HS041_24515&lt;/b&gt;&lt;br&gt;extracellular solute-binding protein&lt;br&gt;Location: 627094 - 628411" locus_tag="HS041_24515" class="clusterblast-orf" id="subclusterblast-2_q3_0_all"  />
<polygon points="66,35 71,30 88,30 88,40 71,40 66,35 " style="fill:white; stroke-width:1; stroke:black; " description="&lt;b&gt;HS041_24520&lt;/b&gt;&lt;br&gt;substrate-binding domain-containing protein&lt;br&gt;Location: 628407 - 630228" locus_tag="HS041_24520" class="clusterblast-orf" id="subclusterblast-2_q4_0_all"  />
<polygon points="92,35 97,30 104,30 104,40 97,40 92,35 " style="fill:white; stroke-width:1; stroke:black; " description="&lt;b&gt;HS041_24525&lt;/b&gt;&lt;br&gt;LysR family transcriptional regulator&lt;br&gt;Location: 630533 - 631478" locus_tag="HS041_24525" class="clusterblast-orf" id="subclusterblast-2_q5_0_all"  />
<polygon points="104,40 106,40 111,35 106,30 104,30 104,40 " style="fill:white; stroke-width:1; stroke:black; " description="&lt;b&gt;HS041_24530&lt;/b&gt;&lt;br&gt;peroxiredoxin&lt;br&gt;Location: 631522 - 632128" locus_tag="HS041_24530" class="clusterblast-orf" id="subclusterblast-2_q6_0_all"  />
<polygon points="111,40 113,40 118,35 113,30 111,30 111,40 " style="fill:white; stroke-width:1; stroke:black; " description="&lt;b&gt;HS041_24535&lt;/b&gt;&lt;br&gt;carboxymuconolactone decarboxylase family protein&lt;br&gt;Location: 632127 - 632664" locus_tag="HS041_24535" class="clusterblast-orf" id="subclusterblast-2_q7_0_all"  />
<polygon points="119,35 124,30 127,30 127,40 124,40 119,35 " style="fill:white; stroke-width:1; stroke:black; " description="&lt;b&gt;HS041_24540&lt;/b&gt;&lt;br&gt;DUF2306 domain-containing protein&lt;br&gt;Location: 632703 - 633429" locus_tag="HS041_24540" class="clusterblast-orf" id="subclusterblast-2_q8_0_all"  />
<polygon points="130,35 135,30 154,30 154,40 135,40 130,35 " style="fill:white; stroke-width:1; stroke:black; " description="&lt;b&gt;HS041_24545&lt;/b&gt;&lt;br&gt;methyl-accepting chemotaxis protein&lt;br&gt;Location: 633630 - 635592" locus_tag="HS041_24545" class="clusterblast-orf" id="subclusterblast-2_q9_0_all"  />
<polygon points="156,35 161,30 175,30 175,40 161,40 156,35 " style="fill:white; stroke-width:1; stroke:black; " description="&lt;b&gt;HS041_24550&lt;/b&gt;&lt;br&gt;MFS transporter&lt;br&gt;Location: 635751 - 637305" locus_tag="HS041_24550" class="clusterblast-orf" id="subclusterblast-2_q10_0_all"  />
<polygon points="176,40 178,40 183,35 178,30 176,30 176,40 " style="fill:white; stroke-width:1; stroke:black; " description="&lt;b&gt;HS041_24555&lt;/b&gt;&lt;br&gt;TetR family transcriptional regulator&lt;br&gt;Location: 637386 - 637947" locus_tag="HS041_24555" class="clusterblast-orf" id="subclusterblast-2_q11_0_all"  />
<polygon points="184,40 202,40 207,35 202,30 184,30 184,40 " style="fill:white; stroke-width:1; stroke:black; " description="&lt;b&gt;HS041_24560&lt;/b&gt;&lt;br&gt;fatty acyl-AMP ligase&lt;br&gt;Location: 638084 - 639938" locus_tag="HS041_24560" class="clusterblast-orf" id="subclusterblast-2_q12_0_all"  />
<polygon points="207,40 210,35 207,30 207,40 " style="fill:white; stroke-width:1; stroke:black; " description="&lt;b&gt;HS041_24565&lt;/b&gt;&lt;br&gt;acyl carrier protein&lt;br&gt;Location: 639940 - 640210" locus_tag="HS041_24565" class="clusterblast-orf" id="subclusterblast-2_q13_0_all"  />
<polygon points="210,40 235,40 240,35 235,30 210,30 210,40 " style="fill:white; stroke-width:1; stroke:black; " description="&lt;b&gt;HS041_24570&lt;/b&gt;&lt;br&gt;MMPL family transporter&lt;br&gt;Location: 640209 - 642597" locus_tag="HS041_24570" class="clusterblast-orf" id="subclusterblast-2_q14_0_all"  />
<polygon points="242,40 394,40 399,35 394,30 242,30 242,40 " style="fill:white; stroke-width:1; stroke:black; " description="&lt;b&gt;HS041_24575&lt;/b&gt;&lt;br&gt;amino acid adenylation domain-containing protein&lt;br&gt;Location: 642778 - 655606" locus_tag="HS041_24575" class="clusterblast-orf" id="subclusterblast-2_q15_0_all"  />
<polygon points="399,40 474,40 479,35 474,30 399,30 399,40 " style="fill:white; stroke-width:1; stroke:black; " description="&lt;b&gt;HS041_24580&lt;/b&gt;&lt;br&gt;amino acid adenylation domain-containing protein&lt;br&gt;Location: 655602 - 662178" locus_tag="HS041_24580" class="clusterblast-orf" id="subclusterblast-2_q16_0_all"  />
<polygon points="483,40 486,35 483,30 483,40 " style="fill:white; stroke-width:1; stroke:black; " description="&lt;b&gt;HS041_24585&lt;/b&gt;&lt;br&gt;hypothetical protein&lt;br&gt;Location: 662472 - 662742" locus_tag="HS041_24585" class="clusterblast-orf" id="subclusterblast-2_q17_0_all"  />
<polygon points="489,40 494,40 499,35 494,30 489,30 489,40 " style="fill:white; stroke-width:1; stroke:black; " description="&lt;b&gt;HS041_24590&lt;/b&gt;&lt;br&gt;non-ribosomal peptide synthetase&lt;br&gt;Location: 662967 - 663780" locus_tag="HS041_24590" class="clusterblast-orf" id="subclusterblast-2_q18_0_all"  />
<polygon points="499,40 543,40 548,35 543,30 499,30 499,40 " style="fill:white; stroke-width:1; stroke:black; " description="&lt;b&gt;HS041_24595&lt;/b&gt;&lt;br&gt;amino acid adenylation domain-containing protein&lt;br&gt;Location: 663830 - 667796" locus_tag="HS041_24595" class="clusterblast-orf" id="subclusterblast-2_q19_0_all"  />
<polygon points="548,40 550,35 548,30 548,40 " style="fill:white; stroke-width:1; stroke:black; " description="&lt;b&gt;HS041_24600&lt;/b&gt;&lt;br&gt;MbtH family protein&lt;br&gt;Location: 667792 - 668002" locus_tag="HS041_24600" class="clusterblast-orf" id="subclusterblast-2_q20_0_all"  />
<polygon points="551,40 555,40 560,35 555,30 551,30 551,40 " style="fill:white; stroke-width:1; stroke:black; " description="&lt;b&gt;HS041_24605&lt;/b&gt;&lt;br&gt;thioesterase&lt;br&gt;Location: 668060 - 668804" locus_tag="HS041_24605" class="clusterblast-orf" id="subclusterblast-2_q21_0_all"  />
<polygon points="560,35 565,30 571,30 571,40 565,40 560,35 " style="fill:white; stroke-width:1; stroke:black; " description="&lt;b&gt;HS041_24610&lt;/b&gt;&lt;br&gt;alpha/beta fold hydrolase&lt;br&gt;Location: 668770 - 669661" locus_tag="HS041_24610" class="clusterblast-orf" id="subclusterblast-2_q22_0_all"  />
<polygon points="574,40 580,40 585,35 580,30 574,30 574,40 " style="fill:white; stroke-width:1; stroke:black; " description="&lt;b&gt;HS041_24615&lt;/b&gt;&lt;br&gt;carbamate kinase&lt;br&gt;Location: 669904 - 670849" locus_tag="HS041_24615" class="clusterblast-orf" id="subclusterblast-2_q23_0_all"  />
<polygon points="586,40 594,40 599,35 594,30 586,30 586,40 " style="fill:white; stroke-width:1; stroke:black; " description="&lt;b&gt;HS041_24620&lt;/b&gt;&lt;br&gt;ring-opening amidohydrolase&lt;br&gt;Location: 670875 - 671976" locus_tag="HS041_24620" class="clusterblast-orf" id="subclusterblast-2_q24_0_all"  />
<polygon points="600,40 602,40 607,35 602,30 600,30 600,40 " style="fill:white; stroke-width:1; stroke:black; " description="&lt;b&gt;HS041_24625&lt;/b&gt;&lt;br&gt;SseB family protein&lt;br&gt;Location: 672076 - 672640" locus_tag="HS041_24625" class="clusterblast-orf" id="subclusterblast-2_q25_0_all"  />
<polygon points="606,35 610,30 610,40 606,35 " style="fill:white; stroke-width:1; stroke:black; " description="&lt;b&gt;HS041_24630&lt;/b&gt;&lt;br&gt;hypothetical protein&lt;br&gt;Location: 672560 - 672875" locus_tag="HS041_24630" class="clusterblast-orf" id="subclusterblast-2_q26_0_all"  />
<polygon points="611,40 617,40 622,35 617,30 611,30 611,40 " style="fill:white; stroke-width:1; stroke:black; " description="&lt;b&gt;HS041_24635&lt;/b&gt;&lt;br&gt;prepilin peptidase&lt;br&gt;Location: 672979 - 673852" locus_tag="HS041_24635" class="clusterblast-orf" id="subclusterblast-2_q27_0_all"  />
<polygon points="624,40 626,40 631,35 626,30 624,30 624,40 " style="fill:white; stroke-width:1; stroke:black; " description="&lt;b&gt;HS041_24640&lt;/b&gt;&lt;br&gt;SRPBCC domain-containing protein&lt;br&gt;Location: 674041 - 674542" locus_tag="HS041_24640" class="clusterblast-orf" id="subclusterblast-2_q28_0_all"  />
<polygon points="634,40 644,40 649,35 644,30 634,30 634,40 " style="fill:white; stroke-width:1; stroke:black; " description="&lt;b&gt;HS041_24645&lt;/b&gt;&lt;br&gt;GAF domain-containing sensor histidine kinase&lt;br&gt;Location: 674791 - 676051" locus_tag="HS041_24645" class="clusterblast-orf" id="subclusterblast-2_q29_0_all"  />
<polygon points="651,35 656,30 689,30 689,40 656,40 651,35 " style="fill:white; stroke-width:1; stroke:black; " description="&lt;b&gt;HS041_24650&lt;/b&gt;&lt;br&gt;winged helix-turn-helix domain-containing protein&lt;br&gt;Location: 676214 - 679352" locus_tag="HS041_24650" class="clusterblast-orf" id="subclusterblast-2_q30_0_all"  />
<polygon points="694,35 699,30 701,30 701,40 699,40 694,35 " style="fill:white; stroke-width:1; stroke:black; " description="&lt;b&gt;HS041_24655&lt;/b&gt;&lt;br&gt;hypothetical protein&lt;br&gt;Location: 679751 - 680321" locus_tag="HS041_24655" class="clusterblast-orf" id="subclusterblast-2_q31_0_all"  />
<polygon points="704,40 713,40 718,35 713,30 704,30 704,40 " style="fill:white; stroke-width:1; stroke:black; " description="&lt;b&gt;HS041_24660&lt;/b&gt;&lt;br&gt;chorismate synthase&lt;br&gt;Location: 680551 - 681727" locus_tag="HS041_24660" class="clusterblast-orf" id="subclusterblast-2_q32_0_all"  />
<polygon points="718,40 720,40 725,35 720,30 718,30 718,40 " style="fill:white; stroke-width:1; stroke:black; " description="&lt;b&gt;HS041_24665&lt;/b&gt;&lt;br&gt;shikimate kinase&lt;br&gt;Location: 681723 - 682227" locus_tag="HS041_24665" class="clusterblast-orf" id="subclusterblast-2_q33_0_all"  />
<polygon points="725,40 733,40 738,35 733,30 725,30 725,40 " style="fill:white; stroke-width:1; stroke:black; " description="&lt;b&gt;HS041_24670&lt;/b&gt;&lt;br&gt;3-dehydroquinate synthase&lt;br&gt;Location: 682273 - 683350" locus_tag="HS041_24670" class="clusterblast-orf" id="subclusterblast-2_q34_0_all"  />
<polygon points="739,40 739,40 744,35 739,30 739,30 739,40 " style="fill:white; stroke-width:1; stroke:black; " description="&lt;b&gt;HS041_24675&lt;/b&gt;&lt;br&gt;type II 3-dehydroquinate dehydratase&lt;br&gt;Location: 683419 - 683851" locus_tag="HS041_24675" class="clusterblast-orf" id="subclusterblast-2_q35_0_all"  />
<polygon points="746,40 750,40 755,35 750,30 746,30 746,40 " style="fill:white; stroke-width:1; stroke:black; " description="&lt;b&gt;HS041_24680&lt;/b&gt;&lt;br&gt;SGNH/GDSL hydrolase family protein&lt;br&gt;Location: 683949 - 684729" locus_tag="HS041_24680" class="clusterblast-orf" id="subclusterblast-2_q36_0_all"  />
<polygon points="756,35 761,30 780,30 780,40 761,40 756,35 " style="fill:white; stroke-width:1; stroke:black; " description="&lt;b&gt;HS041_24685&lt;/b&gt;&lt;br&gt;ATP-dependent DNA helicase&lt;br&gt;Location: 684757 - 686725" locus_tag="HS041_24685" class="clusterblast-orf" id="subclusterblast-2_q37_0_all"  />
</g>
</svg>
