<svg xmlns="http://www.w3.org/2000/svg" xmlns:xlink="http://www.w3.org/1999/xlink" version="1.1" x="0" y="0" height="50" width="800" viewBox="0 0 800 50" preserveAspectRatio="none"  >
<g label="Query sequence" class="clusterblast-cluster"  >
<text x="5" y="20" class="clusterblast-acc"  >
Query sequence</text>
<line x1="10" y1="35" x2="778.0" y2="35" style="stroke-width:1; stroke:grey; "  />
<polygon points="0,40 1,40 6,35 1,30 0,30 0,40 " style="fill:white; stroke-width:1; stroke:black; " description="&lt;b&gt;HS041_26975&lt;/b&gt;&lt;br&gt;hypothetical protein&lt;br&gt;Location: 86753 - 87146" locus_tag="HS041_26975" class="clusterblast-orf" id="subclusterblast-1_q0_0_all"  />
<polygon points="6,40 17,40 22,35 17,30 6,30 6,40 " style="fill:white; stroke-width:1; stroke:black; " description="&lt;b&gt;HS041_26980&lt;/b&gt;&lt;br&gt;MoxR family ATPase&lt;br&gt;Location: 87148 - 88129" locus_tag="HS041_26980" class="clusterblast-orf" id="subclusterblast-1_q1_0_all"  />
<polygon points="22,40 38,40 43,35 38,30 22,30 22,40 " style="fill:white; stroke-width:1; stroke:black; " description="&lt;b&gt;HS041_26985&lt;/b&gt;&lt;br&gt;DUF58 domain-containing protein&lt;br&gt;Location: 88125 - 89373" locus_tag="HS041_26985" class="clusterblast-orf" id="subclusterblast-1_q2_0_all"  />
<polygon points="44,40 48,40 53,35 48,30 44,30 44,40 " style="fill:white; stroke-width:1; stroke:black; " description="&lt;b&gt;HS041_26990&lt;/b&gt;&lt;br&gt;hypothetical protein&lt;br&gt;Location: 89428 - 89992" locus_tag="HS041_26990" class="clusterblast-orf" id="subclusterblast-1_q3_0_all"  />
<polygon points="53,35 58,30 66,30 66,40 58,40 53,35 " style="fill:white; stroke-width:1; stroke:black; " description="&lt;b&gt;HS041_26995&lt;/b&gt;&lt;br&gt;amidohydrolase&lt;br&gt;Location: 89984 - 90767" locus_tag="HS041_26995" class="clusterblast-orf" id="subclusterblast-1_q4_0_all"  />
<polygon points="68,40 78,40 83,35 78,30 68,30 68,40 " style="fill:white; stroke-width:1; stroke:black; " description="&lt;b&gt;HS041_27000&lt;/b&gt;&lt;br&gt;LysR family transcriptional regulator&lt;br&gt;Location: 90880 - 91789" locus_tag="HS041_27000" class="clusterblast-orf" id="subclusterblast-1_q5_0_all"  />
<polygon points="85,40 88,35 85,30 85,40 " style="fill:white; stroke-width:1; stroke:black; " description="&lt;b&gt;HS041_27005&lt;/b&gt;&lt;br&gt;hypothetical protein&lt;br&gt;Location: 91927 - 92101" locus_tag="HS041_27005" class="clusterblast-orf" id="subclusterblast-1_q6_0_all"  />
<polygon points="89,35 94,30 101,30 101,40 94,40 89,35 " style="fill:white; stroke-width:1; stroke:black; " description="&lt;b&gt;HS041_27010&lt;/b&gt;&lt;br&gt;methyltransferase domain-containing protein&lt;br&gt;Location: 92133 - 92898" locus_tag="HS041_27010" class="clusterblast-orf" id="subclusterblast-1_q7_0_all"  />
<polygon points="102,35 107,30 111,30 111,40 107,40 102,35 " style="fill:white; stroke-width:1; stroke:black; " description="&lt;b&gt;HS041_27015&lt;/b&gt;&lt;br&gt;TrmH family RNA methyltransferase&lt;br&gt;Location: 92922 - 93492" locus_tag="HS041_27015" class="clusterblast-orf" id="subclusterblast-1_q8_0_all"  />
<polygon points="112,35 117,30 122,30 122,40 117,40 112,35 " style="fill:white; stroke-width:1; stroke:black; " description="&lt;b&gt;HS041_27020&lt;/b&gt;&lt;br&gt;methyltransferase&lt;br&gt;Location: 93562 - 94174" locus_tag="HS041_27020" class="clusterblast-orf" id="subclusterblast-1_q9_0_all"  />
<polygon points="126,35 131,30 142,30 142,40 131,40 126,35 " style="fill:white; stroke-width:1; stroke:black; " description="&lt;b&gt;HS041_27025&lt;/b&gt;&lt;br&gt;VWA domain-containing protein&lt;br&gt;Location: 94391 - 95339" locus_tag="HS041_27025" class="clusterblast-orf" id="subclusterblast-1_q10_0_all"  />
<polygon points="142,35 147,30 158,30 158,40 147,40 142,35 " style="fill:white; stroke-width:1; stroke:black; " description="&lt;b&gt;HS041_27030&lt;/b&gt;&lt;br&gt;DUF58 domain-containing protein&lt;br&gt;Location: 95335 - 96325" locus_tag="HS041_27030" class="clusterblast-orf" id="subclusterblast-1_q11_0_all"  />
<polygon points="158,35 163,30 174,30 174,40 163,40 158,35 " style="fill:white; stroke-width:1; stroke:black; " description="&lt;b&gt;HS041_27035&lt;/b&gt;&lt;br&gt;MoxR family ATPase&lt;br&gt;Location: 96321 - 97326" locus_tag="HS041_27035" class="clusterblast-orf" id="subclusterblast-1_q12_0_all"  />
<polygon points="176,40 184,40 189,35 184,30 176,30 176,40 " style="fill:white; stroke-width:1; stroke:black; " description="&lt;b&gt;HS041_27040&lt;/b&gt;&lt;br&gt;hypothetical protein&lt;br&gt;Location: 97430 - 98192" locus_tag="HS041_27040" class="clusterblast-orf" id="subclusterblast-1_q13_0_all"  />
<polygon points="190,40 200,40 205,35 200,30 190,30 190,40 " style="fill:white; stroke-width:1; stroke:black; " description="&lt;b&gt;HS041_27045&lt;/b&gt;&lt;br&gt;peptidase&lt;br&gt;Location: 98284 - 99184" locus_tag="HS041_27045" class="clusterblast-orf" id="subclusterblast-1_q14_0_all"  />
<polygon points="205,35 210,30 215,30 215,40 210,40 205,35 " style="fill:white; stroke-width:1; stroke:black; " description="&lt;b&gt;HS041_27050&lt;/b&gt;&lt;br&gt;response regulator transcription factor&lt;br&gt;Location: 99153 - 99795" locus_tag="HS041_27050" class="clusterblast-orf" id="subclusterblast-1_q15_0_all"  />
<polygon points="219,40 220,40 225,35 220,30 219,30 219,40 " style="fill:white; stroke-width:1; stroke:black; " description="&lt;b&gt;HS041_27055&lt;/b&gt;&lt;br&gt;hypothetical protein&lt;br&gt;Location: 100000 - 100366" locus_tag="HS041_27055" class="clusterblast-orf" id="subclusterblast-1_q16_0_all"  />
<polygon points="230,35 235,30 253,30 253,40 235,40 230,35 " style="fill:white; stroke-width:1; stroke:black; " description="&lt;b&gt;HS041_27060&lt;/b&gt;&lt;br&gt;MFS transporter&lt;br&gt;Location: 100670 - 102092" locus_tag="HS041_27060" class="clusterblast-orf" id="subclusterblast-1_q17_0_all"  />
<polygon points="255,40 265,40 270,35 265,30 255,30 255,40 " style="fill:white; stroke-width:1; stroke:black; " description="&lt;b&gt;HS041_27065&lt;/b&gt;&lt;br&gt;helix-turn-helix domain-containing protein&lt;br&gt;Location: 102216 - 103098" locus_tag="HS041_27065" class="clusterblast-orf" id="subclusterblast-1_q18_0_all"  />
<polygon points="281,40 297,40 302,35 297,30 281,30 281,40 " style="fill:white; stroke-width:1; stroke:black; " description="&lt;b&gt;HS041_27070&lt;/b&gt;&lt;br&gt;MFS transporter&lt;br&gt;Location: 103740 - 105042" locus_tag="HS041_27070" class="clusterblast-orf" id="subclusterblast-1_q19_0_all"  />
<polygon points="303,40 318,40 323,35 318,30 303,30 303,40 " style="fill:white; stroke-width:1; stroke:black; " description="&lt;b&gt;HS041_27075&lt;/b&gt;&lt;br&gt;non-ribosomal peptide synthetase&lt;br&gt;Location: 105071 - 106319" locus_tag="HS041_27075" class="clusterblast-orf" id="subclusterblast-1_q20_0_all"  />
<polygon points="325,40 371,40 376,35 371,30 325,30 325,40 " style="fill:white; stroke-width:1; stroke:black; " description="&lt;b&gt;HS041_27080&lt;/b&gt;&lt;br&gt;amino acid adenylation domain-containing protein&lt;br&gt;Location: 106407 - 109521" locus_tag="HS041_27080" class="clusterblast-orf" id="subclusterblast-1_q21_0_all"  />
<polygon points="376,40 390,40 395,35 390,30 376,30 376,40 " style="fill:white; stroke-width:1; stroke:black; " description="&lt;b&gt;HS041_27085&lt;/b&gt;&lt;br&gt;acyl-CoA dehydrogenase family protein&lt;br&gt;Location: 109517 - 110669" locus_tag="HS041_27085" class="clusterblast-orf" id="subclusterblast-1_q22_0_all"  />
<polygon points="395,40 421,40 426,35 421,30 395,30 395,40 " style="fill:white; stroke-width:1; stroke:black; " description="&lt;b&gt;HS041_27090&lt;/b&gt;&lt;br&gt;non-ribosomal peptide synthetase&lt;br&gt;Location: 110687 - 112571" locus_tag="HS041_27090" class="clusterblast-orf" id="subclusterblast-1_q23_0_all"  />
<polygon points="427,40 452,40 457,35 452,30 427,30 427,40 " style="fill:white; stroke-width:1; stroke:black; " description="&lt;b&gt;HS041_27095&lt;/b&gt;&lt;br&gt;non-ribosomal peptide synthetase&lt;br&gt;Location: 112593 - 114411" locus_tag="HS041_27095" class="clusterblast-orf" id="subclusterblast-1_q24_0_all"  />
<polygon points="457,40 495,40 500,35 495,30 457,30 457,40 " style="fill:white; stroke-width:1; stroke:black; " description="&lt;b&gt;HS041_27100&lt;/b&gt;&lt;br&gt;NAD(P)H-binding protein&lt;br&gt;Location: 114394 - 117007" locus_tag="HS041_27100" class="clusterblast-orf" id="subclusterblast-1_q25_0_all"  />
<polygon points="503,40 506,35 503,30 503,40 " style="fill:white; stroke-width:1; stroke:black; " description="&lt;b&gt;HS041_27105&lt;/b&gt;&lt;br&gt;hypothetical protein&lt;br&gt;Location: 117212 - 117389" locus_tag="HS041_27105" class="clusterblast-orf" id="subclusterblast-1_q26_0_all"  />
<polygon points="506,35 511,30 519,30 519,40 511,40 506,35 " style="fill:white; stroke-width:1; stroke:black; " description="&lt;b&gt;HS041_27110&lt;/b&gt;&lt;br&gt;transposase family protein&lt;br&gt;Location: 117408 - 118191" locus_tag="HS041_27110" class="clusterblast-orf" id="subclusterblast-1_q27_0_all"  />
<polygon points="525,35 530,30 568,30 568,40 530,40 525,35 " style="fill:white; stroke-width:1; stroke:black; " description="&lt;b&gt;HS041_27115&lt;/b&gt;&lt;br&gt;phosphoenolpyruvate synthase&lt;br&gt;Location: 118558 - 121153" locus_tag="HS041_27115" class="clusterblast-orf" id="subclusterblast-1_q28_0_all"  />
<polygon points="585,35 590,30 595,30 595,40 590,40 585,35 " style="fill:white; stroke-width:1; stroke:black; " description="&lt;b&gt;HS041_27120&lt;/b&gt;&lt;br&gt;hypothetical protein&lt;br&gt;Location: 122181 - 122760" locus_tag="HS041_27120" class="clusterblast-orf" id="subclusterblast-1_q29_0_all"  />
<polygon points="600,40 620,40 625,35 620,30 600,30 600,40 " style="fill:white; stroke-width:1; stroke:black; " description="&lt;b&gt;HS041_27125&lt;/b&gt;&lt;br&gt;isocitrate lyase/phosphoenolpyruvate mutase family protein&lt;br&gt;Location: 123056 - 124592" locus_tag="HS041_27125" class="clusterblast-orf" id="subclusterblast-1_q30_0_all"  />
<polygon points="632,35 637,30 648,30 648,40 637,40 632,35 " style="fill:white; stroke-width:1; stroke:black; " description="&lt;b&gt;HS041_27130&lt;/b&gt;&lt;br&gt;winged helix-turn-helix transcriptional regulator&lt;br&gt;Location: 124977 - 125973" locus_tag="HS041_27130" class="clusterblast-orf" id="subclusterblast-1_q31_0_all"  />
<polygon points="658,40 693,40 698,35 693,30 658,30 658,40 " style="fill:white; stroke-width:1; stroke:black; " description="&lt;b&gt;HS041_27135&lt;/b&gt;&lt;br&gt;hypothetical protein&lt;br&gt;Location: 126572 - 128975" locus_tag="HS041_27135" class="clusterblast-orf" id="subclusterblast-1_q32_0_all"  />
<polygon points="702,35 705,30 705,40 702,35 " style="fill:white; stroke-width:1; stroke:black; " description="&lt;b&gt;HS041_27140&lt;/b&gt;&lt;br&gt;IS5/IS1182 family transposase&lt;br&gt;Location: 129257 - 129392" locus_tag="HS041_27140" class="clusterblast-orf" id="subclusterblast-1_q33_0_all"  />
<polygon points="707,35 712,30 718,30 718,40 712,40 707,35 " style="fill:white; stroke-width:1; stroke:black; " description="&lt;b&gt;HS041_27145&lt;/b&gt;&lt;br&gt;helix-turn-helix domain-containing protein&lt;br&gt;Location: 129528 - 130227" locus_tag="HS041_27145" class="clusterblast-orf" id="subclusterblast-1_q34_0_all"  />
<polygon points="722,40 733,40 738,35 733,30 722,30 722,40 " style="fill:white; stroke-width:1; stroke:black; " description="&lt;b&gt;HS041_27150&lt;/b&gt;&lt;br&gt;hypothetical protein&lt;br&gt;Location: 130455 - 131430" locus_tag="HS041_27150" class="clusterblast-orf" id="subclusterblast-1_q35_0_all"  />
<polygon points="746,40 746,40 751,35 746,30 746,30 746,40 " style="fill:white; stroke-width:1; stroke:black; " description="&lt;b&gt;HS041_27155&lt;/b&gt;&lt;br&gt;hypothetical protein&lt;br&gt;Location: 131896 - 132178" locus_tag="HS041_27155" class="clusterblast-orf" id="subclusterblast-1_q36_0_all"  />
<polygon points="755,35 760,30 760,30 760,40 760,40 755,35 " style="fill:white; stroke-width:1; stroke:black; " description="&lt;b&gt;HS041_27160&lt;/b&gt;&lt;br&gt;helix-turn-helix transcriptional regulator&lt;br&gt;Location: 132444 - 132759" locus_tag="HS041_27160" class="clusterblast-orf" id="subclusterblast-1_q37_0_all"  />
<polygon points="764,40 767,40 772,35 767,30 764,30 764,40 " style="fill:white; stroke-width:1; stroke:black; " description="&lt;b&gt;HS041_27165&lt;/b&gt;&lt;br&gt;hypothetical protein&lt;br&gt;Location: 132977 - 133451" locus_tag="HS041_27165" class="clusterblast-orf" id="subclusterblast-1_q38_0_all"  />
<polygon points="772,40 775,40 780,35 775,30 772,30 772,40 " style="fill:white; stroke-width:1; stroke:black; " description="&lt;b&gt;HS041_27170&lt;/b&gt;&lt;br&gt;GNAT family N-acetyltransferase&lt;br&gt;Location: 133462 - 133933" locus_tag="HS041_27170" class="clusterblast-orf" id="subclusterblast-1_q39_0_all"  />
</g>
</svg>
