<svg xmlns="http://www.w3.org/2000/svg" xmlns:xlink="http://www.w3.org/1999/xlink" version="1.1" x="0" y="0" height="50" width="800" viewBox="0 0 800 50" preserveAspectRatio="none"  >
<g label="Query sequence" class="clusterblast-cluster"  >
<text x="5" y="20" class="clusterblast-acc"  >
Query sequence</text>
<line x1="10" y1="35" x2="778.0" y2="35" style="stroke-width:1; stroke:grey; "  />
<polygon points="0,35 5,30 48,30 48,40 5,40 0,35 " style="fill:white; stroke-width:1; stroke:black; " description="&lt;b&gt;HS041_23425&lt;/b&gt;&lt;br&gt;acyl-CoA dehydrogenase family protein&lt;br&gt;Location: 374626 - 375772" locus_tag="HS041_23425" class="clusterblast-orf" id="subclusterblast-1_q0_0_all"  />
<polygon points="53,40 158,40 163,35 158,30 53,30 53,40 " style="fill:white; stroke-width:1; stroke:black; " description="&lt;b&gt;HS041_23430&lt;/b&gt;&lt;br&gt;tetratricopeptide repeat protein&lt;br&gt;Location: 375899 - 378527" locus_tag="HS041_23430" class="clusterblast-orf" id="subclusterblast-1_q1_0_all"  />
<polygon points="166,35 171,30 203,30 203,40 171,40 166,35 " style="fill:white; stroke-width:1; stroke:black; " description="&lt;b&gt;HS041_23435&lt;/b&gt;&lt;br&gt;hypothetical protein&lt;br&gt;Location: 378621 - 379497" locus_tag="HS041_23435" class="clusterblast-orf" id="subclusterblast-1_q2_0_all"  />
<polygon points="210,40 238,40 243,35 238,30 210,30 210,40 " style="fill:white; stroke-width:1; stroke:black; " description="&lt;b&gt;HS041_23440&lt;/b&gt;&lt;br&gt;tyrosine-protein phosphatase&lt;br&gt;Location: 379658 - 380456" locus_tag="HS041_23440" class="clusterblast-orf" id="subclusterblast-1_q3_0_all"  />
<polygon points="249,35 254,30 292,30 292,40 254,40 249,35 " style="fill:white; stroke-width:1; stroke:black; " description="&lt;b&gt;HS041_23445&lt;/b&gt;&lt;br&gt;Gfo/Idh/MocA family oxidoreductase&lt;br&gt;Location: 380589 - 381639" locus_tag="HS041_23445" class="clusterblast-orf" id="subclusterblast-1_q4_0_all"  />
<polygon points="292,35 297,30 330,30 330,40 297,40 292,35 " style="fill:white; stroke-width:1; stroke:black; " description="&lt;b&gt;HS041_23450&lt;/b&gt;&lt;br&gt;PAC2 family protein&lt;br&gt;Location: 381631 - 382540" locus_tag="HS041_23450" class="clusterblast-orf" id="subclusterblast-1_q5_0_all"  />
<polygon points="334,40 346,40 351,35 346,30 334,30 334,40 " style="fill:white; stroke-width:1; stroke:black; " description="&lt;b&gt;HS041_23455&lt;/b&gt;&lt;br&gt;ankyrin repeat domain-containing protein&lt;br&gt;Location: 382642 - 383035" locus_tag="HS041_23455" class="clusterblast-orf" id="subclusterblast-1_q6_0_all"  />
<polygon points="353,40 390,40 395,35 390,30 353,30 353,40 " style="fill:white; stroke-width:1; stroke:black; " description="&lt;b&gt;HS041_23460&lt;/b&gt;&lt;br&gt;hypothetical protein&lt;br&gt;Location: 383104 - 384103" locus_tag="HS041_23460" class="clusterblast-orf" id="subclusterblast-1_q7_0_all"  />
<polygon points="397,35 402,30 485,30 485,40 402,40 397,35 " style="fill:white; stroke-width:1; stroke:black; " description="&lt;b&gt;HS041_23465&lt;/b&gt;&lt;br&gt;ATPase&lt;br&gt;Location: 384148 - 386269" locus_tag="HS041_23465" class="clusterblast-orf" id="subclusterblast-1_q8_0_all"  />
<polygon points="491,40 493,40 498,35 493,30 491,30 491,40 " style="fill:white; stroke-width:1; stroke:black; " description="&lt;b&gt;HS041_23470&lt;/b&gt;&lt;br&gt;hypothetical protein&lt;br&gt;Location: 386408 - 386576" locus_tag="HS041_23470" class="clusterblast-orf" id="subclusterblast-1_q9_0_all"  />
<polygon points="498,35 503,30 537,30 537,40 503,40 498,35 " style="fill:white; stroke-width:1; stroke:black; " description="&lt;b&gt;HS041_23475&lt;/b&gt;&lt;br&gt;ABC transporter permease&lt;br&gt;Location: 386582 - 387518" locus_tag="HS041_23475" class="clusterblast-orf" id="subclusterblast-1_q10_0_all"  />
<polygon points="537,35 542,30 650,30 650,40 542,40 537,35 " style="fill:white; stroke-width:1; stroke:black; " description="&lt;b&gt;HS041_23480&lt;/b&gt;&lt;br&gt;alpha/beta fold hydrolase&lt;br&gt;Location: 387514 - 390220" locus_tag="HS041_23480" class="clusterblast-orf" id="subclusterblast-1_q11_0_all"  />
<polygon points="652,35 657,30 673,30 673,40 657,40 652,35 " style="fill:white; stroke-width:1; stroke:black; " description="&lt;b&gt;HS041_23485&lt;/b&gt;&lt;br&gt;GNAT family N-acetyltransferase&lt;br&gt;Location: 390264 - 390768" locus_tag="HS041_23485" class="clusterblast-orf" id="subclusterblast-1_q12_0_all"  />
<polygon points="677,40 720,40 725,35 720,30 677,30 677,40 " style="fill:white; stroke-width:1; stroke:black; " description="&lt;b&gt;HS041_23490&lt;/b&gt;&lt;br&gt;hypothetical protein&lt;br&gt;Location: 390857 - 392003" locus_tag="HS041_23490" class="clusterblast-orf" id="subclusterblast-1_q13_0_all"  />
<polygon points="728,35 733,30 780,30 780,40 733,40 728,35 " style="fill:white; stroke-width:1; stroke:black; " description="&lt;b&gt;HS041_23495&lt;/b&gt;&lt;br&gt;poly(3-hydroxybutyrate) depolymerase&lt;br&gt;Location: 392081 - 393332" locus_tag="HS041_23495" class="clusterblast-orf" id="subclusterblast-1_q14_0_all"  />
</g>
</svg>
