<svg xmlns="http://www.w3.org/2000/svg" xmlns:xlink="http://www.w3.org/1999/xlink" version="1.1" x="0" y="0" height="50" width="800" viewBox="0 0 800 50" preserveAspectRatio="none"  >
<g label="Query sequence" class="clusterblast-cluster"  >
<text x="5" y="20" class="clusterblast-acc"  >
Query sequence</text>
<line x1="10" y1="35" x2="778.0" y2="35" style="stroke-width:1; stroke:grey; "  />
<polygon points="0,35 5,30 28,30 28,40 5,40 0,35 " style="fill:white; stroke-width:1; stroke:black; " description="&lt;b&gt;HS041_21235&lt;/b&gt;&lt;br&gt;hypothetical protein&lt;br&gt;Location: 1937112 - 1939371" locus_tag="HS041_21235" class="clusterblast-orf" id="subclusterblast-7_q0_0_all"  />
<polygon points="33,35 38,30 44,30 44,40 38,40 33,35 " style="fill:white; stroke-width:1; stroke:black; " description="&lt;b&gt;HS041_21240&lt;/b&gt;&lt;br&gt;CHAP domain-containing protein&lt;br&gt;Location: 1939701 - 1940556" locus_tag="HS041_21240" class="clusterblast-orf" id="subclusterblast-7_q1_0_all"  />
<polygon points="50,40 53,40 58,35 53,30 50,30 50,40 " style="fill:white; stroke-width:1; stroke:black; " description="&lt;b&gt;HS041_21245&lt;/b&gt;&lt;br&gt;hypothetical protein&lt;br&gt;Location: 1941076 - 1941694" locus_tag="HS041_21245" class="clusterblast-orf" id="subclusterblast-7_q2_0_all"  />
<polygon points="60,40 70,40 75,35 70,30 60,30 60,40 " style="fill:white; stroke-width:1; stroke:black; " description="&lt;b&gt;HS041_21250&lt;/b&gt;&lt;br&gt;sensor histidine kinase&lt;br&gt;Location: 1941814 - 1943008" locus_tag="HS041_21250" class="clusterblast-orf" id="subclusterblast-7_q3_0_all"  />
<polygon points="75,40 78,40 83,35 78,30 75,30 75,40 " style="fill:white; stroke-width:1; stroke:black; " description="&lt;b&gt;HS041_21255&lt;/b&gt;&lt;br&gt;response regulator transcription factor&lt;br&gt;Location: 1942997 - 1943669" locus_tag="HS041_21255" class="clusterblast-orf" id="subclusterblast-7_q4_0_all"  />
<polygon points="84,35 89,30 108,30 108,40 89,40 84,35 " style="fill:white; stroke-width:1; stroke:black; " description="&lt;b&gt;HS041_21260&lt;/b&gt;&lt;br&gt;ABC transporter ATP-binding protein&lt;br&gt;Location: 1943750 - 1945613" locus_tag="HS041_21260" class="clusterblast-orf" id="subclusterblast-7_q5_0_all"  />
<polygon points="108,35 113,30 131,30 131,40 113,40 108,35 " style="fill:white; stroke-width:1; stroke:black; " description="&lt;b&gt;HS041_21265&lt;/b&gt;&lt;br&gt;ABC transporter ATP-binding protein&lt;br&gt;Location: 1945609 - 1947397" locus_tag="HS041_21265" class="clusterblast-orf" id="subclusterblast-7_q6_0_all"  />
<polygon points="137,40 142,40 147,35 142,30 137,30 137,40 " style="fill:white; stroke-width:1; stroke:black; " description="&lt;b&gt;HS041_21270&lt;/b&gt;&lt;br&gt;ATP-grasp domain-containing protein&lt;br&gt;Location: 1947832 - 1948663" locus_tag="HS041_21270" class="clusterblast-orf" id="subclusterblast-7_q7_0_all"  />
<polygon points="148,40 162,40 167,35 162,30 148,30 148,40 " style="fill:white; stroke-width:1; stroke:black; " description="&lt;b&gt;HS041_21275&lt;/b&gt;&lt;br&gt;carboxylesterase/lipase family protein&lt;br&gt;Location: 1948734 - 1950192" locus_tag="HS041_21275" class="clusterblast-orf" id="subclusterblast-7_q8_0_all"  />
<polygon points="167,35 172,30 177,30 177,40 172,40 167,35 " style="fill:white; stroke-width:1; stroke:black; " description="&lt;b&gt;HS041_21280&lt;/b&gt;&lt;br&gt;SAM-dependent methyltransferase&lt;br&gt;Location: 1950208 - 1951003" locus_tag="HS041_21280" class="clusterblast-orf" id="subclusterblast-7_q9_0_all"  />
<polygon points="179,35 184,30 236,30 236,40 184,40 179,35 " style="fill:white; stroke-width:1; stroke:black; " description="&lt;b&gt;HS041_21285&lt;/b&gt;&lt;br&gt;HAMP domain-containing protein&lt;br&gt;Location: 1951119 - 1955643" locus_tag="HS041_21285" class="clusterblast-orf" id="subclusterblast-7_q10_0_all"  />
<polygon points="238,35 243,30 249,30 249,40 243,40 238,35 " style="fill:white; stroke-width:1; stroke:black; " description="&lt;b&gt;HS041_21290&lt;/b&gt;&lt;br&gt;hypothetical protein&lt;br&gt;Location: 1955761 - 1956601" locus_tag="HS041_21290" class="clusterblast-orf" id="subclusterblast-7_q11_0_all"  />
<polygon points="249,35 254,30 289,30 289,40 254,40 249,35 " style="fill:white; stroke-width:1; stroke:black; " description="&lt;b&gt;HS041_21295&lt;/b&gt;&lt;br&gt;amino acid adenylation domain-containing protein&lt;br&gt;Location: 1956659 - 1959785" locus_tag="HS041_21295" class="clusterblast-orf" id="subclusterblast-7_q12_0_all"  />
<polygon points="289,35 294,30 374,30 374,40 294,40 289,35 " style="fill:white; stroke-width:1; stroke:black; " description="&lt;b&gt;HS041_21300&lt;/b&gt;&lt;br&gt;amino acid adenylation domain-containing protein&lt;br&gt;Location: 1959781 - 1966429" locus_tag="HS041_21300" class="clusterblast-orf" id="subclusterblast-7_q13_0_all"  />
<polygon points="377,40 388,40 393,35 388,30 377,30 377,40 " style="fill:white; stroke-width:1; stroke:black; " description="&lt;b&gt;HS041_21305&lt;/b&gt;&lt;br&gt;thioesterase&lt;br&gt;Location: 1966631 - 1967954" locus_tag="HS041_21305" class="clusterblast-orf" id="subclusterblast-7_q14_0_all"  />
<polygon points="394,40 455,40 460,35 455,30 394,30 394,40 " style="fill:white; stroke-width:1; stroke:black; " description="&lt;b&gt;HS041_21310&lt;/b&gt;&lt;br&gt;amino acid adenylation domain-containing protein&lt;br&gt;Location: 1967969 - 1973141" locus_tag="HS041_21310" class="clusterblast-orf" id="subclusterblast-7_q15_0_all"  />
<polygon points="460,40 525,40 530,35 525,30 460,30 460,40 " style="fill:white; stroke-width:1; stroke:black; " description="&lt;b&gt;HS041_21315&lt;/b&gt;&lt;br&gt;SDR family NAD(P)-dependent oxidoreductase&lt;br&gt;Location: 1973137 - 1978654" locus_tag="HS041_21315" class="clusterblast-orf" id="subclusterblast-7_q16_0_all"  />
<polygon points="531,35 536,30 545,30 545,40 536,40 531,35 " style="fill:white; stroke-width:1; stroke:black; " description="&lt;b&gt;HS041_21320&lt;/b&gt;&lt;br&gt;LLM class F420-dependent oxidoreductase&lt;br&gt;Location: 1978729 - 1979803" locus_tag="HS041_21320" class="clusterblast-orf" id="subclusterblast-7_q17_0_all"  />
<polygon points="548,40 559,40 564,35 559,30 548,30 548,40 " style="fill:white; stroke-width:1; stroke:black; " description="&lt;b&gt;HS041_21325&lt;/b&gt;&lt;br&gt;FxsB family radical SAM/SPASM domain protein&lt;br&gt;Location: 1980014 - 1981337" locus_tag="HS041_21325" class="clusterblast-orf" id="subclusterblast-7_q18_0_all"  />
<polygon points="564,40 577,40 582,35 577,30 564,30 564,40 " style="fill:white; stroke-width:1; stroke:black; " description="&lt;b&gt;HS041_21330&lt;/b&gt;&lt;br&gt;HEXXH motif domain-containing protein&lt;br&gt;Location: 1981333 - 1982683" locus_tag="HS041_21330" class="clusterblast-orf" id="subclusterblast-7_q19_0_all"  />
<polygon points="582,35 587,30 615,30 615,40 587,40 582,35 " style="fill:white; stroke-width:1; stroke:black; " description="&lt;b&gt;HS041_21335&lt;/b&gt;&lt;br&gt;tetratricopeptide repeat protein&lt;br&gt;Location: 1982707 - 1985305" locus_tag="HS041_21335" class="clusterblast-orf" id="subclusterblast-7_q20_0_all"  />
<polygon points="617,40 619,35 617,30 617,40 " style="fill:white; stroke-width:1; stroke:black; " description="&lt;b&gt;HS041_21340&lt;/b&gt;&lt;br&gt;hypothetical protein&lt;br&gt;Location: 1985453 - 1985621" locus_tag="HS041_21340" class="clusterblast-orf" id="subclusterblast-7_q21_0_all"  />
<polygon points="624,40 628,40 633,35 628,30 624,30 624,40 " style="fill:white; stroke-width:1; stroke:black; " description="&lt;b&gt;HS041_21345&lt;/b&gt;&lt;br&gt;SIR2 family protein&lt;br&gt;Location: 1985987 - 1986707" locus_tag="HS041_21345" class="clusterblast-orf" id="subclusterblast-7_q22_0_all"  />
<polygon points="633,40 654,40 659,35 654,30 633,30 633,40 " style="fill:white; stroke-width:1; stroke:black; " description="&lt;b&gt;HS041_21350&lt;/b&gt;&lt;br&gt;tetratricopeptide repeat protein&lt;br&gt;Location: 1986703 - 1988722" locus_tag="HS041_21350" class="clusterblast-orf" id="subclusterblast-7_q23_0_all"  />
<polygon points="658,35 663,30 673,30 673,40 663,40 658,35 " style="fill:white; stroke-width:1; stroke:black; " description="&lt;b&gt;HS041_21355&lt;/b&gt;&lt;br&gt;MFS transporter&lt;br&gt;Location: 1988678 - 1989872" locus_tag="HS041_21355" class="clusterblast-orf" id="subclusterblast-7_q24_0_all"  />
<polygon points="678,35 683,30 696,30 696,40 683,40 678,35 " style="fill:white; stroke-width:1; stroke:black; " description="&lt;b&gt;HS041_21360&lt;/b&gt;&lt;br&gt;NAD(P)/FAD-dependent oxidoreductase&lt;br&gt;Location: 1990223 - 1991636" locus_tag="HS041_21360" class="clusterblast-orf" id="subclusterblast-7_q25_0_all"  />
<polygon points="698,40 705,40 710,35 705,30 698,30 698,40 " style="fill:white; stroke-width:1; stroke:black; " description="&lt;b&gt;HS041_21365&lt;/b&gt;&lt;br&gt;DMT family transporter&lt;br&gt;Location: 1991825 - 1992710" locus_tag="HS041_21365" class="clusterblast-orf" id="subclusterblast-7_q26_0_all"  />
<polygon points="711,35 716,30 717,30 717,40 716,40 711,35 " style="fill:white; stroke-width:1; stroke:black; " description="&lt;b&gt;HS041_21370&lt;/b&gt;&lt;br&gt;low molecular weight phosphotyrosine protein phosphatase&lt;br&gt;Location: 1992839 - 1993316" locus_tag="HS041_21370" class="clusterblast-orf" id="subclusterblast-7_q27_0_all"  />
<polygon points="718,35 723,30 730,30 730,40 723,40 718,35 " style="fill:white; stroke-width:1; stroke:black; " description="&lt;b&gt;HS041_21375&lt;/b&gt;&lt;br&gt;helix-turn-helix domain-containing protein&lt;br&gt;Location: 1993359 - 1994304" locus_tag="HS041_21375" class="clusterblast-orf" id="subclusterblast-7_q28_0_all"  />
<polygon points="731,40 737,40 742,35 737,30 731,30 731,40 " style="fill:white; stroke-width:1; stroke:black; " description="&lt;b&gt;HS041_21380&lt;/b&gt;&lt;br&gt;NAD-dependent epimerase&lt;br&gt;Location: 1994388 - 1995267" locus_tag="HS041_21380" class="clusterblast-orf" id="subclusterblast-7_q29_0_all"  />
<polygon points="745,35 750,30 752,30 752,40 750,40 745,35 " style="fill:white; stroke-width:1; stroke:black; " description="&lt;b&gt;HS041_21385&lt;/b&gt;&lt;br&gt;tryptophan-rich sensory protein&lt;br&gt;Location: 1995462 - 1996020" locus_tag="HS041_21385" class="clusterblast-orf" id="subclusterblast-7_q30_0_all"  />
<polygon points="755,40 767,40 772,35 767,30 755,30 755,40 " style="fill:white; stroke-width:1; stroke:black; " description="&lt;b&gt;HS041_21390&lt;/b&gt;&lt;br&gt;serine hydrolase&lt;br&gt;Location: 1996236 - 1997562" locus_tag="HS041_21390" class="clusterblast-orf" id="subclusterblast-7_q31_0_all"  />
<polygon points="773,35 778,30 780,30 780,40 778,40 773,35 " style="fill:white; stroke-width:1; stroke:black; " description="&lt;b&gt;HS041_21395&lt;/b&gt;&lt;br&gt;hypothetical protein&lt;br&gt;Location: 1997644 - 1998190" locus_tag="HS041_21395" class="clusterblast-orf" id="subclusterblast-7_q32_0_all"  />
</g>
</svg>
