<svg xmlns="http://www.w3.org/2000/svg" xmlns:xlink="http://www.w3.org/1999/xlink" version="1.1" x="0" y="0" height="50" width="800" viewBox="0 0 800 50" preserveAspectRatio="none"  >
<g label="Query sequence" class="clusterblast-cluster"  >
<text x="5" y="20" class="clusterblast-acc"  >
Query sequence</text>
<line x1="10" y1="35" x2="778.0" y2="35" style="stroke-width:1; stroke:grey; "  />
<polygon points="0,35 5,30 63,30 63,40 5,40 0,35 " style="fill:white; stroke-width:1; stroke:black; " description="&lt;b&gt;HS041_18780&lt;/b&gt;&lt;br&gt;hypothetical protein&lt;br&gt;Location: 1372842 - 1374474" locus_tag="HS041_18780" class="clusterblast-orf" id="subclusterblast-5_q0_0_all"  />
<polygon points="69,40 89,40 94,35 89,30 69,30 69,40 " style="fill:white; stroke-width:1; stroke:black; " description="&lt;b&gt;HS041_18785&lt;/b&gt;&lt;br&gt;TetR family transcriptional regulator&lt;br&gt;Location: 1374624 - 1375272" locus_tag="HS041_18785" class="clusterblast-orf" id="subclusterblast-5_q1_0_all"  />
<polygon points="98,40 170,40 175,35 170,30 98,30 98,40 " style="fill:white; stroke-width:1; stroke:black; " description="&lt;b&gt;HS041_18790&lt;/b&gt;&lt;br&gt;methylmalonyl-CoA mutase small subunit&lt;br&gt;Location: 1375358 - 1377350" locus_tag="HS041_18790" class="clusterblast-orf" id="subclusterblast-5_q2_0_all"  />
<polygon points="178,40 259,40 264,35 259,30 178,30 178,40 " style="fill:white; stroke-width:1; stroke:black; " description="&lt;b&gt;HS041_18795&lt;/b&gt;&lt;br&gt;methylmalonyl-CoA mutase&lt;br&gt;Location: 1377417 - 1379625" locus_tag="HS041_18795" class="clusterblast-orf" id="subclusterblast-5_q3_0_all"  />
<polygon points="266,40 299,40 304,35 299,30 266,30 266,40 " style="fill:white; stroke-width:1; stroke:black; " description="&lt;b&gt;HS041_18800&lt;/b&gt;&lt;br&gt;methylmalonyl Co-A mutase-associated GTPase MeaB&lt;br&gt;Location: 1379674 - 1380646" locus_tag="HS041_18800" class="clusterblast-orf" id="subclusterblast-5_q4_0_all"  />
<polygon points="320,40 369,40 374,35 369,30 320,30 320,40 " style="fill:white; stroke-width:1; stroke:black; " description="&lt;b&gt;HS041_18805&lt;/b&gt;&lt;br&gt;cytochrome P450&lt;br&gt;Location: 1381062 - 1382457" locus_tag="HS041_18805" class="clusterblast-orf" id="subclusterblast-5_q5_0_all"  />
<polygon points="376,40 404,40 409,35 404,30 376,30 376,40 " style="fill:white; stroke-width:1; stroke:black; " description="&lt;b&gt;HS041_18810&lt;/b&gt;&lt;br&gt;hypothetical protein&lt;br&gt;Location: 1382492 - 1383338" locus_tag="HS041_18810" class="clusterblast-orf" id="subclusterblast-5_q6_0_all"  />
<polygon points="408,40 470,40 475,35 470,30 408,30 408,40 " style="fill:white; stroke-width:1; stroke:black; " description="&lt;b&gt;HS041_18815&lt;/b&gt;&lt;br&gt;hypothetical protein&lt;br&gt;Location: 1383337 - 1385053" locus_tag="HS041_18815" class="clusterblast-orf" id="subclusterblast-5_q7_0_all"  />
<polygon points="484,40 579,40 584,35 579,30 484,30 484,40 " style="fill:white; stroke-width:1; stroke:black; " description="&lt;b&gt;HS041_18820&lt;/b&gt;&lt;br&gt;nitrate- and nitrite sensing domain-containing protein&lt;br&gt;Location: 1385266 - 1387858" locus_tag="HS041_18820" class="clusterblast-orf" id="subclusterblast-5_q8_0_all"  />
<polygon points="588,40 600,40 605,35 600,30 588,30 588,40 " style="fill:white; stroke-width:1; stroke:black; " description="&lt;b&gt;HS041_18825&lt;/b&gt;&lt;br&gt;roadblock/LC7 domain-containing protein&lt;br&gt;Location: 1387949 - 1388381" locus_tag="HS041_18825" class="clusterblast-orf" id="subclusterblast-5_q9_0_all"  />
<polygon points="605,40 615,40 620,35 615,30 605,30 605,40 " style="fill:white; stroke-width:1; stroke:black; " description="&lt;b&gt;HS041_18830&lt;/b&gt;&lt;br&gt;DUF742 domain-containing protein&lt;br&gt;Location: 1388377 - 1388764" locus_tag="HS041_18830" class="clusterblast-orf" id="subclusterblast-5_q10_0_all"  />
<polygon points="619,40 639,40 644,35 639,30 619,30 619,40 " style="fill:white; stroke-width:1; stroke:black; " description="&lt;b&gt;HS041_18835&lt;/b&gt;&lt;br&gt;ATP/GTP-binding protein&lt;br&gt;Location: 1388744 - 1389374" locus_tag="HS041_18835" class="clusterblast-orf" id="subclusterblast-5_q11_0_all"  />
<polygon points="652,40 664,40 669,35 664,30 652,30 652,40 " style="fill:white; stroke-width:1; stroke:black; " description="&lt;b&gt;HS041_18840&lt;/b&gt;&lt;br&gt;protease inhibitor I42 family protein&lt;br&gt;Location: 1389585 - 1390020" locus_tag="HS041_18840" class="clusterblast-orf" id="subclusterblast-5_q12_0_all"  />
<polygon points="672,40 697,40 702,35 697,30 672,30 672,40 " style="fill:white; stroke-width:1; stroke:black; " description="&lt;b&gt;HS041_18845&lt;/b&gt;&lt;br&gt;UDP-galactose-lipid carrier transferase&lt;br&gt;Location: 1390095 - 1390878" locus_tag="HS041_18845" class="clusterblast-orf" id="subclusterblast-5_q13_0_all"  />
<polygon points="708,40 750,40 755,35 750,30 708,30 708,40 " style="fill:white; stroke-width:1; stroke:black; " description="&lt;b&gt;HS041_18850&lt;/b&gt;&lt;br&gt;hypothetical protein&lt;br&gt;Location: 1391039 - 1392242" locus_tag="HS041_18850" class="clusterblast-orf" id="subclusterblast-5_q14_0_all"  />
<polygon points="758,35 763,30 780,30 780,40 763,40 758,35 " style="fill:white; stroke-width:1; stroke:black; " description="&lt;b&gt;HS041_18855&lt;/b&gt;&lt;br&gt;hemerythrin domain-containing protein&lt;br&gt;Location: 1392322 - 1392877" locus_tag="HS041_18855" class="clusterblast-orf" id="subclusterblast-5_q15_0_all"  />
</g>
</svg>
