<svg xmlns="http://www.w3.org/2000/svg" xmlns:xlink="http://www.w3.org/1999/xlink" version="1.1" x="0" y="0" height="50" width="800" viewBox="0 0 800 50" preserveAspectRatio="none"  >
<g label="Query sequence" class="clusterblast-cluster"  >
<text x="5" y="20" class="clusterblast-acc"  >
Query sequence</text>
<line x1="10" y1="35" x2="778.0" y2="35" style="stroke-width:1; stroke:grey; "  />
<polygon points="0,35 5,30 19,30 19,40 5,40 0,35 " style="fill:white; stroke-width:1; stroke:black; " description="&lt;b&gt;HS041_35125&lt;/b&gt;&lt;br&gt;ABC transporter substrate-binding protein&lt;br&gt;Location: 119849 - 120815" locus_tag="HS041_35125" class="clusterblast-orf" id="subclusterblast-2_q0_0_all"  />
<polygon points="19,35 24,30 43,30 43,40 24,40 19,35 " style="fill:white; stroke-width:1; stroke:black; " description="&lt;b&gt;HS041_35130&lt;/b&gt;&lt;br&gt;GGDEF domain-containing protein&lt;br&gt;Location: 120811 - 122050" locus_tag="HS041_35130" class="clusterblast-orf" id="subclusterblast-2_q1_0_all"  />
<polygon points="47,35 52,30 85,30 85,40 52,40 47,35 " style="fill:white; stroke-width:1; stroke:black; " description="&lt;b&gt;HS041_35135&lt;/b&gt;&lt;br&gt;dynamin family protein&lt;br&gt;Location: 122250 - 124158" locus_tag="HS041_35135" class="clusterblast-orf" id="subclusterblast-2_q2_0_all"  />
<polygon points="91,35 96,30 128,30 128,40 96,40 91,35 " style="fill:white; stroke-width:1; stroke:black; " description="&lt;b&gt;HS041_35140&lt;/b&gt;&lt;br&gt;dynamin family protein&lt;br&gt;Location: 124479 - 126315" locus_tag="HS041_35140" class="clusterblast-orf" id="subclusterblast-2_q3_0_all"  />
<polygon points="128,35 133,30 133,30 133,40 133,40 128,35 " style="fill:white; stroke-width:1; stroke:black; " description="&lt;b&gt;HS041_35145&lt;/b&gt;&lt;br&gt;hypothetical protein&lt;br&gt;Location: 126311 - 126563" locus_tag="HS041_35145" class="clusterblast-orf" id="subclusterblast-2_q4_0_all"  />
<polygon points="137,40 142,40 147,35 142,30 137,30 137,40 " style="fill:white; stroke-width:1; stroke:black; " description="&lt;b&gt;HS041_35150&lt;/b&gt;&lt;br&gt;RNA polymerase sigma factor&lt;br&gt;Location: 126763 - 127312" locus_tag="HS041_35150" class="clusterblast-orf" id="subclusterblast-2_q5_0_all"  />
<polygon points="148,35 153,30 157,30 157,40 153,40 148,35 " style="fill:white; stroke-width:1; stroke:black; " description="&lt;b&gt;HS041_35155&lt;/b&gt;&lt;br&gt;nucleotide exchange factor GrpE&lt;br&gt;Location: 127317 - 127779" locus_tag="HS041_35155" class="clusterblast-orf" id="subclusterblast-2_q6_0_all"  />
<polygon points="170,35 175,30 175,30 175,40 175,40 170,35 " style="fill:white; stroke-width:1; stroke:black; " description="&lt;b&gt;HS041_35160&lt;/b&gt;&lt;br&gt;hypothetical protein&lt;br&gt;Location: 128435 - 128690" locus_tag="HS041_35160" class="clusterblast-orf" id="subclusterblast-2_q7_0_all"  />
<polygon points="182,35 187,30 216,30 216,40 187,40 182,35 " style="fill:white; stroke-width:1; stroke:black; " description="&lt;b&gt;HS041_35165&lt;/b&gt;&lt;br&gt;glycoside hydrolase family 15 protein&lt;br&gt;Location: 129035 - 130796" locus_tag="HS041_35165" class="clusterblast-orf" id="subclusterblast-2_q8_0_all"  />
<polygon points="217,35 222,30 229,30 229,40 222,40 217,35 " style="fill:white; stroke-width:1; stroke:black; " description="&lt;b&gt;HS041_35170&lt;/b&gt;&lt;br&gt;hypothetical protein&lt;br&gt;Location: 130827 - 131448" locus_tag="HS041_35170" class="clusterblast-orf" id="subclusterblast-2_q9_0_all"  />
<polygon points="231,40 254,40 259,35 254,30 231,30 231,40 " style="fill:white; stroke-width:1; stroke:black; " description="&lt;b&gt;HS041_35175&lt;/b&gt;&lt;br&gt;PLP-dependent aminotransferase family protein&lt;br&gt;Location: 131510 - 132956" locus_tag="HS041_35175" class="clusterblast-orf" id="subclusterblast-2_q10_0_all"  />
<polygon points="261,35 266,30 273,30 273,40 266,40 261,35 " style="fill:white; stroke-width:1; stroke:black; " description="&lt;b&gt;HS041_35180&lt;/b&gt;&lt;br&gt;trimeric intracellular cation channel family protein&lt;br&gt;Location: 133042 - 133657" locus_tag="HS041_35180" class="clusterblast-orf" id="subclusterblast-2_q11_0_all"  />
<polygon points="278,40 309,40 314,35 309,30 278,30 278,40 " style="fill:white; stroke-width:1; stroke:black; " description="&lt;b&gt;HS041_35185&lt;/b&gt;&lt;br&gt;long-chain fatty acid--CoA ligase&lt;br&gt;Location: 133887 - 135726" locus_tag="HS041_35185" class="clusterblast-orf" id="subclusterblast-2_q12_0_all"  />
<polygon points="316,40 328,40 333,35 328,30 316,30 316,40 " style="fill:white; stroke-width:1; stroke:black; " description="&lt;b&gt;HS041_35190&lt;/b&gt;&lt;br&gt;hypothetical protein&lt;br&gt;Location: 135849 - 136671" locus_tag="HS041_35190" class="clusterblast-orf" id="subclusterblast-2_q13_0_all"  />
<polygon points="336,40 341,40 346,35 341,30 336,30 336,40 " style="fill:white; stroke-width:1; stroke:black; " description="&lt;b&gt;HS041_35195&lt;/b&gt;&lt;br&gt;hypothetical protein&lt;br&gt;Location: 136822 - 137326" locus_tag="HS041_35195" class="clusterblast-orf" id="subclusterblast-2_q14_0_all"  />
<polygon points="348,35 353,30 368,30 368,40 353,40 348,35 " style="fill:white; stroke-width:1; stroke:black; " description="&lt;b&gt;HS041_35200&lt;/b&gt;&lt;br&gt;NAD(P)/FAD-dependent oxidoreductase&lt;br&gt;Location: 137435 - 138449" locus_tag="HS041_35200" class="clusterblast-orf" id="subclusterblast-2_q15_0_all"  />
<polygon points="368,35 373,30 380,30 380,40 373,40 368,35 " style="fill:white; stroke-width:1; stroke:black; " description="&lt;b&gt;HS041_35205&lt;/b&gt;&lt;br&gt;isoprenylcysteine carboxyl methyltransferase family protein&lt;br&gt;Location: 138445 - 139057" locus_tag="HS041_35205" class="clusterblast-orf" id="subclusterblast-2_q16_0_all"  />
<polygon points="380,35 385,30 402,30 402,40 385,40 380,35 " style="fill:white; stroke-width:1; stroke:black; " description="&lt;b&gt;HS041_35210&lt;/b&gt;&lt;br&gt;type III polyketide synthase&lt;br&gt;Location: 139066 - 140176" locus_tag="HS041_35210" class="clusterblast-orf" id="subclusterblast-2_q17_0_all"  />
<polygon points="404,40 416,40 421,35 416,30 404,30 404,40 " style="fill:white; stroke-width:1; stroke:black; " description="&lt;b&gt;HS041_35215&lt;/b&gt;&lt;br&gt;UbiA family prenyltransferase&lt;br&gt;Location: 140265 - 141141" locus_tag="HS041_35215" class="clusterblast-orf" id="subclusterblast-2_q18_0_all"  />
<polygon points="428,40 447,40 452,35 447,30 428,30 428,40 " style="fill:white; stroke-width:1; stroke:black; " description="&lt;b&gt;HS041_35220&lt;/b&gt;&lt;br&gt;RtcB family protein&lt;br&gt;Location: 141492 - 142680" locus_tag="HS041_35220" class="clusterblast-orf" id="subclusterblast-2_q19_0_all"  />
<polygon points="457,35 462,30 468,30 468,40 462,40 457,35 " style="fill:white; stroke-width:1; stroke:black; " description="&lt;b&gt;HS041_35225&lt;/b&gt;&lt;br&gt;hypothetical protein&lt;br&gt;Location: 142927 - 143500" locus_tag="HS041_35225" class="clusterblast-orf" id="subclusterblast-2_q20_0_all"  />
<polygon points="476,40 478,40 483,35 478,30 476,30 476,40 " style="fill:white; stroke-width:1; stroke:black; " description="&lt;b&gt;HS041_35230&lt;/b&gt;&lt;br&gt;hypothetical protein&lt;br&gt;Location: 143890 - 144262" locus_tag="HS041_35230" class="clusterblast-orf" id="subclusterblast-2_q21_0_all"  />
<polygon points="490,35 495,30 503,30 503,40 495,40 490,35 " style="fill:white; stroke-width:1; stroke:black; " description="&lt;b&gt;HS041_35235&lt;/b&gt;&lt;br&gt;alpha/beta hydrolase&lt;br&gt;Location: 144594 - 145290" locus_tag="HS041_35235" class="clusterblast-orf" id="subclusterblast-2_q22_0_all"  />
<polygon points="505,35 509,30 509,40 505,35 " style="fill:white; stroke-width:1; stroke:black; " description="&lt;b&gt;HS041_35240&lt;/b&gt;&lt;br&gt;hypothetical protein&lt;br&gt;Location: 145349 - 145568" locus_tag="HS041_35240" class="clusterblast-orf" id="subclusterblast-2_q23_0_all"  />
<polygon points="509,35 512,30 512,40 509,35 " style="fill:white; stroke-width:1; stroke:black; " description="&lt;b&gt;HS041_35245&lt;/b&gt;&lt;br&gt;hypothetical protein&lt;br&gt;Location: 145564 - 145717" locus_tag="HS041_35245" class="clusterblast-orf" id="subclusterblast-2_q24_0_all"  />
<polygon points="527,40 535,40 540,35 535,30 527,30 527,40 " style="fill:white; stroke-width:1; stroke:black; " description="&lt;b&gt;HS041_35250&lt;/b&gt;&lt;br&gt;hypothetical protein&lt;br&gt;Location: 146485 - 147139" locus_tag="HS041_35250" class="clusterblast-orf" id="subclusterblast-2_q25_0_all"  />
<polygon points="544,40 555,40 560,35 555,30 544,30 544,40 " style="fill:white; stroke-width:1; stroke:black; " description="&lt;b&gt;HS041_35255&lt;/b&gt;&lt;br&gt;glycosyltransferase family 2 protein&lt;br&gt;Location: 147346 - 148153" locus_tag="HS041_35255" class="clusterblast-orf" id="subclusterblast-2_q26_0_all"  />
<polygon points="560,40 579,40 584,35 579,30 560,30 560,40 " style="fill:white; stroke-width:1; stroke:black; " description="&lt;b&gt;HS041_35260&lt;/b&gt;&lt;br&gt;YvcK family protein&lt;br&gt;Location: 148149 - 149385" locus_tag="HS041_35260" class="clusterblast-orf" id="subclusterblast-2_q27_0_all"  />
<polygon points="584,40 594,40 599,35 594,30 584,30 584,40 " style="fill:white; stroke-width:1; stroke:black; " description="&lt;b&gt;HS041_35265&lt;/b&gt;&lt;br&gt;HAD family phosphatase&lt;br&gt;Location: 149381 - 150128" locus_tag="HS041_35265" class="clusterblast-orf" id="subclusterblast-2_q28_0_all"  />
<polygon points="600,40 610,40 615,35 610,30 600,30 600,40 " style="fill:white; stroke-width:1; stroke:black; " description="&lt;b&gt;HS041_35270&lt;/b&gt;&lt;br&gt;NTP transferase domain-containing protein&lt;br&gt;Location: 150144 - 150903" locus_tag="HS041_35270" class="clusterblast-orf" id="subclusterblast-2_q29_0_all"  />
<polygon points="614,40 635,40 640,35 635,30 614,30 614,40 " style="fill:white; stroke-width:1; stroke:black; " description="&lt;b&gt;HS041_35275&lt;/b&gt;&lt;br&gt;glycosyltransferase family 4 protein&lt;br&gt;Location: 150890 - 152204" locus_tag="HS041_35275" class="clusterblast-orf" id="subclusterblast-2_q30_0_all"  />
<polygon points="642,40 662,40 667,35 662,30 642,30 642,40 " style="fill:white; stroke-width:1; stroke:black; " description="&lt;b&gt;HS041_35280&lt;/b&gt;&lt;br&gt;oligosaccharide flippase family protein&lt;br&gt;Location: 152311 - 153535" locus_tag="HS041_35280" class="clusterblast-orf" id="subclusterblast-2_q31_0_all"  />
<polygon points="667,40 686,40 691,35 686,30 667,30 667,40 " style="fill:white; stroke-width:1; stroke:black; " description="&lt;b&gt;HS041_35285&lt;/b&gt;&lt;br&gt;glycosyltransferase family 4 protein&lt;br&gt;Location: 153531 - 154788" locus_tag="HS041_35285" class="clusterblast-orf" id="subclusterblast-2_q32_0_all"  />
<polygon points="695,40 696,40 701,35 696,30 695,30 695,40 " style="fill:white; stroke-width:1; stroke:black; " description="&lt;b&gt;HS041_35290&lt;/b&gt;&lt;br&gt;VOC family protein&lt;br&gt;Location: 154952 - 155294" locus_tag="HS041_35290" class="clusterblast-orf" id="subclusterblast-2_q33_0_all"  />
<polygon points="710,40 714,40 719,35 714,30 710,30 710,40 " style="fill:white; stroke-width:1; stroke:black; " description="&lt;b&gt;HS041_35295&lt;/b&gt;&lt;br&gt;hypothetical protein&lt;br&gt;Location: 155749 - 156169" locus_tag="HS041_35295" class="clusterblast-orf" id="subclusterblast-2_q34_0_all"  />
<polygon points="722,40 740,40 745,35 740,30 722,30 722,40 " style="fill:white; stroke-width:1; stroke:black; " description="&lt;b&gt;HS041_35300&lt;/b&gt;&lt;br&gt;ABC transporter permease&lt;br&gt;Location: 156307 - 157516" locus_tag="HS041_35300" class="clusterblast-orf" id="subclusterblast-2_q35_0_all"  />
<polygon points="748,35 753,30 756,30 756,40 753,40 748,35 " style="fill:white; stroke-width:1; stroke:black; " description="&lt;b&gt;HS041_35305&lt;/b&gt;&lt;br&gt;DUF1232 domain-containing protein&lt;br&gt;Location: 157627 - 158056" locus_tag="HS041_35305" class="clusterblast-orf" id="subclusterblast-2_q36_0_all"  />
<polygon points="760,40 775,40 780,35 775,30 760,30 760,40 " style="fill:white; stroke-width:1; stroke:black; " description="&lt;b&gt;HS041_35310&lt;/b&gt;&lt;br&gt;GTP 3',8-cyclase MoaA&lt;br&gt;Location: 158254 - 159244" locus_tag="HS041_35310" class="clusterblast-orf" id="subclusterblast-2_q37_0_all"  />
</g>
</svg>
