<svg xmlns="http://www.w3.org/2000/svg" xmlns:xlink="http://www.w3.org/1999/xlink" version="1.1" x="0" y="0" height="50" width="800" viewBox="0 0 800 50" preserveAspectRatio="none"  >
<g label="Query sequence" class="clusterblast-cluster"  >
<text x="5" y="20" class="clusterblast-acc"  >
Query sequence</text>
<line x1="10" y1="35" x2="778.0" y2="35" style="stroke-width:1; stroke:grey; "  />
<polygon points="0,40 7,40 12,35 7,30 0,30 0,40 " style="fill:white; stroke-width:1; stroke:black; " description="&lt;b&gt;HS041_33900&lt;/b&gt;&lt;br&gt;ABC transporter ATP-binding protein&lt;br&gt;Location: 706760 - 707567" locus_tag="HS041_33900" class="clusterblast-orf" id="subclusterblast-3_q0_0_all"  />
<polygon points="13,40 34,40 39,35 34,30 13,30 13,40 " style="fill:white; stroke-width:1; stroke:black; " description="&lt;b&gt;HS041_33905&lt;/b&gt;&lt;br&gt;CocE/NonD family hydrolase&lt;br&gt;Location: 707603 - 709274" locus_tag="HS041_33905" class="clusterblast-orf" id="subclusterblast-3_q1_0_all"  />
<polygon points="41,40 44,40 49,35 44,30 41,30 41,40 " style="fill:white; stroke-width:1; stroke:black; " description="&lt;b&gt;HS041_33910&lt;/b&gt;&lt;br&gt;DUF3237 domain-containing protein&lt;br&gt;Location: 709435 - 709912" locus_tag="HS041_33910" class="clusterblast-orf" id="subclusterblast-3_q2_0_all"  />
<polygon points="52,40 56,40 61,35 56,30 52,30 52,40 " style="fill:white; stroke-width:1; stroke:black; " description="&lt;b&gt;HS041_33915&lt;/b&gt;&lt;br&gt;DUF2238 domain-containing protein&lt;br&gt;Location: 710106 - 710724" locus_tag="HS041_33915" class="clusterblast-orf" id="subclusterblast-3_q3_0_all"  />
<polygon points="65,40 77,40 82,35 77,30 65,30 65,40 " style="fill:white; stroke-width:1; stroke:black; " description="&lt;b&gt;HS041_33920&lt;/b&gt;&lt;br&gt;GTP-binding protein&lt;br&gt;Location: 710941 - 712084" locus_tag="HS041_33920" class="clusterblast-orf" id="subclusterblast-3_q4_0_all"  />
<polygon points="82,40 86,35 82,30 82,40 " style="fill:white; stroke-width:1; stroke:black; " description="&lt;b&gt;HS041_33925&lt;/b&gt;&lt;br&gt;30S ribosomal protein S18&lt;br&gt;Location: 712080 - 712308" locus_tag="HS041_33925" class="clusterblast-orf" id="subclusterblast-3_q5_0_all"  />
<polygon points="88,40 90,35 88,30 88,40 " style="fill:white; stroke-width:1; stroke:black; " description="&lt;b&gt;HS041_33930&lt;/b&gt;&lt;br&gt;50S ribosomal protein L33&lt;br&gt;Location: 712433 - 712598" locus_tag="HS041_33930" class="clusterblast-orf" id="subclusterblast-3_q6_0_all"  />
<polygon points="90,40 94,35 90,30 90,40 " style="fill:white; stroke-width:1; stroke:black; " description="&lt;b&gt;HS041_33935&lt;/b&gt;&lt;br&gt;type B 50S ribosomal protein L31&lt;br&gt;Location: 712602 - 712848" locus_tag="HS041_33935" class="clusterblast-orf" id="subclusterblast-3_q7_0_all"  />
<polygon points="94,40 98,35 94,30 94,40 " style="fill:white; stroke-width:1; stroke:black; " description="&lt;b&gt;HS041_33940&lt;/b&gt;&lt;br&gt;50S ribosomal protein L28&lt;br&gt;Location: 712847 - 713084" locus_tag="HS041_33940" class="clusterblast-orf" id="subclusterblast-3_q8_0_all"  />
<polygon points="98,40 98,40 103,35 98,30 98,30 98,40 " style="fill:white; stroke-width:1; stroke:black; " description="&lt;b&gt;HS041_33945&lt;/b&gt;&lt;br&gt;30S ribosomal protein S14&lt;br&gt;Location: 713083 - 713383" locus_tag="HS041_33945" class="clusterblast-orf" id="subclusterblast-3_q9_0_all"  />
<polygon points="103,40 105,35 103,30 103,40 " style="fill:white; stroke-width:1; stroke:black; " description="&lt;b&gt;HS041_33950&lt;/b&gt;&lt;br&gt;50S ribosomal protein L32&lt;br&gt;Location: 713386 - 713554" locus_tag="HS041_33950" class="clusterblast-orf" id="subclusterblast-3_q10_0_all"  />
<polygon points="107,40 114,40 119,35 114,30 107,30 107,40 " style="fill:white; stroke-width:1; stroke:black; " description="&lt;b&gt;HS041_33955&lt;/b&gt;&lt;br&gt;class I SAM-dependent methyltransferase&lt;br&gt;Location: 713649 - 714447" locus_tag="HS041_33955" class="clusterblast-orf" id="subclusterblast-3_q11_0_all"  />
<polygon points="121,35 126,30 137,30 137,40 126,40 121,35 " style="fill:white; stroke-width:1; stroke:black; " description="&lt;b&gt;HS041_33960&lt;/b&gt;&lt;br&gt;LacI family DNA-binding transcriptional regulator&lt;br&gt;Location: 714561 - 715590" locus_tag="HS041_33960" class="clusterblast-orf" id="subclusterblast-3_q12_0_all"  />
<polygon points="138,35 143,30 174,30 174,40 143,40 138,35 " style="fill:white; stroke-width:1; stroke:black; " description="&lt;b&gt;HS041_33965&lt;/b&gt;&lt;br&gt;ATP-binding cassette domain-containing protein&lt;br&gt;Location: 715665 - 718005" locus_tag="HS041_33965" class="clusterblast-orf" id="subclusterblast-3_q13_0_all"  />
<polygon points="176,40 186,40 191,35 186,30 176,30 176,40 " style="fill:white; stroke-width:1; stroke:black; " description="&lt;b&gt;HS041_33970&lt;/b&gt;&lt;br&gt;YafY family transcriptional regulator&lt;br&gt;Location: 718114 - 719071" locus_tag="HS041_33970" class="clusterblast-orf" id="subclusterblast-3_q14_0_all"  />
<polygon points="193,35 198,30 207,30 207,40 198,40 193,35 " style="fill:white; stroke-width:1; stroke:black; " description="&lt;b&gt;HS041_33975&lt;/b&gt;&lt;br&gt;hypothetical protein&lt;br&gt;Location: 719203 - 720076" locus_tag="HS041_33975" class="clusterblast-orf" id="subclusterblast-3_q15_0_all"  />
<polygon points="208,40 213,40 218,35 213,30 208,30 208,40 " style="fill:white; stroke-width:1; stroke:black; " description="&lt;b&gt;HS041_33980&lt;/b&gt;&lt;br&gt;winged helix-turn-helix transcriptional regulator&lt;br&gt;Location: 720196 - 720811" locus_tag="HS041_33980" class="clusterblast-orf" id="subclusterblast-3_q16_0_all"  />
<polygon points="220,40 236,40 241,35 236,30 220,30 220,40 " style="fill:white; stroke-width:1; stroke:black; " description="&lt;b&gt;HS041_33985&lt;/b&gt;&lt;br&gt;tryptophan 7-halogenase&lt;br&gt;Location: 720962 - 722273" locus_tag="HS041_33985" class="clusterblast-orf" id="subclusterblast-3_q17_0_all"  />
<polygon points="241,35 246,30 258,30 258,40 246,40 241,35 " style="fill:white; stroke-width:1; stroke:black; " description="&lt;b&gt;HS041_33990&lt;/b&gt;&lt;br&gt;saccharopine dehydrogenase NADP-binding domain-containing protein&lt;br&gt;Location: 722306 - 723383" locus_tag="HS041_33990" class="clusterblast-orf" id="subclusterblast-3_q18_0_all"  />
<polygon points="258,35 263,30 288,30 288,40 263,40 258,35 " style="fill:white; stroke-width:1; stroke:black; " description="&lt;b&gt;HS041_33995&lt;/b&gt;&lt;br&gt;condensation protein&lt;br&gt;Location: 723379 - 725344" locus_tag="HS041_33995" class="clusterblast-orf" id="subclusterblast-3_q19_0_all"  />
<polygon points="288,35 293,30 306,30 306,40 293,40 288,35 " style="fill:white; stroke-width:1; stroke:black; " description="&lt;b&gt;HS041_34000&lt;/b&gt;&lt;br&gt;class I SAM-dependent methyltransferase&lt;br&gt;Location: 725340 - 726483" locus_tag="HS041_34000" class="clusterblast-orf" id="subclusterblast-3_q20_0_all"  />
<polygon points="307,40 367,40 372,35 367,30 307,30 307,40 " style="fill:white; stroke-width:1; stroke:black; " description="&lt;b&gt;HS041_34005&lt;/b&gt;&lt;br&gt;amino acid adenylation domain-containing protein&lt;br&gt;Location: 726574 - 730708" locus_tag="HS041_34005" class="clusterblast-orf" id="subclusterblast-3_q21_0_all"  />
<polygon points="372,40 467,40 472,35 467,30 372,30 372,40 " style="fill:white; stroke-width:1; stroke:black; " description="&lt;b&gt;HS041_34010&lt;/b&gt;&lt;br&gt;SDR family NAD(P)-dependent oxidoreductase&lt;br&gt;Location: 730722 - 737169" locus_tag="HS041_34010" class="clusterblast-orf" id="subclusterblast-3_q22_0_all"  />
<polygon points="472,40 491,40 496,35 491,30 472,30 472,40 " style="fill:white; stroke-width:1; stroke:black; " description="&lt;b&gt;HS041_34015&lt;/b&gt;&lt;br&gt;ABC transporter substrate-binding protein&lt;br&gt;Location: 737180 - 738722" locus_tag="HS041_34015" class="clusterblast-orf" id="subclusterblast-3_q23_0_all"  />
<polygon points="497,40 506,40 511,35 506,30 497,30 497,40 " style="fill:white; stroke-width:1; stroke:black; " description="&lt;b&gt;HS041_34020&lt;/b&gt;&lt;br&gt;ABC transporter permease&lt;br&gt;Location: 738750 - 739674" locus_tag="HS041_34020" class="clusterblast-orf" id="subclusterblast-3_q24_0_all"  />
<polygon points="511,40 518,40 523,35 518,30 511,30 511,40 " style="fill:white; stroke-width:1; stroke:black; " description="&lt;b&gt;HS041_34025&lt;/b&gt;&lt;br&gt;ABC transporter permease subunit&lt;br&gt;Location: 739670 - 740453" locus_tag="HS041_34025" class="clusterblast-orf" id="subclusterblast-3_q25_0_all"  />
<polygon points="523,40 540,40 545,35 540,30 523,30 523,40 " style="fill:white; stroke-width:1; stroke:black; " description="&lt;b&gt;HS041_34030&lt;/b&gt;&lt;br&gt;ABC transporter ATP-binding protein&lt;br&gt;Location: 740449 - 741841" locus_tag="HS041_34030" class="clusterblast-orf" id="subclusterblast-3_q26_0_all"  />
<polygon points="545,40 578,40 583,35 578,30 545,30 545,40 " style="fill:white; stroke-width:1; stroke:black; " description="&lt;b&gt;HS041_34035&lt;/b&gt;&lt;br&gt;class I SAM-dependent methyltransferase&lt;br&gt;Location: 741848 - 744314" locus_tag="HS041_34035" class="clusterblast-orf" id="subclusterblast-3_q27_0_all"  />
<polygon points="584,35 589,30 598,30 598,40 589,40 584,35 " style="fill:white; stroke-width:1; stroke:black; " description="&lt;b&gt;HS041_34040&lt;/b&gt;&lt;br&gt;NAD(P)/FAD-dependent oxidoreductase&lt;br&gt;Location: 744366 - 745296" locus_tag="HS041_34040" class="clusterblast-orf" id="subclusterblast-3_q28_0_all"  />
<polygon points="598,35 603,30 609,30 609,40 603,40 598,35 " style="fill:white; stroke-width:1; stroke:black; " description="&lt;b&gt;HS041_34045&lt;/b&gt;&lt;br&gt;class I SAM-dependent methyltransferase&lt;br&gt;Location: 745288 - 746008" locus_tag="HS041_34045" class="clusterblast-orf" id="subclusterblast-3_q29_0_all"  />
<polygon points="626,40 629,40 634,35 629,30 626,30 626,40 " style="fill:white; stroke-width:1; stroke:black; " description="&lt;b&gt;HS041_34050&lt;/b&gt;&lt;br&gt;hypothetical protein&lt;br&gt;Location: 747065 - 747557" locus_tag="HS041_34050" class="clusterblast-orf" id="subclusterblast-3_q30_0_all"  />
<polygon points="635,40 635,40 640,35 635,30 635,30 635,40 " style="fill:white; stroke-width:1; stroke:black; " description="&lt;b&gt;HS041_34055&lt;/b&gt;&lt;br&gt;STAS domain-containing protein&lt;br&gt;Location: 747675 - 747999" locus_tag="HS041_34055" class="clusterblast-orf" id="subclusterblast-3_q31_0_all"  />
<polygon points="643,35 648,30 666,30 666,40 648,40 643,35 " style="fill:white; stroke-width:1; stroke:black; " description="&lt;b&gt;HS041_34060&lt;/b&gt;&lt;br&gt;pentapeptide repeat-containing protein&lt;br&gt;Location: 748144 - 749671" locus_tag="HS041_34060" class="clusterblast-orf" id="subclusterblast-3_q32_0_all"  />
<polygon points="677,35 682,30 682,30 682,40 682,40 677,35 " style="fill:white; stroke-width:1; stroke:black; " description="&lt;b&gt;HS041_34065&lt;/b&gt;&lt;br&gt;hypothetical protein&lt;br&gt;Location: 750360 - 750696" locus_tag="HS041_34065" class="clusterblast-orf" id="subclusterblast-3_q33_0_all"  />
<polygon points="684,35 689,30 700,30 700,40 689,40 684,35 " style="fill:white; stroke-width:1; stroke:black; " description="&lt;b&gt;HS041_34070&lt;/b&gt;&lt;br&gt;YafY family transcriptional regulator&lt;br&gt;Location: 750831 - 751833" locus_tag="HS041_34070" class="clusterblast-orf" id="subclusterblast-3_q34_0_all"  />
<polygon points="701,40 714,40 719,35 714,30 701,30 701,40 " style="fill:white; stroke-width:1; stroke:black; " description="&lt;b&gt;HS041_34075&lt;/b&gt;&lt;br&gt;alpha/beta fold hydrolase&lt;br&gt;Location: 751875 - 753066" locus_tag="HS041_34075" class="clusterblast-orf" id="subclusterblast-3_q35_0_all"  />
<polygon points="719,40 732,40 737,35 732,30 719,30 719,40 " style="fill:white; stroke-width:1; stroke:black; " description="&lt;b&gt;HS041_34080&lt;/b&gt;&lt;br&gt;winged helix DNA-binding domain-containing protein&lt;br&gt;Location: 753091 - 754246" locus_tag="HS041_34080" class="clusterblast-orf" id="subclusterblast-3_q36_0_all"  />
<polygon points="738,35 743,30 767,30 767,40 743,40 738,35 " style="fill:white; stroke-width:1; stroke:black; " description="&lt;b&gt;HS041_34085&lt;/b&gt;&lt;br&gt;acyltransferase&lt;br&gt;Location: 754268 - 756140" locus_tag="HS041_34085" class="clusterblast-orf" id="subclusterblast-3_q37_0_all"  />
<polygon points="774,40 775,40 780,35 775,30 774,30 774,40 " style="fill:white; stroke-width:1; stroke:black; " description="&lt;b&gt;HS041_34090&lt;/b&gt;&lt;br&gt;hypothetical protein&lt;br&gt;Location: 756583 - 756964" locus_tag="HS041_34090" class="clusterblast-orf" id="subclusterblast-3_q38_0_all"  />
</g>
</svg>
