<svg xmlns="http://www.w3.org/2000/svg" xmlns:xlink="http://www.w3.org/1999/xlink" version="1.1" x="0" y="0" height="50" width="800" viewBox="0 0 800 50" preserveAspectRatio="none"  >
<g label="Query sequence" class="clusterblast-cluster"  >
<text x="5" y="20" class="clusterblast-acc"  >
Query sequence</text>
<line x1="10" y1="35" x2="778.0" y2="35" style="stroke-width:1; stroke:grey; "  />
<polygon points="0,35 5,30 14,30 14,40 5,40 0,35 " style="fill:white; stroke-width:1; stroke:black; " description="&lt;b&gt;HS041_37425&lt;/b&gt;&lt;br&gt;hypothetical protein&lt;br&gt;Location: 11260 - 11833" locus_tag="HS041_37425" class="clusterblast-orf" id="subclusterblast-1_q0_0_all"  />
<polygon points="16,35 21,30 29,30 29,40 21,40 16,35 " style="fill:white; stroke-width:1; stroke:black; " description="&lt;b&gt;HS041_37430&lt;/b&gt;&lt;br&gt;M48 family metallopeptidase&lt;br&gt;Location: 11889 - 12405" locus_tag="HS041_37430" class="clusterblast-orf" id="subclusterblast-1_q1_0_all"  />
<polygon points="32,35 37,30 52,30 52,40 37,40 32,35 " style="fill:white; stroke-width:1; stroke:black; " description="&lt;b&gt;HS041_37435&lt;/b&gt;&lt;br&gt;enoyl-CoA hydratase/isomerase family protein&lt;br&gt;Location: 12546 - 13332" locus_tag="HS041_37435" class="clusterblast-orf" id="subclusterblast-1_q2_0_all"  />
<polygon points="56,40 79,40 84,35 79,30 56,30 56,40 " style="fill:white; stroke-width:1; stroke:black; " description="&lt;b&gt;HS041_37440&lt;/b&gt;&lt;br&gt;ThiF family adenylyltransferase&lt;br&gt;Location: 13481 - 14582" locus_tag="HS041_37440" class="clusterblast-orf" id="subclusterblast-1_q3_0_all"  />
<polygon points="86,40 115,40 120,35 115,30 86,30 86,40 " style="fill:white; stroke-width:1; stroke:black; " description="&lt;b&gt;HS041_37445&lt;/b&gt;&lt;br&gt;AarF/ABC1/UbiB kinase family protein&lt;br&gt;Location: 14645 - 15989" locus_tag="HS041_37445" class="clusterblast-orf" id="subclusterblast-1_q4_0_all"  />
<polygon points="125,35 130,30 130,30 130,40 130,40 125,35 " style="fill:white; stroke-width:1; stroke:black; " description="&lt;b&gt;HS041_37450&lt;/b&gt;&lt;br&gt;hypothetical protein&lt;br&gt;Location: 16202 - 16397" locus_tag="HS041_37450" class="clusterblast-orf" id="subclusterblast-1_q5_0_all"  />
<polygon points="131,35 136,30 138,30 138,40 136,40 131,35 " style="fill:white; stroke-width:1; stroke:black; " description="&lt;b&gt;HS041_37455&lt;/b&gt;&lt;br&gt;WhiB family transcriptional regulator&lt;br&gt;Location: 16448 - 16718" locus_tag="HS041_37455" class="clusterblast-orf" id="subclusterblast-1_q6_0_all"  />
<polygon points="152,35 157,30 174,30 174,40 157,40 152,35 " style="fill:white; stroke-width:1; stroke:black; " description="&lt;b&gt;HS041_37460&lt;/b&gt;&lt;br&gt;acyl-CoA thioesterase II&lt;br&gt;Location: 17268 - 18135" locus_tag="HS041_37460" class="clusterblast-orf" id="subclusterblast-1_q7_0_all"  />
<polygon points="174,35 179,30 227,30 227,40 179,40 174,35 " style="fill:white; stroke-width:1; stroke:black; " description="&lt;b&gt;HS041_37465&lt;/b&gt;&lt;br&gt;ATP-dependent DNA helicase UvrD2&lt;br&gt;Location: 18131 - 20201" locus_tag="HS041_37465" class="clusterblast-orf" id="subclusterblast-1_q8_0_all"  />
<polygon points="231,40 251,40 256,35 251,30 231,30 231,40 " style="fill:white; stroke-width:1; stroke:black; " description="&lt;b&gt;HS041_37470&lt;/b&gt;&lt;br&gt;alpha/beta hydrolase&lt;br&gt;Location: 20379 - 21360" locus_tag="HS041_37470" class="clusterblast-orf" id="subclusterblast-1_q9_0_all"  />
<polygon points="258,40 259,40 264,35 259,30 258,30 258,40 " style="fill:white; stroke-width:1; stroke:black; " description="&lt;b&gt;HS041_37475&lt;/b&gt;&lt;br&gt;mycoredoxin&lt;br&gt;Location: 21444 - 21696" locus_tag="HS041_37475" class="clusterblast-orf" id="subclusterblast-1_q10_0_all"  />
<polygon points="265,35 270,30 273,30 273,40 270,40 265,35 " style="fill:white; stroke-width:1; stroke:black; " description="&lt;b&gt;HS041_37480&lt;/b&gt;&lt;br&gt;hypothetical protein&lt;br&gt;Location: 21717 - 22026" locus_tag="HS041_37480" class="clusterblast-orf" id="subclusterblast-1_q11_0_all"  />
<polygon points="275,35 280,30 280,30 280,40 280,40 275,35 " style="fill:white; stroke-width:1; stroke:black; " description="&lt;b&gt;HS041_37485&lt;/b&gt;&lt;br&gt;hypothetical protein&lt;br&gt;Location: 22113 - 22308" locus_tag="HS041_37485" class="clusterblast-orf" id="subclusterblast-1_q12_0_all"  />
<polygon points="285,35 290,30 310,30 310,40 290,40 285,35 " style="fill:white; stroke-width:1; stroke:black; " description="&lt;b&gt;HS041_37490&lt;/b&gt;&lt;br&gt;NAD(+) diphosphatase&lt;br&gt;Location: 22512 - 23490" locus_tag="HS041_37490" class="clusterblast-orf" id="subclusterblast-1_q13_0_all"  />
<polygon points="317,40 342,40 347,35 342,30 317,30 317,40 " style="fill:white; stroke-width:1; stroke:black; " description="&lt;b&gt;HS041_37495&lt;/b&gt;&lt;br&gt;ATP-grasp domain-containing protein&lt;br&gt;Location: 23772 - 24933" locus_tag="HS041_37495" class="clusterblast-orf" id="subclusterblast-1_q14_0_all"  />
<polygon points="347,40 382,40 387,35 382,30 347,30 347,40 " style="fill:white; stroke-width:1; stroke:black; " description="&lt;b&gt;HS041_37500&lt;/b&gt;&lt;br&gt;siderophore biosynthesis protein&lt;br&gt;Location: 24929 - 26531" locus_tag="HS041_37500" class="clusterblast-orf" id="subclusterblast-1_q15_0_all"  />
<polygon points="387,40 425,40 430,35 425,30 387,30 387,40 " style="fill:white; stroke-width:1; stroke:black; " description="&lt;b&gt;HS041_37505&lt;/b&gt;&lt;br&gt;iron transporter&lt;br&gt;Location: 26527 - 28204" locus_tag="HS041_37505" class="clusterblast-orf" id="subclusterblast-1_q16_0_all"  />
<polygon points="432,35 437,30 518,30 518,40 437,40 432,35 " style="fill:white; stroke-width:1; stroke:black; " description="&lt;b&gt;HS041_37510&lt;/b&gt;&lt;br&gt;ATP-dependent helicase&lt;br&gt;Location: 28286 - 31703" locus_tag="HS041_37510" class="clusterblast-orf" id="subclusterblast-1_q17_0_all"  />
<polygon points="520,35 525,30 603,30 603,40 525,40 520,35 " style="fill:white; stroke-width:1; stroke:black; " description="&lt;b&gt;HS041_37515&lt;/b&gt;&lt;br&gt;ATP-dependent helicase&lt;br&gt;Location: 31773 - 35052" locus_tag="HS041_37515" class="clusterblast-orf" id="subclusterblast-1_q18_0_all"  />
<polygon points="609,35 614,30 650,30 650,40 614,40 609,35 " style="fill:white; stroke-width:1; stroke:black; " description="&lt;b&gt;HS041_37520&lt;/b&gt;&lt;br&gt;beta-N-acetylhexosaminidase&lt;br&gt;Location: 35259 - 36876" locus_tag="HS041_37520" class="clusterblast-orf" id="subclusterblast-1_q19_0_all"  />
<polygon points="652,35 657,30 722,30 722,40 657,40 652,35 " style="fill:white; stroke-width:1; stroke:black; " description="&lt;b&gt;HS041_37525&lt;/b&gt;&lt;br&gt;CDP-glycerol glycerophosphotransferase family protein&lt;br&gt;Location: 36956 - 39743" locus_tag="HS041_37525" class="clusterblast-orf" id="subclusterblast-1_q20_0_all"  />
<polygon points="727,35 732,30 735,30 735,40 732,40 727,35 " style="fill:white; stroke-width:1; stroke:black; " description="&lt;b&gt;HS041_37530&lt;/b&gt;&lt;br&gt;MGMT family protein&lt;br&gt;Location: 39916 - 40246" locus_tag="HS041_37530" class="clusterblast-orf" id="subclusterblast-1_q21_0_all"  />
<polygon points="735,35 740,30 745,30 745,40 740,40 735,35 " style="fill:white; stroke-width:1; stroke:black; " description="&lt;b&gt;HS041_37535&lt;/b&gt;&lt;br&gt;hypothetical protein&lt;br&gt;Location: 40262 - 40631" locus_tag="HS041_37535" class="clusterblast-orf" id="subclusterblast-1_q22_0_all"  />
<polygon points="747,35 752,30 780,30 780,40 752,40 747,35 " style="fill:white; stroke-width:1; stroke:black; " description="&lt;b&gt;HS041_37540&lt;/b&gt;&lt;br&gt;S8 family serine peptidase&lt;br&gt;Location: 40730 - 42008" locus_tag="HS041_37540" class="clusterblast-orf" id="subclusterblast-1_q23_0_all"  />
</g>
</svg>
