<svg xmlns="http://www.w3.org/2000/svg" xmlns:xlink="http://www.w3.org/1999/xlink" version="1.1" x="0" y="0" height="50" width="800" viewBox="0 0 800 50" preserveAspectRatio="none"  >
<g label="Query sequence" class="clusterblast-cluster"  >
<text x="5" y="20" class="clusterblast-acc"  >
Query sequence</text>
<line x1="10" y1="35" x2="778.0" y2="35" style="stroke-width:1; stroke:grey; "  />
<polygon points="0,40 43,40 48,35 43,30 0,30 0,40 " style="fill:white; stroke-width:1; stroke:black; " description="&lt;b&gt;HS041_00275&lt;/b&gt;&lt;br&gt;hypothetical protein&lt;br&gt;Location: 63347 - 63914" locus_tag="HS041_00275" class="clusterblast-orf" id="subclusterblast-1_q0_0_all"  />
<polygon points="53,35 58,30 164,30 164,40 58,40 53,35 " style="fill:white; stroke-width:1; stroke:black; " description="&lt;b&gt;HS041_00280&lt;/b&gt;&lt;br&gt;PhoH family protein&lt;br&gt;Location: 63980 - 65303" locus_tag="HS041_00280" class="clusterblast-orf" id="subclusterblast-1_q1_0_all"  />
<polygon points="184,35 189,30 248,30 248,40 189,40 184,35 " style="fill:white; stroke-width:1; stroke:black; " description="&lt;b&gt;HS041_00285&lt;/b&gt;&lt;br&gt;isoprenyl transferase&lt;br&gt;Location: 65546 - 66314" locus_tag="HS041_00285" class="clusterblast-orf" id="subclusterblast-1_q2_0_all"  />
<polygon points="255,35 260,30 299,30 299,40 260,40 255,35 " style="fill:white; stroke-width:1; stroke:black; " description="&lt;b&gt;HS041_00290&lt;/b&gt;&lt;br&gt;hypothetical protein&lt;br&gt;Location: 66396 - 66930" locus_tag="HS041_00290" class="clusterblast-orf" id="subclusterblast-1_q3_0_all"  />
<polygon points="299,35 304,30 333,30 333,40 304,40 299,35 " style="fill:white; stroke-width:1; stroke:black; " description="&lt;b&gt;HS041_00295&lt;/b&gt;&lt;br&gt;hypothetical protein&lt;br&gt;Location: 66931 - 67339" locus_tag="HS041_00295" class="clusterblast-orf" id="subclusterblast-1_q4_0_all"  />
<polygon points="339,35 344,30 412,30 412,40 344,40 339,35 " style="fill:white; stroke-width:1; stroke:black; " description="&lt;b&gt;HS041_00300&lt;/b&gt;&lt;br&gt;DUF692 domain-containing protein&lt;br&gt;Location: 67409 - 68276" locus_tag="HS041_00300" class="clusterblast-orf" id="subclusterblast-1_q5_0_all"  />
<polygon points="411,35 416,30 492,30 492,40 416,40 411,35 " style="fill:white; stroke-width:1; stroke:black; " description="&lt;b&gt;HS041_00305&lt;/b&gt;&lt;br&gt;TIGR04222 domain-containing membrane protein&lt;br&gt;Location: 68272 - 69241" locus_tag="HS041_00305" class="clusterblast-orf" id="subclusterblast-1_q6_0_all"  />
<polygon points="499,35 504,30 649,30 649,40 504,40 499,35 " style="fill:white; stroke-width:1; stroke:black; " description="&lt;b&gt;HS041_00310&lt;/b&gt;&lt;br&gt;phosphoenolpyruvate carboxykinase (GTP)&lt;br&gt;Location: 69324 - 71124" locus_tag="HS041_00310" class="clusterblast-orf" id="subclusterblast-1_q7_0_all"  />
<polygon points="674,35 679,30 718,30 718,40 679,40 674,35 " style="fill:white; stroke-width:1; stroke:black; " description="&lt;b&gt;HS041_00315&lt;/b&gt;&lt;br&gt;hypothetical protein&lt;br&gt;Location: 71416 - 71944" locus_tag="HS041_00315" class="clusterblast-orf" id="subclusterblast-1_q8_0_all"  />
<polygon points="730,40 775,40 780,35 775,30 730,30 730,40 " style="fill:white; stroke-width:1; stroke:black; " description="&lt;b&gt;HS041_00320&lt;/b&gt;&lt;br&gt;TetR family transcriptional regulator&lt;br&gt;Location: 72096 - 72696" locus_tag="HS041_00320" class="clusterblast-orf" id="subclusterblast-1_q9_0_all"  />
</g>
</svg>
