<svg xmlns="http://www.w3.org/2000/svg" xmlns:xlink="http://www.w3.org/1999/xlink" version="1.1" x="0" y="0" height="50" width="800" viewBox="0 0 800 50" preserveAspectRatio="none"  >
<g label="Query sequence" class="clusterblast-cluster"  >
<text x="5" y="20" class="clusterblast-acc"  >
Query sequence</text>
<line x1="10" y1="35" x2="778.0" y2="35" style="stroke-width:1; stroke:grey; "  />
<polygon points="0,40 63,40 68,35 63,30 0,30 0,40 " style="fill:white; stroke-width:1; stroke:black; " description="&lt;b&gt;HS041_34895&lt;/b&gt;&lt;br&gt;protoheme IX farnesyltransferase&lt;br&gt;Location: 68393 - 69347" locus_tag="HS041_34895" class="clusterblast-orf" id="subclusterblast-1_q0_0_all"  />
<polygon points="75,40 151,40 156,35 151,30 75,30 75,40 " style="fill:white; stroke-width:1; stroke:black; " description="&lt;b&gt;HS041_34900&lt;/b&gt;&lt;br&gt;PrsW family intramembrane metalloprotease&lt;br&gt;Location: 69439 - 70588" locus_tag="HS041_34900" class="clusterblast-orf" id="subclusterblast-1_q1_0_all"  />
<polygon points="155,35 160,30 210,30 210,40 160,40 155,35 " style="fill:white; stroke-width:1; stroke:black; " description="&lt;b&gt;HS041_34905&lt;/b&gt;&lt;br&gt;YdcF family protein&lt;br&gt;Location: 70572 - 71340" locus_tag="HS041_34905" class="clusterblast-orf" id="subclusterblast-1_q2_0_all"  />
<polygon points="213,35 218,30 278,30 278,40 218,40 213,35 " style="fill:white; stroke-width:1; stroke:black; " description="&lt;b&gt;HS041_34910&lt;/b&gt;&lt;br&gt;heme A synthase&lt;br&gt;Location: 71388 - 72300" locus_tag="HS041_34910" class="clusterblast-orf" id="subclusterblast-1_q3_0_all"  />
<polygon points="292,40 374,40 379,35 374,30 292,30 292,40 " style="fill:white; stroke-width:1; stroke:black; " description="&lt;b&gt;HS041_34915&lt;/b&gt;&lt;br&gt;FAD-binding oxidoreductase&lt;br&gt;Location: 72499 - 73717" locus_tag="HS041_34915" class="clusterblast-orf" id="subclusterblast-1_q4_0_all"  />
<polygon points="382,40 404,40 409,35 404,30 382,30 382,40 " style="fill:white; stroke-width:1; stroke:black; " description="&lt;b&gt;HS041_34920&lt;/b&gt;&lt;br&gt;(2Fe-2S)-binding protein&lt;br&gt;Location: 73761 - 74139" locus_tag="HS041_34920" class="clusterblast-orf" id="subclusterblast-1_q5_0_all"  />
<polygon points="408,40 512,40 517,35 512,30 408,30 408,40 " style="fill:white; stroke-width:1; stroke:black; " description="&lt;b&gt;HS041_34925&lt;/b&gt;&lt;br&gt;FAD-dependent oxidoreductase&lt;br&gt;Location: 74135 - 75656" locus_tag="HS041_34925" class="clusterblast-orf" id="subclusterblast-1_q6_0_all"  />
<polygon points="517,40 575,40 580,35 575,30 517,30 517,40 " style="fill:white; stroke-width:1; stroke:black; " description="&lt;b&gt;HS041_34930&lt;/b&gt;&lt;br&gt;dihydrodipicolinate synthase family protein&lt;br&gt;Location: 75655 - 76549" locus_tag="HS041_34930" class="clusterblast-orf" id="subclusterblast-1_q7_0_all"  />
<polygon points="582,40 648,40 653,35 648,30 582,30 582,40 " style="fill:white; stroke-width:1; stroke:black; " description="&lt;b&gt;HS041_34935&lt;/b&gt;&lt;br&gt;proline racemase family protein&lt;br&gt;Location: 76575 - 77577" locus_tag="HS041_34935" class="clusterblast-orf" id="subclusterblast-1_q8_0_all"  />
<polygon points="658,40 702,40 707,35 702,30 658,30 658,40 " style="fill:white; stroke-width:1; stroke:black; " description="&lt;b&gt;HS041_34940&lt;/b&gt;&lt;br&gt;GntR family transcriptional regulator&lt;br&gt;Location: 77650 - 78337" locus_tag="HS041_34940" class="clusterblast-orf" id="subclusterblast-1_q9_0_all"  />
<polygon points="715,35 720,30 780,30 780,40 720,40 715,35 " style="fill:white; stroke-width:1; stroke:black; " description="&lt;b&gt;HS041_34945&lt;/b&gt;&lt;br&gt;EamA family transporter&lt;br&gt;Location: 78449 - 79364" locus_tag="HS041_34945" class="clusterblast-orf" id="subclusterblast-1_q10_0_all"  />
</g>
</svg>
